<?xml version="1.0" encoding="utf-8"?>
<!-- Generator: Adobe Illustrator 26.1.0, SVG Export Plug-In . SVG Version: 6.00 Build 0)  -->
<svg version="1.1" id="Layer_1" xmlns="http://www.w3.org/2000/svg" xmlns:xlink="http://www.w3.org/1999/xlink" x="0px" y="0px"
	 viewBox="0 0 1300 400" style="enable-background:new 0 0 1300 400;" xml:space="preserve">
<g>
	
		<ellipse transform="matrix(0.7071 -0.7071 0.7071 0.7071 86.9307 811.6141)" style="fill:#98BDF4;" cx="1023.17" cy="300.87" rx="56.87" ry="56.87"/>
</g>
<path style="fill:none;stroke:#FFCB80;stroke-width:2;stroke-miterlimit:10;" d="M1325.55,295.04c-7.89-21.77-19.5-45.83-41.82-52
	c-22.36-6.18-45.65,9.31-58.27,28.77c-12.63,19.46-17.99,42.64-27.66,63.73c-9.68,21.08-26.09,41.62-48.97,45.46
	c-19.68,3.3-39.31-6.66-54.7-19.36s-28.27-28.38-44.54-39.94c-16.27-11.55-37.76-18.63-56.28-11.17
	c-17.2,6.93-27.44,24.24-37.04,40.1c-27.21,44.94-59.14,87.02-95.09,125.32"/>
<g>
	<polygon style="fill:none;stroke:#0A54BF;stroke-width:2;stroke-miterlimit:10;" points="1163.42,306.62 1149.21,298.41 
		1149.21,314.82 1163.42,306.62 1149.21,298.41 1149.21,314.82 	"/>
	<polyline style="fill:none;stroke:#0A54BF;stroke-width:2;stroke-miterlimit:10;" points="1143.57,306.62 1129.35,298.41 
		1129.35,314.82 1143.57,306.62 1129.35,298.41 1129.35,314.82 	"/>
	<polygon style="fill:none;stroke:#0A54BF;stroke-width:2;stroke-miterlimit:10;" points="1123.71,306.62 1109.5,298.41 
		1109.5,314.82 1123.71,306.62 1109.5,298.41 1109.5,314.82 	"/>
</g>
<g>
	<polygon style="fill:#0A83DD;" points="1241.16,306.62 1226.95,298.41 1226.95,314.82 1241.16,306.62 1226.95,298.41 
		1226.95,314.82 	"/>
	<polygon style="fill:#0A83DD;" points="1201.45,306.62 1187.24,298.41 1187.24,314.82 1201.45,306.62 1187.24,298.41 
		1187.24,314.82 	"/>
</g>
<circle style="fill:#FDCF47;" cx="991" cy="252.04" r="14.75"/>
</svg>
