<svg width="315" height="315" viewBox="0 0 315 315" fill="none" xmlns="http://www.w3.org/2000/svg">
<path d="M13.3533 20.7762L18.1471 10.7238" stroke="#00A7A6" stroke-width="2" stroke-linecap="round"/>
<path d="M14.4009 52.6525L17.0997 41.8475" stroke="#00A7A6" stroke-width="2" stroke-linecap="round"/>
<path d="M15.7065 84.3183L15.794 73.1817" stroke="#00A7A6" stroke-width="2" stroke-linecap="round"/>
<path d="M17.0425 115.666L14.4571 104.834" stroke="#00A7A6" stroke-width="2" stroke-linecap="round"/>
<path d="M18.1851 146.758L13.3148 136.742" stroke="#00A7A6" stroke-width="2" stroke-linecap="round"/>
<path d="M19.0103 177.764L12.4902 168.736" stroke="#00A7A6" stroke-width="2" stroke-linecap="round"/>
<path d="M19.5149 208.853L11.9856 200.647" stroke="#00A7A6" stroke-width="2" stroke-linecap="round"/>
<path d="M19.7695 240.104L11.7302 232.396" stroke="#00A7A6" stroke-width="2" stroke-linecap="round"/>
<path d="M19.8687 271.498L11.632 264.002" stroke="#00A7A6" stroke-width="2" stroke-linecap="round"/>
<path d="M19.8979 302.965L11.6022 295.535" stroke="#00A7A6" stroke-width="2" stroke-linecap="round"/>
<path d="M43.9631 20.2448L50.5371 11.2552" stroke="#00A7A6" stroke-width="2" stroke-linecap="round"/>
<path d="M44.812 52.2564L49.6879 42.2436" stroke="#00A7A6" stroke-width="2" stroke-linecap="round"/>
<path d="M45.9243 84.1584L48.5753 73.3416" stroke="#00A7A6" stroke-width="2" stroke-linecap="round"/>
<path d="M47.1113 115.817L47.3892 104.683" stroke="#00A7A6" stroke-width="2" stroke-linecap="round"/>
<path d="M48.1577 147.244L46.3419 136.256" stroke="#00A7A6" stroke-width="2" stroke-linecap="round"/>
<path d="M48.9175 178.563L45.5825 167.937" stroke="#00A7A6" stroke-width="2" stroke-linecap="round"/>
<path d="M49.345 209.909L45.155 199.591" stroke="#00A7A6" stroke-width="2" stroke-linecap="round"/>
<path d="M49.4768 241.354L45.0233 231.146" stroke="#00A7A6" stroke-width="2" stroke-linecap="round"/>
<path d="M49.3984 272.887L45.102 262.613" stroke="#00A7A6" stroke-width="2" stroke-linecap="round"/>
<path d="M49.2249 304.456L45.2748 294.044" stroke="#00A7A6" stroke-width="2" stroke-linecap="round"/>
<path d="M74.6284 19.4945L82.8713 12.0055" stroke="#00A7A6" stroke-width="2" stroke-linecap="round"/>
<path d="M75.2832 51.6077L82.2166 42.8923" stroke="#00A7A6" stroke-width="2" stroke-linecap="round"/>
<path d="M76.1919 83.6961L81.3081 73.8039" stroke="#00A7A6" stroke-width="2" stroke-linecap="round"/>
<path d="M77.2012 115.599L80.2986 104.901" stroke="#00A7A6" stroke-width="2" stroke-linecap="round"/>
<path d="M78.1086 147.281L79.3911 136.219" stroke="#00A7A6" stroke-width="2" stroke-linecap="round"/>
<path d="M78.7471 178.818L78.7529 167.682" stroke="#00A7A6" stroke-width="2" stroke-linecap="round"/>
<path d="M79.0359 210.311L78.4641 199.189" stroke="#00A7A6" stroke-width="2" stroke-linecap="round"/>
<path d="M78.9868 241.813L78.5129 230.687" stroke="#00A7A6" stroke-width="2" stroke-linecap="round"/>
<path d="M78.6902 273.318L78.8095 262.182" stroke="#00A7A6" stroke-width="2" stroke-linecap="round"/>
<path d="M78.292 304.8L79.2076 293.7" stroke="#00A7A6" stroke-width="2" stroke-linecap="round"/>
<path d="M105.54 18.7199L114.961 12.7801" stroke="#00A7A6" stroke-width="2" stroke-linecap="round"/>
<path d="M106.037 50.8911L114.463 43.6089" stroke="#00A7A6" stroke-width="2" stroke-linecap="round"/>
<path d="M106.768 83.0951L113.733 74.4049" stroke="#00A7A6" stroke-width="2" stroke-linecap="round"/>
<path d="M107.606 115.151L112.893 105.349" stroke="#00A7A6" stroke-width="2" stroke-linecap="round"/>
<path d="M108.361 146.988L112.139 136.512" stroke="#00A7A6" stroke-width="2" stroke-linecap="round"/>
<path d="M108.854 178.641L111.646 167.859" stroke="#00A7A6" stroke-width="2" stroke-linecap="round"/>
<path d="M108.99 210.174L111.51 199.326" stroke="#00A7A6" stroke-width="2" stroke-linecap="round"/>
<path d="M108.776 241.62L111.724 230.88" stroke="#00A7A6" stroke-width="2" stroke-linecap="round"/>
<path d="M108.316 272.972L112.184 262.528" stroke="#00A7A6" stroke-width="2" stroke-linecap="round"/>
<path d="M107.78 304.24L112.721 294.26" stroke="#00A7A6" stroke-width="2" stroke-linecap="round"/>
<path d="M136.723 18.1458L146.777 13.3542" stroke="#00A7A6" stroke-width="2" stroke-linecap="round"/>
<path d="M137.12 50.3435L146.38 44.1565" stroke="#00A7A6" stroke-width="2" stroke-linecap="round"/>
<path d="M137.732 82.6055L145.768 74.8945" stroke="#00A7A6" stroke-width="2" stroke-linecap="round"/>
<path d="M138.453 114.737L145.047 105.763" stroke="#00A7A6" stroke-width="2" stroke-linecap="round"/>
<path d="M139.094 146.644L144.406 136.856" stroke="#00A7A6" stroke-width="2" stroke-linecap="round"/>
<path d="M139.474 178.332L144.026 168.168" stroke="#00A7A6" stroke-width="2" stroke-linecap="round"/>
<path d="M139.492 209.84L144.008 199.66" stroke="#00A7A6" stroke-width="2" stroke-linecap="round"/>
<path d="M139.162 241.181L144.338 231.319" stroke="#00A7A6" stroke-width="2" stroke-linecap="round"/>
<path d="M138.609 272.348L144.892 263.152" stroke="#00A7A6" stroke-width="2" stroke-linecap="round"/>
<path d="M138.02 303.384L145.48 295.116" stroke="#00A7A6" stroke-width="2" stroke-linecap="round"/>
<path d="M168.121 17.9177L178.379 13.5823" stroke="#00A7A6" stroke-width="2" stroke-linecap="round"/>
<path d="M168.502 50.159L177.998 44.341" stroke="#00A7A6" stroke-width="2" stroke-linecap="round"/>
<path d="M169.104 82.4678L177.396 75.0321" stroke="#00A7A6" stroke-width="2" stroke-linecap="round"/>
<path d="M169.816 114.633L176.684 105.867" stroke="#00A7A6" stroke-width="2" stroke-linecap="round"/>
<path d="M170.434 146.554L176.066 136.946" stroke="#00A7A6" stroke-width="2" stroke-linecap="round"/>
<path d="M170.763 178.232L175.737 168.268" stroke="#00A7A6" stroke-width="2" stroke-linecap="round"/>
<path d="M170.703 209.702L175.798 199.798" stroke="#00A7A6" stroke-width="2" stroke-linecap="round"/>
<path d="M170.278 240.959L176.222 231.541" stroke="#00A7A6" stroke-width="2" stroke-linecap="round"/>
<path d="M169.64 271.99L176.859 263.51" stroke="#00A7A6" stroke-width="2" stroke-linecap="round"/>
<path d="M169.002 302.85L177.498 295.65" stroke="#00A7A6" stroke-width="2" stroke-linecap="round"/>
<path d="M199.735 18.1695L209.765 13.3305" stroke="#00A7A6" stroke-width="2" stroke-linecap="round"/>
<path d="M200.225 50.495L209.275 44.005" stroke="#00A7A6" stroke-width="2" stroke-linecap="round"/>
<path d="M200.97 82.8388L208.53 74.6611" stroke="#00A7A6" stroke-width="2" stroke-linecap="round"/>
<path d="M201.814 114.982L207.685 105.518" stroke="#00A7A6" stroke-width="2" stroke-linecap="round"/>
<path d="M202.513 146.849L206.987 136.651" stroke="#00A7A6" stroke-width="2" stroke-linecap="round"/>
<path d="M202.852 178.485L206.648 168.015" stroke="#00A7A6" stroke-width="2" stroke-linecap="round"/>
<path d="M202.73 209.939L206.77 199.561" stroke="#00A7A6" stroke-width="2" stroke-linecap="round"/>
<path d="M202.188 241.194L207.311 231.306" stroke="#00A7A6" stroke-width="2" stroke-linecap="round"/>
<path d="M201.402 272.199L208.098 263.301" stroke="#00A7A6" stroke-width="2" stroke-linecap="round"/>
<path d="M200.622 302.987L208.878 295.513" stroke="#00A7A6" stroke-width="2" stroke-linecap="round"/>
<path d="M231.699 18.9594L240.8 12.5406" stroke="#00A7A6" stroke-width="2" stroke-linecap="round"/>
<path d="M232.477 51.3455L240.023 43.1545" stroke="#00A7A6" stroke-width="2" stroke-linecap="round"/>
<path d="M233.545 83.6174L238.955 73.8827" stroke="#00A7A6" stroke-width="2" stroke-linecap="round"/>
<path d="M234.655 115.585L237.844 104.915" stroke="#00A7A6" stroke-width="2" stroke-linecap="round"/>
<path d="M235.507 147.269L236.993 136.231" stroke="#00A7A6" stroke-width="2" stroke-linecap="round"/>
<path d="M235.885 178.807L236.615 167.693" stroke="#00A7A6" stroke-width="2" stroke-linecap="round"/>
<path d="M235.707 210.292L236.793 199.208" stroke="#00A7A6" stroke-width="2" stroke-linecap="round"/>
<path d="M235.021 241.681L237.479 230.819" stroke="#00A7A6" stroke-width="2" stroke-linecap="round"/>
<path d="M234.008 272.847L238.492 262.653" stroke="#00A7A6" stroke-width="2" stroke-linecap="round"/>
<path d="M232.957 303.741L239.542 294.759" stroke="#00A7A6" stroke-width="2" stroke-linecap="round"/>
<path d="M264.3 20.1214L271.199 11.3786" stroke="#00A7A6" stroke-width="2" stroke-linecap="round"/>
<path d="M265.557 52.3685L269.943 42.1315" stroke="#00A7A6" stroke-width="2" stroke-linecap="round"/>
<path d="M267.058 84.2752L268.442 73.2247" stroke="#00A7A6" stroke-width="2" stroke-linecap="round"/>
<path d="M268.434 115.776L267.066 104.724" stroke="#00A7A6" stroke-width="2" stroke-linecap="round"/>
<path d="M269.38 147.075L266.121 136.425" stroke="#00A7A6" stroke-width="2" stroke-linecap="round"/>
<path d="M269.756 178.445L265.744 168.055" stroke="#00A7A6" stroke-width="2" stroke-linecap="round"/>
<path d="M269.54 210.023L265.96 199.477" stroke="#00A7A6" stroke-width="2" stroke-linecap="round"/>
<path d="M268.765 241.725L266.735 230.775" stroke="#00A7A6" stroke-width="2" stroke-linecap="round"/>
<path d="M267.561 273.315L267.939 262.185" stroke="#00A7A6" stroke-width="2" stroke-linecap="round"/>
<path d="M266.203 304.599L269.298 293.901" stroke="#00A7A6" stroke-width="2" stroke-linecap="round"/>
<path d="M297.8 21.1263L300.7 10.3736" stroke="#00A7A6" stroke-width="2" stroke-linecap="round"/>
<path d="M299.557 52.81L298.943 41.69" stroke="#00A7A6" stroke-width="2" stroke-linecap="round"/>
<path d="M301.31 83.9235L297.19 73.5765" stroke="#00A7A6" stroke-width="2" stroke-linecap="round"/>
<path d="M302.647 114.662L295.853 105.838" stroke="#00A7A6" stroke-width="2" stroke-linecap="round"/>
<path d="M303.412 145.449L295.088 138.051" stroke="#00A7A6" stroke-width="2" stroke-linecap="round"/>
<path d="M303.665 176.643L294.835 169.857" stroke="#00A7A6" stroke-width="2" stroke-linecap="round"/>
<path d="M303.477 208.375L295.023 201.125" stroke="#00A7A6" stroke-width="2" stroke-linecap="round"/>
<path d="M302.823 240.521L295.678 231.979" stroke="#00A7A6" stroke-width="2" stroke-linecap="round"/>
<path d="M301.682 272.759L296.818 262.741" stroke="#00A7A6" stroke-width="2" stroke-linecap="round"/>
<path d="M300.215 304.734L298.285 293.766" stroke="#00A7A6" stroke-width="2" stroke-linecap="round"/>
</svg>
