<svg xmlns="http://www.w3.org/2000/svg" xmlns:xlink="http://www.w3.org/1999/xlink" style="margin:auto;background:transparent;display:block;z-index:1;position:relative" width="1920" height="929" preserveAspectRatio="xMidYMid" viewBox="0 0 1920 929">
<g transform="translate(960,464.5) scale(1,1) translate(-960,-464.5)"><path id="path0" d="M 1271.563299453165 7.042302368100384
c 0 25.702821977889588 -6.2889883562921325 7.3827254617342435 -13.671713818026376 7.3827254617342435
S 1244.2198718171123 32.74512434598997 1244.2198718171123 7.042302368100384
s 6.2889883562921325 -7.3827254617342435 13.671713818026376 -7.3827254617342435
S 1271.563299453165 -18.660519609789205 1271.563299453165 7.042302368100384
z" fill="none" stroke="none"></path>
<circle cx="0" cy="0" r="4.271396688314946" fill="#de9dd6">
  <animateMotion begin="-2.4179167802216894s" dur="10s" repeatCount="indefinite">
    <mpath xlink:href="#path0"></mpath>
  </animateMotion>
</circle><path id="path1" d="M 427.6721374617062 728.7974489382258
c 0 21.53256551158236 -5.26860645496164 6.184885838433231 -11.453492293394872 6.184885838433231
S 404.7651528749165 750.3300144498081 404.7651528749165 728.7974489382258
s 5.26860645496164 -6.184885838433231 11.453492293394872 -6.184885838433231
S 427.6721374617062 707.2648834266435 427.6721374617062 728.7974489382258
z" fill="none" stroke="none"></path>
<circle cx="0" cy="0" r="6.720511603326766" fill="#e0ff77">
  <animateMotion begin="-9.938699013806666s" dur="10s" repeatCount="indefinite">
    <mpath xlink:href="#path1"></mpath>
  </animateMotion>
</circle><path id="path2" d="M 429.6269573869508 424.888777513882
c 0 32.73927578506888 -8.010673862304087 9.403834534009146 -17.414508396313234 9.403834534009146
S 394.7979405943243 457.6280532989509 394.7979405943243 424.888777513882
s 8.010673862304087 -9.403834534009146 17.414508396313234 -9.403834534009146
S 429.6269573869508 392.14950172881316 429.6269573869508 424.888777513882
z" fill="none" stroke="none"></path>
<circle cx="0" cy="0" r="4.761398068782588" fill="#e0ff77">
  <animateMotion begin="-3.3208049432748243s" dur="10s" repeatCount="indefinite">
    <mpath xlink:href="#path2"></mpath>
  </animateMotion>
</circle><path id="path3" d="M 835.825406057267 650.7912346268004
c 0 26.14361059971064 -6.39684089141856 7.509334959491354 -13.906175850909914 7.509334959491354
S 808.0130543554471 676.934845226511 808.0130543554471 650.7912346268004
s 6.39684089141856 -7.509334959491354 13.906175850909914 -7.509334959491354
S 835.825406057267 624.6476240270897 835.825406057267 650.7912346268004
z" fill="none" stroke="none"></path>
<circle cx="0" cy="0" r="7.049515679125534" fill="#e0ff77">
  <animateMotion begin="-1.4579677395722546s" dur="10s" repeatCount="indefinite">
    <mpath xlink:href="#path3"></mpath>
  </animateMotion>
</circle><path id="path4" d="M 1294.2080967102575 776.5248720166757
c 0 34.758795711869205 -8.504811716733952 9.983909406600729 -18.48872112333468 9.983909406600729
S 1257.230654463588 811.2836677285449 1257.230654463588 776.5248720166757
s 8.504811716733952 -9.983909406600729 18.48872112333468 -9.983909406600729
S 1294.2080967102575 741.7660763048065 1294.2080967102575 776.5248720166757
z" fill="none" stroke="none"></path>
<circle cx="0" cy="0" r="5.269637451578777" fill="#e0ff77">
  <animateMotion begin="-2.187782845824948s" dur="10s" repeatCount="indefinite">
    <mpath xlink:href="#path4"></mpath>
  </animateMotion>
</circle><path id="path5" d="M 1051.658936222046 686.5353855357542
c 0 33.26369533977971 -8.138989285265247 9.554465682702682 -17.693454967967927 9.554465682702682
S 1016.2720262861101 719.799080875534 1016.2720262861101 686.5353855357542
s 8.138989285265247 -9.554465682702682 17.693454967967927 -9.554465682702682
S 1051.658936222046 653.2716901959745 1051.658936222046 686.5353855357542
z" fill="none" stroke="none"></path>
<circle cx="0" cy="0" r="6.030055458828021" fill="#de9dd6">
  <animateMotion begin="-7.027463354006462s" dur="10s" repeatCount="indefinite">
    <mpath xlink:href="#path5"></mpath>
  </animateMotion>
</circle><path id="path6" d="M 1922.5535338411732 332.0586876570964
c 0 27.297989108395445 -6.679295207373353 7.840911765177416 -14.520206972550769 7.840911765177416
S 1893.5131198960717 359.35667676549184 1893.5131198960717 332.0586876570964
s 6.679295207373353 -7.840911765177416 14.520206972550769 -7.840911765177416
S 1922.5535338411732 304.760698548701 1922.5535338411732 332.0586876570964
z" fill="none" stroke="none"></path>
<circle cx="0" cy="0" r="6.010180460822362" fill="#51cacc">
  <animateMotion begin="-2.4787353499215525s" dur="10s" repeatCount="indefinite">
    <mpath xlink:href="#path6"></mpath>
  </animateMotion>
</circle><path id="path7" d="M 761.8501945663804 196.9638905293923
c 0 36.58796352010477 -8.952374052791592 10.509308670668393 -19.461682723459987 10.509308670668393
S 722.9268291194605 233.55185404949708 722.9268291194605 196.9638905293923
s 8.952374052791592 -10.509308670668393 19.461682723459987 -10.509308670668393
S 761.8501945663804 160.37592700928752 761.8501945663804 196.9638905293923
z" fill="none" stroke="none"></path>
<circle cx="0" cy="0" r="7.170623113330953" fill="#ff708e">
  <animateMotion begin="-6.250196657419771s" dur="10s" repeatCount="indefinite">
    <mpath xlink:href="#path7"></mpath>
  </animateMotion>
</circle><path id="path8" d="M 39.73661198320542 524.3286197967917
c 0 26.791905587349884 -6.555466260734545 7.695547349557946 -14.25101361029249 7.695547349557946
S 11.234584762620441 551.1205253841416 11.234584762620441 524.3286197967917
s 6.555466260734545 -7.695547349557946 14.25101361029249 -7.695547349557946
S 39.73661198320542 497.5367142094418 39.73661198320542 524.3286197967917
z" fill="none" stroke="none"></path>
<circle cx="0" cy="0" r="7.326573271256184" fill="#ff708e">
  <animateMotion begin="-1.3928731581972076s" dur="10s" repeatCount="indefinite">
    <mpath xlink:href="#path8"></mpath>
  </animateMotion>
</circle><path id="path9" d="M 1499.842587274656 113.52022450819938
c 0 34.30238816378 -8.393137529435531 9.852813621511277 -18.24595115094681 9.852813621511277
S 1463.350684972762 147.82261267197939 1463.350684972762 113.52022450819938
s 8.393137529435531 -9.852813621511277 18.24595115094681 -9.852813621511277
S 1499.842587274656 79.21783634441937 1499.842587274656 113.52022450819938
z" fill="none" stroke="none"></path>
<circle cx="0" cy="0" r="6.512213317545521" fill="#9df871">
  <animateMotion begin="-6.326584192443923s" dur="10s" repeatCount="indefinite">
    <mpath xlink:href="#path9"></mpath>
  </animateMotion>
</circle><path id="path10" d="M 91.85868942961064 42.02403984142808
c 0 18.860231044257432 -4.614737383169371 5.417300406329263 -10.032037789498634 5.417300406329263
S 71.79461385061337 60.88427088568551 71.79461385061337 42.02403984142808
s 4.614737383169371 -5.417300406329263 10.032037789498634 -5.417300406329263
S 91.85868942961064 23.163808797170645 91.85868942961064 42.02403984142808
z" fill="none" stroke="none"></path>
<circle cx="0" cy="0" r="5.471616182897151" fill="#51cacc">
  <animateMotion begin="-2.4005797387520844s" dur="10s" repeatCount="indefinite">
    <mpath xlink:href="#path10"></mpath>
  </animateMotion>
</circle><path id="path11" d="M 152.3629214670058 102.90833735729838
c 0 24.330142297177805 -5.953119923777547 6.988445127912773 -12.94156505169032 6.988445127912773
S 126.47979136362515 127.23847965447618 126.47979136362515 102.90833735729838
s 5.953119923777547 -6.988445127912773 12.94156505169032 -6.988445127912773
S 152.3629214670058 78.57819506012058 152.3629214670058 102.90833735729838
z" fill="none" stroke="none"></path>
<circle cx="0" cy="0" r="7.129157446036808" fill="#9df871">
  <animateMotion begin="-9.349602331982714s" dur="10s" repeatCount="indefinite">
    <mpath xlink:href="#path11"></mpath>
  </animateMotion>
</circle><path id="path12" d="M 99.9797889039723 450.9554379068226
c 0 35.6336966721441 -8.718883228290576 10.235210746254156 -18.954093974544733 10.235210746254156
S 62.07160095488284 486.5891345789667 62.07160095488284 450.9554379068226
s 8.718883228290576 -10.235210746254156 18.954093974544733 -10.235210746254156
S 99.9797889039723 415.32174123467854 99.9797889039723 450.9554379068226
z" fill="none" stroke="none"></path>
<circle cx="0" cy="0" r="4.006003595816924" fill="#ff708e">
  <animateMotion begin="-4.600512998696564s" dur="10s" repeatCount="indefinite">
    <mpath xlink:href="#path12"></mpath>
  </animateMotion>
</circle><path id="path13" d="M 490.2975316361248 512.4008109296606
c 0 24.732293666253682 -6.051518663019517 7.103956691370739 -13.155475354390255 7.103956691370739
S 463.9865809273443 537.1331045959142 463.9865809273443 512.4008109296606
s 6.051518663019517 -7.103956691370739 13.155475354390255 -7.103956691370739
S 490.2975316361248 487.6685172634069 490.2975316361248 512.4008109296606
z" fill="none" stroke="none"></path>
<circle cx="0" cy="0" r="7.525037756328849" fill="#e0ff77">
  <animateMotion begin="-2.782163570218481s" dur="10s" repeatCount="indefinite">
    <mpath xlink:href="#path13"></mpath>
  </animateMotion>
</circle><path id="path14" d="M 880.3334465546943 434.3419970115946
c 0 28.675924005730447 -7.016449490763832 8.236701576114065 -15.253151066877898 8.236701576114065
S 849.8271444209386 463.017921017325 849.8271444209386 434.3419970115946
s 7.016449490763832 -8.236701576114065 15.253151066877898 -8.236701576114065
S 880.3334465546943 405.6660730058641 880.3334465546943 434.3419970115946
z" fill="none" stroke="none"></path>
<circle cx="0" cy="0" r="4.112814345432521" fill="#9df871">
  <animateMotion begin="-3.209375548164286s" dur="10s" repeatCount="indefinite">
    <mpath xlink:href="#path14"></mpath>
  </animateMotion>
</circle><path id="path15" d="M 1883.151269630246 59.7840772708431
c 0 32.899649569338834 -8.049914256327586 9.449899344384558 -17.499813600712145 9.449899344384558
S 1848.1516424288218 92.68372684018193 1848.1516424288218 59.7840772708431
s 8.049914256327586 -9.449899344384558 17.499813600712145 -9.449899344384558
S 1883.151269630246 26.884427701504265 1883.151269630246 59.7840772708431
z" fill="none" stroke="none"></path>
<circle cx="0" cy="0" r="5.355708370478141" fill="#de9dd6">
  <animateMotion begin="-6.367624202986846s" dur="10s" repeatCount="indefinite">
    <mpath xlink:href="#path15"></mpath>
  </animateMotion>
</circle><path id="path16" d="M 1386.433436152754 476.82871945775616
c 0 24.8519113009908 -6.080786807689238 7.138314948156932 -13.21910175584617 7.138314948156932
S 1359.9952326410616 501.680630758747 1359.9952326410616 476.82871945775616
s 6.080786807689238 -7.138314948156932 13.21910175584617 -7.138314948156932
S 1386.433436152754 451.97680815676534 1386.433436152754 476.82871945775616
z" fill="none" stroke="none"></path>
<circle cx="0" cy="0" r="7.71796699985312" fill="#51cacc">
  <animateMotion begin="-1.4771915282139503s" dur="10s" repeatCount="indefinite">
    <mpath xlink:href="#path16"></mpath>
  </animateMotion>
</circle><path id="path17" d="M 327.4756268169764 375.20532728004576
c 0 26.369644678707214 -6.452147102236871 7.574259641756328 -14.0264067439932 7.574259641756328
S 299.42281332898995 401.574971958753 299.42281332898995 375.20532728004576
s 6.452147102236871 -7.574259641756328 14.0264067439932 -7.574259641756328
S 327.4756268169764 348.83568260133853 327.4756268169764 375.20532728004576
z" fill="none" stroke="none"></path>
<circle cx="0" cy="0" r="4.480903446157233" fill="#ff708e">
  <animateMotion begin="-3.686556891278532s" dur="10s" repeatCount="indefinite">
    <mpath xlink:href="#path17"></mpath>
  </animateMotion>
</circle><path id="path18" d="M 1842.0200165953643 537.0488480325175
c 0 37.347113231504736 -9.138123450261796 10.727362311176892 -19.865485761438688 10.727362311176892
S 1802.2890450724867 574.3959612640223 1802.2890450724867 537.0488480325175
s 9.138123450261796 -10.727362311176892 19.865485761438688 -10.727362311176892
S 1842.0200165953643 499.7017348010128 1842.0200165953643 537.0488480325175
z" fill="none" stroke="none"></path>
<circle cx="0" cy="0" r="7.38953223595273" fill="#ff708e">
  <animateMotion begin="-4.343054334863159s" dur="10s" repeatCount="indefinite">
    <mpath xlink:href="#path18"></mpath>
  </animateMotion>
</circle><path id="path19" d="M 861.139654613591 303.69082623877256
c 0 22.351571167821863 -5.469001455956413 6.420132143948833 -11.889133599905247 6.420132143948833
S 837.3613874137806 326.04239740659443 837.3613874137806 303.69082623877256
s 5.469001455956413 -6.420132143948833 11.889133599905247 -6.420132143948833
S 861.139654613591 281.3392550709507 861.139654613591 303.69082623877256
z" fill="none" stroke="none"></path>
<circle cx="0" cy="0" r="4.7879729764158245" fill="#e0ff77">
  <animateMotion begin="-7.150732973210083s" dur="10s" repeatCount="indefinite">
    <mpath xlink:href="#path19"></mpath>
  </animateMotion>
</circle><path id="path20" d="M 712.2599162246314 455.45695907816645
c 0 19.143015309473604 -4.6839292778499235 5.4985256739977375 -10.182454951847662 5.4985256739977375
S 691.895006320936 474.59997438764003 691.895006320936 455.45695907816645
s 4.6839292778499235 -5.4985256739977375 10.182454951847662 -5.4985256739977375
S 712.2599162246314 436.31394376869287 712.2599162246314 455.45695907816645
z" fill="none" stroke="none"></path>
<circle cx="0" cy="0" r="7.201786705428794" fill="#51cacc">
  <animateMotion begin="-3.1036858974755632s" dur="10s" repeatCount="indefinite">
    <mpath xlink:href="#path20"></mpath>
  </animateMotion>
</circle><path id="path21" d="M 92.0742644622113 559.6383156377032
c 0 20.678691146885892 -5.059679748706123 5.939624052828927 -10.99930380153505 5.939624052828927
S 70.0756568591412 580.317006784589 70.0756568591412 559.6383156377032
s 5.059679748706123 -5.939624052828927 10.99930380153505 -5.939624052828927
S 92.0742644622113 538.9596244908173 92.0742644622113 559.6383156377032
z" fill="none" stroke="none"></path>
<circle cx="0" cy="0" r="6.141667621053531" fill="#9df871">
  <animateMotion begin="-6.10488539954398s" dur="10s" repeatCount="indefinite">
    <mpath xlink:href="#path21"></mpath>
  </animateMotion>
</circle><path id="path22" d="M 1553.6459975577693 140.51658738397362
c 0 29.43260211567543 -7.20159413468654 8.454045288545071 -15.65563942323161 8.454045288545071
S 1522.334718711306 169.94918949964904 1522.334718711306 140.51658738397362
s 7.20159413468654 -8.454045288545071 15.65563942323161 -8.454045288545071
S 1553.6459975577693 111.08398526829819 1553.6459975577693 140.51658738397362
z" fill="none" stroke="none"></path>
<circle cx="0" cy="0" r="7.36282992759739" fill="#ff708e">
  <animateMotion begin="-3.3370956664320395s" dur="10s" repeatCount="indefinite">
    <mpath xlink:href="#path22"></mpath>
  </animateMotion>
</circle><path id="path23" d="M 178.97761421576806 621.0598802398274
c 0 37.10960940543844 -9.080010811968979 10.659143127094021 -19.739153939062998 10.659143127094021
S 139.49930633764208 658.1694896452658 139.49930633764208 621.0598802398274
s 9.080010811968979 -10.659143127094021 19.739153939062998 -10.659143127094021
S 178.97761421576806 583.950270834389 178.97761421576806 621.0598802398274
z" fill="none" stroke="none"></path>
<circle cx="0" cy="0" r="7.401449551495419" fill="#ff708e">
  <animateMotion begin="-3.3085452532948745s" dur="10s" repeatCount="indefinite">
    <mpath xlink:href="#path23"></mpath>
  </animateMotion>
</circle><path id="path24" d="M 622.6606562262281 344.89926019159964
c 0 22.449359775300653 -5.49292845565867 6.4482203609906135 -11.941148816649283 6.4482203609906135
S 598.7783585929295 367.3486199669003 598.7783585929295 344.89926019159964
s 5.49292845565867 -6.4482203609906135 11.941148816649283 -6.4482203609906135
S 622.6606562262281 322.449900416299 622.6606562262281 344.89926019159964
z" fill="none" stroke="none"></path>
<circle cx="0" cy="0" r="7.781020082049909" fill="#ff708e">
  <animateMotion begin="-2.69305621983722s" dur="10s" repeatCount="indefinite">
    <mpath xlink:href="#path24"></mpath>
  </animateMotion>
</circle><path id="path25" d="M 1176.9012455131108 671.6713153752926
c 0 31.020640014798406 -7.590156599365566 8.91018383403784 -16.500340433403405 8.91018383403784
S 1143.900564646304 702.691955390091 1143.900564646304 671.6713153752926
s 7.590156599365566 -8.91018383403784 16.500340433403405 -8.91018383403784
S 1176.9012455131108 640.6506753604941 1176.9012455131108 671.6713153752926
z" fill="none" stroke="none"></path>
<circle cx="0" cy="0" r="4.9919213610689335" fill="#e0ff77">
  <animateMotion begin="-8.981140584280425s" dur="10s" repeatCount="indefinite">
    <mpath xlink:href="#path25"></mpath>
  </animateMotion>
</circle><path id="path26" d="M 137.04891834513379 284.67814563612427
c 0 19.72493617060346 -4.826314169402973 5.6656731553861 -10.491987324789074 5.6656731553861
S 116.06494369555564 304.40308180672776 116.06494369555564 284.67814563612427
s 4.826314169402973 -5.6656731553861 10.491987324789074 -5.6656731553861
S 137.04891834513379 264.9532094655208 137.04891834513379 284.67814563612427
z" fill="none" stroke="none"></path>
<circle cx="0" cy="0" r="4.191362946082332" fill="#51cacc">
  <animateMotion begin="-7.997585018763129s" dur="10s" repeatCount="indefinite">
    <mpath xlink:href="#path26"></mpath>
  </animateMotion>
</circle><path id="path27" d="M 1128.5770195077248 258.98948227390736
c 0 32.1037103033642 -7.8551631593337925 9.221278491391844 -17.076441650725638 9.221278491391844
S 1094.4241362062735 291.09319257727157 1094.4241362062735 258.98948227390736
s 7.8551631593337925 -9.221278491391844 17.076441650725638 -9.221278491391844
S 1128.5770195077248 226.88577197054315 1128.5770195077248 258.98948227390736
z" fill="none" stroke="none"></path>
<circle cx="0" cy="0" r="7.783119140441773" fill="#51cacc">
  <animateMotion begin="-5.59942169758977s" dur="10s" repeatCount="indefinite">
    <mpath xlink:href="#path27"></mpath>
  </animateMotion>
</circle><path id="path28" d="M 1127.2940758980897 766.6023887154962
c 0 26.23629995765647 -6.419520202405306 7.535958498475795 -13.955478700881102 7.535958498475795
S 1099.3831184963276 792.8386886731527 1099.3831184963276 766.6023887154962
s 6.419520202405306 -7.535958498475795 13.955478700881102 -7.535958498475795
S 1127.2940758980897 740.3660887578397 1127.2940758980897 766.6023887154962
z" fill="none" stroke="none"></path>
<circle cx="0" cy="0" r="4.843938142550437" fill="#51cacc">
  <animateMotion begin="-4.758907824272485s" dur="10s" repeatCount="indefinite">
    <mpath xlink:href="#path28"></mpath>
  </animateMotion>
</circle><path id="path29" d="M 1353.3138602583072 648.001656038827
c 0 21.989414597492566 -5.380388678109883 6.31610844821595 -11.696497126325834 6.31610844821595
S 1329.9208660056556 669.9910706363196 1329.9208660056556 648.001656038827
s 5.380388678109883 -6.31610844821595 11.696497126325834 -6.31610844821595
S 1353.3138602583072 626.0122414413345 1353.3138602583072 648.001656038827
z" fill="none" stroke="none"></path>
<circle cx="0" cy="0" r="6.312811812073839" fill="#51cacc">
  <animateMotion begin="-7.818575838403074s" dur="10s" repeatCount="indefinite">
    <mpath xlink:href="#path29"></mpath>
  </animateMotion>
</circle></g>
</svg>
