<?xml version="1.0" encoding="utf-8"?>
<!-- Generator: Adobe Illustrator 26.1.0, SVG Export Plug-In . SVG Version: 6.00 Build 0)  -->
<svg version="1.1" id="Layer_1" xmlns="http://www.w3.org/2000/svg" xmlns:xlink="http://www.w3.org/1999/xlink" x="0px" y="0px"
	 viewBox="0 0 146.45 167.23" style="enable-background:new 0 0 146.45 167.23;" xml:space="preserve">
<path style="fill:none;stroke:#FFFFFF;stroke-miterlimit:10;" d="M2.34,0.11c1,15.86,10.13,33.34,26.67,37.23
	c8.22,1.94,16.79,0.36,25.18-0.63c22.41-2.64,50.14,4.32,57.08,28.74c6.69,23.56-6.98,47.35,2.81,71.03
	c5.65,13.66,18.09,25.59,33.22,27.2"/>
<path style="fill:none;stroke:#FFFFFF;stroke-miterlimit:10;" d="M146.45,49.75"/>
<path style="fill:none;stroke:#FFFFFF;stroke-miterlimit:10;" d="M96.54,0c-0.27,10.09,1.55,51.56,49.91,49.75"/>
<path style="fill:none;stroke:#FFFFFF;stroke-miterlimit:10;" d="M96.54,0"/>
<path style="fill:none;stroke:#FFFFFF;stroke-miterlimit:10;" d="M61.99,0C49.77,17.54,45.28,41.8,58.27,60.07
	c6.33,8.9,15.83,15.06,25.68,19.76c21.22,10.11,48.25,18.28,62.51,37.43"/>
<path style="fill:none;stroke:#FFFFFF;stroke-miterlimit:10;" d="M61.99,0"/>
</svg>
