<?xml version="1.0" encoding="utf-8"?>
<!-- Generator: Adobe Illustrator 26.1.0, SVG Export Plug-In . SVG Version: 6.00 Build 0)  -->
<svg version="1.1" id="Layer_1" xmlns="http://www.w3.org/2000/svg" xmlns:xlink="http://www.w3.org/1999/xlink" x="0px" y="0px"
	 viewBox="0 0 58.83 58.83" style="enable-background:new 0 0 58.83 58.83;" xml:space="preserve">
<linearGradient id="SVGID_1_" gradientUnits="userSpaceOnUse" x1="-110.913" y1="168.1177" x2="-61.4222" y2="113.6778" gradientTransform="matrix(0 -1 1 0 -80.1147 -20.2996)">
	<stop  offset="0" style="stop-color:#FFEB1C"/>
	<stop  offset="0.1218" style="stop-color:#E7E320"/>
	<stop  offset="0.3796" style="stop-color:#A9CD29"/>
	<stop  offset="0.7489" style="stop-color:#47AB37"/>
	<stop  offset="1" style="stop-color:#009242"/>
</linearGradient>
<path style="fill:url(#SVGID_1_);" d="M49.23,58.35l-0.04-0.06c-0.16-0.23-0.58-0.35-0.83-0.24c-0.26,0.12-0.45,0.41-0.45,0.68
	c0,0.24,0.16,0.55,0.46,0.68c0.07,0.03,0.14,0.04,0.22,0.04c0.24,0,0.51-0.13,0.64-0.32c0.04-0.07,0.08-0.14,0.12-0.21l0.05-0.09
	c0.02-0.03,0.02-0.06,0.02-0.09c0-0.02,0-0.03,0-0.05C49.38,58.55,49.3,58.44,49.23,58.35z M49.09,58.78
	c-0.03,0.06-0.07,0.13-0.11,0.19c-0.09,0.14-0.36,0.23-0.5,0.17c-0.18-0.08-0.28-0.27-0.28-0.41c0-0.14,0.1-0.33,0.28-0.41
	c0.02-0.01,0.06-0.02,0.09-0.02c0.13,0,0.31,0.07,0.37,0.16l0.04,0.06c0.05,0.08,0.1,0.14,0.12,0.22L49.09,58.78z M29.36,57.13
	c-0.13-0.22-0.27-0.45-0.4-0.67l-0.16-0.28c-0.15-0.26-0.29-0.51-0.44-0.77c-0.16-0.27-0.35-0.33-0.59-0.33
	c-1.14,0.01-2.3,0.01-3.44,0c-0.26,0.01-0.44,0.05-0.59,0.33c-0.3,0.56-0.64,1.12-0.96,1.66c-0.12,0.2-0.24,0.41-0.36,0.61L22,58.39
	c-0.13,0.22-0.13,0.45,0,0.67c0.2,0.33,0.39,0.66,0.58,0.99c0.18,0.31,0.35,0.62,0.54,0.92c0.09,0.16,0.18,0.32,0.27,0.47
	c0.12,0.21,0.23,0.41,0.36,0.61c0.17,0.27,0.35,0.33,0.59,0.32c1.14-0.01,2.3-0.01,3.44,0h0.01c0.24,0,0.43-0.06,0.58-0.33
	c0.2-0.36,0.41-0.72,0.62-1.07c0.24-0.41,0.47-0.82,0.71-1.23c0.05-0.1,0.11-0.19,0.17-0.28c0.12-0.2,0.25-0.42,0.35-0.64
	c0.01-0.03,0.02-0.05,0.01-0.08c0-0.03,0-0.05-0.01-0.08C29.97,58.13,29.66,57.62,29.36,57.13z M29.6,59.31
	c-0.06,0.1-0.11,0.19-0.17,0.29c-0.23,0.41-0.47,0.82-0.71,1.23c-0.21,0.36-0.41,0.72-0.62,1.08c-0.09,0.16-0.16,0.18-0.33,0.18
	h-0.01c-0.57,0-1.15,0-1.72,0c-0.58,0-1.15,0-1.72,0c-0.17,0-0.24-0.03-0.34-0.19c-0.12-0.2-0.24-0.4-0.35-0.6
	c-0.09-0.16-0.18-0.32-0.28-0.48c-0.18-0.3-0.36-0.61-0.53-0.92c-0.19-0.33-0.38-0.66-0.58-0.99c-0.07-0.12-0.07-0.24,0-0.37
	l0.42-0.71c0.12-0.2,0.24-0.41,0.36-0.61c0.32-0.54,0.65-1.1,0.96-1.67c0.09-0.16,0.15-0.19,0.33-0.18c1.14,0.01,2.3,0.01,3.44,0
	c0.17,0,0.25,0.03,0.34,0.18c0.15,0.25,0.29,0.51,0.44,0.76l0.16,0.28c0.13,0.23,0.27,0.45,0.4,0.68c0.28,0.47,0.58,0.96,0.81,1.47
	C29.83,58.94,29.71,59.13,29.6,59.31z M38.45,16.85c0.25,0.02,0.51,0.03,0.8-0.02c0.12-0.02,0.24-0.04,0.35-0.22
	c0.49-0.8,0.94-1.6,1.32-2.29c0.06-0.11,0.13-0.22,0.2-0.33c0.15-0.24,0.31-0.48,0.4-0.77c0.01-0.02,0.01-0.04,0.01-0.06
	c0-0.03,0-0.05-0.01-0.08c-0.24-0.52-0.54-1.01-0.82-1.49c-0.16-0.26-0.32-0.54-0.47-0.81l-0.17,0.29c0.13,0.23,0.26,0.45,0.39,0.67
	c0.27,0.46,0.56,0.93,0.79,1.42c-0.08,0.24-0.21,0.44-0.35,0.66c-0.07,0.11-0.15,0.23-0.21,0.35c-0.38,0.68-0.83,1.48-1.32,2.28
	c-0.04,0.07-0.06,0.07-0.17,0.09c-0.23,0.04-0.46,0.03-0.71,0.01c-0.13-0.01-0.26-0.02-0.4-0.02c-0.01,0-0.03,0-0.04,0
	c-0.38,0.01-0.76,0-1.14,0.01l-0.17,0.3c0.44,0,0.88,0,1.31-0.01C38.17,16.83,38.31,16.84,38.45,16.85z M37.07,26.89
	c0.06,0.02,0.13,0.03,0.21,0.03c0.25,0,0.53-0.13,0.65-0.32c0.01-0.02,0.03-0.04,0.04-0.07c0.06-0.08,0.12-0.18,0.14-0.31
	c0-0.01,0-0.02,0-0.03c0.03-0.12-0.05-0.21-0.09-0.25c-0.22-0.41-0.55-0.55-0.98-0.42c-0.29,0.09-0.38,0.37-0.44,0.58l-0.01,0.03
	C36.53,26.36,36.9,26.83,37.07,26.89z M36.89,26.18c0.06-0.21,0.11-0.35,0.24-0.38c0.07-0.02,0.14-0.03,0.2-0.03
	c0.18,0,0.32,0.1,0.43,0.31c0.01,0.02,0.03,0.04,0.05,0.07c0,0.01,0,0.02,0,0.03c-0.01,0.06-0.05,0.12-0.1,0.19
	c-0.02,0.03-0.03,0.05-0.05,0.08c-0.08,0.13-0.35,0.22-0.5,0.17c-0.08-0.04-0.29-0.33-0.29-0.4L36.89,26.18z M39.1,61.56
	c-1.21,0.01-2.31,0.02-3.4,0c-0.33,0-0.56,0.12-0.72,0.41c-0.13,0.24-0.27,0.47-0.4,0.7h0.34c0.11-0.19,0.21-0.37,0.32-0.56
	c0.11-0.2,0.22-0.27,0.46-0.26c1.1,0.02,2.2,0.01,3.41,0c0.17,0,0.23,0.03,0.29,0.15c0.12,0.23,0.24,0.46,0.36,0.66h0.34
	c-0.14-0.24-0.3-0.52-0.44-0.8C39.52,61.6,39.29,61.56,39.1,61.56z M27.78,36.35c0.24,0,0.43-0.06,0.58-0.33
	c0.21-0.36,0.41-0.72,0.62-1.08c0.24-0.41,0.47-0.82,0.7-1.23c0.05-0.1,0.11-0.19,0.17-0.28c0.12-0.2,0.25-0.42,0.35-0.64
	c0.01-0.03,0.02-0.05,0.01-0.08c0-0.03,0-0.05-0.01-0.08c-0.25-0.54-0.55-1.05-0.85-1.54c-0.13-0.22-0.27-0.45-0.4-0.67l-0.04-0.07
	l-0.17,0.29c0.12,0.2,0.24,0.4,0.36,0.6c0.28,0.47,0.58,0.96,0.81,1.47c-0.1,0.19-0.21,0.38-0.32,0.57
	c-0.06,0.1-0.11,0.19-0.17,0.29c-0.23,0.41-0.47,0.82-0.7,1.22c-0.21,0.36-0.42,0.72-0.62,1.08c-0.09,0.16-0.17,0.18-0.34,0.18
	c-0.57,0-1.15,0-1.72,0c-0.14,0-0.28,0-0.42,0l-0.17,0.29c0.77,0,1.54,0,2.31,0H27.78z M34.42,28.44l0.14,0.23
	c0.15,0.26,0.32,0.56,0.48,0.87c0.14,0.28,0.37,0.31,0.56,0.31c1.21-0.01,2.31-0.02,3.4,0c0.01,0,0.02,0,0.03,0
	c0.33,0,0.54-0.12,0.69-0.41c0.38-0.68,0.77-1.36,1.15-2.03l0.04-0.08c0.06-0.1,0.11-0.19,0.17-0.29c0.15-0.24,0.3-0.5,0.42-0.76
	c0.01-0.03,0.02-0.05,0.01-0.08c0-0.01,0-0.02,0-0.03c-0.02-0.27-0.17-0.48-0.3-0.66c-0.05-0.08-0.11-0.15-0.15-0.24
	c-0.15-0.29-0.32-0.57-0.49-0.84c-0.25-0.42-0.51-0.86-0.72-1.31c-0.3-0.66-0.82-0.69-1.33-0.66c-0.77,0.04-1.58,0.05-2.39,0
	c-0.2-0.01-0.4,0-0.6,0.02l-0.16,0.01c-0.16,0.01-0.22,0.12-0.27,0.19l-0.02,0.03c-0.25,0.39-0.48,0.8-0.71,1.2
	c-0.2,0.35-0.4,0.71-0.62,1.05c-0.07,0.1-0.12,0.21-0.18,0.32c-0.08,0.15-0.15,0.28-0.24,0.41c-0.2,0.29-0.21,0.55-0.04,0.85
	C33.7,27.19,34.07,27.82,34.42,28.44z M33.6,25.89c0.1-0.14,0.18-0.3,0.26-0.44c0.06-0.1,0.11-0.21,0.17-0.31
	c0.22-0.35,0.42-0.71,0.62-1.06c0.22-0.39,0.45-0.8,0.7-1.18l0.02-0.04c0.01-0.02,0.03-0.05,0.03-0.05l0.17-0.01
	c0.19-0.01,0.38-0.03,0.56-0.02c0.82,0.05,1.63,0.04,2.42,0c0.47-0.03,0.82-0.01,1.04,0.49c0.21,0.46,0.48,0.91,0.73,1.33
	c0.16,0.27,0.33,0.55,0.48,0.83c0.05,0.09,0.11,0.18,0.17,0.26c0.11,0.17,0.22,0.32,0.24,0.51c-0.12,0.24-0.26,0.48-0.39,0.71
	c-0.06,0.1-0.12,0.19-0.17,0.29l-0.04,0.08c-0.39,0.68-0.78,1.35-1.16,2.04c-0.11,0.2-0.22,0.26-0.46,0.26
	c-0.53-0.01-1.06-0.01-1.61-0.01c-0.58,0-1.18,0-1.81,0.01c-0.17,0-0.23-0.03-0.29-0.15c-0.16-0.31-0.34-0.62-0.49-0.88l-0.14-0.23
	c-0.36-0.62-0.73-1.26-1.1-1.88C33.46,26.22,33.46,26.08,33.6,25.89z M26.63,58.35l-0.04-0.06c-0.16-0.23-0.58-0.35-0.83-0.24
	c-0.26,0.12-0.45,0.41-0.45,0.68c0,0.24,0.16,0.55,0.46,0.68c0.07,0.03,0.14,0.04,0.22,0.04c0.24,0,0.51-0.13,0.64-0.32
	c0.04-0.07,0.08-0.14,0.12-0.21l0.05-0.09c0.02-0.03,0.02-0.06,0.02-0.09c0-0.02,0-0.03,0-0.05C26.78,58.55,26.7,58.44,26.63,58.35z
	 M26.49,58.78c-0.03,0.06-0.07,0.13-0.11,0.19c-0.09,0.14-0.36,0.23-0.5,0.17c-0.18-0.08-0.28-0.27-0.28-0.41
	c0-0.14,0.1-0.33,0.28-0.41c0.02-0.01,0.06-0.02,0.09-0.02c0.13,0,0.31,0.07,0.37,0.16l0.04,0.06c0.05,0.08,0.1,0.14,0.12,0.22
	L26.49,58.78z M25.9,46.41c0.05,0.01,0.1,0.01,0.14,0.01c0.54,0,0.7-0.47,0.76-0.63c0.01-0.02,0.01-0.04,0.01-0.07
	c0,0,0-0.01,0-0.01c0.01-0.1-0.04-0.18-0.07-0.23c-0.01-0.02-0.02-0.04-0.03-0.05c-0.14-0.5-0.54-0.45-0.81-0.41l-0.1,0.01
	c-0.27,0.03-0.36,0.25-0.42,0.39c-0.02,0.05-0.04,0.09-0.06,0.13c-0.04,0.06-0.07,0.17,0,0.33C25.42,46.11,25.7,46.38,25.9,46.41z
	 M25.66,45.56c0.06-0.15,0.1-0.21,0.19-0.22l0.11-0.01c0.09-0.01,0.16-0.02,0.22-0.02c0.15,0,0.22,0.05,0.26,0.22
	c0.02,0.05,0.04,0.1,0.06,0.13c0.01,0.02,0.03,0.04,0.03,0.05c0,0,0,0.01,0,0.01c-0.12,0.33-0.29,0.45-0.58,0.41
	c-0.11-0.02-0.37-0.31-0.37-0.39C25.6,45.68,25.63,45.62,25.66,45.56z M17.06,61.87c-0.15-0.28-0.37-0.3-0.56-0.31
	c-0.95,0.01-2.2,0.01-3.47,0c-0.29,0.01-0.47,0.1-0.62,0.37c-0.14,0.25-0.28,0.49-0.42,0.74h0.34c0.11-0.2,0.23-0.4,0.34-0.6
	c0.1-0.17,0.18-0.22,0.36-0.22c1.27,0.02,2.53,0.01,3.48,0c0.17,0.01,0.23,0.03,0.29,0.15c0.09,0.17,0.19,0.34,0.29,0.51
	c0.03,0.05,0.06,0.1,0.09,0.15h0.34c-0.06-0.1-0.11-0.2-0.17-0.3C17.25,62.21,17.15,62.04,17.06,61.87z M16.41,55.9
	c0.01,0,0.02,0,0.03,0c0.33,0,0.54-0.12,0.69-0.41c0.38-0.69,0.78-1.38,1.17-2.05l0.03-0.06c0.06-0.1,0.11-0.19,0.17-0.29
	c0.15-0.24,0.3-0.5,0.42-0.76c0.01-0.03,0.02-0.05,0.01-0.08c0-0.01,0-0.02,0-0.03c-0.02-0.27-0.17-0.48-0.29-0.66
	c-0.05-0.08-0.11-0.15-0.15-0.24c-0.15-0.29-0.32-0.57-0.49-0.84c-0.12-0.2-0.24-0.4-0.35-0.6l-0.17,0.29
	c0.09,0.15,0.18,0.31,0.27,0.46c0.16,0.27,0.33,0.55,0.48,0.83c0.05,0.09,0.11,0.18,0.17,0.26c0.11,0.17,0.22,0.32,0.24,0.51
	c-0.12,0.24-0.26,0.48-0.39,0.71c-0.06,0.1-0.12,0.19-0.17,0.29l-0.03,0.06c-0.39,0.67-0.79,1.37-1.17,2.06
	c-0.11,0.2-0.22,0.26-0.46,0.26c-0.54-0.01-1.08-0.01-1.61-0.01c-0.15,0-0.3,0-0.45,0l-0.17,0.29C14.9,55.88,15.66,55.88,16.41,55.9
	z M22.23,46.45c0.48,0.81,0.99,1.65,1.44,2.49c0.18,0.33,0.4,0.46,0.74,0.46c0.02,0,0.03,0,0.05,0c0.59-0.02,1.23-0.03,2.01-0.03
	c0.35,0,0.73,0.01,1.23,0.03c0.32,0.01,0.54-0.1,0.69-0.37c0.38-0.67,0.77-1.34,1.15-2.01l0.6-1.04c0.02-0.04,0.04-0.09,0.06-0.13
	l0.02-0.05c0.01-0.02,0.01-0.05,0.01-0.07c0-0.01,0-0.02,0-0.04c-0.03-0.22-0.15-0.38-0.25-0.53c-0.04-0.06-0.09-0.13-0.13-0.2
	c-0.2-0.37-0.41-0.73-0.62-1.08c-0.28-0.47-0.56-0.95-0.81-1.45c-0.15-0.29-0.39-0.43-0.75-0.41c-0.63,0.03-1.26,0.03-1.84,0.03
	c-0.46,0-0.91-0.01-1.36-0.03c-0.38-0.02-0.61,0.11-0.8,0.46c-0.46,0.84-0.96,1.68-1.45,2.49l-0.2,0.33c-0.16,0.27-0.16,0.53,0,0.8
	L22.23,46.45z M22.28,45.46l0.2-0.33c0.49-0.81,0.99-1.65,1.45-2.5c0.13-0.23,0.24-0.31,0.47-0.31c0.02,0,0.04,0,0.06,0
	c0.45,0.02,0.91,0.03,1.37,0.03c0.59,0,1.22-0.01,1.86-0.04c0.25-0.01,0.38,0.06,0.48,0.25c0.25,0.5,0.54,0.99,0.82,1.46
	c0.21,0.35,0.42,0.71,0.61,1.07c0.04,0.08,0.09,0.15,0.14,0.22c0.09,0.13,0.17,0.25,0.2,0.39l-0.01,0.03
	c-0.01,0.03-0.02,0.06-0.04,0.09l-0.6,1.04c-0.39,0.67-0.77,1.34-1.15,2.01c-0.09,0.17-0.21,0.23-0.42,0.22
	c-0.5-0.02-0.89-0.03-1.24-0.03c-0.79,0-1.43,0.01-2.02,0.03c-0.27,0.01-0.39-0.07-0.53-0.31c-0.46-0.85-0.96-1.69-1.45-2.5
	l-0.2-0.33C22.17,45.78,22.17,45.64,22.28,45.46z M62.26,61.87c-0.15-0.28-0.37-0.3-0.56-0.31c-0.95,0.01-2.2,0.01-3.47,0
	c-0.29,0.01-0.47,0.1-0.62,0.37c-0.14,0.25-0.28,0.49-0.42,0.74h0.34c0.11-0.2,0.23-0.4,0.34-0.6c0.1-0.17,0.17-0.22,0.36-0.22
	c1.27,0.02,2.53,0.01,3.48,0c0.17,0.01,0.23,0.03,0.29,0.15c0.09,0.17,0.19,0.34,0.29,0.51c0.03,0.05,0.06,0.1,0.09,0.15h0.34
	c-0.06-0.1-0.11-0.2-0.17-0.3C62.44,62.21,62.34,62.04,62.26,61.87z M59.65,51.55c-0.29,0.09-0.38,0.37-0.44,0.58l-0.01,0.03
	c-0.07,0.24,0.3,0.7,0.47,0.76c0.06,0.02,0.13,0.03,0.21,0.03c0.25,0,0.53-0.13,0.65-0.32c0.01-0.02,0.03-0.04,0.04-0.07
	c0.06-0.08,0.12-0.18,0.14-0.31c0-0.01,0-0.02,0-0.03c0.03-0.12-0.05-0.21-0.09-0.25C60.4,51.56,60.08,51.42,59.65,51.55z
	 M60.42,52.22c-0.01,0.06-0.05,0.12-0.1,0.19c-0.02,0.03-0.03,0.05-0.05,0.08c-0.08,0.13-0.35,0.22-0.5,0.17
	c-0.08-0.04-0.29-0.33-0.29-0.4l0.01-0.03c0.06-0.21,0.11-0.35,0.24-0.38c0.07-0.02,0.14-0.03,0.2-0.03c0.18,0,0.32,0.1,0.43,0.31
	c0.01,0.02,0.03,0.04,0.05,0.07C60.42,52.2,60.42,52.21,60.42,52.22z M51.96,57.12c-0.13-0.22-0.27-0.45-0.4-0.67l-0.16-0.28
	c-0.14-0.26-0.29-0.51-0.44-0.77c-0.16-0.27-0.34-0.33-0.58-0.33h-0.01c-1.14,0.01-2.3,0.01-3.44,0c-0.26,0.01-0.44,0.05-0.59,0.33
	c-0.3,0.56-0.64,1.12-0.96,1.66c-0.12,0.2-0.24,0.41-0.36,0.61l-0.42,0.71c-0.13,0.22-0.13,0.45,0,0.67
	c0.2,0.33,0.39,0.66,0.57,0.99c0.18,0.31,0.35,0.62,0.54,0.93c0.09,0.16,0.18,0.32,0.27,0.47c0.12,0.21,0.23,0.41,0.36,0.61
	c0.17,0.27,0.34,0.33,0.59,0.32c1.14-0.01,2.3-0.01,3.44,0h0.01c0.24,0,0.43-0.06,0.58-0.33c0.2-0.36,0.41-0.72,0.62-1.07
	c0.24-0.41,0.47-0.82,0.71-1.23c0.05-0.1,0.11-0.19,0.17-0.28c0.12-0.2,0.25-0.42,0.35-0.64c0.01-0.03,0.02-0.05,0.01-0.08
	c0-0.03,0-0.05-0.01-0.08C52.56,58.13,52.26,57.62,51.96,57.12z M52.2,59.31c-0.06,0.1-0.11,0.19-0.17,0.29
	c-0.23,0.41-0.47,0.82-0.71,1.23c-0.21,0.36-0.41,0.72-0.62,1.08c-0.09,0.16-0.16,0.19-0.34,0.18c-0.57,0-1.15,0-1.72,0
	c-0.58,0-1.15,0-1.72,0c-0.17,0-0.24-0.03-0.34-0.19c-0.12-0.2-0.24-0.4-0.35-0.6c-0.09-0.16-0.18-0.32-0.28-0.48
	c-0.18-0.3-0.36-0.61-0.53-0.92c-0.19-0.33-0.38-0.66-0.58-0.99c-0.07-0.12-0.07-0.24,0-0.37l0.42-0.71
	c0.12-0.2,0.24-0.41,0.36-0.61c0.32-0.54,0.66-1.1,0.96-1.67c0.09-0.16,0.15-0.19,0.33-0.18c1.14,0.01,2.3,0.01,3.44,0
	c0.17,0,0.25,0.03,0.34,0.18c0.15,0.25,0.29,0.51,0.44,0.76l0.16,0.29c0.13,0.23,0.26,0.45,0.4,0.68c0.28,0.47,0.58,0.96,0.81,1.47
	C52.42,58.94,52.31,59.13,52.2,59.31z M41.08,51.33c-0.15-0.29-0.32-0.57-0.49-0.84c-0.25-0.42-0.51-0.86-0.72-1.3
	c-0.3-0.66-0.82-0.69-1.33-0.66c-0.77,0.04-1.57,0.05-2.39,0c-0.2-0.01-0.4,0-0.6,0.02l-0.17,0.01c-0.15,0.01-0.22,0.12-0.26,0.19
	l-0.02,0.03c-0.25,0.39-0.48,0.8-0.71,1.2c-0.2,0.35-0.4,0.71-0.62,1.05c-0.07,0.1-0.12,0.21-0.18,0.32
	c-0.08,0.15-0.15,0.29-0.24,0.41c-0.2,0.29-0.21,0.55-0.04,0.85c0.37,0.61,0.73,1.24,1.09,1.86l0.14,0.25
	c0.15,0.26,0.32,0.56,0.48,0.87c0.14,0.28,0.38,0.31,0.56,0.31c1.05-0.01,2.24-0.02,3.4,0c0.01,0,0.02,0,0.03,0
	c0.33,0,0.54-0.12,0.69-0.41c0.38-0.69,0.79-1.39,1.18-2.07l0.02-0.04c0.06-0.1,0.11-0.19,0.17-0.29c0.15-0.24,0.3-0.5,0.42-0.76
	c0.01-0.03,0.02-0.05,0.01-0.08c0-0.01,0-0.02,0-0.03c-0.02-0.27-0.17-0.48-0.29-0.66C41.17,51.48,41.12,51.41,41.08,51.33z
	 M40.84,52.94c-0.06,0.1-0.12,0.19-0.17,0.29l-0.02,0.04c-0.39,0.68-0.79,1.38-1.18,2.08c-0.11,0.2-0.22,0.26-0.46,0.26
	c-0.54-0.01-1.08-0.01-1.61-0.01c-0.62,0-1.23,0-1.8,0.01c-0.16,0-0.23-0.03-0.29-0.15c-0.16-0.31-0.34-0.62-0.49-0.88l-0.14-0.25
	c-0.36-0.62-0.72-1.25-1.09-1.86c-0.12-0.2-0.11-0.33,0.02-0.53c0.1-0.14,0.18-0.3,0.26-0.44c0.06-0.1,0.11-0.21,0.17-0.31
	c0.22-0.35,0.42-0.71,0.62-1.06c0.22-0.39,0.45-0.8,0.7-1.18l0.02-0.04c0.01-0.02,0.03-0.05,0.03-0.05l0.17-0.01
	c0.19-0.01,0.38-0.03,0.56-0.02c0.82,0.04,1.64,0.04,2.42,0c0.47-0.03,0.82-0.01,1.04,0.49c0.21,0.46,0.48,0.91,0.73,1.33
	c0.16,0.27,0.33,0.55,0.48,0.83c0.05,0.09,0.11,0.18,0.17,0.26c0.11,0.17,0.22,0.32,0.24,0.51C41.11,52.48,40.97,52.71,40.84,52.94z
	 M49.31,45.44c-0.14-0.5-0.54-0.45-0.81-0.41l-0.1,0.01c-0.27,0.03-0.36,0.25-0.42,0.39c-0.02,0.05-0.04,0.09-0.06,0.13
	c-0.04,0.06-0.07,0.17,0,0.33c0.1,0.21,0.37,0.49,0.58,0.51c0.05,0.01,0.1,0.01,0.14,0.01c0.54,0,0.7-0.47,0.76-0.63
	c0.01-0.02,0.01-0.04,0.01-0.07c0,0,0-0.01,0-0.01c0.01-0.1-0.04-0.18-0.07-0.23C49.33,45.47,49.31,45.45,49.31,45.44z M49.12,45.72
	c-0.12,0.33-0.29,0.44-0.58,0.41c-0.11-0.02-0.37-0.31-0.37-0.39c0.03-0.05,0.06-0.11,0.09-0.18c0.06-0.15,0.1-0.21,0.19-0.22
	l0.11-0.01c0.09-0.01,0.16-0.02,0.22-0.02c0.15,0,0.22,0.05,0.26,0.22c0.02,0.05,0.04,0.1,0.06,0.13c0.01,0.02,0.03,0.04,0.03,0.05
	C49.12,45.71,49.12,45.71,49.12,45.72z M48.36,33.37c0.07,0.03,0.14,0.04,0.22,0.04c0.24,0,0.51-0.13,0.64-0.32
	c0.04-0.07,0.08-0.14,0.12-0.21l0.05-0.09c0.02-0.03,0.02-0.06,0.02-0.09c0-0.02,0-0.03,0-0.05c-0.03-0.14-0.11-0.26-0.18-0.35
	l-0.04-0.06c-0.16-0.23-0.58-0.35-0.83-0.24c-0.26,0.12-0.45,0.41-0.45,0.68C47.91,32.93,48.06,33.24,48.36,33.37z M48.48,32.28
	c0.02-0.01,0.06-0.02,0.09-0.02c0.13,0,0.31,0.07,0.37,0.16l0.04,0.06c0.05,0.07,0.1,0.14,0.12,0.22l-0.03,0.05
	c-0.03,0.06-0.07,0.13-0.11,0.19c-0.09,0.14-0.36,0.23-0.5,0.17c-0.18-0.08-0.28-0.27-0.28-0.41C48.2,32.55,48.3,32.36,48.48,32.28z
	 M52.82,45.69c-0.03-0.22-0.15-0.38-0.25-0.53c-0.04-0.06-0.09-0.13-0.13-0.2c-0.2-0.37-0.41-0.73-0.62-1.08
	c-0.28-0.47-0.56-0.95-0.81-1.45c-0.15-0.29-0.39-0.43-0.75-0.41c-0.63,0.03-1.26,0.03-1.84,0.03c-0.45,0-0.91-0.01-1.36-0.03
	c-0.38-0.02-0.61,0.11-0.8,0.46c-0.46,0.84-0.96,1.68-1.44,2.49l-0.2,0.33c-0.16,0.27-0.16,0.53,0,0.8l0.2,0.34
	c0.48,0.81,0.99,1.65,1.44,2.49c0.18,0.33,0.4,0.46,0.74,0.46c0.02,0,0.03,0,0.05,0c0.59-0.02,1.23-0.03,2.01-0.03
	c0.35,0,0.73,0.01,1.23,0.03c0.31,0.01,0.54-0.1,0.69-0.37c0.38-0.68,0.77-1.35,1.16-2.03l0.59-1.03c0.02-0.04,0.04-0.09,0.06-0.13
	l0.02-0.05c0.01-0.02,0.01-0.05,0.01-0.07C52.82,45.71,52.82,45.7,52.82,45.69z M52.52,45.75c-0.01,0.03-0.02,0.06-0.04,0.09
	l-0.59,1.03c-0.39,0.68-0.78,1.35-1.16,2.03c-0.09,0.17-0.21,0.23-0.42,0.22c-0.5-0.02-0.88-0.03-1.24-0.03
	c-0.79,0-1.43,0.01-2.02,0.03c-0.27,0.01-0.39-0.07-0.53-0.31c-0.46-0.85-0.96-1.69-1.45-2.5l-0.2-0.34c-0.11-0.18-0.11-0.32,0-0.5
	l0.2-0.33c0.49-0.81,0.99-1.65,1.45-2.5c0.13-0.23,0.24-0.31,0.47-0.31c0.02,0,0.04,0,0.06,0c0.45,0.02,0.91,0.03,1.37,0.03
	c0.59,0,1.22-0.01,1.86-0.04c0.25-0.01,0.38,0.06,0.48,0.25c0.25,0.5,0.54,0.99,0.82,1.46c0.21,0.35,0.42,0.71,0.61,1.07
	c0.04,0.08,0.09,0.15,0.14,0.22c0.09,0.13,0.17,0.25,0.2,0.39L52.52,45.75z M45.17,34.01c0.18,0.31,0.35,0.62,0.54,0.92
	c0.09,0.16,0.18,0.32,0.27,0.47c0.12,0.21,0.23,0.41,0.36,0.61c0.17,0.27,0.35,0.31,0.59,0.32c1.14-0.01,2.3-0.01,3.44,0h0.01
	c0.24,0,0.43-0.06,0.58-0.33c0.21-0.36,0.41-0.72,0.62-1.08c0.24-0.41,0.47-0.82,0.7-1.23c0.05-0.1,0.11-0.19,0.17-0.28
	c0.12-0.2,0.25-0.42,0.35-0.64c0.01-0.03,0.02-0.05,0.01-0.08c0-0.03,0-0.05-0.01-0.08c-0.25-0.54-0.55-1.05-0.85-1.54
	c-0.13-0.22-0.27-0.45-0.4-0.67l-0.17-0.29c-0.14-0.25-0.29-0.51-0.44-0.76c-0.16-0.27-0.34-0.33-0.59-0.33h-0.01
	c-1.14,0.01-2.3,0.01-3.44,0c-0.25-0.01-0.44,0.05-0.59,0.33c-0.31,0.56-0.64,1.12-0.96,1.66c-0.12,0.2-0.24,0.41-0.36,0.61
	l-0.42,0.71c-0.13,0.22-0.13,0.45,0,0.67C44.79,33.35,44.98,33.68,45.17,34.01z M44.85,32.51l0.42-0.71
	c0.12-0.2,0.24-0.41,0.36-0.61c0.32-0.54,0.66-1.11,0.96-1.67c0.09-0.16,0.15-0.19,0.33-0.18c1.14,0.01,2.3,0.01,3.44,0
	c0.17-0.01,0.25,0.03,0.34,0.18c0.15,0.25,0.29,0.5,0.43,0.75l0.17,0.29c0.13,0.23,0.26,0.45,0.4,0.68
	c0.28,0.47,0.58,0.96,0.81,1.47c-0.1,0.19-0.21,0.38-0.32,0.57c-0.06,0.1-0.11,0.19-0.17,0.29c-0.23,0.41-0.47,0.82-0.7,1.22
	c-0.21,0.36-0.42,0.72-0.62,1.08c-0.09,0.16-0.17,0.18-0.34,0.18c-0.57,0-1.15,0-1.72,0c-0.58,0-1.15,0-1.72,0
	c-0.17,0-0.24-0.03-0.34-0.19c-0.12-0.2-0.24-0.4-0.35-0.6c-0.09-0.16-0.18-0.32-0.28-0.48c-0.18-0.3-0.36-0.61-0.53-0.92
	c-0.19-0.33-0.38-0.66-0.58-0.99C44.77,32.75,44.77,32.63,44.85,32.51z M63.88,58.7c0.04-0.04,0.08-0.09,0.12-0.16
	c1.35-2.35,2.46-4.27,3.51-6.07c0.03-0.04,0.04-0.08,0.06-0.12c1.02,0.02,2.05,0.02,3.08,0.03l-0.17-0.3
	c-0.97,0-1.94-0.01-2.91-0.03c-0.02-0.05-0.05-0.1-0.08-0.14c-0.16-0.21-0.28-0.43-0.41-0.67c-0.06-0.11-0.12-0.22-0.18-0.32
	c-0.76-1.31-1.53-2.64-2.27-3.93l-0.74-1.29l0.18-0.3c0.17-0.29,0.34-0.59,0.52-0.88c0.25-0.44,0.51-0.88,0.76-1.32l-0.17-0.29
	c-0.28,0.49-0.56,0.98-0.84,1.47c-0.17,0.3-0.34,0.59-0.51,0.88l-0.18,0.31h-7.38l-0.5-0.87c-0.26-0.46-0.52-0.91-0.79-1.37
	c-0.71-1.24-1.44-2.51-2.19-3.75c-0.2-0.33-0.13-0.5,0.04-0.8c0.97-1.65,1.98-3.4,3.28-5.68c0.11-0.19,0.21-0.25,0.42-0.25h0
	c0.94,0,1.88,0,2.83,0l-0.17-0.29c-0.89,0-1.77,0-2.66,0h-0.01c-0.1,0-0.18,0.02-0.26,0.04l-0.06-0.11
	c-0.06-0.11-0.13-0.23-0.19-0.34l-0.62-1.07c-0.92-1.59-1.84-3.18-2.76-4.77c-0.06-0.11-0.05-0.17,0-0.22
	c0.18-0.23,0.31-0.47,0.44-0.72c0.06-0.11,0.11-0.21,0.17-0.31c0.27-0.46,0.54-0.93,0.81-1.39l-0.17-0.29
	c-0.3,0.51-0.59,1.03-0.89,1.54c-0.06,0.11-0.12,0.22-0.18,0.32c-0.13,0.24-0.25,0.47-0.41,0.67c-0.03,0.04-0.06,0.08-0.08,0.14
	c-2.44,0.04-4.91,0.04-7.35,0c-0.02-0.05-0.05-0.1-0.08-0.14c-0.16-0.21-0.29-0.43-0.41-0.67c-0.06-0.11-0.12-0.22-0.18-0.32
	c-0.76-1.3-1.52-2.63-2.26-3.92l-0.75-1.3l0.2-0.33c0.17-0.28,0.33-0.57,0.5-0.85c0.3-0.53,0.6-1.05,0.91-1.58
	c0.65-1.14,1.32-2.31,2.01-3.45c0.02-0.03,0.04-0.08,0.06-0.12c1.04-0.01,2.08-0.02,3.12-0.02l-0.17-0.29
	c-0.98,0-1.97,0.01-2.95,0.02c-0.01-0.04-0.03-0.08-0.05-0.12c-0.99-1.7-1.98-3.41-2.97-5.12l-0.17,0.29
	c0.96,1.66,1.92,3.32,2.89,4.97c0.06,0.1,0.04,0.16-0.01,0.24c-0.69,1.14-1.37,2.32-2.02,3.46c-0.3,0.53-0.6,1.05-0.9,1.58
	c-0.17,0.29-0.33,0.57-0.5,0.85l-0.2,0.34h-5.87L35,19.82h6.04l0.74,1.3c0.74,1.29,1.5,2.62,2.26,3.92c0.06,0.1,0.12,0.21,0.17,0.31
	c0.13,0.24,0.26,0.49,0.44,0.72c0.04,0.06,0.06,0.12,0,0.22c-1.06,1.82-2.21,3.8-3.51,6.07c-0.08,0.14-0.17,0.19-0.36,0.19
	c-2.28-0.01-4.57,0-6.85-0.01c-0.1,0-0.19,0.01-0.27,0.04l-0.06-0.1c-0.07-0.12-0.13-0.23-0.2-0.35l-0.59-1.01
	c-0.73-1.26-1.45-2.51-2.18-3.77l-0.17,0.29c0.7,1.21,1.4,2.41,2.1,3.62l0.59,1.01c0.07,0.11,0.13,0.23,0.2,0.35l0.06,0.11
	c-0.06,0.06-0.11,0.12-0.16,0.21c-1.28,2.23-2.32,4.04-3.28,5.68c-0.09,0.15-0.16,0.29-0.19,0.45c0,0,0,0,0,0
	c-1.96-0.03-3.93-0.03-5.9-0.01l-0.17,0.29c2.02-0.02,4.05-0.02,6.06,0.01h0c0,0,0,0,0.01,0c0.02,0.11,0.07,0.23,0.15,0.36
	c0.75,1.24,1.48,2.51,2.18,3.75c0.26,0.46,0.52,0.91,0.78,1.37l0.5,0.86L32.66,47c-0.74,1.29-1.5,2.62-2.26,3.92
	c-0.06,0.11-0.12,0.22-0.18,0.32c-0.13,0.24-0.25,0.47-0.41,0.67c-0.03,0.04-0.06,0.08-0.08,0.14c-2.44,0.04-4.91,0.04-7.35,0
	c-0.02-0.05-0.05-0.1-0.08-0.14c-0.16-0.21-0.28-0.43-0.41-0.67c-0.06-0.11-0.12-0.22-0.18-0.33c-0.76-1.31-1.53-2.64-2.27-3.93
	l-0.06-0.11l-0.17,0.29c0.73,1.28,1.49,2.6,2.25,3.89c0.06,0.1,0.12,0.21,0.17,0.32c0.13,0.24,0.26,0.49,0.44,0.72
	c0.04,0.06,0.06,0.12,0,0.22c-1.05,1.8-2.16,3.72-3.51,6.07c-0.08,0.14-0.17,0.19-0.36,0.19h0c-1.86,0-3.72,0-5.57-0.01l-0.17,0.29
	c1.91,0,3.83,0,5.74,0.01h0c0.08,0,0.16-0.01,0.24-0.03l0.7,1.21c0.5,0.87,1.01,1.74,1.51,2.61h0.34c-0.53-0.92-1.06-1.84-1.59-2.75
	l-0.7-1.22c0.04-0.04,0.08-0.09,0.12-0.16c1.35-2.35,2.46-4.27,3.51-6.07c0.03-0.04,0.04-0.08,0.06-0.12
	c1.22,0.02,2.45,0.03,3.68,0.03c1.23,0,2.46-0.01,3.68-0.03c0.01,0.04,0.03,0.08,0.06,0.12c0.93,1.6,1.86,3.2,2.78,4.8l0.6,1.04
	c0.07,0.12,0.14,0.24,0.2,0.36l0.05,0.09c-0.06,0.06-0.11,0.12-0.16,0.21c-0.78,1.37-1.48,2.58-2.12,3.69h0.34
	c0.62-1.07,1.29-2.23,2.04-3.55c0.11-0.19,0.21-0.25,0.43-0.25h0c2.28,0.01,4.57,0,6.85,0.01h0c0.08,0,0.16-0.01,0.24-0.03
	l0.73,1.26c0.49,0.85,0.99,1.71,1.48,2.56h0.34c-0.52-0.9-1.05-1.8-1.57-2.71l-0.73-1.26c0.04-0.04,0.08-0.09,0.12-0.16
	c1.33-2.32,2.45-4.25,3.51-6.07c0.03-0.04,0.04-0.08,0.06-0.12c1.22,0.02,2.45,0.03,3.68,0.03c1.23,0,2.46-0.01,3.68-0.03
	c0.01,0.04,0.03,0.08,0.06,0.12c0.92,1.58,1.84,3.16,2.75,4.75l0.63,1.09c0.07,0.12,0.13,0.23,0.2,0.35l0.06,0.11
	c-0.06,0.06-0.11,0.12-0.16,0.21c-0.8,1.4-1.49,2.59-2.12,3.69h0.34c0.61-1.06,1.28-2.21,2.04-3.55c0.11-0.19,0.21-0.25,0.43-0.25h0
	c2.28,0.01,4.57,0,6.85,0.01h0c0.08,0,0.16-0.01,0.24-0.03l0.72,1.25c0.49,0.86,0.99,1.71,1.49,2.57h0.34
	c-0.52-0.91-1.05-1.81-1.57-2.72L63.88,58.7z M41.41,32.51c1.3-2.27,2.45-4.25,3.51-6.07c0.03-0.04,0.04-0.08,0.06-0.12
	c1.22,0.02,2.45,0.03,3.68,0.03c1.23,0,2.46-0.01,3.68-0.03c0.01,0.04,0.03,0.08,0.06,0.12c0.93,1.59,1.85,3.18,2.76,4.77l0.62,1.07
	c0.06,0.11,0.13,0.22,0.19,0.34l0.07,0.12c-0.06,0.06-0.11,0.12-0.16,0.21c-1.3,2.28-2.31,4.03-3.28,5.68
	c-0.09,0.15-0.16,0.29-0.19,0.45c0,0,0,0,0,0c-2.46-0.03-4.95-0.03-7.41,0c-0.01-0.04-0.03-0.08-0.05-0.12
	c-0.99-1.69-1.97-3.39-2.95-5.09l-0.68-1.19C41.33,32.62,41.37,32.57,41.41,32.51z M33.16,44.7c-0.26-0.46-0.52-0.91-0.78-1.37
	c-0.71-1.24-1.44-2.51-2.19-3.76c-0.2-0.33-0.13-0.5,0.04-0.8c0.96-1.64,2-3.45,3.28-5.68c0.11-0.19,0.21-0.25,0.42-0.25h0
	c2.28,0.01,4.57,0,6.85,0.01c0.08,0,0.16,0,0.24-0.02L41.72,34c0.98,1.7,1.96,3.4,2.95,5.09c0.06,0.1,0.04,0.16-0.01,0.24
	c-0.69,1.14-1.37,2.32-2.02,3.46c-0.3,0.53-0.6,1.05-0.91,1.58c-0.17,0.3-0.35,0.6-0.53,0.9l-0.17,0.29h-7.38L33.16,44.7z
	 M44.66,52.33c-1.06,1.82-2.17,3.75-3.51,6.07c-0.08,0.14-0.17,0.19-0.36,0.19h0c-2.28-0.01-4.57,0-6.85-0.01h0
	c-0.1,0-0.19,0.02-0.26,0.04l-0.05-0.09c-0.07-0.12-0.14-0.24-0.2-0.36l-0.6-1.04c-0.92-1.6-1.85-3.21-2.78-4.8
	c-0.06-0.11-0.05-0.17,0-0.22c0.18-0.23,0.31-0.47,0.44-0.72c0.06-0.11,0.11-0.21,0.17-0.32c0.76-1.3,1.52-2.63,2.26-3.92l0.74-1.29
	h7.39l0.75,1.3c0.74,1.28,1.5,2.61,2.26,3.91c0.06,0.1,0.12,0.21,0.17,0.32c0.13,0.24,0.26,0.49,0.44,0.72
	C44.7,52.15,44.73,52.21,44.66,52.33z M52.33,52.06c-2.44,0.04-4.91,0.04-7.35,0c-0.02-0.05-0.05-0.1-0.08-0.14
	c-0.16-0.21-0.28-0.43-0.41-0.67c-0.06-0.11-0.12-0.22-0.18-0.32c-0.76-1.3-1.52-2.63-2.26-3.91L41.3,45.7l0.17-0.29
	c0.17-0.3,0.35-0.6,0.53-0.9c0.3-0.53,0.61-1.05,0.91-1.58c0.65-1.14,1.32-2.31,2.01-3.45c0.02-0.03,0.04-0.08,0.06-0.12
	c2.46-0.03,4.95-0.03,7.41,0h0c0,0,0,0,0.01,0c0.02,0.11,0.07,0.23,0.15,0.36c0.75,1.24,1.48,2.51,2.18,3.75
	c0.26,0.46,0.52,0.91,0.79,1.37l0.5,0.86L55.26,47c-0.74,1.29-1.5,2.62-2.26,3.92c-0.06,0.11-0.12,0.22-0.18,0.33
	c-0.13,0.24-0.25,0.47-0.41,0.67C52.37,51.96,52.35,52,52.33,52.06z M63.39,58.59L63.39,58.59c-2.29-0.01-4.57,0-6.85-0.01h0
	c-0.1,0-0.19,0.02-0.26,0.04l-0.06-0.1c-0.07-0.12-0.13-0.23-0.2-0.35l-0.63-1.09c-0.91-1.58-1.83-3.17-2.75-4.75
	c-0.06-0.11-0.05-0.17,0-0.22c0.18-0.23,0.31-0.47,0.44-0.72c0.06-0.11,0.11-0.21,0.17-0.32c0.76-1.3,1.52-2.63,2.26-3.92l0.74-1.29
	h7.39l0.73,1.28c0.74,1.29,1.5,2.63,2.27,3.94c0.06,0.1,0.12,0.21,0.17,0.31c0.13,0.24,0.26,0.49,0.44,0.72
	c0.04,0.05,0.07,0.11,0,0.22c-1.05,1.8-2.16,3.72-3.51,6.07C63.67,58.54,63.58,58.59,63.39,58.59z M37.05,51.55
	c-0.29,0.09-0.38,0.37-0.44,0.58l-0.01,0.03c-0.07,0.24,0.3,0.7,0.47,0.76c0.06,0.02,0.13,0.03,0.21,0.03
	c0.25,0,0.53-0.13,0.65-0.32c0.01-0.02,0.03-0.04,0.04-0.07c0.06-0.08,0.12-0.18,0.14-0.31c0-0.01,0-0.02,0-0.03
	c0.03-0.12-0.05-0.21-0.09-0.25C37.81,51.56,37.48,51.42,37.05,51.55z M37.82,52.22c-0.01,0.06-0.05,0.12-0.1,0.19
	c-0.02,0.03-0.03,0.05-0.05,0.08c-0.08,0.13-0.35,0.22-0.5,0.17c-0.08-0.04-0.29-0.33-0.29-0.4l0.01-0.03
	c0.06-0.21,0.11-0.35,0.24-0.39c0.07-0.02,0.14-0.03,0.2-0.03c0.18,0,0.32,0.1,0.43,0.31c0.01,0.02,0.03,0.04,0.05,0.07
	C37.82,52.2,37.82,52.21,37.82,52.22z M63.67,51.33c-0.15-0.29-0.32-0.57-0.49-0.84c-0.25-0.42-0.51-0.86-0.72-1.31
	c-0.3-0.66-0.82-0.69-1.33-0.66c-0.77,0.04-1.57,0.05-2.39,0c-0.2-0.01-0.4,0-0.6,0.02l-0.17,0.01c-0.16,0.01-0.22,0.12-0.27,0.19
	l-0.02,0.03c-0.25,0.39-0.48,0.8-0.71,1.2c-0.2,0.35-0.4,0.71-0.62,1.05c-0.07,0.1-0.12,0.21-0.18,0.32
	c-0.08,0.15-0.15,0.28-0.24,0.41c-0.2,0.28-0.21,0.55-0.04,0.85c0.37,0.61,0.73,1.23,1.08,1.85l0.15,0.26
	c0.15,0.26,0.32,0.56,0.48,0.87c0.14,0.28,0.37,0.31,0.56,0.31c1.05-0.01,2.24-0.02,3.4,0c0.01,0,0.02,0,0.03,0
	c0.33,0,0.54-0.12,0.69-0.41c0.38-0.69,0.77-1.37,1.17-2.05l0.03-0.06c0.06-0.1,0.11-0.19,0.17-0.29c0.15-0.24,0.3-0.5,0.42-0.76
	c0.01-0.03,0.02-0.05,0.01-0.08c0-0.01,0-0.02,0-0.03c-0.02-0.27-0.17-0.48-0.29-0.66C63.77,51.48,63.72,51.41,63.67,51.33z
	 M63.43,52.94c-0.06,0.1-0.12,0.19-0.17,0.29l-0.03,0.06c-0.39,0.68-0.79,1.37-1.17,2.06c-0.11,0.2-0.22,0.26-0.46,0.26
	c-0.54-0.01-1.08-0.01-1.61-0.01c-0.62,0-1.23,0-1.8,0.01c-0.17-0.01-0.23-0.03-0.29-0.15c-0.16-0.32-0.34-0.62-0.49-0.88
	l-0.15-0.26c-0.36-0.62-0.72-1.24-1.09-1.85c-0.12-0.19-0.11-0.34,0.02-0.53c0.1-0.14,0.18-0.3,0.26-0.44
	c0.06-0.1,0.11-0.21,0.17-0.31c0.22-0.35,0.42-0.71,0.62-1.06c0.22-0.39,0.45-0.8,0.7-1.18l0.02-0.04c0.01-0.02,0.03-0.05,0.03-0.05
	l0.17-0.01c0.19-0.01,0.38-0.03,0.56-0.02c0.82,0.04,1.64,0.04,2.42,0c0.47-0.03,0.82-0.01,1.04,0.49c0.21,0.46,0.48,0.91,0.73,1.33
	c0.16,0.27,0.33,0.55,0.48,0.83c0.05,0.09,0.11,0.18,0.17,0.26c0.11,0.17,0.22,0.32,0.24,0.51C63.71,52.48,63.57,52.71,63.43,52.94z
	 M46.27,16.45c-0.46,0.84-0.96,1.68-1.45,2.49l-0.2,0.33c-0.16,0.27-0.16,0.53,0,0.8l0.2,0.33c0.48,0.81,0.99,1.65,1.44,2.49
	c0.18,0.33,0.4,0.46,0.75,0.46c0.02,0,0.03,0,0.05,0c0.58-0.02,1.2-0.03,2.01-0.03c0.35,0,0.73,0.01,1.23,0.03
	c0.32,0.01,0.54-0.1,0.69-0.37c0.38-0.67,0.76-1.34,1.15-2l0.2-0.34l-0.17-0.29l-0.28,0.49c-0.38,0.67-0.77,1.33-1.15,2
	c-0.09,0.17-0.21,0.23-0.42,0.22c-0.5-0.02-0.88-0.03-1.24-0.03c-0.81,0-1.43,0.01-2.02,0.03c-0.27,0.01-0.39-0.07-0.53-0.31
	c-0.46-0.85-0.96-1.69-1.45-2.5l-0.2-0.33c-0.11-0.18-0.11-0.32,0-0.5l0.2-0.33c0.49-0.81,0.99-1.66,1.45-2.5
	c0.13-0.23,0.24-0.31,0.47-0.31c0.02,0,0.04,0,0.06,0c0.45,0.02,0.91,0.03,1.37,0.03c0.44,0,0.91-0.01,1.39-0.02L49.64,16
	c-0.42,0.01-0.83,0.02-1.22,0.02c-0.45,0-0.91-0.01-1.36-0.03C46.69,15.96,46.46,16.1,46.27,16.45z M59.88,38.49
	c-0.16,0-0.33,0.09-0.47,0.25c-0.15,0.15-0.23,0.33-0.22,0.49c0.01,0.33,0.36,0.61,0.67,0.67c0.06,0.01,0.11,0.01,0.16,0.01
	c0.42,0,0.57-0.34,0.69-0.59c0.01-0.02,0.01-0.05,0.01-0.08c0-0.02,0-0.05-0.01-0.07C60.49,38.61,60.39,38.47,59.88,38.49z
	 M59.91,39.6c-0.19-0.03-0.42-0.21-0.43-0.39c0-0.07,0.05-0.18,0.14-0.28c0.09-0.09,0.19-0.15,0.27-0.16c0.03,0,0.06,0,0.09,0
	c0.24,0,0.28,0.04,0.44,0.45C60.27,39.53,60.18,39.65,59.91,39.6z M48.5,19l-0.1,0.01c-0.27,0.03-0.36,0.25-0.42,0.39
	c-0.02,0.05-0.04,0.09-0.06,0.13c-0.04,0.06-0.07,0.16,0,0.33c0.1,0.21,0.37,0.49,0.58,0.52c0.05,0.01,0.1,0.01,0.14,0.01
	c0.54,0,0.7-0.47,0.76-0.63c0.01-0.02,0.01-0.04,0.01-0.07c0,0,0-0.01,0-0.01c0.01-0.1-0.04-0.18-0.07-0.23
	c-0.01-0.02-0.02-0.04-0.03-0.05C49.17,18.9,48.77,18.96,48.5,19z M49.12,19.68c-0.12,0.33-0.29,0.44-0.58,0.41
	c-0.11-0.02-0.37-0.31-0.37-0.39c0.03-0.05,0.06-0.11,0.09-0.18c0.06-0.15,0.1-0.21,0.19-0.22l0.11-0.01
	c0.09-0.01,0.16-0.02,0.22-0.02c0.15,0,0.22,0.05,0.26,0.22c0.02,0.05,0.04,0.1,0.06,0.13c0.01,0.02,0.03,0.04,0.03,0.05
	C49.12,19.67,49.12,19.67,49.12,19.68z M34.98,42.5c0.18,0.36,0.49,0.41,0.73,0.41c0.06,0,0.11,0,0.15-0.01
	c0.5-0.03,1.02-0.03,1.52-0.03c0.24,0,0.48,0,0.72,0c0.13,0,0.26,0.01,0.38,0.02c0.24,0.02,0.49,0.03,0.76-0.02
	c0.12-0.02,0.24-0.04,0.35-0.22c0.23-0.37,0.45-0.76,0.67-1.14c0.21-0.37,0.43-0.75,0.65-1.11c0.07-0.1,0.12-0.21,0.18-0.32
	c0.08-0.15,0.15-0.29,0.24-0.41c0.2-0.28,0.21-0.55,0.04-0.85c-0.37-0.61-0.73-1.23-1.08-1.85l-0.15-0.26
	c-0.16-0.27-0.33-0.57-0.48-0.87c-0.14-0.28-0.37-0.31-0.56-0.31c-1.05,0.01-2.24,0.02-3.4,0c-0.33,0-0.56,0.12-0.72,0.41
	c-0.26,0.47-0.53,0.94-0.8,1.41l-0.4,0.7c-0.06,0.1-0.12,0.2-0.18,0.3c-0.15,0.25-0.31,0.5-0.41,0.79
	c-0.01,0.02-0.01,0.04-0.01,0.07c0,0.01,0,0.02,0,0.04c0.03,0.22,0.15,0.38,0.25,0.53c0.04,0.06,0.09,0.13,0.13,0.2
	c0.19,0.36,0.4,0.72,0.61,1.06C34.44,41.5,34.73,41.99,34.98,42.5z M33.67,39.6c-0.09-0.13-0.17-0.25-0.2-0.39
	c0.09-0.25,0.23-0.47,0.38-0.71c0.06-0.1,0.13-0.21,0.19-0.31l0.4-0.7c0.27-0.47,0.54-0.94,0.8-1.41c0.11-0.2,0.22-0.27,0.46-0.26
	c1.17,0.02,2.36,0.01,3.41,0c0.16,0,0.23,0.03,0.29,0.15c0.16,0.31,0.33,0.61,0.49,0.88l0.15,0.26c0.36,0.62,0.72,1.24,1.09,1.85
	c0.12,0.2,0.11,0.33-0.02,0.53c-0.1,0.14-0.18,0.3-0.26,0.44c-0.06,0.1-0.11,0.21-0.17,0.31c-0.23,0.37-0.45,0.75-0.66,1.12
	c-0.21,0.37-0.43,0.76-0.66,1.13c-0.04,0.07-0.06,0.07-0.17,0.09c-0.22,0.04-0.44,0.03-0.67,0.01c-0.14-0.01-0.27-0.02-0.41-0.02
	c-0.24,0-0.48,0-0.71,0c-0.5,0-1.02,0-1.53,0.03c-0.32,0.02-0.5-0.01-0.61-0.24c-0.25-0.51-0.54-1.01-0.83-1.49
	c-0.2-0.34-0.41-0.7-0.6-1.05C33.77,39.75,33.72,39.68,33.67,39.6z M57.58,35.93c-0.26,0.47-0.53,0.94-0.8,1.41l-0.4,0.7
	c-0.06,0.1-0.12,0.2-0.18,0.3c-0.15,0.25-0.31,0.5-0.41,0.79c-0.01,0.02-0.01,0.04-0.01,0.07c0,0.01,0,0.02,0,0.04
	c0.03,0.22,0.15,0.38,0.25,0.53c0.04,0.06,0.09,0.13,0.13,0.2c0.19,0.36,0.4,0.72,0.61,1.06c0.28,0.48,0.57,0.97,0.82,1.47
	c0.18,0.36,0.49,0.41,0.73,0.41c0.06,0,0.11,0,0.15-0.01c0.52-0.03,1.05-0.03,1.57-0.03c0.23,0,0.46,0,0.7,0
	c0.12,0,0.25,0.01,0.37,0.02c0.24,0.02,0.48,0.03,0.74-0.02c0.12-0.02,0.24-0.04,0.35-0.22c0.23-0.37,0.45-0.76,0.67-1.14
	c0.21-0.37,0.43-0.75,0.65-1.11c0.04-0.06,0.07-0.13,0.11-0.19l-0.17-0.3c0,0.01-0.01,0.02-0.01,0.02c-0.06,0.1-0.11,0.21-0.17,0.31
	c-0.23,0.37-0.45,0.75-0.66,1.12c-0.21,0.37-0.43,0.76-0.66,1.13c-0.04,0.07-0.06,0.07-0.17,0.09c-0.21,0.04-0.43,0.02-0.66,0.01
	c-0.13-0.01-0.26-0.02-0.39-0.02c-0.23,0-0.46,0-0.69,0c-0.52,0-1.06,0-1.59,0.03c-0.32,0.02-0.5-0.01-0.61-0.24
	c-0.25-0.51-0.54-1.01-0.83-1.49c-0.2-0.34-0.41-0.7-0.6-1.05c-0.04-0.08-0.09-0.15-0.14-0.22c-0.09-0.13-0.17-0.25-0.2-0.39
	c0.09-0.25,0.23-0.47,0.38-0.71c0.06-0.1,0.13-0.21,0.19-0.31l0.4-0.7c0.27-0.47,0.54-0.94,0.8-1.41c0.11-0.2,0.22-0.27,0.46-0.26
	c0.95,0.02,1.91,0.01,2.8,0.01l-0.17-0.29c-0.84,0.01-1.74,0.01-2.63-0.01C57.96,35.52,57.74,35.64,57.58,35.93z M37.26,39.89
	c0.06,0.01,0.11,0.01,0.16,0.01c0.42,0,0.57-0.34,0.69-0.59c0.01-0.02,0.01-0.05,0.01-0.08c0-0.02,0-0.05-0.01-0.07
	c-0.21-0.56-0.32-0.69-0.82-0.68c-0.16,0-0.33,0.09-0.48,0.25c-0.15,0.16-0.23,0.33-0.22,0.49C36.6,39.55,36.94,39.83,37.26,39.89z
	 M37.02,38.94c0.09-0.09,0.19-0.16,0.27-0.16c0.03,0,0.06,0,0.09,0c0.24,0,0.28,0.04,0.44,0.45c-0.14,0.3-0.23,0.42-0.51,0.37
	c-0.19-0.03-0.42-0.21-0.43-0.39C36.88,39.14,36.93,39.03,37.02,38.94z M74.63,59.6c-0.23,0.41-0.47,0.82-0.71,1.23
	c-0.21,0.36-0.41,0.72-0.62,1.07c-0.09,0.16-0.15,0.19-0.34,0.18c-0.57,0-1.15,0-1.72,0c-0.58,0-1.15,0-1.72,0
	c-0.17,0-0.24-0.03-0.34-0.19c-0.12-0.2-0.24-0.4-0.35-0.6c-0.09-0.16-0.18-0.32-0.28-0.48c-0.18-0.3-0.36-0.61-0.53-0.92
	c-0.19-0.33-0.38-0.66-0.58-0.99c-0.07-0.12-0.07-0.24,0-0.37l0.42-0.71c0.12-0.2,0.24-0.41,0.36-0.61c0.32-0.54,0.65-1.1,0.96-1.67
	c0.09-0.16,0.15-0.18,0.33-0.18c0.94,0.01,1.9,0.01,2.85,0l-0.17-0.29c-0.89,0-1.79,0-2.68,0c-0.26,0-0.44,0.05-0.59,0.33
	c-0.3,0.56-0.64,1.12-0.96,1.66c-0.12,0.2-0.24,0.41-0.36,0.61l-0.42,0.71c-0.13,0.22-0.13,0.45,0,0.67
	c0.2,0.33,0.39,0.66,0.57,0.99c0.18,0.31,0.35,0.62,0.54,0.93c0.09,0.16,0.18,0.32,0.27,0.47c0.12,0.21,0.23,0.41,0.36,0.61
	c0.17,0.27,0.35,0.33,0.59,0.32c1.14-0.01,2.3-0.01,3.44,0h0.01c0.24,0,0.43-0.06,0.58-0.33c0.2-0.36,0.41-0.72,0.62-1.07
	c0.24-0.41,0.47-0.82,0.71-1.23c0,0,0.01-0.01,0.01-0.01l-0.17-0.29C74.69,59.49,74.66,59.55,74.63,59.6z M76.46,62.45
	c-0.04,0.08-0.09,0.15-0.13,0.23h0.26L76.46,62.45z M71.79,58.29c-0.16-0.23-0.58-0.35-0.83-0.24c-0.26,0.12-0.45,0.41-0.45,0.68
	c0,0.24,0.16,0.55,0.46,0.68c0.07,0.03,0.14,0.04,0.22,0.04c0.24,0,0.51-0.13,0.64-0.32c0.04-0.07,0.08-0.14,0.12-0.21l0.05-0.09
	c0.02-0.03,0.02-0.06,0.02-0.09c0-0.02,0-0.03,0-0.05c-0.03-0.14-0.11-0.26-0.18-0.35L71.79,58.29z M71.68,58.78
	c-0.03,0.06-0.07,0.13-0.11,0.19c-0.09,0.14-0.36,0.23-0.5,0.17c-0.18-0.08-0.28-0.27-0.28-0.41c0-0.14,0.1-0.33,0.28-0.41
	c0.02-0.01,0.06-0.02,0.09-0.02c0.13,0,0.31,0.07,0.37,0.16l0.04,0.06c0.05,0.08,0.1,0.14,0.12,0.22L71.68,58.78z"/>
</svg>
