<?xml version="1.0" encoding="utf-8"?>
<!-- Generator: Adobe Illustrator 26.1.0, SVG Export Plug-In . SVG Version: 6.00 Build 0)  -->
<svg version="1.1" xmlns="http://www.w3.org/2000/svg" xmlns:xlink="http://www.w3.org/1999/xlink" x="0px" y="0px"
	 viewBox="0 0 161.2 162.3" style="enable-background:new 0 0 161.2 162.3;" xml:space="preserve">
<style type="text/css">
	.st0{fill:none;stroke:#601FFF;stroke-width:0.25;stroke-miterlimit:10;}
	.st1{fill:none;stroke:#5E25FE;stroke-width:0.28;stroke-miterlimit:10;}
	.st2{fill:none;stroke:#5B2BFC;stroke-width:0.31;stroke-miterlimit:10;}
	.st3{fill:none;stroke:#5931FB;stroke-width:0.34;stroke-miterlimit:10;}
	.st4{fill:none;stroke:#5638FA;stroke-width:0.37;stroke-miterlimit:10;}
	.st5{fill:none;stroke:#543EF8;stroke-width:0.4;stroke-miterlimit:10;}
	.st6{fill:none;stroke:#5144F7;stroke-width:0.43;stroke-miterlimit:10;}
	.st7{fill:none;stroke:#4F4AF5;stroke-width:0.46;stroke-miterlimit:10;}
	.st8{fill:none;stroke:#4C50F4;stroke-width:0.49;stroke-miterlimit:10;}
	.st9{fill:none;stroke:#4A56F3;stroke-width:0.52;stroke-miterlimit:10;}
	.st10{fill:none;stroke:#475DF1;stroke-width:0.55;stroke-miterlimit:10;}
	.st11{fill:none;stroke:#4563F0;stroke-width:0.58;stroke-miterlimit:10;}
	.st12{fill:none;stroke:#4269EF;stroke-width:0.61;stroke-miterlimit:10;}
	.st13{fill:none;stroke:#406FED;stroke-width:0.64;stroke-miterlimit:10;}
	.st14{fill:none;stroke:#3D75EC;stroke-width:0.67;stroke-miterlimit:10;}
	.st15{fill:none;stroke:#3B7BEB;stroke-width:0.7;stroke-miterlimit:10;}
	.st16{fill:none;stroke:#3882E9;stroke-width:0.73;stroke-miterlimit:10;}
	.st17{fill:none;stroke:#3688E8;stroke-width:0.76;stroke-miterlimit:10;}
	.st18{fill:none;stroke:#338EE7;stroke-width:0.79;stroke-miterlimit:10;}
	.st19{fill:none;stroke:#3194E5;stroke-width:0.82;stroke-miterlimit:10;}
	.st20{fill:none;stroke:#2E9AE4;stroke-width:0.85;stroke-miterlimit:10;}
	.st21{fill:none;stroke:#2CA0E2;stroke-width:0.88;stroke-miterlimit:10;}
	.st22{fill:none;stroke:#29A7E1;stroke-width:0.91;stroke-miterlimit:10;}
	.st23{fill:none;stroke:#27ADE0;stroke-width:0.94;stroke-miterlimit:10;}
	.st24{fill:none;stroke:#24B3DE;stroke-width:0.97;stroke-miterlimit:10;}
	.st25{fill:none;stroke:#22B9DD;stroke-miterlimit:10;}
</style>
<g id="BACKGROUND">
</g>
<g id="OBJECTS">
	<g>
		<g>
			<path class="st0" d="M487.7,77c3.4,19.8-22.3,49.1-63.8,66.2c-41.1,17.7-98.1,23.3-145.6,10.8c-48.4-12.1-76.9-35.1-90.1-54.3
				c-13.4-19.8-11.5-35.8-3.4-46.7c19.3-22.2,48-16.7,120.9-11C377.1,48.9,480.5,35.5,487.7,77z"/>
			<path class="st1" d="M302,42.5C373.4,50.6,478.1,39,484.7,82c3.1,20.5-23.6,50.2-66.3,67c-42.2,17.4-100.3,22-148.1,8.2
				c-48.8-13.3-76.8-37.4-89.3-57.2c-12.7-20.4-9.8-36.5-1-47.4C200.9,30.2,229.1,35.5,302,42.5z"/>
			<path class="st2" d="M298.4,42.9c71.3,9.4,177.3-0.5,183.2,44c2.8,21.3-25,51.3-68.8,67.7c-43.3,17.1-102.5,20.6-150.7,5.5
				c-49.1-14.7-76.6-39.8-88.3-60.1c-11.9-21-8.1-37.1,1.4-48.1C197.8,29.7,225.7,34.8,298.4,42.9z"/>
			<path class="st3" d="M294.9,43.3c36.5,4.9,79.9,6,116.4,11c36.2,5.1,65.6,14.1,67.2,37.5c2.4,22-26.5,52.3-71.4,68.3
				c-44.4,16.7-104.8,19.1-153.2,2.7c-49.4-16-76.3-42.1-87.2-63c-11.1-21.5-6.3-37.7,4-48.6C194.8,29.1,222.3,34,294.9,43.3z"/>
			<path class="st4" d="M291.4,43.7c36.5,5.5,80,7.3,116.7,13.1c36.4,5.9,66,15.7,67.1,39.8c2,22.7-28,53.3-74,68.8
				c-45.5,16.3-107.1,17.5-155.7-0.3c-49.7-17.4-75.9-44.5-86.1-65.8c-10.3-22-4.5-38.1,6.6-49C191.9,28.4,218.9,33.2,291.4,43.7z"
				/>
			<path class="st5" d="M287.9,43.9c36.4,6.1,80.1,8.7,117.1,15.3c36.6,6.7,66.3,17.4,66.9,42.1c1.5,23.3-29.6,54.3-76.8,69.3
				c-46.6,15.9-109.4,15.8-158.1-3.3c-49.9-18.8-75.5-46.9-84.8-68.7c-9.4-22.5-2.6-38.5,9.3-49.3C189,27.7,215.6,32.3,287.9,43.9z"
				/>
			<path class="st6" d="M284.5,44.2c36.3,6.7,80.2,10,117.3,17.4c36.7,7.5,66.6,19,66.7,44.5c1,24-31.3,55.2-79.6,69.7
				c-47.8,15.4-111.6,14.1-160.6-6.5c-50.1-20.2-75-49.4-83.4-71.5c-8.5-22.9-0.6-38.8,12-49.5c13.6-10.4,28.8-14.9,47.9-14.9
				C224.2,33.4,247.5,38,284.5,44.2z"/>
			<path class="st7" d="M281.1,44.4c36.2,7.3,80.3,11.4,117.5,19.5c36.9,8.3,66.9,20.6,66.4,46.8c0.5,24.7-33,56.1-82.6,70
				c-49,14.9-113.9,12.2-163-9.8c-50.3-21.6-74.4-51.8-81.9-74.3c-7.6-23.3,1.3-39,14.8-49.5c14.4-10.1,30-14.7,49.2-14.5
				C221.1,32.7,244.1,37.6,281.1,44.4z"/>
			<path class="st8" d="M277.7,44.5c36.1,7.9,80.3,12.7,117.7,21.7c37,9.1,67.1,22.3,66,49.1c0,25.3-34.8,57-85.5,70.3
				c-50.1,14.3-116.2,10.2-165.3-13.2c-50.4-23.1-73.7-54.3-80.3-77.1c-6.7-23.7,3.4-39.1,17.6-49.4c15.3-9.9,31.3-14.3,50.5-14
				C218,32.1,240.9,37.1,277.7,44.5z"/>
			<path class="st9" d="M274.4,44.6c36,8.5,80.3,14,117.8,23.8c37.1,9.9,67.2,23.9,65.5,51.4c-0.6,26-36.7,57.7-88.6,70.4
				c-51.3,13.7-118.5,8.2-167.6-16.7c-50.5-24.6-72.9-56.7-78.6-79.9c-5.7-24,5.4-39.1,20.5-49.2c16.1-9.6,32.6-13.9,51.9-13.5
				C215,31.3,237.6,36.6,274.4,44.6z"/>
			<path class="st10" d="M271.1,44.6c35.8,9.1,80.3,15.4,117.8,25.9c37.1,10.7,67.4,25.6,65,53.7c-1.2,26.6-38.6,58.5-91.8,70.4
				c-52.5,13-120.8,6-169.9-20.4c-50.5-26.1-72.1-59.2-76.8-82.6c-4.7-24.3,7.5-39,23.5-48.8c17-9.2,33.9-13.5,53.3-12.9
				C212.1,30.6,234.4,36,271.1,44.6z"/>
			<path class="st11" d="M267.8,44.6c35.7,9.6,80.2,16.7,117.8,28.1c37.2,11.4,67.4,27.2,64.4,55.9c-1.8,27.2-40.6,59.2-95,70.4
				c-53.8,12.3-123.1,3.8-172.1-24.2c-50.5-27.7-71.2-61.7-74.8-85.3c-3.7-24.6,9.6-38.8,26.5-48.2c17.9-8.8,35.2-13,54.7-12.2
				C209.2,29.8,231.3,35.4,267.8,44.6z"/>
			<path class="st12" d="M264.6,44.5c35.5,10.2,80.1,18,117.8,30.2c37.2,12.2,67.5,28.8,63.7,58.2c-2.5,27.8-42.7,59.8-98.2,70.2
				c-55,11.6-125.4,1.4-174.3-28.1c-50.4-29.3-70.1-64.2-72.8-88c-2.7-24.8,11.8-38.5,29.5-47.6c18.7-8.4,36.6-12.4,56.2-11.4
				C206.4,28.9,228.2,34.8,264.6,44.5z"/>
			<path class="st13" d="M261.4,44.4c35.3,10.8,79.9,19.4,117.7,32.3c37.2,13,67.5,30.5,63,60.4c-3.1,28.3-44.8,60.4-101.6,70
				c-56.2,10.8-127.6-1-176.4-32.1c-50.3-30.9-69-66.7-70.6-90.7c-1.6-25,13.9-38.1,32.5-46.7c19.6-7.9,37.9-11.7,57.6-10.6
				C203.6,28.1,225.2,34.1,261.4,44.4z"/>
			<path class="st14" d="M258.2,44.3c35.1,11.4,79.8,20.7,117.5,34.5c37.2,13.8,67.5,32.1,62.2,62.6c-3.8,28.9-46.9,61-105,69.6
				c-57.4,9.9-129.8-3.6-178.4-36.3c-50.2-32.5-67.9-69.2-68.4-93.3c-0.5-25.1,16.1-37.6,35.6-45.7c20.5-7.4,39.3-11,59.1-9.7
				C200.9,27.2,222.2,33.3,258.2,44.3z"/>
			<path class="st15" d="M255,44.1c34.8,11.9,79.6,22,117.3,36.6c37.2,14.6,67.4,33.7,61.3,64.8c-4.6,29.4-49.2,61.5-108.4,69.2
				c-58.7,9-132.1-6.3-180.4-40.6c-50-34.2-66.6-71.7-66-95.9c0.6-25.2,18.3-37,38.6-44.6c21.4-6.8,40.7-10.2,60.5-8.7
				C198.3,26.3,219.2,32.5,255,44.1z"/>
			<path class="st16" d="M251.9,43.8c34.6,12.5,79.4,23.3,117,38.7c37.2,15.4,67.2,35.4,60.3,67c-5.3,29.9-51.4,61.9-112,68.6
				c-59.9,8.1-134.2-9-182.3-45c-49.8-35.8-65.2-74.3-63.6-98.4c1.7-25.3,20.5-36.3,41.7-43.3c22.3-6.1,42-9.3,62-7.7
				C195.7,25.3,216.4,31.7,251.9,43.8z"/>
			<path class="st17" d="M248.9,43.5c34.3,13,79.1,24.6,116.7,40.8c37.1,16.2,67.1,37,59.3,69.1c-6.1,30.4-53.8,62.3-115.5,67.9
				c-61.2,7.1-136.4-11.9-184.1-49.5C75.8,134.2,61.5,95,64.2,70.9c2.9-25.3,22.7-35.4,44.8-41.8c23.1-5.4,43.4-8.4,63.5-6.5
				C193.1,24.3,213.5,30.8,248.9,43.5z"/>
			<path class="st18" d="M245.9,43.2c34.1,13.6,78.8,25.9,116.4,42.9c37,17,66.9,38.6,58.2,71.2c-7,30.9-56.2,62.6-119.2,67.1
				c-62.4,6.1-138.5-14.9-185.9-54.2C66.3,130.9,53.2,90.8,57.1,66.8c4-25.2,24.9-34.4,47.9-40.1c24-4.7,44.8-7.3,65-5.3
				C190.6,23.3,210.7,30,245.9,43.2z"/>
			<path class="st19" d="M242.9,42.8c33.8,14.1,78.5,27.2,116,44.9c36.9,17.8,66.6,40.2,57,73.3c-7.8,31.4-58.6,62.8-122.8,66.2
				c-63.6,5-140.6-18-187.5-59.1C56.8,127.2,45,86.3,50,62.4c5.2-25.2,27.1-33.4,50.9-38.3c24.9-3.8,46.2-6.2,66.5-4
				C188.2,22.3,208,29,242.9,42.8z"/>
			<path class="st20" d="M239.9,42.4c33.5,14.7,78.1,28.5,115.5,47c36.8,18.5,66.3,41.8,55.8,75.3c-8.7,31.8-61.1,63-126.5,65.2
				c-64.9,3.9-142.6-21.2-189.1-64C47.3,123.1,36.8,81.5,42.9,57.8c6.4-25,29.3-32.2,54-36.3c25.7-3,47.6-5,68-2.6
				C185.9,21.2,205.3,28.1,239.9,42.4z"/>
			<path class="st21" d="M237,42c33.2,15.2,77.7,29.8,115,49.1c36.7,19.3,66,43.4,54.5,77.4c-9.6,32.2-63.7,63.1-130.3,64.1
				c-66.1,2.7-144.7-24.6-190.5-69.1c-47.8-44.7-57-87-49.7-110.5c7.5-24.8,31.5-30.8,57-34.2c26.6-2.1,49-3.8,69.5-1.2
				C183.6,20.1,202.7,27.1,237,42z"/>
			<path class="st22" d="M234.1,41.5c32.8,15.7,77.3,31,114.5,51.1c36.5,20.1,65.7,45,53.1,79.3c-10.5,32.6-66.3,63.2-134.1,62.8
				c-67.3,1.4-146.6-28-191.9-74.4c-47.2-46.5-55-89.5-46.7-112.7c8.7-24.6,33.6-29.4,60-31.8c27.4-1.1,50.4-2.5,70.9,0.4
				C181.3,19,200.1,26,234.1,41.5z"/>
			<path class="st23" d="M231.3,41c32.5,16.2,76.9,32.3,113.9,53.2c36.3,20.9,65.3,46.6,51.7,81.3c-11.4,33-68.9,63.1-137.9,61.4
				c-68.5,0.1-148.5-31.6-193.1-79.8C19.2,108.8,12.8,65,22.3,42.2c9.9-24.3,35.7-27.8,63-29.3c28.2-0.1,51.7-1,72.4,2
				C179.1,17.9,197.6,25,231.3,41z"/>
			<path class="st24" d="M228.5,40.5c32.1,16.7,76.4,33.5,113.2,55.2c36.1,21.6,64.8,48.1,50.2,83.2c-12.4,33.3-71.6,63-141.8,59.9
				c-69.7-1.2-150.3-35.3-194.2-85.3C10,103.2,5,58.9,15.7,36.4c11.1-24,37.8-26.1,65.9-26.6c29,1,53.1,0.5,73.9,3.7
				C177,16.8,195.2,23.9,228.5,40.5z"/>
			<path class="st25" d="M386.9,182.2c-13.4,33.6-74.4,62.9-145.7,58.3c-70.9-2.6-152.1-39.1-195.2-91C0.8,97.3-2.7,52.3,9.1,30.3
				C21.4,6.7,49,6,77.9,6.6c29.8,2.2,54.4,2.1,75.3,5.5c21.6,3.5,39.5,10.6,72.5,27.7c31.8,17.2,75.9,34.7,112.5,57.2
				C374.2,119.4,402.6,146.7,386.9,182.2z"/>
		</g>
	</g>
</g>
</svg>
