<?xml version="1.0" encoding="utf-8"?>
<!-- Generator: Adobe Illustrator 26.1.0, SVG Export Plug-In . SVG Version: 6.00 Build 0)  -->
<svg version="1.1" id="Layer_1" xmlns="http://www.w3.org/2000/svg" xmlns:xlink="http://www.w3.org/1999/xlink" x="0px" y="0px"
	 viewBox="0 0 850 500" style="enable-background:new 0 0 850 500;" xml:space="preserve">
<style type="text/css">
	.st0{fill:none;stroke:#000000;stroke-width:0.25;}
	.st1{opacity:0.45;}
	.st2{fill:none;stroke:#FFFFFF;stroke-width:0.7121;stroke-miterlimit:10;}
	.st3{opacity:0.9756;fill:none;stroke:#FFFFFF;stroke-width:0.7063;stroke-miterlimit:10;enable-background:new    ;}
	.st4{opacity:0.9512;fill:none;stroke:#FFFFFF;stroke-width:0.7005;stroke-miterlimit:10;enable-background:new    ;}
	.st5{opacity:0.9268;fill:none;stroke:#FFFFFF;stroke-width:0.6947;stroke-miterlimit:10;enable-background:new    ;}
	.st6{opacity:0.9024;fill:none;stroke:#FFFFFF;stroke-width:0.6889;stroke-miterlimit:10;enable-background:new    ;}
	.st7{opacity:0.878;fill:none;stroke:#FFFFFF;stroke-width:0.6831;stroke-miterlimit:10;enable-background:new    ;}
	.st8{opacity:0.8537;fill:none;stroke:#FFFFFF;stroke-width:0.6774;stroke-miterlimit:10;enable-background:new    ;}
	.st9{opacity:0.8293;fill:none;stroke:#FFFFFF;stroke-width:0.6716;stroke-miterlimit:10;enable-background:new    ;}
	.st10{opacity:0.8049;fill:none;stroke:#FFFFFF;stroke-width:0.6658;stroke-miterlimit:10;enable-background:new    ;}
	.st11{opacity:0.7805;fill:none;stroke:#FFFFFF;stroke-width:0.66;stroke-miterlimit:10;enable-background:new    ;}
	.st12{opacity:0.7561;fill:none;stroke:#FFFFFF;stroke-width:0.6542;stroke-miterlimit:10;enable-background:new    ;}
	.st13{opacity:0.7317;fill:none;stroke:#FFFFFF;stroke-width:0.6484;stroke-miterlimit:10;enable-background:new    ;}
	.st14{opacity:0.7073;fill:none;stroke:#FFFFFF;stroke-width:0.6426;stroke-miterlimit:10;enable-background:new    ;}
	.st15{opacity:0.6829;fill:none;stroke:#FFFFFF;stroke-width:0.6368;stroke-miterlimit:10;enable-background:new    ;}
	.st16{opacity:0.6585;fill:none;stroke:#FFFFFF;stroke-width:0.631;stroke-miterlimit:10;enable-background:new    ;}
	.st17{opacity:0.6341;fill:none;stroke:#FFFFFF;stroke-width:0.6252;stroke-miterlimit:10;enable-background:new    ;}
	.st18{opacity:0.6098;fill:none;stroke:#FFFFFF;stroke-width:0.6195;stroke-miterlimit:10;enable-background:new    ;}
	.st19{opacity:0.5854;fill:none;stroke:#FFFFFF;stroke-width:0.6137;stroke-miterlimit:10;enable-background:new    ;}
	.st20{opacity:0.561;fill:none;stroke:#FFFFFF;stroke-width:0.6079;stroke-miterlimit:10;enable-background:new    ;}
	.st21{opacity:0.5366;fill:none;stroke:#FFFFFF;stroke-width:0.6021;stroke-miterlimit:10;enable-background:new    ;}
	.st22{opacity:0.5122;fill:none;stroke:#FFFFFF;stroke-width:0.5963;stroke-miterlimit:10;enable-background:new    ;}
	.st23{opacity:0.4878;fill:none;stroke:#FFFFFF;stroke-width:0.5905;stroke-miterlimit:10;enable-background:new    ;}
	.st24{opacity:0.4634;fill:none;stroke:#FFFFFF;stroke-width:0.5847;stroke-miterlimit:10;enable-background:new    ;}
	.st25{opacity:0.439;fill:none;stroke:#FFFFFF;stroke-width:0.5789;stroke-miterlimit:10;enable-background:new    ;}
	.st26{opacity:0.4146;fill:none;stroke:#FFFFFF;stroke-width:0.5731;stroke-miterlimit:10;enable-background:new    ;}
	.st27{opacity:0.3902;fill:none;stroke:#FFFFFF;stroke-width:0.5674;stroke-miterlimit:10;enable-background:new    ;}
	.st28{opacity:0.3659;fill:none;stroke:#FFFFFF;stroke-width:0.5616;stroke-miterlimit:10;enable-background:new    ;}
	.st29{opacity:0.3415;fill:none;stroke:#FFFFFF;stroke-width:0.5558;stroke-miterlimit:10;enable-background:new    ;}
	.st30{opacity:0.3171;fill:none;stroke:#FFFFFF;stroke-width:0.55;stroke-miterlimit:10;enable-background:new    ;}
	.st31{opacity:0.2927;fill:none;stroke:#FFFFFF;stroke-width:0.5442;stroke-miterlimit:10;enable-background:new    ;}
	.st32{opacity:0.2683;fill:none;stroke:#FFFFFF;stroke-width:0.5384;stroke-miterlimit:10;enable-background:new    ;}
	.st33{opacity:0.2439;fill:none;stroke:#FFFFFF;stroke-width:0.5326;stroke-miterlimit:10;enable-background:new    ;}
	.st34{opacity:0.2195;fill:none;stroke:#FFFFFF;stroke-width:0.5268;stroke-miterlimit:10;enable-background:new    ;}
	.st35{opacity:0.1951;fill:none;stroke:#FFFFFF;stroke-width:0.521;stroke-miterlimit:10;enable-background:new    ;}
	.st36{opacity:0.1707;fill:none;stroke:#FFFFFF;stroke-width:0.5153;stroke-miterlimit:10;enable-background:new    ;}
	.st37{opacity:0.1463;fill:none;stroke:#FFFFFF;stroke-width:0.5095;stroke-miterlimit:10;enable-background:new    ;}
	.st38{opacity:0.122;fill:none;stroke:#FFFFFF;stroke-width:0.5037;stroke-miterlimit:10;enable-background:new    ;}
	.st39{opacity:7.317100e-02;fill:none;stroke:#FFFFFF;stroke-width:0.4921;stroke-miterlimit:10;enable-background:new    ;}
	.st40{opacity:4.878000e-02;fill:none;stroke:#FFFFFF;stroke-width:0.4863;stroke-miterlimit:10;enable-background:new    ;}
	.st41{opacity:2.439000e-02;fill:none;stroke:#FFFFFF;stroke-width:0.4805;stroke-miterlimit:10;enable-background:new    ;}
	.st42{fill:none;stroke:#FFFFFF;stroke-width:0.4747;stroke-miterlimit:10;stroke-opacity:0;}
	.st43{opacity:0.3;fill:none;stroke:#FFFFFF;stroke-width:0.4747;stroke-miterlimit:10;enable-background:new    ;}
	.st44{opacity:0.7;}
	.st45{opacity:0.9829;fill:none;stroke:#FFFFFF;stroke-width:0.7063;stroke-miterlimit:10;enable-background:new    ;}
	.st46{opacity:0.9659;fill:none;stroke:#FFFFFF;stroke-width:0.7005;stroke-miterlimit:10;enable-background:new    ;}
	.st47{opacity:0.9488;fill:none;stroke:#FFFFFF;stroke-width:0.6947;stroke-miterlimit:10;enable-background:new    ;}
	.st48{opacity:0.9317;fill:none;stroke:#FFFFFF;stroke-width:0.6889;stroke-miterlimit:10;enable-background:new    ;}
	.st49{opacity:0.9146;fill:none;stroke:#FFFFFF;stroke-width:0.6831;stroke-miterlimit:10;enable-background:new    ;}
	.st50{opacity:0.8976;fill:none;stroke:#FFFFFF;stroke-width:0.6774;stroke-miterlimit:10;enable-background:new    ;}
	.st51{opacity:0.8805;fill:none;stroke:#FFFFFF;stroke-width:0.6716;stroke-miterlimit:10;enable-background:new    ;}
	.st52{opacity:0.8634;fill:none;stroke:#FFFFFF;stroke-width:0.6658;stroke-miterlimit:10;enable-background:new    ;}
	.st53{opacity:0.8463;fill:none;stroke:#FFFFFF;stroke-width:0.66;stroke-miterlimit:10;enable-background:new    ;}
	.st54{opacity:0.8293;fill:none;stroke:#FFFFFF;stroke-width:0.6542;stroke-miterlimit:10;enable-background:new    ;}
	.st55{opacity:0.8122;fill:none;stroke:#FFFFFF;stroke-width:0.6484;stroke-miterlimit:10;enable-background:new    ;}
	.st56{opacity:0.7951;fill:none;stroke:#FFFFFF;stroke-width:0.6426;stroke-miterlimit:10;enable-background:new    ;}
	.st57{opacity:0.778;fill:none;stroke:#FFFFFF;stroke-width:0.6368;stroke-miterlimit:10;enable-background:new    ;}
	.st58{opacity:0.761;fill:none;stroke:#FFFFFF;stroke-width:0.631;stroke-miterlimit:10;enable-background:new    ;}
	.st59{opacity:0.7439;fill:none;stroke:#FFFFFF;stroke-width:0.6252;stroke-miterlimit:10;enable-background:new    ;}
	.st60{opacity:0.7268;fill:none;stroke:#FFFFFF;stroke-width:0.6195;stroke-miterlimit:10;enable-background:new    ;}
	.st61{opacity:0.7098;fill:none;stroke:#FFFFFF;stroke-width:0.6137;stroke-miterlimit:10;enable-background:new    ;}
	.st62{opacity:0.6927;fill:none;stroke:#FFFFFF;stroke-width:0.6079;stroke-miterlimit:10;enable-background:new    ;}
	.st63{opacity:0.6756;fill:none;stroke:#FFFFFF;stroke-width:0.6021;stroke-miterlimit:10;enable-background:new    ;}
	.st64{opacity:0.6585;fill:none;stroke:#FFFFFF;stroke-width:0.5963;stroke-miterlimit:10;enable-background:new    ;}
	.st65{opacity:0.6415;fill:none;stroke:#FFFFFF;stroke-width:0.5905;stroke-miterlimit:10;enable-background:new    ;}
	.st66{opacity:0.6244;fill:none;stroke:#FFFFFF;stroke-width:0.5847;stroke-miterlimit:10;enable-background:new    ;}
	.st67{opacity:0.6073;fill:none;stroke:#FFFFFF;stroke-width:0.5789;stroke-miterlimit:10;enable-background:new    ;}
	.st68{opacity:0.5902;fill:none;stroke:#FFFFFF;stroke-width:0.5731;stroke-miterlimit:10;enable-background:new    ;}
	.st69{opacity:0.5732;fill:none;stroke:#FFFFFF;stroke-width:0.5674;stroke-miterlimit:10;enable-background:new    ;}
	.st70{opacity:0.5561;fill:none;stroke:#FFFFFF;stroke-width:0.5616;stroke-miterlimit:10;enable-background:new    ;}
	.st71{opacity:0.539;fill:none;stroke:#FFFFFF;stroke-width:0.5558;stroke-miterlimit:10;enable-background:new    ;}
	.st72{opacity:0.522;fill:none;stroke:#FFFFFF;stroke-width:0.55;stroke-miterlimit:10;enable-background:new    ;}
	.st73{opacity:0.5049;fill:none;stroke:#FFFFFF;stroke-width:0.5442;stroke-miterlimit:10;enable-background:new    ;}
	.st74{opacity:0.4878;fill:none;stroke:#FFFFFF;stroke-width:0.5384;stroke-miterlimit:10;enable-background:new    ;}
	.st75{opacity:0.4707;fill:none;stroke:#FFFFFF;stroke-width:0.5326;stroke-miterlimit:10;enable-background:new    ;}
	.st76{opacity:0.4537;fill:none;stroke:#FFFFFF;stroke-width:0.5268;stroke-miterlimit:10;enable-background:new    ;}
	.st77{opacity:0.4366;fill:none;stroke:#FFFFFF;stroke-width:0.521;stroke-miterlimit:10;enable-background:new    ;}
	.st78{opacity:0.4195;fill:none;stroke:#FFFFFF;stroke-width:0.5153;stroke-miterlimit:10;enable-background:new    ;}
	.st79{opacity:0.4024;fill:none;stroke:#FFFFFF;stroke-width:0.5095;stroke-miterlimit:10;enable-background:new    ;}
	.st80{opacity:0.3854;fill:none;stroke:#FFFFFF;stroke-width:0.5037;stroke-miterlimit:10;enable-background:new    ;}
	.st81{opacity:0.3683;fill:none;stroke:#FFFFFF;stroke-width:0.4979;stroke-miterlimit:10;enable-background:new    ;}
	.st82{opacity:0.3512;fill:none;stroke:#FFFFFF;stroke-width:0.4921;stroke-miterlimit:10;enable-background:new    ;}
	.st83{opacity:0.3341;fill:none;stroke:#FFFFFF;stroke-width:0.4863;stroke-miterlimit:10;enable-background:new    ;}
	.st84{opacity:0.3171;fill:none;stroke:#FFFFFF;stroke-width:0.4805;stroke-miterlimit:10;enable-background:new    ;}
	.st85{display:none;fill:none;stroke:#FFFFFF;stroke-width:0.8755;stroke-miterlimit:9.9999;}
</style>
<path class="st0" d="M850,0c-70.8,0-141.7,0-212.5,0S495.8,0,425,0S283.3,0,212.5,0S70.8,0,0,0c0,83.3,0,166.7,0,250s0,166.7,0,250
	c70.8,0,141.7,0,212.5,0s141.7,0,212.5,0s141.7,0,212.5,0s141.7,0,212.5,0c0-83.3,0-166.7,0-250S850,83.3,850,0z"/>
<g class="st1">
	<path class="st2" d="M357.2-61.8c8.3-6.2,20.5-5.9,29.8-1.3c9.4,4.6,16.3,12.7,22.1,21.1c14.7,21.7,23,46.8,34.6,70.1
		c11.7,23.4,28.2,46.2,52.9,56.7c38.5,16.4,82.4-1.7,121.8-15.9c10.3-3.7,21.3-7.2,32.2-5.5c13.9,2.1,25.2,12.6,31.7,24.7
		s9,25.6,11.7,38.9c8.8,42.8,21.5,86.6,51.3,119.6s95.3,63,167.3,36.4"/>
	<path class="st3" d="M911.6,285.5c-40.4,14-78.6,9.1-109.5-4.1c-22.1-9.4-40.4-22.9-52.7-37c-11.5-13-20.5-27.5-28-42.9
		c-2.9-6-5.5-12-8-18.2c-5.8-14.5-10.4-29.2-14.2-44c-1.1-4.3-2.2-8.6-3.2-12.9c-2.2-9-4.2-18.2-7.6-26.9c-1.4-3.5-3-7-4.9-10.3
		c-3.2-5.5-7.5-10.7-12.6-15c-5.6-4.7-12-8.3-19.1-9.7c-2.7-0.5-5.4-0.7-8.2-0.6c-7.8,0.2-15.5,2.6-22.8,5c-7.3,2.4-14.8,5-22.4,7.5
		c-19.3,6.2-39.2,11.6-58.9,11.7c-12.6,0.1-25.2-2-37.4-7.3c-7.9-3.5-15.1-8.1-21.6-13.6c-13.7-11.5-24.1-26.7-32.4-42
		c-8.4-15.5-15.2-31.7-23.5-47.3c-3.8-7.2-8-14.2-12.8-20.9c-5.9-8.3-13-16.4-22.4-21s-21.6-5.2-30,0.7"/>
	<path class="st4" d="M911.3,287.6c-38.9,12.5-75.5,6.4-105.6-7.5c-21.4-9.9-39.3-23.8-51.7-38.2c-11.4-13.2-20.5-27.8-28.2-43.2
		c-3-5.9-5.7-12-8.3-18c-6.1-14.3-11.1-28.5-15.3-42.6c-1.2-4.1-2.4-8.3-3.5-12.4c-2.4-8.7-4.6-17.4-8.2-25.7
		c-1.4-3.4-3.1-6.7-5.1-9.8c-3.3-5.2-7.8-10.2-12.9-14.6c-5.7-4.8-11.9-8.5-18.7-10.1c-2.6-0.6-5.2-0.8-7.9-0.8
		c-7.5,0-14.9,2-21.9,4.2c-7,2.1-14.3,4.4-21.5,6.5c-18.5,5.4-37.7,10-57,9.4c-12.4-0.3-24.9-2.7-37.1-8.2
		c-8-3.6-15.2-8.2-21.8-13.6c-13.9-11.4-24.7-26-33.4-40.8c-8.7-14.9-15.9-30.6-24.6-45.8c-4-7-8.3-13.9-13.2-20.5
		c-6.1-8.2-13.3-16.2-22.8-20.9c-9.5-4.7-21.7-5.4-30.1,0.2"/>
	<path class="st5" d="M911.9,289.4c-37.3,11-72.4,3.7-101.6-11c-20.7-10.5-38.3-24.7-50.6-39.4c-11.3-13.4-20.5-28.1-28.5-43.4
		c-3.1-5.9-5.9-12-8.7-17.9c-6.5-14.1-11.9-27.8-16.5-41.3c-1.3-4-2.6-7.9-3.9-11.9c-2.6-8.3-5.1-16.6-8.8-24.4
		c-1.5-3.2-3.2-6.3-5.3-9.4c-3.4-5-8-9.8-13.2-14.1c-5.7-4.8-11.8-8.7-18.4-10.5c-2.5-0.7-5.1-1-7.6-1.1c-7.2-0.2-14.3,1.5-21.1,3.3
		c-6.8,1.8-13.7,3.8-20.7,5.6c-17.8,4.7-36.1,8.4-55.1,7.1c-12.2-0.8-24.6-3.5-36.8-9.1c-8-3.6-15.3-8.3-22-13.7
		c-13.9-11.2-25-25.3-34.1-39.6c-9.1-14.4-16.7-29.5-25.8-44.4c-4.2-6.8-8.7-13.6-13.7-20.2c-6.3-8.1-13.6-16-23.2-20.7
		s-21.7-5.6-30.2-0.4"/>
	<path class="st6" d="M913.3,290.9c-35.8,9.5-69.3,1.1-97.6-14.5c-20-11-37.3-25.6-49.5-40.6c-11.2-13.6-20.5-28.4-28.8-43.7
		c-3.2-5.9-6.2-11.9-9-17.8c-6.8-13.9-12.7-27-17.6-40c-1.5-3.8-2.8-7.6-4.2-11.3c-2.8-7.9-5.5-15.8-9.4-23.2c-1.6-3-3.4-6-5.5-8.9
		c-3.6-4.7-8.2-9.3-13.5-13.7c-5.8-4.8-11.7-8.9-18.1-10.9c-2.4-0.8-4.9-1.2-7.3-1.3c-6.9-0.5-13.7,0.9-20.2,2.4
		c-6.5,1.5-13.1,3.1-19.8,4.7c-17,3.9-34.6,6.7-53.2,4.8c-11.9-1.2-24.2-4.2-36.5-10c-8-3.7-15.4-8.5-22.1-13.7
		c-14.4-11.1-25.8-24.7-35.2-38.5c-9.5-13.9-17.5-28.4-26.9-42.9c-4.4-6.6-9-13.3-14.2-19.8c-6.4-8-13.9-15.9-23.6-20.6
		c-9.6-4.8-21.8-5.8-30.4-0.9"/>
	<path class="st7" d="M915.5,292.2c-34.2,8-66.1-1.6-93.7-18c-19.4-11.6-36.3-26.5-48.5-41.7c-11.1-13.8-20.5-28.7-29-44
		c-3.3-5.9-6.4-11.9-9.4-17.6c-7.2-13.7-13.5-26.3-18.8-38.6c-1.6-3.6-3.1-7.2-4.5-10.8c-3-7.5-6-15-10-22c-1.6-2.9-3.5-5.7-5.7-8.4
		c-3.7-4.5-8.5-8.9-13.8-13.2c-5.9-4.8-11.6-9.1-17.7-11.3c-2.3-0.8-4.7-1.3-7-1.6c-6.6-0.7-13.1,0.3-19.3,1.6
		c-6.2,1.2-12.5,2.5-18.9,3.7c-16.3,3.1-33,5.1-51.3,2.6c-11.7-1.6-23.9-5-36.2-10.8c-8-3.8-15.4-8.6-22.3-13.8
		c-14.6-11-26.4-24.1-36.2-37.3c-9.9-13.3-18.2-27.3-28.1-41.4c-4.5-6.5-9.3-13-14.7-19.4c-6.6-7.9-14.2-15.7-23.9-20.5
		c-9.7-4.8-21.8-6-30.5-1.5"/>
	<path class="st8" d="M918.3,293.3c-32.6,6.5-63-4.2-89.7-21.5c-18.7-12.1-35.2-27.4-47.4-42.9c-11-14-20.6-29-29.3-44.3
		c-3.4-5.9-6.6-11.8-9.8-17.5c-7.5-13.5-14.2-25.6-19.9-37.3c-1.7-3.4-3.3-6.9-4.8-10.2c-3.3-7.1-6.4-14.2-10.5-20.8
		c-1.7-2.7-3.6-5.3-5.9-7.9c-3.8-4.2-8.7-8.4-14.1-12.8c-6-4.8-11.5-9.3-17.4-11.7c-2.3-0.9-4.5-1.5-6.7-1.8
		c-6.3-1-12.5-0.2-18.4,0.7s-11.9,1.9-18,2.8c-15.5,2.3-31.5,3.5-49.4,0.3c-11.4-2.1-23.6-5.7-35.9-11.7c-8-3.9-15.5-8.7-22.5-13.8
		C503.8,32,491.7,19.4,481.5,6.7c-10.2-12.8-19-26.2-29.2-39.9c-4.7-6.3-9.7-12.7-15.2-19c-6.8-7.8-14.5-15.5-24.3-20.4
		c-9.8-4.9-21.9-6.3-30.6-2"/>
	<path class="st9" d="M921.8,294.3c-31.1,5-59.8-6.8-85.7-25c-18-12.6-34.2-28.2-46.4-44.1c-10.9-14.2-20.6-29.3-29.5-44.6
		c-3.5-5.9-6.8-11.8-10.1-17.4c-7.9-13.3-15-24.8-21.1-36c-1.8-3.3-3.5-6.5-5.1-9.7c-3.5-6.7-6.8-13.4-11.1-19.6
		c-1.8-2.5-3.7-5-6.1-7.4c-3.9-4-9-8-14.4-12.4c-6-4.8-11.5-9.5-17.1-12.1c-2.2-1-4.3-1.7-6.4-2.1c-6-1.2-11.9-0.8-17.5-0.2
		c-5.6,0.6-11.3,1.3-17.1,1.9c-14.8,1.5-30,1.9-47.5-2c-11.2-2.5-23.3-6.5-35.6-12.6c-8-4-15.6-8.8-22.7-13.9
		c-15.1-10.7-27.5-22.8-38-35C479.8-10.1,470.6-23,460-36.3c-4.9-6.1-10-12.4-15.6-18.6c-7-7.7-14.9-15.3-24.7-20.2
		c-9.8-4.9-22-6.5-30.8-2.6"/>
	<path class="st10" d="M925.8,295.2c-29.5,3.5-56.7-9.5-81.8-28.5c-17.3-13.1-33.2-29.1-45.3-45.3C788,207,778.2,191.8,769,176.6
		c-3.5-5.9-7-11.7-10.5-17.3c-8.2-13.1-15.8-24.1-22.2-34.7c-1.9-3.1-3.7-6.2-5.5-9.2c-3.7-6.3-7.3-12.6-11.7-18.4
		c-1.8-2.4-3.9-4.7-6.3-6.9c-4-3.7-9.2-7.5-14.7-11.9c-6.1-4.9-11.4-9.7-16.7-12.5c-2.1-1.1-4.1-1.8-6.1-2.3
		c-5.7-1.5-11.3-1.3-16.6-1S648,63,642.5,63.3c-14,0.7-28.4,0.3-45.6-4.2c-10.9-2.9-23-7.2-35.3-13.5c-8-4.1-15.7-8.9-22.9-13.9
		c-15.3-10.6-28.1-22.2-39-33.8c-11-11.7-20.5-24-31.5-36.9c-5.1-6-10.4-12.1-16.1-18.2c-7.1-7.6-15.2-15.2-25-20.1
		c-9.9-5-22-6.7-30.9-3.1"/>
	<path class="st11" d="M930.4,296.1c-28,2-53.5-12.1-77.8-32c-16.6-13.6-32.2-30-44.2-46.5c-10.7-14.6-20.6-29.9-30.1-45.1
		c-3.6-5.9-7.2-11.7-10.8-17.1C759,142.5,751,132,744.2,122c-2-2.9-3.9-5.8-5.8-8.6c-3.9-6-7.7-11.8-12.3-17.1
		c-1.9-2.2-4-4.3-6.5-6.4c-4.2-3.5-9.4-7.1-15-11.5c-6.2-4.9-11.3-9.9-16.4-12.9c-2-1.2-3.9-2-5.8-2.6c-5.4-1.7-10.7-1.9-15.7-1.9
		s-10.1,0-15.3,0c-13.2-0.1-26.9-1.3-43.7-6.5c-10.7-3.3-22.6-7.9-35-14.4c-8-4.2-15.8-9-23.1-13.9C534.1,15.8,521,4.7,509.7-6.5
		c-11.4-11.3-21.3-23-32.7-35.5c-5.2-5.8-10.7-11.8-16.6-17.8c-7.3-7.4-15.5-15-25.4-20c-10-5-22.1-6.9-31-3.7"/>
	<path class="st12" d="M935.5,297c-26.4,0.5-50.4-14.7-73.8-35.5c-15.9-14.1-31.2-30.9-43.2-47.7c-10.6-14.8-20.6-30.3-30.3-45.4
		c-3.7-5.9-7.4-11.7-11.2-17c-8.9-12.7-17.3-22.6-24.5-32c-2.1-2.8-4.1-5.5-6.1-8.1c-4.2-5.6-8.1-11-12.9-15.9c-1.9-2-4.1-4-6.7-6
		c-4.3-3.3-9.7-6.6-15.3-11.1c-6.2-4.9-11.2-10.1-16.1-13.3c-1.9-1.2-3.7-2.1-5.5-2.8c-5.1-2-10.1-2.4-14.8-2.8
		c-4.7-0.3-9.6-0.6-14.5-0.9c-12.5-0.9-25.3-2.9-41.8-8.8c-10.4-3.7-22.3-8.7-34.7-15.3c-8.1-4.3-15.9-9.1-23.3-14
		C545,10.1,531.6-0.5,520-11.1c-11.6-10.6-22-21.7-33.7-33.9c-5.4-5.6-11-11.5-17.1-17.4c-7.5-7.3-15.8-14.8-25.8-19.9
		c-10-5.1-22.1-7.2-31.2-4.2"/>
	<path class="st13" d="M941,298c-24.9-1-47.2-17.3-69.8-39c-15.3-14.6-30.2-31.8-42.1-48.8c-10.5-15-20.6-30.6-30.6-45.7
		c-3.8-5.8-7.7-11.6-11.6-16.9c-9.2-12.5-18.1-21.9-25.6-30.7c-2.2-2.6-4.3-5.1-6.4-7.6c-4.4-5.2-8.6-10.2-13.5-14.7
		c-2-1.8-4.2-3.7-6.9-5.5c-4.4-3-9.9-6.2-15.6-10.6c-6.3-4.9-11.1-10.3-15.7-13.8c-1.8-1.3-3.5-2.3-5.2-3.1c-4.8-2.2-9.5-3-13.9-3.6
		s-9-1.2-13.6-1.9c-11.7-1.6-23.8-4.5-39.9-11.1c-10.2-4.2-22-9.4-34.4-16.2c-8.1-4.4-16-9.2-23.5-14c-16-10.2-29.7-20.3-41.8-30.3
		c-12.1-10.1-22.8-20.6-35-32.4c-5.6-5.5-11.4-11.2-17.5-17c-7.7-7.2-16.1-14.7-26.2-19.8s-22.2-7.4-31.3-4.8"/>
	<path class="st14" d="M946.9,299.1c-23.3-2.5-44.1-19.9-65.9-42.5c-14.6-15.1-29.1-32.6-41.1-50c-10.4-15.2-20.6-30.9-30.8-46
		c-3.9-5.8-7.9-11.6-11.9-16.7c-9.6-12.3-18.9-21.1-26.8-29.4c-2.3-2.4-4.6-4.8-6.7-7c-4.6-4.8-9-9.4-14.1-13.5
		c-2.1-1.7-4.4-3.4-7-5c-4.5-2.8-10.1-5.7-15.9-10.2c-6.4-4.9-11-10.5-15.4-14.2c-1.7-1.4-3.3-2.5-4.9-3.3c-4.5-2.5-8.9-3.5-13-4.5
		S685,55,680.7,54c-11-2.4-22.2-6.1-38-13.3c-9.9-4.6-21.7-10.2-34.1-17c-8.1-4.5-16-9.3-23.7-14.1c-16.2-10-30.3-19.6-42.7-29.2
		s-23.6-19.5-36.1-31c-5.8-5.3-11.7-10.9-18-16.6c-7.8-7.1-16.4-14.5-26.5-19.6c-10.2-5.2-22.2-7.6-31.4-5.3"/>
	<path class="st15" d="M953.2,300.6c-21.8-4-40.9-22.4-61.9-46c-13.9-15.6-28.1-33.5-40-51.2c-10.3-15.4-20.6-31.2-31.1-46.3
		c-4-5.8-8.1-11.5-12.3-16.6c-9.9-12.1-19.6-20.4-27.9-28c-2.4-2.2-4.8-4.4-7.1-6.5c-4.8-4.4-9.4-8.6-14.7-12.3
		c-2.1-1.5-4.5-3-7.2-4.5c-4.7-2.5-10.4-5.3-16.2-9.7c-6.4-4.9-10.9-10.7-15.1-14.6c-1.6-1.5-3.1-2.6-4.6-3.6
		c-4.2-2.7-8.3-4.1-12.1-5.4s-7.8-2.5-11.8-3.7c-10.2-3.2-20.7-7.7-36-15.6c-9.7-5-21.3-10.9-33.8-17.9c-8.1-4.6-16.1-9.4-23.9-14.1
		c-16.5-9.9-30.8-19-43.6-28s-24.4-18.4-37.2-29.5c-6.1-5.1-12.2-10.6-18.7-16.3c-8-7-16.7-14.3-26.9-19.5
		c-10.2-5.2-22.3-7.8-31.6-5.9"/>
	<path class="st16" d="M959.7,302.4c-20.2-5.5-37.8-25-57.9-49.5c-13.2-16-27.1-34.4-38.9-52.4c-10.3-15.6-20.6-31.5-31.4-46.5
		c-4.1-5.8-8.3-11.5-12.7-16.5c-10.3-11.9-20.4-19.7-29-26.7c-2.5-2.1-5-4.1-7.4-6c-5-4-9.9-7.8-15.3-11.1c-2.2-1.3-4.6-2.7-7.4-4
		c-4.8-2.3-10.6-4.8-16.5-9.3c-6.5-5-10.8-10.9-14.7-15c-1.5-1.6-2.9-2.8-4.3-3.8c-3.9-3-7.7-4.7-11.2-6.2
		c-3.6-1.6-7.2-3.1-10.9-4.7c-9.5-4-19.2-9.3-34.1-17.9c-9.4-5.4-21-11.6-33.5-18.8c-8.1-4.7-16.2-9.5-24.1-14.2
		C593.7-9.9,579-18.5,565.8-27c-13.1-8.5-25.1-17.3-38.4-28c-6.1-4.9-12.4-10.3-19-15.8c-8.2-6.9-17-14.1-27.3-19.4
		c-10.3-5.3-22.3-8-31.7-6.4"/>
	<path class="st17" d="M966.4,304.5c-18.7-7.1-34.6-27.5-54-52.9c-12.6-16.5-26.1-35.3-37.9-53.6c-10.2-15.8-20.6-31.8-31.6-46.8
		c-4.2-5.8-8.5-11.4-13-16.4c-10.6-11.6-21.2-18.9-30.2-25.4c-2.6-1.9-5.2-3.7-7.7-5.4c-5.3-3.6-10.3-7-15.9-9.9
		c-2.2-1.2-4.7-2.4-7.6-3.5c-4.9-2-10.9-4.4-16.8-8.9c-6.6-5-10.7-11.1-14.4-15.4c-1.4-1.6-2.8-3-4-4.1c-3.6-3.2-7.1-5.2-10.3-7.1
		c-3.3-1.9-6.6-3.7-10-5.6c-8.7-4.8-17.6-10.9-32.2-20.2c-9.2-5.8-20.7-12.4-33.2-19.7c-8.1-4.7-16.3-9.7-24.3-14.2
		c-16.9-9.6-31.9-17.7-45.5-25.7c-13.5-7.9-25.9-16.2-39.5-26.5c-6.3-4.8-12.7-10-19.5-15.5c-8.3-6.8-17.3-14-27.6-19.3
		c-10.4-5.3-22.4-8.3-31.8-7"/>
	<path class="st18" d="M973.3,307c-17.1-8.6-31.5-30.1-50-56.4c-11.9-17-25.1-36.1-36.8-54.8c-10.1-16-20.6-32.1-31.9-47.1
		c-4.3-5.8-8.7-11.4-13.4-16.2c-11-11.4-22-18.2-31.3-24.1c-2.8-1.7-5.4-3.4-8-4.9c-5.5-3.3-10.7-6.2-16.5-8.6c-2.3-1-4.9-2-7.8-3.1
		c-5-1.8-11.1-3.9-17.1-8.4c-6.7-5-10.6-11.2-14.1-15.8c-1.3-1.7-2.6-3.1-3.7-4.3c-3.3-3.5-6.5-5.8-9.5-8s-6-4.3-9.1-6.6
		c-7.9-5.6-16.1-12.5-30.3-22.4c-8.9-6.2-20.4-13.1-32.9-20.6c-8.1-4.8-16.4-9.8-24.5-14.2c-17.2-9.4-32.5-17-46.4-24.5
		c-13.9-7.4-26.7-15.1-40.7-25c-6.5-4.6-13.1-9.7-19.9-15.1c-8.5-6.7-17.6-13.8-28-19.1c-10.4-5.4-22.5-8.5-32-7.5"/>
	<path class="st19" d="M980.3,310c-15.5-10.1-28.4-32.6-46-59.9c-11.2-17.4-24.1-37-35.8-55.9c-10-16.2-20.6-32.4-32.1-47.4
		c-4.4-5.8-8.9-11.4-13.7-16.1c-11.3-11.2-22.7-17.5-32.5-22.7c-2.9-1.5-5.6-3-8.3-4.4c-5.7-2.9-11.2-5.4-17.1-7.4
		c-2.4-0.8-5-1.7-8-2.6c-5.2-1.5-11.3-3.5-17.4-8c-6.7-5-10.5-11.4-13.8-16.2c-1.2-1.8-2.4-3.3-3.4-4.6c-3-3.7-5.9-6.3-8.6-8.8
		c-2.7-2.5-5.4-5-8.3-7.5c-7.2-6.4-14.5-14.1-28.4-24.7c-8.7-6.6-20.1-13.9-32.6-21.5c-8.2-4.9-16.5-9.9-24.7-14.3
		c-17.4-9.3-33.1-16.4-47.4-23.4c-14.2-6.9-27.5-14-41.8-23.5c-6.7-4.4-13.4-9.4-20.4-14.7c-8.7-6.5-17.9-13.6-28.4-19
		c-10.5-5.4-22.5-8.7-32.1-8.1"/>
	<path class="st20" d="M987.4,313.6c-14-11.6-25.3-35.1-42.1-63.4c-10.6-17.9-23.1-37.9-34.7-57.1c-9.9-16.4-20.6-32.7-32.4-47.7
		c-4.5-5.8-9.2-11.3-14.1-16c-11.7-11-23.5-16.7-33.6-21.4c-3-1.4-5.9-2.6-8.7-3.8c-5.9-2.5-11.6-4.6-17.6-6.2
		c-2.4-0.7-5.1-1.4-8.2-2.1c-5.3-1.2-11.6-3-17.7-7.6c-6.8-5-10.4-11.6-13.4-16.6c-1.1-1.9-2.2-3.4-3.1-4.8c-2.7-4-5.3-6.9-7.7-9.7
		c-2.4-2.8-4.9-5.6-7.4-8.4c-6.4-7.2-13-15.7-26.5-27c-8.4-7.1-19.7-14.6-32.3-22.3c-8.2-5-16.6-10-24.9-14.3
		C645.4-24,629.4-30.6,614.7-37c-14.6-6.3-28.2-12.9-43-22c-6.8-4.3-13.8-9.1-20.9-14.3c-8.9-6.4-18.2-13.5-28.8-18.9
		c-10.6-5.5-22.6-8.9-32.2-8.6"/>
	<path class="st21" d="M994.5,317.7c-12.4-13.1-22.2-37.6-38.1-66.9c-9.9-18.3-22.1-38.8-33.6-58.3c-9.8-16.6-20.6-33-32.7-47.9
		c-4.6-5.7-9.4-11.3-14.5-15.8c-12-10.8-24.3-16-34.8-20.1c-3.1-1.2-6.1-2.3-9-3.3c-6.1-2.1-12-3.8-18.2-5c-2.5-0.5-5.3-1-8.4-1.6
		c-5.4-1-11.8-2.6-18-7.1c-6.9-5.1-10.3-11.8-13.1-17c-1-1.9-2-3.6-2.8-5.1c-2.4-4.3-4.7-7.4-6.8-10.6c-2.1-3.1-4.3-6.2-6.5-9.4
		c-5.7-7.9-11.4-17.3-24.6-29.3c-8.2-7.5-19.4-15.4-32-23.2C693.2-8,684.8-13,676.3-17.3c-17.9-9.1-34.2-15.2-49.2-21
		c-14.9-5.8-29-11.7-44.1-20.5c-7-4.1-14.1-8.8-21.4-13.9c-9-6.3-18.5-13.3-29.1-18.8c-10.5-5.5-22.5-9.1-32.3-9.2"/>
	<path class="st22" d="M1001.6,322.4c-10.9-14.6-19.1-40.2-34.1-70.4c-9.3-18.7-21-39.6-32.6-59.5c-9.7-16.8-20.6-33.3-32.9-48.2
		c-4.7-5.7-9.6-11.2-14.8-15.7c-12.4-10.6-25.1-15.3-35.9-18.7c-3.2-1-6.3-1.9-9.3-2.8c-6.4-1.7-12.4-3-18.8-3.8
		c-2.5-0.3-5.4-0.7-8.6-1.1c-5.6-0.7-12.1-2.1-18.3-6.7c-6.9-5.1-10.2-12-12.8-17.4c-0.9-2-1.8-3.8-2.5-5.3c-2.1-4.5-4.1-8-5.9-11.4
		c-1.8-3.4-3.7-6.8-5.6-10.3c-4.9-8.7-9.9-18.9-22.7-31.5c-8-7.9-19.1-16.1-31.7-24.1c-8.2-5.2-16.7-10.2-25.3-14.4
		c-18.1-8.9-34.7-14.5-50.2-19.9c-15.3-5.3-29.8-10.6-45.3-19c-7.2-3.9-14.4-8.5-21.8-13.5c-9.2-6.2-18.8-13.1-29.5-18.6
		s-22.7-9.4-32.5-9.7"/>
	<path class="st23" d="M1008.6,327.8c-9.3-16.1-16-42.7-30.1-73.9c-8.7-19.2-20-40.5-31.5-60.7c-9.7-17-20.6-33.6-33.2-48.5
		c-4.8-5.7-9.8-11.2-15.2-15.6c-12.7-10.4-25.8-14.5-37-17.4c-3.3-0.8-6.5-1.6-9.6-2.2c-6.6-1.3-12.9-2.2-19.4-2.6
		c-2.6-0.2-5.5-0.4-8.8-0.6c-5.7-0.5-12.3-1.6-18.6-6.2c-7-5.1-10.1-12.2-12.4-17.8c-0.8-2.1-1.6-3.9-2.2-5.5
		c-1.8-4.8-3.5-8.6-5-12.3c-1.5-3.8-3.1-7.5-4.7-11.2c-4.2-9.5-8.4-20.5-20.8-33.8c-7.7-8.3-18.8-16.8-31.4-25
		c-8.2-5.3-16.8-10.3-25.5-14.5c-18.5-8.9-35.4-14-51.2-18.8c-15.7-4.7-30.6-9.5-46.4-17.6c-7.4-3.7-14.8-8.2-22.3-13.1
		c-9.4-6.1-19.1-12.9-29.9-18.5c-10.8-5.6-22.7-9.6-32.6-10.3"/>
	<path class="st24" d="M1015.4,333.9c-7.8-17.6-12.9-45.2-26.2-77.4c-8.1-19.6-19-41.4-30.5-61.8c-9.6-17.2-20.6-33.9-33.4-48.8
		c-4.9-5.7-10-11.1-15.5-15.5c-13.1-10.2-26.6-13.8-38.2-16.1c-3.4-0.7-6.7-1.2-9.9-1.7c-6.8-0.9-13.3-1.4-20-1.4
		c-2.6,0-5.7,0-9-0.1c-5.8-0.2-12.5-1.2-18.9-5.8c-7.1-5.1-10.1-12.4-12.1-18.3c-0.8-2.2-1.4-4.1-1.9-5.8c-1.5-5-2.9-9.1-4.1-13.2
		c-1.2-4.1-2.5-8.1-3.8-12.2c-3.4-10.3-6.8-22.1-18.9-36.1c-7.5-8.7-18.4-17.6-31.1-25.9c-8.2-5.4-16.9-10.4-25.7-14.5
		c-18.6-8.6-35.8-13.3-52-17.5c-16-4.2-31.3-8.4-47.6-16.1c-7.6-3.6-15.1-7.9-22.8-12.7c-9.6-6-19.5-12.8-30.2-18.4
		c-10.8-5.6-22.8-9.8-32.8-10.8"/>
	<path class="st25" d="M1022.1,340.7c-6.2-19.1-9.9-47.7-22.2-80.9c-7.4-20-18-42.2-29.4-63c-9.5-17.4-20.6-34.2-33.7-49.1
		c-5-5.7-10.2-11.1-15.9-15.3c-13.4-10-27.4-13-39.3-14.8c-3.5-0.5-6.9-0.9-10.3-1.2c-7-0.6-13.7-0.6-20.6-0.1
		c-2.7,0.2-5.8,0.3-9.2,0.3c-6,0-12.8-0.7-19.2-5.4c-7.1-5.1-10-12.6-11.8-18.7c-0.7-2.2-1.2-4.3-1.6-6c-1.2-5.3-2.3-9.7-3.2-14
		c-0.9-4.4-1.9-8.7-2.9-13.1c-2.6-11.1-5.3-23.6-17-38.4c-7.2-9.1-18.1-18.3-30.8-26.8c-8.2-5.5-17-10.5-25.9-14.5
		c-18.8-8.5-36.4-12.6-53-16.4c-16.4-3.7-32.1-7.3-48.7-14.6c-7.7-3.4-15.5-7.6-23.3-12.3c-9.7-5.9-19.8-12.6-30.6-18.3
		c-10.9-5.7-22.8-10-32.9-11.4"/>
	<path class="st26" d="M1028.5,348.3c-4.7-20.6-6.8-50.2-18.2-84.4c-6.8-20.5-17-43.1-28.3-64.2c-9.4-17.6-20.6-34.5-34-49.4
		c-5.1-5.7-10.4-11.1-16.3-15.2c-13.8-9.8-28.2-12.3-40.5-13.4c-3.6-0.3-7.1-0.5-10.6-0.6c-7.3-0.2-14.1,0.2-21.2,1.1
		c-2.8,0.3-5.9,0.7-9.3,0.8c-6.1,0.3-13-0.3-19.5-4.9c-7.2-5.1-9.9-12.7-11.4-19.1c-0.6-2.3-1-4.4-1.3-6.3
		c-0.9-5.6-1.7-10.3-2.3-14.9c-0.7-4.7-1.3-9.3-2.1-14c-1.9-11.9-3.8-25.2-15.1-40.6c-7-9.5-17.8-19.1-30.5-27.6
		C759.6-10,750.8-15,741.8-19c-19.1-8.4-36.9-12-53.9-15.2c-16.7-3.1-32.9-6.2-49.8-13.1c-7.9-3.2-15.8-7.3-23.8-11.9
		c-9.9-5.8-20.1-12.4-31-18.1c-11-5.7-22.9-10.2-33-12"/>
	<path class="st27" d="M1034.6,356.8c-3.1-22.1-3.8-52.7-14.3-87.9c-6.2-20.9-16-44-27.3-65.4c-9.3-17.7-20.6-34.8-34.2-49.6
		c-5.2-5.7-10.7-11-16.6-15.1c-14.1-9.6-28.9-11.6-41.6-12.1c-3.7-0.2-7.4-0.2-10.9-0.1c-7.5,0.2-14.6,1-21.8,2.3
		c-2.8,0.5-6.1,1-9.5,1.3c-6.2,0.6-13.2,0.2-19.8-4.5c-7.3-5.2-9.8-12.9-11.1-19.5c-0.5-2.4-0.8-4.6-1-6.5
		c-0.6-5.8-1.1-10.8-1.4-15.8c-0.4-5-0.7-10-1.2-15c-1.1-12.7-2.2-26.8-13.1-42.9c-6.7-9.9-17.5-19.8-30.2-28.5
		c-8.3-5.7-17.2-10.7-26.3-14.6c-19.3-8.2-37.5-11.4-54.9-14c-17.1-2.6-33.7-5.1-51-11.6c-8.1-3.1-16.1-7-24.2-11.5
		c-10.1-5.6-20.4-12.3-31.4-18c-11-5.8-23-10.5-33.2-12.5"/>
	<path class="st28" d="M1040.4,366.2c-1.5-23.6-0.8-55.2-10.3-91.4c-5.6-21.3-15-44.8-26.2-66.6c-9.3-17.9-20.6-35.1-34.5-49.9
		c-5.3-5.7-10.9-11-17-14.9c-14.5-9.4-29.7-10.8-42.7-10.8c-3.8,0-7.6,0.2-11.2,0.4c-7.7,0.6-15,1.8-22.4,3.5
		c-2.9,0.7-6.2,1.3-9.7,1.8c-6.4,0.8-13.5,0.6-20.1-4.1c-7.4-5.2-9.7-13.1-10.8-19.9c-0.4-2.5-0.6-4.8-0.7-6.8
		c-0.3-6.1-0.5-11.4-0.5-16.6c-0.1-5.3-0.1-10.6-0.3-15.9c-0.4-13.5-0.7-28.4-11.2-45.2c-6.5-10.3-17.2-20.5-29.9-29.4
		c-8.3-5.7-17.3-10.9-26.5-14.7c-19.5-8.1-38-10.7-55.8-12.9c-17.5-2.1-34.4-3.9-52.1-10.1c-8.3-2.9-16.5-6.7-24.7-11.2
		c-10.4-5.4-20.8-11.9-31.9-17.7c-11.1-5.8-23-10.7-33.3-13.1"/>
	<path class="st29" d="M1045.7,376.5c0-25.1,2.2-57.7-6.3-94.9c-5-21.8-14-45.7-25.2-67.8c-9.2-18.1-20.7-35.4-34.7-50.2
		c-5.3-5.6-11.1-10.9-17.4-14.8c-14.8-9.2-30.5-10.1-43.9-9.5c-3.9,0.2-7.8,0.5-11.5,1c-7.9,1-15.4,2.6-23,4.7
		c-2.9,0.8-6.3,1.7-9.9,2.3c-6.5,1.1-13.7,1.1-20.4-3.6c-7.4-5.2-9.6-13.3-10.4-20.3c-0.3-2.6-0.4-4.9-0.4-7
		c0-6.3,0.1-11.9,0.4-17.5c0.2-5.6,0.4-11.2,0.6-16.8c0.4-14.3,0.8-30-9.3-47.5c-6.3-10.7-16.8-21.3-29.6-30.3
		c-8.3-5.8-17.3-11-26.7-14.7c-19.8-8-38.6-10.1-56.7-11.7c-17.8-1.6-35.2-2.8-53.3-8.6c-8.5-2.7-16.8-6.4-25.2-10.8
		c-10.4-5.4-21-11.9-32.1-17.8c-11.2-5.9-23.1-10.9-33.4-13.6"/>
	<path class="st30" d="M1049.6,387.8c1.6-26.6,5.2-60.2-2.4-98.4c-4.4-22.2-13-46.6-24.1-68.9c-9.1-18.3-20.7-35.7-35-50.5
		c-5.4-5.6-11.3-10.9-17.7-14.7c-15.2-9-31.3-9.4-45-8.1c-4,0.4-8,0.9-11.9,1.5c-8.1,1.4-15.8,3.4-23.6,5.9c-3,1-6.4,2-10.1,2.8
		c-6.6,1.4-14,1.5-20.7-3.2c-7.5-5.2-9.5-13.5-10.1-20.7c-0.2-2.6-0.2-5.1-0.1-7.3c0.3-6.6,0.7-12.5,1.3-18.4
		c0.5-5.9,1-11.8,1.5-17.8c1.1-15,2.4-31.6-7.4-49.7c-6-11.2-16.5-22-29.3-31.2C806.7,3.2,797.6-2,788.1-5.7
		c-20-7.8-39.1-9.5-57.7-10.5c-18.2-1-36-1.7-54.4-7.1c-8.6-2.5-17.2-6.1-25.7-10.4C639.7-39,629-45.4,617.8-51.3
		s-23.1-11.1-33.6-14.2"/>
	<path class="st31" d="M1052.7,400.2c3.1-28.1,8.2-62.8,1.6-101.8c-3.8-22.7-12-47.5-23-70.1c-9-18.5-20.7-36-35.3-50.8
		c-5.5-5.6-11.5-10.8-18.1-14.6c-15.5-8.8-32-8.6-46.2-6.8c-4.2,0.5-8.2,1.2-12.2,2.1c-8.4,1.8-16.3,4.2-24.1,7.1
		c-3.1,1.2-6.6,2.4-10.3,3.3c-6.7,1.6-14.2,2-21-2.8c-7.6-5.2-9.5-13.7-9.8-21.1c-0.1-2.7,0-5.3,0.2-7.5c0.6-6.8,1.3-13,2.2-19.2
		c0.8-6.3,1.6-12.5,2.4-18.7c1.9-15.8,3.9-33.2-5.5-52c-5.8-11.6-16.2-22.8-29-32.1c-8.3-6-17.5-11.2-27.1-14.8
		c-20.2-7.7-39.7-8.9-58.6-9.4c-18.5-0.5-36.8-0.6-55.6-5.7c-8.8-2.4-17.5-5.8-26.1-10c-10.8-5.2-21.6-11.6-32.8-17.5
		c-11.3-6-23.2-11.3-33.7-14.7"/>
	<path class="st32" d="M1055.1,413.7c4.7-29.6,11.2-65.3,5.6-105.3c-3.3-23.1-11-48.3-22-71.3c-8.9-18.7-20.7-36.3-35.5-51
		c-5.6-5.6-11.7-10.8-18.4-14.4c-15.9-8.6-32.8-7.9-47.3-5.5c-4.3,0.7-8.4,1.6-12.5,2.6c-8.6,2.1-16.7,5-24.7,8.4
		c-3.1,1.3-6.7,2.7-10.5,3.7c-6.9,1.9-14.4,2.4-21.3-2.3c-7.6-5.3-9.4-13.9-9.4-21.5c0-2.8,0.1-5.4,0.5-7.8c0.9-7.1,2-13.6,3-20.1
		c1.1-6.6,2.2-13.1,3.3-19.6c2.7-16.6,5.4-34.8-3.6-54.3c-5.5-12-15.9-23.5-28.7-33C825.3,16.2,816,11,806.3,7.4
		c-20.5-7.5-40.2-8.2-59.5-8.2c-18.9,0-37.5,0.5-56.7-4.2c-9-2.2-17.8-5.5-26.6-9.6c-11-5.1-21.9-11.4-33.2-17.4
		c-11.4-6-23.2-11.6-33.8-15.3"/>
	<path class="st33" d="M1056.8,428.3c6.2-31.1,14.2-67.8,9.6-108.8c-2.7-23.6-10-49.2-20.9-72.5c-8.9-18.9-20.7-36.6-35.8-51.3
		c-5.7-5.6-11.9-10.8-18.8-14.3c-16.2-8.4-33.6-7.2-48.5-4.2c-4.4,0.9-8.6,1.9-12.8,3.1c-8.8,2.5-17.1,5.7-25.3,9.6
		c-3.2,1.5-6.8,3-10.7,4.2c-7,2.2-14.7,2.9-21.6-1.9c-7.7-5.3-9.3-14.1-9.1-21.9c0.1-2.9,0.3-5.6,0.7-8c1.2-7.4,2.6-14.2,3.9-21
		c1.4-6.9,2.8-13.7,4.1-20.6c3.4-17.4,6.9-36.4-1.7-56.5c-5.3-12.4-15.5-24.3-28.4-33.8c-8.4-6.2-17.7-11.4-27.5-14.9
		c-20.7-7.4-40.8-7.6-60.5-7c-19.3,0.5-38.3,1.7-57.9-2.7c-9.2-2-18.2-5.2-27.1-9.2c-11.1-5-22.2-11.2-33.6-17.3
		c-11.4-6.1-23.3-11.8-34-15.8"/>
	<path class="st34" d="M1057.7,444.1c7.8-32.6,17.2-70.3,13.5-112.3c-2.1-24-9-50.1-19.9-73.7c-8.8-19.1-20.7-36.9-36-51.6
		c-5.8-5.6-12.2-10.7-19.2-14.2c-16.5-8.2-34.3-6.4-49.6-2.8c-4.5,1.1-8.9,2.3-13.1,3.7c-9,2.9-17.6,6.5-25.9,10.8
		c-3.2,1.6-7,3.4-10.9,4.7c-7.1,2.4-14.9,3.3-21.9-1.4c-7.8-5.3-9.2-14.3-8.8-22.3c0.2-2.9,0.5-5.8,1-8.3c1.5-7.6,3.2-14.7,4.8-21.8
		c1.7-7.2,3.4-14.3,5-21.5c4.2-18.2,8.5-37.9,0.2-58.8c-5.1-12.8-15.2-25-28.1-34.7c-8.4-6.3-17.8-11.5-27.7-14.9
		c-20.9-7.3-41.3-7-61.4-5.9c-19.6,1.1-39.1,2.8-59-1.2c-9.4-1.8-18.5-4.9-27.6-8.8C661.8,4.2,650.6-2,639.1-8
		c-11.5-6.1-23.3-12-34.1-16.4"/>
	<path class="st35" d="M1057.8,461.2c9.3-34.1,20.2-72.9,17.5-115.8c-1.5-24.5-8-50.9-18.8-74.9c-8.7-19.3-20.7-37.2-36.3-51.9
		c-5.9-5.6-12.4-10.7-19.5-14c-16.9-8-35.1-5.7-50.7-1.5c-4.6,1.2-9.1,2.6-13.5,4.2c-9.2,3.3-18,7.3-26.5,12
		c-3.3,1.8-7.1,3.7-11.1,5.2c-7.2,2.7-15.2,3.8-22.2-1c-7.8-5.3-9.1-14.4-8.4-22.8c0.2-3,0.7-5.9,1.3-8.5c1.8-7.9,3.8-15.3,5.7-22.7
		c2-7.5,4-15,5.9-22.4c4.9-19,10-39.5,2.1-61.1c-4.8-13.2-14.9-25.7-27.8-35.6c-8.4-6.4-17.9-11.6-27.9-15
		c-21.2-7.1-41.9-6.3-62.3-4.7c-20,1.6-39.9,3.9-60.2,0.3c-9.5-1.7-18.8-4.6-28.1-8.4c-11.5-4.7-22.8-10.9-34.3-17
		c-11.6-6.2-23.4-12.2-34.2-16.9"/>
	<path class="st36" d="M1057.1,479.6c10.9-35.6,23.1-75.4,21.5-119.3c-0.9-24.9-7-51.8-17.7-76c-8.6-19.5-20.7-37.5-36.6-52.2
		c-6-5.6-12.6-10.6-19.9-13.9c-17.2-7.8-35.9-5-51.9-0.2c-4.7,1.4-9.3,3-13.8,4.7c-9.5,3.7-18.4,8.1-27.1,13.2
		c-3.4,2-7.2,4.1-11.3,5.7c-7.4,3-15.4,4.2-22.5-0.6c-7.9-5.3-9-14.6-8.1-23.2c0.3-3.1,0.9-6.1,1.6-8.8c2.1-8.1,4.4-15.8,6.6-23.6
		c2.3-7.8,4.6-15.6,6.8-23.4c5.7-19.8,11.5-41.1,4-63.4c-4.6-13.6-14.6-26.5-27.5-36.5c-8.4-6.5-17.9-11.7-28.1-15
		c-21.4-7-42.4-5.7-63.3-3.5c-20.4,2.1-40.6,5-61.3,1.8c-9.7-1.5-19.2-4.3-28.5-8c-11.6-4.6-23.1-10.7-34.7-16.9
		C633.7,14.3,621.8,8,610.9,3"/>
	<path class="st37" d="M1055.5,499.3c12.4-37.1,26.1-78,25.4-122.8c-0.4-25.4-6-52.7-16.7-77.2c-8.6-19.7-20.7-37.8-36.8-52.5
		c-6.1-5.6-12.8-10.6-20.2-13.8c-17.6-7.6-36.7-4.2-53,1.2c-4.8,1.6-9.5,3.3-14.1,5.3c-9.7,4.1-18.9,8.9-27.7,14.4
		c-3.4,2.1-7.3,4.4-11.5,6.2c-7.5,3.2-15.6,4.7-22.8-0.1c-8-5.3-9-14.8-7.8-23.6c0.4-3.2,1.1-6.3,1.9-9c2.5-8.4,5-16.4,7.5-24.4
		c2.6-8.1,5.1-16.2,7.7-24.3c6.4-20.6,13.1-42.7,5.9-65.6c-4.4-14-14.3-27.2-27.2-37.4c-8.4-6.6-18-11.8-28.3-15.1
		c-21.6-6.9-43-5.1-64.2-2.4c-20.7,2.6-41.4,6.1-62.5,3.3c-9.9-1.3-19.5-4-29-7.6c-11.8-4.5-23.4-10.5-35.1-16.8
		c-11.7-6.3-23.5-12.7-34.5-18"/>
	<path class="st38" d="M1053,520.4c14-38.6,29.1-80.5,29.4-126.3c0.2-25.8-5-53.5-15.6-78.4c-8.5-19.9-20.7-38.1-37.1-52.7
		c-6.2-5.5-13-10.5-20.6-13.7c-17.9-7.4-37.4-3.5-54.2,2.5c-4.9,1.8-9.7,3.7-14.4,5.8c-9.9,4.5-19.3,9.7-28.3,15.6
		c-3.5,2.3-7.5,4.7-11.6,6.7c-7.6,3.5-15.9,5.1-23.1,0.3c-8.1-5.4-8.9-15-7.5-24c0.5-3.3,1.3-6.4,2.2-9.3c2.8-8.6,5.6-17,8.4-25.3
		c2.9-8.4,5.7-16.8,8.6-25.2c7.2-21.3,14.6-44.3,7.8-67.9c-4.1-14.4-13.9-28-26.9-38.3c-8.4-6.7-18.1-11.9-28.5-15.1
		c-21.9-6.7-43.5-4.5-65.1-1.2c-21.1,3.1-42.2,7.2-63.6,4.8c-10.1-1.1-19.9-3.7-29.5-7.2c-12-4.4-23.7-10.4-35.4-16.6
		c-11.8-6.3-23.6-12.9-34.6-18.6"/>
	<path class="st39" d="M1045,567c17.1-41.7,35-85.6,37.3-133.3c1.3-26.8-3-55.3-13.5-80.8c-8.4-20.2-20.7-38.7-37.6-53.3
		c-6.4-5.5-13.4-10.5-21.3-13.4c-18.6-7-39-2-56.4,5.1c-5.1,2.1-10.1,4.4-15,6.9c-10.4,5.2-20.2,11.3-29.5,18.1
		c-3.6,2.6-7.7,5.4-12,7.6c-7.8,4-16.3,6-23.7,1.2c-8.2-5.4-8.7-15.4-6.8-24.8c0.7-3.4,1.7-6.7,2.8-9.8c3.4-9.1,6.8-18.1,10.2-27
		c3.5-9,6.9-18.1,10.3-27.1c8.7-22.9,17.6-47.5,11.7-72.5c-3.7-15.3-13.3-29.5-26.3-40c-8.4-6.8-18.3-12.2-28.8-15.2
		c-22.3-6.4-44.7-3.2-67,1.1c-21.8,4.2-43.7,9.5-65.9,7.7c-10.4-0.8-20.5-3.1-30.4-6.5c-12.3-4.2-24.4-10-36.2-16.4
		C635,88.2,623.2,81.3,612,74.9"/>
	<path class="st40" d="M1039.4,592.6c18.7-43.2,37.9-88.2,41.3-136.8c1.9-27.3-2-56.1-12.4-82c-8.3-20.4-20.7-39-37.9-53.6
		c-6.5-5.5-13.7-10.4-21.7-13.3c-19-6.8-39.8-1.3-57.6,6.5c-5.2,2.3-10.4,4.7-15.4,7.4c-10.6,5.6-20.6,12.1-30.1,19.3
		c-3.7,2.8-7.8,5.8-12.2,8.1c-8,4.3-16.6,6.5-24,1.6c-8.3-5.4-8.6-15.6-6.5-25.2c0.8-3.5,1.9-6.9,3.1-10c3.7-9.4,7.4-18.6,11.1-27.9
		c3.7-9.4,7.5-18.7,11.2-28.1c9.5-23.7,19.1-49.1,13.6-74.7c-3.4-15.7-13-30.2-26-40.9c-8.5-6.9-18.4-12.3-29-15.2
		c-22.6-6.3-45.2-2.6-67.9,2.3c-22.2,4.7-44.5,10.6-67,9.2c-10.6-0.6-20.9-2.8-30.9-6.1c-12.5-4.1-24.7-9.8-36.6-16.3
		c-12-6.5-23.7-13.6-35-20.2"/>
	<path class="st41" d="M1032.8,619.8c20.2-44.7,40.9-90.8,45.3-140.3c2.5-27.7-1-57-11.4-83.1c-8.2-20.6-20.7-39.3-38.1-53.9
		c-6.6-5.5-13.9-10.4-22-13.1c-19.3-6.5-40.5-0.5-58.7,7.8c-5.3,2.4-10.6,5.1-15.7,7.9c-10.8,6-21.1,12.9-30.7,20.5
		c-3.7,3-8,6.1-12.4,8.6c-8.1,4.6-16.8,6.9-24.3,2.1c-8.3-5.4-8.6-15.8-6.1-25.6c0.9-3.6,2.1-7.1,3.4-10.3c4-9.6,8-19.2,12-28.7
		c4-9.7,8.1-19.3,12.1-29c10.2-24.5,20.7-50.7,15.5-77c-3.2-16.1-12.6-30.9-25.7-41.8c-8.5-7-18.5-12.4-29.2-15.3
		c-22.8-6.2-45.8-2-68.9,3.4c-22.5,5.3-45.3,11.7-68.2,10.7c-10.8-0.4-21.2-2.5-31.4-5.7c-12.7-4-25-9.7-36.9-16.1
		c-12-6.5-23.8-13.8-35.2-20.8"/>
	<path class="st42" d="M1025,648.7c21.8-46.2,43.8-93.3,49.3-143.8c5.4-50.4-8.6-105.5-48.7-138.5c-6.7-5.5-14.1-10.3-22.4-13
		c-19.7-6.3-41.3,0.2-59.9,9.1c-17,8.1-32.9,18.3-47.3,30.2c-10.7,8.8-25.5,19.1-37.2,11.6c-11.5-7.4-7.4-24.3-2.1-36.5
		c8.6-19.8,17.2-39.7,25.9-59.5c11-25.3,22.2-52.3,17.4-79.3c-4.8-27.2-27.2-50.8-54.9-58c-45.5-11.9-91.9,18-139.1,16.8
		c-38.4-1-72.6-22.2-104.5-42.6"/>
</g>
<path class="st43" d="M301.6,895.4c21.8-46.2,43.8-93.3,49.3-143.8c5.4-50.4-8.6-105.5-48.7-138.5c-6.7-5.5-14.1-10.3-22.4-13
	c-19.7-6.3-41.3,0.2-59.9,9.1c-17,8.1-32.9,18.3-47.3,30.2c-10.7,8.8-25.5,19.1-37.2,11.6c-11.5-7.4-7.4-24.3-2.1-36.5
	c8.6-19.8,17.2-39.7,25.9-59.5c11-25.3,22.2-52.3,17.4-79.3c-4.8-27.2-27.2-50.8-54.9-58c-45.5-11.9-91.9,18-139.1,16.8
	c-38.4-1-72.6-22.2-104.5-42.6"/>
<path class="st2" d="M-366.1,185c8.3-6.2,20.5-5.9,29.8-1.3c9.4,4.6,16.3,12.7,22.1,21.1c14.7,21.7,23,46.8,34.6,70.1
	c11.7,23.4,28.2,46.2,52.9,56.7c38.5,16.4,82.4-1.7,121.8-15.9c10.3-3.7,21.3-7.2,32.2-5.5c13.9,2.1,25.2,12.6,31.7,24.7
	s9,25.6,11.7,38.9c8.8,42.8,21.5,86.6,51.3,119.6s95.3,63,167.3,36.4"/>
<g class="st44">
	<path class="st2" d="M-366.1,185c8.3-6.2,20.5-5.9,29.8-1.3c9.4,4.6,16.3,12.7,22.1,21.1c14.7,21.7,23,46.8,34.6,70.1
		c11.7,23.4,28.2,46.2,52.9,56.7c38.5,16.4,82.4-1.7,121.8-15.9c10.3-3.7,21.3-7.2,32.2-5.5c13.9,2.1,25.2,12.6,31.7,24.7
		s9,25.6,11.7,38.9c8.8,42.8,21.5,86.6,51.3,119.6s95.3,63,167.3,36.4"/>
	<path class="st45" d="M188.2,532.3c-40.4,14-78.6,9.1-109.5-4.1c-22.1-9.4-40.4-22.9-52.7-37c-11.5-13-20.5-27.5-28-42.9
		c-2.9-6-5.5-12-8-18.2c-5.8-14.5-10.4-29.2-14.2-44c-1.1-4.3-2.2-8.6-3.2-12.9c-2.2-9-4.2-18.2-7.6-26.9c-1.4-3.5-3-7-4.9-10.3
		c-3.2-5.5-7.5-10.7-12.6-15c-5.6-4.7-12-8.3-19.1-9.7c-2.7-0.5-5.4-0.7-8.2-0.6c-7.8,0.2-15.5,2.6-22.8,5s-14.8,5-22.4,7.5
		c-19.3,6.2-39.2,11.6-58.9,11.7c-12.6,0.1-25.2-2-37.4-7.3c-7.9-3.5-15.1-8.1-21.6-13.6c-13.7-11.5-24.1-26.7-32.4-42
		c-8.4-15.5-15.2-31.7-23.5-47.3c-3.8-7.2-8-14.2-12.8-20.9c-5.9-8.3-13-16.4-22.4-21s-21.6-5.2-30,0.7"/>
	<path class="st46" d="M188,534.4c-38.9,12.5-75.5,6.4-105.6-7.5c-21.4-10-39.3-23.9-51.7-38.3c-11.4-13.2-20.5-27.8-28.2-43.2
		c-3-5.9-5.7-12-8.3-18c-6.1-14.3-11.1-28.5-15.3-42.6c-1.2-4.1-2.4-8.3-3.5-12.4c-2.4-8.7-4.6-17.4-8.2-25.7
		c-1.4-3.4-3.1-6.7-5.1-9.8c-3.3-5.2-7.8-10.2-12.9-14.6c-5.7-4.8-11.9-8.5-18.7-10.1c-2.6-0.6-5.2-0.8-7.9-0.8
		c-7.5,0-14.9,2-21.9,4.2c-7,2.1-14.3,4.4-21.5,6.5c-18.5,5.4-37.7,10-57,9.4c-12.4-0.3-24.9-2.7-37.1-8.2
		c-8-3.6-15.2-8.2-21.8-13.6c-13.9-11.4-24.7-26-33.4-40.8c-8.7-14.9-15.9-30.6-24.6-45.8c-4-7-8.3-13.9-13.2-20.5
		c-6.1-8.2-13.3-16.2-22.8-20.9s-21.7-5.4-30.1,0.2"/>
	<path class="st47" d="M188.6,536.2c-37.3,11-72.4,3.7-101.6-11c-20.7-10.5-38.3-24.7-50.6-39.4c-11.3-13.4-20.5-28.1-28.5-43.4
		c-3.1-5.9-5.9-12-8.7-17.9c-6.5-14.1-11.9-27.8-16.5-41.3c-1.3-4-2.6-7.9-3.9-11.9c-2.6-8.3-5.1-16.6-8.8-24.4
		c-1.5-3.2-3.2-6.3-5.3-9.4c-3.4-5-8-9.8-13.2-14.1c-5.7-4.8-11.8-8.7-18.4-10.5c-2.5-0.7-5.1-1-7.6-1.1c-7.2-0.2-14.3,1.5-21.1,3.3
		c-6.8,1.8-13.7,3.8-20.7,5.6c-17.8,4.7-36.1,8.4-55.1,7.1c-12.2-0.8-24.6-3.5-36.8-9.1c-8-3.6-15.3-8.3-22-13.7
		c-14.1-11.3-25.2-25.4-34.3-39.7c-9.1-14.4-16.7-29.5-25.8-44.4c-4.2-6.8-8.7-13.6-13.7-20.2c-6.3-8.1-13.6-16-23.2-20.7
		s-21.7-5.6-30.2-0.4"/>
	<path class="st48" d="M190,537.7c-35.8,9.5-69.3,1.1-97.6-14.5c-20-11-37.3-25.6-49.5-40.6c-11.2-13.6-20.5-28.4-28.8-43.7
		c-3.2-5.9-6.2-11.9-9-17.8c-6.8-13.9-12.7-27-17.6-40c-1.5-3.8-2.8-7.6-4.2-11.3c-2.8-7.9-5.5-15.8-9.4-23.2c-1.6-3-3.4-6-5.5-8.9
		c-3.6-4.7-8.2-9.3-13.5-13.7c-5.8-4.8-11.7-8.9-18.1-10.9c-2.4-0.8-4.9-1.2-7.3-1.3c-6.9-0.5-13.7,0.9-20.2,2.4s-13.1,3.1-19.8,4.7
		c-17,3.9-34.6,6.7-53.2,4.8c-11.9-1.2-24.2-4.2-36.5-10c-8-3.7-15.4-8.5-22.1-13.7c-14.4-11.1-25.8-24.7-35.2-38.5
		c-9.5-13.9-17.5-28.4-26.9-42.9c-4.4-6.6-9-13.3-14.2-19.8c-6.4-8-13.9-15.9-23.6-20.6c-9.6-4.8-21.8-5.8-30.4-0.9"/>
	<path class="st49" d="M192.1,539c-34.2,8-66.1-1.6-93.7-18c-19.4-11.6-36.3-26.5-48.5-41.7c-11.1-13.8-20.5-28.7-29-44
		c-3.3-5.9-6.4-11.9-9.4-17.6C4.3,404-2,391.4-7.3,379.1c-1.6-3.6-3.1-7.2-4.5-10.8c-3-7.5-6-15-10-22c-1.6-2.9-3.5-5.7-5.7-8.4
		c-3.7-4.5-8.5-8.9-13.8-13.2c-5.9-4.8-11.6-9.1-17.7-11.3c-2.3-0.8-4.7-1.3-7-1.6c-6.6-0.7-13.1,0.3-19.3,1.6
		c-6.2,1.2-12.5,2.5-18.9,3.7c-16.3,3.1-33,5.1-51.3,2.6c-11.7-1.6-23.9-5-36.2-10.8c-8-3.8-15.4-8.6-22.3-13.8
		c-14.6-11-26.4-24.1-36.2-37.3c-9.9-13.3-18.2-27.3-28.1-41.4c-4.5-6.5-9.3-13-14.7-19.4c-6.6-7.9-14.2-15.7-23.9-20.5
		c-9.7-4.8-21.8-6-30.5-1.5"/>
	<path class="st50" d="M195,540.1c-32.6,6.5-63-4.2-89.7-21.5c-18.7-12.1-35.2-27.4-47.4-42.9c-11-14-20.6-29-29.3-44.3
		c-3.4-5.9-6.6-11.8-9.8-17.5c-7.5-13.5-14.2-25.6-19.9-37.3c-1.7-3.4-3.3-6.9-4.8-10.2c-3.3-7.1-6.4-14.2-10.5-20.8
		c-1.7-2.7-3.6-5.3-5.9-7.9c-3.8-4.2-8.7-8.4-14.1-12.8c-6-4.8-11.5-9.3-17.4-11.7c-2.3-0.9-4.5-1.5-6.7-1.8
		c-6.3-1-12.5-0.2-18.4,0.7c-5.9,0.9-11.9,1.9-18,2.8c-15.5,2.3-31.5,3.5-49.4,0.3c-11.4-2.1-23.6-5.7-35.9-11.7
		c-8-3.9-15.5-8.7-22.5-13.8c-14.8-10.9-26.9-23.5-37.1-36.2c-10.2-12.8-19-26.2-29.2-39.9c-4.7-6.3-9.7-12.7-15.2-19
		c-6.8-7.8-14.5-15.5-24.3-20.4s-21.9-6.3-30.6-2"/>
	<path class="st51" d="M198.4,541.1c-31.1,5-59.8-6.8-85.7-25c-18-12.6-34.2-28.2-46.4-44.1c-10.9-14.2-20.6-29.3-29.5-44.6
		c-3.5-5.9-6.8-11.8-10.1-17.4c-7.9-13.3-15-24.8-21.1-36c-1.8-3.3-3.5-6.5-5.1-9.7c-3.5-6.7-6.8-13.4-11.1-19.6
		c-1.8-2.5-3.7-5-6.1-7.4c-3.9-4-9-8-14.4-12.4c-6-4.8-11.5-9.5-17.1-12.1c-2.2-1-4.3-1.7-6.4-2.1c-6-1.2-11.9-0.8-17.5-0.2
		c-5.6,0.6-11.3,1.3-17.1,1.9c-14.8,1.5-30,1.9-47.5-2c-11.2-2.5-23.3-6.5-35.6-12.6c-8-4-15.6-8.8-22.7-13.9
		c-15.1-10.7-27.5-22.8-38-35c-10.6-12.2-19.8-25.1-30.4-38.4c-4.9-6.1-10-12.4-15.6-18.6c-7-7.7-14.9-15.3-24.7-20.2
		c-9.8-4.9-22-6.5-30.8-2.6"/>
	<path class="st52" d="M202.5,542c-29.5,3.5-56.7-9.5-81.8-28.5c-17.3-13.1-33.2-29.1-45.3-45.3c-10.8-14.4-20.6-29.6-29.8-44.9
		c-3.5-5.9-7-11.7-10.5-17.3C27,393,19.4,382,13,371.5c-1.9-3.1-3.7-6.2-5.5-9.2c-3.7-6.3-7.3-12.6-11.7-18.4
		c-1.8-2.4-3.9-4.7-6.3-6.9c-4-3.7-9.2-7.5-14.7-11.9c-6.1-4.9-11.4-9.7-16.7-12.5c-2.1-1.1-4.1-1.8-6.1-2.3
		c-5.7-1.5-11.3-1.3-16.6-1s-10.7,0.6-16.2,0.9c-14,0.7-28.4,0.3-45.6-4.2c-10.9-2.9-23-7.2-35.3-13.5c-8-4.1-15.7-8.9-22.9-13.9
		c-15.3-10.6-28.1-22.2-39-33.8c-11-11.7-20.5-24-31.5-36.9c-5.1-6-10.4-12.1-16.1-18.2c-7.1-7.6-15.2-15.2-25-20.1
		c-9.9-5-22-6.7-30.9-3.1"/>
	<path class="st53" d="M207.1,542.9c-28,2-53.5-12.1-77.8-32c-16.6-13.6-32.2-30-44.2-46.5c-10.7-14.6-20.6-29.9-30.1-45.1
		c-3.6-5.9-7.2-11.7-10.8-17.1c-8.6-12.9-16.5-23.4-23.3-33.3c-2-2.9-3.9-5.8-5.8-8.6c-3.9-6-7.7-11.8-12.3-17.1
		c-1.9-2.2-4-4.3-6.5-6.4c-4.2-3.5-9.4-7.1-15-11.5c-6.2-4.9-11.3-9.9-16.4-12.9c-2-1.2-3.9-2-5.8-2.6c-5.4-1.7-10.7-1.9-15.7-1.9
		s-10.1,0-15.3,0c-13.2-0.1-26.9-1.3-43.7-6.5c-10.7-3.3-22.6-7.9-35-14.4c-8-4.2-15.8-9-23.1-13.9c-15.5-10.4-28.6-21.5-39.9-32.7
		s-21.3-22.8-32.7-35.4c-5.2-5.8-10.7-11.8-16.6-17.8c-7.3-7.4-15.5-15-25.4-20c-10-5-22.1-6.9-31-3.7"/>
	<path class="st54" d="M212.2,543.8c-26.4,0.5-50.4-14.7-73.8-35.5c-15.9-14.1-31.2-30.9-43.2-47.7c-10.6-14.8-20.6-30.3-30.3-45.4
		c-3.7-5.9-7.4-11.7-11.2-17c-8.9-12.7-17.3-22.6-24.5-32c-2.1-2.8-4.1-5.5-6.1-8.1c-4.2-5.6-8.1-11-12.9-15.9c-1.9-2-4.1-4-6.7-6
		c-4.3-3.3-9.7-6.6-15.3-11.1C-18,320.2-23,315-27.9,311.8c-1.9-1.2-3.7-2.1-5.5-2.8c-5.1-2-10.1-2.4-14.8-2.8
		c-4.7-0.3-9.6-0.6-14.5-0.9c-12.5-0.9-25.3-2.9-41.8-8.8c-10.4-3.7-22.3-8.7-34.7-15.3c-8.1-4.3-15.9-9.1-23.3-14
		c-15.8-10.3-29.2-20.9-40.8-31.5c-11.7-10.6-22.1-21.7-33.8-33.9c-5.4-5.6-11-11.5-17.1-17.4c-7.5-7.3-15.8-14.8-25.8-19.9
		c-10-5.1-22.1-7.2-31.2-4.2"/>
	<path class="st55" d="M217.7,544.7c-24.9-1-47.2-17.3-69.8-39c-15.3-14.6-30.2-31.8-42.1-48.8c-10.5-15-20.6-30.6-30.6-45.7
		c-3.8-5.8-7.7-11.6-11.6-16.9c-9.2-12.5-18.1-21.9-25.6-30.7c-2.2-2.6-4.3-5.1-6.4-7.6c-4.4-5.2-8.6-10.2-13.5-14.7
		c-2-1.8-4.2-3.7-6.9-5.5c-4.4-3-9.9-6.2-15.6-10.6c-6.3-4.9-11.1-10.3-15.7-13.8c-1.8-1.3-3.5-2.3-5.2-3.1c-4.8-2.2-9.5-3-13.9-3.6
		s-9-1.2-13.6-1.9c-11.7-1.6-23.8-4.5-39.9-11.1c-10.2-4.2-22-9.4-34.4-16.2c-8.1-4.4-16-9.2-23.5-14c-16-10.2-29.7-20.3-41.8-30.3
		c-12.1-10.1-22.8-20.6-35-32.4c-5.6-5.5-11.4-11.2-17.5-17c-7.7-7.2-16.1-14.7-26.2-19.8s-22.2-7.4-31.3-4.8"/>
	<path class="st56" d="M223.6,545.9c-23.3-2.5-44.1-19.9-65.9-42.5c-14.6-15.1-29.1-32.6-41.1-50c-10.4-15.2-20.6-30.9-30.8-46
		c-3.9-5.8-7.9-11.6-11.9-16.7c-9.6-12.3-18.9-21.1-26.8-29.4c-2.3-2.4-4.6-4.8-6.7-7c-4.6-4.8-9-9.4-14.1-13.5
		c-2.1-1.7-4.4-3.4-7-5c-4.5-2.8-10.1-5.7-15.9-10.2c-6.4-4.9-11-10.5-15.4-14.2c-1.7-1.4-3.3-2.5-4.9-3.3c-4.5-2.5-8.9-3.5-13-4.5
		s-8.4-1.8-12.7-2.8c-11-2.4-22.2-6.1-38-13.3c-9.9-4.6-21.7-10.2-34.1-17c-8.1-4.5-16-9.3-23.7-14.1c-16.2-10-30.3-19.6-42.7-29.2
		c-12.4-9.6-23.6-19.5-36.1-31c-5.8-5.3-11.7-10.9-18-16.6c-7.8-7.1-16.4-14.5-26.5-19.6c-10.2-5.2-22.2-7.6-31.4-5.3"/>
	<path class="st57" d="M229.8,547.4c-21.8-4-40.9-22.4-61.9-46c-13.9-15.6-28.1-33.5-40-51.2c-10.3-15.4-20.6-31.2-31.1-46.3
		c-4-5.8-8.1-11.5-12.3-16.6c-9.9-12.1-19.6-20.4-27.9-28c-2.4-2.2-4.8-4.4-7.1-6.5c-4.8-4.4-9.4-8.6-14.7-12.3
		c-2.1-1.5-4.5-3-7.2-4.5c-4.7-2.5-10.4-5.3-16.2-9.7c-6.4-5-10.8-10.7-15-14.6c-1.6-1.5-3.1-2.6-4.6-3.6c-4.2-2.7-8.3-4.1-12.1-5.4
		s-7.8-2.5-11.8-3.7c-10.2-3.2-20.7-7.7-36-15.6c-9.7-5-21.3-10.9-33.8-17.9c-8.1-4.6-16.1-9.4-23.9-14.1c-16.5-9.9-30.8-19-43.6-28
		s-24.4-18.4-37.2-29.5c-6-5.1-12.1-10.6-18.5-16.2c-8-7-16.7-14.3-26.9-19.5s-22.3-7.8-31.6-5.9"/>
	<path class="st58" d="M236.3,549.1c-20.2-5.5-37.8-25-57.9-49.5c-13.2-16-27.1-34.4-38.9-52.4c-10.3-15.6-20.6-31.5-31.4-46.5
		c-4.1-5.8-8.3-11.5-12.7-16.5c-10.3-11.9-20.4-19.7-29-26.7c-2.5-2.1-5-4.1-7.4-6c-5-4-9.9-7.8-15.3-11.1c-2.2-1.3-4.6-2.7-7.4-4
		c-4.8-2.3-10.6-4.8-16.5-9.3c-6.5-5-10.8-10.9-14.7-15c-1.5-1.6-2.9-2.8-4.3-3.8c-3.9-3-7.7-4.7-11.2-6.2
		c-3.6-1.6-7.2-3.1-10.9-4.7c-9.5-4-19.2-9.3-34.1-17.9c-9.4-5.4-21-11.6-33.5-18.8c-8.1-4.7-16.2-9.5-24.1-14.2
		c-16.7-9.7-31.4-18.3-44.6-26.8c-13.1-8.5-25.1-17.3-38.4-28c-6.1-4.9-12.4-10.3-19-15.8c-8.2-6.9-17-14.1-27.3-19.4
		c-10.3-5.3-22.3-8-31.7-6.4"/>
	<path class="st59" d="M243.1,551.3c-18.7-7.1-34.6-27.5-54-52.9c-12.6-16.5-26.1-35.3-37.9-53.6C141,429,130.6,413,119.6,398
		c-4.2-5.8-8.5-11.4-13-16.4C96,370,85.4,362.7,76.4,356.2c-2.6-1.9-5.2-3.7-7.7-5.4c-5.3-3.6-10.3-7-15.9-9.9
		c-2.2-1.2-4.7-2.4-7.6-3.5c-4.9-2-10.9-4.4-16.8-8.9c-6.6-5-10.7-11.1-14.4-15.4c-1.4-1.6-2.8-3-4-4.1c-3.6-3.2-7.1-5.2-10.3-7.1
		c-3.3-1.9-6.6-3.7-10-5.6c-8.7-4.8-17.6-10.9-32.2-20.2c-9.2-5.8-20.7-12.4-33.2-19.7c-8.1-4.7-16.3-9.7-24.3-14.2
		c-16.9-9.6-31.9-17.7-45.5-25.7c-13.5-7.9-25.9-16.2-39.5-26.5c-6.3-4.8-12.7-10-19.5-15.5c-8.3-6.8-17.3-14-27.6-19.3
		c-10.4-5.3-22.4-8.3-31.8-7"/>
	<path class="st60" d="M250,553.8c-17.1-8.6-31.5-30.1-50-56.4c-11.9-17-25.1-36.1-36.8-54.8c-10.1-16-20.6-32.1-31.9-47.1
		c-4.3-5.8-8.7-11.4-13.4-16.2c-11-11.4-22-18.2-31.3-24.1c-2.8-1.7-5.4-3.4-8-4.9c-5.5-3.3-10.7-6.2-16.5-8.6c-2.3-1-4.9-2-7.8-3.1
		c-5-1.8-11.1-3.9-17.1-8.4c-6.7-5-10.6-11.2-14.1-15.8c-1.3-1.7-2.6-3.1-3.7-4.3c-3.3-3.5-6.5-5.8-9.5-8s-6-4.3-9.1-6.6
		c-7.9-5.6-16.1-12.5-30.3-22.4c-8.9-6.2-20.4-13.1-32.9-20.6c-8.1-4.8-16.4-9.8-24.5-14.2c-17.2-9.5-32.5-17.1-46.4-24.5
		s-26.7-15.1-40.7-25c-6.5-4.6-13.1-9.7-19.9-15.1c-8.5-6.7-17.6-13.8-28-19.1c-10.4-5.4-22.5-8.5-32-7.5"/>
	<path class="st61" d="M257,556.8c-15.5-10.1-28.4-32.6-46-59.9c-11.2-17.4-24.1-37-35.8-55.9c-10-16.2-20.6-32.4-32.1-47.4
		c-4.4-5.8-8.9-11.4-13.7-16.1c-11.3-11.2-22.7-17.5-32.5-22.7c-2.9-1.5-5.6-3-8.3-4.4c-5.7-2.9-11.2-5.4-17.1-7.4
		c-2.4-0.8-5-1.7-8-2.6c-5.2-1.5-11.3-3.5-17.4-8c-6.7-5-10.5-11.4-13.8-16.2c-1.2-1.8-2.4-3.3-3.4-4.6c-3-3.7-5.9-6.3-8.6-8.8
		s-5.4-5-8.3-7.5c-7.2-6.4-14.5-14.1-28.4-24.7c-8.7-6.6-20.1-13.9-32.6-21.5c-8.2-4.9-16.5-9.9-24.7-14.3
		c-17.4-9.3-33.1-16.4-47.4-23.4c-14.2-6.9-27.5-14-41.8-23.5c-6.7-4.4-13.4-9.4-20.4-14.7c-8.7-6.5-17.9-13.6-28.4-19
		s-22.5-8.7-32.1-8.1"/>
	<path class="st62" d="M264.1,560.4c-14-11.6-25.3-35.1-42.1-63.4c-10.6-17.9-23.1-37.9-34.7-57.1c-9.9-16.4-20.6-32.7-32.4-47.7
		c-4.5-5.8-9.2-11.3-14.1-16c-11.7-11-23.5-16.7-33.6-21.4c-3-1.4-5.9-2.6-8.7-3.8c-5.9-2.5-11.6-4.6-17.6-6.2
		c-2.4-0.7-5.1-1.4-8.2-2.1c-5.3-1.2-11.6-3-17.7-7.6c-6.8-5-10.4-11.6-13.4-16.6c-1.1-1.9-2.2-3.4-3.1-4.8c-2.7-4-5.3-6.9-7.7-9.7
		c-2.4-2.8-4.9-5.6-7.4-8.4c-6.4-7.2-13-15.7-26.5-27c-8.4-7.1-19.7-14.6-32.3-22.3c-8.2-5-16.6-10-24.9-14.3
		c-17.6-9.2-33.6-15.8-48.3-22.2c-14.6-6.3-28.2-12.9-43-22c-6.8-4.3-13.8-9.1-20.9-14.3c-8.9-6.4-18.2-13.5-28.8-18.9
		c-10.6-5.5-22.6-8.9-32.2-8.6"/>
	<path class="st63" d="M271.2,564.5c-12.4-13.1-22.2-37.6-38.1-66.9c-9.9-18.3-22.1-38.8-33.6-58.3c-9.8-16.6-20.6-33-32.7-47.9
		c-4.6-5.7-9.4-11.3-14.5-15.8c-12-10.8-24.3-16-34.8-20.1c-3.1-1.2-6.1-2.3-9-3.3c-6.1-2.1-12-3.8-18.2-5c-2.5-0.5-5.3-1-8.4-1.6
		c-5.4-1-11.8-2.6-18-7.1c-6.9-5.1-10.3-11.8-13.1-17c-1-1.9-2-3.6-2.8-5.1c-2.4-4.3-4.7-7.5-6.8-10.6s-4.3-6.2-6.5-9.4
		c-5.7-7.9-11.4-17.3-24.6-29.3c-8.2-7.5-19.4-15.4-32-23.2c-8.2-5.1-16.6-10.1-25.1-14.4c-17.9-9.1-34.2-15.2-49.2-21
		c-14.9-5.8-29-11.7-44.1-20.5c-7-4.1-14.1-8.8-21.4-13.9c-9-6.3-18.5-13.3-29.1-18.8s-22.6-9.1-32.4-9.2"/>
	<path class="st64" d="M278.3,569.2c-10.9-14.6-19.1-40.2-34.1-70.4c-9.3-18.7-21-39.6-32.6-59.5c-9.7-16.8-20.6-33.3-32.9-48.2
		c-4.7-5.7-9.6-11.2-14.8-15.7c-12.4-10.6-25.1-15.3-35.9-18.7c-3.2-1-6.3-1.9-9.3-2.8c-6.4-1.7-12.4-3-18.8-3.8
		c-2.5-0.3-5.4-0.7-8.6-1.1c-5.6-0.7-12.1-2.1-18.3-6.7c-6.9-5.1-10.2-12-12.8-17.4c-0.9-2-1.8-3.8-2.5-5.3c-2.1-4.5-4.1-8-5.9-11.4
		c-1.8-3.4-3.7-6.8-5.6-10.3c-4.9-8.7-9.9-18.9-22.7-31.5c-8-7.9-19.1-16.1-31.7-24.1c-8.2-5.2-16.7-10.2-25.3-14.4
		c-18.1-8.9-34.7-14.5-50.2-19.9c-15.3-5.3-29.8-10.6-45.3-19c-7.2-3.9-14.4-8.5-21.8-13.5c-9.2-6.2-18.8-13.1-29.5-18.6
		s-22.7-9.4-32.5-9.7"/>
	<path class="st65" d="M285.3,574.6c-9.3-16.1-16-42.7-30.1-73.9c-8.7-19.2-20-40.5-31.5-60.7c-9.7-17-20.6-33.6-33.2-48.5
		c-4.8-5.7-9.8-11.2-15.2-15.6c-12.7-10.4-25.8-14.5-37-17.4c-3.3-0.8-6.5-1.6-9.6-2.2c-6.6-1.3-12.9-2.2-19.4-2.6
		c-2.6-0.2-5.5-0.4-8.8-0.6c-5.7-0.5-12.3-1.6-18.6-6.2c-7-5.1-10.1-12.2-12.4-17.8c-0.8-2.1-1.6-3.9-2.2-5.5
		c-1.8-4.8-3.5-8.6-5-12.3c-1.5-3.8-3.1-7.5-4.7-11.2c-4.2-9.5-8.4-20.5-20.8-33.8c-7.7-8.3-18.8-16.8-31.4-25
		c-8.2-5.3-16.8-10.3-25.5-14.5c-18.4-8.8-35.3-13.9-51.1-18.7c-15.7-4.7-30.6-9.5-46.4-17.6c-7.4-3.7-14.8-8.2-22.3-13.1
		c-9.4-6.1-19.1-12.9-29.9-18.5c-10.8-5.6-22.7-9.6-32.6-10.3"/>
	<path class="st66" d="M292.1,580.7c-7.8-17.6-12.9-45.2-26.2-77.4c-8.1-19.6-19-41.4-30.5-61.8c-9.6-17.2-20.6-33.9-33.4-48.8
		c-4.9-5.7-10-11.1-15.5-15.5c-13.1-10.2-26.6-13.8-38.2-16.1c-3.4-0.7-6.7-1.2-9.9-1.7c-6.8-0.9-13.3-1.4-20-1.4
		c-2.6,0-5.7,0-9-0.1c-5.8-0.2-12.5-1.2-18.9-5.8c-7.1-5.1-10.1-12.4-12.1-18.3c-0.8-2.2-1.4-4.1-1.9-5.8c-1.5-5-2.9-9.1-4.1-13.2
		s-2.5-8.1-3.8-12.2c-3.4-10.3-6.8-22.1-18.9-36.1c-7.5-8.7-18.4-17.6-31.1-25.9c-8.2-5.4-16.9-10.4-25.7-14.5
		c-18.6-8.6-35.8-13.3-52-17.5c-16-4.2-31.3-8.4-47.6-16.1c-7.6-3.6-15.1-7.9-22.8-12.7c-9.6-6-19.5-12.8-30.2-18.4
		c-10.8-5.6-22.8-9.8-32.8-10.8"/>
	<path class="st67" d="M298.8,587.5c-6.2-19.1-9.9-47.7-22.2-80.9c-7.4-20-18-42.2-29.4-63c-9.5-17.4-20.6-34.2-33.7-49.1
		c-5-5.7-10.2-11.1-15.9-15.3c-13.4-10-27.4-13-39.3-14.8c-3.5-0.5-6.9-0.9-10.3-1.2c-7-0.6-13.7-0.6-20.6-0.1
		c-2.7,0.2-5.8,0.3-9.2,0.3c-6,0-12.8-0.7-19.2-5.4c-7.1-5.1-10-12.6-11.8-18.7c-0.7-2.2-1.2-4.3-1.6-6c-1.2-5.3-2.3-9.7-3.2-14
		c-0.9-4.4-1.9-8.7-2.9-13.1c-2.6-11.1-5.3-23.6-17-38.4c-7.2-9.1-18.1-18.3-30.8-26.8c-8.2-5.5-17-10.5-25.9-14.5
		c-18.8-8.5-36.4-12.6-53-16.4c-16.4-3.7-32.1-7.3-48.7-14.6c-7.7-3.4-15.5-7.6-23.3-12.3c-9.7-5.9-19.8-12.6-30.6-18.3
		c-10.9-5.7-22.8-10-32.9-11.4"/>
	<path class="st68" d="M305.2,595.1c-4.7-20.6-6.8-50.2-18.2-84.4c-6.8-20.5-17-43.1-28.3-64.2c-9.4-17.6-20.6-34.5-34-49.4
		c-5.1-5.7-10.4-11.1-16.3-15.2c-13.8-9.8-28.2-12.3-40.5-13.4c-3.6-0.3-7.1-0.5-10.6-0.6c-7.3-0.2-14.1,0.2-21.2,1.1
		c-2.8,0.3-5.9,0.7-9.3,0.8c-6.1,0.3-13-0.3-19.5-4.9c-7.2-5.1-9.9-12.7-11.4-19.1c-0.6-2.3-1-4.4-1.3-6.3
		c-0.9-5.6-1.7-10.3-2.3-14.9c-0.7-4.7-1.3-9.3-2.1-14c-1.9-11.9-3.8-25.2-15.1-40.6c-7-9.5-17.8-19.1-30.5-27.6
		c-8.3-5.6-17.1-10.6-26.1-14.6c-19.1-8.4-36.9-12-53.9-15.2c-16.7-3.1-32.9-6.2-49.8-13.1c-7.9-3.2-15.8-7.3-23.8-11.9
		c-9.9-5.8-20.1-12.4-31-18.1c-11-5.7-22.9-10.2-33-12"/>
	<path class="st69" d="M311.3,603.6c-3.1-22.1-3.8-52.7-14.3-87.9c-6.2-20.9-16-44-27.3-65.4c-9.3-17.7-20.6-34.8-34.2-49.6
		c-5.2-5.7-10.7-11-16.6-15.1c-14.1-9.6-28.9-11.6-41.6-12.1c-3.7-0.2-7.4-0.2-10.9-0.1c-7.5,0.2-14.6,1-21.8,2.3
		c-2.8,0.5-6.1,1-9.5,1.3c-6.2,0.6-13.2,0.2-19.8-4.5c-7.3-5.2-9.8-12.9-11.1-19.5c-0.5-2.4-0.8-4.6-1-6.5
		c-0.6-5.8-1.1-10.8-1.4-15.8c-0.4-5-0.7-10-1.2-15c-1.1-12.7-2.2-26.8-13.1-42.9c-6.7-9.9-17.5-19.8-30.2-28.5
		c-8.3-5.7-17.2-10.7-26.3-14.6c-19.3-8.2-37.5-11.4-54.9-14c-17.1-2.6-33.7-5.1-51-11.6c-8.1-3.1-16.1-7-24.2-11.5
		c-10.1-5.6-20.4-12.3-31.4-18c-11-5.8-23-10.5-33.2-12.5"/>
	<path class="st70" d="M317.1,613c-1.5-23.6-0.8-55.2-10.3-91.4c-5.6-21.3-15-44.8-26.2-66.6c-9.3-17.9-20.6-35.1-34.5-49.9
		c-5.3-5.7-10.9-11-17-14.9c-14.5-9.4-29.7-10.8-42.7-10.8c-3.8,0-7.6,0.2-11.2,0.4c-7.7,0.6-15,1.8-22.4,3.5
		c-2.9,0.7-6.2,1.3-9.7,1.8c-6.4,0.8-13.5,0.6-20.1-4.1c-7.4-5.2-9.7-13.1-10.8-19.9c-0.4-2.5-0.6-4.8-0.7-6.8
		c-0.3-6.1-0.5-11.4-0.5-16.6c-0.1-5.3-0.1-10.6-0.3-15.9c-0.4-13.5-0.7-28.4-11.2-45.2c-6.5-10.3-17.2-20.5-29.9-29.4
		c-8.3-5.7-17.3-10.9-26.5-14.7c-19.5-8.1-38-10.7-55.8-12.9c-17.5-2.1-34.4-3.9-52.1-10.1c-8.3-2.9-16.5-6.7-24.7-11.2
		c-10.3-5.5-20.7-12.1-31.7-17.9c-11.1-5.8-23-10.7-33.3-13.1"/>
	<path class="st71" d="M322.3,623.3c0-25.1,2.2-57.7-6.3-94.9c-5-21.8-14-45.7-25.2-67.8c-9.2-18.1-20.7-35.4-34.7-50.2
		c-5.3-5.6-11.1-10.9-17.4-14.8c-14.8-9.2-30.5-10.1-43.9-9.5c-3.9,0.2-7.8,0.5-11.5,1c-7.9,1-15.4,2.6-23,4.7
		c-2.9,0.8-6.3,1.7-9.9,2.3c-6.5,1.1-13.7,1.1-20.4-3.6c-7.4-5.2-9.6-13.3-10.4-20.3c-0.3-2.6-0.4-4.9-0.4-7
		c0-6.3,0.1-11.9,0.4-17.5c0.2-5.6,0.4-11.2,0.6-16.8c0.4-14.3,0.8-30-9.3-47.5c-6.3-10.7-16.8-21.3-29.6-30.3
		c-8.3-5.8-17.3-11-26.7-14.7c-19.8-8-38.6-10.1-56.7-11.7c-17.8-1.6-35.2-2.8-53.3-8.6c-8.5-2.7-16.8-6.4-25.2-10.8
		c-10.4-5.4-21-11.9-32.1-17.8c-11.2-5.9-23.1-10.9-33.4-13.6"/>
	<path class="st72" d="M326.2,634.6c1.6-26.6,5.2-60.2-2.4-98.4c-4.4-22.2-13-46.6-24.1-68.9c-9.1-18.3-20.7-35.7-35-50.5
		c-5.4-5.6-11.3-10.9-17.7-14.7c-15.2-9-31.3-9.4-45-8.1c-4,0.4-8,0.9-11.9,1.5c-8.1,1.4-15.8,3.4-23.6,5.9c-3,1-6.4,2-10.1,2.8
		c-6.6,1.4-14,1.5-20.7-3.2c-7.5-5.2-9.5-13.5-10.1-20.7c-0.2-2.6-0.2-5.1-0.1-7.3c0.3-6.6,0.7-12.5,1.3-18.4
		c0.5-5.9,1-11.8,1.5-17.8c1.1-15,2.4-31.6-7.4-49.7c-6-11.2-16.5-22-29.3-31.2c-8.3-5.9-17.4-11.1-26.9-14.8
		c-20-7.8-39.1-9.5-57.7-10.5c-18.2-1-36-1.7-54.4-7.1c-8.6-2.5-17.2-6.1-25.7-10.4c-10.6-5.3-21.3-11.7-32.5-17.6
		c-11.2-5.9-23.1-11.1-33.6-14.2"/>
	<path class="st73" d="M329.4,647c3.1-28.1,8.2-62.8,1.6-101.8c-3.8-22.7-12-47.5-23-70.1c-9-18.5-20.7-36-35.3-50.8
		c-5.5-5.6-11.5-10.8-18.1-14.6c-15.5-8.8-32-8.6-46.2-6.8c-4.2,0.5-8.2,1.2-12.2,2.1c-8.4,1.8-16.3,4.2-24.1,7.1
		c-3.1,1.2-6.6,2.4-10.3,3.3c-6.7,1.6-14.2,2-21-2.8c-7.6-5.2-9.5-13.7-9.8-21.1c-0.1-2.7,0-5.3,0.2-7.5c0.6-6.8,1.3-13,2.2-19.2
		c0.8-6.3,1.6-12.5,2.4-18.7c1.9-15.8,3.9-33.2-5.5-52c-5.8-11.6-16.2-22.8-29-32.1c-8.3-6-17.5-11.2-27.1-14.8
		c-20.2-7.7-39.7-8.9-58.6-9.4c-18.5-0.5-36.8-0.6-55.6-5.7c-8.8-2.4-17.5-5.8-26.1-10C-77,217-87.8,210.6-99,204.6
		c-11.3-6-23.2-11.3-33.7-14.7"/>
	<path class="st74" d="M331.8,660.5c4.7-29.6,11.2-65.3,5.6-105.3c-3.3-23.1-11-48.3-22-71.3c-8.9-18.7-20.7-36.3-35.5-51
		c-5.6-5.6-11.7-10.8-18.4-14.4c-15.9-8.6-32.8-7.9-47.3-5.5c-4.3,0.7-8.4,1.6-12.5,2.6c-8.6,2.1-16.7,5-24.7,8.4
		c-3.1,1.3-6.7,2.7-10.5,3.7c-6.9,1.9-14.4,2.4-21.3-2.3c-7.6-5.3-9.4-13.9-9.4-21.5c0-2.8,0.1-5.4,0.5-7.8c0.9-7.1,2-13.6,3-20.1
		c1.1-6.6,2.2-13.1,3.3-19.6c2.7-16.6,5.4-34.8-3.6-54.3c-5.5-12-15.9-23.5-28.7-33C102,263,92.7,257.8,83,254.2
		c-20.5-7.5-40.2-8.2-59.5-8.2c-18.9,0-37.5,0.5-56.7-4.2c-9-2.2-17.8-5.5-26.6-9.6c-11-5.1-21.9-11.4-33.2-17.4
		c-11.4-6-23.2-11.6-33.8-15.3"/>
	<path class="st75" d="M333.5,675.1c6.2-31.1,14.2-67.8,9.6-108.8c-2.7-23.6-10-49.2-20.9-72.5c-8.9-18.9-20.7-36.6-35.8-51.3
		c-5.7-5.6-11.9-10.8-18.8-14.3c-16.2-8.4-33.6-7.2-48.5-4.2c-4.4,0.9-8.6,1.9-12.8,3.1c-8.8,2.5-17.1,5.7-25.3,9.6
		c-3.2,1.5-6.8,3-10.7,4.2c-7,2.2-14.7,2.9-21.6-1.9c-7.7-5.3-9.3-14.1-9.1-21.9c0.1-2.9,0.3-5.6,0.7-8c1.2-7.4,2.6-14.2,3.9-21
		c1.4-6.9,2.8-13.7,4.1-20.6c3.4-17.4,6.9-36.4-1.7-56.5c-5.3-12.4-15.5-24.3-28.4-33.8c-8.4-6.2-17.7-11.4-27.5-14.9
		c-20.7-7.4-40.8-7.6-60.5-7c-19.3,0.5-38.3,1.7-57.9-2.7c-9.2-2-18.2-5.2-27.1-9.2c-11.1-5-22.2-11.2-33.6-17.3s-23.3-11.8-34-15.8
		"/>
	<path class="st76" d="M334.4,690.9c7.8-32.6,17.2-70.3,13.5-112.3c-2.1-24-9-50.1-19.9-73.7c-8.8-19.1-20.7-36.9-36-51.6
		c-5.8-5.6-12.2-10.7-19.2-14.2c-16.5-8.2-34.3-6.4-49.6-2.8c-4.5,1.1-8.9,2.3-13.1,3.7c-9,2.9-17.6,6.5-25.9,10.8
		c-3.2,1.6-7,3.4-10.9,4.7c-7.1,2.4-14.9,3.3-21.9-1.4c-7.8-5.3-9.2-14.3-8.8-22.3c0.2-2.9,0.5-5.8,1-8.3c1.5-7.6,3.2-14.7,4.8-21.8
		c1.7-7.2,3.4-14.3,5-21.5c4.2-18.2,8.5-37.9,0.2-58.8c-5.1-12.8-15.2-25-28.1-34.7c-8.4-6.3-17.8-11.5-27.7-14.9
		c-20.9-7.3-41.3-7-61.4-5.9c-19.6,1.1-39.1,2.8-59-1.2c-9.4-1.8-18.5-4.9-27.6-8.8c-11.3-4.9-22.5-11.1-34-17.1
		c-11.5-6.1-23.3-12-34.1-16.4"/>
	<path class="st77" d="M334.5,708c9.3-34.1,20.2-72.9,17.5-115.8c-1.5-24.5-8-50.9-18.8-74.9c-8.7-19.3-20.7-37.2-36.3-51.9
		c-5.9-5.6-12.4-10.7-19.5-14c-16.9-8-35.1-5.7-50.7-1.5c-4.6,1.2-9.1,2.6-13.5,4.2c-9.2,3.3-18,7.3-26.5,12
		c-3.3,1.8-7.1,3.7-11.1,5.2c-7.2,2.7-15.2,3.8-22.2-1c-7.8-5.3-9.1-14.4-8.4-22.8c0.2-3,0.7-5.9,1.3-8.5c1.8-7.9,3.8-15.3,5.7-22.7
		c2-7.5,4-15,5.9-22.4c4.9-19,10-39.5,2.1-61.1c-4.8-13.2-14.9-25.7-27.8-35.6c-8.4-6.4-17.9-11.6-27.9-15
		c-21.2-7.1-41.9-6.3-62.3-4.7c-20,1.6-39.9,3.9-60.2,0.3c-9.5-1.7-18.8-4.6-28.1-8.4c-11.5-4.7-22.8-10.9-34.3-17
		c-11.6-6.2-23.4-12.2-34.2-16.9"/>
	<path class="st78" d="M333.8,726.4c10.9-35.6,23.1-75.4,21.5-119.3c-0.9-24.9-7-51.8-17.7-76c-8.6-19.5-20.7-37.5-36.6-52.2
		c-6-5.6-12.6-10.6-19.9-13.9c-17.2-7.8-35.9-5-51.9-0.2c-4.7,1.4-9.3,3-13.8,4.7c-9.5,3.7-18.4,8.1-27.1,13.2
		c-3.4,2-7.2,4.1-11.3,5.7c-7.4,3-15.4,4.2-22.5-0.6c-7.9-5.3-9-14.6-8.1-23.2c0.3-3.1,0.9-6.1,1.6-8.8c2.1-8.1,4.4-15.8,6.6-23.6
		c2.3-7.8,4.6-15.6,6.8-23.4c5.7-19.8,11.5-41.1,4-63.4c-4.6-13.6-14.6-26.5-27.5-36.5c-8.4-6.5-17.9-11.7-28.1-15
		c-21.4-7-42.4-5.7-63.3-3.5c-20.4,2.1-40.6,5-61.3,1.8c-9.7-1.5-19.2-4.3-28.5-8c-11.6-4.6-23.1-10.7-34.7-16.9
		c-11.6-6.2-23.5-12.5-34.4-17.5"/>
	<path class="st79" d="M332.2,746.1c12.4-37.1,26.1-78,25.4-122.8c-0.4-25.4-6-52.7-16.7-77.2c-8.6-19.7-20.7-37.8-36.8-52.5
		c-6.1-5.6-12.8-10.6-20.2-13.8c-17.6-7.6-36.7-4.2-53,1.2c-4.8,1.6-9.5,3.3-14.1,5.3c-9.7,4.1-18.9,8.9-27.7,14.4
		c-3.4,2.1-7.3,4.4-11.5,6.2c-7.5,3.2-15.6,4.7-22.8-0.1c-8-5.3-9-14.8-7.8-23.6c0.4-3.2,1.1-6.3,1.9-9c2.5-8.4,5-16.4,7.5-24.4
		c2.6-8.1,5.1-16.2,7.7-24.3c6.4-20.6,13.1-42.7,5.9-65.6c-4.4-14-14.3-27.2-27.2-37.4c-8.4-6.6-18-11.8-28.3-15.1
		c-21.6-6.9-43-5.1-64.2-2.4c-20.7,2.6-41.4,6.1-62.5,3.3c-9.9-1.3-19.5-4-29-7.6c-11.8-4.5-23.4-10.5-35.1-16.8s-23.5-12.7-34.5-18
		"/>
	<path class="st80" d="M329.6,767.2c14-38.6,29.1-80.5,29.4-126.3c0.2-25.8-5-53.5-15.6-78.4c-8.5-19.9-20.7-38.1-37.1-52.7
		c-6.2-5.5-13-10.5-20.6-13.7c-17.9-7.4-37.4-3.5-54.2,2.5c-4.9,1.8-9.7,3.7-14.4,5.8c-9.9,4.5-19.3,9.7-28.3,15.6
		c-3.5,2.3-7.5,4.7-11.6,6.7c-7.6,3.5-15.9,5.1-23.1,0.3c-8.1-5.4-8.9-15-7.5-24c0.5-3.3,1.3-6.4,2.2-9.3c2.8-8.6,5.6-17,8.4-25.3
		c2.9-8.4,5.7-16.8,8.6-25.2c7.2-21.3,14.6-44.3,7.8-67.9c-4.1-14.4-13.9-28-26.9-38.3c-8.4-6.7-18.1-11.9-28.5-15.1
		c-21.9-6.7-43.5-4.5-65.1-1.2c-21.1,3.1-42.2,7.2-63.6,4.8c-10.1-1.1-19.9-3.7-29.5-7.2c-12-4.4-23.7-10.4-35.4-16.6
		c-11.8-6.3-23.6-12.9-34.6-18.6"/>
	<path class="st81" d="M326.2,789.8c15.6-40.2,32-83.1,33.4-129.8c0.8-26.3-4-54.4-14.6-79.6c-8.4-20-20.7-38.4-37.3-53
		c-6.3-5.5-13.2-10.5-21-13.5c-18.3-7.2-38.2-2.7-55.3,3.8c-5,1.9-9.9,4-14.7,6.3c-10.1,4.8-19.7,10.5-28.9,16.9
		c-3.5,2.5-7.6,5.1-11.8,7.1c-7.7,3.7-16.1,5.6-23.4,0.7c-8.1-5.4-8.8-15.2-7.1-24.4c0.6-3.3,1.5-6.6,2.5-9.5
		c3.1-8.9,6.2-17.5,9.3-26.2c3.2-8.7,6.3-17.5,9.5-26.2c8-22.1,16.1-45.9,9.8-70.2c-3.9-14.8-13.6-28.7-26.6-39.1
		c-8.4-6.8-18.2-12-28.6-15.2c-22.1-6.6-44.1-3.9-66.1-0.1c-21.5,3.7-42.9,8.3-64.7,6.3c-10.2-1-20.2-3.4-30-6.9
		c-12.2-4.3-24-10.2-35.8-16.5c-11.8-6.4-23.6-13.1-34.8-19.1"/>
	<path class="st82" d="M321.7,813.8c17.1-41.7,35-85.6,37.3-133.3c1.3-26.8-3-55.3-13.5-80.8c-8.4-20.2-20.7-38.7-37.6-53.3
		c-6.4-5.5-13.4-10.5-21.3-13.4c-18.6-7-39-2-56.4,5.1c-5.1,2.1-10.1,4.4-15,6.9c-10.4,5.2-20.2,11.3-29.5,18.1
		c-3.6,2.6-7.7,5.4-12,7.6c-7.8,4-16.3,6-23.7,1.2c-8.2-5.4-8.7-15.4-6.8-24.8c0.7-3.4,1.7-6.7,2.8-9.8c3.4-9.1,6.8-18.1,10.2-27
		c3.5-9,6.9-18.1,10.3-27.1c8.7-22.9,17.6-47.5,11.7-72.5c-3.7-15.3-13.3-29.5-26.3-40c-8.4-6.8-18.3-12.2-28.8-15.2
		c-22.3-6.4-44.7-3.2-67,1.1c-21.8,4.2-43.7,9.5-65.9,7.7c-10.4-0.8-20.5-3.1-30.4-6.5c-12.3-4.2-24.4-10-36.2-16.4
		c-11.9-6.4-23.7-13.3-34.9-19.7"/>
	<path class="st83" d="M316.1,839.4c18.7-43.2,37.9-88.2,41.3-136.8c1.9-27.3-2-56.1-12.4-82c-8.3-20.4-20.7-39-37.9-53.6
		c-6.5-5.5-13.7-10.4-21.7-13.3c-19-6.8-39.8-1.3-57.6,6.5c-5.2,2.3-10.4,4.7-15.4,7.4c-10.6,5.6-20.6,12.1-30.1,19.3
		c-3.7,2.8-7.8,5.8-12.2,8.1c-8,4.3-16.6,6.5-24,1.6c-8.3-5.4-8.6-15.6-6.5-25.2c0.8-3.5,1.9-6.9,3.1-10c3.7-9.4,7.4-18.6,11.1-27.9
		c3.7-9.4,7.5-18.7,11.2-28.1c9.5-23.7,19.1-49.1,13.6-74.7c-3.4-15.7-13-30.2-26-40.9c-8.5-6.9-18.4-12.3-29-15.2
		c-22.6-6.3-45.2-2.6-67.9,2.3c-22.2,4.7-44.5,10.6-67,9.2c-10.6-0.6-20.9-2.8-30.9-6.1c-12.5-4.1-24.7-9.8-36.6-16.3
		c-12-6.5-23.7-13.6-35-20.2"/>
	<path class="st84" d="M309.4,866.6c20.2-44.7,40.9-90.8,45.3-140.3c2.5-27.7-1-57-11.4-83.1c-8.2-20.6-20.7-39.3-38.1-53.9
		c-6.6-5.5-13.9-10.4-22-13.1c-19.3-6.5-40.5-0.5-58.7,7.8c-5.3,2.4-10.6,5.1-15.7,7.9c-10.8,6-21.1,12.9-30.7,20.5
		c-3.7,3-8,6.1-12.4,8.6c-8.1,4.6-16.8,6.9-24.3,2.1c-8.3-5.4-8.6-15.8-6.1-25.6c0.9-3.6,2.1-7.1,3.4-10.3c4-9.6,8-19.2,12-28.7
		c4-9.7,8.1-19.3,12.1-29c10.2-24.5,20.7-50.7,15.5-77c-3.2-16.1-12.6-30.9-25.7-41.8c-8.5-7-18.5-12.4-29.2-15.3
		c-22.8-6.2-45.8-2-68.9,3.4c-22.5,5.3-45.3,11.7-68.2,10.7c-10.8-0.4-21.2-2.5-31.4-5.7c-12.7-4-25-9.7-36.9-16.1
		c-12-6.5-23.8-13.8-35.2-20.8"/>
	<path class="st43" d="M301.6,895.4c21.8-46.2,43.8-93.3,49.3-143.8c5.4-50.4-8.6-105.5-48.7-138.5c-6.7-5.5-14.1-10.3-22.4-13
		c-19.7-6.3-41.3,0.2-59.9,9.1c-17,8.1-32.9,18.3-47.3,30.2c-10.7,8.8-25.5,19.1-37.2,11.6c-11.5-7.4-7.4-24.3-2.1-36.5
		c8.6-19.8,17.2-39.7,25.9-59.5c11-25.3,22.2-52.3,17.4-79.3c-4.8-27.2-27.2-50.8-54.9-58c-45.5-11.9-91.9,18-139.1,16.8
		c-38.4-1-72.6-22.2-104.5-42.6"/>
</g>
<ellipse class="st85" cx="722" cy="288.3" rx="87" ry="87"/>
<ellipse class="st85" cx="722" cy="288.3" rx="87" ry="87"/>
</svg>
