<?xml version="1.0" encoding="utf-8"?>
<!-- Generator: Adobe Illustrator 26.1.0, SVG Export Plug-In . SVG Version: 6.00 Build 0)  -->
<svg version="1.1" xmlns="http://www.w3.org/2000/svg" xmlns:xlink="http://www.w3.org/1999/xlink" x="0px" y="0px"
	 viewBox="0 0 190.16 190.16" style="enable-background:new 0 0 190.16 190.16;" xml:space="preserve">
<g id="BACKGROUND_2">
</g>
<g id="BACKGROUND_1">
	<g>
		<polygon style="fill:none;stroke:#547AE6;stroke-width:0.7;stroke-miterlimit:10;" points="190.39,182.45 190.39,183.86 
			183.69,190.56 182.28,190.56 		"/>
	</g>
	<g>
		<polygon style="fill:none;stroke:#547AE6;stroke-width:0.7;stroke-miterlimit:10;" points="190.39,171.48 190.39,172.89 
			172.72,190.56 171.31,190.56 		"/>
	</g>
	<g>
		<polygon style="fill:none;stroke:#547AE6;stroke-width:0.7;stroke-miterlimit:10;" points="190.39,160.51 190.39,161.92 
			161.75,190.56 160.34,190.56 		"/>
	</g>
	<g>
		<polygon style="fill:none;stroke:#547AE6;stroke-width:0.7;stroke-miterlimit:10;" points="190.39,149.54 190.39,150.95 
			150.78,190.56 149.37,190.56 		"/>
	</g>
	<g>
		<polygon style="fill:none;stroke:#547AE6;stroke-width:0.7;stroke-miterlimit:10;" points="190.39,138.57 190.39,139.98 
			139.81,190.56 138.39,190.56 189.39,139.57 		"/>
	</g>
	<g>
		<polygon style="fill:none;stroke:#547AE6;stroke-width:0.7;stroke-miterlimit:10;" points="190.39,127.6 190.39,129.01 
			128.84,190.56 127.42,190.56 189.39,128.6 		"/>
	</g>
	<g>
		<polygon style="fill:none;stroke:#547AE6;stroke-width:0.7;stroke-miterlimit:10;" points="190.39,116.63 190.39,118.04 
			117.87,190.56 116.45,190.56 189.39,117.63 		"/>
	</g>
	<g>
		<polygon style="fill:none;stroke:#547AE6;stroke-width:0.7;stroke-miterlimit:10;" points="190.39,105.65 190.39,107.07 
			106.9,190.56 105.48,190.56 		"/>
	</g>
	<g>
		<polygon style="fill:none;stroke:#547AE6;stroke-width:0.7;stroke-miterlimit:10;" points="190.39,94.68 190.39,96.1 
			95.93,190.56 94.51,190.56 		"/>
	</g>
	<g>
		<polygon style="fill:none;stroke:#547AE6;stroke-width:0.7;stroke-miterlimit:10;" points="190.39,83.71 190.39,85.13 
			84.96,190.56 83.54,190.56 		"/>
	</g>
	<g>
		<polygon style="fill:none;stroke:#547AE6;stroke-width:0.7;stroke-miterlimit:10;" points="190.39,72.74 190.39,74.16 
			73.99,190.56 72.57,190.56 		"/>
	</g>
	<g>
		<polygon style="fill:none;stroke:#547AE6;stroke-width:0.7;stroke-miterlimit:10;" points="190.39,61.77 190.39,63.18 
			189.39,64.18 63.02,190.56 61.6,190.56 		"/>
	</g>
	<g>
		<polygon style="fill:none;stroke:#547AE6;stroke-width:0.7;stroke-miterlimit:10;" points="190.39,50.8 190.39,52.21 
			189.39,53.21 52.05,190.56 50.63,190.56 189.39,51.8 		"/>
	</g>
	<g>
		<polygon style="fill:none;stroke:#547AE6;stroke-width:0.7;stroke-miterlimit:10;" points="190.39,39.83 190.39,41.24 
			41.07,190.56 39.66,190.56 		"/>
	</g>
	<g>
		<polygon style="fill:none;stroke:#547AE6;stroke-width:0.7;stroke-miterlimit:10;" points="190.39,28.86 190.39,30.27 
			30.1,190.56 28.69,190.56 		"/>
	</g>
	<g>
		<polygon style="fill:none;stroke:#547AE6;stroke-width:0.7;stroke-miterlimit:10;" points="190.39,17.89 190.39,19.3 189.39,20.3 
			19.13,190.56 17.72,190.56 		"/>
	</g>
	<g>
		<polygon style="fill:none;stroke:#547AE6;stroke-width:0.7;stroke-miterlimit:10;" points="190.39,6.92 190.39,8.33 8.16,190.56 
			6.74,190.56 189.39,7.92 		"/>
	</g>
	<g id="BACKGROUND">
	</g>
</g>
<g id="DESIGNED_BY_FREEPIK">
</g>
</svg>
