<?xml version="1.0" encoding="utf-8"?>
<!-- Generator: Adobe Illustrator 26.1.0, SVG Export Plug-In . SVG Version: 6.00 Build 0)  -->
<svg version="1.1" id="Layer_1" xmlns="http://www.w3.org/2000/svg" xmlns:xlink="http://www.w3.org/1999/xlink" x="0px" y="0px"
	 viewBox="0 0 728 21" style="enable-background:new 0 0 728 21;" xml:space="preserve">
<style type="text/css">
	.st0{fill:none;stroke:#FF710F;stroke-width:5;stroke-linecap:round;stroke-linejoin:round;}
	.st1{fill:none;stroke:#FF710F;stroke-width:5;stroke-linecap:round;stroke-linejoin:round;stroke-dasharray:10.0849,10.0849;}
</style>
<g>
	<g>
		<path class="st0" d="M4.1,11.4c1.7,0.2,3.3,0.5,5,0.7"/>
		<path class="st1" d="M19,13.3c57.3,6.6,92.3,2.5,114.4-3.1c5.8-1.5,20.6-5.6,41.1-6.2c27.8-0.8,31.9,5.8,58.5,8.1
			c43.7,3.8,93.5-9,119.4-8.1c3.1,0.1,4.9,0.2,7.5,0.6c13.2,2.3,17.2,9.5,25.5,8.1c2.8-0.5,2-1.2,8.1-3.7c0,0,7.2-2.9,16.2-4.4
			c19.1-3,95.8,6.2,95.8,6.2c13.1,1.6,39,0.4,90.8-1.9c31.4-1.4,45.1-2.8,69.7-1.9c19.2,0.7,35.5,2.4,47.9,4.1"/>
		<path class="st0" d="M718.8,11.9c1.7,0.3,3.4,0.5,4.9,0.8"/>
	</g>
</g>
</svg>
