<?xml version="1.0" encoding="utf-8"?>
<!-- Generator: Adobe Illustrator 22.0.1, SVG Export Plug-In . SVG Version: 6.00 Build 0)  -->
<svg version="1.1" id="Layer_1" xmlns="http://www.w3.org/2000/svg" xmlns:xlink="http://www.w3.org/1999/xlink" x="0px" y="0px"
	 viewBox="0 0 60 60" style="enable-background:new 0 0 60 60;" xml:space="preserve">
<style type="text/css">
	.st0{fill:#fff;}
</style>
<g>
	<g>
		<path id="SVGID_11_" class="st0" d="M49,50.4h-3.4h0h-2.7c0,0,0,0,0,0h-3.4H36c0,0,0,0,0,0h-2.7c0,0,0,0,0,0h-3.4h-8.2h-4.1
			c0,0,0,0,0,0h-4.1c0,0,0,0,0,0H9.4c-0.4,0-0.7-0.3-0.7-0.8L10,37.5c0-0.3,0.3-0.6,0.7-0.6h0.7l1.3-17.7c0-0.4,0.3-0.6,0.7-0.6h4.1
			c0.4,0,0.7,0.3,0.7,0.6l1.3,17.7h0.7h2v-5.2c0-0.9,0.7-1.6,1.6-1.6h2.2c0.9,0,1.6,0.7,1.6,1.6v5.2h1.9l9.4-4c0.5-0.2,1,0.1,1,0.6
			v3l8.6-3.7c0.5-0.2,1,0.1,1,0.6v16.3C49.7,50.1,49.4,50.4,49,50.4L49,50.4z M14.1,49.1h2.7V45h-2.7L14.1,49.1L14.1,49.1z
			 M16.9,19.9h-2.8l-1.3,17h5.4L16.9,19.9L16.9,19.9z M20.2,43.1l-0.5-4.8h-0.8h-6.8h-0.8l-1.2,10.9h2.7v-4.7c0-0.4,0.3-0.7,0.7-0.7
			h4.1c0.4,0,0.7,0.3,0.7,0.7v4.7h2.7L20.2,43.1L20.2,43.1z M26.5,31.7c0-0.1-0.1-0.3-0.3-0.3H24c-0.1,0-0.3,0.1-0.3,0.3v5.2h2.7
			V31.7L26.5,31.7z M29.2,38.2h-2H23h-2l1.2,10.9h6.9L29.2,38.2L29.2,38.2z M34,49.1h1.4v-3.4H34V49.1L34,49.1z M38.8,37.6v-3
			L30.6,38v11.1h2.1V45c0-0.4,0.3-0.7,0.7-0.7H36c0.4,0,0.7,0.3,0.7,0.7v4.1h2.1L38.8,37.6L38.8,37.6z M43.5,49.1h1.4v-3.4h-1.4
			V49.1L43.5,49.1z M48.3,34.5L40.1,38v11.1h2.1V45c0-0.4,0.3-0.7,0.7-0.7h2.7c0.4,0,0.7,0.3,0.7,0.7v4.1h2L48.3,34.5L48.3,34.5z
			 M43.4,22.6c-0.2,0-0.3,0-0.6,0c-1,0.1-2.2-0.2-3.3-1.1c-0.3,0.3-0.6,0.6-1,0.9C37.3,23.4,36,24,34.7,24c-0.4,0-1,0-1.6-0.3
			c-1-0.3-1.9-1-3-2c-0.5,0.4-1.2,0.7-2.1,0.8c-0.7,0.1-1.4,0.1-2.1,0.1c-1.9,0-3.2-1.1-4-2.8c-0.3-0.6-0.5-1.2-0.6-1.8
			c-0.1-0.4-0.1-0.6-0.1-0.8c-0.1-0.6-0.8-0.9-2-0.8c-0.5,0-1,0.1-1.6,0.3c-0.3,0.1-0.5,0.1-0.7,0.2c-0.1,0-0.2,0.1-0.3,0.1
			c-0.5,0.2-1.1-0.3-0.9-0.8c0.2-0.5,0.6-1.3,1.4-2c1.3-1.2,3.1-1.9,5.4-1.9h1.1c0.2-0.2,0.6-0.4,1.1-0.6c1.1-0.5,2.4-0.7,3.9-0.7
			c0.4,0,1,0.1,1.6,0.3c0.6,0.2,1.1,0.5,1.4,1c0.1-0.1,0.3-0.3,0.4-0.4c1.1-0.9,2.4-1.5,4.1-1.5c0.5,0,1.3,0.2,2.2,0.8
			c0.9,0.6,1.7,1.4,2.3,2.4c1.1,1.7,2.4,2.9,3.7,2.9c0,0,0.1,0,0.1,0c0.2,0,0.6,0,0.9-0.2c0.6-0.4,1.1-1.4,1.1-3.2
			c0-0.6,0.7-0.9,1.1-0.5c0,0,0.1,0.1,0.2,0.2C51.1,16.5,48.5,22.5,43.4,22.6L43.4,22.6z M47.5,15c-0.3,1.2-0.8,2-1.5,2.5
			c-0.6,0.4-1.2,0.5-1.8,0.4c-1.9,0-3.5-1.4-4.8-3.5c-0.5-0.9-1.2-1.5-1.9-2c-0.4-0.3-0.8-0.4-1-0.5c-0.2,0-0.3-0.1-0.2-0.1l-0.1,0
			c-1.3,0-2.4,0.4-3.2,1.2c-0.3,0.3-0.5,0.5-0.7,0.8c-0.1,0.2-0.2,0.3-0.2,0.3c-0.3,0.6-1.3,0.4-1.3-0.3c0-0.6-0.3-0.9-0.9-1.2
			c-0.4-0.1-0.8-0.2-1.1-0.2c-1.4,0-2.5,0.2-3.4,0.6c-0.5,0.2-0.8,0.4-0.9,0.5c-0.1,0.1-0.3,0.2-0.5,0.2h-1.4c-2,0-3.5,0.6-4.5,1.5
			c0.4-0.1,0.7-0.1,1.1-0.2c1.8-0.2,3.2,0.4,3.5,1.9c0,0.1,0.1,0.4,0.1,0.7c0.1,0.5,0.3,1,0.5,1.5c0.6,1.3,1.5,2,2.8,2
			c0,0,0,0,0.1,0c0.6,0,1.2,0,1.8-0.1c0.7-0.1,1.2-0.3,1.4-0.4l-1.1-1c-0.3-0.3-0.3-0.7,0-1c0.3-0.3,0.7-0.3,1,0l1.4,1.4l0.7,0.7
			c0.9,0.9,1.7,1.4,2.4,1.7c0.5,0.2,0.8,0.2,1.1,0.2l0.1,0c1,0,2-0.4,3-1.2c0.3-0.3,0.7-0.6,0.9-0.9c0.2-0.2,0.3-0.3,0.3-0.4
			c0.3-0.3,0.7-0.4,1-0.1c0.1,0.1,0.2,0.2,0.3,0.3c0.5,0.4,1,0.7,1.6,0.8c0.4,0.1,0.7,0.1,0.9,0.1l0.1,0c0.2,0,0.4,0,0.5,0
			C46.8,21.2,48.7,17.7,47.5,15L47.5,15z M23.7,47.1c-0.4,0-0.7-0.3-0.7-0.7v-5.4c0-0.4,0.3-0.7,0.7-0.7c0.4,0,0.7,0.3,0.7,0.7v5.4
			C24.4,46.8,24.1,47.1,23.7,47.1L23.7,47.1z M27.1,47.1c-0.4,0-0.7-0.3-0.7-0.7v-5.4c0-0.4,0.3-0.7,0.7-0.7c0.4,0,0.7,0.3,0.7,0.7
			v5.4C27.8,46.8,27.5,47.1,27.1,47.1L27.1,47.1z M36,42.3h-2.7c-0.4,0-0.7-0.3-0.7-0.7v-2.7c0-0.4,0.3-0.7,0.7-0.7H36
			c0.4,0,0.7,0.3,0.7,0.7v2.7C36.7,42,36.4,42.3,36,42.3L36,42.3z M35.3,39.6H34v1.4h1.4V39.6L35.3,39.6z M45.6,42.3h-2.7
			c-0.4,0-0.7-0.3-0.7-0.7v-2.7c0-0.4,0.3-0.7,0.7-0.7h2.7c0.4,0,0.7,0.3,0.7,0.7v2.7C46.3,42,46,42.3,45.6,42.3L45.6,42.3z
			 M44.9,39.6h-1.4v1.4h1.4V39.6L44.9,39.6z"/>
	</g>
</g>
</svg>
