<?xml version="1.0" encoding="utf-8"?>
<!-- Generator: Adobe Illustrator 22.0.1, SVG Export Plug-In . SVG Version: 6.00 Build 0)  -->
<svg version="1.1" id="Capa_1" xmlns="http://www.w3.org/2000/svg" xmlns:xlink="http://www.w3.org/1999/xlink" x="0px" y="0px"
	 viewBox="0 0 60 60" style="enable-background:new 0 0 60 60;" xml:space="preserve">
<style type="text/css">
	.st0{fill:#fff;}
</style>
<g>
	<g>
		<path class="st0" d="M25.3,37.3h-2.7v-2.7c0-0.4-0.3-0.7-0.7-0.7h-2.7c-0.4,0-0.7,0.3-0.7,0.7v2.7H16c-0.4,0-0.7,0.3-0.7,0.7v2.7
			c0,0.4,0.3,0.7,0.7,0.7h2.7V44c0,0.4,0.3,0.7,0.7,0.7H22c0.4,0,0.7-0.3,0.7-0.7v-2.7h2.7c0.4,0,0.7-0.3,0.7-0.7V38
			C26,37.6,25.7,37.3,25.3,37.3z M24.7,40H22c-0.4,0-0.7,0.3-0.7,0.7v2.7H20v-2.7c0-0.4-0.3-0.7-0.7-0.7h-2.7v-1.3h2.7
			c0.4,0,0.7-0.3,0.7-0.7v-2.7h1.3V38c0,0.4,0.3,0.7,0.7,0.7h2.7V40z"/>
	</g>
</g>
<g>
	<g>
		<path class="st0" d="M49.9,38.1c-0.5-4.6-4.8-8.9-9.4-9.4c-0.4,0-0.8-0.1-1.2-0.1H32V26h-1.3v-1.3c0-1.5-1.2-2.7-2.7-2.7h-3.3
			c-0.7,0-1.3-0.6-1.3-1.3c0-0.7,0.6-1.3,1.3-1.3h10.7c1.5,0,2.7-1.2,2.7-2.7S36.8,14,35.3,14H32c-0.7,0-1.3-0.6-1.3-1.3V10h-1.3
			v2.7c0,1.5,1.2,2.7,2.7,2.7h3.3c0.7,0,1.3,0.6,1.3,1.3c0,0.7-0.6,1.3-1.3,1.3H24.7c-1.5,0-2.7,1.2-2.7,2.7s1.2,2.7,2.7,2.7H28
			c0.7,0,1.3,0.6,1.3,1.3V26H28v2.7h-7.3c-0.4,0-0.8,0-1.2,0.1c-4.6,0.5-8.9,4.8-9.4,9.4c-0.7,5.9,3.5,11.1,9.4,11.8
			c2.4,0.3,4.8-0.3,6.8-1.5c0.9-0.6,1.9-0.9,2.9-1c0.5,0,1,0,1.5,0c1.1,0.1,2.1,0.5,3,1c5,3.1,11.6,1.5,14.7-3.5
			C49.7,42.9,50.2,40.5,49.9,38.1z M29.3,27.3h1.3v1.3h-1.3V27.3z M46.3,45.6c-3,3.4-8,4.1-11.9,1.7c-1.1-0.7-2.3-1.1-3.6-1.2
			c-0.3,0-0.6,0-0.9,0c-0.3,0-0.6,0-0.9,0c-1.3,0.1-2.5,0.5-3.5,1.2c-4.4,2.7-10.1,1.4-12.8-3c-1.1-1.8-1.6-3.9-1.3-6
			c0.4-3.9,4.3-7.8,8.2-8.2c0.3,0,0.7-0.1,1-0.1h18.7c0.3,0,0.7,0,1,0.1c4,0.4,7.8,4.3,8.2,8.2C48.9,40.9,48.1,43.6,46.3,45.6z"/>
	</g>
</g>
<g>
	<g>
		<path class="st0" d="M39.3,32.7c-1.5,0-2.7,1.2-2.7,2.7c0,1.5,1.2,2.7,2.7,2.7c1.5,0,2.7-1.2,2.7-2.7C42,33.9,40.8,32.7,39.3,32.7
			z M39.3,36.7c-0.7,0-1.3-0.6-1.3-1.3c0-0.7,0.6-1.3,1.3-1.3s1.3,0.6,1.3,1.3C40.7,36.1,40.1,36.7,39.3,36.7z"/>
	</g>
</g>
<g>
	<g>
		<path class="st0" d="M39.3,40.7c-1.5,0-2.7,1.2-2.7,2.7s1.2,2.7,2.7,2.7c1.5,0,2.7-1.2,2.7-2.7S40.8,40.7,39.3,40.7z M39.3,44.7
			c-0.7,0-1.3-0.6-1.3-1.3s0.6-1.3,1.3-1.3s1.3,0.6,1.3,1.3S40.1,44.7,39.3,44.7z"/>
	</g>
</g>
<g>
	<g>
		<path class="st0" d="M34.7,36.7c-1.5,0-2.7,1.2-2.7,2.7c0,1.5,1.2,2.7,2.7,2.7c1.5,0,2.7-1.2,2.7-2.7
			C37.3,37.9,36.1,36.7,34.7,36.7z M34.7,40.7c-0.7,0-1.3-0.6-1.3-1.3s0.6-1.3,1.3-1.3c0.7,0,1.3,0.6,1.3,1.3S35.4,40.7,34.7,40.7z"
			/>
	</g>
</g>
<g>
	<g>
		<path class="st0" d="M44,36.7c-1.5,0-2.7,1.2-2.7,2.7c0,1.5,1.2,2.7,2.7,2.7c1.5,0,2.7-1.2,2.7-2.7C46.7,37.9,45.5,36.7,44,36.7z
			 M44,40.7c-0.7,0-1.3-0.6-1.3-1.3S43.3,38,44,38s1.3,0.6,1.3,1.3S44.7,40.7,44,40.7z"/>
	</g>
</g>
</svg>
