<svg id="SvgjsSvg1013" width="288" height="288" xmlns="http://www.w3.org/2000/svg" version="1.1" xmlns:xlink="http://www.w3.org/1999/xlink" xmlns:svgjs="http://svgjs.com/svgjs"><defs id="SvgjsDefs1014"></defs><g id="SvgjsG1015"><svg xmlns="http://www.w3.org/2000/svg" viewBox="0 0 512 512" width="288" height="288"><path d="M455.542 451H56.458L1 414.027V331h186.213l30 30h77.574l30-30H511v83.027L455.542 451zm-390-30h380.916L481 397.973V361H337.213l-30 30H204.787l-30-30H31v36.973L65.542 421z" fill="#ffffff" class="color000 svgShape"></path><path d="M481 346h-30V91H61v255H31V61h450z" fill="#ffffff" class="color000 svgShape"></path><path d="M226 241H91V121h135v120zm-105-30h75v-60h-75v60zM256 121h165v30H256zM256 181h105v30H256zM91 271h330v30H91zM391 181h30v30h-30z" fill="#ffffff" class="color000 svgShape"></path></svg></g></svg>