<?xml version="1.0" encoding="utf-8"?>
<!-- Generator: Adobe Illustrator 26.1.0, SVG Export Plug-In . SVG Version: 6.00 Build 0)  -->
<svg version="1.1" xmlns="http://www.w3.org/2000/svg" xmlns:xlink="http://www.w3.org/1999/xlink" x="0px" y="0px"
	 viewBox="0 0 750 362" style="enable-background:new 0 0 750 362;" xml:space="preserve">
<g id="Background">
</g>
<g id="Objects">
	<g id="XMLID_1771_">
		<rect id="XMLID_1769_" x="388.97" y="147.58" style="fill:#FFC253;" width="305.66" height="206.74"/>
		<path id="XMLID_1073_" style="fill:#E09736;" d="M388.97,147.58l143.46,130.9c5.3,4.84,13.42,4.84,18.73,0l143.46-130.9H388.97z"
			/>
		<polygon id="XMLID_1800_" style="fill:#E09736;" points="694.63,354.31 541.8,194.8 694.63,340.73 		"/>
		<polygon id="XMLID_1806_" style="fill:#E09736;" points="388.97,354.31 541.8,194.8 388.97,340.73 		"/>
		<path id="XMLID_1773_" style="fill:#FFC854;" d="M388.97,147.58l141.27,119.35c6.68,5.64,16.45,5.64,23.13,0l141.27-119.35H388.97
			z"/>
	</g>
	<g id="XMLID_1766_">
		<path id="XMLID_1762_" style="fill:#40C7A7;" d="M670.2,354.31c0,0-9.67-4.37-8.96-14.75c0.71-10.38,7.79-12.5,13.92-16.28
			c6.13-3.77,6.61-10.14,6.84-17.93c0.24-7.79,5.43-15.57,15.81-15.1c10.38,0.47,14.21,2.6,21.73-6.37
			c7.52-8.96,17.66-8.73,21.91-3.77c4.25,4.95,4.52,13.48-1.92,19.36c-7.84,7.15-9.86,8.95-12.13,16.82
			c-3.07,10.67,1.36,21.07-2.59,26.03c-5.27,6.63-10.97,5-16.39,7.15c-5.43,2.15-5.62,4.84-5.62,4.84H670.2z"/>
		<path id="XMLID_1767_" style="fill:none;stroke:#3B55CE;stroke-width:1.05;stroke-linecap:round;stroke-miterlimit:10;" d="
			M732.09,287.02c-15.87,9.26-43.5,37.41-48.19,67.29"/>
	</g>
	<g id="XMLID_1760_">
		<path id="XMLID_1808_" style="fill:#3B55CE;" d="M490.87,48.77c0-2.63,2.13-4.76,4.76-4.76s4.76,2.13,4.76,4.76
			c0,2.63-2.13,4.76-4.76,4.76S490.87,51.4,490.87,48.77z"/>
		<g id="XMLID_2219_">
			<path id="XMLID_2266_" style="fill:#AAEEED;" d="M444.13,203.31c-0.65,0.73-0.71,2.5,2.3,4.7c3.01,2.2,9.22,3.07,11.74,3.18
				c2.52,0.11,4.16-0.24,7.54,1.37c3.39,1.61,9.31,2.69,11.44,1.62c0.78-0.56,0.73-2.13,0.73-2.13L444.13,203.31z"/>
			<g id="XMLID_2230_">
				<defs>
					<path id="SVGID_1_" d="M478.61,200.59c-0.1,2.56,0.5,8.8-0.74,11.46c-3.02,1.52-8.41,0.37-12.19-1.62
						c-3.78-1.98-7.1-0.6-12.22-1.53c-5.02-0.9-8.82-3.28-9.33-5.59c-0.56-2.53,8.52-2.19,14.85-2.58
						c7.08-0.44,11.28-2.87,11.28-2.87L478.61,200.59z"/>
				</defs>
				<use xlink:href="#SVGID_1_"  style="overflow:visible;fill:#1E4174;"/>
				<clipPath id="SVGID_00000109026717839214355500000002564491339273557659_">
					<use xlink:href="#SVGID_1_"  style="overflow:visible;"/>
				</clipPath>
				
					<path id="XMLID_2263_" style="clip-path:url(#SVGID_00000109026717839214355500000002564491339273557659_);fill:none;stroke:#AAEEED;stroke-width:0.5508;stroke-linecap:round;stroke-miterlimit:10;" d="
					M466.95,202.78c0,0-0.38-3.61-1.71-5.07"/>
				
					<path id="XMLID_2259_" style="clip-path:url(#SVGID_00000109026717839214355500000002564491339273557659_);fill:none;stroke:#AAEEED;stroke-width:0.5508;stroke-linecap:round;stroke-miterlimit:10;" d="
					M462.04,203.48c0,0-0.38-3.61-1.71-5.07"/>
				
					<path id="XMLID_2236_" style="clip-path:url(#SVGID_00000109026717839214355500000002564491339273557659_);fill:none;stroke:#AAEEED;stroke-width:0.5508;stroke-linecap:round;stroke-miterlimit:10;" d="
					M457.12,204.18c0,0-0.38-3.61-1.71-5.07"/>
			</g>
			<path id="XMLID_2220_" style="fill:#FF9A8D;" d="M481.28,191.65l-2.67,8.94c0,0-1.22,0.1-1.83,0.54
				c-0.61,0.44-1.69,2.13-2.5,1.97c-3.18-0.63-4.04-5.23-4.04-5.23l2.26-9.35L481.28,191.65z"/>
		</g>
		<path id="XMLID_1867_" style="fill:#1E4174;" d="M527.27,112.45l-1.21,9.43l-32.89-0.67c0,0-7.75-0.15-10.04,7.72
			c-2.3,7.87-10.89,60.69-10.89,60.69s4.62,3.41,9.31,2.67c0,0,15.51-32.07,17.73-40.88c2.22-8.81,1.1-16.24,1.1-16.24l39.65-3.44
			L527.27,112.45z"/>
		<g id="XMLID_2150_">
			<path id="XMLID_2215_" style="fill:#AAEEED;" d="M479.4,224.58c0.05,0.97,1.23,2.28,4.93,1.75c3.69-0.53,8.74-4.25,10.62-5.94
				c1.88-1.69,2.8-3.08,6.35-4.3c3.54-1.22,8.53-4.59,9.31-6.84c0.17-0.95-0.97-2.03-0.97-2.03L479.4,224.58z"/>
			<g id="XMLID_2158_">
				<defs>
					<path id="SVGID_00000052097412279030907720000016717737162295808663_" d="M502.15,198.52c1.72,1.9,6.52,5.94,7.48,8.71
						c-1.1,3.19-5.76,6.15-9.85,7.37c-4.09,1.22-5.5,4.54-9.8,7.46c-4.22,2.87-8.6,3.82-10.58,2.53c-2.17-1.42,4.55-7.52,8.81-12.23
						c4.76-5.27,6.06-9.93,6.06-9.93L502.15,198.52z"/>
				</defs>
				<use xlink:href="#SVGID_00000052097412279030907720000016717737162295808663_"  style="overflow:visible;fill:#1E4174;"/>
				<clipPath id="SVGID_00000147193962237680293020000006902077545182345604_">
					<use xlink:href="#SVGID_00000052097412279030907720000016717737162295808663_"  style="overflow:visible;"/>
				</clipPath>
				
					<path id="XMLID_2207_" style="clip-path:url(#SVGID_00000147193962237680293020000006902077545182345604_);fill:none;stroke:#AAEEED;stroke-width:0.5508;stroke-linecap:round;stroke-miterlimit:10;" d="
					M495.35,208.24c0,0-2.8-2.31-4.77-2.43"/>
				
					<path id="XMLID_2175_" style="clip-path:url(#SVGID_00000147193962237680293020000006902077545182345604_);fill:none;stroke:#AAEEED;stroke-width:0.5508;stroke-linecap:round;stroke-miterlimit:10;" d="
					M492.32,212.18c0,0-2.8-2.31-4.77-2.43"/>
				
					<path id="XMLID_2167_" style="clip-path:url(#SVGID_00000147193962237680293020000006902077545182345604_);fill:none;stroke:#AAEEED;stroke-width:0.5508;stroke-linecap:round;stroke-miterlimit:10;" d="
					M489.29,216.12c0,0-2.8-2.31-4.77-2.43"/>
			</g>
			<path id="XMLID_2151_" style="fill:#FF9A8D;" d="M500.7,190.67l1.44,7.85c0,0-0.8,0.93-0.92,1.66c-0.12,0.74,0.27,2.7-0.41,3.15
				c-2.71,1.77-6.55-0.92-6.55-0.92l-3.17-9.71L500.7,190.67z"/>
		</g>
		<path id="XMLID_1889_" style="fill:#85B8ED;" d="M552.01,108.52c1.2,3.09,3.89,6.77,5.58,9.64c1.69,2.88,6.91,10.54,3.89,18.61
			c-3.24,8.65-10.42,10.81-17.87,10.81c-7.44,0-12.24,0-17.32,0c-5.07,0-36.27-7.67-36.27-7.67s3.6,2.07,5.36,7.67
			c1.76,5.6,5.31,43.1,5.31,43.1c-2.3,2.32-5.52,3.27-9.6,2.95c0,0-9.35-29.08-13.23-39.84c-4.06-11.24-8.58-22.19-7.71-27.05
			c1.23-6.8,13.02-7.01,22.76-6.67c9.74,0.34,32.15,1.18,36.71,0.54l-2.36-8.15L552.01,108.52z"/>
		<path id="XMLID_1606_" style="fill:#4E7EAC;" d="M561.49,136.77c3.02-8.07-2.2-15.73-3.89-18.61c-1.69-2.88-4.38-6.55-5.58-9.64
			l-24.74,3.93l1.51,5.21c0,0,13.72,1.88,19.7-5.21c0,0,4.37,6.65,5.64,10.64c1.75,5.5,1.27,14.43-9.5,16.57
			c-10.77,2.14-50.54-3.7-55.81-4.29c-5.26-0.59-3.51,2.46-0.58,8.64c2.92,6.18,4.15,17.27,6.78,30.55
			c1.68,8.48,3.58,17.72,3.58,17.72c0.78-0.44,1.49-0.97,2.12-1.61c0,0-3.55-37.5-5.31-43.1c-1.76-5.6-5.36-7.67-5.36-7.67
			s31.2,7.67,36.27,7.67c5.07,0,9.87,0,17.32,0C551.06,147.58,558.25,145.42,561.49,136.77z"/>
		<g id="XMLID_1037_">
			<defs>
				<path id="SVGID_00000008838375038673500760000008756063712836929967_" d="M552.01,108.52c1.2,3.09,3.89,6.77,5.58,9.64
					c1.69,2.88,6.91,10.54,3.89,18.61c-3.24,8.65-10.42,10.81-17.87,10.81c-7.44,0-12.24,0-17.32,0c-5.07,0-36.27-7.67-36.27-7.67
					s3.6,2.07,5.36,7.67c1.76,5.6,5.31,43.1,5.31,43.1c-2.3,2.32-5.52,3.27-9.6,2.95c0,0-9.44-29.05-13.23-39.84
					c-3.91-11.15-8.58-22.19-7.71-27.05c1.23-6.8,13.02-7.01,22.76-6.67c9.74,0.34,32.15,1.18,36.71,0.54l-2.36-8.15L552.01,108.52z
					"/>
			</defs>
			<clipPath id="SVGID_00000154421778562055484450000008847492629901182908_">
				<use xlink:href="#SVGID_00000008838375038673500760000008756063712836929967_"  style="overflow:visible;"/>
			</clipPath>
			
				<path id="XMLID_1590_" style="clip-path:url(#SVGID_00000154421778562055484450000008847492629901182908_);fill:none;stroke:#274D79;stroke-width:0.5508;stroke-miterlimit:10;" d="
				M542.73,108.55c1.21,7.36,4.29,10.99,3.99,17.72c-0.3,6.72-5.74,10.14-21.57,8.73c-15.83-1.42-40.15-4.97-42.28-4.37
				c-2.13,0.6-1.42,3.83,1.41,13.42c2.83,9.59,12.51,52.25,12.51,52.25"/>
			
				<path id="XMLID_1038_" style="clip-path:url(#SVGID_00000154421778562055484450000008847492629901182908_);fill:none;stroke:#274D79;stroke-width:0.5508;stroke-miterlimit:10;" d="
				M546.51,127.95c0,0-3.5,0.8-6.31-1.68c-2.82-2.48-3.62-13.78-3.62-13.78"/>
			
				<path id="XMLID_1374_" style="clip-path:url(#SVGID_00000154421778562055484450000008847492629901182908_);fill:none;stroke:#274D79;stroke-width:0.5508;stroke-miterlimit:10;" d="
				M488.89,190.13c0,0,7.02,1.56,12.42-3.78"/>
		</g>
		<path id="XMLID_2377_" style="fill:#001C45;" d="M541.49,18.67c0,0-4.96-4.2-14.22-3.32c-7.37,0.7-12.76,4.98-14.45,10.37
			c-1.69,5.39-1.18,15.26,7.75,20.77c0,0-2.77,1.51,0.31,4.44c0,0-4.78,1.17-6.32,3.82s0,5.14,0.92,8.13
			c0.92,2.99,1.23,3.46-2.77,7.46c-4.01,4-7.45,11.09-1.8,20.18c5.65,9.09,15.47,16.71,29.12,15.98c13.81-0.73,29.4-5.33,33.31-26.6
			c3.91-21.27-9.49-26.11-13.19-25.15c0,0,4.08-9.08,2.85-20.79c-1.23-11.71-6.95-16.96-11.75-17.34
			C544.17,16.06,541.49,18.67,541.49,18.67z"/>
		<path id="XMLID_1683_" style="fill:#FF9A8D;" d="M538.6,60.61c-1.83,0.55-4.88,1.01-6.49,2.27c-1.61,1.26-17.57,26.1-17.57,26.1
			s-14.7-23-16.88-25.74c-2.29-2.87-13.49-6.46-15.53-6.06c-2.52,0.5-1.16,3.65-0.64,5.69c0.29,1.17,0.75,4.41,2.83,5.84
			c2.08,1.43,9.45,2.55,9.45,2.55s13.22,27.83,15.96,32c1.77,2.7,3.72,2.73,6.99-0.88c3.18-3.49,15.85-20.11,15.85-20.11
			L538.6,60.61z"/>
		<path id="XMLID_2049_" style="fill:#03AA99;" d="M538.6,60.61c-2.91,1.06-5.6,0.99-7.07,2.87c-1.47,1.88-2.75,10.46-2.75,10.46
			s7.31-1.45,9.25-5.29c1.94-3.83,2-7.3,2-7.3L538.6,60.61z"/>
		<path id="XMLID_2309_" style="fill:#3ED9C7;" d="M548.78,55.83c0,0,1.26,0.88,2.47,0.88c1.63,0.24,6.94,1.4,8.02,3.38
			c2.58,3.56-0.07,15.24-1.57,23.44c-0.92,5-9.77,16.22-3.73,27.66c0,0-13.63,8.05-27.39,1.25c-1.44-6.81,0.25-11.56,0.3-19.23
			c-1.95-2.11-3.88-5.99-4.05-8.51c-0.65-9.35,8.7-12.2,15.98-22.62c2.03-2.91,3.57-2.77,6.34-4.89
			C546.97,55.83,548.78,55.83,548.78,55.83z"/>
		<path id="XMLID_1633_" style="fill:#FF9A8D;" d="M553,59.89c4.12-2.6,7.46,0.61,9.41,5.29c1.95,4.68,12.25,33.77,13.15,37.38
			c0.9,3.61-3.07,39.38-4.16,41.46c-1.08,2.08-2.22,3.56-6.35,3.56c-4.13,0-18.98,0-18.98,0s0.94-1.94,4.19-2.75
			c3.25-0.81,12.47-1.08,14.27-3.97c1.81-2.89,1.04-36.25,1.04-36.25s-11.43-24.42-13.96-30.49C549.08,68.04,550.08,61.73,553,59.89
			z"/>
		<path id="XMLID_1757_" style="fill:#03AA99;" d="M554.92,58.31c-2.44,0-8.03,5.55-3.31,15.8c0,0,6.12-8.67,11.72-6.57
			C563.33,67.54,560.88,56.91,554.92,58.31z"/>
		<g id="XMLID_1895_">
			<path id="XMLID_2064_" style="fill:#FF9A8D;" d="M543.83,46.45l4.3,3.83l1.9,6.44c0,0-2.7,1.81-3.74,3.38
				c-1.27,1.91-4.11,6.5-7.52,6.89c0,0,0.34-4.14-0.17-6.37c-0.52-2.23-2.07-6.65-2.07-6.65L543.83,46.45z"/>
			<path id="XMLID_2050_" style="fill:#BA5964;" d="M543.83,46.45c0,0,0.93,3.61,0.77,5.43c-0.16,1.83-1.77,5.63-6,8.73
				c-0.52-2.23-2.07-6.65-2.07-6.65L543.83,46.45z"/>
			<path id="XMLID_2046_" style="fill:#BA5964;" d="M525.73,38.34c-0.81,2.89-4.12,6.95-3.4,7.68c0.6,0.6,3.43,0.47,3.43,0.47
				s2.08-2,1.37-4.81C526.42,38.86,525.73,38.34,525.73,38.34z"/>
			<path id="XMLID_1993_" style="fill:#FF9A8D;" d="M532.93,20.24c-4.01,0.36-8.02,5.92-7.95,10.97c0.08,5.05,1.24,7.8,0.92,11.36
				c-0.32,3.57-0.3,7,1.2,10.74c1,2.49,3.59,3.05,7.05,2.21c3.17-0.76,7.49-3.81,8.49-4.77c1-0.96,1.19-4.31,1.19-4.31
				s4.72-0.7,6.89-5.02S552.5,18.46,532.93,20.24z"/>
			<path id="XMLID_1981_" style="fill:#001C45;" d="M543.83,46.45c0,0,4.31-1.69,3.93-6.48c-0.39-4.92-7.02-5.1-6.75-0.77
				c0,0-4.63-0.91-7.46-4.23c-5.3-6.22-5.9-11.29-5.9-11.29c1.12-7.75,13.83-5.01,13.83-5.01s6.43-2.78,11.91,0.87
				c3.92,2.61,5.92,12,2.74,19.81c-3.17,7.8-8,10.92-8,10.92L543.83,46.45z"/>
			<g id="XMLID_1897_">
				<g id="XMLID_1920_">
					<path id="XMLID_1935_" style="fill:#001C45;" d="M529.21,39.6c0.04-0.64,0.58-1.13,1.22-1.09c0.64,0.04,1.13,0.58,1.09,1.22
						c-0.04,0.64-0.58,1.13-1.22,1.09C529.66,40.79,529.17,40.24,529.21,39.6z"/>
					<path id="XMLID_1921_" style="fill:#001C45;" d="M528.25,36.56l5.3,1.68c0,0-0.12-1.81-1.94-2.37
						C529.39,35.19,528.25,36.56,528.25,36.56z"/>
				</g>
				<path id="XMLID_1913_" style="fill:#BA5964;" d="M545.03,38.93c-0.72-0.26-1.8-0.22-2.4,0.27c-0.22,0.18,0.16,0.55,0.38,0.47
					c1.22-0.45,2.71-0.52,3.32,0.91c0.03,0.08,0.09,0,0.08-0.05C546.24,39.75,545.8,39.21,545.03,38.93z"/>
				<path id="XMLID_1898_" style="fill:#BA5964;" d="M544.47,39.05c-0.14-0.06-0.44,0.27-0.42,0.37c0.2,0.09,0.52,0.32,0.67,0.59
					c0.26,0.46,0.33,0.85,0.29,1.38c-0.1,1.22-0.78,2.09-1.97,2.37c-0.02,0-0.06,0.07-0.02,0.08c1.03,0.26,2.2-0.81,2.44-1.74
					C545.72,41.06,545.65,39.61,544.47,39.05z"/>
			</g>
		</g>
		<path id="XMLID_1796_" style="fill:#FF9A8D;" d="M538.81,62.11c0.07,1.38-2.55,4.44-1.9,6.54c0.64,2.11,5.02,2.4,7.38,0
			c2.36-2.4,3.74-9.9,6.96-11.94c0,0-1.09,0-1.59-1.3L538.81,62.11z"/>
		<path id="XMLID_1653_" style="fill:#1E4174;" d="M491.7,54.87c0,0-1.29,11.37,3.1,20.46c0.43,0.9,0.06,1.98-0.81,2.47l-5.35,2.97
			c-1.14,0.64-2.57-0.02-2.82-1.31c-0.84-4.46-1.99-14.23,1.05-25.15L491.7,54.87z"/>
		<path id="XMLID_1791_" style="fill:#FF9A8D;" d="M486.1,57.81c1.35,0.38,3.31,1.22,3.37,2.51s-2.07,1.34-2.07,1.34
			s1.51,0.67,1.62,1.62c0.11,0.95-0.84,1.9-2.24,1.9c0,0,1.45,0.49,1,1.79c-0.44,1.29-2.57,0.23-2.99,1.18c0,0-1.26-1.23-1.37-3.97
			C483.31,61.44,486.1,57.81,486.1,57.81z"/>
		<path id="XMLID_1799_" style="fill:#FF9A8D;" d="M497.66,63.24c-1.29-2.48-2.56-4.28-5.48-5.43c-2.49-0.98-3.68-2.9-4.32-1.92
			c-0.65,0.98,1.11,4.07,3.84,5L497.66,63.24z"/>
		<path id="XMLID_1797_" style="fill:#1E4174;" d="M483.41,54.49l11.05,1.39c2.84,0.34,4.6-14.24,1.76-14.59l-10.85-1.83
			L483.41,54.49z"/>
		<path id="XMLID_1809_" style="fill:#3B55CE;" d="M485.37,39.47c-4.03-0.46-17.91-6.95-20.92-18.62
			c-11.38-1.44-16.71,40.58-5.33,42.03c3.13-7.26,18.72-9.1,24.29-8.39C485.57,54.77,487.53,39.75,485.37,39.47z"/>
		<path id="XMLID_1671_" style="fill:none;stroke:#001C45;stroke-width:0.7875;stroke-linecap:round;stroke-miterlimit:10;" d="
			M531.53,9.24c3.52,0.83,8.72,5.01,9.96,9.43"/>
	</g>
	<g id="XMLID_2144_">
		<path id="XMLID_1764_" style="fill:#DD7A79;" d="M190.35,144.74c9.12,8.31,19.04,13.95,30.53,11.77
			c16.19-3.08,28.83-19.58,28.83-19.58s4.17,5.44,4.17,5.98c0,0.54-10.7,21.76-30.1,26.11c-19.4,4.35-36.85-9.55-36.85-9.55
			L190.35,144.74z"/>
		<path id="XMLID_2131_" style="fill:#3B55CE;" d="M356.58,259.32c7.67,10.82,22.06,14.46,33.95,8.6l21.6-10.65
			c4.1-2.02,9.06-0.63,11.52,3.23l39.04,61.34c2.75,4.33,1.33,10.08-3.13,12.6c-12.62,7.14-38.7,19.23-67.42,16.89
			c-40.3-3.28-66.54-40.76-110.92-110.49C236.84,171.1,214,131.46,228.09,93.56c10.04-27,32.03-45.51,43.85-53.92
			c4.18-2.98,9.99-1.83,12.74,2.5l39.04,61.34c2.45,3.86,1.61,8.94-1.96,11.8l-18.79,15.06c-10.35,8.29-13.14,22.87-6.58,34.4
			L356.58,259.32z"/>
		<path id="XMLID_3344_" style="fill:#2339A0;" d="M305.95,127.96l15.82-12.68c3.57-2.86,4.41-7.94,1.96-11.8l-20.64-32.43
			l-18.64-29.22c-2.83-4.05-8.43-5.09-12.5-2.19c-4.01,2.85-9.19,6.89-14.68,12.01L305.95,127.96z"/>
		<path id="XMLID_3349_" style="fill:#2339A0;" d="M442.47,342.65c6.95-2.8,12.81-5.79,17.09-8.21c4.33-2.45,5.77-7.93,3.33-12.2
			l-40.11-62.87c-2.64-2.97-6.98-3.9-10.64-2.1l-18.36,9.05L442.47,342.65z"/>
		<path id="XMLID_1763_" style="fill:#E09736;" d="M190.94,145.2l7.39,5.53c0,0,3.33,10.22-2.29,15.53l-9.78-5.93L190.94,145.2z"/>
	</g>
	<g id="XMLID_2117_">
		<path id="XMLID_1795_" style="fill:#91DBAC;" d="M63.41,354.31c0,0,7.3-5.45,11.97-15.22c4.84-10.12,0.53-18.95-6.24-17.67
			c-7.22,1.37-8.22-4.53-10.21-12.01c-2.39-8.96-13.98-21.73-23.44-20.45c-12.21,1.65-4.49,14.71-3.24,19.45
			c1.25,4.74,4.33,10.19-3.24,10.94c-6.89,0.68-9.91,6.94-4.54,13.34c5.11,6.09,10.67,6,10.92,12.19c0.25,6.19,4.1,7.93,7.34,9.42
			H63.41z"/>
		<path id="XMLID_2111_" style="fill:none;stroke:#3B55CE;stroke-width:1.05;stroke-linecap:round;stroke-miterlimit:10;" d="
			M40.58,299.78c0,0,16.63,21.71,12.43,54.53"/>
	</g>
	<g id="XMLID_2114_">
		<path id="XMLID_2113_" style="fill:#40C7A7;" d="M211.99,354.31c0,0,4.71-6.35,1.87-15.47c-3.67-11.79-14.61-17.25-10.66-24.97
			c3.28-6.42,13.1-3.17,18.3,5.48c5,8.31,5.38,25.84-2.51,34.95H211.99z"/>
		<path id="XMLID_2115_" style="fill:none;stroke:#3B55CE;stroke-width:1.05;stroke-linecap:round;stroke-miterlimit:10;" d="
			M210.91,317.24c0,0,15.07,16.3,5.2,37.07"/>
	</g>
	<g id="XMLID_2116_">
		<path id="XMLID_2110_" style="fill:#22A482;" d="M223.15,354.31c0,0,11.38-6.95,17.61-21.31c6.23-14.36,6.5-31.16,0-37.13
			c-6.08-5.57-13.28-2.17-15.18,7.59c-1.9,9.76,2.44,34.5-10.3,50.85H223.15z"/>
		<path id="XMLID_2112_" style="fill:none;stroke:#3B55CE;stroke-width:1.05;stroke-linecap:round;stroke-miterlimit:10;" d="
			M235.07,298.58c0,0,1.9,14.71-2.44,30.39c-4.34,15.68-12.47,25.34-12.47,25.34"/>
	</g>
	<g id="XMLID_1587_">
		<path id="XMLID_1526_" style="fill:#91DBAC;" d="M383.39,354.31c0,0,0.25-20.08-15.68-38.79c-15.93-18.71-34.15-25.41-49.89-19.73
			c-11.72,4.22-8.71,17.79,0.87,23.57c11.34,6.84,53.82,9.61,55.34,34.95H383.39z"/>
		<path id="XMLID_1552_" style="fill:none;stroke:#3B55CE;stroke-width:1.05;stroke-linecap:round;stroke-miterlimit:10;" d="
			M319.52,304.86c21.64-1.23,54.78,18.71,59.33,49.45"/>
	</g>
	<g id="XMLID_1535_">
		<path id="XMLID_1566_" style="fill:#3DC19A;" d="M388.34,354.31c0,0,10.48-11.17,8.46-32.7c-2.02-21.52-20.95-26.87-24.35-16.46
			c-2.68,8.19,15.76,27.25,9.18,49.16H388.34z"/>
		<path id="XMLID_1568_" style="fill:none;stroke:#3B55CE;stroke-width:1.05;stroke-linecap:round;stroke-miterlimit:10;" d="
			M381.62,306.67c4.06,5.26,11.87,26.77,3.9,47.64"/>
	</g>
	<path id="XMLID_2128_" style="fill:#638BE2;" d="M716.85,357H13.05c-1.48,0-2.69-1.2-2.69-2.69l0,0c0-1.48,1.2-2.69,2.69-2.69
		h703.8c1.48,0,2.69,1.2,2.69,2.69l0,0C719.54,355.8,718.33,357,716.85,357z"/>
	<g id="XMLID_2047_">
		<g id="XMLID_2203_">
			<g id="XMLID_2241_">
				<path id="XMLID_2258_" style="fill:#8FC9C6;" d="M206.48,348.77c0.43,0.82,0.1,2.47-3.18,3.84c-3.29,1.37-9.23,0.79-11.59,0.32
					s-3.8-1.15-7.29-0.42c-3.5,0.73-9.22,0.41-10.96-1.05c-0.6-0.7-0.2-2.13-0.2-2.13L206.48,348.77z"/>
				<g id="XMLID_2245_">
					<defs>
						<path id="SVGID_00000008848070045296250770000004506338739718342070_" d="M175.13,338.54c-0.48,2.4-2.43,8.04-1.87,10.79
							c2.46,2.08,7.71,2.22,11.66,1.23s6.72,1.03,11.67,1.32c4.86,0.28,8.9-1.07,9.9-3.1c1.08-2.22-7.4-3.93-13.18-5.71
							c-6.47-1.99-9.81-5.17-9.81-5.17L175.13,338.54z"/>
					</defs>
					<use xlink:href="#SVGID_00000008848070045296250770000004506338739718342070_"  style="overflow:visible;fill:#228C7E;"/>
					<clipPath id="SVGID_00000009589036266950553310000004734562668191325872_">
						<use xlink:href="#SVGID_00000008848070045296250770000004506338739718342070_"  style="overflow:visible;"/>
					</clipPath>
					
						<path id="XMLID_2255_" style="clip-path:url(#SVGID_00000009589036266950553310000004734562668191325872_);fill:none;stroke:#8FC9C6;stroke-width:0.525;stroke-linecap:round;stroke-miterlimit:10;" d="
						M185.45,343.17c0,0,1.16-3.26,2.72-4.32"/>
					
						<path id="XMLID_2252_" style="clip-path:url(#SVGID_00000009589036266950553310000004734562668191325872_);fill:none;stroke:#8FC9C6;stroke-width:0.525;stroke-linecap:round;stroke-miterlimit:10;" d="
						M189.85,344.92c0,0,1.16-3.26,2.72-4.32"/>
					
						<path id="XMLID_2249_" style="clip-path:url(#SVGID_00000009589036266950553310000004734562668191325872_);fill:none;stroke:#8FC9C6;stroke-width:0.525;stroke-linecap:round;stroke-miterlimit:10;" d="
						M194.25,346.66c0,0,1.16-3.26,2.72-4.32"/>
				</g>
				<path id="XMLID_2242_" style="fill:#FF9A8D;" d="M175.13,328.97v9.57c0,0,1.11,0.37,1.57,0.91c0.46,0.54,1.1,2.35,1.87,2.38
					c3.09,0.13,4.91-3.95,4.91-3.95l1.16-8.7L175.13,328.97z"/>
			</g>
			<g id="XMLID_2221_">
				<path id="XMLID_2238_" style="fill:#AAEEED;" d="M98.04,351.25c-0.68,0.64-2.36,0.75-4.54-2.05c-2.19-2.81-3.2-8.69-3.38-11.09
					c-0.18-2.4,0.1-3.97-1.53-7.14c-1.63-3.18-2.84-8.79-1.88-10.85c0.51-0.76,2.01-0.75,2.01-0.75L98.04,351.25z"/>
				<g id="XMLID_2225_">
					<defs>
						<path id="SVGID_00000153689971564496762210000011083506890069167021_" d="M99.61,318.32c-2.44,0.17-8.4-0.22-10.9,1.04
							c-1.36,2.92-0.1,8.03,1.9,11.57c2,3.54,0.79,6.75,1.81,11.6c1.01,4.76,3.38,8.31,5.61,8.72c2.43,0.46,1.84-8.18,2.02-14.22
							c0.21-6.76,2.4-10.83,2.4-10.83L99.61,318.32z"/>
					</defs>
					<use xlink:href="#SVGID_00000153689971564496762210000011083506890069167021_"  style="overflow:visible;fill:#03AA99;"/>
					<clipPath id="SVGID_00000032636914559816282890000003415234672395789973_">
						<use xlink:href="#SVGID_00000153689971564496762210000011083506890069167021_"  style="overflow:visible;"/>
					</clipPath>
					
						<path id="XMLID_2235_" style="clip-path:url(#SVGID_00000032636914559816282890000003415234672395789973_);fill:none;stroke:#AAEEED;stroke-width:0.525;stroke-linecap:round;stroke-miterlimit:10;" d="
						M97.87,329.49c0,0,3.45,0.26,4.88,1.48"/>
					
						<path id="XMLID_2232_" style="clip-path:url(#SVGID_00000032636914559816282890000003415234672395789973_);fill:none;stroke:#AAEEED;stroke-width:0.525;stroke-linecap:round;stroke-miterlimit:10;" d="
						M97.35,334.19c0,0,3.45,0.26,4.88,1.48"/>
					
						<path id="XMLID_2229_" style="clip-path:url(#SVGID_00000032636914559816282890000003415234672395789973_);fill:none;stroke:#AAEEED;stroke-width:0.525;stroke-linecap:round;stroke-miterlimit:10;" d="
						M96.83,338.9c0,0,3.45,0.26,4.88,1.48"/>
				</g>
				<path id="XMLID_2222_" style="fill:#FF9A8D;" d="M105.79,313.88l-6.18,4.44c0,0-0.06,1.16-0.46,1.75
					c-0.4,0.59-1.97,1.68-1.8,2.44c0.69,3.01,5.11,3.69,5.11,3.69l8.59-4.58L105.79,313.88z"/>
			</g>
			<path id="XMLID_2218_" style="fill:#1E4174;" d="M193.61,192.71c-10.71,0-18.69,0.81-18.69,0.81c-3.43,1.5-9.31,9.29-11.04,14.23
				c-1.73,4.95,0.84,11.85,1.74,16.1c5.03,23.69,10.18,40.15,12.13,49.54c1.19,5.74-3.06,6.66-3.1,15.76
				c-0.06,13.03,0.48,40.8,0.48,40.8s4.01,2.34,9.32,0.74c0,0,8.04-45.81,8.92-51.05c1.43-8.5,1.92-12.07,2.08-26.78
				C195.68,232.18,193.61,192.71,193.61,192.71z"/>
			<path id="XMLID_1899_" style="fill:#85B8ED;" d="M193.48,210.65c-1.79,8.39-13.81,18.47-13.81,18.47
				c-1.36,3.91-18.97,64.22-21.91,66.51c-2.94,2.28-46.71,25.98-46.71,25.98c-2.11-1.13-3.39-2.85-4.16-4.37
				c-0.59-1.2-0.88-2.28-1-2.87c-0.04-0.2-0.07-0.34-0.07-0.41c-0.02-0.05-0.02-0.09-0.02-0.09s22.41-23.7,27.7-26.23
				c5.77-2.76,9.01-3.51,9.01-3.51v-0.02c6.02-28.02,5.84-49.92,10.72-65.4c0.9-2.87,1.85-5.43,2.83-7.61
				c1.25-2.74,2.2-5.03,2.97-6.99c0.32-0.84,0.61-1.61,0.88-2.35c0.27-0.73,0.5-1.42,0.7-2.04c0.14-0.43,0.27-0.84,0.39-1.22
				c0.56-1.76,0.95-3.17,1.38-4.52c0.2-0.59,0.39-1.16,0.61-1.76c0.13-0.29,0.23-0.59,0.36-0.88c0.13-0.3,0.25-0.61,0.39-0.91h0.02
				v0.02l8.37,6.24l4.03,2.99L193.48,210.65z"/>
			<path id="XMLID_1849_" style="fill:#4E7EAC;" d="M176.15,199.69c-1.18,1.52-2.92,3.57-5.11,5.48
				c-6.22,5.41-9.97,13.83-13.29,31.27c-3.73,19.65-10,48.87-10.76,50.68c-0.73,1.81-6.27,1.13-16.38,8.51
				c-7.63,5.57-18.72,17.16-23.74,21.61c-0.59-1.2-0.88-2.28-1-2.87c-0.04-0.2-0.05-0.34-0.07-0.41c-0.02-0.05-0.02-0.09-0.02-0.09
				s22.41-23.7,27.7-26.23c5.77-2.76,9.01-3.51,9.01-3.51v-0.02c5.75-28.02,5.84-49.92,10.72-65.4c0.9-2.87,1.85-5.41,2.85-7.6
				c1.25-2.74,2.2-5.03,2.96-7.01c0.34-0.84,0.63-1.63,0.88-2.35c0.27-0.73,0.5-1.42,0.7-2.04c0.14-0.43,0.27-0.84,0.39-1.22
				c0.56-1.76,0.95-3.17,1.38-4.52c0.2-0.59,0.39-1.16,0.61-1.76c0.13-0.29,0.23-0.59,0.36-0.88c0.13-0.3,0.27-0.59,0.41-0.9v-0.02
				l8.37,6.25L176.15,199.69z"/>
			<path id="XMLID_2211_" style="fill:#4E7EAC;" d="M193.48,210.65c0,0-5.48,7.18-20.54,7.74c-10.41,0.39-17.03-3.78-17.03-3.78
				l4.06-6.37L193.48,210.65z"/>
			<g id="XMLID_2204_">
				<defs>
					<path id="SVGID_00000019649634500438169070000014007185141661297063_" d="M111.04,321.62c0,0,43.78-23.72,46.72-26
						s20.54-62.6,21.9-66.49c0,0,12.97-10.57,14.76-18.94l-29.98-19.63c-2.29,4.93-2.27,8.21-8.38,20.54
						c-5.83,11.77-7.94,44.92-13.55,73.02c0,0-3.24,0.77-9.01,3.52c-5.29,2.52-27.71,26.24-27.71,26.24S106.42,319.12,111.04,321.62
						z"/>
				</defs>
				<clipPath id="SVGID_00000133529103789839295010000015381441731209416585_">
					<use xlink:href="#SVGID_00000019649634500438169070000014007185141661297063_"  style="overflow:visible;"/>
				</clipPath>
				
					<path id="XMLID_2210_" style="clip-path:url(#SVGID_00000133529103789839295010000015381441731209416585_);fill:none;stroke:#274D79;stroke-width:0.525;stroke-miterlimit:10;" d="
					M187.16,194.16c-6.31,8.1-14.36,13-17.7,18.55c-3.34,5.55-5.21,17.56-9.54,39.48c-4.31,21.78-8.23,36.62-9.42,37.93
					c-1.19,1.31-8.58,2.61-20.13,10.35c-11.54,7.74-24.93,20.16-24.93,20.16"/>
				
					<path id="XMLID_2209_" style="clip-path:url(#SVGID_00000133529103789839295010000015381441731209416585_);fill:none;stroke:#274D79;stroke-width:0.525;stroke-miterlimit:10;" d="
					M180.18,213.33c0,0-2.5,13.79-14.77,11.48"/>
				
					<path id="XMLID_2208_" style="clip-path:url(#SVGID_00000133529103789839295010000015381441731209416585_);fill:none;stroke:#274D79;stroke-width:0.525;stroke-miterlimit:10;" d="
					M108.17,309.57c0.05,3.7,2.65,9.07,7.4,11.93"/>
			</g>
		</g>
		<g id="XMLID_2182_">
			<g id="XMLID_2192_">
				<polygon id="XMLID_2196_" style="fill:#FF9A8D;" points="178.25,131.12 188.62,140.01 194.57,125.9 182.22,118.77 				"/>
				<path id="XMLID_2193_" style="fill:#BA5964;" d="M192.81,130.08c0,0-12.23-3.43-10.6-11.31l12.35,7.13L192.81,130.08z"/>
			</g>
		</g>
		<path id="XMLID_2173_" style="fill:#FFC253;" d="M188.38,139.66c2.38,2.01,3.92,4.84,4.27,7.94c0.56,5.01,1.01,12.52,1.43,23.41
			c0.38,9.89,1.38,38.6,1.38,38.6s-7.57,4.97-20.3,3.95c-12.15-0.97-17.4-6.95-17.4-6.95s1.27-40.37,5.26-56.26
			c5.9-16.38,15.23-19.23,15.23-19.23L188.38,139.66z"/>
		<g id="XMLID_2155_">
			<path id="XMLID_2199_" style="fill:#BA5964;" d="M200.76,107.22c0.64,1.11,3.99,5.8,5.07,7.16c1.09,1.36-3.25,1.72-3.25,1.72
				L200.76,107.22z"/>
			<path id="XMLID_2189_" style="fill:#FF9A8D;" d="M182.22,118.77c0,0,0.7,1.61,1.43,2.82c0.73,1.21,10.91,5.33,13.59,5.66
				c2.69,0.33,6.25-0.22,5.54-9.18s-2.99-16.72-8.98-20.78c-5.99-4.06-14.38,0.37-18.01,6.12
				C172.16,109.15,176.03,120.42,182.22,118.77z"/>
			<path id="XMLID_2186_" style="fill:#001C45;" d="M182.22,118.77L182.22,118.77l-1.32,4.13c0,0-1.03,0.49-3.62-2.73
				c-2.84-3.53-8.02-9.55-7.51-13.38c0.67-5.02,6.42-6.83,6.42-6.83s2.93-9.28,14.4-14.21c11.47-4.93,16.54,3.37,7.72,9.49
				c0,0,6.13,3.06,2.26,5.39c-3.87,2.32-14.95,2.03-14.95,2.03s5.44,2.08,3.82,3.62c-1.62,1.54-8.63,0.9-8.63,0.9l0.88,3.53
				c0,0-2.86-0.88-4.4,0.98C175.43,113.9,178.27,119.93,182.22,118.77z"/>
			<path id="XMLID_2183_" style="fill:none;stroke:#001C45;stroke-width:0.7875;stroke-linecap:round;stroke-miterlimit:10;" d="
				M175.05,89.16c0,0-3.42,7.4,3,12.38c0,0-6.4-0.2-7.76-6.28"/>
			<g id="XMLID_2145_">
				<g id="XMLID_2152_">
					<path id="XMLID_2154_" style="fill:#001C45;" d="M196.26,109c-0.2-0.58-0.83-0.89-1.41-0.69c-0.58,0.2-0.89,0.83-0.69,1.4
						c0.2,0.58,0.83,0.89,1.4,0.69C196.15,110.2,196.46,109.57,196.26,109z"/>
					<path id="XMLID_2153_" style="fill:#001C45;" d="M196.35,105.96l-4.43,2.91c0,0-0.36-1.69,1.17-2.67
						C194.96,105,196.35,105.96,196.35,105.96z"/>
				</g>
				<path id="XMLID_2149_" style="fill:#BA5964;" d="M178.68,112.79c0.59-0.42,1.59-0.67,2.28-0.37c0.25,0.11-0.01,0.55-0.22,0.53
					c-1.24-0.1-2.62,0.23-2.81,1.69c-0.01,0.08-0.08,0.02-0.08-0.03C177.78,113.84,178.04,113.24,178.68,112.79z"/>
				<path id="XMLID_2146_" style="fill:#BA5964;" d="M179.23,112.74c0.11-0.09,0.48,0.14,0.48,0.23c-0.16,0.14-0.39,0.43-0.46,0.71
					c-0.12,0.49-0.09,0.87,0.09,1.34c0.4,1.09,1.26,1.72,2.42,1.66c0.02,0,0.07,0.05,0.04,0.06c-0.88,0.5-2.23-0.18-2.69-0.96
					C178.6,114.92,178.29,113.56,179.23,112.74z"/>
			</g>
		</g>
		<path id="XMLID_1534_" style="fill:#E09736;" d="M173.75,140.1c-2.51,1.33-5.81,8.57-3.47,16.4c2.34,7.83,5.38,15.9,5.38,15.9
			s12.09-2.86,15.28-10.56c0,0-4.27-10.44-6.26-14.66C182.69,142.96,180.09,136.75,173.75,140.1z"/>
		<path id="XMLID_1578_" style="fill:#E09736;" d="M186.41,185.55c2.71,2.71,6.41,5.69,8.47,6.51c-0.16-4.56-0.33-8.42-0.49-12.65
			l-9.05-12.02l-5.95-1.61l-2.14,6.17C177.25,171.95,182.07,181.22,186.41,185.55z"/>
		<path id="XMLID_1480_" style="fill:#FF9A8D;" d="M176.61,140.01c-5.72,1.52-7.67,9.72-1.91,22.43
			c5.52,12.18,14.41,23.33,19.88,27.14c5.47,3.81,26.64,2.55,44.35-2.68c0,0,10.09-3.62,12.9-6.11c6.25-5.54,6.56-12.9,1.97-11.8
			c-4.59,1.09-11.84,6.07-11.84,6.07s-1.92-3.79-3.32-6.74c0,0-1.24,0.32-1.68,2.95c-0.44,2.62-0.4,6.28-1.16,6.81
			c-2.03,1.42-30.42,3.81-33.81,0.47c-3.84-3.78-9.4-13.82-13.35-23.09C184.26,145.2,182.46,138.46,176.61,140.01z"/>
		<path id="XMLID_1520_" style="fill:#FFC253;" d="M174.69,138.73c-2.51,1.33-5.81,8.57-3.47,16.4c2.34,7.83,5.38,15.9,5.38,15.9
			s11.35-1.72,16.17-8.24c0,0-5.17-12.76-7.16-16.99C183.64,141.59,181.04,135.38,174.69,138.73z"/>
	</g>
</g>
<g id="Designed_by_Freepik">
</g>
</svg>
