<?xml version="1.0" encoding="utf-8"?>
<!-- Generator: Adobe Illustrator 26.1.0, SVG Export Plug-In . SVG Version: 6.00 Build 0)  -->
<svg version="1.1" id="Layer_1" xmlns="http://www.w3.org/2000/svg" xmlns:xlink="http://www.w3.org/1999/xlink" x="0px" y="0px"
	 viewBox="0 0 888 512.37" style="enable-background:new 0 0 888 512.37;" xml:space="preserve">
<polygon style="fill:#FFB8B8;" points="789.61,497.57 775.53,497.57 768.84,443.26 789.62,443.26 "/>
<path style="fill:#2F2E41;" d="M793.21,511.22l-45.4,0v-0.57c0-9.76,7.91-17.67,17.67-17.67h0l27.73,0L793.21,511.22z"/>
<polygon style="fill:#FFB8B8;" points="851.76,462.95 842.62,473.66 796.96,443.51 810.45,427.7 "/>
<path style="fill:#2F2E41;" d="M864.47,469.08L835,503.61l-0.44-0.37c-7.42-6.33-8.31-17.49-1.97-24.91l0,0l18-21.09L864.47,469.08z
	"/>
<polygon style="fill:#2F2E41;" points="689.64,230.49 685.26,270.91 862.43,268.38 785.17,142.49 722.08,140.22 "/>
<polygon style="opacity:0.28;enable-background:new    ;" points="689.64,230.49 685.26,270.91 862.43,268.38 785.17,142.49 
	722.08,140.22 "/>
<path style="fill:#2F2E41;" d="M724.48,237.43l-6.25,36.98v33.06l50.43,16.46c0,0-5.9,128.4,1.97,136.58l-0.19,19.74l22,1
	l0.18-13.89l9.33-103.86l5.49-76.25l-8.91-57.81L724.48,237.43z"/>
<path style="fill:#2F2E41;" d="M763.55,269.27l-45.33,38.21c0,0-2.65,68.93,4.08,77.02c5.79,6.94,81.04,66.83,81.04,66.83
	s13.37,12.27,20.87,12.46s16.21-15.52,16.21-15.52l-17.36-13.19c0,0-44.97-41.98-58.32-58.67c-5.39-6.74-5.39-7.41-5.39-7.41
	l1.84-28.01l18.53-51.99L763.55,269.27z"/>
<polygon style="fill:#2F2E41;" points="715.43,86.26 695.89,84.45 678.16,87.41 640.63,87.42 637.43,114.62 671.68,122.29 
	680.03,118.2 714.83,131.45 "/>
<path style="fill:#CCCCCC;" d="M738.77,86.17c0,0,41.47-3.89,50.9,3.52s29.64,154.27,29.64,154.27l-80.55,4.55l-14.44-9.94
	l4.1-73.32L738.77,86.17z"/>
<polygon style="fill:#2F2E41;" points="751.43,85.26 705.68,86.26 663.03,278.99 696.71,286.41 "/>
<polygon style="fill:#2F2E41;" points="783.95,83.63 819.99,94.91 817.94,174.1 862.43,268.77 810.13,274.28 768.79,172.05 "/>
<path style="fill:#FFB8B8;" d="M843.38,278.39c4.77-4.2,5.24-11.48,1.03-16.25c-0.45-0.51-0.94-0.98-1.47-1.4l7.25-25.29
	l-14.29-8.15l-9.74,35.86c-3.64,5.25-2.34,12.47,2.92,16.11C833.47,282.31,839.39,281.95,843.38,278.39L843.38,278.39z"/>
<path style="fill:#2F2E41;" d="M799.11,97.11l21.32-1.85c0,0,19.14,20.02,23.5,35.52s9.07,64.01,9.07,64.01l-1.97,70.96
	l-24.93-16.93l-1.67-61.03L799.11,97.11z"/>
<ellipse transform="matrix(0.4797 -0.8775 0.8775 0.4797 358.1367 697.8226)" style="fill:#FFB8B8;" cx="767.44" cy="46.95" rx="30.23" ry="30.23"/>
<path style="fill:#2F2E41;" d="M764.07,34.33c-3.97-0.92-8.08,0.1-12.1,0.76s-8.44,0.88-11.84-1.37c-2.51-1.66-4.05-4.39-5.5-7.03
	c-0.6-0.94-1.01-2-1.18-3.1c-0.17-1.95,1.07-3.73,2.38-5.17c6.11-6.72,15.04-10.4,24.05-11.56c7.43-1.11,15.02-0.18,21.96,2.68
	c6.84,3,12.72,8.49,15.4,15.46c1.24,3.57,2.01,7.27,2.3,11.04c0.41,2.77,0.46,5.58,0.16,8.36c-0.36,2.06-0.9,4.09-1.62,6.06
	l-4.45,13.45c-0.32,1.27-0.92,2.45-1.75,3.47c-0.88,1.02-2.32,1.33-3.55,0.78c0.36-1.46,0.41-2.98,0.16-4.46
	c-0.29-1.51-1.46-2.7-2.97-2.99c-1.64-0.17-3.04,1.1-4.6,1.65c-3,0.89-6.15-0.82-7.03-3.82c-0.04-0.14-0.08-0.29-0.11-0.44
	c-0.25-1.54,0.17-3.18-0.42-4.63c-0.68-1.69-2.49-2.58-3.85-3.79c-2.53-2.34-3.48-5.93-2.43-9.22c0.36-1.12,1.39-1.63,1.19-2.91
	C767.99,35.84,765.5,34.66,764.07,34.33z"/>
<g>
	<path style="fill:#FFFFFF;" d="M490.41,257.47H272.59V18.75h217.81V257.47z"/>
	<path style="fill:#3F3D56;" d="M490.41,257.47H272.59V18.75h217.81V257.47z M274.34,255.73h214.33V20.49H274.34V255.73z"/>
	<rect x="415.48" y="234.92" style="fill:#3F3D56;" width="45.31" height="1.84"/>
	<rect x="415.48" y="240.43" style="fill:#3F3D56;" width="45.31" height="1.84"/>
	<rect x="415.48" y="245.94" style="fill:#3F3D56;" width="45.31" height="1.84"/>
	<path style="fill:#E6E6E6;" d="M381.5,61.44v19.17c31.76,0,57.5,25.75,57.5,57.5c0,15.25-6.06,29.88-16.84,40.66l13.55,13.55
		c29.94-29.94,29.94-78.49,0-108.43C421.34,69.52,401.84,61.44,381.5,61.44z"/>
	<path style="fill:#575A89;" d="M435.72,192.32l-13.55-13.55c-20.33,20.34-52.56,22.52-75.45,5.12l-11.6,15.27
		C365.63,222.35,408.6,219.43,435.72,192.32z"/>
	<path style="fill:#6C63FF;" d="M324,138.11c0-31.76,25.75-57.5,57.5-57.5l0,0V61.44c-42.34,0-76.67,34.33-76.67,76.67
		c0,23.96,11.2,46.54,30.28,61.04l11.6-15.27C332.39,173.02,323.98,156.08,324,138.11z"/>
</g>
<path style="fill:#FFFFFF;" d="M703.77,344.63H485.96V105.9h217.81V344.63z"/>
<path style="fill:#3F3D56;" d="M703.77,344.63H485.96V105.9h217.81V344.63z M487.7,342.89h214.33V107.65H487.7V342.89z"/>
<rect x="517.32" y="251.84" style="fill:#575A89;" width="39.21" height="62.73"/>
<rect x="573.95" y="209.15" style="fill:#E6E6E6;" width="39.21" height="105.42"/>
<rect x="630.59" y="159.49" style="fill:#6C63FF;" width="39.21" height="155.08"/>
<polygon style="fill:#3F3D56;" points="682.86,316.31 506.87,316.31 506.87,134.22 508.61,134.22 508.61,314.57 682.86,314.57 "/>
<circle style="fill:#FFB8B8;" cx="640.43" cy="100.26" r="12"/>
<path style="fill:#CCCCCC;" d="M887,512.37H700c-0.55,0-1-0.45-1-1s0.45-1,1-1h187c0.55,0,1,0.45,1,1S887.55,512.37,887,512.37z"/>
<g>
	<path style="fill:#FFFFFF;" d="M394.56,430.83H12.95V192.1h381.61V430.83z"/>
	<path style="fill:#3F3D56;" d="M394.56,430.83H12.95V192.1h381.61V430.83z M14.69,429.09h378.13V193.85H14.69V429.09z"/>
	<path style="fill:#3F3D56;" d="M341.57,380.9H65.95c-0.48,0-0.86-0.39-0.86-0.86v-132.1c0-0.48,0.39-0.86,0.87-0.86
		c0.47,0,0.86,0.39,0.86,0.86v131.24h274.76c0.48,0,0.86,0.38,0.87,0.86C342.44,380.51,342.05,380.9,341.57,380.9
		C341.57,380.9,341.57,380.9,341.57,380.9L341.57,380.9z"/>
	<path style="fill:#6C63FF;" d="M124.84,371.41H99.77c-1.41,0-2.56-1.15-2.56-2.56V334.3c0-1.41,1.15-2.56,2.56-2.56h25.07
		c1.41,0,2.56,1.15,2.56,2.56v34.56C127.39,370.27,126.25,371.41,124.84,371.41z"/>
	<path style="fill:#6C63FF;" d="M170.55,371.41h-25.07c-1.41,0-2.56-1.15-2.56-2.56v-67.33c0-1.41,1.15-2.56,2.56-2.56h25.07
		c1.41,0,2.56,1.15,2.56,2.56v67.33C173.11,370.27,171.96,371.41,170.55,371.41z"/>
	<path style="fill:#6C63FF;" d="M216.27,371.41H191.2c-1.41,0-2.56-1.15-2.56-2.56V334.3c0-1.41,1.15-2.56,2.56-2.56h25.07
		c1.41,0,2.56,1.15,2.56,2.56v34.56C218.83,370.27,217.68,371.41,216.27,371.41z"/>
	<path style="fill:#6C63FF;" d="M261.98,371.41h-25.07c-1.38,0.03-2.53-1.06-2.56-2.44v-80.5c0.03-1.38,1.18-2.47,2.56-2.44h25.07
		c1.38-0.03,2.53,1.06,2.56,2.44v80.5C264.51,370.35,263.36,371.44,261.98,371.41z"/>
	<path style="fill:#6C63FF;" d="M307.7,371.41h-25.07c-1.41,0-2.56-1.15-2.56-2.56V265.29c0-1.41,1.15-2.56,2.56-2.56h25.07
		c1.41,0,2.56,1.15,2.56,2.56v103.56C310.26,370.27,309.11,371.41,307.7,371.41z"/>
	<circle style="fill:#3F3D56;" cx="112.3" cy="316.21" r="5.18"/>
	<circle style="fill:#3F3D56;" cx="158.02" cy="282.57" r="5.18"/>
	<circle style="fill:#3F3D56;" cx="203.73" cy="316.21" r="5.18"/>
	<circle style="fill:#3F3D56;" cx="249.45" cy="266.18" r="5.18"/>
	<circle style="fill:#3F3D56;" cx="295.16" cy="247.2" r="5.18"/>
	<polygon style="fill:#3F3D56;" points="203.84,317.37 158.02,283.05 112.82,316.9 111.78,315.52 158.02,280.89 203.62,315.05 
		248.94,265.45 249.13,265.38 294.84,246.96 295.49,248.56 249.95,266.91 	"/>
</g>
</svg>
