<?xml version="1.0" encoding="utf-8"?>
<!-- Generator: Adobe Illustrator 26.1.0, SVG Export Plug-In . SVG Version: 6.00 Build 0)  -->
<svg version="1.1" xmlns="http://www.w3.org/2000/svg" xmlns:xlink="http://www.w3.org/1999/xlink" x="0px" y="0px" width="500"
	 viewBox="0 0 500 500" style="enable-background:new 0 0 500 500;" xml:space="preserve">
<g id="BACKGROUND">
</g>
<g id="OBJECTS">
	<g>
		<defs>
			<rect id="SVGID_1_" width="500" height="500"/>
		</defs>
		<clipPath id="SVGID_00000146482315523325831340000008368383398164195486_">
			<use xlink:href="#SVGID_1_"  style="overflow:visible;"/>
		</clipPath>
		<g style="clip-path:url(#SVGID_00000146482315523325831340000008368383398164195486_);">
			<path style="fill:#DBE0FC;" d="M405.01,409.77c-3.03,1.59-6.18,2.95-9.43,4.06c-16.63,5.66-41.39,5.21-55.15-7.08
				c-22.37-19.97,3.44-43.24,21.04-54.51c11.12-7.12,21.95-15.21,34.62-18.95c12.67-3.73,28.02-2.05,36.57,8.02
				c9.51,11.2,7.28,28.56,0.15,41.41C426.45,394.18,416.62,403.67,405.01,409.77z"/>
			<g>
				<path style="fill:#DBE0FC;" d="M52.5,347.07c-5.45-17.5-6.61-35.98-1.99-54.02c9.23-36.05,35.56-58.01,66.3-76.07
					c33.68-19.79,73.83-26.3,105.07-51.46c29.73-23.94,48.44-59.77,79.33-82.19c31.48-22.85,78.45-32.57,112.46-9.64
					c21.76,14.67,35.65,39.8,38.33,65.91c2.52,24.6-7.81,53.98-25.43,71.76c-14.78,14.91-37.04,22.63-56.99,27.32
					c-39.82,9.37-95.05,7.1-110.8,52.02c-5.13,14.62-3.95,30.58-4.95,46.04c-1.68,25.74-9.99,51.55-26.58,71.3
					c-16.59,19.76-42.01,32.76-67.76,31.25c-16.48-0.97-32.19-7.61-46.27-16.22C85.12,405.9,62.12,378,52.5,347.07z"/>
			</g>
		</g>
		<g style="clip-path:url(#SVGID_00000146482315523325831340000008368383398164195486_);">
			<g>
				<g id="xsrjP0_3_">
					<g>
						<path style="fill-rule:evenodd;clip-rule:evenodd;fill:#D89CC7;" d="M392.61,164.02c-0.67-0.31-1.19-0.93-1.48-1.62
							c-1.03-2.38-0.69-5.11-0.17-7.65c0.05-0.23,0.1-0.46,0.25-0.64c1.17-1.36,2.6-2.23,3.62-3.79c0.67-1.02,1.15-2.15,1.5-3.32
							c0.28-0.95,0.12-2.97,0.64-3.72c1.52-2.17,2.82,2.3,2.95,3.34c0.12,1.01-0.24,1.99-0.36,2.99c-0.09,0.73-0.26,1.45-0.39,2.19
							c0.18,0.13,0.39,0.06,0.58,0.06c2.24,0,4.49-0.01,6.73-0.02c0.95,0,1.41,0.27,1.54,0.89c0.16,0.78-0.25,1.58-0.97,1.95
							c-0.17,0.09-0.47,0.01-0.49,0.27c-0.02,0.27,0.29,0.24,0.45,0.35c0.81,0.55,0.67,1.7-0.27,2.37
							c-0.23,0.16-0.66,0.09-0.67,0.42c0,0.26,0.41,0.26,0.59,0.45c0.66,0.65,0.34,1.86-0.64,2.35c-0.13,0.06-0.28,0.07-0.39,0.15
							c-0.11,0.08-0.22,0.16,0,0.31c0.97,0.69,0.96,1.66-0.02,2.37c-0.1,0.07-0.19,0.14-0.29,0.21c-0.35,0.26-0.77,0.26-1.18,0.26
							c-3.52,0.02-7.04,0.03-10.56,0.04C393.22,164.23,392.9,164.16,392.61,164.02z"/>
						<path style="fill-rule:evenodd;clip-rule:evenodd;fill:#D89CC7;" d="M384.94,159.19c-0.01-1.69-0.01-3.38-0.02-5.06
							c0-0.34,0.02-0.51,0.3-0.51c1.39,0.02,2.77,0.02,4.15-0.01c0.27,0,0.31,0.13,0.31,0.49c0,3.4,0.01,6.79,0.04,10.19
							c0,0.43-0.08,0.55-0.37,0.55c-1.34-0.02-2.69-0.02-4.03,0.02c-0.33,0.01-0.38-0.16-0.38-0.6
							C384.96,162.57,384.94,160.88,384.94,159.19z"/>
					</g>
				</g>
			</g>
			<g>
				<g id="xsrjP0_4_">
					<g>
						<path style="fill-rule:evenodd;clip-rule:evenodd;fill:#D89CC7;" d="M136.28,145.95c-0.54-0.25-0.96-0.75-1.2-1.31
							c-0.83-1.92-0.56-4.13-0.13-6.18c0.04-0.18,0.08-0.37,0.2-0.52c0.94-1.1,2.1-1.8,2.93-3.06c0.54-0.82,0.93-1.74,1.21-2.68
							c0.22-0.76,0.09-2.4,0.52-3.01c1.23-1.76,2.28,1.86,2.38,2.7c0.1,0.81-0.19,1.61-0.29,2.41c-0.07,0.59-0.21,1.17-0.32,1.77
							c0.14,0.1,0.31,0.05,0.47,0.05c1.81,0,3.63-0.01,5.44-0.02c0.76,0,1.14,0.22,1.25,0.72c0.13,0.63-0.2,1.27-0.78,1.57
							c-0.14,0.07-0.38,0.01-0.4,0.22c-0.02,0.22,0.24,0.19,0.36,0.28c0.66,0.45,0.54,1.38-0.22,1.92
							c-0.18,0.13-0.54,0.07-0.54,0.34c0,0.21,0.33,0.21,0.48,0.36c0.53,0.52,0.27,1.5-0.52,1.9c-0.1,0.05-0.23,0.06-0.32,0.12
							c-0.09,0.06-0.18,0.13,0,0.25c0.79,0.56,0.77,1.34-0.02,1.91c-0.08,0.06-0.16,0.11-0.24,0.17c-0.29,0.21-0.63,0.21-0.95,0.21
							c-2.84,0.02-5.69,0.02-8.53,0.03C136.77,146.12,136.51,146.06,136.28,145.95z"/>
						<path style="fill-rule:evenodd;clip-rule:evenodd;fill:#D89CC7;" d="M130.08,142.05c0-1.36,0-2.73-0.02-4.09
							c0-0.28,0.02-0.41,0.25-0.41c1.12,0.02,2.24,0.01,3.35-0.01c0.22,0,0.25,0.11,0.25,0.4c0,2.74,0.01,5.49,0.03,8.23
							c0,0.35-0.06,0.45-0.3,0.44c-1.09-0.01-2.17-0.01-3.25,0.01c-0.27,0.01-0.31-0.13-0.31-0.48
							C130.09,144.78,130.08,143.41,130.08,142.05z"/>
					</g>
				</g>
			</g>
			<g>
				<g id="xsrjP0_1_">
					<g>
						<path style="fill-rule:evenodd;clip-rule:evenodd;fill:#D89CC7;" d="M267.89,342.33c-0.66-0.3-1.16-0.91-1.46-1.59
							c-1.01-2.33-0.68-5.02-0.16-7.51c0.05-0.22,0.1-0.46,0.25-0.63c1.15-1.34,2.55-2.19,3.55-3.72c0.65-1,1.13-2.11,1.47-3.26
							c0.27-0.93,0.11-2.91,0.63-3.65c1.49-2.13,2.77,2.26,2.89,3.28c0.12,0.99-0.23,1.95-0.35,2.93c-0.09,0.72-0.25,1.42-0.39,2.15
							c0.17,0.13,0.38,0.06,0.57,0.06c2.2,0,4.4-0.01,6.61-0.02c0.93,0,1.38,0.26,1.51,0.88c0.16,0.77-0.24,1.55-0.95,1.91
							c-0.16,0.08-0.46,0.01-0.48,0.27c-0.02,0.26,0.29,0.23,0.44,0.34c0.8,0.54,0.65,1.67-0.27,2.33
							c-0.22,0.16-0.65,0.09-0.66,0.41c0,0.26,0.4,0.26,0.58,0.44c0.65,0.63,0.33,1.82-0.63,2.3c-0.12,0.06-0.28,0.07-0.39,0.15
							c-0.11,0.07-0.22,0.16,0,0.31c0.96,0.68,0.94,1.63-0.02,2.32c-0.09,0.07-0.19,0.14-0.29,0.21c-0.35,0.26-0.76,0.25-1.16,0.26
							c-3.45,0.02-6.91,0.03-10.36,0.04C268.48,342.54,268.17,342.46,267.89,342.33z"/>
						<path style="fill-rule:evenodd;clip-rule:evenodd;fill:#D89CC7;" d="M260.35,337.6c-0.01-1.66-0.01-3.31-0.02-4.97
							c0-0.34,0.02-0.5,0.3-0.5c1.36,0.02,2.72,0.02,4.07-0.01c0.27,0,0.31,0.13,0.31,0.48c0,3.33,0.01,6.66,0.03,10
							c0,0.42-0.07,0.54-0.36,0.54c-1.32-0.02-2.64-0.02-3.95,0.02c-0.33,0.01-0.37-0.16-0.37-0.59
							C260.37,340.91,260.36,339.25,260.35,337.6z"/>
					</g>
				</g>
			</g>
			<g>
				<g id="xsrjP0_2_">
					<g>
						<path style="fill-rule:evenodd;clip-rule:evenodd;fill:#D89CC7;" d="M244.56,318.82c-0.61-0.28-1.08-0.85-1.35-1.48
							c-0.94-2.17-0.63-4.66-0.15-6.97c0.04-0.21,0.09-0.42,0.23-0.58c1.06-1.24,2.37-2.03,3.3-3.45c0.61-0.93,1.05-1.96,1.36-3.02
							c0.25-0.86,0.11-2.7,0.58-3.39c1.38-1.98,2.57,2.09,2.68,3.04c0.11,0.92-0.22,1.81-0.33,2.72c-0.08,0.66-0.23,1.32-0.36,2
							c0.16,0.12,0.35,0.06,0.52,0.06c2.04,0,4.09-0.01,6.13-0.02c0.86,0,1.28,0.24,1.41,0.81c0.15,0.71-0.22,1.44-0.88,1.78
							c-0.15,0.08-0.43,0.01-0.45,0.25c-0.02,0.24,0.27,0.22,0.41,0.32c0.74,0.51,0.61,1.55-0.25,2.16
							c-0.21,0.15-0.61,0.08-0.61,0.38c0,0.24,0.37,0.24,0.54,0.41c0.6,0.59,0.31,1.69-0.58,2.14c-0.11,0.06-0.26,0.07-0.36,0.14
							c-0.1,0.07-0.2,0.15,0,0.28c0.89,0.63,0.87,1.51-0.02,2.16c-0.09,0.06-0.18,0.13-0.27,0.19c-0.32,0.24-0.71,0.24-1.08,0.24
							c-3.21,0.02-6.41,0.03-9.62,0.03C245.11,319.01,244.82,318.95,244.56,318.82z"/>
						<path style="fill-rule:evenodd;clip-rule:evenodd;fill:#D89CC7;" d="M237.56,314.42c-0.01-1.54-0.01-3.08-0.02-4.61
							c0-0.31,0.02-0.47,0.28-0.46c1.26,0.02,2.52,0.01,3.78-0.01c0.25,0,0.29,0.12,0.29,0.45c0,3.09,0.01,6.19,0.03,9.28
							c0,0.39-0.07,0.51-0.33,0.5c-1.22-0.02-2.45-0.02-3.67,0.02c-0.3,0.01-0.35-0.15-0.34-0.55
							C237.58,317.5,237.57,315.96,237.56,314.42z"/>
					</g>
				</g>
			</g>
			<g>
				<g>
					<g>
						
							<line style="fill:none;stroke:#000000;stroke-width:0.5;stroke-linecap:round;stroke-miterlimit:10;" x1="296.99" y1="85.17" x2="300.47" y2="90.06"/>
						
							<line style="fill:none;stroke:#000000;stroke-width:0.5;stroke-linecap:round;stroke-miterlimit:10;stroke-dasharray:12.7709,5.3212;" x1="303.56" y1="94.39" x2="344.02" y2="151.15"/>
						<polyline style="fill:none;stroke:#000000;stroke-width:0.5;stroke-linecap:round;stroke-miterlimit:10;" points="
							345.57,153.32 349.05,158.21 344.91,162.55 						"/>
						
							<line style="fill:none;stroke:#000000;stroke-width:0.5;stroke-linecap:round;stroke-miterlimit:10;stroke-dasharray:11.9672,4.9863;" x1="341.47" y1="166.16" x2="273.06" y2="238.04"/>
						
							<line style="fill:none;stroke:#000000;stroke-width:0.5;stroke-linecap:round;stroke-miterlimit:10;" x1="271.34" y1="239.85" x2="267.21" y2="244.19"/>
					</g>
				</g>
				<g>
					<g>
						
							<line style="fill:none;stroke:#000000;stroke-width:0.5;stroke-linecap:round;stroke-miterlimit:10;" x1="349.05" y1="158.21" x2="343.05" y2="157.94"/>
						
							<polyline style="fill:none;stroke:#000000;stroke-width:0.5;stroke-linecap:round;stroke-miterlimit:10;stroke-dasharray:11.6607,4.8587;" points="
							338.2,157.72 244.93,153.54 135.61,106.62 						"/>
						
							<line style="fill:none;stroke:#000000;stroke-width:0.5;stroke-linecap:round;stroke-miterlimit:10;" x1="133.38" y1="105.67" x2="127.87" y2="103.3"/>
					</g>
				</g>
				<g>
					<g>
						
							<line style="fill:none;stroke:#000000;stroke-width:0.5;stroke-linecap:round;stroke-miterlimit:10;" x1="43.44" y1="210.52" x2="49.21" y2="208.88"/>
						
							<line style="fill:none;stroke:#000000;stroke-width:0.5;stroke-linecap:round;stroke-miterlimit:10;stroke-dasharray:12.5107,5.2128;" x1="54.22" y1="207.46" x2="239.24" y2="154.86"/>
						<polyline style="fill:none;stroke:#000000;stroke-width:0.5;stroke-linecap:round;stroke-miterlimit:10;" points="
							241.75,154.15 247.52,152.51 248.64,158.4 						"/>
						
							<line style="fill:none;stroke:#000000;stroke-width:0.5;stroke-linecap:round;stroke-miterlimit:10;stroke-dasharray:10.9836,4.5765;" x1="249.5" y1="162.9" x2="263.59" y2="237.09"/>
						
							<line style="fill:none;stroke:#000000;stroke-width:0.5;stroke-linecap:round;stroke-miterlimit:10;" x1="264.01" y1="239.33" x2="265.13" y2="245.23"/>
					</g>
				</g>
				<g>
					<g>
						
							<line style="fill:none;stroke:#000000;stroke-width:0.5;stroke-linecap:round;stroke-miterlimit:10;" x1="205.31" y1="326.81" x2="208.11" y2="332.12"/>
						
							<line style="fill:none;stroke:#000000;stroke-width:0.5;stroke-linecap:round;stroke-miterlimit:10;stroke-dasharray:12.8123,5.3384;" x1="210.6" y1="336.84" x2="251.76" y2="414.71"/>
						
							<line style="fill:none;stroke:#000000;stroke-width:0.5;stroke-linecap:round;stroke-miterlimit:10;" x1="253.01" y1="417.07" x2="255.81" y2="422.38"/>
					</g>
				</g>
				<g>
					<g>
						
							<line style="fill:none;stroke:#000000;stroke-width:0.5;stroke-linecap:round;stroke-miterlimit:10;" x1="300.88" y1="78.96" x2="306.33" y2="81.46"/>
						
							<line style="fill:none;stroke:#000000;stroke-width:0.5;stroke-linecap:round;stroke-miterlimit:10;stroke-dasharray:12.1459,5.0608;" x1="310.93" y1="83.57" x2="433.75" y2="139.89"/>
						<polyline style="fill:none;stroke:#000000;stroke-width:0.5;stroke-linecap:round;stroke-miterlimit:10;" points="
							436.05,140.94 441.51,143.44 441.55,149.44 						"/>
						
							<line style="fill:none;stroke:#000000;stroke-width:0.5;stroke-linecap:round;stroke-miterlimit:10;stroke-dasharray:11.8123,4.9218;" x1="441.58" y1="154.37" x2="442.23" y2="252.31"/>
						<polyline style="fill:none;stroke:#000000;stroke-width:0.5;stroke-linecap:round;stroke-miterlimit:10;" points="
							442.25,254.77 442.28,260.77 436.29,260.57 						"/>
						
							<line style="fill:none;stroke:#000000;stroke-width:0.5;stroke-linecap:round;stroke-miterlimit:10;stroke-dasharray:11.487,4.7862;" x1="431.5" y1="260.41" x2="271.26" y2="255.02"/>
						<polyline style="fill:none;stroke:#000000;stroke-width:0.5;stroke-linecap:round;stroke-miterlimit:10;" points="
							268.86,254.94 262.87,254.74 258.63,258.99 						"/>
						
							<polyline style="fill:none;stroke:#000000;stroke-width:0.5;stroke-linecap:round;stroke-miterlimit:10;stroke-dasharray:11.4356,4.7649;" points="
							255.27,262.36 205.22,312.57 136.5,335.78 						"/>
						
							<line style="fill:none;stroke:#000000;stroke-width:0.5;stroke-linecap:round;stroke-miterlimit:10;" x1="134.24" y1="336.54" x2="128.56" y2="338.47"/>
					</g>
				</g>
				<g>
					<g>
						
							<line style="fill:none;stroke:#000000;stroke-width:0.5;stroke-linecap:round;stroke-miterlimit:10;" x1="127.18" y1="346.75" x2="132.45" y2="349.62"/>
						
							<line style="fill:none;stroke:#000000;stroke-width:0.5;stroke-linecap:round;stroke-miterlimit:10;stroke-dasharray:11.3601,4.7334;" x1="136.61" y1="351.87" x2="247.68" y2="412.17"/>
						<polyline style="fill:none;stroke:#000000;stroke-width:0.5;stroke-linecap:round;stroke-miterlimit:10;" points="
							249.76,413.3 255.03,416.16 259.67,412.35 						"/>
						
							<line style="fill:none;stroke:#000000;stroke-width:0.5;stroke-linecap:round;stroke-miterlimit:10;stroke-dasharray:12.0245,5.0102;" x1="263.54" y1="409.17" x2="432.61" y2="270.06"/>
						
							<line style="fill:none;stroke:#000000;stroke-width:0.5;stroke-linecap:round;stroke-miterlimit:10;" x1="434.54" y1="268.46" x2="439.18" y2="264.65"/>
					</g>
				</g>
				<g>
					<g>
						
							<line style="fill:none;stroke:#000000;stroke-width:0.5;stroke-linecap:round;stroke-miterlimit:10;" x1="258.92" y1="256.88" x2="253.05" y2="255.64"/>
						
							<line style="fill:none;stroke:#000000;stroke-width:0.5;stroke-linecap:round;stroke-miterlimit:10;stroke-dasharray:12.2166,5.0902;" x1="248.07" y1="254.58" x2="47.39" y2="212.04"/>
						<polyline style="fill:none;stroke:#000000;stroke-width:0.5;stroke-linecap:round;stroke-miterlimit:10;" points="
							44.9,211.51 39.03,210.26 42.79,205.59 						"/>
						
							<line style="fill:none;stroke:#000000;stroke-width:0.5;stroke-linecap:round;stroke-miterlimit:10;stroke-dasharray:12.1552,5.0647;" x1="45.97" y1="201.64" x2="119.93" y2="109.69"/>
						<polyline style="fill:none;stroke:#000000;stroke-width:0.5;stroke-linecap:round;stroke-miterlimit:10;" points="
							121.52,107.72 125.28,103.04 131.25,102.42 						"/>
						
							<line style="fill:none;stroke:#000000;stroke-width:0.5;stroke-linecap:round;stroke-miterlimit:10;stroke-dasharray:12.2005,5.0835;" x1="136.3" y1="101.89" x2="288.49" y2="86.06"/>
						<polyline style="fill:none;stroke:#000000;stroke-width:0.5;stroke-linecap:round;stroke-miterlimit:10;" points="
							291.02,85.79 296.99,85.17 291.59,87.79 						"/>
						
							<line style="fill:none;stroke:#000000;stroke-width:0.5;stroke-linecap:round;stroke-miterlimit:10;stroke-dasharray:11.7843,4.9101;" x1="287.18" y1="89.94" x2="49.14" y2="205.62"/>
						
							<line style="fill:none;stroke:#000000;stroke-width:0.5;stroke-linecap:round;stroke-miterlimit:10;" x1="46.93" y1="206.69" x2="41.54" y2="209.31"/>
					</g>
				</g>
				<g>
					<circle style="fill:#9CABFC;" cx="126.51" cy="336.04" r="6.68"/>
					<path style="fill:#9CABFC;" d="M139.61,352.03c-2.03-5.26-7.13-9-13.1-9c-5.98,0-11.08,3.74-13.1,9H139.61z"/>
				</g>
				<g>
					<circle style="fill:#9CABFC;" cx="442.35" cy="246.97" r="8.68"/>
					<path style="fill:#9CABFC;" d="M459.38,267.76c-2.63-6.84-9.26-11.7-17.03-11.7c-7.77,0-14.4,4.86-17.03,11.7H459.38z"/>
				</g>
				<g>
					<circle style="fill:#9CABFC;" cx="263.67" cy="241.43" r="8.68"/>
					<path style="fill:#9CABFC;" d="M280.7,262.22c-2.63-6.84-9.26-11.7-17.03-11.7s-14.4,4.86-17.03,11.7H280.7z"/>
				</g>
				<g>
					
						<ellipse transform="matrix(0.6352 -0.7724 0.7724 0.6352 63.2151 388.387)" style="fill:#9CABFC;" cx="442.74" cy="127.28" rx="9.67" ry="9.67"/>
					<path style="fill:#9CABFC;" d="M461.71,150.44c-2.93-7.62-10.32-13.03-18.97-13.03c-8.65,0-16.04,5.41-18.97,13.03H461.71z"/>
				</g>
				<g>
					
						<ellipse transform="matrix(0.7071 -0.7071 0.7071 0.7071 -25.3001 214.1928)" style="fill:#9CABFC;" cx="245.9" cy="137.64" rx="9.67" ry="9.67"/>
					<path style="fill:#9CABFC;" d="M264.88,160.8c-2.93-7.62-10.32-13.03-18.97-13.03c-8.65,0-16.04,5.41-18.97,13.03H264.88z"/>
				</g>
				<g>
					<circle style="fill:#9CABFC;" cx="128.06" cy="87.82" r="9.28"/>
					<path style="fill:#9CABFC;" d="M146.26,110.03c-2.81-7.31-9.9-12.5-18.19-12.5s-15.38,5.19-18.19,12.5H146.26z"/>
				</g>
				<g>
					<ellipse style="fill:#9CABFC;" cx="42.63" cy="208.26" rx="9.01" ry="8.7"/>
					<path style="fill:#9CABFC;" d="M60.29,229.08c-2.73-6.85-9.61-11.72-17.66-11.72c-8.06,0-14.93,4.86-17.66,11.72H60.29z"/>
				</g>
				<g>
					
						<ellipse transform="matrix(0.1598 -0.9872 0.9872 0.1598 -135.9372 463.8847)" style="fill:#9CABFC;" cx="204.53" cy="311.8" rx="8.4" ry="8.4"/>
					<path style="fill:#9CABFC;" d="M221.01,331.91c-2.55-6.62-8.96-11.32-16.48-11.32c-7.52,0-13.93,4.7-16.48,11.32H221.01z"/>
				</g>
				<g>
					
						<ellipse transform="matrix(0.7071 -0.7071 0.7071 0.7071 39.8696 231.0753)" style="fill:#9CABFC;" cx="298.87" cy="67.41" rx="9.48" ry="9.48"/>
					<path style="fill:#9CABFC;" d="M317.45,90.1c-2.87-7.46-10.11-12.76-18.58-12.76c-8.48,0-15.71,5.3-18.58,12.76H317.45z"/>
				</g>
				<g>
					
						<ellipse transform="matrix(0.7071 -0.7071 0.7071 0.7071 -222.1505 302.3106)" style="fill:#9CABFC;" cx="253.85" cy="419.31" rx="9.72" ry="9.72"/>
					<path style="fill:#9CABFC;" d="M272.9,442.58c-2.95-7.65-10.37-13.09-19.06-13.09c-8.69,0-16.11,5.43-19.06,13.09H272.9z"/>
				</g>
				<g>
					<circle style="fill:#9CABFC;" cx="348.08" cy="151.14" r="8.68"/>
					<path style="fill:#9CABFC;" d="M365.11,171.93c-2.63-6.84-9.26-11.7-17.03-11.7s-14.4,4.86-17.03,11.7H365.11z"/>
				</g>
			</g>
			<g>
				
					<ellipse transform="matrix(0.7071 -0.7071 0.7071 0.7071 -20.8964 329.4983)" style="fill:none;stroke:#000000;stroke-width:0.5;stroke-linecap:round;stroke-miterlimit:10;" cx="387.29" cy="189.97" rx="15.15" ry="15.15"/>
				<path style="fill:#D47172;stroke:#000000;stroke-width:0.5;stroke-miterlimit:10;" d="M389.79,184.45
					c-1.44,0.44-2.51,2.47-2.51,2.47s-1.07-2.02-2.52-2.43c-4.19-1.19-6.06,2.58-4.46,6.07c1.55,3.36,6.99,7.41,6.99,7.41
					s5.43-4.14,6.96-7.52C395.86,186.93,393.98,183.18,389.79,184.45z"/>
			</g>
			<g>
				
					<circle style="fill:none;stroke:#000000;stroke-width:0.5;stroke-linecap:round;stroke-miterlimit:10;" cx="287.7" cy="130.91" r="13.71"/>
				<path style="fill:#D47172;stroke:#000000;stroke-width:0.5;stroke-miterlimit:10;" d="M290.2,125.3
					c-1.44,0.43-2.49,2.46-2.49,2.46s-1.07-2.01-2.5-2.42c-4.17-1.19-6.03,2.57-4.44,6.04c1.54,3.35,6.96,7.37,6.96,7.37
					s5.41-4.12,6.93-7.49C296.24,127.78,294.36,124.05,290.2,125.3z"/>
			</g>
			<g>
				
					<circle style="fill:none;stroke:#000000;stroke-width:0.5;stroke-linecap:round;stroke-miterlimit:10;" cx="104.27" cy="383.05" r="13.71"/>
				<path style="fill:#D47172;stroke:#000000;stroke-width:0.5;stroke-miterlimit:10;" d="M107.19,376.32
					c-1.68,0.51-2.92,2.88-2.92,2.88s-1.25-2.36-2.93-2.84c-4.88-1.39-7.06,3.01-5.19,7.07c1.8,3.92,8.15,8.63,8.15,8.63
					s6.33-4.82,8.11-8.77C114.26,379.22,112.07,374.85,107.19,376.32z"/>
			</g>
			<g>
				<g>
					<g>
						
							<ellipse transform="matrix(0.1928 -0.9812 0.9812 0.1928 48.7852 450.0048)" style="fill:#5F76E8;stroke:#000000;stroke-width:0.5;stroke-miterlimit:10;" cx="297.9" cy="195.35" rx="27.06" ry="27.06"/>
						<path style="fill:#FFFFFF;" d="M297.24,187.85c-0.06,1.72-0.02,3.46-0.02,5.33h6.72c-0.29,2.21-0.53,4.26-0.86,6.29
							c-0.02,0.2-0.53,0.45-0.82,0.47c-1.62,0.04-3.24,0.02-5,0.02v22.43c-2.48-0.04-4.86-0.43-7.13-1.11v-21.28h-5.88v-6.76H290
							c0.02-0.51,0.06-0.92,0.06-1.31c0.04-1.78-0.02-3.57,0.14-5.33c0.37-3.87,2.75-6.6,6.58-7.13c2.38-0.33,4.86-0.06,7.36-0.06
							v6.15c-0.88,0-1.78-0.02-2.66,0c-0.78,0.02-1.6-0.02-2.36,0.16C298.04,185.97,297.28,186.7,297.24,187.85z"/>
					</g>
					<path style="fill:#5F76E8;stroke:#000000;stroke-width:0.5;stroke-miterlimit:10;" d="M321.56,203.44
						c-1.38,3.48-3.57,6.65-6.34,9.18"/>
					<path style="fill:#5F76E8;stroke:#000000;stroke-width:0.5;stroke-miterlimit:10;" d="M313.81,214.05
						c-1.1,0.85-2.21,1.7-3.31,2.55"/>
					<path style="fill:#5F76E8;stroke:#000000;stroke-width:0.5;stroke-miterlimit:10;" d="M315.55,209.94
						c-0.37,0.57-0.86,1.05-1.43,1.42"/>
					<path style="fill:#5F76E8;stroke:#000000;stroke-width:0.5;stroke-miterlimit:10;" d="M320.91,196.95
						c-0.21,2.38-0.74,4.73-1.58,6.96"/>
				</g>
				<g>
					<g>
						
							<ellipse transform="matrix(0.2272 -0.9738 0.9738 0.2272 149.0473 578.5705)" style="fill:#D47172;stroke:#000000;stroke-width:0.5;stroke-miterlimit:10;" cx="439.07" cy="195.37" rx="26.29" ry="26.29"/>
						<g>
							<g>
								<path style="fill:#FFFFFF;" d="M454.74,186.71c-0.02-4.27-2.68-7.03-6.91-7.07c-5.85-0.06-11.71-0.06-17.56,0
									c-4.14,0.04-6.82,2.78-6.88,6.92c-0.04,2.92-0.01,5.84-0.01,8.76c0,2.86-0.02,5.72,0,8.58c0.04,4.36,2.7,7.15,7.02,7.19
									c5.79,0.06,11.58,0.07,17.37,0c4.23-0.05,6.95-2.83,6.97-7.05C454.77,198.27,454.77,192.49,454.74,186.71z M451.94,204.1
									c-0.03,2.7-1.48,4.19-4.18,4.21c-5.79,0.04-11.58,0.04-17.37,0c-2.71-0.01-4.18-1.5-4.19-4.19
									c-0.03-5.84-0.03-11.68,0-17.52c0.01-2.68,1.51-4.21,4.18-4.23c5.79-0.04,11.58-0.04,17.37,0c2.68,0.02,4.17,1.55,4.2,4.22
									c0.03,2.92,0.01,5.84,0.01,8.76C451.95,198.26,451.98,201.18,451.94,204.1z"/>
								<path style="fill:#FFFFFF;" d="M439.08,187.14c-4.46-0.01-8.13,3.62-8.17,8.1c-0.04,4.54,3.47,8.2,7.96,8.29
									c4.6,0.09,8.31-3.5,8.35-8.07C447.27,190.88,443.63,187.16,439.08,187.14z M438.98,200.79c-2.92-0.06-5.34-2.5-5.37-5.39
									c-0.03-2.99,2.43-5.44,5.46-5.44c3.02,0,5.49,2.46,5.46,5.44C444.51,198.36,441.94,200.85,438.98,200.79z"/>
								<path style="fill:#FFFFFF;" d="M449.71,186.95c-0.09,1.15-0.82,1.75-1.95,1.69c-1.24-0.06-1.87-0.82-1.78-2.04
									c0.08-1.15,0.83-1.68,1.98-1.74C449.12,185.06,449.81,185.72,449.71,186.95z"/>
							</g>
						</g>
					</g>
					<path style="fill:none;stroke:#000000;stroke-width:0.5;stroke-miterlimit:10;" d="M450.3,217.59
						c4.4-2.59,8.02-6.49,10.27-11.07"/>
					<path style="fill:none;stroke:#000000;stroke-width:0.5;stroke-miterlimit:10;" d="M461.1,204.65c0.5-0.92,0.85-1.91,1.04-2.94
						"/>
					<path style="fill:none;stroke:#000000;stroke-width:0.5;stroke-miterlimit:10;" d="M459.37,203.61
						c-0.37,1.24-0.96,2.41-1.72,3.45"/>
					<path style="fill:none;stroke:#000000;stroke-width:0.5;stroke-miterlimit:10;" d="M462.52,191.7
						c0.38,1.58,0.41,3.24,0.11,4.84"/>
					<path style="fill:none;stroke:#000000;stroke-width:0.5;stroke-miterlimit:10;" d="M417.4,185.99
						c-2.18,4.21-2.78,9.21-1.66,13.82"/>
				</g>
				<g>
					<circle style="fill:#A8DCA4;stroke:#000000;stroke-width:0.5;stroke-miterlimit:10;" cx="181.94" cy="378.99" r="26.26"/>
					<path style="fill:#FFFFFF;" d="M192.06,389.48c-0.3,0.51-0.83,0.79-1.37,0.79c-0.27,0-0.55-0.07-0.8-0.22
						c-4.18-2.44-9.01-2.83-12.32-2.73c-3.67,0.11-6.36,0.84-6.39,0.84c-0.85,0.23-1.72-0.27-1.95-1.11
						c-0.23-0.85,0.26-1.72,1.11-1.95c0.12-0.03,3.02-0.82,7.05-0.95c2.37-0.08,4.66,0.09,6.79,0.49c2.7,0.51,5.16,1.41,7.32,2.67
						C192.25,387.75,192.5,388.72,192.06,389.48z"/>
					<path style="fill:#FFFFFF;" d="M195.01,383.34c-0.35,0.6-0.98,0.93-1.63,0.93c-0.32,0-0.65-0.08-0.95-0.26
						c-4.95-2.89-10.67-3.36-14.59-3.24c-4.35,0.13-7.54,0.99-7.57,1c-1,0.27-2.04-0.32-2.31-1.32c-0.27-1,0.31-2.04,1.32-2.31
						c0.14-0.04,3.58-0.97,8.35-1.13c2.81-0.09,5.52,0.1,8.04,0.58c3.2,0.61,6.12,1.67,8.67,3.17
						C195.24,381.29,195.54,382.44,195.01,383.34z"/>
					<path style="fill:#FFFFFF;" d="M196.83,377.76c-0.4,0-0.8-0.1-1.16-0.32c-11.77-6.88-27.03-2.79-27.19-2.75
						c-1.23,0.34-2.5-0.38-2.84-1.61c-0.34-1.23,0.38-2.5,1.61-2.84c0.18-0.05,4.39-1.19,10.24-1.39c3.45-0.11,6.77,0.13,9.87,0.71
						c3.92,0.74,7.5,2.05,10.64,3.88c1.1,0.64,1.47,2.06,0.83,3.16C198.4,377.35,197.63,377.76,196.83,377.76z"/>
					<path style="fill:none;stroke:#000000;stroke-width:0.5;stroke-miterlimit:10;" d="M165.43,362.39
						c-0.99,1.22-1.98,2.44-2.97,3.66"/>
					<path style="fill:none;stroke:#000000;stroke-width:0.5;stroke-miterlimit:10;" d="M159.92,369.92
						c-2.78,6.07-2.45,13.46,0.85,19.26"/>
					<path style="fill:none;stroke:#000000;stroke-width:0.5;stroke-miterlimit:10;" d="M163.54,394.21
						c1.26,1.62,2.66,3.13,4.19,4.51"/>
				</g>
				<g>
					
						<ellipse transform="matrix(0.0821 -0.9966 0.9966 0.0821 -113.3325 644.8082)" style="fill:#D47172;stroke:#000000;stroke-width:0.5;stroke-miterlimit:10;" cx="293.4" cy="383.93" rx="26.02" ry="26.02"/>
					<path style="fill:#FFFFFF;" d="M293.4,369.32c-8.07,0-14.63,6.56-14.63,14.62c0,8.06,6.56,14.62,14.63,14.62
						c8.07,0,14.63-6.56,14.63-14.62C308.03,375.87,301.47,369.32,293.4,369.32L293.4,369.32z M303.03,376.21
						c1.67,2.07,2.68,4.68,2.73,7.53c-0.56-0.11-2.91-0.55-5.72-0.55c-0.91,0-1.86,0.05-2.82,0.16c-0.08-0.2-0.16-0.39-0.25-0.59
						c-0.25-0.58-0.52-1.16-0.79-1.73C300.51,379.25,302.6,376.77,303.03,376.21L303.03,376.21z M293.4,371.6
						c3.12,0,5.97,1.16,8.15,3.07c-0.34,0.47-2.21,2.81-6.39,4.38c-1.93-3.53-4.04-6.45-4.55-7.13
						C291.51,371.71,292.44,371.6,293.4,371.6L293.4,371.6z M288.09,372.8c0.43,0.59,2.54,3.54,4.52,7.04
						c-5.32,1.4-10.04,1.49-11.17,1.49h-0.12C282.13,377.56,284.68,374.43,288.09,372.8L288.09,372.8z M281.03,383.95
						c0-0.1,0-0.2,0.01-0.3c0.07,0,0.18,0,0.32,0c1.53,0,6.86-0.13,12.35-1.76c0.33,0.65,0.65,1.31,0.95,1.97
						c-0.14,0.04-0.28,0.08-0.41,0.12c-6.18,2-9.58,7.28-10.1,8.14C282.21,389.95,281.03,387.09,281.03,383.95L281.03,383.95z
						 M293.4,396.3c-2.84,0-5.45-0.96-7.54-2.57c0.35-0.69,2.92-5.31,9.69-7.67c0,0,0.01,0,0.01,0c1.7,4.42,2.42,8.13,2.61,9.28
						C296.7,395.96,295.09,396.3,293.4,396.3L293.4,396.3z M300.4,394.12c-0.17-0.95-0.83-4.43-2.37-8.67
						c0.86-0.13,1.7-0.19,2.49-0.19c2.58,0,4.61,0.57,5.08,0.71C305.04,389.34,303.11,392.26,300.4,394.12L300.4,394.12z"/>
					<path style="fill:none;stroke:#000000;stroke-width:0.5;stroke-miterlimit:10;" d="M300.82,406.44c2.5-0.44,4.87-1.59,6.76-3.3
						"/>
					<path style="fill:none;stroke:#000000;stroke-width:0.5;stroke-miterlimit:10;" d="M284.31,405.02
						c3.53,2.35,9.49,3.07,13.62,2.12"/>
					<path style="fill:none;stroke:#000000;stroke-width:0.5;stroke-miterlimit:10;" d="M285.91,361.68
						c-2.44,0.37-4.75,1.53-6.51,3.26"/>
					<path style="fill:none;stroke:#000000;stroke-width:0.5;stroke-miterlimit:10;" d="M309.4,401.54c0.38-0.31,0.72-0.68,1-1.08"
						/>
				</g>
				<g>
					<circle style="fill:#D89CC7;stroke:#000000;stroke-width:0.5;stroke-miterlimit:10;" cx="210.12" cy="83.08" r="26.7"/>
					<path style="fill:#FFFFFF;" d="M223.99,80c-0.27,0.03-0.55,0.04-0.82,0.04c-3.01,0-5.82-1.52-7.46-4.03v13.74
						c0,5.61-4.55,10.15-10.15,10.15c-5.61,0-10.15-4.55-10.15-10.15c0-5.61,4.55-10.15,10.15-10.15l0,0c0.21,0,0.42,0.02,0.63,0.03
						v5c-0.21-0.02-0.41-0.06-0.63-0.06c-2.86,0-5.18,2.32-5.18,5.18c0,2.86,2.32,5.18,5.18,5.18c2.86,0,5.39-2.26,5.39-5.12
						l0.05-23.33h4.79c0.45,4.29,3.91,7.65,8.22,7.96L223.99,80"/>
					<path style="fill:none;stroke:#000000;stroke-width:0.5;stroke-miterlimit:10;" d="M217.75,106.19
						c4.6-1.5,8.66-4.58,11.34-8.61"/>
					<path style="fill:none;stroke:#000000;stroke-width:0.5;stroke-miterlimit:10;" d="M231.24,94.25
						c0.96-1.91,1.73-3.91,2.28-5.98"/>
					<path style="fill:none;stroke:#000000;stroke-width:0.5;stroke-miterlimit:10;" d="M189.97,71.41
						c-2.95,4.54-4.05,10.25-2.98,15.56"/>
					<path style="fill:none;stroke:#000000;stroke-width:0.5;stroke-miterlimit:10;" d="M187.82,90.61
						c0.04,1.34,0.37,2.66,0.94,3.87"/>
					<path style="fill:none;stroke:#000000;stroke-width:0.5;stroke-miterlimit:10;" d="M189.1,82.06c0.01,1.47,0.16,2.95,0.44,4.4"
						/>
				</g>
				<g>
					<circle style="fill:#A8DCA4;stroke:#000000;stroke-width:0.5;stroke-miterlimit:10;" cx="375.1" cy="104.28" r="29.05"/>
					<g id="_x32_dqxSk.tif_1_">
						<g>
							<path style="fill:#FFFFFF;" d="M363.71,89.05c0.04,0.01,0.08,0.03,0.12,0.04c0.89,0.07,1.66,0.41,2.29,1.04
								c0.57,0.56,0.92,1.24,1.04,2.03c0.2,1.34-0.22,2.48-1.23,3.38c-0.49,0.44-1.08,0.7-1.73,0.82c-0.34,0.06-0.68,0.08-1.01,0.04
								c-1.55-0.14-2.77-1.23-3.17-2.6c-0.07-0.25-0.12-0.5-0.13-0.76c0-0.05,0.01-0.11-0.06-0.13c0-0.11,0-0.21,0-0.32
								c0.06-0.02,0.05-0.08,0.06-0.13c0.01-0.1,0.02-0.21,0.03-0.31c0.12-0.72,0.41-1.35,0.9-1.89c0.66-0.72,1.48-1.1,2.45-1.17
								c0.04,0,0.08-0.02,0.12-0.04C363.5,89.05,363.61,89.05,363.71,89.05z"/>
							<path style="fill:#FFFFFF;" d="M376.77,101.86c0.03-0.04,0.06-0.08,0.09-0.12c0.31-0.46,0.66-0.88,1.07-1.25
								c0.85-0.78,1.84-1.31,2.96-1.59c0.54-0.13,1.09-0.19,1.65-0.22c0.37-0.02,0.75-0.01,1.12,0.01c1.08,0.08,2.14,0.29,3.12,0.78
								c1.01,0.5,1.78,1.25,2.34,2.23c0.35,0.62,0.59,1.28,0.77,1.96c0.13,0.47,0.22,0.94,0.29,1.42c0.03,0.24,0.05,0.48,0.06,0.72
								c0.03,0.45,0.05,0.9,0.08,1.34c0,0.01,0,0.03,0,0.04c0.01,0.43,0.03,0.85,0.03,1.28c0.01,1.43,0.02,2.86,0.02,4.29
								c0,2.16,0,4.32,0,6.49c0,0.24-0.01,0.25-0.25,0.25c-0.92,0-1.83,0-2.75,0c-0.85,0-1.71,0-2.56,0c-0.14,0-0.27,0.01-0.41,0.02
								c-0.02,0-0.04,0-0.07,0c-0.3-0.02-0.31-0.09-0.31-0.31c0-1.79,0-3.58,0-5.38c0-1.78,0-3.56-0.01-5.34
								c0-0.67-0.06-1.34-0.26-1.99c-0.12-0.38-0.26-0.75-0.49-1.08c-0.39-0.57-0.94-0.92-1.61-1.06c-0.25-0.05-0.5-0.09-0.76-0.08
								c-0.27,0.01-0.55,0-0.82,0.03c-1.2,0.15-2.08,0.74-2.57,1.86c-0.21,0.48-0.33,0.99-0.41,1.51c-0.08,0.55-0.1,1.11-0.1,1.67
								c0,3.26,0,6.52,0,9.78c0,0.07,0,0.15,0,0.22c-0.01,0.1-0.05,0.14-0.15,0.15c-0.06,0-0.11,0-0.17,0c-1.04,0-2.08,0-3.12,0
								c-0.66,0-1.31,0-1.97,0c-0.19,0-0.39,0.01-0.58,0.02c-0.03,0-0.05,0-0.08,0c-0.26-0.03-0.28-0.09-0.27-0.28
								c0-0.1,0-0.19,0-0.29c0-4.29,0-8.59,0-12.88c0-2.17,0-4.33,0-6.5c0-0.06,0-0.11,0-0.17c0.01-0.14,0.06-0.19,0.2-0.2
								c0.04,0,0.07,0,0.11,0c1.82,0,3.65,0,5.47,0c0.04,0,0.07,0,0.11,0c0.14,0.01,0.19,0.05,0.19,0.2c0,0.25-0.01,0.49-0.01,0.74
								c0,0.36,0,0.72,0.01,1.08c0,0.17,0,0.34,0.01,0.51c0,0.05,0,0.09,0.01,0.14C376.75,101.85,376.76,101.86,376.77,101.86z"/>
							<path style="fill:#FFFFFF;" d="M360.37,109.32c0-3.29,0-6.57,0-9.86c0-0.06,0-0.11,0.01-0.17c0.01-0.07,0.05-0.11,0.12-0.11
								c0.05,0,0.1,0,0.15,0c1.92,0,3.85,0,5.77,0c0.01,0,0.03,0,0.04,0c0.22,0,0.28,0.06,0.28,0.29c0,0.74,0,1.49,0,2.23
								c0,5.81,0,11.63,0,17.44c0,0.07,0,0.14-0.01,0.21c-0.01,0.08-0.06,0.14-0.15,0.14c-0.15,0.01-0.3,0.01-0.45,0.01
								c-0.06,0-0.11-0.01-0.17-0.01c-1.62,0-3.23,0-4.85,0c-0.13,0-0.25,0.01-0.38,0.02c-0.03,0-0.05,0-0.08,0
								c-0.21-0.02-0.28-0.05-0.28-0.29C360.37,115.92,360.37,112.62,360.37,109.32C360.37,109.32,360.37,109.32,360.37,109.32z"/>
						</g>
					</g>
					<path style="fill:none;stroke:#000000;stroke-width:0.5;stroke-miterlimit:10;" d="M381,130.13c4.4-0.75,8.58-2.78,11.88-5.79"
						/>
					<path style="fill:none;stroke:#000000;stroke-width:0.5;stroke-miterlimit:10;" d="M394.13,122.83
						c0.98-1.04,1.96-2.07,2.94-3.11"/>
					<path style="fill:none;stroke:#000000;stroke-width:0.5;stroke-miterlimit:10;" d="M354.57,87.41
						c-1.05,1.29-1.98,2.68-2.75,4.15"/>
					<path style="fill:none;stroke:#000000;stroke-width:0.5;stroke-miterlimit:10;" d="M350.22,95.34
						c-1.8,4.03-2.36,8.6-1.62,12.96"/>
				</g>
				<g>
					<circle style="fill:#5F76E8;stroke:#000000;stroke-width:0.5;stroke-miterlimit:10;" cx="82.41" cy="148.91" r="28"/>
					<g>
						<path style="fill:#FFFFFF;" d="M67.12,162.05c3.72,0.07,7.07-0.83,10.09-3.11c-4.17-1.27-5.84-2.54-6.44-4.91
							c0.94-0.05,1.87-0.09,2.8-0.14c-3.29-1.26-5.23-3.48-5.48-7.09c1.01,0.27,1.94,0.51,2.88,0.76c-3.02-3.8-3.63-6.75-1.83-9.5
							c3.9,4.46,8.76,6.99,14.8,7.4c-0.03-0.47-0.05-0.83-0.07-1.18c-0.12-3.12,1.19-5.47,3.96-6.84c2.77-1.37,5.46-1,7.86,0.95
							c0.53,0.43,0.98,0.55,1.59,0.32c1.12-0.42,2.25-0.83,3.49-1.28c-0.52,1.5-1.49,2.62-2.75,3.52c0.03,0.07,0.05,0.14,0.08,0.2
							c1.15-0.3,2.31-0.59,3.46-0.89c0.05,0.05,0.09,0.09,0.14,0.14c-0.89,0.9-1.75,1.84-2.7,2.68c-0.5,0.44-0.75,0.84-0.75,1.54
							c0.03,10.56-7.94,19.35-18.43,20.29c-4.23,0.38-8.27-0.38-12.01-2.45C67.57,162.34,67.35,162.19,67.12,162.05z"/>
					</g>
					<path style="fill:none;stroke:#000000;stroke-width:0.5;stroke-miterlimit:10;" d="M106.13,158.41
						c-1.82,4.68-5.13,8.76-9.33,11.51"/>
					<path style="fill:none;stroke:#000000;stroke-width:0.5;stroke-miterlimit:10;" d="M97.67,167.32c-0.93,0.6-1.87,1.2-2.8,1.8"
						/>
					<path style="fill:none;stroke:#000000;stroke-width:0.5;stroke-miterlimit:10;" d="M107.25,144.12
						c0.7,2.65,0.65,5.49-0.15,8.11"/>
					<path style="fill:none;stroke:#000000;stroke-width:0.5;stroke-miterlimit:10;" d="M70.13,126.75
						c-3.04,1.06-5.73,3.12-7.53,5.79"/>
				</g>
			</g>
		</g>
		<g style="clip-path:url(#SVGID_00000146482315523325831340000008368383398164195486_);">
			<g>
				<path style="fill:#FFFFFF;stroke:#222221;stroke-width:0.5;stroke-miterlimit:10;" d="M321,340.06
					c-0.1,1.79,0.66,3.47,1.98,5.05c2.12,2.54,4.24,5.08,6.36,7.62c5.75,6.89,6.04,17.33,12.93,23.34c3.55,3.09,8,4.9,12.39,6.6
					c4.39,1.7,8.87,3.38,12.58,6.28c0.7,0.55,1.49,1.17,2.36,1.03c1.11-0.18,1.64-1.44,1.93-2.53c1.41-5.33,1.47-10.48,1.3-15.94
					c-0.14-4.44,0.63-8.73,0.11-13.26c-1.13-9.86-5.25-19.22-10.58-27.51c-2.83-4.4-6.09-8.62-10.12-11.99
					c-4.46-3.74-8.6-5.79-14.54-5.65c-2.93,0.07-5.95,0.87-8.17,2.79c-3.82,3.3-4.43,8.87-5.5,13.81c-0.62,2.85-1.48,5.65-2.57,8.36
					C321.18,338.74,321.03,339.41,321,340.06z"/>
				<path style="fill:#FFFFFF;stroke:#222221;stroke-width:0.5;stroke-miterlimit:10;" d="M380.58,344.6
					c-1.04,1.6-2.01,3.08-2.91,4.4c-7.72,11.4-17.97,26.81-7.25,38.64c16.91,18.67,49.82,28.44,73.88,31.43
					c5.42,0.67,11,1.08,15.97,3.34c3.61,1.65,6.72,4.2,9.78,6.73c10.51,8.71,22.82,17.12,31.59,27.59
					c8.62,10.28,18.06,18.77,29.89,25.65c18.7,10.87,42.3,15.26,62.18,6.75c15.87-6.79,28.31-23.35,28.57-40.88
					c0.32-20.87-21.98-30.97-37.77-40.04c-15.31-8.79-30.81-17.24-46.4-25.52c-12.91-6.86-27.46-12.54-38.41-22.22
					c-16.44-14.53-33.86-31.49-53.89-40.99c-5.37-2.55-10.93-4.7-16.53-6.7c-3.47-1.24-7.03-2.45-10.72-2.58
					C403.27,309.64,389.35,331.17,380.58,344.6z"/>
				<path style="fill:#FFFFFF;stroke:#222221;stroke-width:0.5;stroke-miterlimit:10;" d="M300.18,282.74
					c-4.19,0.99-8.03,4.9-7.36,9.15c0.39,2.46,2.19,4.52,4.31,5.82s4.57,1.96,6.98,2.6c3.76,1,7.52,2.01,11.27,3.01
					c3.25,0.87,6.6,1.74,9.93,1.32c3.34-0.42,6.7-2.47,7.64-5.7c0.39-1.34,0.34-2.77,0.06-4.13c-1.32-6.41-5.89-8.33-11.54-8.85
					C314.37,285.32,307.47,281.02,300.18,282.74z"/>
				<g>
					<g>
						<path d="M379.85,396.72l57.97-17.19c6.25-1.85,9.09-8.08,6.35-13.91l-66.41-141.4c-2.74-5.83-10.02-9.05-16.26-7.2
							l-57.97,17.19c-6.25,1.85-9.09,8.08-6.35,13.91l66.41,141.4C366.32,395.35,373.6,398.57,379.85,396.72z"/>
					</g>
					<g>
						<path style="fill:#FFFFFF;" d="M379.06,392.19l61.91-18.37c3.61-1.07,5.25-4.67,3.67-8.04l-68.33-145.5
							c-1.58-3.37-5.79-5.23-9.4-4.16L305,234.49c-3.61,1.07-5.25,4.67-3.67,8.04l68.33,145.5
							C371.25,391.4,375.45,393.26,379.06,392.19z"/>
					</g>
					<path d="M333.45,232.96l10.52-3.12c0.43-0.13,0.63-0.56,0.44-0.96l0,0c-0.19-0.4-0.69-0.63-1.13-0.5l-10.52,3.12
						c-0.43,0.13-0.63,0.56-0.44,0.96l0,0C332.51,232.86,333.02,233.08,333.45,232.96z"/>
					<path d="M350.31,227.95L350.31,227.95c0.43-0.13,0.63-0.56,0.44-0.96l0,0c-0.19-0.4-0.69-0.63-1.13-0.5l0,0
						c-0.43,0.13-0.63,0.56-0.44,0.96l0,0C349.38,227.86,349.88,228.08,350.31,227.95z"/>
					<g>
						<path style="fill:#A8DCA4;" d="M326.22,305.37L326.22,305.37c0.85-0.25,1.24-1.1,0.86-1.89l-2.7-5.74
							c-0.37-0.79-1.36-1.23-2.21-0.98l0,0c-0.85,0.25-1.24,1.1-0.86,1.89l2.7,5.74C324.38,305.19,325.37,305.62,326.22,305.37z"/>
					</g>
					<g>
						<path style="fill:#A8DCA4;" d="M313.48,278.24L313.48,278.24c0.85-0.25,1.24-1.1,0.86-1.89l-8.21-17.48
							c-0.37-0.79-1.36-1.23-2.21-0.98l0,0c-0.85,0.25-1.24,1.1-0.86,1.89l8.21,17.48C311.64,278.06,312.63,278.49,313.48,278.24z"
							/>
					</g>
					<g>
						<path d="M312.64,278.49L312.64,278.49c0.85-0.25,1.24-1.1,0.86-1.89l-8.21-17.48c-0.37-0.79-1.36-1.23-2.21-0.98l0,0
							c-0.85,0.25-1.24,1.1-0.86,1.89l8.21,17.48C310.8,278.3,311.79,278.74,312.64,278.49z"/>
					</g>
					<g>
						<path d="M325.38,305.62L325.38,305.62c0.85-0.25,1.24-1.1,0.86-1.89l-2.7-5.74c-0.37-0.79-1.36-1.23-2.21-0.98l0,0
							c-0.85,0.25-1.24,1.1-0.86,1.89l2.7,5.74C323.54,305.43,324.53,305.87,325.38,305.62z"/>
					</g>
					<g>
						<path style="fill:#AFB3BC;" d="M331,315.54L331,315.54c0.85-0.25,1.24-1.1,0.86-1.89l-2.7-5.74
							c-0.37-0.79-1.36-1.23-2.21-0.98l0,0c-0.85,0.25-1.24,1.1-0.86,1.89l2.7,5.74C329.16,315.36,330.15,315.8,331,315.54z"/>
					</g>
					<g>
						<path d="M330.16,315.79L330.16,315.79c0.85-0.25,1.24-1.1,0.86-1.89l-2.7-5.74c-0.37-0.79-1.36-1.23-2.21-0.98l0,0
							c-0.85,0.25-1.24,1.1-0.86,1.89l2.7,5.74C328.32,315.61,329.31,316.05,330.16,315.79z"/>
					</g>
					<polygon style="fill:#D89CC7;stroke:#000000;stroke-width:0.5;stroke-miterlimit:10;" points="368.5,385.33 443.49,363.09 
						378.25,224.19 303.27,246.43 					"/>
					<g>
						<path style="fill:#A8DCA4;" d="M368.37,387.44l-67.53-143.79c-2.02-4.3,0.09-8.9,4.69-10.27l60.08-17.82
							c4.6-1.37,9.99,1.02,12.01,5.31l67.53,143.79c2.02,4.3-0.09,8.9-4.69,10.27l-60.08,17.82
							C375.77,394.12,370.38,391.74,368.37,387.44z M306.31,235.06c-3.62,1.07-5.27,4.69-3.68,8.06l67.53,143.79
							c1.58,3.37,5.81,5.25,9.43,4.17l60.08-17.82c3.62-1.07,5.27-4.69,3.68-8.06l-67.53-143.79c-1.58-3.37-5.81-5.25-9.43-4.17
							L306.31,235.06z"/>
					</g>
					<g>
						<path style="fill:#A8DCA4;" d="M369.67,387.53l-67.83-144.42c-1.72-3.66,0.07-7.59,4-8.75l60.33-17.9
							c3.92-1.16,8.51,0.87,10.23,4.53l67.83,144.42c1.72,3.66-0.07,7.59-4,8.75l-60.33,17.9
							C375.98,393.23,371.39,391.19,369.67,387.53z M306.14,234.99c-3.55,1.05-5.18,4.61-3.62,7.92l67.83,144.42
							c1.56,3.32,5.71,5.16,9.27,4.1l60.33-17.9c3.55-1.05,5.18-4.61,3.62-7.92L375.74,221.2c-1.56-3.32-5.71-5.16-9.27-4.1
							L306.14,234.99z"/>
					</g>
					<g>
						<polygon style="fill:#F9F9F9;" points="440.39,359.36 368.47,381.29 307.02,251.79 378.94,229.86 						"/>
						<g>
							<path style="fill:#D89CC7;" d="M362.54,353.99c-0.37,0.23-0.43,0.83-0.43,0.83s-0.54-0.41-1.01-0.39
								c-1.35,0.06-1.45,1.16-0.58,1.88c0.84,0.7,2.88,1.23,2.88,1.23s1.09-1.49,1.13-2.46
								C364.58,354.08,363.6,353.32,362.54,353.99z"/>
						</g>
						<g>
							<polygon style="fill:#D89CC7;stroke:#000000;stroke-width:0.5;stroke-miterlimit:10;" points="427.52,331.34 354.49,353.49 
								324.83,289.9 397.61,267.63 							"/>
						</g>
						<g>
							<g>
								<path style="opacity:0.2;fill:#DBE0FC;" d="M333.9,281.67c0.86,1.81-0.1,3.78-2.15,4.41c-2.05,0.62-4.4-0.34-5.26-2.15
									c-0.86-1.81,0.1-3.78,2.15-4.41C330.69,278.9,333.05,279.86,333.9,281.67z"/>
							</g>
						</g>
						<g>
							<defs>
								<polygon id="SVGID_00000114788195311357737160000003560553340107686073_" points="440.39,359.36 368.47,381.29 
									307.02,251.79 378.94,229.86 								"/>
							</defs>
							<clipPath id="SVGID_00000176750788637384700880000017628426201622729374_">
								<use xlink:href="#SVGID_00000114788195311357737160000003560553340107686073_"  style="overflow:visible;"/>
							</clipPath>
							
								<polygon style="clip-path:url(#SVGID_00000176750788637384700880000017628426201622729374_);fill:#FFFFFF;stroke:#C2C2C2;stroke-width:0.25;stroke-miterlimit:10;" points="
								393.66,257.15 319.28,279.82 310.85,262.06 385.23,239.38 							"/>
							<g style="clip-path:url(#SVGID_00000176750788637384700880000017628426201622729374_);">
								<g>
									<path style="fill:#DBE0FC;" d="M348,260.86c1.37,2.88-0.16,6.02-3.42,7.01c-3.25,0.99-7-0.54-8.37-3.42
										s0.16-6.02,3.42-7.01C342.89,256.45,346.64,257.98,348,260.86z"/>
								</g>
								<g>
									<path style="fill:#DBE0FC;" d="M363.97,255.99c1.37,2.88-0.16,6.02-3.42,7.01c-3.25,0.99-7-0.54-8.37-3.42
										c-1.37-2.88,0.16-6.02,3.42-7.01S362.61,253.11,363.97,255.99z"/>
								</g>
								<g>
									<path style="fill:#DBE0FC;" d="M379.94,251.12c1.37,2.88-0.16,6.02-3.42,7.01c-3.25,0.99-7-0.54-8.37-3.42
										c-1.37-2.88,0.16-6.02,3.42-7.01C374.83,246.71,378.58,248.24,379.94,251.12z"/>
								</g>
								<g>
									<path style="fill:#DBE0FC;" d="M395.91,246.25c1.37,2.88-0.16,6.02-3.42,7.01c-3.25,0.99-7-0.54-8.37-3.42
										c-1.37-2.88,0.16-6.02,3.42-7.01S394.55,243.37,395.91,246.25z"/>
								</g>
							</g>
						</g>
						<g>
							<g>
								<path style="fill:#DBE0FC;" d="M332.68,265.53c1.52,3.2-0.18,6.68-3.8,7.79c-3.61,1.1-7.77-0.6-9.29-3.8
									c-1.52-3.2,0.18-6.68,3.8-7.79C327.01,260.63,331.17,262.33,332.68,265.53z"/>
							</g>
							<g>
								<path style="fill:#5F76E8;" d="M334.75,268.4c0.38,0.8-0.05,1.67-0.95,1.95c-0.9,0.28-1.94-0.15-2.32-0.95
									c-0.38-0.8,0.05-1.67,0.95-1.95C333.33,267.17,334.37,267.6,334.75,268.4z"/>
							</g>
						</g>
						<g>
							<g>
								<path style="fill:none;stroke:#2D2D2D;stroke-width:0.5;stroke-miterlimit:10;" d="M387.65,366.55
									c0.48,1.02-0.06,2.13-1.21,2.49c-1.15,0.35-2.48-0.19-2.97-1.21c-0.48-1.02,0.06-2.13,1.21-2.49
									C385.84,364.99,387.17,365.53,387.65,366.55z"/>
								
									<line style="fill:none;stroke:#2D2D2D;stroke-width:0.5;stroke-miterlimit:10;" x1="389.33" y1="369.37" x2="387.48" y2="368.4"/>
							</g>
							<path style="fill:none;stroke:#2D2D2D;stroke-width:0.5;stroke-miterlimit:10;" d="M370.05,369.8l-1.41,2.52l1.39,2.93
								l1.55-0.47l-0.72-1.53c-0.17-0.36,0.05-0.77,0.51-0.91c0.45-0.14,0.96,0.05,1.13,0.41l0.72,1.53l1.36-0.41l-1.39-2.93
								L370.05,369.8z"/>
							<g>
								<g>
									
										<line style="fill:none;stroke:#000000;stroke-width:0.5;stroke-miterlimit:10;" x1="400.08" y1="361.77" x2="401.41" y2="364.56"/>
									
										<line style="fill:none;stroke:#000000;stroke-width:0.5;stroke-miterlimit:10;" x1="399.17" y1="363.65" x2="402.32" y2="362.69"/>
								</g>
								<path style="fill:none;stroke:#2D2D2D;stroke-width:0.5;stroke-miterlimit:10;" d="M402.29,365.41l-0.84,0.26
									c-1.25,0.38-2.69-0.21-3.22-1.31l-0.35-0.75c-0.53-1.11,0.06-2.31,1.31-2.69l0.84-0.26c1.25-0.38,2.69,0.21,3.22,1.31
									l0.35,0.75C404.13,363.83,403.54,365.03,402.29,365.41z"/>
							</g>
							<path style="fill:none;stroke:#2D2D2D;stroke-width:0.5;stroke-miterlimit:10;" d="M415.45,356.31
								c-0.46,0.29-0.55,1.05-0.55,1.05s-0.69-0.52-1.28-0.49c-1.71,0.08-1.83,1.47-0.73,2.39c1.06,0.89,3.65,1.56,3.65,1.56
								s1.38-1.89,1.44-3.11C418.04,356.42,416.8,355.46,415.45,356.31z"/>
							<g>
								<path style="fill:#2D2D2D;" d="M431.18,352.8c0.32,0.67-0.04,1.4-0.79,1.63c-0.76,0.23-1.63-0.12-1.94-0.79
									c-0.32-0.67,0.04-1.4,0.79-1.63C429.99,351.78,430.86,352.14,431.18,352.8z"/>
								<path style="fill:#2D2D2D;" d="M433.84,355.55l-0.19-0.41c-0.37-0.77-1.37-1.18-2.24-0.92l-1.86,0.57
									c-0.87,0.27-1.28,1.11-0.92,1.88l0.19,0.41L433.84,355.55z"/>
							</g>
						</g>
						<g>
							<g>
								<path style="fill:none;stroke:#2D2D2D;stroke-width:0.5;stroke-miterlimit:10;" d="M316.69,253.15l-0.31-0.14
									c-0.19-0.09-0.42-0.1-0.62-0.04l-0.18,0.05l-0.44,0.13l-0.18,0.05c-0.2,0.06-0.35,0.19-0.42,0.36l-0.11,0.27
									c-0.07,0.17-0.23,0.3-0.42,0.36l-0.28,0.09c-0.39,0.12-0.57,0.49-0.41,0.84l1.15,2.43c0.16,0.34,0.61,0.53,1,0.41l3.88-1.18
									c0.39-0.12,0.57-0.49,0.41-0.84l-1.15-2.43c-0.16-0.34-0.61-0.53-1-0.41l-0.31,0.09
									C317.11,253.25,316.89,253.24,316.69,253.15z"/>
								<path style="fill:none;stroke:#2D2D2D;stroke-width:0.5;stroke-miterlimit:10;" d="M317.75,255.16
									c0.28,0.59-0.03,1.23-0.7,1.43c-0.66,0.2-1.43-0.11-1.7-0.7c-0.28-0.59,0.03-1.23,0.7-1.43
									C316.71,254.26,317.47,254.58,317.75,255.16z"/>
							</g>
							<g>
								<polygon style="fill:none;stroke:#2D2D2D;stroke-width:0.5;stroke-miterlimit:10;" points="371.23,236.34 376.56,234.71 
									375.39,239.42 373.89,237.31 								"/>
								
									<line style="fill:none;stroke:#2D2D2D;stroke-width:0.5;stroke-miterlimit:10;" x1="373.89" y1="237.31" x2="376.56" y2="234.71"/>
							</g>
						</g>
					</g>
					<g>
						<path style="fill:none;stroke:#000000;stroke-width:0.5;stroke-miterlimit:10;" d="M368.37,387.44l-67.53-143.79
							c-2.02-4.3,0.09-8.9,4.69-10.27l60.08-17.82c4.6-1.37,9.99,1.02,12.01,5.31l67.53,143.79c2.02,4.3-0.09,8.9-4.69,10.27
							l-60.08,17.82C375.77,394.12,370.38,391.74,368.37,387.44z M306.31,235.06c-3.62,1.07-5.27,4.69-3.68,8.06l67.53,143.79
							c1.58,3.37,5.81,5.25,9.43,4.17l60.08-17.82c3.62-1.07,5.27-4.69,3.68-8.06l-67.53-143.79c-1.58-3.37-5.81-5.25-9.43-4.17
							L306.31,235.06z"/>
					</g>
				</g>
				<path style="fill:#FFFFFF;stroke:#222221;stroke-width:0.5;stroke-miterlimit:10;" d="M495.12,356.42
					c-12.71-11.45-16.74-30.13-27.89-43.11c-0.97-1.13-2-2.19-2.97-3.32c-2.98-3.49-6.9-6.02-10.7-8.59
					c-13.61-9.2-26.45-19.54-38.35-30.88c-3.3-3.15-5.64-7.7-9.61-10.11c-2.13-1.29-5-1.67-7.05-0.27
					c-1.04,0.71-1.77,1.79-2.35,2.91c-1.88,3.68-2.26,8.09-1.05,12.03c1,3.27,3.01,6.12,5.02,8.88c7.9,10.85,26.22,19.7,27.81,34.13
					"/>
				<path style="fill:#FFFFFF;stroke:#222221;stroke-width:0.5;stroke-miterlimit:10;" d="M346.36,365.86
					c0.16-0.1,0.31-0.2,0.46-0.3c3.64-2.47,7.16-5.88,7.61-10.26c0.21-2.03-0.29-4.1-1.18-5.93c-0.51-1.06-1.18-2.07-2.12-2.77
					c-1.68-1.25-4.01-1.33-6.01-0.71c-3.36,1.03-5.53,3.55-8.33,5.45c-2.52,1.7-5.19,3.61-6.15,6.49c-0.99,3,0.27,6.49,2.73,8.48
					C337.25,369.43,342.5,368.29,346.36,365.86z"/>
				<path style="fill:#FFFFFF;stroke:#222221;stroke-width:0.5;stroke-miterlimit:10;" d="M320.14,307.32
					c0.76-1.56,1.69-3.22,3.32-3.82c1.76-0.64,3.72,0.2,5.21,1.33c2.45,1.84,4.33,4.51,4.95,7.51c1.03,4.96-2.41,11.8-4.72,16.06
					c-0.7,1.29-1.53,2.61-2.84,3.26c-2.2,1.08-4.88-0.14-6.68-1.82c-2.61-2.43-4.75-6.54-4.24-10.21
					C315.7,315.59,318.35,311,320.14,307.32z"/>
				<path style="fill:#FFFFFF;stroke:#222221;stroke-width:0.5;stroke-miterlimit:10;" d="M340.33,341.19
					c5.18-7.52,4.85-20.35-4.1-23.83c-1.43-0.55-3.07-0.78-4.46-0.16c-2.71,1.21-3.19,4.74-4.46,7.43
					c-1.31,2.75-3.17,5.11-4.61,7.79c-0.86,1.6-1.66,3.26-2.02,5.04c-0.35,1.78-0.22,3.72,0.72,5.27"/>
				<path style="fill:none;stroke:#222221;stroke-width:0.5;stroke-miterlimit:10;" d="M445.18,373.84
					c2.33,3.16,5.03,6.06,8.01,8.61"/>
				<path style="fill:none;stroke:#222221;stroke-width:0.5;stroke-miterlimit:10;" d="M330.64,318.12c-0.2,1.63,0.39,3.34,1.54,4.5
					c1.12,1.13,2.23,1.61,1.54,3.19c-0.68,1.58-1.98,3.12-3.22,4.28c-0.18,0.17-0.37,0.34-0.61,0.41c-0.24,0.07-0.49,0.05-0.73-0.01
					c-0.61-0.14-1.19-0.45-1.63-0.9c-0.67-0.66-1.04-1.57-1.58-2.33"/>
				<path style="fill:none;stroke:#222221;stroke-width:0.5;stroke-miterlimit:10;" d="M322.05,304.43
					c-0.6,1.81-0.25,3.45,0.43,5.16c0.79,2-0.8,3.15-2.03,4.81c-0.23,0.31-0.52,0.65-0.9,0.63c-0.21-0.01-0.41-0.12-0.57-0.26
					c-0.78-0.61-1.22-1.62-1.16-2.6"/>
				<path style="fill:none;stroke:#222221;stroke-width:0.5;stroke-miterlimit:10;" d="M344.9,346.24c0.03,2.5,0.57,3.89,1.38,6.25
					c0.04,0.11,0.08,0.24,0.03,0.35c-0.04,0.09-0.12,0.14-0.2,0.19c-1.75,1.18-4.48,2.82-5.84,0.39c-0.64-1.14-1.07-2.39-1.25-3.69"
					/>
				<path style="fill:none;stroke:#222221;stroke-width:0.5;stroke-miterlimit:10;" d="M409.15,289.28
					c-0.72,0.39-1.16,1.24-1.07,2.05"/>
				<path style="fill:none;stroke:#222221;stroke-width:0.5;stroke-miterlimit:10;" d="M406.27,290.52
					c1.81-0.94,3.14-2.75,3.49-4.77"/>
				<path style="fill:none;stroke:#222221;stroke-width:0.5;stroke-miterlimit:10;" d="M466.01,317.68
					c3.08,3.42,5.72,7.22,7.85,11.3"/>
				<path style="fill:none;stroke:#222221;stroke-width:0.5;stroke-miterlimit:10;" d="M474.83,330.91c1.26,2.57,2.51,5.13,3.77,7.7
					"/>
				<path style="fill:none;stroke:#222221;stroke-width:0.5;stroke-miterlimit:10;" d="M471.98,329.31c0.4,0.75,0.81,1.5,1.21,2.24"
					/>
				<path style="fill:none;stroke:#222221;stroke-width:0.5;stroke-miterlimit:10;" d="M397.2,266.11
					c-0.87,3.6-0.47,7.51,1.12,10.86"/>
				<path style="fill:none;stroke:#222221;stroke-width:0.5;stroke-miterlimit:10;" d="M399.11,278.56c0.42,1.08,0.95,2.12,1.57,3.1
					"/>
				<path style="fill:none;stroke:#222221;stroke-width:0.5;stroke-miterlimit:10;" d="M399.63,275.97
					c0.35,0.81,0.69,1.61,1.04,2.42"/>
				<path style="fill:none;stroke:#222221;stroke-width:0.5;stroke-miterlimit:10;" d="M353.46,352.98c-0.29,3.26-2.1,6.36-4.8,8.21
					"/>
				<path style="fill:none;stroke:#222221;stroke-width:0.5;stroke-miterlimit:10;" d="M373.39,386.12
					c2.94-0.92,5.87-1.83,8.81-2.75"/>
				<path style="fill:none;stroke:#222221;stroke-width:0.5;stroke-miterlimit:10;" d="M384.96,382.48
					c0.69-0.23,1.38-0.46,2.07-0.69"/>
				<path style="fill:none;stroke:#222221;stroke-width:0.5;stroke-miterlimit:10;" d="M381.68,385.26
					c0.69-0.12,1.38-0.23,2.07-0.35"/>
				<path style="fill:none;stroke:#222221;stroke-width:0.5;stroke-miterlimit:10;" d="M402.38,336.71
					c1.12-0.67,2.36-1.12,3.64-1.33"/>
				<path style="fill:none;stroke:#222221;stroke-width:0.5;stroke-miterlimit:10;" d="M420.7,331.21c-3.8,1.04-7.6,2.08-11.39,3.12
					"/>
				<path style="fill:none;stroke:#222221;stroke-width:0.5;stroke-miterlimit:10;" d="M305.29,237.56
					c-1.58,1.65-1.69,4.49-0.24,6.25"/>
				<path style="fill:none;stroke:#222221;stroke-width:0.5;stroke-miterlimit:10;" d="M313.82,294.95
					c-0.69,0.86-1.38,1.73-2.07,2.59"/>
				<path style="fill:none;stroke:#222221;stroke-width:0.5;stroke-miterlimit:10;" d="M310.87,299.92c0.94-0.64,1.8-1.39,2.55-2.25
					"/>
				<path style="fill:none;stroke:#222221;stroke-width:0.5;stroke-miterlimit:10;" d="M339.99,341.44
					c-1.81-0.04-3.63-0.07-5.44-0.11"/>
				<path style="fill:none;stroke:#222221;stroke-width:0.5;stroke-miterlimit:10;" d="M341.58,328.35
					c0.39,1.73,0.18,3.58-0.58,5.18"/>
				<path style="fill:none;stroke:#222221;stroke-width:0.5;stroke-miterlimit:10;" d="M418.2,409.17c1.81,0.52,3.63,1.04,5.44,1.55
					"/>
			</g>
			<path style="fill:#A8DCA4;stroke:#000000;stroke-width:0.5;stroke-miterlimit:10;" d="M386.3,320.84
				c-1.47,1.81-2.87,3.79-3.31,6.07c-0.45,2.29,0.29,4.95,2.29,6.14c2.83,1.68,6.55-0.34,8.45-3.02c1.91-2.69,2.82-6,4.88-8.57
				c1.9-2.38,4.66-3.95,6.64-6.27c1.98-2.32,2.99-6.04,0.94-8.3c-1.32-1.46-3.55-1.81-5.47-1.38
				C394.54,306.91,390.09,316.17,386.3,320.84z"/>
			<path style="fill:#FFFFFF;stroke:#222221;stroke-width:0.5;stroke-miterlimit:10;" d="M383.53,312.51
				c-0.06-0.98,0.09-1.97,0.78-3.13c0.94-1.57,2.54-2.74,4.33-3.14c1.18-0.27,4.24,0.18,4.45-1.32c0.15-1.07-1.5-2.02-2.27-2.32
				c-2.9-1.16-6.26-1.73-9.29-2.52c-9.72-2.53-19.65-7.7-29.16-1.72c-3.05,1.92-10.53,8.84-2.98,10.89
				c2.36,0.64,4.83-0.19,7.24-0.66c3.01-0.58,7.49-1.01,10.53-0.17c3.88,1.08,7.41,5.57,10.37,8.14c1,0.87,2.07,1.77,3.37,2.02
				c1.3,0.25,2.88-0.41,3.15-1.71c0.05-0.26,0.05-0.52,0.03-0.8C383.94,314.73,383.6,313.63,383.53,312.51z"/>
			<path style="fill:#FFFFFF;stroke:#222221;stroke-width:0.5;stroke-miterlimit:10;" d="M411.38,319.52
				c-2.14-1.53-6.86-1.36-9.05-2.64c-3.95-2.31-4.62-7.64-9.69-8.14c-1.77-0.17-3.81,0.51-4.49,2.16c-0.61,1.49,0.08,3.16,0.77,4.62
				c2.71,5.77,13.6,21.84,21.7,14.48c2.6-2.36,3.28-6.57,1.55-9.63C411.98,320.04,411.71,319.76,411.38,319.52z"/>
			<path style="fill:#D47172;stroke:#000000;stroke-width:0.5;stroke-miterlimit:10;" d="M367.75,328.78
				c-3.93,6.28-13.14,4.78-15.22-2.3c-1.99-6.77,5.02-15.02,10.77-17.34c6.19-2.49,11.11-6.78,12.03-13.97
				c0.18-1.43,0.18-2.91,0.7-4.25c0.47-1.22,1.35-2.25,2.3-3.16c2.1-2,4.75-3.55,7.64-3.74c2.89-0.19,5.98,1.25,7.19,3.87
				c1.6,3.48-0.52,7.68-3.52,10.06c-3,2.39-6.76,3.59-10.05,5.55c-7.52,4.48-7.96,11.92-9.55,19.54
				C369.62,325.09,368.84,327.03,367.75,328.78z"/>
			<path style="fill:#FFFFFF;stroke:#222221;stroke-width:0.5;stroke-miterlimit:10;" d="M336.3,299.39c0.48,0.8,1.25,1.44,2.3,1.71
				c6.64,1.72,7.23-9.38,0.46-8.18C336.08,293.45,334.8,296.89,336.3,299.39z"/>
		</g>
		<g style="clip-path:url(#SVGID_00000146482315523325831340000008368383398164195486_);">
			<path style="fill:#FFFFFF;" d="M217.46,233.58c-8.82,3.7-17.92,7.12-27.44,7.95c-4.69,0.41-10.64-0.7-11.86-5.26
				c-0.81-3.01,0.97-6.09,2.93-8.51c8.18-10.1,20.39-15.91,32.18-21.38c6.61-3.07,26.1-6.62,29.54,3.28
				C246.75,220.99,224.79,230.5,217.46,233.58z"/>
			<path style="fill:none;stroke:#000000;stroke-width:0.5;stroke-linecap:round;stroke-miterlimit:10;" d="M217.46,233.58
				c-8.82,3.7-17.92,7.12-27.44,7.95c-4.69,0.41-10.64-0.7-11.86-5.26c-0.81-3.01,0.97-6.09,2.93-8.51
				c8.18-10.1,20.39-15.91,32.18-21.38c6.61-3.07,26.1-6.62,29.54,3.28C246.75,220.99,224.79,230.5,217.46,233.58z"/>
			<g>
				<path style="fill:#FFFFFF;" d="M209.56,239.07c0.68,1.33,1.1,2.78,1.14,4.35c0.12,4.66-0.96,9.2-2.07,13.7
					c-1.13,4.58-2.6,11.01-7.71,12.47c-2.5,0.71-5.07,1.18-7.66,1.4c-3.01,0.25-6.23,0.11-8.76-1.53c-2.54-1.64-4.02-5.21-2.5-7.81
					c0.98-1.67,2.86-2.55,4.32-3.83c3.27-2.86,4.2-7.47,5.31-11.67c1.41-5.4,5.37-8.17,8.96-11.98c0.32-0.34,0.64-0.68,1.05-0.88
					c1.21-0.61,2.66,0.14,3.73,0.96C207.1,235.58,208.6,237.19,209.56,239.07z"/>
				<path style="fill:#FFFFFF;" d="M88.61,208.92c2.56-5.13,6.99-8.86,11.86-11.71c5.56-3.26,11.19-6.21,17.19-8.67
					c2.23-0.91,4.64-1.78,6.99-1.26c2.38,0.53,4.23,2.4,5.6,4.42c1.73,2.55,2.9,5.42,3.77,8.36c0.86,2.9,0.97,6.21,1.98,9.01
					c2.29,6.33,3.85,12.08,2.94,18.95c-0.31,2.29-0.85,4.57-1.82,6.67c-1.75,3.77-4.8,6.76-7.83,9.6c-2.72,2.54-5.53,5.08-8.89,6.68
					c-3.03,1.44-6.39,2.05-9.73,2.35c-11.08,1-22.71-1.54-31.51-8.34c-4.76-3.68-2.58-10.19-0.51-14.64
					C81.98,223.2,85.09,215.97,88.61,208.92z"/>
				<path style="fill:#FFFFFF;" d="M68.6,352.47c-2.86,2.61-5.56,5.4-8.03,8.44c-2.25,2.77-4.29,5.71-6.6,8.42
					c-3.4,4-7.22,7.69-11.27,10.97c-3.83,3.1-6.46,7.89-9.54,11.76c-7.12,8.95-14.9,17.36-23.26,25.15
					c-2.05,1.91-4.16,3.8-6.61,5.16c-2.59,1.44-5.49,2.25-8.42,2.74c-4.47,0.75-9.06,0.78-13.54,0.08
					c-10.04-1.56-19.17-6.63-27.81-11.98c-4.64-2.87-9.23-5.86-13.33-9.44c-2.56-2.24-4.96-4.74-6.56-7.75
					c-1.79-3.36-3.37-8.52-3.05-12.38c0.29-3.52,2.52-7.62,3.9-10.88c3.41-8.09,8-15.67,13.62-22.42
					c13.53-16.24,32.1-26.9,49.45-38.49c16.77-11.21,33.13-22.78,47.88-36.51c6.41-5.96,12.95-10.5,16.13-19.13
					c1.58-4.27,2.24-8.84,3.79-13.12c1.79-4.92,4.71-9.34,7.6-13.71c2.39-3.6,4.77-7.21,7.16-10.81
					c4.01-6.05,8.13-12.22,13.89-16.63c1.13-0.87,2.44-1.7,4.09-0.73c0.81,0.48,1.37,1.28,1.65,2.18
					c1.55,5.06,0.56,13.15,0.15,18.45c-0.5,6.56-1.6,13.08-1.74,19.67c-0.13,5.99,0.93,10.76,2.9,16.26
					c2.12,5.92,2.68,12.43,4.14,18.53c2.1,8.79,5.95,16.2,13.16,21.78c6.82,5.28,15.53-0.04,22.94-2.01
					c2.53-0.67,6.24-0.93,8.34-2.54c2-1.53,3.84-4.67,5.33-6.7c2.33-3.17,9.34-12.73,14.04-7.32c0.67,0.77,1.08,1.71,1.33,2.69
					c1.06,4.25,4.52,14.47,1.02,18.67c-1.2,1.44-2.81,2.46-4.39,3.46c-9.63,6.07-20.17,10.57-30.37,15.73
					c-6.5,3.29-13.56,5.2-20.6,6.97c-6.89,1.73-14.61,2.91-20.7,6.61C85.97,339.28,76.64,345.14,68.6,352.47z"/>
				<path style="fill:#FFFFFF;" d="M191.5,267.17c1.35,5.23,0.55,10.75-0.26,16.1c-0.33,2.2-0.71,4.5-2.09,6.25
					c-1.13,1.44-2.82,2.33-4.54,2.98c-4.25,1.6-8.96,1.94-13.39,0.95c-3.08-0.69-6.39-2.43-7.05-5.51c-0.42-1.97,0.35-3.97,1.1-5.83
					c1.27-3.14,2.54-6.27,3.81-9.41c2.23-5.5,5.52-12.91,11.68-15.1C186.11,255.68,190.39,262.86,191.5,267.17z"/>
				<g>
					<g>
						<path d="M112.84,319.83l-49.36-34.64c-5.32-3.73-6.03-10.52-1.6-15.16l107.64-112.64c4.44-4.64,12.34-5.38,17.66-1.65
							l49.36,34.64c5.32,3.73,6.03,10.52,1.6,15.16L130.5,318.19C126.07,322.83,118.16,323.57,112.84,319.83z"/>
					</g>
					<g>
						<path style="fill:#FFFFFF;" d="M115.02,315.8l-52.72-37c-3.07-2.16-3.49-6.08-0.92-8.77l110.76-115.91
							c2.56-2.68,7.13-3.11,10.21-0.95l52.72,37c3.07,2.16,3.49,6.08,0.92,8.77L125.23,314.85
							C122.66,317.53,118.09,317.96,115.02,315.8z"/>
					</g>
					<path d="M208.66,179.7l-8.96-6.29c-0.37-0.26-0.42-0.73-0.11-1.05l0,0c0.31-0.32,0.86-0.37,1.22-0.11l8.96,6.29
						c0.37,0.26,0.42,0.73,0.11,1.05l0,0C209.57,179.9,209.02,179.95,208.66,179.7z"/>
					<path d="M194.3,169.62L194.3,169.62c-0.37-0.26-0.42-0.73-0.11-1.05l0,0c0.31-0.32,0.86-0.37,1.22-0.11l0,0
						c0.37,0.26,0.42,0.73,0.11,1.05l0,0C195.21,169.83,194.67,169.88,194.3,169.62z"/>
					<g>
						<path style="fill:#5F76E8;" d="M192.52,250.46L192.52,250.46c-0.72-0.51-0.82-1.43-0.22-2.06l4.37-4.57
							c0.6-0.63,1.68-0.73,2.4-0.22l0,0c0.72,0.51,0.82,1.43,0.22,2.06l-4.37,4.57C194.32,250.87,193.25,250.97,192.52,250.46z"/>
					</g>
					<g>
						<path style="fill:#5F76E8;" d="M213.17,228.85L213.17,228.85c-0.72-0.51-0.82-1.43-0.22-2.06l13.3-13.92
							c0.6-0.63,1.68-0.73,2.4-0.22l0,0c0.72,0.51,0.82,1.43,0.22,2.06l-13.3,13.92C214.97,229.26,213.9,229.36,213.17,228.85z"/>
					</g>
					<g>
						<path d="M213.89,229.35L213.89,229.35c-0.72-0.51-0.82-1.43-0.22-2.06l13.3-13.92c0.6-0.63,1.68-0.73,2.4-0.22l0,0
							c0.72,0.51,0.82,1.43,0.22,2.06l-13.3,13.92C215.69,229.76,214.61,229.86,213.89,229.35z"/>
					</g>
					<g>
						<path d="M193.24,250.97L193.24,250.97c-0.72-0.51-0.82-1.43-0.22-2.06l4.37-4.57c0.6-0.63,1.68-0.73,2.4-0.22l0,0
							c0.72,0.51,0.82,1.43,0.22,2.06l-4.37,4.57C195.03,251.37,193.96,251.47,193.24,250.97z"/>
					</g>
					<g>
						<path style="fill:#AFB3BC;" d="M184.78,258.57L184.78,258.57c-0.72-0.51-0.82-1.43-0.22-2.06l4.37-4.57
							c0.6-0.63,1.68-0.73,2.4-0.22l0,0c0.72,0.51,0.82,1.43,0.22,2.06l-4.37,4.57C186.58,258.98,185.5,259.08,184.78,258.57z"/>
					</g>
					<g>
						<path d="M185.49,259.07L185.49,259.07c-0.72-0.51-0.82-1.43-0.22-2.06l4.37-4.57c0.6-0.63,1.68-0.73,2.4-0.22l0,0
							c0.72,0.51,0.82,1.43,0.22,2.06l-4.37,4.57C187.29,259.48,186.21,259.58,185.49,259.07z"/>
					</g>
					<polygon style="fill:#D89CC7;" points="127.18,312.66 63.33,267.85 169.07,157.19 232.92,202.01 					"/>
					<g>
						<path style="fill:#5F76E8;" d="M113.6,315.92l-51.16-35.91c-3.92-2.75-4.45-7.77-1.18-11.19l109.46-114.55
							c3.27-3.42,9.12-3.97,13.04-1.22l51.16,35.91c3.92,2.75,4.45,7.77,1.18,11.19L126.64,314.7
							C123.37,318.12,117.52,318.67,113.6,315.92z M182.49,154.38c-3.08-2.16-7.67-1.73-10.24,0.96L62.79,269.89
							c-2.57,2.69-2.15,6.63,0.93,8.79l51.16,35.91c3.08,2.16,7.67,1.73,10.24-0.96l109.46-114.55c2.57-2.69,2.15-6.63-0.93-8.79
							L182.49,154.38z"/>
					</g>
					<g>
						<path d="M114.27,315.41l-51.37-36.06c-3.34-2.34-3.79-6.63-1-9.54l109.94-115.05c2.79-2.92,7.77-3.38,11.11-1.04l51.37,36.06
							c3.34,2.35,3.79,6.63,1,9.54L125.38,314.38C122.59,317.29,117.61,317.76,114.27,315.41z M182.46,154.22
							c-3.03-2.12-7.54-1.7-10.06,0.94L62.46,270.21c-2.52,2.64-2.12,6.52,0.91,8.64l51.37,36.06c3.03,2.12,7.54,1.7,10.07-0.94
							l109.94-115.05c2.52-2.64,2.12-6.52-0.91-8.64L182.46,154.22z"/>
					</g>
				</g>
				<g>
					<g>
						<path style="fill:#A8DCA4;stroke:#000000;stroke-width:0.5;stroke-miterlimit:10;" d="M208.7,220.93
							c-3.83,3.78-10.43,4.36-14.73,1.3c-4.3-3.06-4.68-8.61-0.84-12.39c3.83-3.78,10.43-4.36,14.73-1.3
							C212.16,211.6,212.53,217.15,208.7,220.93z"/>
						<path style="fill:#FFFFFF;" d="M201.14,220.26c-0.22,0.07-0.45,0.03-0.62-0.08c-0.08-0.06-0.14-0.13-0.18-0.23
							c-0.59-1.52-1.92-2.64-2.93-3.32c-1.12-0.75-2.11-1.13-2.12-1.13c-0.31-0.12-0.44-0.43-0.29-0.7
							c0.15-0.27,0.53-0.39,0.85-0.27c0.04,0.02,1.11,0.42,2.34,1.24c0.72,0.48,1.36,1.01,1.88,1.56c0.67,0.7,1.16,1.46,1.46,2.24
							C201.65,219.84,201.47,220.15,201.14,220.26z"/>
						<path style="fill:#FFFFFF;" d="M203.64,219.28c-0.26,0.08-0.54,0.04-0.73-0.1c-0.1-0.07-0.17-0.16-0.21-0.27
							c-0.7-1.8-2.28-3.13-3.47-3.93c-1.33-0.88-2.5-1.33-2.51-1.34c-0.37-0.14-0.52-0.51-0.34-0.83c0.18-0.32,0.63-0.47,1-0.33
							c0.05,0.02,1.32,0.5,2.78,1.47c0.86,0.57,1.61,1.19,2.23,1.85c0.79,0.83,1.37,1.73,1.74,2.66
							C204.25,218.79,204.03,219.16,203.64,219.28z"/>
						<path style="fill:#FFFFFF;" d="M205.66,218.21c-0.12-0.08-0.21-0.19-0.26-0.33c-1.67-4.28-7.28-6.44-7.34-6.46
							c-0.45-0.17-0.64-0.63-0.42-1.02c0.22-0.39,0.78-0.57,1.23-0.4c0.07,0.02,1.62,0.62,3.4,1.8c1.05,0.7,1.97,1.46,2.74,2.27
							c0.97,1.02,1.68,2.12,2.13,3.26c0.16,0.4-0.11,0.85-0.59,1C206.23,218.43,205.89,218.38,205.66,218.21z"/>
					</g>
					<g>
						<path style="fill:#D47172;stroke:#000000;stroke-width:0.5;stroke-miterlimit:10;" d="M153.4,210.18
							c-3.83,3.78-10.42,4.36-14.72,1.29c-4.3-3.06-4.68-8.61-0.85-12.38c3.83-3.78,10.42-4.36,14.72-1.29
							C156.85,200.86,157.23,206.41,153.4,210.18z"/>
						<path style="fill:#FFFFFF;" d="M149.51,200.8c-2.42-1.72-6.13-1.4-8.28,0.72c-2.15,2.12-1.93,5.24,0.48,6.96
							c2.42,1.72,6.13,1.4,8.28-0.72C152.14,205.64,151.92,202.52,149.51,200.8L149.51,200.8z M150.55,204.66
							c-0.05,0.9-0.44,1.8-1.19,2.56c-0.14-0.15-0.72-0.76-1.56-1.36c-0.27-0.19-0.57-0.38-0.89-0.56c0.03-0.07,0.06-0.14,0.08-0.21
							c0.08-0.21,0.16-0.42,0.22-0.62C148.99,204.92,150.27,204.72,150.55,204.66L150.55,204.66z M148.9,201.4
							c0.93,0.66,1.48,1.58,1.62,2.54c-0.23,0.05-1.41,0.27-3.08-0.21c0.36-1.34,0.51-2.56,0.54-2.84
							C148.3,201.02,148.61,201.19,148.9,201.4L148.9,201.4z M146.99,200.58c-0.03,0.25-0.18,1.47-0.52,2.82
							c-1.96-0.77-3.4-1.75-3.74-1.99l-0.04-0.03C143.94,200.56,145.53,200.28,146.99,200.58L146.99,200.58z M141.9,202.01
							c0.03-0.03,0.05-0.05,0.08-0.08c0.02,0.02,0.05,0.04,0.1,0.07c0.46,0.33,2.09,1.43,4.16,2.17c-0.07,0.24-0.16,0.48-0.24,0.72
							c-0.05-0.02-0.1-0.04-0.16-0.05c-2.38-0.79-4.81-0.13-5.19-0.01C140.66,203.84,141.07,202.83,141.9,202.01L141.9,202.01z
							 M142.31,207.89c-0.85-0.6-1.38-1.41-1.57-2.28c0.29-0.11,2.29-0.77,4.94,0.05c0,0,0,0,0.01,0c-0.67,1.52-1.44,2.65-1.69,3
							C143.39,208.5,142.82,208.25,142.31,207.89L142.31,207.89z M144.99,208.81c0.2-0.29,0.93-1.34,1.6-2.78
							c0.29,0.15,0.56,0.31,0.79,0.48c0.77,0.55,1.23,1.13,1.33,1.27C147.65,208.54,146.3,208.9,144.99,208.81L144.99,208.81z"/>
					</g>
					<g>
						<path style="fill:#A8DCA4;stroke:#000000;stroke-width:0.5;stroke-miterlimit:10;" d="M170.26,193.56
							c-3.83,3.78-10.43,4.36-14.73,1.3c-4.3-3.06-4.68-8.61-0.84-12.39c3.83-3.78,10.43-4.36,14.73-1.3
							C173.72,184.23,174.09,189.78,170.26,193.56z"/>
					</g>
					<g>
						<path style="fill:#5F76E8;stroke:#000000;stroke-width:0.5;stroke-miterlimit:10;" d="M192.04,237.35
							c-3.94,3.89-10.62,4.55-14.93,1.49c-4.3-3.06-4.59-8.7-0.65-12.58c3.94-3.89,10.62-4.55,14.93-1.49
							C195.69,227.83,195.98,233.47,192.04,237.35z"/>
					</g>
					<g>
						<path style="fill:#D47172;stroke:#000000;stroke-width:0.5;stroke-miterlimit:10;" d="M189.16,207.02
							c-3.83,3.78-10.43,4.36-14.73,1.3c-4.3-3.06-4.68-8.61-0.84-12.39c3.83-3.78,10.43-4.36,14.73-1.3
							C192.62,197.69,193,203.24,189.16,207.02z"/>
						<g>
							<g>
								<path style="fill:#FFFFFF;" d="M188.31,202.52c1.12-1.12,1.06-2.4-0.18-3.3c-1.72-1.25-3.45-2.49-5.2-3.7
									c-1.24-0.86-2.76-0.71-3.87,0.35c-0.78,0.75-1.55,1.52-2.32,2.28c-0.75,0.74-1.52,1.49-2.26,2.23
									c-1.14,1.14-1.09,2.43,0.18,3.35c1.7,1.24,3.41,2.46,5.15,3.66c1.27,0.88,2.81,0.73,3.93-0.37
									C185.26,205.54,186.79,204.03,188.31,202.52z M182.89,206.46c-0.72,0.7-1.55,0.78-2.35,0.21c-1.72-1.21-3.44-2.43-5.14-3.66
									c-0.8-0.58-0.84-1.27-0.14-1.98c1.53-1.53,3.08-3.05,4.63-4.56c0.71-0.69,1.56-0.78,2.36-0.22
									c1.73,1.21,3.44,2.43,5.14,3.66c0.79,0.57,0.83,1.28,0.13,1.98c-0.76,0.77-1.54,1.52-2.31,2.28
									C184.43,204.94,183.67,205.71,182.89,206.46z"/>
								<path style="fill:#FFFFFF;" d="M183.56,199.33c-1.32-0.94-3.36-0.77-4.56,0.39c-1.21,1.17-1.14,2.87,0.17,3.84
									c1.34,0.99,3.38,0.84,4.61-0.34C185,202.03,184.9,200.3,183.56,199.33z M179.92,202.87c-0.85-0.63-0.92-1.78-0.17-2.54
									c0.78-0.78,2.16-0.9,3.05-0.27c0.89,0.64,0.98,1.8,0.18,2.57C182.2,203.4,180.78,203.51,179.92,202.87z"/>
								<path style="fill:#FFFFFF;" d="M186.76,201.53c-0.33,0.28-0.71,0.28-1.03,0.03c-0.35-0.28-0.34-0.61,0.01-0.91
									c0.33-0.28,0.69-0.26,1.05-0.04C187.08,200.91,187.11,201.22,186.76,201.53z"/>
							</g>
						</g>
					</g>
					<g>
						<path style="fill:#D89CC7;stroke:#000000;stroke-width:0.5;stroke-miterlimit:10;" d="M172.31,223.64
							c-3.83,3.78-10.43,4.36-14.73,1.3c-4.3-3.06-4.68-8.61-0.84-12.39c3.83-3.78,10.43-4.36,14.73-1.3
							C175.77,214.31,176.14,219.86,172.31,223.64z"/>
						<path style="fill:#FFFFFF;" d="M169.37,220.18c-0.09-0.05-0.17-0.1-0.25-0.16c-0.88-0.62-1.3-1.6-1.13-2.58l-3.57,3.52
							c-1.46,1.44-3.97,1.66-5.6,0.49c-1.64-1.16-1.78-3.27-0.32-4.71c1.46-1.44,3.97-1.66,5.6-0.49l0,0
							c0.06,0.04,0.12,0.09,0.17,0.14l-1.3,1.28c-0.05-0.05-0.1-0.1-0.17-0.15c-0.83-0.59-2.12-0.48-2.86,0.25
							c-0.74,0.73-0.67,1.81,0.16,2.4c0.83,0.59,2.16,0.54,2.9-0.19l6.08-5.97l1.4,0.99c-0.98,1.19-0.85,2.77,0.33,3.75
							L169.37,220.18"/>
					</g>
				</g>
				<g>
					<g>
						<path style="fill:#D89CC7;stroke:#000000;stroke-width:0.5;stroke-miterlimit:10;" d="M174.47,255.16
							c-3.83,3.78-10.43,4.36-14.73,1.3c-4.3-3.06-4.68-8.61-0.84-12.39c3.83-3.78,10.43-4.36,14.73-1.3
							C177.93,245.83,178.3,251.38,174.47,255.16z"/>
					</g>
					<g>
						<path style="fill:#A8DCA4;stroke:#000000;stroke-width:0.5;stroke-miterlimit:10;" d="M119.17,244.41
							c-3.83,3.78-10.42,4.36-14.72,1.29c-4.3-3.06-4.68-8.61-0.85-12.38c3.83-3.78,10.42-4.36,14.72-1.29
							C122.62,235.09,123,240.64,119.17,244.41z"/>
					</g>
					<g>
						<path style="fill:#5F76E8;stroke:#000000;stroke-width:0.5;stroke-miterlimit:10;" d="M136.03,227.79
							c-3.83,3.78-10.43,4.36-14.73,1.3c-4.3-3.06-4.68-8.61-0.84-12.39c3.83-3.78,10.43-4.36,14.73-1.3
							C139.48,218.46,139.86,224.01,136.03,227.79z"/>
						<path style="fill:#FFFFFF;" d="M129.98,220.21c-0.46,0.42-0.89,0.87-1.37,1.34l1.93,1.38c-0.65,0.5-1.25,0.97-1.86,1.42
							c-0.06,0.05-0.27,0-0.36-0.05c-0.48-0.32-0.94-0.66-1.44-1.02l-5.75,5.67c-0.7-0.52-1.29-1.1-1.77-1.74l5.46-5.38l-1.69-1.21
							l1.74-1.71l1.66,1.18c0.14-0.13,0.25-0.22,0.35-0.32c0.47-0.44,0.91-0.91,1.41-1.32c1.1-0.9,2.48-1.11,3.72-0.46
							c0.77,0.4,1.41,0.98,2.13,1.49l-1.58,1.56c-0.25-0.18-0.51-0.37-0.77-0.55c-0.23-0.15-0.45-0.33-0.72-0.44
							C130.69,219.9,130.28,219.93,129.98,220.21z"/>
					</g>
					<g>
						<path style="fill:#5F76E8;stroke:#000000;stroke-width:0.5;stroke-miterlimit:10;" d="M157.81,271.58
							c-3.94,3.89-10.62,4.55-14.93,1.49c-4.3-3.06-4.59-8.7-0.65-12.58c3.94-3.89,10.62-4.55,14.93-1.49
							C161.46,262.07,161.75,267.7,157.81,271.58z"/>
						<g>
							<path style="fill:#FFFFFF;" d="M142.42,266.32c1.02,0.76,2.18,1.19,3.6,1.22c-0.84-1.14-0.98-1.79-0.54-2.51
								c0.27,0.17,0.54,0.35,0.81,0.52c-0.59-0.97-0.57-1.91,0.28-2.87c0.21,0.27,0.41,0.51,0.61,0.76
								c0.13-1.55,0.71-2.42,1.91-2.75c-0.05,1.89,0.66,3.49,2.23,4.79c0.11-0.12,0.2-0.22,0.28-0.31c0.76-0.81,1.73-1.14,2.85-0.94
								c1.12,0.2,1.77,0.83,1.94,1.8c0.04,0.21,0.13,0.33,0.36,0.4c0.42,0.12,0.84,0.24,1.3,0.37c-0.53,0.27-1.08,0.36-1.66,0.34
								c-0.01,0.02-0.02,0.04-0.03,0.07c0.4,0.15,0.79,0.31,1.19,0.46c0,0.02,0,0.04,0,0.06c-0.48,0.05-0.96,0.12-1.43,0.14
								c-0.25,0.01-0.42,0.06-0.6,0.24c-2.68,2.66-7.14,3.29-10.3,1.45c-1.27-0.74-2.2-1.73-2.72-3
								C142.47,266.48,142.45,266.4,142.42,266.32z"/>
						</g>
					</g>
					<g>
						<path style="fill:#FFFFFF;stroke:#222221;stroke-width:0.5;stroke-miterlimit:10;" d="M154.93,241.25
							c-3.83,3.78-10.43,4.36-14.73,1.3c-4.3-3.06-4.68-8.61-0.84-12.39c3.83-3.78,10.43-4.36,14.73-1.3
							C158.39,231.92,158.77,237.47,154.93,241.25z"/>
					</g>
				</g>
				<path style="opacity:0.5;fill:#FFFFFF;" d="M120.69,300.36L77.25,269.9c-2.08-1.46-2.36-4.32-0.61-6.17l0,0
					c1.54-1.62,4.11-1.89,5.93-0.61l43.44,30.46c2.08,1.46,2.36,4.32,0.61,6.17l0,0C125.09,301.37,122.52,301.64,120.69,300.36z"/>
				<path style="fill:#FFFFFF;" d="M206.01,235.04c-0.42-0.29-0.86-0.57-1.29-0.85c-3.52-2.26-7.12-4.39-10.78-6.41
					c-2.77-1.52-5.82-4.42-9.28-3.3c-2.22,0.71-3.54,3.05-3.97,5.34c-0.78,4.18,0.79,8.55,3.41,11.9c2.71,3.46,6.78,5.43,10.28,7.94
					c0.08,0.06,0.17,0.13,0.21,0.22c0.05,0.14-0.02,0.29-0.08,0.42c-0.72,1.38-3.62,5.73-4.52,7c-1.08,1.51,1.61,0.19,3.66-0.43
					c1.81-0.55,2.95-0.42,4.76-0.1c2.29,0.4,6.02-0.78,7.94-2c1.08-0.68,2.08-1.56,2.61-2.73c1.86-4.08,2.88-11.13-0.33-14.77
					C207.86,236.4,206.96,235.69,206.01,235.04z"/>
				<path style="fill:#FFFFFF;" d="M169.68,253.72c-2.64-0.7-5.28-1.41-7.92-2.11c-1.07-0.29-2.22-0.57-3.28-0.22
					c-1.16,0.38-1.96,1.46-2.45,2.58c-1.71,3.94-0.27,8.69,2.53,11.94c2.8,3.25,6.74,5.28,10.66,7.03c4.05,1.81,9.37,3.91,9.93,5.97
					c0.43,1.62,2.87-1.72,4.06-2.89c3.65-3.58,10.93-12.37,4.97-16.95c-3.12-2.39-9.04-2.83-12.76-3.82
					C173.5,254.74,171.59,254.23,169.68,253.72z"/>
				<path style="fill:#FFFFFF;" d="M157.05,275.26c-1.56-0.29-3.14-0.53-4.7-0.76c-4.87-0.73-12.12,0.28-12.15,6.8
					c-0.01,2.37,1.38,4.57,3.19,6.09c1.81,1.52,4.02,2.48,6.2,3.41c2.74,1.18,6.95,2.03,8.81,4.46c2.28,2.98,2.5,7.32,7.31,7.59
					c2.53,0.14,4.9-1.59,6.12-3.81c1.23-2.22,1.5-4.84,1.47-7.37c-0.04-3.73-0.69-7.53-2.46-10.81
					C168.98,277.42,160.58,275.91,157.05,275.26z"/>
				<g>
					<path style="fill:#D47172;stroke:#000000;stroke-width:0.5;stroke-miterlimit:10;" d="M138.14,257.97
						c-3.83,3.78-10.42,4.36-14.72,1.29c-4.3-3.06-4.68-8.61-0.85-12.38c3.83-3.78,10.42-4.36,14.72-1.29
						C141.59,248.65,141.97,254.19,138.14,257.97z"/>
					<path style="fill:#FFFFFF;" d="M134.25,248.58c-2.42-1.72-6.13-1.4-8.28,0.72c-2.15,2.12-1.93,5.24,0.48,6.96
						c2.42,1.72,6.13,1.4,8.28-0.72C136.88,253.42,136.67,250.3,134.25,248.58L134.25,248.58z M135.29,252.45
						c-0.05,0.9-0.44,1.8-1.19,2.56c-0.14-0.15-0.72-0.76-1.56-1.36c-0.27-0.19-0.57-0.38-0.89-0.56c0.03-0.07,0.06-0.14,0.08-0.21
						c0.08-0.21,0.16-0.42,0.22-0.62C133.73,252.71,135.02,252.5,135.29,252.45L135.29,252.45z M133.64,249.18
						c0.93,0.66,1.48,1.58,1.62,2.54c-0.23,0.05-1.41,0.27-3.08-0.21c0.36-1.34,0.51-2.56,0.54-2.84
						C133.05,248.81,133.35,248.98,133.64,249.18L133.64,249.18z M131.73,248.36c-0.03,0.25-0.18,1.47-0.52,2.82
						c-1.96-0.77-3.4-1.75-3.74-1.99l-0.04-0.03C128.68,248.35,130.28,248.07,131.73,248.36L131.73,248.36z M126.65,249.79
						c0.03-0.03,0.05-0.05,0.08-0.08c0.02,0.02,0.05,0.04,0.1,0.07c0.46,0.33,2.09,1.43,4.16,2.17c-0.07,0.24-0.16,0.48-0.24,0.72
						c-0.05-0.02-0.1-0.04-0.16-0.06c-2.38-0.79-4.81-0.13-5.19-0.01C125.4,251.62,125.81,250.62,126.65,249.79L126.65,249.79z
						 M127.06,255.67c-0.85-0.6-1.38-1.41-1.57-2.28c0.29-0.11,2.29-0.77,4.94,0.05c0,0,0,0,0.01,0c-0.67,1.52-1.44,2.65-1.69,3
						C128.14,256.29,127.56,256.03,127.06,255.67L127.06,255.67z M129.73,256.59c0.2-0.29,0.93-1.34,1.6-2.78
						c0.29,0.15,0.56,0.31,0.79,0.48c0.77,0.55,1.23,1.13,1.33,1.27C132.4,256.32,131.04,256.68,129.73,256.59L129.73,256.59z"/>
				</g>
				<path style="fill:#FFFFFF;" d="M114.15,214c-1.79,1.41-3.51,2.89-5.16,4.46c-0.52,0.49-1.19,1.03-1.86,0.79
					c-0.43-0.15-0.7-0.58-0.92-0.99c-2.01-3.68-3.47-7.65-4.36-11.74c-0.7-3.26-2.36-8.47,0.86-10.68c3.6-2.46,8.23-4.12,12.2-5.92
					c4.42-2.01,8.98-3.46,13.47-5.26c4.07-1.63,8.56-0.47,12.87-0.08c3.46,0.32,6.95,0.63,10.39,0.14c4.25-0.61,9.44-1.85,12,2.77
					c1.37,2.47,1.2,5.61,0,8.17c-1.2,2.56-3.32,4.6-5.67,6.17c-5.92,3.95-13.61,5.15-20.45,3.17c-1.35-0.39-2.7-0.9-4.1-0.9
					c-2.59,0-6.36,1.82-8.73,2.96C120.95,208.88,117.4,211.44,114.15,214z"/>
				<path style="fill:none;stroke:#000000;stroke-width:0.5;stroke-miterlimit:10;" d="M169.39,272.94c2.78,1.38,4.99,2,8.03,2.65"
					/>
				<path style="fill:none;stroke:#000000;stroke-width:0.5;stroke-miterlimit:10;" d="M156.53,253.08
					c-0.61,1.08,0.09,2.66,0.83,3.65c0.74,0.99,1.86,1.63,2.99,2.15c0.02,0.01,0.04,0.02,0.06,0.03c3.13,1.42,6.88-0.27,7.91-3.55
					c0.15-0.47,0.28-0.94,0.41-1.42"/>
				<path style="fill:none;stroke:#000000;stroke-width:0.5;stroke-miterlimit:10;" d="M155.68,275.94c0.1,2.37-1.41,4.73-3.61,5.63
					c-2.2,0.9-4.93,0.27-6.52-1.5"/>
				<path style="fill:none;stroke:#000000;stroke-width:0.5;stroke-miterlimit:10;" d="M195.74,229.34
					c-0.35,1.75-2.03,3.05-3.81,3.27c-1.77,0.22-3.57-0.5-4.96-1.61c-1.4-1.11-2.45-2.6-3.39-4.11"/>
				<path style="fill:none;stroke:#000000;stroke-width:0.5;stroke-miterlimit:10;" d="M187.55,258.15"/>
				<path style="fill:none;stroke:#000000;stroke-width:0.5;stroke-miterlimit:10;" d="M192.09,270.93"/>
				<path style="fill:none;stroke:#000000;stroke-width:0.5;stroke-miterlimit:10;" d="M190.6,247.14c2.13,1.44,4.38,2.7,6.71,3.78"
					/>
				<path style="fill:none;stroke:#000000;stroke-width:0.5;stroke-miterlimit:10;" d="M162.63,186.07
					c-2.19,0.61-4.4,1.23-6.67,1.24c-2.27,0.01-4.64-0.67-6.21-2.31"/>
			</g>
			<path style="fill:none;stroke:#000000;stroke-width:0.5;stroke-linecap:round;stroke-miterlimit:10;" d="M192.18,271.06
				c0.36-0.02,0.72-0.04,1.07-0.07c2.59-0.22,5.16-0.69,7.66-1.4c5.11-1.46,6.58-7.89,7.71-12.47c1.11-4.5,2.19-9.03,2.07-13.7
				c-0.01-0.22-0.04-0.43-0.06-0.65c-0.01-0.16-0.02-0.32-0.04-0.47c0-0.02-0.01-0.04-0.01-0.06c-0.22-1.9-0.82-3.67-1.98-4.98
				c-0.36-0.41-0.76-0.79-1.18-1.14c-3.99-3.36-8.93-5.82-13.51-8.34c-2.77-1.52-5.82-4.42-9.28-3.3c-2.22,0.71-3.54,3.05-3.97,5.34
				c-0.78,4.18,0.79,8.55,3.41,11.9c1.93,2.47,4.55,4.18,7.17,5.86"/>
			<path style="fill:none;stroke:#000000;stroke-width:0.5;stroke-linecap:round;stroke-miterlimit:10;" d="M191.24,283.27
				c1-6.61,1.54-14.44-0.81-20.83c-0.99-2.7-3.35-4.82-6.25-5.23c-2.93-0.89-6.32-1.3-8.76-1.95c-1.91-0.51-3.82-1.02-5.73-1.52
				c-2.64-0.7-5.28-1.41-7.92-2.11c-1.07-0.29-2.22-0.57-3.28-0.22c-1.16,0.38-1.96,1.46-2.45,2.58c-1.71,3.94-0.27,8.69,2.53,11.94
				c2.75,3.2,6.6,5.21,10.46,6.93c-1.25,3.08-2.5,6.16-3.75,9.25c-0.76,1.86-1.52,3.87-1.1,5.83c0.66,3.09,3.97,4.83,7.05,5.51
				c4.43,0.99,9.14,0.65,13.39-0.95c1.71-0.65,3.4-1.54,4.54-2.98C190.52,287.77,190.9,285.47,191.24,283.27z"/>
			<path style="fill:#FFFFFF;" d="M157.05,275.26c-3.14-0.58-6.33-0.93-9.49-1.38c-1.14-0.16-2.33-0.33-3.43,0.02
				c-1.46,0.46-2.54,1.77-3.09,3.19c-1.49,3.8-0.81,7.63,2.36,10.29c1.81,1.52,4.02,2.48,6.2,3.41c2.74,1.18,6.95,2.03,8.81,4.46
				c2.28,2.98,2.5,7.32,7.31,7.59c2.53,0.14,4.9-1.59,6.12-3.81c1.23-2.22,1.5-4.84,1.47-7.37c-0.04-3.73-0.69-7.53-2.46-10.81
				C168.98,277.42,160.58,275.91,157.05,275.26z"/>
			<path style="fill:none;stroke:#000000;stroke-width:0.5;stroke-linecap:round;stroke-miterlimit:10;" d="M171.83,299.04
				c1.23-2.22,1.5-4.84,1.47-7.37c-0.04-3.73-0.69-7.53-2.46-10.81c-1.86-3.44-10.26-4.95-13.79-5.6
				c-3.48-0.64-7.03-1.27-10.56-1.59c-0.68-0.06-1.38-0.11-2.05,0.06c-1.12,0.28-2.03,1.12-2.64,2.11
				c-0.95,1.55-1.61,3.64-1.62,5.46c-0.01,2.37,1.38,4.57,3.19,6.09c1.81,1.52,4.02,2.48,6.2,3.41"/>
			<path style="fill:none;stroke:#000000;stroke-width:0.5;stroke-linecap:round;stroke-miterlimit:10;" d="M170.42,301.41
				c-1.2,1.44-1.9,1.92-3.49,2.92c-9.63,6.07-20.17,10.57-30.37,15.73c-10.92,5.51-23.86,7.63-35.45,11.43
				c-11.09,3.63-19.87,10.74-28.61,18.54c-19.03,16.98-34.54,37.38-51.26,56.52c-9.13,10.46-19.15,20.91-32.16,25.77
				c-17.66,6.6-39.21,0.77-51.14-13.81c-11.93-14.59-13.36-36.87-3.4-52.86c5.88-9.43,14.94-16.35,23.81-23.05
				c4.88,0,17.38-13.14,21.51-16.25c7.59-5.74,15.18-11.47,22.77-17.21c14.51-10.97,29.44-21.39,42.76-33.79
				c6.41-5.96,12.95-10.5,16.13-19.13c1.58-4.27,2.24-8.84,3.79-13.12c1.79-4.92,4.71-9.34,7.6-13.71c2.39-3.6,4.77-7.21,7.16-10.81
				c4.01-6.05,8.13-12.22,13.89-16.63"/>
			<path style="fill:none;stroke:#000000;stroke-width:0.5;stroke-linecap:round;stroke-miterlimit:10;" d="M101.88,196.81
				c0.64-0.36,1.27-0.72,1.91-1.08c0.09-0.08,0.18-0.16,0.28-0.23c2-1.35,4.34-2.43,6.7-3.44c2.58-1.27,5.21-2.45,7.92-3.53
				c1.14-0.45,2.32-0.89,3.52-1.13c2.32-0.84,4.66-1.66,6.97-2.56c3.99-1.56,8.39-0.42,12.61-0.01c3.39,0.32,6.82,0.64,10.18,0.19
				c4.17-0.57,9.24-1.74,11.77,2.73c1.36,2.39,1.21,5.42,0.04,7.88c-2.15,4.57-7.31,7.86-11.96,9.38
				c-4.05,1.32-8.24,0.91-12.49,0.61c-3.3-0.24-6.23-1.71-9.51-1.28"/>
			<path style="fill:none;stroke:#000000;stroke-width:0.5;stroke-miterlimit:10;" d="M149.39,290.6c3.39,1.67,7.1,3.39,10.81,2.69"
				/>
			<path style="fill:none;stroke:#000000;stroke-width:0.5;stroke-miterlimit:10;" d="M153.6,274.62c-0.28,1.07-0.6,2.14-0.96,3.19
				c-0.22,0.65-0.47,1.32-0.91,1.85c-0.74,0.9-1.97,1.34-3.18,1.44c-2.66,0.22-5.24-1.01-7.64-2.2"/>
			<path style="fill:none;stroke:#000000;stroke-width:0.5;stroke-linecap:round;stroke-miterlimit:10;" d="M134.69,202.5
				c-3.07,1.28-6.15,2.56-9.22,3.84"/>
			<path style="fill:none;stroke:#222221;stroke-width:0.5;stroke-miterlimit:10;" d="M92.04,331.65c-2.19,1.27-4.37,2.53-6.56,3.8"
				/>
			<path style="fill:none;stroke:#222221;stroke-width:0.5;stroke-miterlimit:10;" d="M80.98,338.19
				c-5.76,4.04-11.19,8.56-16.2,13.5"/>
			<path style="fill:none;stroke:#222221;stroke-width:0.5;stroke-miterlimit:10;" d="M84.79,333.02c-1.73,0.68-3.37,1.62-4.83,2.77
				"/>
			<path style="fill:none;stroke:#222221;stroke-width:0.5;stroke-miterlimit:10;" d="M46.46,280.88c-2.76,2.19-5.53,4.37-8.29,6.56
				"/>
			<path style="fill:none;stroke:#222221;stroke-width:0.5;stroke-miterlimit:10;" d="M186.95,261.94c1.76,1.76,2.57,4.41,2.12,6.85
				"/>
			<path style="fill:none;stroke:#222221;stroke-width:0.5;stroke-miterlimit:10;" d="M99.59,198.27c-0.91,0.59-1.82,1.19-2.73,1.78
				"/>
			<path style="fill:none;stroke:#222221;stroke-width:0.5;stroke-miterlimit:10;" d="M98.07,202.99c-2.57,1.41-4.95,3.17-7.06,5.21
				"/>
			<path style="fill:none;stroke:#222221;stroke-width:0.5;stroke-miterlimit:10;" d="M88.76,210.44c-0.52,0.58-1.04,1.15-1.55,1.73
				"/>
			<path style="fill:none;stroke:#222221;stroke-width:0.5;stroke-miterlimit:10;" d="M149.86,186.65c1,0.66,2.13,1.11,3.31,1.33"/>
			<path style="fill:none;stroke:#000000;stroke-width:0.5;stroke-linecap:round;stroke-miterlimit:10;" d="M208.59,239.96
				c-0.9,0.36-1.72,0.88-2.43,1.54"/>
			<path style="fill:none;stroke:#000000;stroke-width:0.5;stroke-linecap:round;stroke-miterlimit:10;" d="M208.58,241.5
				c-0.53,0.15-1.01,0.46-1.37,0.88"/>
			<path style="fill:none;stroke:#000000;stroke-width:0.5;stroke-linecap:round;stroke-miterlimit:10;" d="M189.08,270.87
				c0,0.63,0,1.27,0,1.9"/>
			<path style="fill:none;stroke:#000000;stroke-width:0.5;stroke-linecap:round;stroke-miterlimit:10;" d="M77.56,337.19
				c-0.46,0.35-0.92,0.69-1.38,1.04"/>
			<path style="fill:none;stroke:#000000;stroke-width:0.5;stroke-linecap:round;stroke-miterlimit:10;" d="M130.03,304.02
				c1.5-1.61,2.99-3.22,4.49-4.83"/>
			<path style="fill:none;stroke:#000000;stroke-width:0.5;stroke-linecap:round;stroke-miterlimit:10;" d="M66.79,271.97
				c2.68,1.91,5.36,3.82,8.04,5.73"/>
			<path style="fill:none;stroke:#000000;stroke-width:0.5;stroke-linecap:round;stroke-miterlimit:10;" d="M76.31,278.79
				c0.53,0.57,1.15,1.04,1.84,1.4"/>
			<path style="fill:none;stroke:#000000;stroke-width:0.5;stroke-linecap:round;stroke-miterlimit:10;" d="M72.44,277.87
				c0.65,0.47,1.3,0.95,1.94,1.42"/>
			<path style="fill:none;stroke:#000000;stroke-width:0.5;stroke-linecap:round;stroke-miterlimit:10;" d="M232.9,192
				c0.9,0.78,1.87,1.66,2.03,2.84c0.16,1.22-0.58,2.35-1.29,3.35"/>
		</g>
	</g>
</g>
</svg>
