<svg xmlns="http://www.w3.org/2000/svg" xmlns:xlink="http://www.w3.org/1999/xlink" width="505" zoomAndPan="magnify" viewBox="0 0 378.75 269.999989" height="360" preserveAspectRatio="xMidYMid meet" version="1.0"><defs><clipPath id="0f86f02f11"><path d="M 59 3.238281 L 378.5 3.238281 L 378.5 231 L 59 231 Z M 59 3.238281 " clip-rule="nonzero"/></clipPath><clipPath id="7b60836483"><path d="M 186 226 L 228 226 L 228 267.238281 L 186 267.238281 Z M 186 226 " clip-rule="nonzero"/></clipPath><clipPath id="e497f390b4"><path d="M 240 226 L 282 226 L 282 267.238281 L 240 267.238281 Z M 240 226 " clip-rule="nonzero"/></clipPath><clipPath id="4db6d79f32"><path d="M 132 226 L 174 226 L 174 267.238281 L 132 267.238281 Z M 132 226 " clip-rule="nonzero"/></clipPath></defs><g clip-path="url(#0f86f02f11)"><path fill="#ffc75d" d="M 59.046875 3.429688 L 378.773438 3.429688 L 378.773438 230.292969 L 59.046875 230.292969 Z M 59.046875 3.429688 " fill-opacity="1" fill-rule="nonzero"/></g><path fill="#000000" d="M 59.046875 221.230469 L 195.898438 221.230469 L 195.898438 230.292969 L 59.046875 230.292969 Z M 59.046875 221.230469 " fill-opacity="1" fill-rule="nonzero"/><path fill="#ffa79b" d="M 195.902344 197.988281 C 195.902344 197.988281 180.015625 191.871094 169.019531 191.871094 C 158.019531 191.871094 147.023438 211.445312 142.136719 215.113281 C 137.25 218.785156 149.46875 221.230469 155.578125 220.007812 C 161.6875 218.785156 173.90625 207.777344 173.90625 207.777344 C 173.90625 207.777344 182.457031 221.230469 195.902344 221.230469 C 209.34375 221.230469 195.902344 197.988281 195.902344 197.988281 Z M 195.902344 197.988281 " fill-opacity="1" fill-rule="nonzero"/><path fill="#000000" d="M 111.589844 230.292969 L 59.050781 230.292969 L 59.050781 139.269531 L 81.222656 139.269531 C 81.902344 139.269531 82.5625 139.378906 83.203125 139.59375 C 83.84375 139.808594 84.433594 140.121094 84.976562 140.53125 C 85.515625 140.9375 85.976562 141.421875 86.355469 141.984375 C 86.738281 142.542969 87.023438 143.148438 87.203125 143.800781 Z M 111.589844 230.292969 " fill-opacity="1" fill-rule="nonzero"/><path fill="#000000" d="M 254.550781 63.425781 L 225.222656 78.105469 C 225.222656 78.105469 185.339844 82.226562 192.234375 53.640625 C 200.785156 18.164062 231.335938 36.511719 231.335938 36.511719 C 231.335938 36.511719 239.886719 25.503906 261.882812 31.621094 C 278.734375 36.3125 281.433594 69.542969 281.433594 69.542969 C 282.046875 68.753906 282.71875 68.015625 283.449219 67.328125 C 284.175781 66.640625 284.953125 66.011719 285.773438 65.441406 C 286.597656 64.871094 287.460938 64.367188 288.359375 63.929688 C 289.257812 63.488281 290.183594 63.121094 291.140625 62.820312 C 292.09375 62.523438 293.066406 62.296875 294.054688 62.144531 C 295.046875 61.992188 296.039062 61.917969 297.039062 61.917969 C 298.042969 61.914062 299.035156 61.988281 300.027344 62.140625 C 301.015625 62.289062 301.988281 62.511719 302.941406 62.808594 C 303.898438 63.105469 304.828125 63.472656 305.726562 63.910156 C 306.625 64.347656 307.488281 64.851562 308.3125 65.417969 C 309.136719 65.988281 309.914062 66.613281 310.644531 67.300781 C 311.371094 67.984375 312.046875 68.722656 312.664062 69.507812 C 313.28125 70.296875 313.839844 71.128906 314.332031 72 C 314.824219 72.871094 315.25 73.773438 315.605469 74.710938 C 315.960938 75.648438 316.246094 76.605469 316.457031 77.582031 C 316.667969 78.5625 316.804688 79.550781 316.867188 80.550781 C 316.867188 80.550781 341.304688 58.53125 357.1875 87.890625 C 372.023438 115.316406 333.972656 129.484375 333.972656 129.484375 L 283.875 116.027344 Z M 254.550781 63.425781 " fill-opacity="1" fill-rule="nonzero"/><path fill="#a8b7e2" d="M 362.074219 230.292969 L 340.171875 132.203125 C 340 131.433594 339.792969 130.671875 339.554688 129.917969 C 339.316406 129.167969 339.046875 128.429688 338.742188 127.699219 C 338.4375 126.972656 338.101562 126.257812 337.734375 125.5625 C 337.367188 124.863281 336.96875 124.183594 336.542969 123.519531 C 336.117188 122.855469 335.660156 122.210938 335.179688 121.589844 C 334.695312 120.96875 334.183594 120.367188 333.648438 119.789062 C 333.113281 119.210938 332.550781 118.65625 331.964844 118.128906 C 331.378906 117.601562 330.773438 117.097656 330.144531 116.625 C 329.515625 116.148438 328.863281 115.703125 328.195312 115.285156 C 327.527344 114.867188 326.839844 114.480469 326.140625 114.125 C 325.4375 113.769531 324.71875 113.441406 323.988281 113.148438 C 323.257812 112.855469 322.511719 112.59375 321.757812 112.367188 C 321.003906 112.140625 320.242188 111.945312 319.46875 111.785156 C 318.699219 111.625 317.921875 111.496094 317.136719 111.40625 C 316.355469 111.3125 315.570312 111.257812 314.78125 111.234375 C 313.996094 111.210938 313.207031 111.222656 312.421875 111.269531 L 267.988281 113.925781 C 265.699219 114.0625 263.457031 114.453125 261.257812 115.09375 C 259.058594 115.738281 256.957031 116.617188 254.953125 117.734375 C 252.949219 118.847656 251.097656 120.171875 249.390625 121.703125 C 247.683594 123.238281 246.171875 124.941406 244.847656 126.8125 L 229.261719 148.875 C 228.957031 149.308594 228.679688 149.753906 228.433594 150.222656 C 228.183594 150.6875 227.964844 151.164062 227.777344 151.65625 C 227.589844 152.152344 227.433594 152.652344 227.308594 153.164062 C 227.179688 153.679688 227.089844 154.195312 227.027344 154.71875 C 226.96875 155.246094 226.9375 155.769531 226.945312 156.296875 C 226.949219 156.824219 226.988281 157.351562 227.058594 157.875 C 227.128906 158.394531 227.234375 158.914062 227.367188 159.421875 C 227.503906 159.933594 227.671875 160.433594 227.867188 160.921875 C 228.066406 161.410156 228.292969 161.882812 228.550781 162.34375 C 228.808594 162.804688 229.09375 163.246094 229.40625 163.671875 C 229.71875 164.097656 230.058594 164.5 230.421875 164.882812 C 230.785156 165.265625 231.167969 165.625 231.578125 165.957031 C 231.984375 166.289062 232.410156 166.597656 232.859375 166.878906 C 233.304688 167.160156 233.765625 167.410156 234.246094 167.632812 C 234.722656 167.855469 235.210938 168.046875 235.714844 168.207031 C 236.214844 168.367188 236.726562 168.496094 237.242188 168.59375 L 244.578125 169.972656 L 235.007812 230.296875 Z M 362.074219 230.292969 " fill-opacity="1" fill-rule="nonzero"/><path fill="#000000" d="M 337.035156 143.558594 L 325.417969 136.824219 L 286.320312 185.757812 L 240.980469 192.605469 L 235 230.292969 L 307.339844 230.292969 Z M 337.035156 143.558594 " fill-opacity="1" fill-rule="nonzero"/><path fill="#a8b7e2" d="M 318.089844 180.863281 L 337.035156 143.558594 C 337.472656 142.695312 337.851562 141.808594 338.171875 140.898438 C 338.492188 139.984375 338.75 139.054688 338.945312 138.109375 C 339.140625 137.164062 339.273438 136.207031 339.34375 135.242188 C 339.414062 134.28125 339.417969 133.316406 339.359375 132.351562 C 339.300781 131.386719 339.179688 130.429688 338.996094 129.480469 C 338.808594 128.53125 338.5625 127.597656 338.253906 126.683594 C 337.941406 125.765625 337.574219 124.875 337.144531 124.007812 C 336.71875 123.140625 336.234375 122.308594 335.695312 121.503906 C 335.15625 120.703125 334.570312 119.941406 333.929688 119.214844 C 333.289062 118.492188 332.605469 117.8125 331.875 117.179688 C 331.144531 116.546875 330.375 115.96875 329.566406 115.4375 C 328.761719 114.90625 327.921875 114.429688 327.050781 114.011719 C 326.179688 113.59375 325.285156 113.234375 324.367188 112.933594 C 323.449219 112.636719 322.515625 112.398438 321.566406 112.222656 C 320.617188 112.046875 319.660156 111.9375 318.695312 111.886719 C 317.730469 111.839844 316.769531 111.855469 315.804688 111.9375 L 266.765625 116.027344 L 267.988281 174.746094 L 195.902344 197.988281 L 197.121094 230.292969 L 302.203125 211.445312 Z M 318.089844 180.863281 " fill-opacity="1" fill-rule="nonzero"/><path fill="#ffa79b" d="M 303.425781 113.582031 L 282.652344 84.222656 L 284.085938 82.167969 C 284.597656 81.4375 285.050781 80.671875 285.4375 79.867188 C 285.828125 79.0625 286.148438 78.234375 286.40625 77.378906 C 286.664062 76.523438 286.851562 75.652344 286.96875 74.769531 C 287.085938 73.882812 287.128906 72.996094 287.105469 72.101562 C 287.082031 71.210938 286.984375 70.324219 286.820312 69.445312 C 286.652344 68.570312 286.417969 67.710938 286.117188 66.871094 C 285.8125 66.03125 285.445312 65.222656 285.011719 64.441406 C 284.578125 63.660156 284.085938 62.917969 283.535156 62.214844 C 283.183594 61.765625 282.785156 61.359375 282.34375 61 C 281.902344 60.636719 281.425781 60.324219 280.914062 60.066406 C 280.40625 59.808594 279.875 59.609375 279.320312 59.46875 C 278.765625 59.328125 278.203125 59.25 277.632812 59.234375 C 277.0625 59.214844 276.496094 59.261719 275.933594 59.367188 C 275.375 59.472656 274.832031 59.640625 274.304688 59.867188 C 273.78125 60.09375 273.285156 60.375 272.824219 60.710938 C 272.359375 61.042969 271.9375 61.425781 271.558594 61.851562 L 267.988281 65.871094 L 254.550781 56.085938 L 222.78125 69.542969 L 233.625 95.433594 C 233.785156 95.808594 233.960938 96.175781 234.15625 96.53125 C 234.351562 96.890625 234.566406 97.234375 234.800781 97.570312 C 235.03125 97.902344 235.28125 98.222656 235.550781 98.53125 C 235.816406 98.839844 236.097656 99.132812 236.394531 99.410156 C 236.691406 99.6875 237.003906 99.949219 237.328125 100.191406 C 237.65625 100.4375 237.992188 100.664062 238.339844 100.875 C 238.691406 101.082031 239.050781 101.273438 239.417969 101.441406 C 239.789062 101.613281 240.164062 101.765625 240.550781 101.894531 C 240.933594 102.027344 241.328125 102.136719 241.722656 102.226562 C 242.121094 102.316406 242.519531 102.382812 242.925781 102.429688 C 243.328125 102.480469 243.734375 102.503906 244.140625 102.507812 C 244.546875 102.511719 244.953125 102.496094 245.359375 102.457031 C 245.761719 102.417969 246.164062 102.359375 246.5625 102.277344 C 246.960938 102.195312 247.355469 102.09375 247.742188 101.96875 C 248.128906 101.847656 248.511719 101.703125 248.882812 101.539062 C 249.257812 101.375 249.621094 101.195312 249.972656 100.992188 L 255.765625 97.679688 L 266.761719 116.027344 C 266.761719 116.027344 271.421875 129.375 281.433594 128.257812 C 292.429688 127.039062 303.425781 113.582031 303.425781 113.582031 Z M 303.425781 113.582031 " fill-opacity="1" fill-rule="nonzero"/><path fill="#000000" d="M 235.703125 75.105469 C 236.292969 77.566406 236.558594 80.066406 236.503906 82.597656 C 236.503906 82.859375 236.597656 83.082031 236.78125 83.269531 C 236.96875 83.457031 237.191406 83.546875 237.453125 83.546875 C 237.714844 83.546875 237.941406 83.457031 238.125 83.269531 C 238.3125 83.082031 238.40625 82.859375 238.40625 82.597656 C 238.460938 79.894531 238.171875 77.226562 237.535156 74.597656 C 237.25 73.410156 235.417969 73.910156 235.703125 75.105469 Z M 235.703125 75.105469 " fill-opacity="1" fill-rule="nonzero"/><path fill="#000000" d="M 243.945312 87.96875 C 245.703125 87.773438 247.375 87.285156 248.964844 86.507812 C 250.550781 85.730469 251.964844 84.710938 253.199219 83.441406 L 251.703125 83.25 C 251.914062 83.554688 252.089844 83.875 252.238281 84.214844 C 252.382812 84.550781 252.496094 84.898438 252.574219 85.261719 C 252.652344 85.621094 252.699219 85.984375 252.707031 86.351562 C 252.71875 86.722656 252.691406 87.085938 252.628906 87.449219 C 252.570312 87.8125 252.472656 88.167969 252.34375 88.511719 C 252.214844 88.859375 252.054688 89.1875 251.863281 89.5 C 251.667969 89.816406 251.449219 90.109375 251.199219 90.378906 C 250.953125 90.652344 250.679688 90.898438 250.382812 91.117188 C 249.394531 91.820312 250.34375 93.46875 251.34375 92.765625 C 251.746094 92.480469 252.117188 92.164062 252.457031 91.808594 C 252.800781 91.453125 253.105469 91.066406 253.371094 90.652344 C 253.640625 90.238281 253.863281 89.804688 254.046875 89.347656 C 254.230469 88.890625 254.371094 88.417969 254.460938 87.933594 C 254.554688 87.449219 254.601562 86.960938 254.597656 86.46875 C 254.597656 85.976562 254.546875 85.488281 254.453125 85.003906 C 254.355469 84.519531 254.214844 84.050781 254.03125 83.59375 C 253.84375 83.136719 253.617188 82.703125 253.34375 82.292969 C 253.269531 82.164062 253.171875 82.0625 253.046875 81.984375 C 252.925781 81.902344 252.789062 81.855469 252.644531 81.835938 C 252.5 81.816406 252.359375 81.832031 252.21875 81.878906 C 252.082031 81.921875 251.957031 81.996094 251.851562 82.101562 C 250.800781 83.195312 249.597656 84.085938 248.242188 84.765625 C 246.882812 85.445312 245.453125 85.878906 243.945312 86.066406 C 242.746094 86.214844 242.730469 88.121094 243.945312 87.972656 Z M 243.945312 87.96875 " fill-opacity="1" fill-rule="nonzero"/><path fill="#000000" d="M 258.316406 97.332031 C 262.101562 95.167969 265.109375 92.210938 267.335938 88.460938 C 267.46875 88.234375 267.5 87.996094 267.433594 87.742188 C 267.367188 87.488281 267.222656 87.296875 266.996094 87.164062 C 266.769531 87.03125 266.53125 86.996094 266.277344 87.0625 C 266.023438 87.128906 265.828125 87.277344 265.695312 87.5 C 263.636719 90.964844 260.859375 93.695312 257.359375 95.6875 C 257.132812 95.820312 256.984375 96.015625 256.917969 96.269531 C 256.851562 96.523438 256.886719 96.765625 257.015625 96.992188 C 257.148438 97.21875 257.34375 97.367188 257.597656 97.433594 C 257.851562 97.5 258.089844 97.46875 258.316406 97.335938 Z M 258.316406 97.332031 " fill-opacity="1" fill-rule="nonzero"/><path fill="#000000" d="M 281.40625 66.550781 C 280.097656 62.472656 274.496094 62.015625 272.125 65.4375 C 268.558594 70.582031 272.980469 76.167969 276.800781 79.503906 C 276.957031 79.648438 277.136719 79.730469 277.347656 79.753906 C 277.558594 79.777344 277.753906 79.738281 277.9375 79.628906 C 278.121094 79.523438 278.253906 79.371094 278.335938 79.179688 C 278.421875 78.984375 278.4375 78.78125 278.390625 78.578125 C 278.074219 76.386719 275.09375 71.726562 279.699219 72.136719 C 280.917969 72.246094 280.914062 70.34375 279.699219 70.234375 C 279.222656 70.183594 278.75 70.214844 278.28125 70.324219 C 277.816406 70.429688 277.375 70.613281 276.96875 70.867188 C 276.5625 71.121094 276.207031 71.4375 275.90625 71.8125 C 275.605469 72.183594 275.371094 72.597656 275.207031 73.050781 C 274.371094 75.355469 276.242188 76.917969 276.554688 79.082031 L 278.144531 78.15625 C 275.679688 76 272.902344 73.410156 272.792969 69.898438 C 272.703125 69.015625 272.84375 68.171875 273.21875 67.371094 C 273.589844 66.566406 274.140625 65.910156 274.871094 65.410156 C 275.074219 65.292969 275.289062 65.203125 275.515625 65.132812 C 275.742188 65.0625 275.972656 65.019531 276.207031 65 C 276.441406 64.976562 276.675781 64.984375 276.910156 65.011719 C 277.140625 65.042969 277.371094 65.09375 277.59375 65.171875 C 277.816406 65.25 278.027344 65.351562 278.226562 65.472656 C 278.429688 65.597656 278.613281 65.738281 278.785156 65.902344 C 278.957031 66.066406 279.109375 66.242188 279.242188 66.4375 C 279.375 66.632812 279.484375 66.839844 279.574219 67.058594 C 279.945312 68.21875 281.78125 67.722656 281.40625 66.550781 Z M 281.40625 66.550781 " fill-opacity="1" fill-rule="nonzero"/><path fill="#000000" d="M 269.207031 128.222656 C 279.207031 140.582031 295.59375 127.898438 303.683594 119.941406 C 304.554688 119.082031 303.210938 117.738281 302.339844 118.597656 C 294.988281 125.820312 279.792969 138.300781 270.550781 126.878906 C 269.78125 125.925781 268.441406 127.28125 269.207031 128.222656 Z M 269.207031 128.222656 " fill-opacity="1" fill-rule="nonzero"/><path fill="#000000" d="M 289.507812 141.207031 L 274.035156 170.3125 C 272.582031 173.050781 270.960938 175.171875 267.90625 176.050781 C 265.308594 176.800781 262.699219 177.515625 260.097656 178.246094 L 244.476562 182.636719 C 244.230469 182.710938 244.046875 182.863281 243.921875 183.089844 C 243.800781 183.316406 243.773438 183.550781 243.839844 183.800781 C 243.910156 184.046875 244.054688 184.238281 244.277344 184.367188 C 244.5 184.496094 244.734375 184.53125 244.984375 184.472656 L 262.34375 179.59375 C 266.101562 178.535156 271.105469 178.140625 273.691406 174.910156 C 277.09375 170.648438 279.308594 164.449219 281.871094 159.628906 L 291.152344 142.164062 C 291.730469 141.085938 290.085938 140.121094 289.511719 141.207031 Z M 289.507812 141.207031 " fill-opacity="1" fill-rule="nonzero"/><path fill="#000000" d="M 307.144531 124.6875 C 307.847656 123.457031 308.691406 122.328125 309.675781 121.308594 C 310.65625 120.285156 311.75 119.398438 312.957031 118.648438 C 314.160156 117.898438 315.4375 117.304688 316.789062 116.875 C 318.136719 116.441406 319.519531 116.179688 320.9375 116.09375 C 322.152344 116.015625 322.160156 114.113281 320.9375 114.191406 C 319.355469 114.28125 317.808594 114.5625 316.300781 115.039062 C 314.789062 115.515625 313.359375 116.171875 312.015625 117.003906 C 310.667969 117.835938 309.441406 118.820312 308.339844 119.960938 C 307.238281 121.097656 306.292969 122.355469 305.503906 123.726562 C 305.382812 123.953125 305.359375 124.1875 305.429688 124.433594 C 305.5 124.679688 305.644531 124.867188 305.863281 124.996094 C 306.082031 125.125 306.316406 125.15625 306.566406 125.097656 C 306.8125 125.039062 307.003906 124.902344 307.144531 124.6875 Z M 307.144531 124.6875 " fill-opacity="1" fill-rule="nonzero"/><path fill="#000000" d="M 248.257812 170.273438 C 250.867188 169.539062 253.523438 169.257812 256.226562 169.429688 C 258.933594 169.601562 261.53125 170.222656 264.023438 171.28125 C 265.152344 171.753906 265.648438 169.910156 264.53125 169.449219 C 261.875 168.335938 259.105469 167.691406 256.230469 167.519531 C 253.351562 167.347656 250.527344 167.652344 247.753906 168.441406 C 247.503906 168.511719 247.3125 168.660156 247.183594 168.886719 C 247.054688 169.117188 247.023438 169.359375 247.09375 169.609375 C 247.164062 169.863281 247.3125 170.054688 247.539062 170.183594 C 247.769531 170.3125 248.007812 170.34375 248.261719 170.273438 Z M 248.257812 170.273438 " fill-opacity="1" fill-rule="nonzero"/><path fill="#000000" d="M 327.628906 164.105469 C 330.183594 184.683594 333.339844 205.171875 337.101562 225.566406 C 337.324219 226.769531 339.15625 226.261719 338.933594 225.0625 C 335.203125 204.835938 332.066406 184.519531 329.53125 164.105469 C 329.382812 162.90625 327.480469 162.890625 327.628906 164.105469 Z M 327.628906 164.105469 " fill-opacity="1" fill-rule="nonzero"/><path fill="#000000" d="M 203.921875 198.652344 C 205.199219 207.089844 205.5625 215.5625 205.007812 224.078125 C 204.929688 225.300781 206.832031 225.296875 206.910156 224.078125 C 207.457031 215.390625 207.074219 206.75 205.753906 198.148438 C 205.570312 196.941406 203.738281 197.453125 203.921875 198.65625 Z M 203.921875 198.652344 " fill-opacity="1" fill-rule="nonzero"/><path fill="#000000" d="M 151.949219 219.21875 C 154.675781 216.089844 157.378906 212.949219 160.121094 209.839844 C 162.769531 206.839844 165.546875 203.902344 169.679688 203.292969 C 170.886719 203.113281 170.371094 201.277344 169.171875 201.457031 C 165.511719 202 162.789062 204.164062 160.304688 206.785156 C 156.933594 210.335938 153.820312 214.175781 150.605469 217.867188 C 149.804688 218.789062 151.144531 220.136719 151.949219 219.214844 Z M 151.949219 219.21875 " fill-opacity="1" fill-rule="nonzero"/><path fill="#000000" d="M 145.886719 218.046875 L 154.695312 208.613281 C 157.5 205.613281 160.171875 202.429688 163.738281 200.308594 C 163.953125 200.171875 164.089844 199.976562 164.148438 199.730469 C 164.207031 199.480469 164.171875 199.246094 164.042969 199.027344 C 163.914062 198.808594 163.730469 198.664062 163.484375 198.59375 C 163.238281 198.523438 163.003906 198.546875 162.777344 198.664062 C 159.582031 200.796875 156.75 203.332031 154.28125 206.277344 L 144.542969 216.699219 C 143.710938 217.589844 145.050781 218.945312 145.886719 218.046875 Z M 145.886719 218.046875 " fill-opacity="1" fill-rule="nonzero"/><path fill="#d44945" d="M 365.378906 246.238281 L 43.117188 246.238281 L 43.117188 16.839844 L 365.378906 16.839844 Z M 45.652344 243.703125 L 362.84375 243.703125 L 362.84375 19.375 L 45.652344 19.375 Z M 45.652344 243.703125 " fill-opacity="1" fill-rule="nonzero"/><path fill="#96aaed" d="M 96.925781 52.824219 L 28.976562 52.824219 C 28.519531 52.824219 28.0625 52.777344 27.613281 52.6875 C 27.160156 52.601562 26.726562 52.46875 26.300781 52.289062 C 25.875 52.113281 25.472656 51.898438 25.089844 51.644531 C 24.710938 51.386719 24.355469 51.097656 24.03125 50.773438 C 23.707031 50.449219 23.417969 50.09375 23.160156 49.710938 C 22.90625 49.328125 22.691406 48.925781 22.515625 48.5 C 22.339844 48.078125 22.207031 47.636719 22.117188 47.1875 C 22.027344 46.738281 21.984375 46.28125 21.984375 45.820312 C 21.984375 45.363281 22.027344 44.90625 22.117188 44.453125 C 22.207031 44.003906 22.339844 43.566406 22.515625 43.140625 C 22.691406 42.714844 22.90625 42.3125 23.160156 41.929688 C 23.417969 41.546875 23.707031 41.195312 24.03125 40.871094 C 24.355469 40.542969 24.710938 40.253906 25.089844 40 C 25.472656 39.742188 25.875 39.527344 26.300781 39.351562 C 26.726562 39.175781 27.160156 39.042969 27.613281 38.953125 C 28.0625 38.863281 28.519531 38.820312 28.976562 38.820312 L 96.925781 38.820312 C 97.382812 38.820312 97.839844 38.863281 98.289062 38.953125 C 98.742188 39.042969 99.175781 39.175781 99.601562 39.351562 C 100.027344 39.527344 100.429688 39.742188 100.8125 40 C 101.191406 40.253906 101.546875 40.542969 101.871094 40.871094 C 102.195312 41.195312 102.484375 41.546875 102.742188 41.929688 C 102.996094 42.3125 103.210938 42.714844 103.386719 43.140625 C 103.5625 43.566406 103.695312 44.003906 103.785156 44.453125 C 103.875 44.90625 103.921875 45.363281 103.921875 45.820312 C 103.921875 46.28125 103.875 46.738281 103.785156 47.1875 C 103.695312 47.636719 103.5625 48.078125 103.386719 48.5 C 103.210938 48.925781 102.996094 49.328125 102.742188 49.710938 C 102.484375 50.09375 102.195312 50.449219 101.871094 50.773438 C 101.546875 51.097656 101.191406 51.386719 100.8125 51.644531 C 100.429688 51.898438 100.027344 52.113281 99.601562 52.289062 C 99.175781 52.46875 98.742188 52.601562 98.289062 52.6875 C 97.839844 52.777344 97.382812 52.824219 96.925781 52.824219 Z M 96.925781 52.824219 " fill-opacity="1" fill-rule="nonzero"/><path fill="#96aaed" d="M 99.421875 78.832031 L 4.496094 78.832031 C 4.199219 78.832031 3.90625 78.804688 3.617188 78.746094 C 3.328125 78.6875 3.046875 78.601562 2.773438 78.492188 C 2.503906 78.378906 2.242188 78.238281 1.996094 78.074219 C 1.75 77.910156 1.523438 77.722656 1.316406 77.515625 C 1.105469 77.304688 0.921875 77.078125 0.757812 76.832031 C 0.59375 76.585938 0.453125 76.328125 0.339844 76.054688 C 0.226562 75.78125 0.144531 75.5 0.0859375 75.210938 C 0.0273438 74.917969 0 74.625 0 74.332031 C 0 74.035156 0.0273438 73.742188 0.0859375 73.453125 C 0.144531 73.164062 0.226562 72.882812 0.339844 72.609375 C 0.453125 72.335938 0.59375 72.074219 0.757812 71.832031 C 0.921875 71.585938 1.105469 71.355469 1.316406 71.148438 C 1.523438 70.9375 1.75 70.753906 1.996094 70.589844 C 2.242188 70.425781 2.503906 70.285156 2.773438 70.171875 C 3.046875 70.058594 3.328125 69.972656 3.617188 69.917969 C 3.90625 69.859375 4.199219 69.828125 4.496094 69.828125 L 99.421875 69.828125 C 99.71875 69.828125 100.007812 69.859375 100.300781 69.917969 C 100.589844 69.972656 100.871094 70.058594 101.140625 70.171875 C 101.414062 70.285156 101.675781 70.425781 101.921875 70.589844 C 102.164062 70.753906 102.394531 70.9375 102.601562 71.148438 C 102.808594 71.355469 102.996094 71.585938 103.160156 71.832031 C 103.324219 72.074219 103.464844 72.335938 103.578125 72.609375 C 103.6875 72.882812 103.773438 73.164062 103.832031 73.453125 C 103.890625 73.742188 103.917969 74.035156 103.917969 74.332031 C 103.917969 74.625 103.890625 74.917969 103.832031 75.210938 C 103.773438 75.5 103.6875 75.78125 103.578125 76.054688 C 103.464844 76.328125 103.324219 76.585938 103.160156 76.832031 C 102.996094 77.078125 102.808594 77.304688 102.601562 77.515625 C 102.394531 77.722656 102.164062 77.910156 101.921875 78.074219 C 101.675781 78.238281 101.414062 78.378906 101.140625 78.492188 C 100.871094 78.601562 100.589844 78.6875 100.300781 78.746094 C 100.007812 78.804688 99.71875 78.832031 99.421875 78.832031 Z M 99.421875 78.832031 " fill-opacity="1" fill-rule="nonzero"/><path fill="#96aaed" d="M 99.421875 96.339844 L 4.496094 96.339844 C 4.199219 96.339844 3.90625 96.3125 3.617188 96.253906 C 3.328125 96.195312 3.046875 96.109375 2.773438 95.996094 C 2.503906 95.882812 2.242188 95.746094 1.996094 95.582031 C 1.75 95.417969 1.523438 95.230469 1.316406 95.019531 C 1.105469 94.8125 0.921875 94.585938 0.757812 94.339844 C 0.59375 94.09375 0.453125 93.832031 0.339844 93.5625 C 0.226562 93.289062 0.144531 93.007812 0.0859375 92.714844 C 0.0273438 92.425781 0 92.132812 0 91.839844 C 0 91.542969 0.0273438 91.25 0.0859375 90.960938 C 0.144531 90.671875 0.226562 90.386719 0.339844 90.117188 C 0.453125 89.84375 0.59375 89.582031 0.757812 89.335938 C 0.921875 89.089844 1.105469 88.863281 1.316406 88.65625 C 1.523438 88.445312 1.75 88.257812 1.996094 88.09375 C 2.242188 87.929688 2.503906 87.792969 2.773438 87.679688 C 3.046875 87.566406 3.328125 87.480469 3.617188 87.421875 C 3.90625 87.367188 4.199219 87.335938 4.496094 87.335938 L 99.421875 87.335938 C 99.71875 87.335938 100.007812 87.367188 100.300781 87.421875 C 100.589844 87.480469 100.871094 87.566406 101.140625 87.679688 C 101.414062 87.792969 101.675781 87.929688 101.921875 88.09375 C 102.164062 88.257812 102.394531 88.445312 102.601562 88.65625 C 102.808594 88.863281 102.996094 89.089844 103.160156 89.335938 C 103.324219 89.582031 103.464844 89.84375 103.578125 90.117188 C 103.6875 90.386719 103.773438 90.671875 103.832031 90.960938 C 103.890625 91.25 103.917969 91.542969 103.917969 91.839844 C 103.917969 92.132812 103.890625 92.425781 103.832031 92.714844 C 103.773438 93.007812 103.6875 93.289062 103.578125 93.5625 C 103.464844 93.832031 103.324219 94.09375 103.160156 94.339844 C 102.996094 94.585938 102.808594 94.8125 102.601562 95.019531 C 102.394531 95.230469 102.164062 95.417969 101.921875 95.582031 C 101.675781 95.746094 101.414062 95.882812 101.140625 95.996094 C 100.871094 96.109375 100.589844 96.195312 100.300781 96.253906 C 100.007812 96.3125 99.71875 96.339844 99.421875 96.339844 Z M 99.421875 96.339844 " fill-opacity="1" fill-rule="nonzero"/><path fill="#96aaed" d="M 99.421875 113.847656 L 4.496094 113.847656 C 4.199219 113.847656 3.90625 113.816406 3.617188 113.761719 C 3.328125 113.703125 3.046875 113.617188 2.773438 113.503906 C 2.503906 113.390625 2.242188 113.253906 1.996094 113.089844 C 1.75 112.921875 1.523438 112.738281 1.316406 112.527344 C 1.105469 112.320312 0.921875 112.089844 0.757812 111.847656 C 0.59375 111.601562 0.453125 111.339844 0.339844 111.066406 C 0.226562 110.792969 0.144531 110.511719 0.0859375 110.222656 C 0.0273438 109.933594 0 109.640625 0 109.34375 C 0 109.050781 0.0273438 108.757812 0.0859375 108.464844 C 0.144531 108.175781 0.226562 107.894531 0.339844 107.621094 C 0.453125 107.347656 0.59375 107.089844 0.757812 106.84375 C 0.921875 106.597656 1.105469 106.371094 1.316406 106.160156 C 1.523438 105.953125 1.75 105.765625 1.996094 105.601562 C 2.242188 105.4375 2.503906 105.300781 2.773438 105.1875 C 3.046875 105.074219 3.328125 104.988281 3.617188 104.929688 C 3.90625 104.871094 4.199219 104.84375 4.496094 104.84375 L 99.421875 104.84375 C 99.71875 104.84375 100.007812 104.871094 100.300781 104.929688 C 100.589844 104.988281 100.871094 105.074219 101.140625 105.1875 C 101.414062 105.300781 101.675781 105.4375 101.921875 105.601562 C 102.164062 105.765625 102.394531 105.953125 102.601562 106.160156 C 102.808594 106.371094 102.996094 106.597656 103.160156 106.84375 C 103.324219 107.089844 103.464844 107.347656 103.578125 107.621094 C 103.6875 107.894531 103.773438 108.175781 103.832031 108.464844 C 103.890625 108.757812 103.917969 109.050781 103.917969 109.34375 C 103.917969 109.640625 103.890625 109.933594 103.832031 110.222656 C 103.773438 110.511719 103.6875 110.792969 103.578125 111.066406 C 103.464844 111.339844 103.324219 111.601562 103.160156 111.847656 C 102.996094 112.089844 102.808594 112.320312 102.601562 112.527344 C 102.394531 112.738281 102.164062 112.921875 101.921875 113.089844 C 101.675781 113.253906 101.414062 113.390625 101.140625 113.503906 C 100.871094 113.617188 100.589844 113.703125 100.300781 113.761719 C 100.007812 113.816406 99.71875 113.847656 99.421875 113.847656 Z M 99.421875 113.847656 " fill-opacity="1" fill-rule="nonzero"/><g clip-path="url(#7b60836483)"><path fill="#d44945" d="M 227.425781 246.613281 C 227.425781 247.285156 227.394531 247.953125 227.328125 248.621094 C 227.261719 249.285156 227.164062 249.949219 227.035156 250.605469 C 226.902344 251.261719 226.742188 251.914062 226.546875 252.554688 C 226.351562 253.195312 226.125 253.824219 225.871094 254.445312 C 225.613281 255.0625 225.328125 255.667969 225.011719 256.257812 C 224.699219 256.851562 224.355469 257.425781 223.980469 257.980469 C 223.609375 258.539062 223.210938 259.078125 222.785156 259.59375 C 222.363281 260.113281 221.914062 260.609375 221.441406 261.082031 C 220.964844 261.554688 220.472656 262.007812 219.953125 262.429688 C 219.4375 262.855469 218.898438 263.253906 218.34375 263.628906 C 217.785156 264 217.214844 264.34375 216.621094 264.660156 C 216.03125 264.976562 215.429688 265.261719 214.808594 265.519531 C 214.191406 265.773438 213.5625 266 212.921875 266.195312 C 212.28125 266.390625 211.632812 266.550781 210.976562 266.683594 C 210.320312 266.8125 209.65625 266.910156 208.992188 266.976562 C 208.324219 267.042969 207.65625 267.074219 206.988281 267.074219 C 206.320312 267.074219 205.652344 267.042969 204.984375 266.976562 C 204.320312 266.910156 203.65625 266.8125 203 266.683594 C 202.34375 266.550781 201.695312 266.390625 201.054688 266.195312 C 200.414062 266 199.785156 265.773438 199.167969 265.519531 C 198.546875 265.261719 197.945312 264.976562 197.355469 264.660156 C 196.765625 264.34375 196.191406 264 195.632812 263.628906 C 195.078125 263.253906 194.539062 262.855469 194.023438 262.429688 C 193.503906 262.007812 193.011719 261.554688 192.535156 261.082031 C 192.0625 260.609375 191.613281 260.113281 191.191406 259.59375 C 190.765625 259.078125 190.367188 258.539062 189.996094 257.980469 C 189.625 257.425781 189.28125 256.851562 188.964844 256.257812 C 188.648438 255.667969 188.363281 255.0625 188.105469 254.445312 C 187.851562 253.824219 187.625 253.195312 187.429688 252.554688 C 187.234375 251.914062 187.074219 251.261719 186.941406 250.605469 C 186.8125 249.949219 186.714844 249.285156 186.648438 248.621094 C 186.582031 247.953125 186.550781 247.285156 186.550781 246.613281 C 186.550781 245.945312 186.582031 245.277344 186.648438 244.609375 C 186.714844 243.941406 186.8125 243.28125 186.941406 242.621094 C 187.074219 241.964844 187.234375 241.316406 187.429688 240.675781 C 187.625 240.035156 187.851562 239.402344 188.105469 238.785156 C 188.363281 238.164062 188.648438 237.558594 188.964844 236.96875 C 189.28125 236.378906 189.625 235.804688 189.996094 235.246094 C 190.367188 234.6875 190.765625 234.152344 191.191406 233.632812 C 191.613281 233.117188 192.0625 232.621094 192.535156 232.144531 C 193.011719 231.671875 193.503906 231.222656 194.023438 230.796875 C 194.539062 230.371094 195.078125 229.972656 195.632812 229.601562 C 196.191406 229.230469 196.765625 228.886719 197.355469 228.570312 C 197.945312 228.253906 198.546875 227.96875 199.167969 227.710938 C 199.785156 227.453125 200.414062 227.226562 201.054688 227.035156 C 201.695312 226.839844 202.34375 226.675781 203 226.546875 C 203.65625 226.414062 204.320312 226.316406 204.984375 226.25 C 205.652344 226.1875 206.320312 226.152344 206.988281 226.152344 C 207.65625 226.152344 208.324219 226.1875 208.992188 226.25 C 209.65625 226.316406 210.320312 226.414062 210.976562 226.546875 C 211.632812 226.675781 212.28125 226.839844 212.921875 227.035156 C 213.5625 227.226562 214.191406 227.453125 214.808594 227.710938 C 215.429688 227.96875 216.03125 228.253906 216.621094 228.570312 C 217.214844 228.886719 217.785156 229.230469 218.34375 229.601562 C 218.898438 229.972656 219.4375 230.371094 219.953125 230.796875 C 220.472656 231.222656 220.964844 231.671875 221.441406 232.144531 C 221.914062 232.621094 222.363281 233.117188 222.785156 233.632812 C 223.210938 234.152344 223.609375 234.6875 223.980469 235.246094 C 224.355469 235.804688 224.699219 236.378906 225.011719 236.96875 C 225.328125 237.558594 225.613281 238.164062 225.871094 238.785156 C 226.125 239.402344 226.351562 240.035156 226.546875 240.675781 C 226.742188 241.316406 226.902344 241.964844 227.035156 242.621094 C 227.164062 243.28125 227.261719 243.941406 227.328125 244.609375 C 227.394531 245.277344 227.425781 245.945312 227.425781 246.613281 Z M 227.425781 246.613281 " fill-opacity="1" fill-rule="nonzero"/></g><path fill="#f8faff" d="M 215.261719 243.558594 C 214.003906 242.828125 212.675781 242.273438 211.269531 241.898438 C 209.867188 241.519531 208.441406 241.332031 206.988281 241.332031 C 205.535156 241.332031 204.105469 241.519531 202.703125 241.898438 C 201.300781 242.273438 199.972656 242.828125 198.714844 243.558594 C 194.992188 246.25 193.335938 249.976562 199.75 250.183594 C 203.890625 250.316406 201.609375 246.457031 201.609375 246.457031 C 203.335938 245.765625 205.128906 245.421875 206.988281 245.421875 C 208.847656 245.421875 210.640625 245.765625 212.367188 246.457031 C 212.367188 246.457031 210.085938 250.316406 214.226562 250.183594 C 220.640625 249.976562 218.984375 246.25 215.261719 243.558594 Z M 215.261719 243.558594 " fill-opacity="1" fill-rule="nonzero"/><g clip-path="url(#e497f390b4)"><path fill="#687ccd" d="M 281.226562 246.613281 C 281.226562 247.285156 281.195312 247.953125 281.128906 248.621094 C 281.0625 249.285156 280.964844 249.949219 280.835938 250.605469 C 280.703125 251.261719 280.542969 251.914062 280.347656 252.554688 C 280.152344 253.195312 279.929688 253.824219 279.671875 254.445312 C 279.414062 255.0625 279.128906 255.667969 278.816406 256.257812 C 278.5 256.851562 278.15625 257.425781 277.785156 257.980469 C 277.410156 258.539062 277.011719 259.078125 276.589844 259.59375 C 276.164062 260.113281 275.714844 260.609375 275.242188 261.082031 C 274.769531 261.554688 274.273438 262.007812 273.753906 262.429688 C 273.238281 262.855469 272.703125 263.253906 272.144531 263.628906 C 271.589844 264 271.015625 264.34375 270.425781 264.660156 C 269.835938 264.976562 269.230469 265.261719 268.609375 265.519531 C 267.992188 265.773438 267.363281 266 266.722656 266.195312 C 266.082031 266.390625 265.433594 266.550781 264.777344 266.683594 C 264.121094 266.8125 263.460938 266.910156 262.792969 266.976562 C 262.128906 267.042969 261.460938 267.074219 260.789062 267.074219 C 260.121094 267.074219 259.453125 267.042969 258.785156 266.976562 C 258.121094 266.910156 257.460938 266.8125 256.804688 266.683594 C 256.144531 266.550781 255.496094 266.390625 254.855469 266.195312 C 254.214844 266 253.585938 265.773438 252.96875 265.519531 C 252.351562 265.261719 251.746094 264.976562 251.15625 264.660156 C 250.566406 264.34375 249.992188 264 249.433594 263.628906 C 248.878906 263.253906 248.34375 262.855469 247.824219 262.429688 C 247.308594 262.007812 246.8125 261.554688 246.339844 261.082031 C 245.863281 260.609375 245.417969 260.113281 244.992188 259.59375 C 244.566406 259.078125 244.167969 258.539062 243.796875 257.980469 C 243.425781 257.425781 243.082031 256.851562 242.765625 256.257812 C 242.449219 255.667969 242.164062 255.0625 241.90625 254.445312 C 241.652344 253.824219 241.425781 253.195312 241.230469 252.554688 C 241.039062 251.914062 240.875 251.261719 240.746094 250.605469 C 240.613281 249.949219 240.515625 249.285156 240.449219 248.621094 C 240.386719 247.953125 240.351562 247.285156 240.351562 246.613281 C 240.351562 245.945312 240.386719 245.277344 240.449219 244.609375 C 240.515625 243.941406 240.613281 243.28125 240.746094 242.621094 C 240.875 241.964844 241.039062 241.316406 241.230469 240.675781 C 241.425781 240.035156 241.652344 239.402344 241.90625 238.785156 C 242.164062 238.164062 242.449219 237.558594 242.765625 236.96875 C 243.082031 236.378906 243.425781 235.804688 243.796875 235.246094 C 244.167969 234.6875 244.566406 234.152344 244.992188 233.632812 C 245.417969 233.117188 245.863281 232.621094 246.339844 232.144531 C 246.8125 231.671875 247.308594 231.222656 247.824219 230.796875 C 248.34375 230.371094 248.878906 229.972656 249.433594 229.601562 C 249.992188 229.230469 250.566406 228.886719 251.15625 228.570312 C 251.746094 228.253906 252.351562 227.96875 252.96875 227.710938 C 253.585938 227.453125 254.21875 227.226562 254.855469 227.035156 C 255.496094 226.839844 256.144531 226.675781 256.804688 226.546875 C 257.460938 226.414062 258.121094 226.316406 258.785156 226.25 C 259.453125 226.1875 260.121094 226.152344 260.789062 226.152344 C 261.460938 226.152344 262.128906 226.1875 262.792969 226.25 C 263.460938 226.316406 264.121094 226.414062 264.777344 226.546875 C 265.433594 226.675781 266.082031 226.839844 266.722656 227.035156 C 267.363281 227.226562 267.992188 227.453125 268.609375 227.710938 C 269.230469 227.96875 269.835938 228.253906 270.425781 228.570312 C 271.015625 228.886719 271.589844 229.230469 272.144531 229.601562 C 272.703125 229.972656 273.238281 230.371094 273.753906 230.796875 C 274.273438 231.222656 274.769531 231.671875 275.242188 232.144531 C 275.714844 232.621094 276.164062 233.117188 276.589844 233.632812 C 277.011719 234.152344 277.410156 234.6875 277.785156 235.246094 C 278.15625 235.804688 278.5 236.378906 278.816406 236.96875 C 279.128906 237.558594 279.414062 238.164062 279.671875 238.785156 C 279.929688 239.402344 280.152344 240.035156 280.347656 240.675781 C 280.542969 241.316406 280.703125 241.964844 280.835938 242.621094 C 280.964844 243.28125 281.0625 243.941406 281.128906 244.609375 C 281.195312 245.277344 281.226562 245.945312 281.226562 246.613281 Z M 281.226562 246.613281 " fill-opacity="1" fill-rule="nonzero"/></g><path fill="#f8faff" d="M 251.167969 239.488281 L 261.910156 239.488281 C 262.09375 239.488281 262.273438 239.523438 262.441406 239.597656 C 262.613281 239.667969 262.765625 239.765625 262.894531 239.898438 C 263.027344 240.027344 263.125 240.179688 263.195312 240.351562 C 263.265625 240.519531 263.304688 240.699219 263.304688 240.882812 L 263.304688 250.867188 C 263.304688 251.050781 263.265625 251.226562 263.195312 251.398438 C 263.125 251.570312 263.027344 251.71875 262.894531 251.851562 C 262.765625 251.980469 262.613281 252.082031 262.441406 252.152344 C 262.273438 252.222656 262.09375 252.257812 261.910156 252.257812 L 251.167969 252.257812 C 250.984375 252.257812 250.804688 252.222656 250.632812 252.152344 C 250.464844 252.082031 250.3125 251.980469 250.183594 251.851562 C 250.050781 251.71875 249.953125 251.570312 249.878906 251.398438 C 249.808594 251.226562 249.773438 251.050781 249.773438 250.867188 L 249.773438 240.882812 C 249.773438 240.699219 249.808594 240.519531 249.878906 240.351562 C 249.953125 240.179688 250.050781 240.027344 250.183594 239.898438 C 250.3125 239.765625 250.464844 239.667969 250.632812 239.597656 C 250.804688 239.523438 250.984375 239.488281 251.167969 239.488281 Z M 251.167969 239.488281 " fill-opacity="1" fill-rule="nonzero"/><path fill="#f8faff" d="M 270.113281 251.84375 L 264.855469 246.578125 C 264.660156 246.382812 264.5625 246.148438 264.5625 245.875 C 264.5625 245.601562 264.660156 245.367188 264.855469 245.171875 L 270.113281 239.910156 C 270.253906 239.765625 270.425781 239.675781 270.621094 239.636719 C 270.816406 239.597656 271.007812 239.617188 271.195312 239.691406 C 271.378906 239.769531 271.527344 239.890625 271.636719 240.058594 C 271.75 240.226562 271.804688 240.410156 271.804688 240.609375 L 271.804688 251.140625 C 271.804688 251.339844 271.75 251.523438 271.640625 251.691406 C 271.527344 251.859375 271.378906 251.980469 271.195312 252.058594 C 271.007812 252.132812 270.816406 252.152344 270.621094 252.113281 C 270.425781 252.074219 270.253906 251.984375 270.113281 251.84375 Z M 270.113281 251.84375 " fill-opacity="1" fill-rule="nonzero"/><g clip-path="url(#4db6d79f32)"><path fill="#687ccd" d="M 173.625 246.613281 C 173.625 247.285156 173.589844 247.953125 173.523438 248.621094 C 173.460938 249.285156 173.359375 249.949219 173.230469 250.605469 C 173.101562 251.261719 172.9375 251.914062 172.742188 252.554688 C 172.546875 253.195312 172.324219 253.824219 172.066406 254.445312 C 171.8125 255.0625 171.523438 255.667969 171.210938 256.257812 C 170.894531 256.851562 170.550781 257.425781 170.179688 257.980469 C 169.808594 258.539062 169.410156 259.078125 168.984375 259.59375 C 168.558594 260.113281 168.109375 260.609375 167.636719 261.082031 C 167.164062 261.554688 166.667969 262.007812 166.152344 262.429688 C 165.632812 262.855469 165.097656 263.253906 164.539062 263.628906 C 163.984375 264 163.410156 264.34375 162.820312 264.660156 C 162.230469 264.976562 161.625 265.261719 161.007812 265.519531 C 160.386719 265.773438 159.757812 266 159.117188 266.195312 C 158.476562 266.390625 157.828125 266.550781 157.171875 266.683594 C 156.515625 266.8125 155.855469 266.910156 155.1875 266.976562 C 154.523438 267.042969 153.855469 267.074219 153.183594 267.074219 C 152.515625 267.074219 151.847656 267.042969 151.183594 266.976562 C 150.515625 266.910156 149.855469 266.8125 149.199219 266.683594 C 148.542969 266.550781 147.894531 266.390625 147.253906 266.195312 C 146.613281 266 145.984375 265.773438 145.363281 265.519531 C 144.746094 265.261719 144.140625 264.976562 143.550781 264.660156 C 142.960938 264.34375 142.386719 264 141.832031 263.628906 C 141.273438 263.253906 140.738281 262.855469 140.21875 262.429688 C 139.703125 262.007812 139.207031 261.554688 138.734375 261.082031 C 138.261719 260.609375 137.8125 260.113281 137.386719 259.59375 C 136.960938 259.078125 136.5625 258.539062 136.191406 257.980469 C 135.820312 257.425781 135.476562 256.851562 135.160156 256.257812 C 134.84375 255.667969 134.558594 255.0625 134.304688 254.445312 C 134.046875 253.824219 133.820312 253.195312 133.628906 252.554688 C 133.433594 251.914062 133.269531 251.261719 133.140625 250.605469 C 133.007812 249.949219 132.910156 249.285156 132.847656 248.621094 C 132.78125 247.953125 132.746094 247.285156 132.746094 246.613281 C 132.746094 245.945312 132.78125 245.277344 132.847656 244.609375 C 132.910156 243.941406 133.007812 243.28125 133.140625 242.621094 C 133.269531 241.964844 133.433594 241.316406 133.628906 240.675781 C 133.820312 240.035156 134.046875 239.402344 134.304688 238.785156 C 134.558594 238.164062 134.84375 237.558594 135.160156 236.96875 C 135.476562 236.378906 135.820312 235.804688 136.191406 235.246094 C 136.5625 234.6875 136.960938 234.152344 137.386719 233.632812 C 137.8125 233.117188 138.261719 232.621094 138.734375 232.144531 C 139.207031 231.671875 139.703125 231.222656 140.21875 230.796875 C 140.738281 230.371094 141.273438 229.972656 141.832031 229.601562 C 142.386719 229.230469 142.960938 228.886719 143.550781 228.570312 C 144.140625 228.253906 144.746094 227.96875 145.363281 227.710938 C 145.984375 227.453125 146.613281 227.226562 147.253906 227.035156 C 147.894531 226.839844 148.542969 226.675781 149.199219 226.546875 C 149.855469 226.414062 150.515625 226.316406 151.183594 226.25 C 151.847656 226.1875 152.515625 226.152344 153.183594 226.152344 C 153.855469 226.152344 154.523438 226.1875 155.1875 226.25 C 155.855469 226.316406 156.515625 226.414062 157.171875 226.546875 C 157.828125 226.675781 158.476562 226.839844 159.117188 227.035156 C 159.757812 227.226562 160.386719 227.453125 161.007812 227.710938 C 161.625 227.96875 162.230469 228.253906 162.820312 228.570312 C 163.410156 228.886719 163.984375 229.230469 164.539062 229.601562 C 165.097656 229.972656 165.632812 230.371094 166.152344 230.796875 C 166.667969 231.222656 167.164062 231.671875 167.636719 232.144531 C 168.109375 232.621094 168.558594 233.117188 168.984375 233.632812 C 169.410156 234.152344 169.808594 234.6875 170.179688 235.246094 C 170.550781 235.804688 170.894531 236.378906 171.210938 236.96875 C 171.523438 237.558594 171.8125 238.164062 172.066406 238.785156 C 172.324219 239.402344 172.546875 240.035156 172.742188 240.675781 C 172.9375 241.316406 173.101562 241.964844 173.230469 242.621094 C 173.359375 243.28125 173.460938 243.941406 173.523438 244.609375 C 173.589844 245.277344 173.625 245.945312 173.625 246.613281 Z M 173.625 246.613281 " fill-opacity="1" fill-rule="nonzero"/></g><path fill="#f8faff" d="M 154.199219 252.859375 L 154.199219 256.960938 C 154.199219 257.097656 154.171875 257.226562 154.121094 257.351562 C 154.070312 257.476562 153.996094 257.585938 153.902344 257.679688 C 153.808594 257.773438 153.699219 257.847656 153.574219 257.898438 C 153.449219 257.953125 153.320312 257.976562 153.1875 257.976562 C 153.050781 257.976562 152.921875 257.953125 152.796875 257.898438 C 152.675781 257.847656 152.566406 257.773438 152.46875 257.679688 C 152.375 257.585938 152.300781 257.476562 152.25 257.351562 C 152.199219 257.226562 152.171875 257.097656 152.171875 256.960938 L 152.171875 252.859375 C 152.171875 252.722656 152.199219 252.59375 152.25 252.46875 C 152.300781 252.34375 152.375 252.234375 152.46875 252.140625 C 152.566406 252.046875 152.675781 251.972656 152.796875 251.921875 C 152.921875 251.871094 153.050781 251.84375 153.1875 251.84375 C 153.320312 251.84375 153.449219 251.871094 153.574219 251.921875 C 153.699219 251.972656 153.808594 252.046875 153.902344 252.140625 C 153.996094 252.234375 154.070312 252.34375 154.121094 252.46875 C 154.171875 252.59375 154.199219 252.722656 154.199219 252.859375 Z M 154.199219 252.859375 " fill-opacity="1" fill-rule="nonzero"/><path fill="#f8faff" d="M 158.003906 247.320312 L 158.003906 248.535156 C 158.003906 248.972656 157.921875 249.394531 157.753906 249.800781 C 157.585938 250.207031 157.347656 250.5625 157.035156 250.875 C 156.726562 251.183594 156.367188 251.421875 155.964844 251.589844 C 155.558594 251.757812 155.136719 251.84375 154.699219 251.84375 L 151.675781 251.84375 C 151.238281 251.84375 150.816406 251.757812 150.414062 251.589844 C 150.007812 251.421875 149.652344 251.183594 149.339844 250.875 C 149.03125 250.5625 148.792969 250.207031 148.625 249.800781 C 148.457031 249.394531 148.371094 248.972656 148.371094 248.535156 L 148.371094 247.320312 C 148.371094 247.183594 148.347656 247.054688 148.296875 246.929688 C 148.242188 246.808594 148.171875 246.695312 148.074219 246.601562 C 147.980469 246.507812 147.871094 246.433594 147.746094 246.382812 C 147.621094 246.332031 147.492188 246.304688 147.359375 246.304688 C 147.222656 246.304688 147.09375 246.332031 146.972656 246.382812 C 146.847656 246.433594 146.738281 246.507812 146.640625 246.601562 C 146.546875 246.695312 146.472656 246.808594 146.421875 246.929688 C 146.371094 247.054688 146.34375 247.183594 146.34375 247.320312 L 146.34375 248.90625 C 146.34375 249.230469 146.378906 249.554688 146.441406 249.875 C 146.503906 250.195312 146.597656 250.503906 146.722656 250.804688 C 146.847656 251.105469 147 251.394531 147.179688 251.664062 C 147.363281 251.933594 147.566406 252.1875 147.796875 252.417969 C 148.027344 252.648438 148.277344 252.851562 148.550781 253.035156 C 148.820312 253.214844 149.105469 253.367188 149.40625 253.492188 C 149.707031 253.617188 150.019531 253.710938 150.335938 253.773438 C 150.65625 253.839844 150.980469 253.871094 151.304688 253.871094 L 155.074219 253.871094 C 155.398438 253.871094 155.722656 253.839844 156.042969 253.773438 C 156.363281 253.710938 156.671875 253.617188 156.972656 253.492188 C 157.273438 253.367188 157.558594 253.214844 157.828125 253.035156 C 158.101562 252.851562 158.351562 252.648438 158.582031 252.417969 C 158.8125 252.1875 159.015625 251.933594 159.199219 251.664062 C 159.378906 251.394531 159.53125 251.105469 159.65625 250.804688 C 159.78125 250.503906 159.875 250.195312 159.9375 249.875 C 160.003906 249.554688 160.035156 249.230469 160.035156 248.90625 L 160.035156 247.320312 C 160.035156 247.183594 160.007812 247.054688 159.957031 246.929688 C 159.90625 246.808594 159.832031 246.695312 159.738281 246.601562 C 159.640625 246.507812 159.53125 246.433594 159.410156 246.382812 C 159.285156 246.332031 159.15625 246.304688 159.019531 246.304688 C 158.886719 246.304688 158.757812 246.328125 158.632812 246.382812 C 158.507812 246.433594 158.398438 246.507812 158.300781 246.601562 C 158.207031 246.695312 158.132812 246.804688 158.082031 246.929688 C 158.03125 247.054688 158.003906 247.183594 158.003906 247.320312 Z M 158.003906 247.320312 " fill-opacity="1" fill-rule="nonzero"/><path fill="#f8faff" d="M 156.621094 244.425781 L 156.621094 239.523438 C 156.621094 239.222656 156.5625 238.933594 156.449219 238.660156 C 156.332031 238.382812 156.171875 238.136719 155.957031 237.925781 C 155.746094 237.714844 155.503906 237.550781 155.226562 237.4375 C 154.949219 237.320312 154.664062 237.265625 154.363281 237.265625 L 152.011719 237.265625 C 151.714844 237.265625 151.425781 237.320312 151.148438 237.4375 C 150.875 237.550781 150.628906 237.714844 150.417969 237.925781 C 150.207031 238.136719 150.042969 238.382812 149.929688 238.660156 C 149.816406 238.933594 149.757812 239.222656 149.757812 239.523438 L 149.757812 244.425781 Z M 156.621094 244.425781 " fill-opacity="1" fill-rule="nonzero"/><path fill="#f8faff" d="M 149.753906 246.261719 L 149.753906 248.261719 C 149.753906 248.558594 149.8125 248.847656 149.925781 249.125 C 150.042969 249.402344 150.203125 249.644531 150.414062 249.859375 C 150.628906 250.070312 150.871094 250.234375 151.148438 250.347656 C 151.425781 250.460938 151.710938 250.519531 152.011719 250.519531 L 154.359375 250.519531 C 154.660156 250.519531 154.949219 250.460938 155.222656 250.347656 C 155.5 250.234375 155.746094 250.070312 155.957031 249.859375 C 156.167969 249.644531 156.332031 249.402344 156.445312 249.125 C 156.558594 248.847656 156.617188 248.558594 156.617188 248.261719 L 156.617188 246.261719 Z M 149.753906 246.261719 " fill-opacity="1" fill-rule="nonzero"/></svg>