<?xml version="1.0" encoding="utf-8"?>
<!-- Generator: Adobe Illustrator 26.0.1, SVG Export Plug-In . SVG Version: 6.00 Build 0)  -->
<svg version="1.1" id="Layer_1" xmlns="http://www.w3.org/2000/svg" xmlns:xlink="http://www.w3.org/1999/xlink" x="0px" y="0px"
	 width="505px" height="360px" viewBox="0 0 505 360" style="enable-background:new 0 0 505 360;" xml:space="preserve">
<style type="text/css">
	.st0{fill:#E0E0E0;}
	.st1{fill:#F5F5F5;}
	.st2{fill:#EBEBEB;}
	.st3{fill:#FFFFFF;}
	.st4{fill:#263238;}
	.st5{fill-rule:evenodd;clip-rule:evenodd;fill:#EFA8A1;}
	.st6{fill:#EFA8A1;}
	.st7{opacity:0.6;}
	.st8{opacity:0.3;}
	.st9{fill:#455A64;}
	.st10{fill:#FFBE9D;}
	.st11{fill:#EB996E;}
	.st12{fill:#FAFAFA;}
</style>
<g id="freepik--background-complete--inject-3">
	<path class="st0" d="M116,117.6c1.5-0.7,3-1.2,4.7-1.6l1-3.7l7.9-0.1l1.1,3.6c1.7,0.3,3.3,0.8,4.8,1.5l4-2.1l5.7,4.3l-2.5,3.2
		c0.9,1.2,1.6,2.4,2,3.7l4.6,0.8l0.2,6.2l-4.6,0.9c-0.4,1.3-1,2.6-1.9,3.8l2.6,3.1l-5.4,4.4l-4-1.9c-1.5,0.7-3,1.2-4.7,1.6l-1,3.7
		l-7.8,0.1l-1.1-3.6c-1.7-0.3-3.3-0.8-4.8-1.5l-4,2.1l-5.7-4.3l2.5-3.2c-0.9-1.2-1.6-2.4-2-3.7l-4.6-0.8l-0.2-6.2l4.5-0.9
		c0.4-1.3,1-2.6,1.9-3.8l-2.6-3.1l5.4-4.5L116,117.6L116,117.6z M120.2,125.9c-3.2,2.7-3.1,6.9,0.2,9.4c3.4,2.5,8.7,2.5,11.9-0.2
		c3.2-2.7,3.1-6.9-0.2-9.4C128.8,123.2,123.4,123.3,120.2,125.9z"/>
	<path class="st0" d="M120.2,125.9c0.4-0.4,1-0.8,1.6-1.1c1.6-0.8,3.6-1.2,5.5-1c2.9,0.2,5.5,1.7,6.8,3.7c0.4,0.6,0.6,1.2,0.8,1.9
		c0.1,0.7,0.1,1.4,0,2c-0.5,3-3.4,5.3-7.1,5.8c-0.9,0.1-1.7,0.1-2.6,0c-0.8-0.1-1.6-0.3-2.4-0.5c-1.4-0.5-2.6-1.3-3.5-2.3
		c-1.9-2.2-2.1-5-0.4-7.3C119.2,126.7,119.6,126.3,120.2,125.9c-0.5,0.4-0.9,0.9-1.2,1.3c-0.9,1.3-1.2,2.8-0.9,4.3
		c0.5,2.2,2.3,4,4.8,4.9c1.5,0.5,3.1,0.7,4.7,0.4c3.5-0.5,6.3-2.7,6.8-5.4c0.1-0.6,0.1-1.3,0-1.9c-0.1-0.6-0.4-1.2-0.7-1.8
		c-1.2-2-3.6-3.3-6.4-3.6c-1.9-0.2-3.7,0.1-5.4,0.9C121.3,125.3,120.7,125.6,120.2,125.9z"/>
	<path class="st0" d="M116,117.6l-0.3-0.1l-0.8-0.3l-3-1.4l0.1,0l-5.4,4.5l0-0.1c0.8,0.9,1.7,2,2.6,3.1l0,0.1l0,0.1
		c-0.8,1.2-1.4,2.4-1.8,3.7l0,0.1l-0.1,0l-4.6,0.9l0.1-0.1c0.1,2,0.1,4,0.2,6.2l-0.2-0.2l4.7,0.8l0.1,0l0,0.1c0.5,1.3,1.1,2.5,2,3.7
		l0.1,0.1l-0.1,0.1l-2.4,3.2l0-0.2l5.7,4.3l-0.3,0l4-2.1l0.1-0.1l0.1,0.1c1.5,0.6,3.1,1.1,4.7,1.4l0.1,0l0,0.1
		c0.4,1.1,0.8,2.4,1.1,3.6l-0.2-0.1l7.9-0.1l-0.2,0.2c0.3-1.2,0.6-2.4,1-3.7l0-0.1l0.1,0c1.6-0.4,3.2-0.9,4.6-1.6l0,0l0.1-0.1
		l0.1,0.1l4,1.9l-0.3,0c1.8-1.5,3.7-3,5.4-4.5l0,0.2c-0.9-1.1-1.7-2.1-2.6-3.1l-0.1-0.1l0.1-0.1c0.8-1.2,1.4-2.4,1.9-3.7l0-0.1
		l0.1,0l4.6-0.9l-0.2,0.2c0-2.1-0.1-4.2-0.1-6.2l0.2,0.2l-4.7-0.8l-0.1,0l0-0.1c-0.5-1.3-1.1-2.5-2-3.7l-0.1-0.1l0.1-0.1
		c0.8-1.1,1.7-2.2,2.5-3.2l0,0.2l-5.6-4.3l0.2,0l-4,2.1l-0.1,0l-0.1,0c-1.5-0.7-3.1-1.1-4.7-1.5l-0.1,0l0-0.1
		c-0.4-1.3-0.8-2.5-1.1-3.6l0.1,0.1l-7.8,0.1l0.1-0.1c-0.4,1.5-0.7,2.7-1,3.7l0,0l0,0c-1.2,0.3-2.4,0.6-3.6,1.1l-0.8,0.4L116,117.6
		l0.3-0.1c0.2-0.1,0.5-0.2,0.8-0.4c1.1-0.5,2.3-0.9,3.6-1.2l-0.1,0c0.2-1,0.6-2.2,0.9-3.7l0-0.1l0.1,0l7.9-0.2l0.1,0l0,0.1
		c0.4,1.1,0.7,2.3,1.2,3.6l-0.1-0.1c1.7,0.3,3.3,0.8,4.8,1.5l-0.2,0l4-2.1l0.1-0.1l0.1,0.1l5.7,4.3l0.1,0.1l-0.1,0.1
		c-0.8,1.1-1.6,2.1-2.5,3.2l0-0.2c0.9,1.2,1.6,2.4,2.1,3.7l-0.2-0.1l4.7,0.8l0.2,0l0,0.1c0.1,2,0.1,4.1,0.2,6.2l0,0.1l-0.2,0
		l-4.6,0.9l0.2-0.1c-0.4,1.3-1,2.6-1.9,3.8l0-0.2l2.6,3.1l0.1,0.1l-0.1,0.1l-5.4,4.5l-0.1,0.1L140,146l-4-1.9l0.3,0
		c-1.5,0.7-3.1,1.2-4.8,1.6l0.2-0.1c-0.3,1.3-0.7,2.5-1,3.7l0,0.1l-0.2,0l-7.9,0.1l-0.2,0l0-0.1c-0.4-1.3-0.8-2.5-1.1-3.6l0.2,0.1
		c-1.7-0.3-3.3-0.8-4.8-1.5l0.2,0l-4,2.1l-0.2,0.1l-0.1-0.1l-5.6-4.3l-0.1-0.1l0.1-0.1l2.5-3.2l0,0.2c-0.9-1.2-1.6-2.4-2-3.8
		l0.2,0.1l-4.6-0.8l-0.2,0l0-0.1c0-2.2-0.1-4.3-0.1-6.2l0-0.1l0.1,0l4.6-0.9l-0.1,0.1c0.4-1.3,1.1-2.6,1.9-3.8l0,0.1
		c-0.9-1.1-1.8-2.2-2.6-3.1l0-0.1l0.1-0.1l5.5-4.5l0,0l0,0l3,1.5c0.3,0.2,0.6,0.3,0.8,0.4L116,117.6z"/>
	<path class="st1" d="M346.6,161.3c0.9-0.4,1.8-0.7,2.8-1l0.5-2.2l4.7-0.1l0.7,2.2c1,0.2,2,0.5,2.9,0.9l2.4-1.2l3.4,2.6l-1.5,1.9
		c0.5,0.7,1,1.4,1.2,2.2l2.8,0.4l0.1,3.7l-2.8,0.5c-0.2,0.8-0.6,1.5-1.1,2.3l1.6,1.9l-3.2,2.7l-2.4-1.2c-0.9,0.4-1.8,0.7-2.8,1
		l-0.6,2.2l-4.7,0.1l-0.7-2.2c-1-0.2-2-0.5-2.9-0.9l-2.4,1.2l-3.4-2.6l1.5-1.9c-0.5-0.7-1-1.4-1.2-2.2l-2.8-0.4l-0.1-3.7l2.8-0.5
		c0.2-0.8,0.6-1.5,1.1-2.3l-1.6-1.9l3.3-2.7L346.6,161.3L346.6,161.3z M349.1,166.2c-1.9,1.6-1.9,4.1,0.2,5.6c2,1.5,5.2,1.5,7.1-0.1
		c1.9-1.6,1.9-4.1-0.1-5.6C354.3,164.6,351.1,164.6,349.1,166.2C349.2,166.2,349.1,166.2,349.1,166.2L349.1,166.2z"/>
	<path class="st1" d="M349.1,166.2c0.3-0.3,0.6-0.5,0.9-0.7c1.7-0.9,3.8-0.9,5.5,0c0.8,0.4,1.4,0.9,1.8,1.6c0.2,0.4,0.4,0.7,0.5,1.1
		c0.1,0.4,0.1,0.8,0,1.2c-0.3,1.8-2,3.2-4.3,3.5c-0.5,0.1-1,0.1-1.6,0c-0.5,0-1-0.2-1.4-0.3c-0.8-0.3-1.6-0.8-2.1-1.4
		c-0.5-0.5-0.8-1.1-0.9-1.7c-0.2-0.9,0.1-1.8,0.7-2.6C348.5,166.6,348.8,166.4,349.1,166.2c0-0.1-0.3,0.2-0.7,0.7
		c-0.5,0.8-0.7,1.7-0.5,2.6c0.3,1.3,1.4,2.4,2.9,2.9c0.4,0.2,0.9,0.3,1.4,0.3c0.5,0.1,1,0.1,1.5,0c2.1-0.3,3.7-1.6,4-3.3
		c0.1-0.4,0.1-0.8,0-1.2c-0.1-0.4-0.2-0.7-0.4-1.1c-0.4-0.6-1-1.2-1.7-1.5c-1.6-0.8-3.7-0.9-5.3-0.1
		C349.5,166,349.2,166.2,349.1,166.2z"/>
	<path class="st1" d="M346.6,161.3c0,0-0.1,0-0.2-0.1L346,161l-1.8-0.8l0.1,0l-3.2,2.7l0-0.1l1.6,1.9l0,0l0,0
		c-0.5,0.7-0.9,1.5-1.1,2.2l0,0l-0.1,0l-2.8,0.5l0.1-0.1c0,1.2,0.1,2.4,0.1,3.7l-0.1-0.1l2.8,0.4l0.1,0l0,0.1
		c0.3,0.8,0.7,1.5,1.2,2.2l0,0l0,0.1l-1.5,1.9l0-0.1l3.4,2.6l-0.2,0c0.7-0.4,1.5-0.8,2.4-1.2l0.1,0l0.1,0c0.9,0.4,1.8,0.7,2.8,0.9
		l0.1,0l0,0.1l0.7,2.2l-0.1-0.1l4.7-0.1l-0.1,0.1c0.2-0.7,0.4-1.4,0.6-2.2l0-0.1l0.1,0c1-0.2,1.9-0.5,2.8-1l0,0l0.1,0l0.1,0l2.4,1.2
		l-0.2,0c1.1-0.9,2.2-1.8,3.3-2.7l0,0.1l-1.6-1.9l-0.1-0.1l0-0.1c0.5-0.7,0.9-1.4,1.1-2.2l0-0.1l0.1,0l2.8-0.5l-0.1,0.1
		c0-1.3-0.1-2.5-0.1-3.7l0.1,0.1l-2.8-0.5l-0.1,0l0-0.1c-0.3-0.8-0.7-1.5-1.2-2.2l0,0l0-0.1l1.5-1.9l0,0.1l-3.4-2.6l0.1,0l-2.4,1.2
		l-0.1,0l0,0c-0.9-0.4-1.8-0.7-2.8-0.9l-0.1,0l0,0c-0.2-0.8-0.5-1.5-0.7-2.2l0.1,0.1l-4.7,0.1l0.1,0c-0.2,0.9-0.4,1.6-0.6,2.2l0,0
		l0,0c-0.7,0.2-1.5,0.4-2.2,0.7l-0.5,0.2C346.7,161.2,346.6,161.3,346.6,161.3l0.2-0.1c0.1-0.1,0.3-0.1,0.5-0.2
		c0.7-0.3,1.4-0.5,2.1-0.7l0,0c0.1-0.6,0.3-1.3,0.6-2.2l0,0l0,0l4.7-0.1l0.1,0l0,0c0.2,0.7,0.4,1.4,0.7,2.2l-0.1-0.1
		c1,0.2,2,0.5,2.9,0.9l-0.1,0l2.4-1.2l0.1,0l0.1,0l3.4,2.6l0.1,0l-0.1,0.1l-1.4,1.9l0-0.1c0.5,0.7,1,1.5,1.2,2.2l-0.1-0.1l2.8,0.4
		l0.1,0l0,0.1c0,1.2,0.1,2.4,0.1,3.7l0,0.1l-0.1,0l-2.8,0.5l0.1-0.1c-0.2,0.8-0.6,1.6-1.1,2.3l0-0.1c0.5,0.6,1,1.2,1.6,1.9l0.1,0.1
		l-0.1,0.1l-3.3,2.7l-0.1,0.1l-0.1,0l-2.4-1.2l0.2,0c-0.9,0.4-1.8,0.8-2.8,1l0.1-0.1c-0.2,0.8-0.4,1.5-0.6,2.2l0,0.1l-0.1,0
		l-4.7,0.1l-0.1,0l0-0.1l-0.7-2.2l0.1,0.1c-1-0.2-2-0.5-2.9-0.9l0.1,0l-2.4,1.2l-0.1,0l-0.1-0.1l-3.4-2.6l-0.1-0.1l0.1-0.1l1.5-1.9
		l0,0.1c-0.5-0.7-1-1.5-1.2-2.3l0.1,0.1l-2.8-0.5l-0.1,0l0-0.1c0-1.3-0.1-2.6-0.1-3.7l0-0.1l0.1,0l2.8-0.5l-0.1,0.1
		c0.2-0.8,0.6-1.6,1.1-2.3l0,0.1l-1.5-1.8l0,0l0,0c1.3-1.1,2.4-2,3.3-2.7l0,0l0,0l1.8,0.9c0.2,0.1,0.4,0.2,0.5,0.2L346.6,161.3z"/>
	<path class="st1" d="M383.2,24.6c1.1-0.5,2.3-1,3.6-1.3l0.7-2.8l6-0.1l0.9,2.8c1.3,0.2,2.5,0.6,3.7,1.1l3-1.6l4.4,3.3l-1.9,2.5
		c0.7,0.9,1.2,1.9,1.6,2.9l3.6,0.6l0.1,4.8l-3.5,0.7c-0.3,1-0.8,2-1.4,2.9l2,2.4l-4.2,3.5l-3.1-1.5c-1.1,0.5-2.4,1-3.6,1.3l-0.7,2.8
		l-6,0.1l-0.9-2.8c-1.3-0.2-2.5-0.6-3.7-1.1l-3,1.6l-4.4-3.3l1.9-2.5c-0.7-0.9-1.2-1.9-1.6-2.9l-3.6-0.6l-0.1-4.8l3.6-0.7
		c0.3-1,0.8-2,1.4-2.9l-2-2.4l4.2-3.5L383.2,24.6L383.2,24.6z M386.5,31c-2.5,2-2.4,5.3,0.2,7.3c2.6,2,6.7,1.9,9.2-0.1
		c2.5-2,2.4-5.3-0.2-7.3c0,0,0,0,0,0C393.1,28.9,389,29,386.5,31L386.5,31z"/>
	<path class="st1" d="M386.5,31c0.3-0.3,0.8-0.6,1.2-0.8c1.3-0.6,2.8-0.9,4.2-0.8c2.2,0.2,4.2,1.3,5.2,2.9c0.3,0.5,0.5,0.9,0.6,1.4
		c0.1,0.5,0.1,1.1,0,1.6c-0.4,2.3-2.6,4.1-5.5,4.5c-0.7,0.1-1.3,0.1-2,0c-0.6-0.1-1.3-0.2-1.8-0.4c-1.1-0.4-2-1-2.7-1.7
		c-1.5-1.7-1.6-3.9-0.3-5.6C385.7,31.7,386.1,31.3,386.5,31c0,0-0.4,0.4-0.9,1.1c-0.7,1-0.9,2.2-0.7,3.3c0.2,0.8,0.5,1.5,1.1,2.1
		c0.7,0.7,1.6,1.3,2.6,1.7c0.6,0.2,1.1,0.3,1.8,0.4c0.6,0.1,1.3,0.1,1.9,0c2.7-0.4,4.8-2.1,5.2-4.3c0.2-1,0-2-0.6-2.9
		c-0.9-1.5-2.8-2.6-4.9-2.8c-1.4-0.1-2.9,0.1-4.1,0.7C386.9,30.7,386.5,31,386.5,31z"/>
	<path class="st1" d="M383.2,24.6l-0.2-0.1l-0.6-0.3l-2.4-1.1l0.1,0l-4.2,3.5l0-0.1c0.6,0.7,1.3,1.5,2,2.4l0,0l0,0
		c-0.6,0.9-1.1,1.9-1.4,2.9l0,0.1l-0.1,0l-3.6,0.7l0.1-0.1c0,1.5,0.1,3.1,0.1,4.8l-0.1-0.1l3.6,0.6l0.1,0l0,0.1
		c0.4,1,0.9,1.9,1.6,2.8l0.1,0.1l-0.1,0.1l-1.9,2.5l0-0.2l4.4,3.3l-0.2,0l3-1.6l0.1,0l0.1,0c1.1,0.5,2.4,0.9,3.6,1.1l0.1,0l0,0.1
		l0.9,2.8l-0.2-0.1l6-0.1l-0.2,0.1c0.2-0.9,0.5-1.9,0.7-2.8l0-0.1l0.1,0c1.3-0.3,2.5-0.7,3.6-1.2l0,0l0.1,0l0.1,0l3.1,1.5l-0.2,0
		l4.2-3.5l0,0.2l-2-2.4l-0.1-0.1l0.1-0.1c0.6-0.9,1.1-1.9,1.4-2.9l0-0.1l0.1,0l3.6-0.7l-0.1,0.1c0-1.6-0.1-3.2-0.1-4.8l0.1,0.1
		l-3.6-0.6l-0.1,0l0-0.1c-0.4-1-0.9-1.9-1.6-2.8l-0.1-0.1l0.1-0.1l1.9-2.5l0,0.2l-4.4-3.3l0.2,0l-3,1.6l-0.1,0l-0.1,0
		c-1.1-0.5-2.4-0.9-3.6-1.1l-0.1,0l0-0.1c-0.3-1-0.6-1.9-0.9-2.8l0.1,0.1l-6,0.1l0.1,0c-0.3,1.1-0.5,2.1-0.8,2.8l0,0l0,0
		c-1,0.2-1.9,0.5-2.8,0.9l-0.7,0.3L383.2,24.6l0.2-0.2l0.6-0.3c0.9-0.4,1.8-0.6,2.8-0.8l0,0c0.2-0.8,0.4-1.7,0.7-2.8l0,0l0.1,0
		l6-0.1l0.1,0l0,0.1c0.3,0.9,0.6,1.8,0.9,2.8l-0.1-0.1c1.3,0.3,2.5,0.6,3.7,1.1l-0.1,0l3-1.6l0.1-0.1l0.1,0.1l4.4,3.3l0.1,0.1
		l-0.1,0.1c-0.6,0.8-1.2,1.6-1.9,2.5l0-0.1c0.7,0.9,1.2,1.9,1.6,2.9l-0.1-0.1l3.6,0.6l0.1,0l0,0.2c0,1.6,0,3.1,0.1,4.8l0,0.1l-0.1,0
		l-3.6,0.7l0.1-0.1c-0.3,1-0.8,2-1.5,2.9l0-0.2c0.7,0.8,1.3,1.6,2,2.4l0.1,0.1l-0.1,0.1l-4.2,3.5l-0.1,0.1l-0.1-0.1l-3.1-1.5l0.2,0
		c-1.1,0.5-2.4,1-3.7,1.3l0.1-0.1c-0.2,1-0.5,1.9-0.7,2.8l0,0.1l-0.2,0l-6,0.1l-0.1,0l0-0.1c-0.3-1-0.6-1.9-0.9-2.8l0.1,0.1
		c-1.3-0.3-2.5-0.6-3.7-1.2l0.2,0l-3,1.6l-0.1,0.1l-0.1-0.1l-4.4-3.3l-0.1-0.1l0.1-0.1l1.9-2.5l0,0.1c-0.7-0.9-1.2-1.9-1.6-2.9
		l0.1,0.1l-3.6-0.6l-0.1,0l0-0.1c0-1.7-0.1-3.3-0.1-4.8l0-0.1l0.1,0l3.6-0.7l-0.1,0.1c0.3-1,0.8-2,1.5-2.9l0,0.1l-2-2.4l0,0
		l-0.1-0.1l4.2-3.4l0,0l0,0l2.3,1.1l0.6,0.3L383.2,24.6z"/>
	<path class="st1" d="M284.5,46.1c0.9-0.4,1.8-0.7,2.8-1l0.6-2.2l4.7-0.1l0.7,2.2c1,0.2,2,0.5,2.9,0.9l2.4-1.2l3.4,2.6l-1.5,1.9
		c0.5,0.7,1,1.5,1.2,2.2l2.8,0.4l0.1,3.7l-2.8,0.5c-0.2,0.8-0.6,1.5-1.1,2.3l1.6,1.9l-3.3,2.7l-2.4-1.2c-0.9,0.4-1.8,0.7-2.8,1
		l-0.6,2.2l-4.7,0.1l-0.7-2.2c-1-0.2-2-0.5-2.9-0.9l-2.4,1.2l-3.4-2.6l1.5-1.9c-0.5-0.7-0.9-1.4-1.2-2.2l-2.8-0.4l-0.1-3.8l2.8-0.5
		c0.2-0.8,0.6-1.5,1.1-2.3l-1.6-1.9l3.3-2.7L284.5,46.1L284.5,46.1z M287,51c-1.9,1.6-1.9,4.1,0.2,5.6c2,1.5,5.2,1.5,7.1-0.1
		c1.9-1.6,1.9-4.1-0.1-5.6C292.1,49.4,289,49.4,287,51C287,51,287,51,287,51z"/>
	<path class="st1" d="M287,51c0.3-0.3,0.6-0.5,0.9-0.7c1.7-0.9,3.8-0.9,5.5,0c0.8,0.4,1.4,0.9,1.8,1.6c0.2,0.4,0.4,0.7,0.5,1.1
		c0.1,0.4,0.1,0.8,0,1.2c-0.1,0.9-0.6,1.7-1.4,2.3c-0.8,0.6-1.8,1.1-2.9,1.2c-0.5,0.1-1,0.1-1.6,0c-0.5,0-1-0.2-1.4-0.3
		c-0.8-0.3-1.6-0.8-2.1-1.4c-0.5-0.5-0.8-1.1-0.9-1.7c-0.2-0.9,0.1-1.8,0.7-2.6C286.4,51.4,286.7,51.2,287,51c0-0.1-0.3,0.2-0.7,0.7
		c-0.5,0.8-0.7,1.7-0.5,2.6c0.1,0.6,0.4,1.2,0.9,1.7c0.5,0.6,1.2,1,2,1.3c0.4,0.2,0.9,0.3,1.4,0.3c0.5,0.1,1,0.1,1.5,0
		c2.1-0.3,3.8-1.6,4-3.3c0.1-0.4,0.1-0.8,0-1.2c-0.1-0.4-0.2-0.7-0.4-1.1c-0.7-1.2-2.2-2-3.8-2.2c-1.1-0.1-2.2,0.1-3.2,0.5
		C287.3,50.8,287,51,287,51z"/>
	<path class="st1" d="M284.5,46.1c0,0-0.1,0-0.2-0.1l-0.5-0.2l-1.8-0.8l0.1,0l-3.2,2.7l0-0.1l1.6,1.9l0,0l0,0
		c-0.5,0.7-0.9,1.5-1.1,2.2l0,0l-0.1,0l-2.8,0.5l0.1-0.1c0,1.2,0.1,2.4,0.1,3.7l-0.1-0.1l2.8,0.4l0.1,0l0,0.1
		c0.3,0.8,0.7,1.5,1.2,2.2l0,0l0,0.1c-0.5,0.6-1,1.3-1.5,1.9l0-0.1l3.4,2.6l-0.2,0l2.4-1.2l0.1,0l0.1,0c0.9,0.4,1.8,0.7,2.8,0.9
		l0.1,0l0,0.1l0.7,2.2l-0.1-0.1l4.7-0.1l-0.1,0.1c0.2-0.7,0.4-1.4,0.6-2.2l0-0.1l0.1,0c1-0.2,1.9-0.5,2.8-1l0,0l0.1,0l0.1,0l2.4,1.2
		l-0.2,0c1.1-0.9,2.2-1.8,3.3-2.7l0,0.1l-1.6-1.9l-0.1-0.1l0.1-0.1c0.5-0.7,0.9-1.5,1.1-2.2l0-0.1l0.1,0l2.8-0.5l-0.1,0.1
		c0-1.3-0.1-2.5-0.1-3.7l0.1,0.1l-2.8-0.5l-0.1,0l0-0.1c-0.3-0.8-0.7-1.5-1.2-2.2l0,0l0-0.1l1.5-1.9l0,0.1l-3.3-2.5l0.1,0l-2.4,1.2
		l-0.1,0l-0.1,0c-0.9-0.4-1.8-0.7-2.8-0.9l-0.1,0l0,0c-0.2-0.8-0.5-1.5-0.7-2.2l0.1,0.1l-4.7,0.1l0.1,0c-0.2,0.9-0.4,1.6-0.6,2.2
		l0,0l0,0c-0.7,0.2-1.5,0.4-2.2,0.7l-0.5,0.2C284.6,46,284.5,46,284.5,46.1l0.2-0.1c0.1-0.1,0.3-0.1,0.5-0.2
		c0.7-0.3,1.4-0.5,2.1-0.7l0,0c0.1-0.6,0.3-1.3,0.6-2.2l0,0l0,0l4.7-0.1l0.1,0l0,0c0.2,0.7,0.4,1.4,0.7,2.2l-0.1-0.1
		c1,0.2,2,0.5,2.9,0.9l-0.1,0l2.4-1.2l0.1,0l0.1,0l3.4,2.6l0.1,0l-0.1,0.1l-1.5,1.9l0-0.1c0.5,0.7,1,1.5,1.2,2.2l-0.1-0.1l2.8,0.4
		l0.1,0l0,0.1c0,1.2,0.1,2.4,0.1,3.7l0,0.1l-0.1,0l-2.8,0.5l0.1-0.1c-0.2,0.8-0.6,1.6-1.1,2.3l0-0.1l1.6,1.9l0.1,0.1l-0.1,0.1
		L299,63L299,63l-0.1,0l-2.5-1.2l0.1,0c-0.9,0.4-1.8,0.8-2.8,1l0.1-0.1c-0.2,0.8-0.4,1.5-0.6,2.2l0,0.1l-0.1,0l-4.7,0.1l-0.1,0
		l0-0.1l-0.7-2.2l0.1,0.1c-1-0.2-2-0.5-2.9-0.9l0.1,0l-2.4,1.2l-0.1,0l-0.1-0.1l-3.4-2.6l-0.1-0.1l0.1-0.1l1.5-1.9l0,0.1
		c-0.5-0.7-0.9-1.5-1.2-2.3l0.1,0.1l-2.8-0.5l-0.1,0l0-0.1c0-1.3-0.1-2.6-0.1-3.7l0,0l0.1,0l2.8-0.5l-0.1,0.1c0.2-0.8,0.6-1.6,1-2.3
		l0,0.1c-0.6-0.7-1.1-1.3-1.6-1.9l0,0l0,0c1.3-1.1,2.4-2,3.3-2.7l0,0l0,0l1.8,0.9c0.2,0.1,0.4,0.2,0.5,0.2L284.5,46.1z"/>
	<path class="st1" d="M69.2,112.1c0.9-0.4,1.8-0.7,2.8-1l0.6-2.2l4.7-0.1l0.7,2.2c1,0.2,2,0.5,2.9,0.9l2.4-1.2l3.4,2.6l-1.5,1.9
		c0.5,0.7,0.9,1.4,1.2,2.2l2.8,0.4l0.1,3.7l-2.8,0.5c-0.2,0.8-0.6,1.5-1.1,2.2l1.6,1.9l-3.3,2.7l-2.4-1.2c-0.9,0.4-1.8,0.7-2.8,1
		l-0.6,2.2l-4.7,0.1l-0.7-2.2c-1-0.2-2-0.5-2.9-0.9l-2.4,1.2l-3.4-2.5l1.5-1.9c-0.5-0.7-0.9-1.4-1.2-2.2l-2.8-0.5l-0.1-3.7l2.8-0.5
		c0.2-0.8,0.6-1.5,1.1-2.3l-1.6-1.9l3.3-2.7L69.2,112.1L69.2,112.1z M71.7,117.1c-1.9,1.6-1.9,4.1,0.1,5.6c2,1.5,5.2,1.5,7.1-0.1
		c1.9-1.6,1.9-4.1-0.1-5.6C76.9,115.4,73.7,115.5,71.7,117.1C71.7,117.1,71.7,117.1,71.7,117.1z"/>
	<path class="st1" d="M71.7,117.1c0.3-0.3,0.6-0.5,0.9-0.7c1.7-0.9,3.8-0.9,5.5,0c0.8,0.4,1.4,0.9,1.8,1.6c0.2,0.4,0.4,0.7,0.5,1.1
		c0.1,0.4,0.1,0.8,0,1.2c-0.1,0.9-0.6,1.7-1.4,2.3c-0.8,0.6-1.8,1-2.8,1.2c-0.5,0.1-1,0.1-1.6,0c-0.5,0-1-0.2-1.4-0.3
		c-1.6-0.6-2.8-1.7-3-3.1c-0.2-0.9,0.1-1.8,0.7-2.6C71.1,117.5,71.3,117.2,71.7,117.1c-0.1-0.1-0.4,0.2-0.8,0.7
		c-1.3,1.9-0.5,4.3,1.9,5.3c0.1,0.1,0.3,0.1,0.4,0.2c0.4,0.2,0.9,0.2,1.4,0.3c0.5,0.1,1,0.1,1.5,0c2.1-0.3,3.8-1.6,4-3.3
		c0.1-0.4,0.1-0.8,0-1.2c-0.1-0.4-0.2-0.7-0.4-1.1c-0.7-1.2-2.2-2-3.8-2.2c-1.1-0.1-2.2,0.1-3.2,0.5
		C72.1,116.8,71.8,117.1,71.7,117.1z"/>
	<path class="st1" d="M69.2,112.1c0,0-0.1,0-0.2-0.1l-0.5-0.2l-1.8-0.8l0.1,0l-3.2,2.7l0-0.1l1.6,1.9l0,0l0,0
		c-0.5,0.7-0.9,1.5-1.1,2.2l0,0l0,0l-2.8,0.5l0.1-0.1c0,1.2,0.1,2.4,0.1,3.7l-0.1-0.1l2.8,0.4l0.1,0l0,0.1c0.3,0.8,0.7,1.5,1.2,2.2
		l0,0l0,0.1l-1.5,1.9l0-0.1l3.3,2.7l-0.2,0l2.4-1.2l0.1,0l0.1,0c0.9,0.4,1.8,0.7,2.8,0.9l0.1,0l0,0.1c0.2,0.7,0.4,1.4,0.7,2.2
		l-0.1-0.1l4.7-0.1l-0.1,0.1c0.2-0.7,0.4-1.5,0.6-2.2l0-0.1l0.1,0c1-0.2,1.9-0.5,2.8-1l0,0l0.1,0l0.1,0l2.4,1.2l-0.2,0l3.3-2.7
		l0,0.1l-1.6-1.9l0-0.1l0-0.1c0.5-0.7,0.9-1.5,1.1-2.2l0-0.1l0.1,0l2.8-0.5l-0.1,0.1c0-1.3,0-2.5-0.1-3.7l0.1,0.1l-2.8-0.5l-0.1,0
		l0-0.1c-0.3-0.8-0.7-1.5-1.2-2.2l0,0l0-0.1l1.5-2l0,0.1c-1.2-0.9-2.3-1.8-3.4-2.6l0.1,0l-2.4,1.2l-0.1,0l-0.1,0
		c-0.9-0.4-1.8-0.7-2.8-0.9l-0.1,0l0,0l-0.7-2.2l0.1,0l-4.7,0.1l0.1,0c-0.2,0.9-0.4,1.6-0.6,2.2l0,0l0,0c-0.7,0.2-1.5,0.4-2.1,0.7
		l-0.5,0.2C69.3,112.1,69.3,112.1,69.2,112.1l0.2-0.1c0.1-0.1,0.3-0.1,0.5-0.2c0.7-0.3,1.4-0.5,2.1-0.7l0,0c0.1-0.6,0.3-1.3,0.6-2.2
		l0,0l0,0l4.7-0.1l0.1,0l0,0.1c0.2,0.7,0.4,1.4,0.7,2.2l-0.1-0.1c1,0.2,2,0.5,2.9,0.9l-0.1,0l2.4-1.2l0.1,0l0.1,0l3.4,2.6l0.1,0.1
		l0,0.1l-1.5,1.9l0-0.1c0.5,0.7,1,1.5,1.2,2.2l-0.1-0.1l2.8,0.4l0.1,0l0,0.1c0,1.2,0.1,2.5,0.1,3.7l0,0.1l-0.1,0l-2.8,0.5l0.1-0.1
		c-0.2,0.8-0.6,1.6-1.1,2.3l0,0l1.5,1.9l0.1,0.1l-0.1,0.1l-3.3,2.7l-0.1,0.1l-0.1,0l-2.4-1.2l0.1,0c-0.9,0.4-1.8,0.8-2.8,1l0.1-0.1
		c-0.2,0.8-0.4,1.5-0.6,2.2l0,0.1l-0.1,0l-4.7,0.1l-0.1,0l0-0.1l-0.7-2.2l0.1,0.1c-1-0.2-2-0.5-2.9-0.9l0.1,0l-2.4,1.2l-0.1,0
		l-0.1-0.1l-3.4-2.6l-0.1-0.1l0-0.1l1.5-1.9l0,0.1c-0.5-0.7-0.9-1.5-1.2-2.2l0.1,0.1l-2.8-0.5l-0.1,0l0-0.1c0-1.3-0.1-2.6-0.1-3.7
		l0-0.1l0.1,0l2.8-0.5l-0.1,0.1c0.3-0.8,0.6-1.6,1.1-2.3l0,0.1l-1.6-1.9l0,0l0,0l3.3-2.7l0,0l0,0l1.8,0.9l0.5,0.2L69.2,112.1z"/>
	<path class="st0" d="M103.7,229.9L103.7,229.9l-2.1-6.9c-3.2-0.6-6.2-1.5-9.1-2.8l-7.5,3.9l0,0L74.3,216l0,0l4.6-6.1
		c-1.7-2.2-3-4.6-3.9-7l-8.8-1.4l0,0l-0.3-11.8l0,0l8.7-1.7c0.8-2.5,2-4.9,3.5-7.2l-4.9-6l0,0l10.3-8.5l0,0l7.7,3.7
		c2.8-1.3,5.8-2.4,8.9-3.1l1.8-7l0,0l14.9-0.2l0,0l2.1,6.9c3.2,0.6,6.2,1.5,9.1,2.8l7.5-3.9l0,0l10.8,8.3l0,0l-4.6,6.1
		c1.7,2.2,3,4.6,3.9,7l8.8,1.4l0,0l0.3,11.8l0,0l-8.7,1.7c-0.8,2.5-2,4.9-3.5,7.2l4.9,6l0,0l-10.3,8.5l0,0l-7.7-3.7
		c-2.8,1.3-5.8,2.4-8.9,3.1l-1.8,7l0,0L103.7,229.9z M92.6,220.2L92.6,220.2c2.9,1.2,5.9,2.2,9.1,2.8l0,0l0,0l2.2,6.9l14.9-0.2
		l1.8-7l0,0c3.1-0.7,6.1-1.7,8.9-3.1l0,0l7.7,3.7l10.3-8.5l-4.9-5.9l0,0c1.6-2.3,2.8-4.7,3.5-7.2l0,0l8.7-1.7l-0.3-11.8l-8.8-1.4
		l0,0c-0.9-2.5-2.2-4.8-3.9-7l0,0l4.7-6.1l-10.7-8.1l-7.5,3.9l0,0c-2.9-1.2-5.9-2.2-9.1-2.8l0,0l0,0l-2.2-6.9l-14.9,0.2l-1.8,6.9
		l0,0c-3.1,0.7-6.1,1.7-8.9,3.1l0,0l-7.7-3.7l-10.3,8.5l4.9,5.9l0,0c-1.6,2.3-2.8,4.7-3.5,7.2l0,0l-8.7,1.7l0.3,11.8l8.8,1.4l0,0
		c0.9,2.5,2.2,4.8,3.9,7l0,0l-4.6,6.1l10.7,8.1L92.6,220.2z M110.8,207.1c-8.8,0-16-5.6-16-12.6c0-3.3,1.6-6.4,4.5-8.8l0,0l0,0
		c2.9-2.4,7-3.8,11.2-3.9l0.3,0c8.8-0.1,16.1,5.5,16.2,12.5c0.1,7-7,12.7-15.8,12.8l0,0L110.8,207.1z M110.8,181.8
		c-8.8-0.2-16.1,5.4-16.3,12.3c-0.2,7,6.8,12.7,15.6,12.9c0.3,0,0.5,0,0.8,0l0.3,0c8.8-0.2,15.7-6.1,15.4-13.1
		C126.2,187.2,119.3,181.9,110.8,181.8L110.8,181.8z"/>
	<path class="st2" d="M99.3,185.6c0.9-0.8,1.9-1.5,3-2.1c3.1-1.6,6.8-2.3,10.4-2c5.5,0.5,10.4,3.1,12.8,7.1c0.7,1.1,1.2,2.3,1.5,3.5
		c0.3,1.3,0.3,2.6,0.1,3.9c-0.9,5.6-6.4,10.1-13.5,11.1c-1.6,0.2-3.3,0.3-4.9,0.1c-1.6-0.2-3.1-0.5-4.5-1c-2.7-1-5-2.4-6.7-4.3
		c-1.5-1.7-2.4-3.6-2.8-5.6c-0.5-2.9,0.2-5.8,2.1-8.2C97.5,187.2,98.3,186.4,99.3,185.6c0.1,0.1-1,0.9-2.1,2.6
		c-1.7,2.5-2.3,5.3-1.7,8.1c0.9,4.1,4.3,7.6,9.1,9.2c1.4,0.5,2.8,0.8,4.3,0.9c1.5,0.2,3.1,0.1,4.7-0.1c6.7-0.9,11.8-5.2,12.7-10.5
		c0.4-2.4-0.1-4.9-1.4-7c-2.3-3.8-6.9-6.3-12.1-6.9c-3.5-0.3-7.1,0.3-10.2,1.7C100.3,184.8,99.4,185.7,99.3,185.6z"/>
	<path class="st2" d="M91.3,170c-0.2-0.1-0.3-0.1-0.5-0.2l-1.5-0.7l-5.8-2.7l0.2,0l-10.3,8.5l0-0.2l5,5.9l0.1,0.1l-0.1,0.1
		c-1.6,2.2-2.7,4.6-3.5,7.1l0,0.1l-0.2,0l-8.7,1.8l0.3-0.3c0.1,3.7,0.2,7.7,0.3,11.8l-0.3-0.3l8.8,1.4l0.2,0l0.1,0.2
		c0.9,2.4,2.2,4.8,3.9,7l0.1,0.2l-0.1,0.2l-4.6,6.1l-0.1-0.4l10.8,8.2l-0.5,0l7.5-3.9l0.2-0.1l0.2,0.1c2.8,1.2,5.8,2.2,8.9,2.8
		l0.3,0l0.1,0.2c0.7,2.2,1.4,4.5,2.2,6.9l-0.4-0.3l14.9-0.2l-0.4,0.3c0.6-2.2,1.2-4.6,1.8-7l0.1-0.2l0.3-0.1c3.1-0.7,6-1.7,8.8-3
		l0,0l0.2-0.1l0.2,0.1l7.7,3.7l-0.6,0.1l10.3-8.5l0,0.4l-4.9-6l-0.2-0.2l0.1-0.2c1.6-2.2,2.7-4.6,3.5-7.1l0.1-0.2l0.3,0l8.7-1.7
		l-0.3,0.3c-0.1-4-0.2-8-0.3-11.8l0.3,0.3l-8.8-1.4l-0.2,0l-0.1-0.2c-0.9-2.4-2.2-4.8-3.8-7l-0.1-0.2l0.1-0.2
		c1.6-2.1,3.2-4.1,4.7-6.1l0.1,0.4l-10.7-8.2l0.4,0l-7.5,3.9l-0.2,0.1l-0.2-0.1c-2.8-1.2-5.8-2.2-9-2.8l-0.2,0l0-0.1
		c-0.8-2.5-1.5-4.8-2.1-6.9l0.3,0.2l-14.9,0.2l0.2-0.1c-0.7,2.8-1.4,5.1-1.9,7l0,0.1l-0.1,0c-2.3,0.5-4.6,1.2-6.8,2.1l-1.6,0.7
		c-0.2,0.1-0.3,0.2-0.5,0.2c0.2-0.1,0.3-0.2,0.5-0.3c0.3-0.2,0.9-0.4,1.6-0.7c2.2-0.9,4.4-1.7,6.8-2.2l-0.1,0.1
		c0.5-1.9,1.1-4.2,1.8-7l0-0.1l0.2,0l14.9-0.3l0.2,0l0.1,0.2c0.7,2.1,1.4,4.4,2.2,6.9l-0.2-0.2c3.2,0.6,6.3,1.5,9.1,2.8l-0.3,0
		l7.4-3.9l0.2-0.1l0.2,0.2l10.8,8.1l0.2,0.2l-0.2,0.2l-4.6,6.1l0-0.3c1.7,2.2,3,4.6,3.9,7.1l-0.3-0.2l8.8,1.4l0.3,0.1l0,0.3
		c0.1,3.8,0.2,7.8,0.3,11.8l0,0.3l-0.3,0.1l-8.7,1.7l0.3-0.3c-0.8,2.5-2,5-3.6,7.3l0-0.4l4.9,5.9l0.2,0.2l-0.3,0.2l-10.3,8.5
		l-0.3,0.2l-0.3-0.2l-7.7-3.7l0.5,0c-2.8,1.4-5.9,2.4-9.1,3.1l0.3-0.3c-0.6,2.4-1.2,4.8-1.8,7L119,230l-0.4,0l-14.9,0.2l-0.3,0
		l-0.1-0.3c-0.7-2.4-1.5-4.8-2.1-6.9l0.3,0.3c-3.2-0.6-6.3-1.6-9.1-2.8l0.4,0l-7.5,4l-0.3,0.1l-0.2-0.2L74,216.2l-0.2-0.2l0.2-0.2
		l4.7-6.1l0,0.3c-1.7-2.2-3-4.6-3.9-7.1l0.3,0.2l-8.8-1.4l-0.3,0l0-0.2c-0.1-4.1-0.2-8.1-0.3-11.8l0-0.2l0.3,0l8.7-1.7l-0.2,0.2
		c0.8-2.5,2-4.9,3.6-7.2l0,0.2c-1.8-2.1-3.4-4.2-4.9-6l-0.1-0.1l0.1-0.1l10.4-8.5l0.1-0.1l0.1,0l5.7,2.8l1.5,0.7
		C91,169.8,91.2,169.9,91.3,170z"/>
	<path class="st0" d="M347.9,50.5c2.2,0,4.4,0.3,6.5,0.8l4.2-3.5l8.6,4.1l-1.9,4.5c1.5,1.2,2.8,2.6,3.9,4.2l6-0.1l2.4,7.7l-5.4,2.1
		c0,1.7-0.4,3.5-1,5.1l4.4,3.3l-5.2,6.8l-5.7-1.5c-1.6,1.2-3.3,2.2-5.3,3.1l0.1,4.8l-9.7,1.9l-2.7-4.3c-2.2,0-4.4-0.3-6.5-0.8
		l-4.2,3.5l-8.6-4.1l1.9-4.5c-1.5-1.2-2.8-2.6-3.9-4.2l-6,0.1l-2.4-7.7l5.4-2.1c0-1.7,0.4-3.4,1-5.1l-4.4-3.3l5.2-6.8l5.8,1.5
		c1.6-1.2,3.3-2.2,5.2-3.1l-0.1-4.8l9.7-1.9L347.9,50.5z M345.3,61.6c-5.8,1.1-9.3,5.7-7.9,10.3c1.4,4.6,7.2,7.3,13,6.2
		c5.8-1.1,9.3-5.7,7.9-10.3c0,0,0,0,0,0C356.9,63.3,351.1,60.5,345.3,61.6L345.3,61.6z"/>
	<path class="st0" d="M345.3,61.6c0.8-0.2,1.7-0.3,2.6-0.3c2.5,0,4.9,0.6,6.8,1.8c1.3,0.8,2.4,1.9,3.1,3.2c0.8,1.4,1.2,3,1,4.5
		c-0.1,0.8-0.4,1.6-0.8,2.4c-0.4,0.8-1,1.6-1.7,2.2c-3.1,3-8.2,4-12.7,2.5c-2-0.7-3.7-1.8-5-3.2c-2.1-2.5-2.4-5.6-0.9-8.3
		c1-1.8,2.7-3.3,5-4.1C343.6,62,344.4,61.8,345.3,61.6c-0.8,0.3-1.6,0.5-2.4,0.8c-2.1,0.9-3.7,2.4-4.7,4.1c-1.4,2.6-1,5.6,1,7.9
		c0.6,0.7,1.2,1.3,2,1.8c0.8,0.5,1.7,1,2.7,1.3c4.2,1.4,9.1,0.4,12-2.4c0.7-0.6,1.2-1.3,1.6-2.1c0.4-0.7,0.7-1.5,0.8-2.3
		c0.2-1.5-0.1-3-0.9-4.3c-0.7-1.2-1.7-2.2-2.9-3c-1.8-1.2-4.2-1.9-6.5-1.9C347.1,61.5,346.2,61.6,345.3,61.6z"/>
	<path class="st0" d="M347.9,50.5c-0.1-0.1-0.1-0.2-0.2-0.3c-0.1-0.2-0.3-0.5-0.5-0.8c-0.5-0.7-1.2-1.8-2.1-3.2l0.1,0l-9.7,2
		l0.2-0.1c0,1.5,0.1,3.1,0.1,4.8l0,0.1l-0.1,0c-1.9,0.8-3.6,1.9-5.2,3.1l-0.1,0.1l-0.1,0l-5.8-1.5l0.3-0.1l-5.2,6.8l0-0.2l4.4,3.3
		l0.1,0.1l-0.1,0.1c-0.6,1.6-0.9,3.3-1,5.1l0,0.1l-0.2,0.1l-5.4,2.2l0.1-0.2c0.8,2.4,1.6,5,2.4,7.7l-0.3-0.2l6-0.1l0.2,0l0.1,0.1
		c1,1.5,2.3,2.9,3.8,4.1l0.1,0.1l-0.1,0.1c-0.6,1.4-1.2,3-1.9,4.6l-0.1-0.3l8.6,4.1l-0.4,0l4.2-3.5l0.1-0.1l0.2,0
		c2.1,0.5,4.2,0.7,6.4,0.8l0.2,0l0.1,0.1c0.9,1.4,1.8,2.9,2.7,4.3l-0.3-0.1l9.7-1.9l-0.2,0.2c0-1.6-0.1-3.2-0.1-4.8l0-0.1l0.2-0.1
		c1.9-0.8,3.6-1.8,5.2-3l0.1-0.1l0.2,0l5.7,1.5l-0.3,0.1c1.8-2.3,3.5-4.6,5.2-6.8l0,0.3l-4.3-3.3l-0.1-0.1l0.1-0.1
		c0.6-1.6,0.9-3.3,1-5.1l0-0.1l0.1-0.1l5.4-2.1l-0.1,0.2c-0.8-2.7-1.6-5.3-2.4-7.7l0.2,0.1l-6,0.1l-0.1,0l-0.1-0.1
		c-1-1.5-2.3-2.9-3.8-4.1l-0.1-0.1l0-0.1l1.9-4.5L367,52l-8.5-4.1l0.2,0l-4.2,3.4l0,0l-0.1,0c-1.6-0.4-3.2-0.7-4.8-0.8l-1.2-0.1
		C348.2,50.5,348,50.5,347.9,50.5c0.1,0,0.3,0,0.4,0c0.3,0,0.7,0,1.2,0c1.6,0.1,3.3,0.3,4.9,0.7l-0.1,0l4.2-3.5l0.1-0.1l0.1,0
		l8.6,4.1l0.1,0.1l0,0.1c-0.6,1.4-1.2,2.9-1.9,4.6l0-0.2c1.5,1.3,2.9,2.7,3.9,4.2l-0.2-0.1l6-0.1l0.2,0l0.1,0.1
		c0.8,2.4,1.6,5,2.4,7.7l0,0.2l-0.2,0.1l-5.4,2.2l0.2-0.2c0,1.7-0.4,3.5-1,5.2l-0.1-0.2l4.4,3.3l0.2,0.1l-0.1,0.2
		c-1.7,2.2-3.4,4.5-5.2,6.8l-0.1,0.2l-0.2-0.1l-5.8-1.5l0.3-0.1c-1.6,1.2-3.4,2.3-5.3,3.1l0.2-0.2c0,1.6,0.1,3.2,0.1,4.8l0,0.2
		l-0.2,0l-9.7,2l-0.2,0l-0.1-0.2c-0.9-1.4-1.8-2.8-2.7-4.3l0.3,0.1l0,0c-2.2,0-4.4-0.3-6.5-0.8l0.3-0.1l-4.2,3.5l-0.2,0.1l-0.2-0.1
		l-8.6-4.1l-0.2-0.1l0.1-0.2c0.7-1.6,1.3-3.1,1.9-4.5l0.1,0.2c-1.5-1.3-2.9-2.7-3.9-4.2l0.3,0.1l-6,0.1l-0.2,0l-0.1-0.2l-2.4-7.7
		l0-0.2l0.2-0.1l5.4-2.1l-0.2,0.2c0-1.7,0.4-3.5,1-5.2l0.1,0.2c-1.5-1.2-3-2.3-4.4-3.3l-0.1-0.1l0.1-0.1l5.2-6.8l0.1-0.1l0.2,0
		l5.7,1.5l-0.2,0c1.6-1.2,3.4-2.2,5.3-3.1l-0.1,0.1c0-1.7-0.1-3.3-0.1-4.8l0-0.1l0.1,0l9.7-1.9l0.1,0l0,0.1l2,3.2l0.5,0.8
		C347.8,50.4,347.9,50.5,347.9,50.5z"/>
	<path class="st2" d="M376.3,201.5c0.9-0.2,1.7-0.3,2.6-0.3c4.3,0,8.3,1.9,10.1,5c0.8,1.4,1.2,3,1,4.6c-0.2,1.7-1.1,3.4-2.5,4.7
		c-3.1,3-8.3,4-12.8,2.5c-1-0.3-2-0.8-2.9-1.4c-0.8-0.5-1.6-1.2-2.1-1.9c-2.1-2.5-2.4-5.6-0.9-8.4c1-1.8,2.8-3.3,5-4.2
		C374.6,201.8,375.5,201.6,376.3,201.5c-0.8,0.2-1.6,0.5-2.4,0.8c-2.1,0.9-3.8,2.4-4.7,4.2c-0.6,1.2-0.9,2.5-0.8,3.8
		c0.1,1.5,0.7,2.9,1.8,4.2c0.6,0.7,1.2,1.3,2,1.8c0.8,0.5,1.7,1,2.7,1.3c4.2,1.4,9.1,0.4,12.1-2.4c0.7-0.6,1.2-1.4,1.6-2.1
		c0.4-0.7,0.7-1.5,0.8-2.3c0.4-2.8-1.1-5.6-3.8-7.4c-1.9-1.2-4.2-1.9-6.6-1.9C378.1,201.3,377.2,201.4,376.3,201.5z"/>
	<path class="st2" d="M378.9,190.2l-0.2-0.3c-0.1-0.2-0.3-0.5-0.5-0.8l-2.1-3.2l0.1,0l-9.8,2l0.1-0.1c0,1.5,0.1,3.1,0.1,4.8l0,0.1
		l-0.1,0c-1.9,0.8-3.7,1.9-5.3,3.1l-0.1,0.1l-0.1,0l-5.8-1.5l0.3-0.1l-5.2,6.9l0-0.2l4.4,3.3l0.1,0.1l0,0.1c-0.6,1.7-1,3.4-1,5.1
		l0,0.1l-0.1,0.1l-5.5,2.2l0.2-0.2c0.8,2.4,1.6,5.1,2.4,7.8l-0.3-0.2l6.1-0.1l0.2,0l0.1,0.1c1.1,1.5,2.4,2.9,3.9,4.1l0.1,0.1
		l-0.1,0.1c-0.6,1.4-1.3,3-1.9,4.6l-0.1-0.3l8.7,4.1l-0.4,0l4.2-3.5l0.1-0.1l0.2,0c2.1,0.5,4.3,0.7,6.4,0.8l0.2,0l0.1,0.1
		c0.9,1.5,1.8,2.9,2.7,4.3l-0.4-0.1l9.8-1.9l-0.2,0.2c0-1.6-0.1-3.2-0.1-4.8l0-0.2l0.2-0.1c1.9-0.8,3.7-1.9,5.3-3.1l0.1-0.1l0.2,0
		l5.8,1.5l-0.3,0.1l5.2-6.8l0.1,0.3l-4.4-3.4l-0.1-0.1l0.1-0.1c0.6-1.7,1-3.4,1-5.1l0-0.1l0.2-0.1l5.5-2.2l-0.1,0.2
		c-0.9-2.7-1.6-5.3-2.4-7.8l0.2,0.1l-6.1,0.1l-0.1,0l-0.1-0.1c-1.1-1.5-2.4-2.9-3.9-4.2l-0.1-0.1l0-0.1c0.7-1.7,1.3-3.2,1.9-4.6
		l0.1,0.2l-8.6-4.2l0.2,0c-1.7,1.4-3.1,2.5-4.3,3.5l-0.1,0l-0.1,0c-1.6-0.4-3.2-0.6-4.9-0.7l-1.2-0.1L378.9,190.2l0.4,0.1
		c0.3,0,0.7,0,1.2,0c1.7,0.1,3.3,0.3,4.9,0.7l-0.1,0l4.2-3.5l0.1-0.1l0.1,0l8.6,4l0.1,0.1l-0.1,0.1l-1.9,4.6l-0.1-0.2
		c1.6,1.3,2.9,2.7,4,4.2l-0.2-0.1l6.1-0.1l0.2,0l0.1,0.2l2.4,7.8l0,0.2l-0.2,0.1l-5.5,2.2l0.2-0.2c0,1.8-0.4,3.5-1,5.2l-0.1-0.2
		l4.4,3.3l0.2,0.1l-0.1,0.2c-1.7,2.2-3.4,4.5-5.2,6.9l-0.1,0.2l-0.2-0.1l-5.8-1.5l0.3-0.1c-1.6,1.2-3.4,2.3-5.4,3.1l0.2-0.2
		c0,1.6,0.1,3.2,0.1,4.8l0,0.2l-0.2,0l-9.8,1.9l-0.2,0l-0.1-0.2c-0.9-1.4-1.8-2.9-2.7-4.3l0.3,0.1l0,0c-2.2,0-4.5-0.3-6.6-0.8
		l0.3-0.1c-1.5,1.2-2.9,2.4-4.2,3.5l-0.2,0.1l-0.2-0.1l-8.6-4.1l-0.2-0.1l0.1-0.2c0.7-1.6,1.3-3.2,1.9-4.6l0.1,0.2
		c-1.5-1.3-2.9-2.7-3.9-4.2l0.3,0.1l-6.1,0.1l-0.2,0l-0.1-0.2c-0.8-2.7-1.7-5.3-2.4-7.8l-0.1-0.2l0.2-0.1c1.9-0.8,3.8-1.5,5.5-2.2
		l-0.2,0.2c0-1.8,0.4-3.5,1-5.2l0.1,0.2l-4.4-3.4l-0.1-0.1l0.1-0.1c1.8-2.4,3.6-4.7,5.3-6.8l0.1-0.1l0.2,0l5.8,1.5l-0.2,0
		c1.6-1.2,3.4-2.3,5.4-3.1l-0.1,0.1c0-1.7-0.1-3.4-0.1-4.8l0-0.1l0.1,0l9.8-1.9l0.1,0l0,0.1c0.9,1.4,1.5,2.5,2,3.2l0.5,0.8
		C378.8,190,378.8,190.1,378.9,190.2z"/>
	<polygon class="st1" points="55.5,336 55.5,360.5 101,360.4 151.1,360.3 151,335.8 	"/>
	<polygon class="st0" points="51.5,329.1 51.5,336 154.4,335.8 154.3,328.9 100.9,329 	"/>
	<polygon class="st0" points="103,360.4 151.1,360.3 151,335.8 154.4,335.8 154.3,328.9 100.9,329 100.9,335.2 	"/>
	
		<rect x="68.9" y="339.9" transform="matrix(1 -2.116012e-03 2.116012e-03 1 -0.7229 0.167)" class="st0" width="19.4" height="3.7"/>
	
		<rect x="66.4" y="348.2" transform="matrix(1 -2.116012e-03 2.116012e-03 1 -0.7449 0.1676)" class="st3" width="24.9" height="7.8"/>
	<polygon class="st1" points="70.1,304.5 70.2,329.1 115.6,329 165.7,328.9 165.6,304.3 	"/>
	<polygon class="st0" points="66.1,297.7 66.1,304.5 169,304.3 169,297.4 115.5,297.5 	"/>
	<polygon class="st0" points="117.6,329 165.7,328.9 165.6,304.3 169,304.3 169,297.4 115.5,297.5 115.6,303.8 	"/>
	
		<rect x="83.5" y="308.4" transform="matrix(1 -2.116012e-03 2.116012e-03 1 -0.6564 0.1979)" class="st0" width="19.4" height="3.7"/>
	
		<rect x="81" y="316.8" transform="matrix(1 -2.116012e-03 2.116012e-03 1 -0.6783 0.1985)" class="st3" width="24.9" height="7.8"/>
</g>
<g id="freepik--Floor--inject-3">
	<path class="st4" d="M483,359.6c0,0.1-104,0.4-232.3,0.7c-128.3,0.3-232.3,0.4-232.3,0.3s104-0.5,232.3-0.7
		C379,359.6,483,359.5,483,359.6z"/>
</g>
<g id="freepik--Gears--inject-3">
	<path class="st5" d="M85,25.9c3.7-1.8,7.7-3.1,11.9-4.1l2.4-9.3l19.7-0.3l2.9,9.2c4.2,0.8,8.2,2.1,12,3.7l10-5.2L158.1,31l-6.2,8.1
		c2.2,2.9,4,6.1,5.1,9.4l11.7,1.9L169,66l-11.6,2.2c-1,3.3-2.6,6.5-4.7,9.5l6.5,7.9l-13.8,11.3l-10.2-4.9c-3.7,1.8-7.7,3.1-11.8,4.1
		l-2.5,9.3l-19.8,0.3l-2.8-9.2c-4.2-0.8-8.2-2.1-12-3.7l-10.1,5.2L62.1,86.9l6.2-8.1c-2.2-2.9-4-6.1-5.1-9.4l-11.7-1.9l-0.3-15.6
		l11.6-2.2c1-3.3,2.6-6.5,4.7-9.5L61,32.3L74.8,21C74.8,21,85,25.9,85,25.9z"/>
	<path class="st3" d="M121.8,54.3c-0.1-1.1-0.3-2.2-0.6-3.3c-0.4-1.3-1-2.5-1.9-3.6c-2.5-3.3-6.7-5.6-11.5-6.3c-3-0.4-6-0.2-8.9,0.6
		c-1.5,0.4-3,1.1-4.3,1.8c-1.4,0.8-2.6,1.7-3.6,2.8c-4.4,4.7-4.3,11.1,0,15.8c0.5,0.6,1.1,1.1,1.7,1.6c0.6,0.5,1.2,0.9,1.9,1.3
		c1.3,0.8,2.7,1.4,4.3,1.8c2.8,0.8,5.9,1,8.9,0.6c4.8-0.7,8.9-3,11.4-6.3c0.9-1.1,1.5-2.3,1.9-3.6C121.5,56.5,121.7,55.4,121.8,54.3
		c0,0.1,0,0.2,0,0.2c0,0.2,0,0.4,0,0.6c0,0.4,0,0.7-0.1,1.1c-0.1,0.5-0.2,0.9-0.3,1.4c-0.4,1.3-1,2.5-1.8,3.7
		c-2.5,3.4-6.7,5.8-11.6,6.5c-3,0.5-6.2,0.3-9.1-0.6c-1.6-0.4-3.1-1.1-4.5-1.9c-1.4-0.8-2.7-1.8-3.7-2.9c-4.5-4.8-4.5-11.4,0-16.3
		c0.5-0.6,1.1-1.1,1.7-1.6c0.6-0.5,1.3-0.9,2-1.3c1.3-0.8,2.8-1.4,4.4-1.8c5.5-1.6,11.7-0.9,16.4,2c1.8,1.1,3.2,2.4,4.4,3.9
		c0.9,1.1,1.5,2.4,1.9,3.7c0.2,0.5,0.3,0.9,0.3,1.4c0.1,0.3,0.1,0.7,0.1,1c0,0.3,0,0.5,0,0.6C121.8,54.1,121.8,54.2,121.8,54.3z"/>
	<path class="st3" d="M116.4,64.2c0.1-0.1,3.8,2.7,8.3,6.3s8.1,6.5,8,6.6c-0.1,0.1-3.8-2.7-8.4-6.3
		C119.9,67.2,116.3,64.2,116.4,64.2z"/>
	<path class="st5" d="M220.3,84.8c4.7-2.3,9.9-4,15.2-5.2l3.2-11.9l25.4-0.3l3.6,11.8c5.4,1,10.6,2.7,15.4,4.8l12.8-6.6l18.2,14
		l-8,10.4c2.9,3.8,5.1,7.8,6.6,12l15,2.5l0.4,20.1l-14.9,2.9c-1.3,4.3-3.4,8.4-6.1,12.2l8.4,10.2l-17.7,14.4l-13.1-6.3
		c-4.8,2.3-9.9,4-15.2,5.2l-3.1,11.9l-25.4,0.3l-3.6-11.8c-5.4-1.1-10.6-2.7-15.4-4.8l-12.8,6.6l-18.2-14l8-10.4
		c-2.9-3.8-5.1-7.8-6.6-12l-15-2.5l-0.4-20.1l14.9-2.9c1.3-4.3,3.4-8.4,6.1-12.2l-8.4-10.2l17.7-14.4L220.3,84.8L220.3,84.8z"/>
	<path class="st3" d="M244,148.2l0.3,0l0.9,0l3.3,0l12.5-0.1l-0.2,0.1c-0.1-1.7-0.1-3.6-0.2-5.6l0-0.1l0.1,0
		c3.9-1.5,7.5-3.4,10.6-5.8c1.7-1.3,3.2-2.9,4.5-4.5c1.3-1.8,2.1-3.7,2.4-5.8c0.6-4.4-0.7-8.9-3.8-12.6c-3.4-4-8.2-7-13.9-8.7
		c-4.3-1.2-8.9-1.5-13.3-0.7c-4.2,0.6-8.2,2.1-11.6,4.3c-3.1,2-5.5,4.7-7,7.7c-0.3,0.7-0.7,1.4-0.9,2.1s-0.4,1.5-0.7,2.2
		c-0.3,1.4-0.5,2.8-0.5,4.3c0,1.3,0.3,2.7,0.6,4c0.4,1.2,0.9,2.4,1.6,3.6c1.3,2,3,3.9,5,5.5c3,2.4,6.5,4.3,10.4,5.6l0.1,0l0,0
		c-0.1,1.5-0.2,2.7-0.3,3.5c0,0.4,0,0.7-0.1,0.9C244.1,147.9,244.1,148,244,148.2c0-0.1,0-0.2,0-0.3c0-0.2,0-0.5,0-0.9
		c0-0.8,0.1-2,0.2-3.6l0.1,0.1c-3.9-1.3-7.5-3.2-10.6-5.6c-2.1-1.6-3.8-3.5-5.1-5.6c-0.7-1.2-1.3-2.4-1.7-3.6
		c-0.4-1.3-0.6-2.7-0.7-4.1c0-1.5,0.1-2.9,0.5-4.3c0.2-0.7,0.4-1.5,0.7-2.2s0.6-1.5,0.9-2.2c1.5-3,3.9-5.7,7.1-7.8
		c3.4-2.2,7.5-3.6,11.8-4.3c4.5-0.8,9.3-0.5,13.6,0.7c5.8,1.7,10.7,4.8,14.1,8.9c1.6,1.9,2.8,4.1,3.4,6.3c0.2,0.5,0.3,1.1,0.4,1.6
		c0.1,0.5,0.2,1.1,0.2,1.6c0,0.5,0.1,1.1,0.1,1.6l-0.2,1.6c-0.3,2.1-1.2,4.1-2.5,5.9c-1.2,1.7-2.8,3.2-4.6,4.6
		c-3.2,2.4-6.8,4.4-10.8,5.8l0.1-0.1c0,2,0.1,4,0.1,5.6l0,0.1l-0.2,0l-12.5,0l-3.3,0l-0.8,0L244,148.2z"/>
	<path class="st3" d="M261.2,151.9c-2.9,0.2-5.8,0.3-8.7,0.2c-2.9,0.1-5.8,0-8.7-0.2c2.9-0.2,5.8-0.3,8.7-0.2
		C255.4,151.6,258.3,151.7,261.2,151.9z"/>
	<path class="st3" d="M255.6,157.1c-1,0.3-2,0.4-3.1,0.3c-1,0-2.1-0.1-3-0.4c1-0.1,2.1-0.1,3.1,0
		C253.6,156.9,254.6,156.9,255.6,157.1z"/>
	<path class="st3" d="M247.6,148.1c0-0.1,0-0.1,0-0.2l0-0.7c0-0.6,0-1.5,0-2.6c0.1-2.3,0.1-5.5,0.3-9.4c0.1-2,0.1-4.2,0.2-6.5
		c0-0.6-0.1-1.1-0.3-1.7c-0.2-0.5-0.8-0.9-1.5-0.8c-0.7,0.2-1.2,0.6-1.3,1.2c-0.2,0.6-0.1,1.2,0.3,1.8c0.8,1.1,2.2,1.9,3.9,2
		c1.7,0.1,3.4-0.4,4.5-1.4c1.2-1.1,1.8-2.4,1.9-3.9c0.1-0.7-0.1-1.4-0.5-2c-0.4-0.6-1.3-0.9-2.1-0.7c-0.8,0.3-1.2,1-1,1.7
		c0.2,0.7,0.6,1.3,1.2,1.9c1.1,1.1,2.5,2,4.2,2.6c0.8,0.2,1.7,0.3,2.5,0.2c0.8-0.1,1.6-0.4,2.3-0.8c0.7-0.4,1.2-0.9,1.4-1.5
		c0.3-0.6,0.2-1.2-0.1-1.8c-0.3-0.5-1-0.9-1.7-0.9c-0.7,0.1-1.4,0.4-1.8,0.9c-0.8,1-0.8,2.3-1.1,3.4c-0.3,2.3-0.5,4.5-0.7,6.5
		c-0.3,4-0.6,7.2-0.8,9.4c-0.1,1.1-0.2,1.9-0.2,2.6c0,0.3,0,0.5-0.1,0.7c0,0.1,0,0.1,0,0.2c0-0.1,0-0.1,0-0.2c0-0.2,0-0.4,0-0.7
		c0-0.6,0.1-1.5,0.1-2.6c0.1-2.2,0.3-5.4,0.6-9.4c0.2-2,0.3-4.2,0.6-6.5c0.1-0.6,0.2-1.2,0.3-1.8c0.1-0.6,0.4-1.3,0.8-1.8
		c0.5-0.6,1.3-1,2.2-1c0.9,0,1.8,0.5,2.2,1.1c0.4,0.7,0.5,1.4,0.2,2.1c-0.3,0.7-0.9,1.3-1.6,1.7c-0.7,0.4-1.6,0.7-2.5,0.8
		c-0.9,0.1-1.9,0-2.8-0.2c-1.8-0.5-3.3-1.5-4.4-2.7c-0.7-0.6-1.1-1.3-1.3-2.1c-0.2-0.9,0.3-1.7,1.4-2.1c1.1-0.2,2.2,0.1,2.8,0.9
		c0.5,0.7,0.7,1.5,0.6,2.3c0,1.5-0.8,3-2,4.1c-1.2,1.2-3.1,1.8-5,1.6c-1.8-0.2-3.4-1-4.3-2.3c-0.4-0.6-0.5-1.3-0.3-2
		c0.2-0.7,0.9-1.3,1.7-1.5c0.4-0.1,0.9,0,1.3,0.2c0.3,0.2,0.6,0.5,0.8,0.8c0.3,0.6,0.4,1.2,0.3,1.8c-0.1,2.3-0.2,4.5-0.3,6.5
		c-0.2,4-0.3,7.2-0.4,9.4c-0.1,1.1-0.1,1.9-0.1,2.6c0,0.3,0,0.5,0,0.7C247.7,148,247.6,148.1,247.6,148.1z"/>
	<path class="st3" d="M259.7,154.5c-2.3,0.2-4.7,0.3-7,0.2c-2.4,0.1-4.7,0-7.1-0.2c2.3-0.2,4.7-0.3,7-0.2
		C255,154.2,257.4,154.3,259.7,154.5z"/>
	<path class="st5" d="M387.1,116.5c3.1-1.5,6.3-2.7,9.8-3.5l1.9-7.7l16.5-0.4l2.5,7.6c3.5,0.6,6.9,1.6,10.1,3l8.2-4.4l12,8.9l-5,6.8
		c1.9,2.4,3.4,5,4.4,7.7l9.8,1.5l0.5,13l-9.6,2c-0.8,2.8-2.1,5.5-3.8,8l5.6,6.5l-11.3,9.5l-8.6-4c-3.1,1.5-6.3,2.7-9.8,3.5l-1.9,7.7
		l-16.5,0.4l-2.5-7.7c-3.5-0.6-6.9-1.7-10.1-3l-8.2,4.4l-12-8.9l5-6.8c-1.9-2.4-3.4-5-4.4-7.7l-9.8-1.5l-0.5-13l9.7-2
		c0.8-2.8,2.1-5.5,3.8-8l-5.6-6.5l11.2-9.4L387.1,116.5z"/>
	<path class="st3" d="M430.6,157.7c-0.3,0-0.5,0-0.8,0l-2.3,0l-8.4,0.1l-27.8,0.1l-2.2,0l0-0.2c0-8.2,0-15.6,0-20.9
		c0-2.6,0.1-4.8,0.1-6.3c0-0.7,0-1.3,0-1.7c0-0.2,0-0.4,0-0.6c0,0.2,0,0.4,0,0.6c0,0.4,0,1,0.1,1.7c0,1.5,0.1,3.7,0.1,6.3
		c0,5.4,0.1,12.8,0.1,20.9l-0.3-0.2l2,0l27.8,0l8.4,0.1l2.3,0C430.1,157.6,430.4,157.7,430.6,157.7z"/>
	<path class="st3" d="M426,135.4c-0.4,0.3-0.8,0.6-1.2,0.9l-3.5,2.4c-3,2-7,4.8-11.6,7.9l-0.7,0.5l-0.2,0.1l-0.2-0.1l-5.2-3.8l0.3,0
		l-7.6,5l-2.2,1.4c-0.3,0.2-0.5,0.3-0.8,0.5c0.2-0.2,0.5-0.4,0.7-0.6l2.1-1.5l7.5-5.1l0.2-0.1l0.2,0.1l5.2,3.8l-0.3,0l0.7-0.5
		c4.5-3.1,8.7-5.8,11.7-7.8l3.6-2.3C425.1,135.9,425.5,135.6,426,135.4z"/>
	<path class="st3" d="M426,142.2c-0.1-0.7-0.2-1.4-0.2-2c-0.1-1.3-0.1-3-0.1-5l0.3,0.2l-0.4,0c-2.6,0-4.9,0-6.6,0
		c-0.9,0-1.8,0-2.7-0.1c0.9-0.1,1.8-0.2,2.7-0.2c1.7,0,4-0.1,6.6-0.1l0.7,0l0,0.2c0,2,0,3.7-0.1,5
		C426.2,140.9,426.2,141.6,426,142.2z"/>
	<path class="st4" d="M159.6,159.5c-0.5-0.7-0.9-1.4-1.2-2.2c-0.4-0.7-0.6-1.5-0.7-2.3c0.5,0.7,0.9,1.4,1.2,2.2
		C159.4,157.9,159.6,158.7,159.6,159.5z"/>
	<path class="st4" d="M170.4,176.5c-2.5-2.5-4.6-5.3-6.1-8.3c1.1,1.3,2.1,2.7,3.1,4.1C168.5,173.7,169.5,175.1,170.4,176.5z"/>
	<path class="st4" d="M186.1,190.9c-3.2-1.9-6.1-4.2-8.5-6.8c1.5,1.1,2.9,2.2,4.3,3.4C183.4,188.5,184.8,189.7,186.1,190.9z"/>
	<path class="st4" d="M206,201.5c-1.9-0.5-3.7-1.2-5.5-2.1c-1.8-0.7-3.5-1.7-5-2.7c1.8,0.7,3.5,1.5,5.2,2.4
		C202.6,199.8,204.4,200.6,206,201.5z"/>
	<path class="st4" d="M228.9,207.3c-4-0.2-8-1-11.7-2.2c2,0.2,4,0.6,5.9,1.1C225.1,206.4,227,206.8,228.9,207.3z"/>
	<path class="st4" d="M253,207.6c-2,0.4-4,0.6-6,0.6c-2,0.1-4,0.1-6-0.1c2-0.2,4-0.3,6-0.3C248.9,207.7,251,207.6,253,207.6z"/>
	<path class="st4" d="M276.5,203.5c-1.8,0.7-3.7,1.2-5.7,1.6c-1.9,0.5-3.9,0.8-5.9,1c1.9-0.5,3.8-1,5.8-1.4
		C272.6,204.2,274.5,203.8,276.5,203.5z"/>
	<path class="st4" d="M298.3,195.4c-3.2,1.9-6.8,3.4-10.6,4.5c1.7-0.9,3.5-1.6,5.3-2.3C294.6,196.7,296.4,196,298.3,195.4z"/>
	<path class="st4" d="M316.9,183.3c-1.2,1.3-2.5,2.5-4.1,3.5c-1.4,1.1-3,2.1-4.7,3c1.4-1.2,2.9-2.2,4.4-3.3
		C314.9,184.8,316.8,183.3,316.9,183.3z"/>
	<path class="st4" d="M330.2,167.5c-0.6,1.5-1.4,3-2.5,4.4c-0.9,1.4-2,2.8-3.3,4c-0.1-0.1,1.3-1.9,2.9-4.2
		C328.1,170.2,329.1,168.8,330.2,167.5z"/>
	<path class="st4" d="M338.4,149.6c-0.4,1.6-0.9,3.1-1.6,4.6c-0.5,1.5-1.3,3-2.1,4.5c0.4-1.6,0.9-3.1,1.6-4.6
		C336.8,152.5,337.5,151,338.4,149.6z"/>
	<path class="st4" d="M346.1,131.5c0.2,0.1-0.8,2.1-1.8,4.5c-0.6,1.5-1.3,3-2.2,4.4c0.4-1.6,1-3.1,1.7-4.6c0.5-1.3,1.1-2.4,1.5-3.2
		C345.5,132.3,345.7,131.9,346.1,131.5z"/>
	<path class="st4" d="M356.7,114.4c-0.8,1.4-1.8,2.9-2.8,4.2c-0.9,1.4-1.9,2.8-3,4.1c0.6-1.5,1.5-3,2.5-4.3
		C354.3,116.9,355.4,115.6,356.7,114.4z"/>
	<path class="st4" d="M372.8,100.3c0.1,0.1-2,1.4-4.4,3.2s-4.3,3.3-4.4,3.3c1.1-1.3,2.5-2.5,4-3.6C369.4,102,371,101,372.8,100.3z"
		/>
	<path class="st4" d="M394.5,92.2c-1.8,0.6-3.7,1.1-5.7,1.6c-3.1,0.9-5.6,1.7-5.7,1.6c1.7-0.8,3.6-1.5,5.5-2
		C390.5,92.8,392.5,92.4,394.5,92.2z"/>
	<path class="st4" d="M418.3,90c0,0.1-2.7,0.1-6,0.2c-3.3,0.1-6,0.3-6,0.2c2-0.4,4-0.6,6-0.6C414.3,89.6,416.3,89.7,418.3,90z"/>
	<path class="st4" d="M441.6,94.6c-1.9-0.4-3.8-0.9-5.7-1.5c-3.1-0.9-5.7-1.5-5.7-1.6c2,0.2,4,0.6,5.8,1.2
		C438,93.2,439.8,93.8,441.6,94.6z"/>
	<path class="st4" d="M462.1,104.5c-0.1,0.1-2.2-1.2-4.9-2.7c-2.7-1.5-5-2.7-4.9-2.8c1.8,0.6,3.6,1.5,5.2,2.4
		C459.2,102.3,460.7,103.4,462.1,104.5z"/>
	<path class="st4" d="M474.2,115.1c-1.4-1.2-2.6-2.5-3.6-3.8C472.2,112.3,473.4,113.6,474.2,115.1z"/>
	<path class="st4" d="M31,47.7c0,0,0-0.2,0.2-0.7l0.6-2.1c0.9-2.7,2-5.3,3.3-7.9c2.2-4,5-7.8,8.3-11.4c4.4-4.7,9.5-8.9,15.3-12.5
		c7.1-4.4,15-7.8,23.4-10.1c4.7-1.3,9.5-2.2,14.5-2.8c5.2-0.6,10.5-0.9,15.8-0.8c5.5,0.1,11,0.6,16.4,1.6c5.6,1,11.1,2.5,16.3,4.5
		c5.4,2.1,10.4,4.7,14.9,7.8c4.7,3.2,8.9,6.8,12.4,10.8c3.5,4,6.3,8.4,8.4,13.1c1.9,4.5,3.2,9.1,3.8,13.8c0.1,1.2,0.3,2.3,0.3,3.5
		c0.1,1.1,0.1,2.3,0.1,3.4c0,1.1-0.1,2.3-0.1,3.4c0,1.1-0.2,2.3-0.4,3.4c-0.7,4.4-2.2,8.6-4.3,12.7c-2.1,3.8-4.5,7.6-7.1,11.2
		c-2.6,3.5-5.1,6.9-7.5,10.2c-4.4,6.1-7.3,12.8-8.8,19.8c-0.7,3-1.1,6.1-1.4,9.1c-0.3,2.9-0.4,5.6-0.4,8.2
		c-0.1,4.4,0.1,8.8,0.8,13.1c0.5,2.7,1.3,5.4,2.3,8.1c0.4,0.9,0.7,1.6,0.9,2c0.1,0.2,0.2,0.4,0.3,0.5c0,0.1,0.1,0.1,0.1,0.2
		c-0.5-0.9-1-1.8-1.4-2.7c-1.1-2.6-1.9-5.3-2.4-8.1c-0.7-4.4-1-8.7-0.9-13.1c0-2.6,0.1-5.3,0.4-8.2c0.3-3.1,0.7-6.1,1.4-9.2
		c1.4-7,4.4-13.7,8.7-19.9l7.5-10.2c2.7-3.6,5-7.3,7.1-11.1c2.1-4,3.5-8.3,4.3-12.6c0.2-1.1,0.3-2.2,0.4-3.3
		c0.1-1.1,0.1-2.3,0.1-3.4s-0.1-2.3-0.1-3.4c0-1.1-0.2-2.3-0.3-3.5c-0.6-4.7-1.9-9.3-3.8-13.8c-2-4.6-4.8-8.9-8.3-12.9
		c-3.5-4-7.6-7.6-12.3-10.7c-4.5-3.1-9.5-5.7-14.8-7.8c-5.2-2-10.6-3.5-16.2-4.5c-5.4-1-10.9-1.5-16.4-1.6
		c-5.2-0.1-10.5,0.1-15.7,0.7C91.8,1.2,87,2.1,82.3,3.4C73.9,5.6,66,9,59,13.3c-5.8,3.6-10.9,7.7-15.3,12.4
		c-3.3,3.5-6.1,7.3-8.4,11.3c-1.4,2.5-2.5,5.2-3.4,7.8L31.2,47L31,47.7z"/>
</g>
<g id="freepik--Character--inject-3">
	<path class="st6" d="M276.7,340.2l15.1,4.2l-0.1,11.5c-7.2,1.6-8.2,4.5-8.2,4.5l15.1-0.3l13.1-21.2l-10.4-5.4l-19.4-6.7"/>
	<g class="st7">
		<polygon class="st3" points="311.7,338.9 298.6,360.1 283.5,360.4 285.1,358.6 297.4,357.8 309.5,337.8 		"/>
	</g>
	<path class="st4" d="M291.7,350.6c0.1,0.1,1-0.3,2.1-0.3c1.1,0,2,0.4,2.2,0.3s-0.7-0.8-2.2-0.8
		C292.4,349.8,291.5,350.5,291.7,350.6z"/>
	<path class="st4" d="M291.8,347.8c0.2,0.1,0.8-0.6,2-0.8c1.2-0.2,2.2,0.2,2.3,0.1c0.1-0.1-0.1-0.3-0.6-0.4
		c-0.6-0.2-1.2-0.3-1.9-0.2c-0.6,0.1-1.2,0.4-1.6,0.8C291.8,347.5,291.7,347.7,291.8,347.8z"/>
	<path class="st4" d="M291.6,344.1c0.2,0.1,0.7-0.6,1.7-1c1-0.3,2-0.1,2.1-0.2c0.1-0.1-0.2-0.2-0.6-0.3c-1.2-0.3-2.4,0.1-3,0.9
		C291.5,343.9,291.5,344.1,291.6,344.1z"/>
	<path class="st4" d="M290.5,344.1c0.2,0,0.1-0.8,0.5-1.6s1.2-1.3,1.1-1.4s-1.2,0.2-1.7,1.2C289.9,343.3,290.3,344.2,290.5,344.1z"
		/>
	<path class="st4" d="M288.7,342.8c0.2-0.5,0.3-1.1,0.3-1.6c0.1-0.6,0.1-1.2,0.2-1.8c0.1-0.4,0.1-0.7,0-1.1
		c-0.1-0.2-0.3-0.5-0.5-0.6c-0.3-0.2-0.7-0.2-1,0c-0.4,0.3-0.7,0.7-0.9,1.1c-0.2,0.4-0.2,0.7-0.3,1.1c0,0.6,0.1,1.2,0.4,1.8
		c0.5,1,1.3,1.3,1.3,1.3c-0.3-0.5-0.6-0.9-0.9-1.4c-0.2-0.5-0.3-1.1-0.2-1.6c0-0.3,0.1-0.6,0.3-0.9c0.1-0.3,0.3-0.6,0.6-0.8
		c0.1,0,0.2-0.1,0.3,0c0.1,0.1,0.2,0.2,0.3,0.3c0,0.3,0,0.6,0,1c0,0.6,0,1.2-0.1,1.8C288.5,341.7,288.6,342.2,288.7,342.8z"/>
	<path class="st4" d="M288.5,343.3c0.1,0-0.4-0.5-1.6-0.8c-1.6-0.4-3.4,0.1-4.3,1.2c-0.1,0.2,0,0.3,0.1,0.5c0.1,0.1,0.2,0.2,0.4,0.3
		c0.2,0.1,0.5,0.1,0.7,0.1c0.4,0,0.8,0,1.2,0c0.7,0,1.4-0.2,2-0.4c1.1-0.4,1.6-0.8,1.5-0.9c-0.1-0.1-0.6,0.2-1.7,0.5
		c-0.6,0.2-1.2,0.2-1.9,0.3c-0.4,0-0.8,0-1.1,0c-0.2,0-0.3,0-0.5-0.1c-0.1-0.1-0.1,0-0.1-0.1c0.1-0.1,0.2-0.2,0.3-0.3
		c0.1-0.1,0.3-0.2,0.4-0.3c0.3-0.2,0.6-0.3,1-0.4c0.6-0.1,1.2-0.2,1.8-0.1C287.4,343,287.9,343.1,288.5,343.3z"/>
	<g class="st7">
		<path class="st3" d="M299.6,338.8c0,0.8,0.8,1.4,1.8,1.4s1.8-0.7,1.7-1.5c0-0.8-0.8-1.4-1.8-1.4
			C300.4,337.4,299.6,338,299.6,338.8z"/>
	</g>
	<path class="st6" d="M199.2,335.6l0.2,15.7c0,0-20.1,5.5-20.4,8.4l38.4,0.7l0.9-24.4L199.2,335.6z"/>
	<g class="st7">
		<path class="st3" d="M211.3,350.2c0.7,0.2,1.2,0.8,1,1.4c-0.2,0.6-1,1-1.8,0.8c-0.8-0.2-1.3-0.9-1.1-1.5c0.3-0.6,1.2-0.9,2-0.7"/>
	</g>
	<g class="st7">
		<path class="st3" d="M217.5,360.3l0-2.5l-36.8,0.3c0,0-1.7,0.6-1.6,1.5L217.5,360.3z"/>
	</g>
	<path class="st4" d="M198.8,351.1c0,0.2,0.9,0.2,1.9,0.7c0.9,0.5,1.4,1.1,1.6,1.1c0.2-0.1-0.1-0.9-1.2-1.5S198.8,351,198.8,351.1z"
		/>
	<path class="st4" d="M194.7,352.3c-0.1,0.1,0.8,0.4,1.4,1c0.6,0.6,0.8,1.3,1,1.3c0.2,0,0.3-0.8-0.5-1.6S194.7,352.2,194.7,352.3z"
		/>
	<path class="st4" d="M192.3,356.1c0.2,0,0.5-0.7,0-1.5s-1.3-1.2-1.4-1s0.4,0.6,0.8,1.2S192.1,356.1,192.3,356.1z"/>
	<path class="st4" d="M199.2,347.5c0.1,0.1,0.9-0.1,2,0c1.1,0.1,1.9,0.4,2,0.2c0.1-0.1-0.7-0.7-1.9-0.7
		C200.1,346.9,199.2,347.4,199.2,347.5z"/>
	<g class="st8">
		<polygon points="199.2,338.7 199.3,341.5 218.1,341.7 218.2,339.2 		"/>
	</g>
	<path class="st4" d="M199.3,344.4c0.6,0.1,1.3,0.1,1.9,0c0.7-0.1,1.4-0.2,2-0.5c0.4-0.1,0.8-0.3,1.1-0.4c0.2-0.1,0.4-0.2,0.6-0.3
		c0.3-0.2,0.3-0.5,0.1-0.8c-0.2-0.2-0.5-0.3-0.8-0.4c-0.2,0-0.5,0-0.7,0.1c-0.4,0.1-0.8,0.2-1.2,0.3c-0.7,0.2-1.3,0.5-1.8,0.9
		C199.6,343.8,199.3,344.4,199.3,344.4c0.1,0.1,0.6-0.3,1.5-0.9c0.5-0.3,1.1-0.5,1.7-0.7c0.4-0.1,0.7-0.2,1.1-0.2
		c0.4-0.1,0.8-0.1,0.9,0.1c0.1,0.1,0,0.1,0,0.2c-0.1,0.1-0.3,0.2-0.4,0.3c-0.3,0.2-0.7,0.3-1,0.4c-0.6,0.2-1.2,0.4-1.9,0.5
		C200.6,344.1,199.9,344.2,199.3,344.4z"/>
	<path class="st4" d="M199.5,344.6c0.1,0,0.5-0.5,0.6-1.5c0.1-0.6,0-1.1-0.2-1.7c-0.1-0.3-0.3-0.6-0.5-0.9c-0.2-0.4-0.6-0.7-1.2-0.8
		c-0.4,0-0.7,0.2-0.8,0.4c-0.1,0.2-0.2,0.4-0.2,0.6c-0.1,0.3-0.1,0.7,0,1c0.1,0.6,0.4,1.1,0.8,1.6c0.7,0.8,1.5,1,1.5,0.9
		c0,0-0.6-0.4-1.1-1.1c-0.3-0.4-0.5-0.9-0.6-1.4c0-0.3,0-0.6,0.1-0.9c0.1-0.3,0.2-0.6,0.4-0.6c0.2,0,0.5,0.3,0.7,0.5
		c0.2,0.3,0.3,0.5,0.4,0.8c0.2,0.5,0.3,1,0.3,1.5C199.6,344,199.4,344.5,199.5,344.6z"/>
	<polygon class="st4" points="288.4,327.4 244.2,314.5 290.7,309.2 293,291.3 206,297.5 193.8,311.5 197.1,329 281.8,345.9 	"/>
	<path class="st4" d="M194.7,340.2l-4.4-64c0.2-6.2,4.5-12,11.3-15.1l0,0c5.6-2.6,12.4-3.2,18.6-1.5l56.4,14.8l31,6.2
		c0,0,5.3,10.3,2.2,18.3c-3,7.8-13.9,13.1-23.4,10.8c-11.9-2.7-66.3-21.1-66.3-21.1l0.1,52.2L194.7,340.2z"/>
	<path class="st9" d="M285.7,309.8c-0.1,0-0.2,0-0.3-0.1l-1-0.3l-3.7-1.2l-13.6-4.3l-44.7-14.5l-2.3-0.7l0.4-0.2c0,14.5,0,27.5,0,37
		c0,4.7,0,8.5-0.1,11.2c0,1.3,0,2.3,0,3c0,0.3,0,0.6,0,0.8c0,0.1,0,0.2,0,0.3c0-0.1,0-0.2,0-0.3c0-0.2,0-0.5,0-0.8
		c0-0.7,0-1.7-0.1-3c0-2.7,0-6.4-0.1-11.2c0-9.4,0-22.5-0.2-37l0-0.3l0.4,0.1l2.3,0.7l44.7,14.6l13.5,4.5l3.7,1.2l0.9,0.3
		C285.5,309.7,285.6,309.7,285.7,309.8z"/>
	<path class="st9" d="M233.6,310c4.1,0.6,7.8,2.2,10.6,4.6c-0.1,0.1-2.1-1.4-5-2.7S233.5,310.1,233.6,310z"/>
	<path class="st9" d="M215.3,279.8c1.2,1.3,2.2,2.8,3,4.3c0.9,1.5,1.6,3,2.1,4.6c-1-1.5-1.8-2.9-2.6-4.5
		C216.9,282.8,216,281.3,215.3,279.8z"/>
	<polygon class="st10" points="215.3,251.6 205.3,250.1 194.9,258.6 196.8,264 209,260.4 	"/>
	<path class="st11" d="M178.2,157.8l-2.7,0.2c0,0-4.9,0.6-4.9,0.7c0,0.1-2.1,2.5-2.1,2.5l-2,2.4c0.9,0.3,2,0.1,2.7-0.4l-0.7,1.2
		c1.4,0.4,3.1-0.1,3.8-1.2c0.6-0.8,1.4-1.6,2.1-2.4l0.9-0.1c0.1,0.1,3.5,4,3.6,3.9s2.9-2.3,2.9-2.3L178.2,157.8z"/>
	<path class="st10" d="M185.5,174.4l0.8-11.8l-7.6-6.8l-8.3,0.4l-3.4,1.9c0.2,0.7,2.5,1.1,5.1,0.5c1.7-0.3,3.5-0.4,5.2-0.1l3.2,4.4
		l-2.1,1.9l2.7,11.3L185.5,174.4z"/>
	<path class="st4" d="M163.4,158.8l27.1-0.1c0.7,0,1.2,0.4,1.2,1l0,0c0,0.5-0.6,1-1.2,1l-27.1,0.1l-2.7-1L163.4,158.8z"/>
	<path class="st10" d="M177.1,177.6l-2.8-5.4c-0.3-0.7-0.5-1.4-0.5-2.2c0.1-1.9,0.3-5.8-0.1-6.7c-0.5-1.2-2.5-5.3-1.4-5.9
		s2.7-0.8,3.8,1.6c1.1,2.4,4.5,7.6,4.5,7.6l2.6,8.5L177.1,177.6z"/>
	<path class="st11" d="M180.4,166.1c-0.6-0.7-1.1-1.5-1.6-2.3c-0.9-1.4-2.1-3.5-3.5-5.6c-0.3-0.5-0.9-0.8-1.6-0.8
		c-0.6,0-1.2,0.3-1.3,0.8c-0.1,0.5-0.1,0.9,0.1,1.4c0.1,0.5,0.2,0.9,0.4,1.3c0.5,1.5,1.1,2.4,1,2.5c-0.1,0-0.2-0.2-0.5-0.6
		c-0.4-0.6-0.7-1.2-0.9-1.8c-0.2-0.4-0.3-0.8-0.4-1.3c-0.2-0.5-0.2-1.1-0.1-1.6c0.2-0.6,1-1.1,1.8-1.1c0.8,0,1.6,0.4,2,1
		c1.4,2.3,2.5,4.2,3.4,5.7C179.6,164.5,180.1,165.3,180.4,166.1z"/>
	<polygon class="st10" points="306.8,280.3 304,276.5 274.5,270.7 278,275.5 	"/>
	<path class="st6" d="M174.6,177.6l18.7,34.8c1.8,3.3,5.1,5.9,9.3,7.2l40.1,12.9l9.3-20.5l-39.1-10.9l-25.4-28.6L174.6,177.6z"/>
	<path class="st6" d="M235,212.4c0,0.8-4.3,26.2-4.3,31.4c0,5.2,12.6,10.8,12.6,10.8l13.8,23l48.9-0.1l-16.8-24.8l-7.6-19.9
		c-2.9-7.5-8.1-14.4-15.2-19.9l-8.2-4.3L235,212.4z"/>
	<path class="st6" d="M249.2,232.4l8.3,27.3l-41.4-9.1l-7,9.9l53.9,19.3c6.6,2.4,14.5,0.7,18.7-4.1l0,0c2.5-2.9,3.3-6.5,2.2-9.9
		l-12.2-37.3c-1.6-4.9-7.9-7.8-14-6.5c-0.3,0.1-0.5,0.1-0.8,0.2l0,0C251.5,223.6,248.2,228,249.2,232.4z"/>
	<path class="st4" d="M243.3,254.6c-0.2,0-0.3-0.1-0.5-0.2c-0.3-0.1-0.7-0.3-1.3-0.5c-1.6-0.7-3.1-1.5-4.5-2.4
		c-2.2-1.3-4-2.9-5.3-4.8c-1.3-2.3-1.2-5.1-0.8-7.8c0.5-2.7,1.2-5.3,1.6-7.7c0.4-2.4,0.8-4.5,0.9-6.3c0.2-1.8,0.2-3.3,0.2-4.3
		c0-0.5,0-1.1,0-1.6c0,0.1,0.1,0.3,0.1,0.4c0,0.3,0.1,0.7,0.1,1.2c0.1,1.4,0.1,2.9,0,4.3c-0.1,1.8-0.4,4-0.8,6.4s-1.1,5-1.6,7.7
		c-0.5,2.7-0.6,5.4,0.7,7.6c1.3,1.8,3,3.5,5.1,4.7c1.4,0.9,2.9,1.7,4.4,2.5C242.7,254.3,243.3,254.5,243.3,254.6z"/>
	<path class="st4" d="M266.1,225.2c-1.8-0.5-3.7-0.9-5.6-1c-1.9,0-3.8,0.1-5.7,0.5c1.8-0.8,3.8-1.1,5.7-0.9
		C262.5,223.8,264.4,224.3,266.1,225.2z"/>
	<path class="st4" d="M260.5,210.5c0,0-0.2,0.3-0.7,0.7c-0.5,0.4-1.2,1-2.2,1.7c-1.9,1.4-4.5,3.3-7.6,5.2c-3.1,2-5.9,3.6-8,4.8
		c-1,0.6-1.9,1-2.5,1.3c-0.3,0.2-0.7,0.3-1,0.4c0.3-0.2,0.5-0.4,0.9-0.6l2.4-1.4c2-1.2,4.9-2.9,7.9-4.9s5.7-3.8,7.7-5.1l2.3-1.6
		C259.8,210.8,260.1,210.6,260.5,210.5z"/>
	<path class="st4" d="M212.8,201.3c0.1,0.1-1.4,0.6-3.1,1.5c-1.7,0.9-2.9,1.8-3,1.7C208.2,202.8,210.3,201.7,212.8,201.3
		L212.8,201.3z"/>
	<path class="st12" d="M253.2,244.8c-0.3,0.1-0.6,0.2-0.9,0.2c-0.8,0.2-1.7,0.3-2.5,0.4c-1.3,0.1-2.6,0.1-3.8,0.1
		c-3.1-0.1-6.2-0.7-9.1-1.8c-1.2-0.4-2.3-0.9-3.3-1.5c-0.7-0.4-1.4-0.8-2-1.2c-0.5-0.3-0.7-0.5-0.7-0.5c0,0,1.1,0.6,2.9,1.5
		c2.4,1.2,5,2,7.7,2.6c2.7,0.5,5.5,0.7,8.3,0.6C251.9,244.9,253.2,244.7,253.2,244.8z"/>
	<path class="st12" d="M256,256.7c-0.6,0.2-1.2,0.3-1.9,0.3c-1.5,0.1-3,0-4.5-0.2c-1.5-0.2-3-0.6-4.3-1.2c-0.6-0.2-1.1-0.5-1.6-0.8
		c1.9,0.7,3.9,1.2,6,1.6C251.8,256.6,253.9,256.8,256,256.7z"/>
	<path class="st12" d="M277.4,249.3c-0.2,0.1-0.5,0.3-0.8,0.4c-0.7,0.3-1.5,0.6-2.2,0.8c-5,1.6-10.4,2.2-15.8,1.8
		c-0.8-0.1-1.6-0.2-2.4-0.3c-0.3,0-0.6-0.1-0.9-0.2c0-0.1,1.3,0.1,3.3,0.2c5.3,0.2,10.6-0.3,15.7-1.7
		C276.2,249.6,277.4,249.2,277.4,249.3z"/>
	<path class="st12" d="M273.6,235.9c0,0.1-1.3-0.1-3.3-0.3c-2.7-0.2-5.4-0.3-8.1-0.3c-2.7,0.1-5.4,0.3-8.1,0.7
		c-2,0.3-3.3,0.6-3.3,0.5c0.3-0.1,0.5-0.2,0.8-0.3c0.6-0.2,1.4-0.3,2.4-0.5c2.6-0.5,5.3-0.8,8.1-0.9c2.7-0.1,5.4,0,8.1,0.4
		c1,0.1,1.9,0.3,2.4,0.4C273,235.7,273.3,235.8,273.6,235.9z"/>
	<path class="st12" d="M282.2,273.2c-0.4,0-0.8-0.1-1.2-0.2c-1.1-0.2-2.1-0.5-3.1-0.8c-6.8-1.9-12.8-5.3-17.5-9.7
		c-0.7-0.7-1.4-1.3-2-2.1c-0.3-0.2-0.5-0.5-0.6-0.8c0.1,0,1.1,1.1,2.9,2.7c4.8,4.2,10.7,7.5,17.4,9.6
		C280.6,272.8,282.2,273.1,282.2,273.2z"/>
	<path class="st12" d="M245.1,272.9c-0.2-0.7-0.2-1.5-0.1-2.3c0.1-1.8,0.4-3.6,1-5.4c0.6-1.8,1.4-3.5,2.5-5.1
		c0.4-0.7,0.9-1.3,1.5-1.9c-0.3,0.7-0.7,1.4-1.2,2.1c-0.9,1.6-1.7,3.4-2.3,5.1c-0.6,1.8-1,3.5-1.1,5.3
		C245.3,271.4,245.2,272.1,245.1,272.9z"/>
	<path class="st12" d="M220.1,263.9c-0.1-0.6-0.1-1.3,0-1.9c0.2-1.6,0.8-3.1,1.8-4.4c1-1.3,2.4-2.5,3.9-3.4c0.6-0.4,1.2-0.8,2-1.1
		c-0.5,0.5-1.1,0.9-1.7,1.3c-1.4,1-2.6,2.2-3.7,3.4c-0.9,1.3-1.6,2.7-1.9,4.2C220.4,262.7,220.3,263.3,220.1,263.9z"/>
	<path class="st12" d="M302.7,272.5c-0.9,0.4-1.9,0.8-2.9,1c-2.4,0.7-4.9,1.3-7.4,1.8c-2.5,0.5-5.1,0.7-7.6,0.7
		c-0.4,0-0.9,0-1.3-0.1c-0.3,0-0.7-0.1-1-0.1c-0.3,0-0.6-0.1-0.8-0.2c0-0.1,1.2,0.1,3.2,0.1c2.5-0.1,5.1-0.3,7.5-0.8
		c2.9-0.5,5.5-1.2,7.3-1.6C300.6,273,301.6,272.7,302.7,272.5z"/>
	<path class="st12" d="M291.6,256.8c0.1,0-0.3,0.5-1.1,1c-1.1,0.6-2.3,1.1-3.6,1.5c-1.2,0.4-2.5,0.7-3.8,0.9
		c-0.4,0.1-0.8,0.1-1.2,0.1c-0.3,0-0.5-0.1-0.4-0.1c0,0,0.6-0.1,1.6-0.3c1-0.2,2.3-0.6,3.7-1c1.2-0.4,2.4-0.8,3.5-1.3
		C291.1,257.2,291.5,256.8,291.6,256.8z"/>
	<path class="st12" d="M284.6,240.8c0,0,0,0.1-0.2,0.3c-0.2,0.2-0.5,0.4-0.8,0.5c-1,0.5-2,0.8-3,1.1c-1,0.3-2.1,0.6-3.2,0.7
		c-0.9,0.1-1.4,0-1.4,0s0.5-0.1,1.3-0.3c0.8-0.2,1.9-0.5,3.1-0.8c1-0.3,2-0.6,3-1c0.3-0.1,0.6-0.2,0.8-0.4
		C284.5,240.9,284.6,240.8,284.6,240.8z"/>
	<path class="st12" d="M248.7,232.4c-0.8,0.1-1.6,0.1-2.4,0.1c-1.9-0.1-3.8-0.3-5.7-0.6c-1.9-0.3-3.7-0.8-5.4-1.4
		c-0.7-0.2-1.4-0.5-2.1-0.9c0.1-0.1,3.3,1.2,7.6,1.9C245.1,232.3,248.7,232.3,248.7,232.4z"/>
	<path class="st12" d="M277.7,225.2c0.1,0.1-1.3,0.9-3.3,1.5c-2,0.6-3.7,0.9-3.7,0.8c0-0.1,1.6-0.5,3.5-1.1
		C276.1,225.7,277.6,225.1,277.7,225.2z"/>
	<path class="st12" d="M255.1,214.8c0.5,0.2,1,0.5,1.4,0.9c2,1.7,3.3,3.8,3.5,6.1c0.1,0.5,0.1,0.9-0.1,1.4
		C259.6,220.1,257.9,217.1,255.1,214.8z"/>
	<path class="st12" d="M223.4,226.3c-0.2-0.2-0.4-0.5-0.5-0.7c-0.3-0.7-0.6-1.4-0.8-2.2c-0.6-2.5-0.6-5,0.1-7.5
		c0.6-2.5,1.5-4.9,2.7-7.2c0.4-0.9,0.8-1.6,1.1-2.1c0.1-0.3,0.3-0.5,0.5-0.7c-0.1,0.3-0.2,0.5-0.3,0.8c-0.3,0.6-0.6,1.3-0.9,2.1
		c-1.1,2.3-1.9,4.7-2.6,7.2c-0.6,2.4-0.7,4.9-0.2,7.4C222.9,225.1,223.5,226.2,223.4,226.3z"/>
	<path class="st12" d="M199.7,218.6c0-0.3,0.1-0.5,0.2-0.8c0.2-0.7,0.5-1.4,0.8-2.1c2.1-4.6,5.7-8.8,10.4-11.9
		c0.7-0.5,1.5-0.9,2.3-1.3c0.3-0.2,0.6-0.3,0.9-0.4c0.1,0.1-1.1,0.7-2.9,2c-4.6,3.2-8.1,7.3-10.4,11.8
		C200.1,217.5,199.8,218.7,199.7,218.6z"/>
	<path class="st12" d="M203.4,190.6c0,0.1-1.1,0.1-2.9,0.5c-2.3,0.5-4.5,1.3-6.6,2.3c-2.1,1-4,2.2-5.7,3.5c-1.3,1-2,1.8-2,1.7
		c0,0,0.1-0.2,0.4-0.6c0.2-0.2,0.4-0.4,0.6-0.6c0.3-0.3,0.5-0.5,0.8-0.8c1.7-1.4,3.6-2.6,5.7-3.6c2.1-1,4.3-1.8,6.7-2.3
		c0.4-0.1,0.8-0.1,1.2-0.2c0.3,0,0.6-0.1,0.9-0.1C202.9,190.6,203.2,190.6,203.4,190.6z"/>
	<path class="st12" d="M194,179.8c-2.9-0.1-5.8,0-8.7,0.5c-2.8,0.6-5.5,1.6-7.9,2.8c0.6-0.5,1.3-0.9,2-1.3c1.8-0.9,3.7-1.5,5.8-1.9
		c2-0.4,4.1-0.6,6.2-0.5C192.3,179.5,193.2,179.6,194,179.8z"/>
	<path class="st4" d="M249.2,232.4c0.1,0.2,0.2,0.3,0.2,0.5c0.1,0.4,0.3,0.9,0.5,1.5l1.8,5.7c1.5,4.9,3.6,11.7,6,19.5l0.1,0.3
		l-0.4-0.1l-10.6-2.3l-30.9-6.9l0.2-0.1l-5.2,7.2l-1.4,1.9l-0.4,0.5c0,0.1-0.1,0.1-0.1,0.2c0,0,0-0.1,0.1-0.2l0.3-0.5l1.4-2
		c1.2-1.7,2.9-4.2,5.1-7.3l0.1-0.1l0.2,0l30.9,6.8l10.5,2.4l-0.3,0.2c-2.3-7.8-4.4-14.6-5.8-19.5c-0.7-2.4-1.3-4.3-1.7-5.7l-0.4-1.5
		C249.3,232.8,249.2,232.6,249.2,232.4z"/>
	<path class="st4" d="M271.9,230.7c0.1,0.1,0.2,0.3,0.2,0.5c0.1,0.4,0.3,0.8,0.5,1.4c0.4,1.2,1,2.9,1.7,5c1.4,4.3,3.3,10.1,5.4,16.6
		c1,3.2,2,6.3,2.9,9.2c0.9,2.5,1.1,5.1,0.8,7.7c-0.3,1.7-1,3.4-2.3,4.9c-0.4,0.5-1,1-1.6,1.4c0.5-0.5,1-1,1.5-1.5
		c1.2-1.4,1.9-3.1,2.1-4.8c0.3-2.5,0-5.1-0.9-7.6c-0.9-2.8-1.9-5.9-2.9-9.1c-2-6.5-3.9-12.3-5.2-16.6l-1.5-5c-0.2-0.6-0.3-1-0.4-1.4
		C272,231,271.9,230.9,271.9,230.7z"/>
	<g class="st8">
		<path d="M279.5,277.5c6,0.4,9.6-2.3,10.2-6.1c0.3-2.1-0.5-4.1-1.4-6.1c-3.7-8.6-7.5-17.3-13.4-25.1c2.2,7.8,5.1,15.3,7.3,23.2
			c0.7,2.2,1,4.4,1,6.7C283.1,272.9,281.8,275.5,279.5,277.5"/>
	</g>
	<path class="st4" d="M257.1,207c6.5,1.5,13.4-1.4,15.4-6.5c0.1-0.3,0.2-0.6,0.3-0.9c1.7,1.2,4,1.7,6.3,1.3c2.2-0.4,4.2-1.2,5.8-2.5
		c3.1-2.2,4.9-5.4,4.9-8.7c-0.1-3.3-2.7-6.3-6.6-7.6c-3.9-1.1-8.8,0.4-10.4,3.4c-0.7-1.7,1.1-4,0.7-5.8c-0.9-3.5-3.6-5.6-5.8-5.7"/>
	<path class="st4" d="M261.9,206.1c4.4-6.1,5.7-14.3,6.8-21.3c0.5-3.3,1.4-8.1-1.4-10.1c-3-2.2-3.4-5.6-6.9-7.4
		c-3.5-1.7-8.3-1.8-11.6,0.1"/>
	<path class="st10" d="M238.9,218.3l0-9.6c0,0-12.6-1.8-13.4-9.8c-0.8-8-0.5-26.5-0.5-26.5l0,0c11-4.6,24.4-4,34.6,1.7l-0.4,28.2
		l0,9.2l-10.3,6.7l-9.9,6.2L238.9,218.3z"/>
	<path class="st4" d="M235.2,189.1c1.7-1.7,4.4-2.4,6.7-1.2c2.3,1.3,3.1,3.8,1.9,5.8c-1,1.5-2.7,2.6-4.8,3c0,0,4.6,6.6,7.5,8.3
		c3.4,2.1,5,3.1,9.3,3.5s3.7,0.4,6.1-2.4c1.6-1.9,2.5-4.2,2.4-6.5c0.1-5.9,0.2-11.8,0.3-17.7c0.2-2.1,0-4.3-0.5-6.4
		c-0.5-2.1-2-4-4.1-5.2c-2.4-1.3-5.4-1.4-8.1-2.1c-3.4-0.9-6.3-2.7-9.5-4c-3.2-1.3-7.1-2.1-10.3-0.8c-2.3,0.9-3.8,2.8-6,3.9
		c-3.2,1.5-7.5,1.2-9.1,5c-0.5,1.3-0.5,2.8,0.1,4.1c2.2,5.2,10.1,7.2,15.7,5c0.1,0.9-0.9,2.8,0.2,5.6
		C233.3,187.7,233.5,189,235.2,189.1"/>
	<path class="st11" d="M237,194.1c0,0,0,0.2,0.1,0.3c0.3,0.3,0.7,0.4,1.1,0.4c1.5-0.1,2.6-1.1,2.5-2.2c0.1-0.6-0.2-1.2-0.7-1.7
		c-0.4-0.4-0.9-0.6-1.5-0.7c-1-0.2-1.6,0.1-1.6,0.2c0,0.1,0.6,0,1.4,0.2c1.1,0.3,1.8,1.1,1.7,2c0,0.9-0.8,1.7-1.8,1.8
		C237.4,194.5,237.1,194.1,237,194.1z"/>
	<path class="st9" d="M288.4,189.8c-0.1,0.3-0.2,0.5-0.3,0.8c-0.3,0.7-0.8,1.3-1.3,1.9c-1.8,1.9-4.5,3.3-7.5,3.7
		c-3,0.3-6.1-0.3-8.5-1.7c-0.7-0.4-1.4-0.9-2-1.5c-0.2-0.2-0.4-0.4-0.5-0.7c0.8,0.7,1.7,1.3,2.7,1.9c2.4,1.3,5.3,1.9,8.3,1.6
		c2.9-0.4,5.5-1.6,7.3-3.4C287.2,191.5,287.8,190.6,288.4,189.8z"/>
	<path class="st9" d="M287,188.5c-0.1,0.2-0.2,0.4-0.4,0.6c-0.4,0.5-0.8,1-1.4,1.5c-1.7,1.5-4,2.6-6.5,3.1c-2.5,0.5-5.2,0.3-7.6-0.5
		c-0.7-0.2-1.4-0.5-2-0.9c-0.2-0.1-0.5-0.3-0.6-0.4c0.1-0.1,1,0.5,2.8,1.1c2.3,0.7,4.9,0.8,7.3,0.4c2.4-0.5,4.6-1.5,6.4-2.9
		C286.3,189.3,286.9,188.5,287,188.5z"/>
	<path class="st9" d="M270,198.8c0,0-0.1,0.1-0.4,0.2c-0.4,0.1-0.9,0.2-1.3,0.3c-1.7,0.1-3.4-0.3-4.8-1c-2-1.2-3.6-2.8-4.6-4.7
		c-1.2-2-2.2-4.3-4.1-6.4c-0.9-1-2.1-1.8-3.5-2.3c-1.3-0.5-2.7-0.8-4.1-0.9c-2.7-0.2-5.3-0.1-7.4-0.3c-1.7-0.1-3.3-0.5-4.8-1.2
		c-0.4-0.2-0.8-0.4-1.1-0.7c-0.1-0.1-0.2-0.2-0.3-0.3c0,0,0.5,0.3,1.5,0.8c1.5,0.6,3.1,0.9,4.7,1c2.1,0.2,4.6,0,7.4,0.2
		c1.5,0.1,3,0.4,4.3,0.9c1.4,0.6,2.7,1.4,3.7,2.4c2,2.1,3,4.5,4.1,6.4c0.9,1.8,2.4,3.4,4.3,4.6c1.3,0.8,2.9,1.2,4.6,1.1
		C268.9,199.1,269.4,199,270,198.8z"/>
	<path class="st9" d="M269,195.9c-0.1,0-0.3,0-0.5,0c-0.4,0-0.9,0-1.3-0.1c-1.5-0.4-2.9-1.1-3.9-2.1c-0.7-0.7-1.4-1.4-1.9-2.1
		c-0.6-0.8-1.1-1.7-1.7-2.7c-0.6-1-1.3-1.9-2.1-2.8c-0.4-0.5-0.9-0.9-1.4-1.3c-0.3-0.2-0.6-0.4-0.9-0.5c-0.3-0.2-0.6-0.3-0.9-0.5
		c-1.3-0.5-2.7-0.8-4.2-1c-1.4-0.1-2.7-0.2-4.1-0.2c-2.4,0.1-4.7,0-7.1-0.1c-1.6-0.1-3.1-0.5-4.6-1.1c-0.4-0.2-0.7-0.4-1.1-0.6
		c-0.1-0.1-0.2-0.1-0.3-0.2c0,0,0.5,0.3,1.5,0.7c1.4,0.5,3,0.8,4.5,0.9c2.3,0.1,4.7,0.1,7,0c1.4,0,2.8,0,4.2,0.1
		c1.5,0.1,3,0.5,4.3,1c0.4,0.1,0.7,0.3,1,0.5c0.3,0.2,0.6,0.3,0.9,0.5c0.6,0.4,1.1,0.8,1.5,1.3c0.8,0.9,1.5,1.9,2.1,2.9
		c0.6,0.9,1.1,1.9,1.6,2.7c0.5,0.8,1.1,1.5,1.8,2.1c1,1,2.2,1.7,3.7,2.1C267.9,195.8,268.5,195.9,269,195.9z"/>
	<path class="st6" d="M271.5,200c0,0-0.2-0.1-0.6-0.4c-0.5-0.4-0.9-0.8-1.2-1.2c-1.2-1.5-1.9-3.2-2-4.9c-0.1-1.7,0.4-3.5,1.4-5
		c0.3-0.5,0.7-0.9,1.1-1.3c0.3-0.3,0.5-0.4,0.5-0.4c0,0-0.6,0.7-1.3,1.8c-1.8,3.1-1.7,6.7,0.5,9.6C270.8,199.4,271.6,200,271.5,200z
		"/>
</g>
<g id="freepik--Plant--inject-3">
	<path class="st6" d="M411.9,310.1c7,1.9,16,0.2,21.9-3.3s10.2-8.4,14-13.4c1.6-2.1,3.2-4.4,3.7-6.8c0.5-2.5-0.3-5.2-2.7-6.8
		c-3.7-2.5-9.5-1.2-13.7,0.7C421.7,286.7,413,297.8,411.9,310.1"/>
	<path class="st6" d="M419.4,323.2c4.2,4.4,11.4,6.3,18.3,6.5c6.9,0.2,13.7-1.3,20.1-3.2c2.3-0.7,4.9-1.7,5.7-3.6
		c0.5-1.5,0-3.1-1.2-4.2c-1.3-1.1-2.9-2-4.7-2.5c-6.5-2-13.6-2.3-20.3-0.8C430.6,316.8,424.8,319.9,419.4,323.2"/>
	<path class="st6" d="M411.7,286.5c5.8,0.1,10.1-3.9,12.7-8c3.6-5.7,4.8-12.1,3.4-18.4c-0.5-2.3-1.7-4.8-4.3-5.9
		c-2.6-1.1-6.2-0.4-8.4,1.3s-3.5,3.9-4.3,6.2C407.7,269.6,408.4,278.7,411.7,286.5"/>
	<path class="st6" d="M392.9,311.7c9.8-13.2,11.4-29.4,5.6-44c-1-2.4-2.7-5.1-5.9-5.2c-3.5-0.2-5.6,2.9-6.6,5.5
		c-3.3,9.3-2.6,19.1-1.9,28.8C384.6,302.8,387.2,307.8,392.9,311.7"/>
	<path class="st6" d="M382.7,317.2c-3.7-9.2-12.5-16.5-23.8-19.9c-2.6-0.8-5.9-1.2-7.9,0.4s-1.3,4.1-0.1,6.1c2,3.1,5.2,5.6,8.4,8
		c2.9,2.2,5.9,4.4,9.6,5.6C372.6,318.6,379.3,318.9,382.7,317.2"/>
	<path class="st4" d="M443.4,283.1c0,0,0,0-0.2,0.1l-0.5,0.3l-2,1.2l-1.5,0.9c-0.5,0.3-1.1,0.7-1.7,1.1c-1.2,0.8-2.6,1.7-4.1,2.8
		l-2.3,1.7c-0.8,0.6-1.6,1.2-2.4,1.9c-1.7,1.3-3.3,2.8-5,4.3c-7.5,6.9-13.5,14.6-17.9,23c-1,1.9-1.9,3.8-2.6,5.5
		c-0.4,0.9-0.8,1.7-1.1,2.5c-0.3,0.8-0.6,1.6-0.8,2.4c-0.6,1.5-0.9,2.9-1.3,4.1c-0.2,0.6-0.4,1.2-0.5,1.7c-0.1,0.5-0.2,1-0.3,1.5
		c-0.2,0.8-0.3,1.5-0.4,2c-0.1,0.2-0.1,0.4-0.1,0.5l-0.1,0.2c0-0.1,0-0.1,0-0.2c0-0.1,0-0.3,0.1-0.5c0.1-0.5,0.2-1.2,0.4-2
		c0.1-0.4,0.2-0.9,0.3-1.5s0.3-1.1,0.4-1.7c0.3-1.2,0.6-2.6,1.2-4.1c0.3-0.8,0.5-1.6,0.8-2.4c0.3-0.8,0.7-1.7,1-2.6
		c0.7-1.8,1.6-3.6,2.6-5.6c4.4-8.4,10.4-16.2,17.9-23.1c1.8-1.5,3.4-3.1,5.1-4.3c0.8-0.6,1.6-1.3,2.4-1.9l2.3-1.7
		c1.5-1.1,2.9-1.9,4.1-2.7c0.6-0.4,1.2-0.8,1.7-1.1l1.5-0.8c0.9-0.5,1.6-0.9,2.1-1.2l0.6-0.3C443.3,283.1,443.4,283.1,443.4,283.1z"
		/>
	<path class="st4" d="M456.5,319.7c-0.2,0-0.5,0-0.7-0.1c-0.4-0.1-1.1-0.2-1.9-0.3c-2.3-0.3-4.7-0.6-7.1-0.7
		c-16-0.7-31.5,4.4-42.1,13.9c-1.6,1.4-3,2.9-4.4,4.5c-0.5,0.5-0.8,1-1.1,1.3c-0.1,0.2-0.2,0.3-0.4,0.4c0.1-0.2,0.2-0.3,0.3-0.5
		c0.2-0.3,0.5-0.8,1-1.3c1.3-1.6,2.7-3.1,4.3-4.6c10.5-9.7,26.2-14.9,42.3-14c2.4,0.1,4.8,0.4,7.1,0.8c0.8,0.1,1.5,0.3,1.9,0.4
		C456,319.6,456.3,319.6,456.5,319.7z"/>
	<path class="st4" d="M420.1,259.5c0,0,0,0.1,0,0.2c0,0.1-0.1,0.3-0.2,0.6c-0.1,0.5-0.4,1.3-0.6,2.3c-0.6,2-1.4,4.8-2.5,8.3
		c-2.1,7-5.3,16.7-8.5,27.5c-1.6,5.4-3.1,10.5-4.3,15.2s-2.3,8.9-3.1,12.5c-0.4,1.8-0.7,3.4-1,4.8s-0.5,2.6-0.7,3.6l-0.4,2.3
		l-0.1,0.6l-0.1,0.2c0-0.1,0-0.1,0-0.2c0-0.2,0-0.4,0.1-0.6c0.1-0.6,0.2-1.3,0.4-2.3c0.2-1,0.4-2.2,0.6-3.7c0.3-1.4,0.6-3,1-4.8
		c0.7-3.6,1.8-7.8,3-12.5c1.2-4.7,2.7-9.8,4.3-15.2c3.3-10.7,6.4-20.4,8.7-27.4c1.1-3.5,2-6.3,2.6-8.3c0.3-1,0.6-1.7,0.7-2.3
		c0.1-0.2,0.2-0.4,0.2-0.6C420.2,259.6,420.2,259.5,420.1,259.5z"/>
	<path class="st4" d="M397.8,336.5c0-0.1-0.1-0.1-0.1-0.2c0-0.1-0.1-0.3-0.1-0.5l-0.5-1.8c-0.4-1.6-1-3.9-1.6-6.8
		c-1.3-5.7-2.8-13.7-3.7-22.6c-0.5-4.4-0.7-8.7-0.8-12.5c-0.1-3.9,0-7.3,0.1-10.2c0-1.5,0.2-2.8,0.2-3.9c0.1-1.2,0.2-2.2,0.3-3
		c0.1-0.8,0.2-1.4,0.2-1.9c0-0.2,0-0.4,0.1-0.5c0-0.1,0-0.1,0-0.2c0,0.1,0,0.1,0,0.2c0,0.1,0,0.3,0,0.5c0,0.5-0.1,1.1-0.1,1.9
		c0,0.8-0.1,1.8-0.2,3s-0.2,2.5-0.2,3.9c-0.1,2.9-0.1,6.4,0,10.2c0.1,3.9,0.4,8.1,0.9,12.5c0.9,8.9,2.4,16.8,3.6,22.6
		c0.6,2.9,1.1,5.2,1.5,6.8c0.2,0.8,0.3,1.4,0.4,1.8c0,0.2,0.1,0.4,0.1,0.5C397.8,336.4,397.8,336.4,397.8,336.5z"/>
	<path class="st4" d="M398.5,338.2c-0.1-0.1-0.2-0.3-0.3-0.5c-0.2-0.3-0.4-0.8-0.6-1.3l-0.5-1l-0.6-1.1l-0.7-1.3
		c-0.3-0.5-0.6-0.9-0.9-1.4l-1-1.5l-1.2-1.6c-0.8-1.1-1.8-2.3-2.8-3.5c-2.3-2.6-4.8-5.1-7.4-7.5c-2.7-2.3-5.5-4.6-8.5-6.7
		c-1.4-0.9-2.7-1.9-4-2.7l-1.9-1.2l-1.7-1.1c-1.1-0.7-2.2-1.2-3.1-1.7s-1.7-0.9-2.4-1.2l-1.5-0.8c-0.2-0.1-0.4-0.2-0.5-0.3
		c0.2,0.1,0.4,0.1,0.6,0.2l1.6,0.7c0.7,0.3,1.5,0.7,2.4,1.2c0.9,0.5,2,1,3.1,1.7l1.8,1l1.9,1.2c1.3,0.8,2.6,1.7,4,2.6
		c3,2.1,5.9,4.3,8.6,6.7c2.7,2.4,5.1,4.9,7.4,7.5c1,1.2,2,2.4,2.8,3.5l1.2,1.6c0.3,0.5,0.7,1.1,1,1.6c0.3,0.5,0.6,1,0.9,1.4
		s0.5,0.9,0.7,1.3c0.2,0.4,0.4,0.8,0.6,1.1l0.4,1l0.6,1.4C398.4,337.8,398.5,338,398.5,338.2z"/>
	<path class="st4" d="M439.8,298.4c0,0.1-1.2,0.1-3.1,0.2c-5,0.2-9.9,1-14.6,2.2c-1.8,0.5-2.9,0.8-2.9,0.8c0.2-0.1,0.5-0.2,0.7-0.3
		c0.5-0.2,1.2-0.4,2.1-0.7c2.4-0.7,4.8-1.2,7.2-1.6c2.5-0.4,5-0.6,7.5-0.6c1,0,1.7,0,2.3,0C439.3,298.4,439.5,298.4,439.8,298.4z"/>
	<path class="st4" d="M447.3,327c-2-3.6-5.5-6.5-9.8-8.3c0.7,0.1,1.4,0.4,2,0.7c3.1,1.4,5.5,3.5,7.1,6
		C446.9,325.9,447.1,326.5,447.3,327z"/>
	<path class="st4" d="M421.9,270.2c0.1,0.1-1.7,1.5-3.7,3.4c-2,1.9-3.4,3.6-3.5,3.5C416.5,274.5,419,272.1,421.9,270.2z"/>
	<path class="st4" d="M416,262.1c0.5,1,0.8,2,0.9,3.1c0.3,1,0.5,2.1,0.4,3.1c-0.5-1-0.8-2-0.9-3.1C416.1,264.2,416,263.2,416,262.1z
		"/>
	<path class="st4" d="M397.7,287.6c-0.8,1.6-1.8,3.2-2.9,4.8c-1,1.6-2,3.1-3.3,4.6c0.8-1.6,1.8-3.2,2.9-4.8
		C395.4,290.6,396.5,289,397.7,287.6z"/>
	<path class="st4" d="M386.8,279c0.9,1.1,1.8,2.2,2.4,3.5c0.8,1.2,1.5,2.4,2,3.6c-1-1.1-1.8-2.2-2.4-3.5
		C388,281.4,387.3,280.2,386.8,279z"/>
	<path class="st4" d="M370.8,308.5c0,0.1-2-0.2-4.4-0.3s-4.4-0.1-4.4-0.2C364.9,307.6,367.9,307.7,370.8,308.5z"/>
	<path class="st4" d="M381.8,334.5l5.5,22.7c0.4,1.5,2,2.6,4,2.6l16.1,0c2,0,3.6-1.1,4-2.7l4.7-22.7L381.8,334.5z"/>
	<polygon class="st9" points="383.6,341.9 414.4,341.9 416,334.5 381.8,334.5 	"/>
	<polygon class="st12" points="383.6,341.9 384.2,344.6 413.9,344.6 414.4,341.9 	"/>
</g>
</svg>
