<?xml version="1.0" encoding="utf-8"?>
<!-- Generator: Adobe Illustrator 26.1.0, SVG Export Plug-In . SVG Version: 6.00 Build 0)  -->
<svg version="1.1" id="Слой_1" xmlns="http://www.w3.org/2000/svg" xmlns:xlink="http://www.w3.org/1999/xlink" x="0px" y="0px"
	 viewBox="0 0 2221.3 2569.6" style="enable-background:new 0 0 2221.3 2569.6;" xml:space="preserve">
<style type="text/css">
	.st0{fill:#F5F5F5;}
	.st1{fill:#4DA8F2;}
	.st2{fill:#F0F0F0;}
	.st3{fill:#4BA2F4;}
	.st4{fill:#FFDF69;}
	.st5{fill:#375EAB;}
	.st6{fill:#DEBA35;}
	.st7{fill:#FFFFFF;}
	.st8{fill:#C9C9C9;}
	.st9{fill:url(#SVGID_1_);}
	.st10{fill:url(#SVGID_00000106829145365632285570000008189803453732668310_);}
	.st11{fill:#6770B5;}
	.st12{fill:#E8E8E8;}
	.st13{fill:#EEA886;}
	.st14{fill:#3A3F47;}
	.st15{fill:#A77860;}
	.st16{fill:#C4C4C4;}
	.st17{fill:#254380;}
	.st18{fill:#BBD070;}
	.st19{fill:#97A43C;}
	.st20{fill:#48753A;}
	.st21{fill:#3F71D9;}
	.st22{fill:#252E3B;}
	.st23{fill:#88C0FF;}
	.st24{fill:#C2BEBC;}
	.st25{fill:#202338;}
	.st26{fill:#C98E72;}
	.st27{fill:#DE9D7D;}
	.st28{fill:#464240;}
	.st29{fill:#EB4747;}
	.st30{fill:#5F8CC9;}
	.st31{fill:#5E5853;}
	.st32{fill:#91887F;}
	.st33{fill:#EDDAD3;}
	.st34{fill:#6E6760;}
	.st35{fill:#807066;}
	.st36{fill:#D6D6D6;}
	.st37{fill:#C2C2C2;}
	.st38{fill:url(#SVGID_00000089570241401314833410000009643088074165393294_);}
	.st39{fill:url(#SVGID_00000072247525880054443900000016092242514285833392_);}
	.st40{fill:url(#SVGID_00000176758376084033170830000005407905117458747032_);}
	.st41{fill:#E2D2CA;}
	.st42{fill:#706865;}
	.st43{fill:#CCBDB7;}
	.st44{fill:#4667A8;}
	.st45{fill:#B59074;}
	.st46{fill:#323657;}
	.st47{fill:#EAD8CF;}
	.st48{fill:#DA9B5B;}
	.st49{fill:#424773;}
	.st50{fill:#292C47;}
	.st51{fill:#918783;}
	.st52{fill:#5E5854;}
	.st53{fill:#BFB2AC;}
	.st54{fill:#5F8BE3;}
	.st55{fill:#F5F7FF;}
	.st56{fill:#CECFD6;}
	.st57{fill:#314875;}
	.st58{fill:#EEF0F7;}
	.st59{fill:#D9C7C1;}
	.st60{fill:#EEA987;}
	.st61{fill:#E8734D;}
	.st62{fill:#C78D71;}
	.st63{fill:#5073AB;}
	.st64{fill:#252840;}
	.st65{fill:#FFBF55;}
	.st66{fill:#B08439;}
</style>
<g>
	<g>
		<g>
			<path class="st0" d="M1599.6,1546.6c23.1,43.5,6.5,97.5-37.1,120.5c-43.5,23.1-97.5,6.5-120.5-37c-23.1-43.5-6.5-97.5,37.1-120.5
				C1522.6,1486.5,1576.6,1503,1599.6,1546.6z"/>
		</g>
	</g>
	<g>
		<g>
			<path class="st1" d="M1570.4,1681.9c-51.6,27.3-115.8,7.6-143.1-44c-27.3-51.6-7.6-115.8,44-143.1c51.6-27.3,115.8-7.6,143.1,44
				C1641.7,1590.3,1622,1654.5,1570.4,1681.9z M1486.9,1524.3c-35.3,18.7-48.8,62.6-30.1,97.9c18.7,35.3,62.6,48.8,97.9,30.1
				c35.3-18.7,48.8-62.6,30.1-97.9C1566.2,1519.1,1522.2,1505.6,1486.9,1524.3z"/>
		</g>
	</g>
	<g>
		<rect x="547.3" y="389.9" class="st2" width="414.3" height="414.3"/>
		<rect x="1170.4" y="834" class="st2" width="414.3" height="414.3"/>
		<rect x="1616.1" y="834" class="st3" width="414.3" height="414.3"/>
		<rect x="1438.8" y="390.2" class="st2" width="414.3" height="414.3"/>
		<rect x="547.3" y="1279.7" class="st2" width="414.3" height="414.3"/>
		<g>
			<path class="st4" d="M1407.3,1279.7c0,0-0.3,191.8-45.2,354.3l-95.8,60H928.5c64.2-170.8,64.6-414.3,64.6-414.3H1407.3z"/>
			<polygon class="st5" points="1266.3,1694 1266.3,1632.6 1362.1,1632.6 			"/>
		</g>
		<g>
			<path class="st4" d="M1407.3,390.2c0,0-0.3,191.8-45.2,354.3l-95.8,60H928.5C992.6,633.7,993,390.2,993,390.2H1407.3z"/>
			<polygon class="st6" points="1266.3,804.4 1266.3,743.1 1362.1,743.1 			"/>
		</g>
		<g>
			<g>
				<path class="st3" d="M1138.9,835.9c0,0-0.3,191.8-45.2,354.3l-95.8,60H660.1c64.2-170.8,64.6-414.3,64.6-414.3H1138.9z"/>
				<polygon class="st5" points="997.9,1250.2 997.9,1188.8 1093.7,1188.8 				"/>
			</g>
			<g>
				<g>
					<path class="st7" d="M917.7,1119.3c-5.3,0-9.6-4.3-9.6-9.6V976.5c0-5.3,4.3-9.6,9.6-9.6c5.3,0,9.6,4.3,9.6,9.6v133.2
						C927.3,1114.9,923,1119.3,917.7,1119.3z"/>
				</g>
				<g>
					<path class="st7" d="M984.2,1052.7H851.1c-5.3,0-9.6-4.3-9.6-9.6c0-5.3,4.3-9.6,9.6-9.6h133.2c5.3,0,9.6,4.3,9.6,9.6
						C993.9,1048.4,989.6,1052.7,984.2,1052.7z"/>
				</g>
			</g>
		</g>
		<g>
			<path class="st2" d="M1853,1279.7c0,0-0.3,191.8-45.2,354.3l-95.8,60h-337.8c64.2-170.8,64.6-414.3,64.6-414.3H1853z"/>
			<polygon class="st8" points="1712,1694 1712,1632.6 1807.8,1632.6 			"/>
		</g>
	</g>
	<linearGradient id="SVGID_1_" gradientUnits="userSpaceOnUse" x1="111.4265" y1="121.4786" x2="513.8968" y2="1361.6129">
		<stop  offset="0" style="stop-color:#40D5E6"/>
		<stop  offset="1" style="stop-color:#5577FF"/>
	</linearGradient>
	<path class="st9" d="M388.8,524.3c5.7-15.7,9.1-31.8,10.3-48.1l32.1-12.8l-6.8-37l-6.8-37l-34.6-0.6c-6.8-14.8-15.8-28.7-26.7-41.3
		l13.6-31.8l-31-21.3l-31-21.4l-24.9,24c-15.7-5.7-31.8-9.1-48.1-10.3l-12.8-32.1l-37,6.8l-37,6.8l-0.6,34.6
		c-14.8,6.8-28.7,15.8-41.3,26.7L74.7,316l-21.3,31l-21.4,31l24,24.9c-5.7,15.7-9.1,31.8-10.3,48.1l-32.1,12.8l6.8,37l6.8,37
		l34.6,0.6c6.8,14.8,15.8,28.7,26.7,41.3l-13.6,31.8l31,21.4l31,21.4l24.9-24c15.7,5.7,31.8,9.1,48.1,10.3l12.8,32.1l37-6.8l37-6.8
		l0.6-34.6c14.8-6.8,28.7-15.8,41.3-26.7l31.8,13.6l21.4-31l21.4-31L388.8,524.3z M170.1,539.4c-41.9-28.9-52.5-86.3-23.5-128.2
		c28.9-41.9,86.3-52.5,128.2-23.5c41.9,28.9,52.5,86.3,23.5,128.2C269.4,557.8,212,568.4,170.1,539.4z"/>
	
		<linearGradient id="SVGID_00000005249752636399650720000010741564566597199799_" gradientUnits="userSpaceOnUse" x1="399.9104" y1="27.8554" x2="802.3807" y2="1267.9899">
		<stop  offset="0" style="stop-color:#40D5E6"/>
		<stop  offset="1" style="stop-color:#5577FF"/>
	</linearGradient>
	<path style="fill:url(#SVGID_00000005249752636399650720000010741564566597199799_);" d="M532.9,228.6c2.7-7.2,4.2-14.7,4.8-22.2
		l14.9-5.9l-3.1-17.1l-3.1-17.1l-16-0.3c-3.2-6.8-7.3-13.3-12.3-19.1l6.3-14.7l-14.3-9.9l-14.3-9.9l-11.5,11.1
		c-7.2-2.7-14.7-4.2-22.2-4.8l-5.9-14.9l-17.1,3.1l-17.1,3.1l-0.3,16c-6.8,3.2-13.3,7.3-19.1,12.3l-14.7-6.3l-9.9,14.3l-9.9,14.3
		l11.1,11.5c-2.7,7.2-4.2,14.7-4.8,22.2l-14.9,5.9l3.1,17.1l3.1,17.1l16,0.3c3.2,6.8,7.3,13.3,12.3,19.1l-6.3,14.7l14.3,9.9
		l14.3,9.9l11.5-11.1c7.2,2.7,14.7,4.2,22.2,4.8l5.9,14.9l17.1-3.1l17.1-3.1l0.3-16c6.8-3.2,13.3-7.3,19.1-12.3l14.7,6.3l9.9-14.3
		l9.9-14.3L532.9,228.6z M431.7,235.6c-19.4-13.4-24.3-40-10.9-59.3c13.4-19.4,40-24.3,59.3-10.9c19.4,13.4,24.3,40,10.9,59.3
		C477.7,244.1,451.1,249,431.7,235.6z"/>
	<g>
		<path class="st11" d="M314.4,1945.3h450.7c-0.8-5.3-1.6-13.5-2.3-21.3c-4.3-47-7.1-78.1-7.1-78.1s-369.6-183.2-410.1-62.8
			c-13,38.7-22.2,87-28.6,140.9C316.1,1932.1,315.2,1940.3,314.4,1945.3z"/>
	</g>
	<path class="st12" d="M695.8,1322.5c0,0,20.6,122.6,37.2,203.6c0,0,0,0,0,0c6.7,32.8,12.8,58.8,16.6,67
		c4.8,10.3,43.5,51.9,90.8,100.6c83.1,85.6,192.9,193.3,192.9,193.3l42.9-81.5c0,0-97.5-114.3-163.6-190.6
		c-30.6-35.3-54.5-62.5-58.8-66.4c-13.8-12.4-29.9-134.2-52.4-234.6c-22.6-100.4-67.7-155.9-67.7-155.9L695.8,1322.5z"/>
	<path class="st13" d="M840.5,1693.8c83.1,85.6,192.9,193.3,192.9,193.3l42.9-81.5c0,0-97.5-114.3-163.6-190.6
		C892.4,1624.9,855.2,1648.6,840.5,1693.8z"/>
	<path class="st12" d="M321.9,1871.2c-3.1,10.9,417.3,15.4,417.3,15.4s-17.9-131.1-28-161.7c-10.2-30.6,28.9-213.2,35.5-272.9
		c5.2-47.7,18.4-261.3-13.1-293.9c-32.9-34.1-151.3-69.8-151.3-69.8l-172.7,6.4c0,0-28.5,6-48.9,15.4
		c-20.4,9.5-136.9,51-155.8,109.2c-18.9,58.2,116.2,245.3,116.2,245.3s0.3,8.4,0.7,22.2v0c0.5,18.4,1.3,46.3,2,76.6
		c0.9,39.2,1.7,82.4,1.7,114C325.6,1751.5,325,1860.2,321.9,1871.2z"/>
	<path class="st13" d="M534.9,713.1c0,0,149.9-33.8,115.6,154.8s-70.3,203.4-160.7,164.4c-90.4-39-82.3-159.9-86.9-219.1
		C398.4,753.9,487.1,715.2,534.9,713.1z"/>
	<path class="st13" d="M574.6,1136.7c0,0-66.4,70.4-171.3,6.4c0,0,23.5-152.5,11.1-226.8c-12.3-74.3,136.9,115.1,136.9,115.1
		c-2,1-3.3,8.1-3.6,18.2c-0.3,8.5,0.2,19.2,1.6,30.2C552.4,1104.5,560.1,1130.6,574.6,1136.7z"/>
	<path class="st13" d="M454.6,842.9c-2-16.6-34.9-22.7-37.5,2.2c-2.6,24.9,14.9,68.7,27.4,64.4C457,905.2,457.3,865.9,454.6,842.9z"
		/>
	<path class="st14" d="M410.3,910c0,0,3.9-59.4,25.6-61.3c21.7-1.9,25,22.1,25,22.1l21.9,4.1c0,0-6.9-52.1,14.7-61.2
		c21.7-9.1,140.4,28.7,157.8,13.4c17.4-15.3,9.2-120.9-22.3-135.4c-31.5-14.5-118.4-46.9-182-3.8c0,0-49.6-5.7-57,34.4
		C386.8,762.4,396.8,880.2,410.3,910z"/>
	<path class="st15" d="M549.3,1079.8c-108.2-33.4-116.4-98.5-116.5-99.6c35.6,61.2,114.9,69.3,114.9,69.3
		C547.5,1058.1,547.9,1068.8,549.3,1079.8z"/>
	<path class="st13" d="M359,1110.9c0,0,79.3,157.8,207.3,147.6c128-10.2,21.8-168.8,16-170.2C575.9,1086.6,451,1055.5,359,1110.9z"
		/>
	<path class="st12" d="M185.1,1700.8c5.8,6.8,83,37.8,170.1,71.3l0,0c119,45.9,253.3,89.2,253.3,89.2l30.6-65.5
		c0,0-140.6-76.4-235.6-130c-44.9-25.3-79.6-45.5-84.5-50.2c-15.3-14.6-19.2-37.9-8-78.6c11.2-40.7,37.1-227.7,40-249.5
		c2.9-21.8-7.3-80-61.8-82.9c-54.6-2.9-82.3,12.5-82.3,12.5s-13.7,5.7-23.9,138.1C172.7,1487.6,171.3,1684.8,185.1,1700.8z"/>
	<path class="st16" d="M321.9,1486.7L321.9,1486.7c0.5,18.4,1.3,46.3,2,76.6c53.3-130.5,22.5-234.7,22-236.5
		C351.6,1362.3,322.3,1485,321.9,1486.7z"/>
	<path class="st16" d="M733,1526.1C733,1526.1,733,1526.1,733,1526.1c6.7,32.8,12.8,58.8,16.6,67c18.2-88,1.8-200.7,1.8-200.7
		C749,1446.2,733,1526.1,733,1526.1z"/>
	<path class="st13" d="M355.2,1772.1L355.2,1772.1c119,45.9,286.9,84.2,286.9,84.2l23.8-57.2c0,0-167.4-79.7-262.4-133.3
		C403.4,1665.9,368.9,1682.7,355.2,1772.1z"/>
	<g>
		<path class="st13" d="M665.9,1799.1c0,0,34.8-5.4,58.9-11c18.6-4.3,65,1.6,76.8,13.6c11.8,12,49.3,95.3,56.4,100.3
			c7.1,5.1-3.6,16.8-16.1,10.9c0,0-9.4,16.4-37.7,2.8c-28.2-13.6-49.4-23.4-64.2-28.7c-14.8-5.2-100.9-31.7-100.9-31.7
			S643.7,1790.3,665.9,1799.1z"/>
	</g>
	<g>
		<path class="st13" d="M789.1,1808.8c0,0,22.4,10.8,28.2,15.6c5.8,4.8,29.5,22.5,35.3,26.7c5.7,4.2-8.6,16-51-2.3
			C759.3,1830.5,789.1,1808.8,789.1,1808.8z"/>
	</g>
	<polygon class="st17" points="791.1,1563.9 752.1,1926.5 1265.4,1926.5 1304.4,1563.9 	"/>
	
		<rect x="711.2" y="1893.9" transform="matrix(-1 -1.224647e-16 1.224647e-16 -1 1508.197 3820.3589)" class="st17" width="85.7" height="32.6"/>
	<rect x="-86.7" y="1925.7" class="st1" width="1395.1" height="22.1"/>
	<g>
		<g>
			<g>
				<path class="st18" d="M1372.8,1845.8c0,0-119.5,97.8-71.4,184.5c48.1,86.7,78.9,16.2,78.9,16.2s35.9,13.8-11-92.1
					C1347.2,1904.4,1372.8,1845.8,1372.8,1845.8z"/>
			</g>
		</g>
	</g>
	<g>
		<g>
			<g>
				<path class="st19" d="M1175.2,1715.3c0,0-92.7,93.7,10.8,240.9c103.5,147.2,80.4,219.2,80.4,219.2S1443,1946.2,1175.2,1715.3z"
					/>
			</g>
		</g>
	</g>
	<g>
		<g>
			<g>
				<path class="st20" d="M1298.7,2133.2c52.2,14.7,17.4-140.4-58.6-193.3c-76-53-146.7-62.9-187.9-111.5
					C1052.2,1828.4,1041.6,2060.8,1298.7,2133.2z"/>
			</g>
		</g>
	</g>
	<rect x="1187.8" y="2352.5" class="st1" width="1018.7" height="22.1"/>
	<polygon class="st7" points="1115.5,2040.8 1043.4,2040.8 1043.4,2093.1 1043.4,2104.1 1054.4,2093.1 1115.5,2093.1 	"/>
	<path class="st21" d="M999.7,1739.4c-4.1,20.2,5.3,39.2,21,42.4c15.7,3.2,31.8-10.5,36-30.7c4.1-20.2-5.3-39.2-21-42.4
		C1019.9,1705.4,1003.8,1719.2,999.7,1739.4z"/>
	<g>
		<path class="st22" d="M1622.1,1702.5c0,0,51.9-152.1-47.1-199.2c-99-47.1-183,21-198.9,57.9c-15.9,36.9-11.7,103.9,1.9,150.7
			c13.5,46.8,11.6,117.9-17.8,141.8c-29.4,23.8-65.9,63.3-64.1,143.8c1.1,49.9,196.5-127.7,196.5-127.7L1622.1,1702.5z"/>
		<path class="st3" d="M1483.1,1883.5c0,0-81.3,18-113.6,36.9c-32.3,18.9-104,105.7-104,143c0,37.3,313.5,72.2,313.5,72.2l59.4,217
			c0,0,158.5-38.7,177.3-70.8c18.9-32.1-60.2-262-73.7-308.5c-13.8-47.5-70.6-80.6-136.6-89.8
			C1539.4,1874.2,1483.1,1883.5,1483.1,1883.5z"/>
		<path class="st13" d="M1599.8,1882.7c0,0-1.8,98.9-80.2,101.8c-78.4,2.9-62.1-94.8-62.1-94.8S1514.8,1866.4,1599.8,1882.7z"/>
		<path class="st22" d="M1632.9,1584.4c0,0,27.7,159-51.3,273.9C1499.9,1977.2,1632.9,1584.4,1632.9,1584.4z"/>
		<path class="st13" d="M1582.9,1812.8c0,0-5.4,47.3,3.7,76.7c9.1,29.4-119.9,30.2-119.8,6c0.1-27.5,13.2-50.4,0.8-97.5
			C1455.3,1750.9,1582.9,1812.8,1582.9,1812.8z"/>
		<path class="st15" d="M1482.9,1818.8c0,0,40.7,42.4,92.8,4.4c0,0-4.3,27.1-41.8,30.6C1496.5,1857.4,1482.9,1818.8,1482.9,1818.8z"
			/>
		<path class="st13" d="M1533.9,1529.2c0,0,102.9,30.5,88.2,173.3c-14.7,142.8-81.9,135.5-88.2,136.5c-6.3,1-86.1,6.3-111.3-167
			C1397.4,1498.8,1533.9,1529.2,1533.9,1529.2z"/>
		<path class="st22" d="M1507.3,1592.9c0,0,55.9,89,114.8,109.6c0,0,32.1-149.3-100.6-180.6c-132.8-31.3-112,150.8-102,199.3
			C1419.5,1721.3,1447.1,1649.9,1507.3,1592.9z"/>
		<path class="st23" d="M1432.3,1579.5c0,0,29.4-57,79.2-59.6c49.7-2.5,79.3,40.6,79.3,40.6s-19.4-48.6-79.2-48.6
			C1451.7,1512,1432.3,1579.5,1432.3,1579.5z"/>
	</g>
	<polygon class="st17" points="1634.7,2028 1669.6,2352.5 1210.1,2352.5 1175.2,2028 	"/>
	<rect x="1629.4" y="2323.3" class="st17" width="76.7" height="29.2"/>
	<path class="st21" d="M1450.9,2185c4.1,20.2-5.3,39.2-21,42.4c-15.7,3.2-31.8-10.5-36-30.7s5.3-39.2,21-42.4
		C1430.7,2151,1446.8,2164.8,1450.9,2185z"/>
	<g>
		<g>
			<path class="st24" d="M595.9,277l-0.6-1.3c1.3-0.6,2.6-1.1,4-1.7l0.6,1.3C598.5,275.9,597.2,276.5,595.9,277z"/>
		</g>
		<g>
			<path class="st24" d="M1858.9,1704.7l-1.2-0.7c1.4-2.5,2.9-4.9,4.3-7.4l1.2,0.7C1861.7,1699.8,1860.3,1702.2,1858.9,1704.7z
				 M1867.4,1689.8l-1.2-0.7c1.4-2.5,2.8-5,4.2-7.5l1.3,0.7C1870.2,1684.8,1868.8,1687.3,1867.4,1689.8z M1875.7,1674.7l-1.3-0.7
				c1.4-2.5,2.7-5,4-7.6l1.3,0.7C1878.4,1669.7,1877.1,1672.2,1875.7,1674.7z M1883.8,1659.5l-1.3-0.7c1.3-2.5,2.6-5.1,3.9-7.6
				l1.3,0.6C1886.4,1654.4,1885.1,1657,1883.8,1659.5z M1891.5,1644.2l-1.3-0.6c1.3-2.6,2.5-5.1,3.8-7.7l1.3,0.6
				C1894.1,1639,1892.8,1641.6,1891.5,1644.2z M1899.1,1628.7l-1.3-0.6c1.2-2.6,2.4-5.2,3.7-7.8l1.3,0.6
				C1901.5,1623.5,1900.3,1626.1,1899.1,1628.7z M1906.3,1613.1l-1.3-0.6c1.2-2.6,2.4-5.2,3.5-7.8l1.3,0.6
				C1908.7,1607.8,1907.5,1610.5,1906.3,1613.1z M1913.3,1597.3l-1.3-0.6c1.1-2.6,2.3-5.3,3.4-7.9l1.3,0.6
				C1915.5,1592.1,1914.4,1594.7,1913.3,1597.3z M1920,1581.5l-1.3-0.5c1.1-2.6,2.2-5.3,3.2-8l1.3,0.5
				C1922.2,1576.2,1921.1,1578.8,1920,1581.5z M1926.4,1565.5l-1.3-0.5c1-2.7,2.1-5.3,3.1-8l1.3,0.5
				C1928.5,1560.2,1927.5,1562.8,1926.4,1565.5z M1932.6,1549.4l-1.3-0.5c1-2.7,2-5.4,3-8.1l1.3,0.5
				C1934.6,1544.1,1933.6,1546.7,1932.6,1549.4z M1938.4,1533.3l-1.4-0.5c1-2.7,1.9-5.4,2.8-8.1l1.4,0.5
				C1940.3,1527.8,1939.4,1530.6,1938.4,1533.3z M1944,1517l-1.4-0.5c0.9-2.7,1.8-5.4,2.7-8.2l1.4,0.4
				C1945.9,1511.5,1945,1514.3,1944,1517z M1949.4,1500.6l-1.4-0.4c0.9-2.7,1.7-5.5,2.5-8.2l1.4,0.4
				C1951.1,1495.1,1950.2,1497.9,1949.4,1500.6z M1954.4,1484.1l-1.4-0.4c0.8-2.7,1.6-5.5,2.4-8.3l1.4,0.4
				C1956,1478.6,1955.2,1481.4,1954.4,1484.1z M1959.1,1467.6l-1.4-0.4c0.8-2.8,1.5-5.5,2.3-8.3l1.4,0.4
				C1960.7,1462,1959.9,1464.8,1959.1,1467.6z M1963.6,1450.9l-1.4-0.4c0.7-2.8,1.4-5.6,2.1-8.3l1.4,0.3
				C1965,1445.4,1964.3,1448.2,1963.6,1450.9z M1967.8,1434.2l-1.4-0.3c0.7-2.8,1.3-5.6,2-8.4l1.4,0.3
				C1969.1,1428.7,1968.4,1431.4,1967.8,1434.2z M1971.7,1417.5l-1.4-0.3c0.6-2.8,1.2-5.6,1.8-8.4l1.4,0.3
				C1972.9,1411.8,1972.3,1414.7,1971.7,1417.5z M1975.2,1400.6l-1.4-0.3c0.6-2.8,1.1-5.6,1.7-8.4l1.4,0.3
				C1976.4,1395,1975.8,1397.8,1975.2,1400.6z M1978.5,1383.7l-1.4-0.3c0.5-2.8,1-5.6,1.5-8.5l1.4,0.3
				C1979.6,1378.1,1979.1,1380.9,1978.5,1383.7z M1981.6,1366.7l-1.4-0.2c0.5-2.8,0.9-5.7,1.4-8.5l1.4,0.2
				C1982.5,1361.1,1982,1363.9,1981.6,1366.7z M1984.3,1349.7l-1.4-0.2c0.4-2.8,0.8-5.7,1.2-8.5l1.4,0.2
				C1985.1,1344,1984.7,1346.9,1984.3,1349.7z M1986.7,1332.7l-1.4-0.2c0.4-2.8,0.7-5.7,1.1-8.5l1.4,0.2
				C1987.5,1327,1987.1,1329.8,1986.7,1332.7z M1988.8,1315.6l-1.4-0.2c0.3-2.8,0.6-5.7,1-8.6l1.4,0.2
				C1989.5,1309.9,1989.2,1312.7,1988.8,1315.6z M1990.7,1298.4l-1.4-0.1c0.3-2.9,0.6-5.7,0.8-8.6l1.4,0.1
				C1991.2,1292.7,1991,1295.6,1990.7,1298.4z M1992.2,1281.3l-1.4-0.1c0.2-2.9,0.5-5.7,0.7-8.6l1.4,0.1
				C1992.7,1275.5,1992.5,1278.4,1992.2,1281.3z M1993.5,1264.1l-1.4-0.1c0.2-2.9,0.4-5.7,0.5-8.6l1.4,0.1
				C1993.8,1258.3,1993.7,1261.2,1993.5,1264.1z M1994.4,1246.9l-1.4-0.1c0.1-2.9,0.3-5.7,0.4-8.6l1.4,0.1
				C1994.7,1241.1,1994.6,1244,1994.4,1246.9z M1995.1,1229.6l-1.4,0c0.1-2.9,0.2-5.7,0.2-8.6l1.4,0
				C1995.3,1223.9,1995.2,1226.8,1995.1,1229.6z M1995.5,1212.4l-1.4,0c0-2.9,0.1-5.7,0.1-8.6l1.4,0
				C1995.6,1206.6,1995.5,1209.5,1995.5,1212.4z M1994.1,1195.2c0-2.9,0-5.7-0.1-8.6l1.4,0c0,2.9,0.1,5.7,0.1,8.6L1994.1,1195.2z
				 M1993.9,1178c-0.1-2.9-0.1-5.7-0.2-8.6l1.4,0c0.1,2.9,0.1,5.7,0.2,8.6L1993.9,1178z M1993.5,1160.9c-0.1-2.9-0.2-5.7-0.4-8.6
				l1.4-0.1c0.1,2.9,0.2,5.7,0.4,8.6L1993.5,1160.9z M1992.7,1143.7c-0.2-2.9-0.3-5.7-0.5-8.6l1.4-0.1c0.2,2.9,0.3,5.7,0.5,8.6
				L1992.7,1143.7z M1991.6,1126.6c-0.2-2.9-0.4-5.7-0.6-8.6l1.4-0.1c0.2,2.9,0.4,5.7,0.6,8.6L1991.6,1126.6z M1990.2,1109.5
				c-0.3-2.9-0.5-5.7-0.8-8.5l1.4-0.1c0.3,2.8,0.5,5.7,0.8,8.6L1990.2,1109.5z M1988.6,1092.4c-0.3-2.8-0.6-5.7-0.9-8.5l1.4-0.2
				c0.3,2.8,0.6,5.7,0.9,8.5L1988.6,1092.4z M1986.7,1075.3c-0.3-2.8-0.7-5.7-1.1-8.5l1.4-0.2c0.4,2.8,0.7,5.7,1.1,8.5
				L1986.7,1075.3z M1984.4,1058.3c-0.4-2.8-0.8-5.7-1.2-8.5l1.4-0.2c0.4,2.8,0.8,5.7,1.2,8.5L1984.4,1058.3z M1981.9,1041.3
				c-0.4-2.8-0.9-5.7-1.4-8.5l1.4-0.2c0.5,2.8,0.9,5.7,1.4,8.5L1981.9,1041.3z M1979.1,1024.4c-0.5-2.8-1-5.6-1.5-8.4l1.4-0.3
				c0.5,2.8,1,5.6,1.5,8.5L1979.1,1024.4z M1976,1007.5c-0.5-2.8-1.1-5.6-1.7-8.4l1.4-0.3c0.6,2.8,1.1,5.6,1.7,8.4L1976,1007.5z
				 M1972.6,990.7c-0.6-2.8-1.2-5.6-1.8-8.4l1.4-0.3c0.6,2.8,1.2,5.6,1.8,8.4L1972.6,990.7z M1968.9,973.9c-0.6-2.8-1.3-5.6-2-8.4
				l1.4-0.3c0.7,2.8,1.3,5.6,2,8.4L1968.9,973.9z M1964.9,957.2c-0.7-2.8-1.4-5.6-2.1-8.3l1.4-0.4c0.7,2.8,1.4,5.6,2.1,8.3
				L1964.9,957.2z M1960.6,940.6c-0.7-2.8-1.5-5.5-2.2-8.3l1.4-0.4c0.8,2.8,1.5,5.5,2.2,8.3L1960.6,940.6z M1956.1,924
				c-0.8-2.8-1.6-5.5-2.4-8.2l1.4-0.4c0.8,2.7,1.6,5.5,2.4,8.3L1956.1,924z M1951.3,907.5c-0.8-2.7-1.7-5.5-2.5-8.2l1.4-0.4
				c0.9,2.7,1.7,5.5,2.5,8.2L1951.3,907.5z M1946.1,891.2c-0.9-2.7-1.8-5.4-2.7-8.2l1.4-0.5c0.9,2.7,1.8,5.4,2.7,8.2L1946.1,891.2z
				 M1940.7,874.9c-0.9-2.7-1.9-5.4-2.8-8.1l1.4-0.5c0.9,2.7,1.9,5.4,2.8,8.1L1940.7,874.9z M1935.1,858.7c-1-2.7-2-5.4-2.9-8.1
				l1.3-0.5c1,2.7,2,5.4,3,8.1L1935.1,858.7z M1929.1,842.6c-1-2.7-2-5.3-3.1-8l1.3-0.5c1,2.7,2.1,5.3,3.1,8L1929.1,842.6z
				 M1922.9,826.6c-1.1-2.7-2.1-5.3-3.2-8l1.3-0.5c1.1,2.7,2.2,5.3,3.2,8L1922.9,826.6z M1916.4,810.7c-1.1-2.6-2.2-5.2-3.3-7.9
				l1.3-0.6c1.1,2.6,2.2,5.2,3.3,7.9L1916.4,810.7z M1909.6,795c-1.1-2.6-2.3-5.2-3.5-7.8l1.3-0.6c1.2,2.6,2.3,5.2,3.5,7.8
				L1909.6,795z M1902.6,779.4c-1.2-2.6-2.4-5.2-3.6-7.8l1.3-0.6c1.2,2.6,2.4,5.2,3.6,7.8L1902.6,779.4z M1895.3,763.9
				c-1.2-2.6-2.5-5.1-3.7-7.7l1.3-0.6c1.3,2.6,2.5,5.1,3.8,7.7L1895.3,763.9z M1887.7,748.6c-1.3-2.5-2.6-5.1-3.9-7.6l1.3-0.7
				c1.3,2.5,2.6,5.1,3.9,7.6L1887.7,748.6z M1879.9,733.4c-1.3-2.5-2.7-5-4-7.6l1.3-0.7c1.3,2.5,2.7,5,4,7.6L1879.9,733.4z
				 M1871.8,718.3c-1.4-2.5-2.8-5-4.1-7.5l1.3-0.7c1.4,2.5,2.8,5,4.1,7.5L1871.8,718.3z M1863.5,703.3c-1.4-2.5-2.8-5-4.3-7.4
				l1.2-0.7c1.4,2.5,2.9,4.9,4.3,7.4L1863.5,703.3z M1854.9,688.5c-1.5-2.5-2.9-4.9-4.4-7.3l1.2-0.7c1.5,2.4,2.9,4.9,4.4,7.4
				L1854.9,688.5z M1846.1,673.9c-1.5-2.4-3-4.9-4.5-7.3l1.2-0.8c1.5,2.4,3,4.8,4.5,7.3L1846.1,673.9z M1837,659.4
				c-1.5-2.4-3.1-4.8-4.6-7.2l1.2-0.8c1.6,2.4,3.1,4.8,4.6,7.2L1837,659.4z M1827.6,645c-1.6-2.4-3.2-4.8-4.8-7.1l1.2-0.8
				c1.6,2.4,3.2,4.7,4.8,7.1L1827.6,645z M1818,630.8c-1.6-2.4-3.2-4.7-4.9-7l1.2-0.8c1.6,2.3,3.3,4.7,4.9,7L1818,630.8z
				 M1808.2,616.8c-1.7-2.3-3.3-4.6-5-7l1.2-0.8c1.7,2.3,3.4,4.6,5,7L1808.2,616.8z M1798.1,602.9c-1.7-2.3-3.4-4.6-5.1-6.9l1.1-0.9
				c1.7,2.3,3.4,4.6,5.1,6.9L1798.1,602.9z M1787.8,589.2c-1.7-2.3-3.5-4.5-5.2-6.8l1.1-0.9c1.8,2.3,3.5,4.5,5.3,6.8L1787.8,589.2z
				 M1777.2,575.7c-1.8-2.2-3.6-4.5-5.4-6.7l1.1-0.9c1.8,2.2,3.6,4.5,5.4,6.7L1777.2,575.7z M1766.5,562.3c-1.8-2.2-3.6-4.4-5.5-6.6
				l1.1-0.9c1.8,2.2,3.7,4.4,5.5,6.6L1766.5,562.3z M1755.5,549.2c-1.9-2.2-3.7-4.3-5.6-6.5l1.1-0.9c1.9,2.2,3.7,4.3,5.6,6.5
				L1755.5,549.2z M1744.2,536.2c-1.9-2.1-3.8-4.3-5.7-6.4l1.1-1c1.9,2.1,3.8,4.3,5.7,6.4L1744.2,536.2z M1732.8,523.4
				c-1.9-2.1-3.9-4.2-5.8-6.3l1.1-1c1.9,2.1,3.9,4.2,5.8,6.3L1732.8,523.4z M1721.1,510.9c-2-2.1-3.9-4.2-5.9-6.2l1-1
				c2,2.1,4,4.1,5.9,6.2L1721.1,510.9z M1709.2,498.5c-2-2-4-4.1-6-6.1l1-1c2,2,4,4.1,6,6.1L1709.2,498.5z M1697.1,486.3
				c-2-2-4.1-4-6.1-6l1-1c2.1,2,4.1,4,6.1,6L1697.1,486.3z M1684.9,474.3c-2.1-2-4.1-3.9-6.2-5.9l1-1c2.1,2,4.2,3.9,6.2,5.9
				L1684.9,474.3z M1672.4,462.5c-2.1-1.9-4.2-3.9-6.3-5.8l1-1.1c2.1,1.9,4.2,3.9,6.3,5.8L1672.4,462.5z M1659.7,451
				c-2.1-1.9-4.3-3.8-6.4-5.7l0.9-1.1c2.2,1.9,4.3,3.8,6.4,5.7L1659.7,451z M1646.8,439.7c-2.2-1.9-4.3-3.7-6.5-5.6l0.9-1.1
				c2.2,1.9,4.4,3.7,6.5,5.6L1646.8,439.7z M1633.7,428.5c-2.2-1.8-4.4-3.7-6.6-5.5l0.9-1.1c2.2,1.8,4.4,3.6,6.6,5.5L1633.7,428.5z
				 M1620.4,417.6c-2.2-1.8-4.5-3.6-6.7-5.4l0.9-1.1c2.2,1.8,4.5,3.6,6.7,5.4L1620.4,417.6z M1606.9,407c-2.3-1.8-4.5-3.5-6.8-5.2
				l0.9-1.1c2.3,1.7,4.5,3.5,6.8,5.3L1606.9,407z M1593.3,396.5c-2.3-1.7-4.6-3.4-6.9-5.1l0.9-1.2c2.3,1.7,4.6,3.4,6.9,5.1
				L1593.3,396.5z M1579.4,386.3c-2.3-1.7-4.6-3.4-7-5l0.8-1.2c2.3,1.7,4.7,3.3,7,5L1579.4,386.3z M1565.4,376.4
				c-2.3-1.6-4.7-3.3-7.1-4.9l0.8-1.2c2.4,1.6,4.7,3.3,7.1,4.9L1565.4,376.4z M1551.3,366.6c-2.4-1.6-4.8-3.2-7.1-4.8l0.8-1.2
				c2.4,1.6,4.8,3.2,7.2,4.8L1551.3,366.6z M1536.9,357.1c-2.4-1.6-4.8-3.1-7.2-4.7l0.8-1.2c2.4,1.5,4.8,3.1,7.2,4.7L1536.9,357.1z
				 M1522.4,347.9c-2.4-1.5-4.9-3-7.3-4.5l0.8-1.2c2.4,1.5,4.9,3,7.3,4.5L1522.4,347.9z M1507.8,338.9c-2.5-1.5-4.9-2.9-7.4-4.4
				l0.7-1.2c2.5,1.5,4.9,2.9,7.4,4.4L1507.8,338.9z M1493,330.2c-2.5-1.4-5-2.9-7.5-4.3l0.7-1.2c2.5,1.4,5,2.8,7.5,4.3L1493,330.2z
				 M1478,321.7c-2.5-1.4-5-2.8-7.5-4.1l0.7-1.3c2.5,1.4,5,2.8,7.5,4.2L1478,321.7z M1462.9,313.4c-2.5-1.4-5.1-2.7-7.6-4l0.7-1.3
				c2.5,1.3,5.1,2.7,7.6,4L1462.9,313.4z M1447.6,305.5c-2.6-1.3-5.1-2.6-7.7-3.9l0.6-1.3c2.6,1.3,5.1,2.6,7.7,3.9L1447.6,305.5z
				 M1432.2,297.8c-2.6-1.3-5.2-2.5-7.7-3.8l0.6-1.3c2.6,1.2,5.2,2.5,7.8,3.8L1432.2,297.8z M1416.7,290.3c-2.6-1.2-5.2-2.4-7.8-3.6
				l0.6-1.3c2.6,1.2,5.2,2.4,7.8,3.6L1416.7,290.3z M1401.1,283.1c-2.6-1.2-5.2-2.3-7.9-3.5l0.6-1.3c2.6,1.2,5.3,2.3,7.9,3.5
				L1401.1,283.1z M1385.3,276.2c-2.6-1.1-5.3-2.2-7.9-3.4l0.6-1.3c2.7,1.1,5.3,2.2,7.9,3.4L1385.3,276.2z M607.8,272l-0.5-1.3
				c2.6-1.1,5.3-2.2,8-3.3l0.5,1.3C613.1,269.9,610.4,270.9,607.8,272z M1369.4,269.6c-2.7-1.1-5.3-2.2-8-3.2l0.5-1.3
				c2.7,1.1,5.3,2.1,8,3.2L1369.4,269.6z M623.7,265.6l-0.5-1.3c2.7-1.1,5.3-2.1,8-3.1l0.5,1.3C629,263.5,626.3,264.5,623.7,265.6z
				 M1353.4,263.2c-2.7-1-5.4-2.1-8-3.1l0.5-1.3c2.7,1,5.4,2,8.1,3.1L1353.4,263.2z M639.7,259.4l-0.5-1.3c2.7-1,5.4-2,8.1-3
				l0.5,1.3C645.1,257.4,642.4,258.4,639.7,259.4z M1337.3,257.2c-2.7-1-5.4-2-8.1-2.9l0.5-1.3c2.7,1,5.4,1.9,8.1,2.9L1337.3,257.2z
				 M655.8,253.6l-0.5-1.3c2.7-1,5.4-1.9,8.1-2.8l0.5,1.4C661.2,251.7,658.5,252.6,655.8,253.6z M1321,251.4
				c-2.7-0.9-5.4-1.9-8.2-2.8l0.5-1.4c2.7,0.9,5.5,1.9,8.2,2.8L1321,251.4z M672,247.9l-0.5-1.4c2.7-0.9,5.4-1.8,8.2-2.7l0.4,1.4
				C677.4,246.1,674.7,247,672,247.9z M1304.7,245.8c-2.7-0.9-5.5-1.8-8.2-2.7l0.4-1.4c2.7,0.9,5.5,1.8,8.2,2.7L1304.7,245.8z
				 M688.3,242.6l-0.4-1.4c2.7-0.9,5.5-1.7,8.2-2.6l0.4,1.4C693.8,240.9,691.1,241.8,688.3,242.6z M1288.3,240.6
				c-2.7-0.8-5.5-1.7-8.3-2.5l0.4-1.4c2.8,0.8,5.5,1.7,8.3,2.5L1288.3,240.6z M704.7,237.6l-0.4-1.4c2.7-0.8,5.5-1.6,8.2-2.4
				l0.4,1.4C710.2,236,707.5,236.8,704.7,237.6z M1271.8,235.7c-2.7-0.8-5.5-1.6-8.3-2.4l0.4-1.4c2.8,0.8,5.5,1.6,8.3,2.4
				L1271.8,235.7z M721.2,232.8l-0.4-1.4c2.8-0.8,5.5-1.5,8.3-2.3l0.4,1.4C726.7,231.3,724,232.1,721.2,232.8z M1255.2,231
				c-2.8-0.8-5.5-1.5-8.3-2.2l0.4-1.4c2.8,0.7,5.5,1.5,8.3,2.2L1255.2,231z M737.8,228.4l-0.4-1.4c2.8-0.7,5.5-1.4,8.3-2.1l0.3,1.4
				C743.3,226.9,740.5,227.6,737.8,228.4z M1238.6,226.6c-2.8-0.7-5.5-1.4-8.3-2.1l0.3-1.4c2.8,0.7,5.6,1.4,8.3,2.1L1238.6,226.6z
				 M754.4,224.2l-0.3-1.4c2.8-0.7,5.6-1.3,8.4-2l0.3,1.4C760,222.8,757.2,223.5,754.4,224.2z M1222,222.6c-2.8-0.7-5.6-1.3-8.4-1.9
				l0.3-1.4c2.8,0.6,5.6,1.3,8.4,1.9L1222,222.6z M771.1,220.3l-0.3-1.4c2.8-0.6,5.6-1.2,8.4-1.8l0.3,1.4
				C776.7,219,773.9,219.6,771.1,220.3z M1205.2,218.8c-2.8-0.6-5.6-1.2-8.4-1.8l0.3-1.4c2.8,0.6,5.6,1.2,8.4,1.8L1205.2,218.8z
				 M787.9,216.7l-0.3-1.4c2.8-0.6,5.6-1.1,8.4-1.7l0.3,1.4C793.5,215.5,790.7,216.1,787.9,216.7z M1188.4,215.3
				c-2.8-0.6-5.6-1.1-8.4-1.6l0.3-1.4c2.8,0.5,5.6,1.1,8.4,1.6L1188.4,215.3z M804.7,213.3l-0.3-1.4c2.8-0.5,5.6-1,8.4-1.6l0.3,1.4
				C810.3,212.3,807.5,212.8,804.7,213.3z M1171.5,212.1c-2.8-0.5-5.6-1-8.5-1.5l0.2-1.4c2.8,0.5,5.6,1,8.5,1.5L1171.5,212.1z
				 M821.6,210.3l-0.2-1.4c2.8-0.5,5.6-1,8.5-1.4l0.2,1.4C827.2,209.4,824.4,209.8,821.6,210.3z M1154.6,209.2
				c-2.8-0.5-5.6-0.9-8.5-1.3l0.2-1.4c2.8,0.4,5.7,0.9,8.5,1.4L1154.6,209.2z M838.5,207.6l-0.2-1.4c2.8-0.4,5.7-0.9,8.5-1.3
				l0.2,1.4C844.2,206.7,841.3,207.1,838.5,207.6z M1137.7,206.5c-2.8-0.4-5.7-0.8-8.5-1.2l0.2-1.4c2.8,0.4,5.7,0.8,8.5,1.2
				L1137.7,206.5z M855.5,205.1l-0.2-1.4c2.8-0.4,5.7-0.8,8.5-1.1l0.2,1.4C861.1,204.4,858.3,204.7,855.5,205.1z M1120.6,204.2
				c-2.8-0.4-5.7-0.7-8.5-1.1l0.2-1.4c2.8,0.3,5.7,0.7,8.5,1.1L1120.6,204.2z M872.5,203l-0.2-1.4c2.8-0.3,5.7-0.7,8.5-1l0.2,1.4
				C878.2,202.3,875.3,202.6,872.5,203z M1103.6,202.2c-2.8-0.3-5.7-0.6-8.5-0.9l0.1-1.4c2.9,0.3,5.7,0.6,8.5,0.9L1103.6,202.2z
				 M889.5,201.1l-0.1-1.4c2.8-0.3,5.7-0.6,8.5-0.8l0.1,1.4C895.2,200.5,892.4,200.8,889.5,201.1z M1086.5,200.4
				c-2.8-0.3-5.7-0.5-8.6-0.8l0.1-1.4c2.9,0.2,5.7,0.5,8.6,0.8L1086.5,200.4z M906.6,199.5l-0.1-1.4c2.8-0.2,5.7-0.5,8.6-0.7
				l0.1,1.4C912.3,199,909.4,199.3,906.6,199.5z M1069.4,198.9c-2.8-0.2-5.7-0.4-8.6-0.6l0.1-1.4c2.9,0.2,5.7,0.4,8.6,0.6
				L1069.4,198.9z M923.7,198.2l-0.1-1.4c2.9-0.2,5.7-0.4,8.6-0.5l0.1,1.4C929.4,197.9,926.5,198,923.7,198.2z M1052.3,197.8
				c-2.9-0.2-5.7-0.3-8.6-0.5l0.1-1.4c2.9,0.1,5.7,0.3,8.6,0.5L1052.3,197.8z M940.8,197.2l-0.1-1.4c2.9-0.1,5.7-0.3,8.6-0.4
				l0.1,1.4C946.5,197,943.6,197.1,940.8,197.2z M1035.1,196.9c-2.9-0.1-5.7-0.2-8.6-0.3l0-1.4c2.9,0.1,5.7,0.2,8.6,0.3
				L1035.1,196.9z M957.9,196.5l0-1.4c2.9-0.1,5.7-0.2,8.6-0.2l0,1.4C963.6,196.3,960.8,196.4,957.9,196.5z M1018,196.3
				c-2.9-0.1-5.7-0.1-8.6-0.2l0-1.4c2.9,0.1,5.7,0.1,8.6,0.2L1018,196.3z M975.1,196.1l0-1.4c2.9,0,5.7-0.1,8.6-0.1l0,1.4
				C980.8,196,977.9,196,975.1,196.1z M1000.8,196c-2.9,0-5.7,0-8.6,0l0-1.4c2.9,0,5.7,0,8.6,0L1000.8,196z"/>
		</g>
		<g>
			<path class="st24" d="M1852.4,1715.7l-1.2-0.7c0.7-1.2,1.5-2.5,2.2-3.7l1.2,0.7C1853.8,1713.2,1853.1,1714.5,1852.4,1715.7z"/>
		</g>
	</g>
	<g>
		<g>
			<g>
				<path class="st25" d="M2025.8,1034.6c0,0,17,28.8,24.1,33.5c9.7,6.4,3.6,12.8-1,12.8c-4.6,0-28.2,1.7-33.4-4.2
					c-5.2-5.9-7.8-23.6-12.6-28.2c-4.8-4.6-9.8-23,2.4-27.5C2016,1017.1,2025.8,1034.6,2025.8,1034.6z"/>
			</g>
		</g>
		<g>
			<g>
				<path class="st26" d="M2018.4,1022c0,0,19.4,33.7,22.8,38.7c3.3,5-6.3,5-12.3,2.6c-6-2.4-21-26.5-23.2-30.9
					c-2.6-5.3-0.5-11.3-0.5-11.3L2018.4,1022z"/>
			</g>
		</g>
		<g>
			<g>
				<polygon class="st25" points="1998.7,1040.1 2003.2,1074.6 2005.6,1074.7 2004.8,1049.9 				"/>
			</g>
		</g>
		<g>
			<g>
				<path class="st25" d="M1857.5,1034.6c0,0,17,28.8,24.1,33.5c9.7,6.4,3.6,12.8-1,12.8c-4.6,0-28.2,1.7-33.4-4.2
					c-5.2-5.9-7.8-23.6-12.6-28.2c-4.8-4.6-10-23.5,2.4-27.5C1847.8,1017.5,1857.5,1034.6,1857.5,1034.6z"/>
			</g>
		</g>
		<g>
			<g>
				<path class="st27" d="M1851.1,1022c0,0,18.4,33.6,21.8,38.6c3.3,5-6.3,5-12.3,2.6c-6-2.4-21-26.5-23.2-30.9
					c-2.6-5.3-0.5-11.3-0.5-11.3L1851.1,1022z"/>
			</g>
		</g>
		<g>
			<g>
				<polygon class="st25" points="1830.4,1040.1 1834.9,1074.6 1837.3,1074.7 1836.5,1049.9 				"/>
			</g>
		</g>
		<g>
			<g>
				<path class="st26" d="M1782.2,772.8l153.6,70c0,0,17.1,5.6,19.1,24.6c6,59.4,50.4,153.7,50.4,153.7c14.3,7,13.2,0.9,13.2,0.9
					c-9-28.8-19.9-147.7-23.8-195.5c-0.8-10.1-1.3-17.1-1.4-19.3c-0.1-1.5-1.7-3.5-4.6-5.8c-21.1-17.1-107.8-52.5-107.8-52.5
					C1815.7,747.3,1782.2,772.8,1782.2,772.8z"/>
			</g>
		</g>
		<g>
			<g>
				<path class="st27" d="M1753.2,802.8c4.8,41.5,64,36.8,64,36.8h71.8c0,0-18.9,42-26.1,77.4c-7.7,37.6-26,104.1-26,104.1
					s1.2,2.3,14.2,1c0,0,56.4-112.4,78-140.6c4.6-6.1,17.9-39.1,20.2-58.8c0.8-6.6,0.3-11.7-2.2-13.8c-2.5-2.1-8.2-6-15.9-10.8
					c-22.5-14.2-61.6-36-83.3-40.9c-29.2-6.6-75.3-18.8-75.3-18.8S1748.5,761.3,1753.2,802.8z"/>
			</g>
		</g>
		<path class="st28" d="M1802.1,483.1c0,0-10.8-20.4-5.5-42.1c5.2-21.7,25.4-43.4,54.9-33.4c29.5,9.9,53.4,32.9,35.7,59.4
			c-17.7,26.5,16,38.5,7.4,51.1c-8.6,12.6-5.3,25.8-1.7,28.7c3.6,2.9,15.4,13.4,14.1,25.8c-1.3,12.4-57.3-36.1-57.3-36.1
			S1819.2,475.2,1802.1,483.1z"/>
		<path class="st29" d="M1892.1,743.9c0,0-4.4,21.6-119.2-5.7C1772.9,738.3,1811.4,725.5,1892.1,743.9z"/>
		<g>
			<path class="st30" d="M1771.6,744.3c-1.8,3.4-3.6,6.8-5.3,10.2c41.9,1.2,83.9,2.4,125.8,3.7c-6.6-22.2-4.5-52.3-3.3-75.1
				c1.4-27.9,16.8-47.3,15.2-75.5c8.3,1.3,9.7,1.6,18,2.9c-12.7-36.2-17.1-54.1-56.5-68.1c-12.9-4.5-21.3-5.4-35.2-4.3
				c-45.7,3.8-59.5,4.3-81.9,45.7c35.1,5.6,29.4,18.2,40,53.2c5.2,17,10.6,36.1,7.8,54.1C1793.4,708.8,1771.6,728.2,1771.6,744.3z"
				/>
		</g>
		<g>
			<path class="st13" d="M1844.6,551.2c-18.7-3.5-14.7-13.9-14.7-13.9s0.9-5.9,1.2-13.3c0.1-1.9,0.1-3.9,0.1-5.9
				c0-3.1-0.2-6.2-0.5-9.2c-1.5-12.6,34-5.1,34-5.1s-2,25.4,2.8,33C1872.4,544.4,1863.3,554.7,1844.6,551.2z"/>
		</g>
		<g>
			<path class="st13" d="M1808.9,537.1c0,0,37.7,43.6,51.7,53.7c0,0,16-14.5,6.1-52.7C1866.7,538.1,1848.5,529,1808.9,537.1z"/>
		</g>
		<path class="st13" d="M1809.9,432.3c0,0-19.6,37.8-0.2,73.5c19.4,35.8,57.6-15.6,60.1-21.6c2.5-6,15.6-40.1-10.5-50.4
			C1833.3,423.4,1815.5,422,1809.9,432.3z"/>
		<path class="st28" d="M1816.4,445.7c0,0-13.5,17.7-15.1,30.8c0,0-5.4-24.8,9.8-48.5c15.2-23.8,53.8-1.1,59,8.4
			c5.2,9.5,20.3,17.9-5.1,58.7C1865,495,1819.2,463.2,1816.4,445.7z"/>
		<path class="st15" d="M1847.8,509.6c0,0-3.4,7.4-16.7,14.3c0.1-1.9,0.1-3.9,0.1-5.9C1831.2,518,1840.2,516.9,1847.8,509.6z"/>
		<path class="st13" d="M1649.7,710.3c0,0-9.3,4.1-13.7,2.3c-4.4-1.9-11.2-2.2-13.4-2.2c-2.9,0-11.9-3.2-11.7,0.3
			c0.2,3.5,14.6,6,17.6,7.1c3,1.1-8.9,7.6-10,10.5c-1.1,2.9,12.3,21.9,19.8,16.5c7.5-5.4,11.6-16.2,13.2-16.9
			c1.5-0.7,5.7-3.7,5.7-3.7L1649.7,710.3z"/>
		<path class="st13" d="M1619.9,726.6c0,0-21.8,18.1-22.2,20.6c-0.3,2.4,0.8,3.6,2.9,2c2.1-1.6,21.7-16.9,21.7-16.9
			s-21.9,25.9-22.6,27.8c-0.4,1.1,1.7,3.5,2.9,2.7c1.2-0.8,24.5-25.1,24.5-25.1s-20.4,24.2-20.5,26c-0.1,1.6,2.4,3.3,4,1.6
			c1.6-1.7,21.9-23,21.9-23s-13.6,18.6-12.8,20.2c0.5,1,2.2,3.1,5.6-1.8c3.4-4.9,12.6-15.6,12.6-15.6L1619.9,726.6z"/>
		<g>
			<path class="st25" d="M1881.6,839.6h-64.3c0,0-59.3,4.8-64-36.8c-4.8-41.5,19.5-64.6,19.5-64.6s31.3,8.3,58.6,14.9
				c13.7-2.9,30.2-4.8,49.4-4.3c0,0,115.9,38.3,112.4,58.4C1993.1,807.3,1944.7,781.4,1881.6,839.6z"/>
		</g>
		<polygon class="st31" points="1839.7,767.7 1962.3,765.9 1900.4,797.4 		"/>
		<path class="st30" d="M1877.8,752c0,0-27.6,10.7-61.4,1l-1.6-12.6l69.6,3.9L1877.8,752z"/>
		<polygon class="st32" points="1900.4,797.4 1839.7,773.8 1839.7,767.7 1905.2,791.4 		"/>
		<g>
			<path class="st33" d="M1877.4,757.9c-0.3,4.5,4.3,7.8,8.4,6l7.1-3c2.1-0.9,3.4-3.2,3-5.5c-3-18.5-9.3-90.8,0-103.2
				c3.4-4.6,5.6-8.6,6.8-12.1c6.1,15.8,13.8,36.2,16.8,47.2l57.9,77.1l19.4,4.9c-24.2-58.4-43.7-89.4-43.7-89.4
				c-3.8-10.2-14.7-41-24.3-68.5c-6.1-17.3-11.7-33.3-14.7-41.9c-1.5-4.4-4.5-8-8.5-10.4c-9-5.4-23.9-13.8-37.5-20.4
				c-0.1,0-0.1-0.1-0.2-0.1c-0.4-0.2-0.9-0.4-1.3-0.6c0,0,0,0,0,0c0,0,0,0,0,0c25.8,39,15.7,149.2,10.6,219.6
				C1877.4,757.8,1877.4,757.8,1877.4,757.9z"/>
			<path class="st33" d="M1781.6,541.4c-8.3,1.3-28.7,21.2-39.6,41.2c-12.4,22.9-25,49-34.5,57.6c-17.4,15.8-66.2,71.5-68.5,70.2
				c-0.9-0.5,13.4,16.7,15.2,17.5c0.9,0.4,80.1-68.2,87.7-78.7c7.2-9.9,26.5-51.5,32.3-50.6c0,0,0,0,0,0c0,0,0,0,0,0
				c0.4,0.9,7.5,16.2,14.1,38.4c0.1,0.4,0.2,0.7,0.3,1.1c4.6,15.5,4.2,32.3,1.7,51.3c-1.9,14.3-12.5,37.6-19,49
				c-0.8,1.4-0.6,4,0.3,5.9c0,0,0,0,0,0c0.5,1.2,1.2,2.1,2.1,2.5l23.3,8.6l5.5,2c3.9,1.5,8.1,0.7,11.1-1.5c2.5-1.8,4.4-4.7,4.8-8.1
				c5.2-39.8,11.7-80.4,16.9-95.7c22.9-67.2-8.9-117.6-8.9-117.6S1788.9,538.7,1781.6,541.4z"/>
		</g>
		<polygon class="st34" points="1900.4,797.4 1936.9,697.8 2054.5,699.7 2019.7,791.5 		"/>
		<path class="st35" d="M1974.5,741.8c-3.6,7.2-2.5,15,2.4,17.5c4.9,2.5,11.8-1.4,15.4-8.5c3.6-7.2,2.5-15-2.4-17.5
			C1985,730.8,1978.1,734.6,1974.5,741.8z"/>
		<path class="st28" d="M1850.5,469.9c0,0,7.5,11.7,0.6,21.8c-7,10.1,1.8,20.1,3.3,30.7c1.5,10.7-29.1,39.1,4.9,53.5
			c34,14.3,44.8-9.3,36.1-22.4c-8.7-13-14.8-23.6-15.6-42.2C1879.2,492.8,1873.1,463.9,1850.5,469.9z"/>
	</g>
	<g>
		<g>
			<g>
				<g>
					<polygon class="st36" points="1729.1,1846.2 1923.6,1737.4 1856.8,1733 					"/>
				</g>
			</g>
		</g>
		<g>
			<g>
				<g>
					<polygon class="st12" points="1729.1,1846.2 1789,1749.9 1839.2,1748.6 					"/>
				</g>
			</g>
		</g>
		<g>
			<g>
				<g>
					<polygon class="st37" points="1878.9,1762.4 1882.8,1786.9 1729.1,1846.2 					"/>
				</g>
			</g>
		</g>
	</g>
	<g>
		<g>
			<g>
				
					<linearGradient id="SVGID_00000176731111331857902280000007891173748672163485_" gradientUnits="userSpaceOnUse" x1="748.9936" y1="18.2499" x2="779.6899" y2="112.8346">
					<stop  offset="0" style="stop-color:#40D5E6"/>
					<stop  offset="1" style="stop-color:#5577FF"/>
				</linearGradient>
				<path style="fill:url(#SVGID_00000176731111331857902280000007891173748672163485_);" d="M745.8,123.8l-69.2-60.4
					c-5.7-5-6.3-13.6-1.3-19.2c5-5.7,13.6-6.3,19.2-1.3l49,42.7l69.8-77.9c5-5.6,13.7-6.1,19.3-1.1c5.6,5,6.1,13.7,1.1,19.3
					L745.8,123.8z"/>
			</g>
		</g>
	</g>
	<g>
		<g>
			
				<linearGradient id="SVGID_00000155850588369250413320000012218859726905187995_" gradientUnits="userSpaceOnUse" x1="1606.5354" y1="46.9851" x2="1664.4105" y2="225.3162">
				<stop  offset="0" style="stop-color:#40D5E6"/>
				<stop  offset="1" style="stop-color:#5577FF"/>
			</linearGradient>
			<path style="fill:url(#SVGID_00000155850588369250413320000012218859726905187995_);" d="M1635.5,234.1
				c-6.8,0-12.4-5.5-12.4-12.4V50.6c0-6.8,5.5-12.4,12.4-12.4c6.8,0,12.4,5.5,12.4,12.4v171.1
				C1647.8,228.5,1642.3,234.1,1635.5,234.1z"/>
		</g>
		<g>
			
				<linearGradient id="SVGID_00000112612914557328400580000007085974174726670265_" gradientUnits="userSpaceOnUse" x1="1623.5017" y1="99.2634" x2="1647.4446" y2="173.0388">
				<stop  offset="0" style="stop-color:#40D5E6"/>
				<stop  offset="1" style="stop-color:#5577FF"/>
			</linearGradient>
			<path style="fill:url(#SVGID_00000112612914557328400580000007085974174726670265_);" d="M1721,148.5h-171.1
				c-6.8,0-12.4-5.5-12.4-12.4c0-6.8,5.5-12.4,12.4-12.4H1721c6.8,0,12.4,5.5,12.4,12.4C1733.4,143,1727.9,148.5,1721,148.5z"/>
		</g>
	</g>
	<g>
		<g>
			<rect x="355" y="2064.4" class="st41" width="141.3" height="8.4"/>
		</g>
		<g>
			
				<rect x="373.9" y="2094.6" transform="matrix(-1 -1.224647e-16 1.224647e-16 -1 760.2394 4570.5005)" class="st42" width="12.4" height="381.4"/>
		</g>
		<g>
			<rect x="474.2" y="2062" class="st43" width="98.2" height="12"/>
		</g>
		<g>
			<rect x="504.7" y="1959.8" class="st44" width="37.2" height="112.9"/>
		</g>
		<g>
			<rect x="304.3" y="2072.9" class="st45" width="544.1" height="21.7"/>
		</g>
		<g>
			<path class="st46" d="M199.9,1941.6c0,0-6,83.4,10.4,93.4c10.2,6.3,50.9,27.4,49.7,31.3c-1.2,4-23,35.2-23,35.2
				s-78.2-51.5-80.7-67.7c-2.5-15.9,3.9-122.2,14.6-127.1c8.1-3.7,12.3-0.6,22.5,6.9C207.5,1924.2,199.9,1941.6,199.9,1941.6z"/>
		</g>
		<g>
			<g>
				<g>
					<path class="st47" d="M342.5,1965.5l6.9-2.6c0,0-8.6-20.2-12.4-19.7c-4.3,0.6-9.7,2-9.7,2L342.5,1965.5z"/>
				</g>
			</g>
		</g>
		<g>
			<g>
				<g>
					<path class="st48" d="M344,1968.9c-0.9-0.7-14.7-27.1-14.7-27.1l-29.4,4l15.9,31.3L344,1968.9z"/>
				</g>
			</g>
		</g>
		<g>
			<g>
				<g>
					<path class="st49" d="M296.1,2423.9c0,0-2.4,16.9-2.7,19.4c-0.3,2.5-27.1-1.5-27.1-1.5l-2.2-20.1
						C264.2,2421.7,292.8,2421.5,296.1,2423.9z"/>
				</g>
			</g>
		</g>
		<g>
			<g>
				<g>
					<path class="st50" d="M293.7,2441.1c0,0,8.5,10.2,16.7,14.6c8.2,4.4,21.1,6.2,25.9,10.8c3.5,3.3,12.7,17.6-21.3,17.3
						c-34.1-0.3-50.5,2-54.1-3.5c-3.6-5.5,5.3-40.4,5.3-40.4S274.2,2442.9,293.7,2441.1z"/>
				</g>
			</g>
		</g>
		<g>
			<g>
				<g>
					<path class="st49" d="M467.6,2424c0,0-2.4,16.9-2.7,19.4c-0.3,2.5-27.1-1.5-27.1-1.5l-2.2-20.1
						C435.6,2421.9,464.2,2421.6,467.6,2424z"/>
				</g>
			</g>
		</g>
		<g>
			<g>
				<g>
					<path class="st50" d="M465.1,2441.3c0,0,8.5,10.2,16.7,14.6c8.2,4.4,38.4,8.1,43.2,12.7c3.5,3.3,9.3,16.7-38.6,15.4
						c-34-0.9-50.5,2-54.1-3.5c-3.6-5.5,5.3-40.4,5.3-40.4S445.2,2443.3,465.1,2441.3z"/>
				</g>
			</g>
		</g>
		<g>
			<g>
				<g>
					<path class="st50" d="M209.8,2132.2c0,0,97.3,16.5,119.2,19.9c22,3.5,141.1,33.1,156,42.1c11.9,7.2-6.2,179.9-10.4,245.8h-46.9
						l-3.4-197.6c-56.3,1.4-96.5-13.2-137.5-6.9c-41,6.2-75.2,15.1-101.2-19.9C185.6,2215.6,184.6,2139.8,209.8,2132.2z"/>
				</g>
			</g>
		</g>
		<g>
			<g>
				<g>
					<path class="st50" d="M305.7,2440.2l-45.7-2.8l-4.5-195c-24.2,0.6-32.5-0.9-52.2-3.3l-36.9-85.8c32.4,6.5,136,32.6,149.8,41
						C328.2,2201.4,310,2374.3,305.7,2440.2z"/>
				</g>
			</g>
		</g>
		<g>
			<g>
				<g>
					<path class="st13" d="M254.6,1767.6c0,0,35.7-9.9,49.3,17.8c13.6,27.7,7.4,80.2-10.5,85.1c-18,4.9-43.8-0.7-51.3-18
						c-7.5-17.2-13.4-41.7-11.6-57.6C232.2,1779.1,245.2,1771.4,254.6,1767.6z"/>
				</g>
			</g>
		</g>
		<g>
			<g>
				<g>
					<path class="st13" d="M284,1865c0,0-0.4,21.1,1.9,25.5c2.3,4.5-49.7,3.4-49.7,3.4s8.2-25.3,3.5-46.8
						C235.3,1825.7,284,1865,284,1865z"/>
				</g>
			</g>
		</g>
		<g>
			<g>
				<g>
					<path class="st14" d="M237.1,1839.1c0,0,2.8,5.6,16.2,4.7c13.5-0.9,31.2-17.1,36.9-18.6c5.7-1.5,6.1-4.7,6.1-4.7l3,5.4l5.9,0.9
						c0,0-4-16.3,4.7-22c8.7-5.7-3.9-51.9-47.8-40.7c0,0-33.5,6.1-33.9,24.8C227.7,1807.6,230.6,1829.2,237.1,1839.1z"/>
				</g>
			</g>
		</g>
		<g>
			<g>
				<g>
					<path class="st41" d="M288.7,1890c0,0-0.1-8.6-4-9.4c-3.9-0.8-40.9-5.9-45.6-4l-2,11.3C237,1887.9,246.2,1893.5,288.7,1890z"/>
				</g>
			</g>
		</g>
		<g>
			<g>
				<g>
					<path class="st13" d="M299.4,1816.7c-1-7-9-15.1-13.6-4.2c-4.6,10.9,3.1,26.9,8.2,26C299.2,1837.7,300.8,1826.2,299.4,1816.7z"
						/>
				</g>
			</g>
		</g>
		<g>
			<g>
				<g>
					<path class="st46" d="M443.5,1991.3C443.5,1991.3,443.5,1991.3,443.5,1991.3C443.8,1991.4,443.8,1991.4,443.5,1991.3z"/>
				</g>
			</g>
		</g>
		<g>
			<g>
				<g>
					<path class="st14" d="M244.2,1772.6c0,0-43.5-2-7.6,65.8L244.2,1772.6z"/>
				</g>
			</g>
		</g>
		<g>
			<g>
				<polygon class="st51" points="147.4,2463.3 150.6,2472.4 287.2,2430 280.7,2411.6 				"/>
			</g>
		</g>
		<g>
			<g>
				<rect x="276.4" y="2275" class="st51" width="15.5" height="148.6"/>
			</g>
		</g>
		<g>
			<g>
				<rect x="238.4" y="2267.1" class="st52" width="91.6" height="8.8"/>
			</g>
		</g>
		<g>
			<g>
				<polygon class="st51" points="422.2,2463.3 418.9,2472.4 282.3,2430 288.3,2410.5 				"/>
			</g>
		</g>
		<g>
			<g>
				<polygon class="st51" points="325.9,2471.4 325.9,2482 282.3,2430 288.3,2410.5 				"/>
			</g>
		</g>
		<g>
			<g>
				<circle class="st53" cx="422.2" cy="2475.9" r="12.8"/>
			</g>
		</g>
		<g>
			<g>
				<path class="st53" d="M327,2475.9c0,7.1-5.7,12.8-12.8,12.8c-7.1,0-12.8-5.7-12.8-12.8c0-7.1,5.7-12.8,12.8-12.8
					C321.3,2463.2,327,2468.9,327,2475.9z"/>
			</g>
		</g>
		<g>
			<g>
				<circle class="st53" cx="147.4" cy="2475.9" r="12.8"/>
			</g>
		</g>
		<g>
			<path class="st41" d="M381.9,2267.1H187.7c-6.3,0-11.4-5.1-11.4-11.4v-10.3c0-6.3,5.1-11.4,11.4-11.4h194.2
				c6.3,0,11.4,5.1,11.4,11.4v10.3C393.3,2262,388.2,2267.1,381.9,2267.1z"/>
		</g>
		<g>
			<rect x="766.4" y="2094.6" class="st42" width="12.4" height="381.4"/>
		</g>
		<g>
			<path class="st54" d="M672.4,2014.2H374.1c-6.3,0-11.4-5.1-11.4-11.4v-203.7c0-6.3,5.1-11.4,11.4-11.4h298.3
				c6.3,0,11.4,5.1,11.4,11.4v203.7C683.8,2009.1,678.7,2014.2,672.4,2014.2z"/>
		</g>
		<g>
			<rect x="375.3" y="1799.9" class="st55" width="295.9" height="178.8"/>
		</g>
		<g>
			<rect x="375.3" y="1799.9" class="st56" width="295.9" height="14.2"/>
		</g>
		<g>
			<path class="st56" d="M653.2,1967.7h-21.6c-3.9,0-7.1-3.2-7.1-7.1v-128.7c0-3.9,3.2-7.1,7.1-7.1h21.6c3.9,0,7.1,3.2,7.1,7.1
				v128.7C660.3,1964.5,657.1,1967.7,653.2,1967.7z"/>
		</g>
		<g>
			<path class="st56" d="M444.9,1838.1h-57.5c-2.1,0-3.8-1.7-3.8-3.8v-5.6c0-2.1,1.7-3.8,3.8-3.8h57.5c2.1,0,3.8,1.7,3.8,3.8v5.6
				C448.7,1836.4,447,1838.1,444.9,1838.1z"/>
		</g>
		<g>
			<path class="st56" d="M440.9,1971.3h-49.4c-4.3,0-7.9-3.5-7.9-7.9v-108.6c0-4.3,3.5-7.9,7.9-7.9h49.4c4.3,0,7.9,3.5,7.9,7.9
				v108.6C448.7,1967.8,445.2,1971.3,440.9,1971.3z"/>
		</g>
		<g>
			<path class="st57" d="M589.7,2073.2v-4c0,0-5.7-25.1-45.8-25.1c-40.1,0-39.3,29.1-39.3,29.1H589.7z"/>
		</g>
		<g>
			<g>
				<path class="st13" d="M504.2,2047.8c0,0,8.7-0.7,11.9-2.6c3.2-1.9,22.3-14.8,26.8-12.7c4.5,2.1,34.3,11.2,33.3,15.6
					c-1,4.4-3.8,3.9-5.9,3.2c-2.1-0.8-23.8-5.3-25.7-4.6c0,0,21.3,7.8,21.4,13.4c0.1,5.7-4.5,7-6.5,9.2c-2,2.1-4.4,7.5-9.9,7.9
					c-5.5,0.4-32.2-8.9-37.8-9.3c-5.5-0.4-15.7,0.3-16.4-0.6C494.7,2066.4,504.2,2047.8,504.2,2047.8z"/>
			</g>
		</g>
		<g>
			<g>
				<g>
					<path class="st46" d="M345.7,1901.9c-27.8-4.9-57-11.9-57-11.9l-51.7-2.1c0,0-47.5,10.4-66.1,18.9c-1.8,0.8-1.8,42.3-6.6,53.2
						l15.5,32.7c0,0,9,64.8,10.8,93.6c0.9,13.2-2.4,127.8-2.4,127.8s4.6,2.3,39.9,6.2c35.3,3.9,123.5-1.4,124-5.6
						c0.6-4.2-17.1-155.2-17.9-163c-1.2-12,3.5-67.5,3.5-67.5c6.6,8.9,23.6,49.3,41.3,68.5c10.4,11.3,61.9,18.2,71.6,18.5
						c21.1,0.7,59.6,4.9,60.8,2.9c0.9-1.2,3.4-34.2,0.9-35c-2.1-0.7-73.6-4.8-92-14.5c-6.7-3.6-26.7-47.3-26.7-47.3
						S361,1908.7,345.7,1901.9z"/>
				</g>
			</g>
		</g>
		<g>
			<path class="st41" d="M253.3,2210.7H147.5c-12.1,0-21.9-9.8-21.9-21.9v-163.4c0-12.1,9.8-21.9,21.9-21.9h105.8
				c12.1,0,21.9,9.8,21.9,21.9v163.4C275.2,2200.9,265.4,2210.7,253.3,2210.7z"/>
		</g>
		<g>
			<path class="st41" d="M248.7,2258.8c-22.1,0-40-7.4-53.2-22c-29.9-33-24.5-91.1-24.3-93.6c0.5-4.6,4.5-7.9,9.1-7.5
				c4.6,0.5,7.9,4.5,7.5,9.1c-0.1,0.7-4.8,53.3,20.1,80.8c10.1,11.1,23.4,16.5,40.8,16.5c4.6,0,8.3,3.7,8.3,8.3
				C257,2255.1,253.3,2258.8,248.7,2258.8z"/>
		</g>
		<g>
			<path class="st58" d="M519,1873c0,10.2,3.7,19.6,9.8,26.9c1.4,1.7,3,3.3,4.7,4.7c0.5,0.4,1,0.8,1.5,1.2c0.6,0.4,1.1,0.9,1.7,1.3
				c5.5,3.9,12,6.5,19,7.4c1.2,0.2,2.5,0.3,3.8,0.3c0.5,0,0.9,0,1.4,0c1.4,0,2.7-0.1,4-0.2c1.5-0.1,2.9-0.4,4.3-0.6
				c6.3-1.3,12.1-4,17.1-7.8c1.5-1.1,2.9-2.4,4.2-3.7c0.3-0.3,0.5-0.5,0.8-0.8c0.9-1,1.8-2,2.7-3.1c5.5-7.1,8.7-15.9,8.7-25.6
				c0-23.1-18.7-41.8-41.8-41.8C537.7,1831.2,519,1849.9,519,1873z"/>
			<g>
				<g>
					<path class="st59" d="M533.5,1896.1l3.1,11.1c5.5,3.9,12,6.5,19,7.4c1.2,0.2,2.5,0.3,3.8,0.3c0.5,0,0.9,0,1.4,0
						c1.4,0,2.7-0.1,4-0.2c1.5-0.1,2.9-0.4,4.3-0.6c6.3-1.3,12.1-4,17.1-7.8c0.6-3.7,1.2-7.7,1.8-11.5c-3.1-1.1-12.9-4.5-19-6.6
						c-0.1,0-0.2-0.1-0.3-0.1c-0.1,0-0.3-0.1-0.4-0.1c-0.4-0.1-0.7-0.2-1-0.4c-0.3-0.1-0.7-0.2-1-0.3c-1.3-0.4-2.2-0.7-2.5-0.8
						c0,0,0,0,0,0c-0.1,0-0.1,0-0.1,0l-0.1,0l-8.3,0.6l-1.4,0.1l-0.4,0c0,0-0.1,0-0.2,0c-0.5,0.1-2,0.5-3.9,1.1c0,0,0,0,0,0
						C544.5,1889.8,536.5,1892.6,533.5,1896.1z"/>
				</g>
				<g>
					<path class="st60" d="M558.6,1852.2c0,0-10,1.7-8.3,17.3c1.7,15.6,10.5,14.2,11.1,14.2c0.6,0,8.8,0.2,9.3-18.9
						C570.7,1864.8,570.8,1850.7,558.6,1852.2z"/>
				</g>
				<g>
					<path class="st60" d="M554.2,1879.2c0,0,0.3,6.4-0.3,7.8c-0.6,1.4,8,5.8,13.3,0.8c0,0-1.1-7-0.7-9.5
						C566.9,1875.8,554.2,1879.2,554.2,1879.2z"/>
				</g>
				<g>
					<path class="st60" d="M550.1,1865.1c0,0-1.1-1.2-1.5,0c-0.4,1.2,1.8,6.4,1.6,6.7c0,0,0.2,0.5,0.5,0.2
						C551,1871.8,550.1,1865.1,550.1,1865.1z"/>
				</g>
				<g>
					<path class="st60" d="M570.5,1864.7c0,0,1.1-1.2,1.5,0c0.4,1.2-1.2,6.4-1.4,6.7c0,0-0.3,0.5-0.6,0.3
						C569.8,1871.4,570.5,1864.7,570.5,1864.7z"/>
				</g>
				<g>
					<path class="st61" d="M549.5,1863.8c0.3,2.1,0.7,3.7,0.7,3.7l1.4,1.9c0,0-0.1-4.2,0.1-4.8c0.1-0.3,0.2-0.7,0.3-1.2
						c0.2-0.8,0.3-1.7,0.5-2c0.2-0.5,8.5-2.9,16,0.5c0,0-0.1,0.6-0.1,1.4c0,0.8,0.1,1.8,0.5,1.9c0.7,0.3,0.4,4.9,0.4,4.9l1.2-1.3
						c0,0,0.3-2.4,0.7-5.2c0,0,0,0,0,0c0.1-0.6,0.2-1.3,0.2-2c0.2-2.8-0.1-7.9-3.8-10.9c-2.5-1.1-6.4-1.9-12.9,0.1
						c0,0-1.5,0.1-1.9,0.5C548.6,1855.7,549.5,1863.8,549.5,1863.8z"/>
				</g>
				<path class="st62" d="M565.9,1881.6c0,0-1.6,2.2-5.3,2.1c-3.7-0.1-5.3-2-5.3-2s1.7,3.7,5.3,3.6
					C564.2,1885.3,565.9,1881.6,565.9,1881.6z"/>
				<path class="st60" d="M568.3,1887.9c0,0-2.7,4.6-7.7,5.1c-3.2,0.3-6-3.8-7.3-5.8C553.3,1887.2,560.5,1884.1,568.3,1887.9z"/>
				<path class="st33" d="M554.2,1885.7c0,0,2,2.7,6.4,5.5l-2.7,4.2l-4.6-8.2L554.2,1885.7z"/>
				<path class="st33" d="M567.1,1886.3c0,0-2.6,3.2-6.5,4.9l3,4.3l5.2-7.5L567.1,1886.3z"/>
				<path class="st63" d="M560.6,1891.2l-2.3,3.5c0,0,2.4,1.4,4.7-0.1L560.6,1891.2z"/>
				<path class="st46" d="M530.9,1895.4c0,0,0,0.1,0.1,0.2c0.3,0.9,1.2,4.4,2.5,9c0.5,0.4,1,0.8,1.5,1.2c0.6,0.4,1.1,0.9,1.7,1.3
					c5.5,3.9,12,6.5,19,7.4c-0.6-14.5-2.3-27.3-2.3-27.3c-1.4,0.4-2.6,0.7-3.9,1.1c0,0,0,0,0,0c-10.6,3-16,5.7-17.8,6.7c0,0,0,0,0,0
					C531.1,1895.3,530.9,1895.4,530.9,1895.4z"/>
				<path class="st46" d="M569.1,1914c6.3-1.3,12.1-4,17.1-7.8c1.5-1.1,2.9-2.4,4.2-3.7c0.3-0.3,0.5-0.5,0.8-0.8
					c0.7-3.1,1.2-5.1,1.2-5.3l0,0c0,0-5.2-3.4-23.5-8.3v0C569,1888.5,569,1900.3,569.1,1914z"/>
				<path class="st63" d="M559.3,1895.1c0.2,3.8,0.2,11.2,0.1,19.6c0.5,0,0.9,0,1.4,0c1.4,0,2.7-0.1,4-0.2
					c-0.8-10.4-2.2-16.9-2.8-19.5c-0.2-0.8-0.3-1.3-0.3-1.3l-2.5,0.4C559.2,1894.5,559.2,1894.8,559.3,1895.1z"/>
				<g>
					<path class="st46" d="M528.8,1899.9c1.4,1.7,3,3.3,4.7,4.7c0.5,0.4,1,0.8,1.5,1.2l-3.3-10.9l0,0c0,0,0,0,0,0
						c-0.2,0.1-0.4,0.3-0.6,0.6C530.3,1896.5,529.5,1898,528.8,1899.9z"/>
				</g>
				<g>
					<path class="st46" d="M590.4,1902.5c0.3-0.3,0.5-0.5,0.8-0.8c0.9-1,1.8-2,2.7-3.1c-0.5-1.1-0.9-1.9-1.4-2.2l0,0L590.4,1902.5z"
						/>
				</g>
			</g>
		</g>
	</g>
	<g>
		<path class="st64" d="M1942.8,2518.1c0,0-6.4,5.6-12.2,14.3c-5.8,8.7-21.1,9.1-21.8,21c-0.7,11.8,20.9,12.2,32.2,8.3
			c11.3-3.9,13-15.4,19.8-18.3c6.8-2.9,10.4-5.2,9.9-10.9c-0.5-5.6-4.3-14.8-4.3-14.8s-4.2,1.4-6.7,1.6
			C1957.1,2519.6,1948.7,2519.7,1942.8,2518.1z"/>
		<path class="st65" d="M2020.2,2197.3c0,0-4.3,25.8-7.8,42.8v0c-1.4,6.9-2.7,12.4-3.5,14.1c-1,2.2-9.1,10.9-19.1,21.1
			c-17.5,18-40.5,40.6-40.5,40.6l-9-17.1c0,0,20.5-24,34.4-40c6.4-7.4,11.4-13.1,12.4-13.9c2.9-2.6,6.3-28.2,11-49.3
			c4.7-21.1,14.2-32.7,14.2-32.7L2020.2,2197.3z"/>
		<path class="st13" d="M1989.9,2275.3c-17.5,18-40.5,40.6-40.5,40.6l-9-17.1c0,0,20.5-24,34.4-40
			C1979,2260.9,1986.8,2265.8,1989.9,2275.3z"/>
		<g>
			<path class="st64" d="M2101.8,2511c0,0,5.9,6.6,9.4,10.5c3.5,4,16.9,11.1,17,22.9c0.1,12.8-9.9,11.7-18.8,11.2
				c-8.9-0.5-16.1-6.6-19.8-13.9c-3.7-7.2-13.7-9.2-14.4-15c-0.7-5.8,4.6-16.4,4.6-16.4L2101.8,2511z"/>
		</g>
		<path class="st30" d="M2081,2499.5l-1.1,10.9c0,0,18.5,8.1,22,0.6l-0.8-9.7L2081,2499.5z"/>
		<path class="st30" d="M1943.8,2510.2l-1,7.9c0,0,11.2,4,23.5-0.4l0.3-7L1943.8,2510.2z"/>
		<path class="st65" d="M2102.9,2312.4c0.6,2.3-118.7,0-118.7,0s33-24,35.1-30.4c2.1-6.4-8.4-44.9-9.8-57.5
			c-1.1-10-3.9-54.9,2.8-61.7c6.9-7.2,31.8-14.7,31.8-14.7l36.3,1.3c0,0,6,1.3,10.3,3.2c4.3,2,28.7,10.7,32.7,22.9
			s-24.4,51.5-24.4,51.5s-0.1,1.8-0.1,4.7v0c-0.1,3.9-0.3,9.7-0.4,16.1c-0.2,8.2-0.4,17.3-0.4,23.9
			C2098,2287.5,2102.2,2310.2,2102.9,2312.4z"/>
		<path class="st46" d="M2102.9,2312.4c0,0,16.2,23.8,16.5,40.1c0.2,16.3-6,61.4-6.5,70.3c-0.5,8.9-8.9,83.4-8.9,83.4s-6.5,6-26-1.5
			c0,0-4.3-70.7-4.8-78.2c-0.5-7.6-0.5-42.4-4.8-47.4c-4.4-5-30.7-20.9-34.2-23.8c-3.4-3-63.3,11.3-69.6,12.9
			c-16.3,4.2-8.8,32.5-5.2,45.2c6,21.2,11.3,97.8,11.3,97.8s-11.6,4.9-31,0.8c0,0-38.1-138.3-39.3-152.1c-1.2-13.8-1.8-36.4,92-53.7
			L2102.9,2312.4z"/>
		<path class="st13" d="M2054,2069.3c0,0-31.5-7.1-24.3,32.5c7.2,39.6,14.8,42.7,33.8,34.5c19-8.2,17.3-33.6,18.2-46
			C2082.7,2077.9,2064.1,2069.8,2054,2069.3z"/>
		<path class="st13" d="M2045.7,2158.3c0,0,13.9,14.8,36,1.3c0,0-4.9-32-2.3-47.6c2.6-15.6-28.8,24.2-28.8,24.2
			c0.4,0.2,0.7,1.7,0.7,3.8c0.1,1.8,0,4-0.3,6.4C2050.4,2151.5,2048.8,2157,2045.7,2158.3z"/>
		<path class="st13" d="M2070.9,2096.6c0.4-3.5,7.3-4.8,7.9,0.5c0.6,5.2-3.1,14.4-5.8,13.5
			C2070.4,2109.7,2070.3,2101.4,2070.9,2096.6z"/>
		<path class="st14" d="M2080.2,2110.7c0,0-0.8-12.5-5.4-12.9c-4.6-0.4-5.3,4.6-5.3,4.6l-4.6,0.9c0,0,1.5-10.9-3.1-12.9
			c-4.6-1.9-29.5,6-33.2,2.8c-3.7-3.2-1.9-25.4,4.7-28.4c6.6-3,24.9-9.8,38.2-0.8c0,0,10.4-1.2,12,7.2
			C2085.2,2079.7,2083,2104.4,2080.2,2110.7z"/>
		<path class="st15" d="M2051,2146.4c22.7-7,24.4-20.7,24.5-20.9c-7.5,12.9-24.1,14.6-24.1,14.6
			C2051.4,2141.8,2051.3,2144.1,2051,2146.4z"/>
		<path class="st13" d="M2091,2152.9c0,0-16.6,33.1-43.5,31c-26.9-2.1-4.6-35.5-3.4-35.8C2045.4,2147.8,2071.7,2141.3,2091,2152.9z"
			/>
		<path class="st65" d="M1970.5,2310.8c0,0,82.4,10.2,132.3,1.7l-95.4-11.9C2007.5,2300.5,2006.9,2303,1970.5,2310.8z"/>
		<path class="st13" d="M2032.2,2296.8l-6.1,3.1c0,0,1.4,9.8,4.8,12.7l6.9-1.8C2037.7,2310.8,2036.2,2300.1,2032.2,2296.8z"/>
		<path class="st65" d="M2127.5,2276.8c-1.2,1.4-17.4,7.9-35.7,15l0,0c-25,9.6-53.2,18.7-53.2,18.7l-6.4-13.8c0,0,29.5-16,49.5-27.3
			c9.4-5.3,16.7-9.6,17.7-10.5c3.2-3.1,4-8,1.7-16.5c-2.4-8.5-7.8-47.8-8.4-52.4c-0.6-4.6,1.5-16.8,13-17.4
			c11.5-0.6,17.3,2.6,17.3,2.6s2.9,1.2,5,29C2130.1,2232,2130.4,2273.4,2127.5,2276.8z"/>
		<path class="st66" d="M2098.8,2231.8L2098.8,2231.8c-0.1,3.9-0.3,9.7-0.4,16.1c-11.2-27.4-4.7-49.3-4.6-49.7
			C2092.5,2205.7,2098.7,2231.5,2098.8,2231.8z"/>
		<path class="st66" d="M2012.4,2240.1L2012.4,2240.1c-1.4,6.9-2.7,12.4-3.5,14.1c-3.8-18.5-0.4-42.2-0.4-42.2
			C2009.1,2223.3,2012.4,2240.1,2012.4,2240.1z"/>
		<path class="st13" d="M2091.8,2291.8L2091.8,2291.8c-25,9.6-54.1,19-54.1,19l-5.5-14.1c0,0,29.5-16,49.5-27.3
			C2081.7,2269.5,2088.9,2273,2091.8,2291.8z"/>
		<polygon class="st31" points="2030.4,2311.6 1913.3,2309.9 1972.4,2340 		"/>
		<polygon class="st32" points="1972.4,2340 2030.4,2317.5 2030.4,2311.6 1967.8,2334.2 		"/>
		<g>
			<path class="st13" d="M2027.4,2300.1c0,0-7.3-1.1-12.4-2.3c-3.9-0.9-13.6,0.3-16.1,2.9c-2.5,2.5-10.4,20-11.9,21.1
				c-1.5,1.1,0.8,3.5,3.4,2.3c0,0,2.4,7.7,8.3,4.8c5.9-2.9,10-9.1,13.1-10.2c3.1-1.1,21.2-6.7,21.2-6.7S2032,2298.2,2027.4,2300.1z"
				/>
		</g>
		<g>
			<path class="st13" d="M2000.6,2299.5c0,0-4.7,2.3-5.9,3.3c-1.2,1-6.2,4.7-7.4,5.6c-1.2,0.9,1.8,3.4,10.7-0.5
				C2006.9,2304,2000.6,2299.5,2000.6,2299.5z"/>
		</g>
		<polygon class="st34" points="1972.4,2340 1937.6,2244.8 1825.2,2246.7 1858.4,2334.3 		"/>
		<path class="st35" d="M1901.6,2286.9c3.4,6.9,2.4,14.3-2.3,16.7c-4.7,2.4-11.3-1.3-14.7-8.1c-3.4-6.9-2.4-14.3,2.3-16.7
			C1891.6,2276.4,1898.2,2280.1,1901.6,2286.9z"/>
	</g>
</g>
</svg>
