<?xml version="1.0" encoding="utf-8"?>
<!-- Generator: Adobe Illustrator 26.1.0, SVG Export Plug-In . SVG Version: 6.00 Build 0)  -->
<svg version="1.1" id="Layer_1" xmlns="http://www.w3.org/2000/svg" xmlns:xlink="http://www.w3.org/1999/xlink" x="0px" y="0px"
	 viewBox="0 0 750 500" style="enable-background:new 0 0 750 500;" xml:space="preserve">
<style type="text/css">
	.st0{clip-path:url(#SVGID_00000137094777458727526860000018154837515538088631_);fill:#FFE7EF;}
	.st1{clip-path:url(#SVGID_00000179607234756263585700000015887522302313000878_);fill:#FFE7EF;}
	.st2{clip-path:url(#SVGID_00000052802795365054968650000007673369136802678419_);}
	.st3{fill:#CB9CC6;}
	.st4{fill:none;stroke:#CB9CC6;stroke-miterlimit:10;}
	.st5{clip-path:url(#SVGID_00000010281247865397267160000000549110270641686959_);}
	.st6{fill:#6B05FF;}
	.st7{fill:#BCB9BD;stroke:#231F20;stroke-miterlimit:10;}
	.st8{fill:#FFFFFF;stroke:#0C0C0C;stroke-width:0.75;stroke-miterlimit:10;}
	.st9{fill:none;stroke:#231F20;stroke-miterlimit:10;}
	.st10{fill:none;stroke:#000000;stroke-miterlimit:10;}
	.st11{fill:#6B05FF;stroke:#231F20;stroke-miterlimit:10;}
	.st12{fill:#FFFFFF;stroke:#231F20;stroke-miterlimit:10;}
	.st13{fill:#EE8E01;}
	.st14{fill:#FFFFFF;}
	.st15{fill:none;stroke:#263238;stroke-miterlimit:10;}
	.st16{fill:#231F20;}
	.st17{fill:#BCB9BD;}
	.st18{fill:#FDFAF9;stroke:#231F20;stroke-miterlimit:10;}
	.st19{fill:#E5809D;}
	.st20{fill:none;stroke:#6040EC;stroke-miterlimit:10;}
	.st21{fill:#BCB9BD;stroke:#231F20;stroke-width:1;stroke-miterlimit:9.9998;}
	.st22{fill:#FFFFFF;stroke:#000000;stroke-miterlimit:10;}
	.st23{fill:none;stroke:#FFFFFF;stroke-miterlimit:10;}
	.st24{fill:#AC80FF;stroke:#231F20;stroke-miterlimit:10;}
	.st25{fill:#524C56;}
	.st26{fill:#E382B1;}
	.st27{fill-rule:evenodd;clip-rule:evenodd;fill:#FFFFFF;stroke:#231F20;stroke-miterlimit:10;}
	.st28{fill:#6040EC;}
	.st29{fill:#928C96;}
	.st30{fill:#EE8E01;stroke:#231F20;stroke-miterlimit:10;}
	.st31{fill:#E1E0E2;}
	.st32{fill:#263238;}
	.st33{fill:#4D5A64;}
</style>
<g id="BACKGROUND">
</g>
<g id="OBJECTS">
	<g>
		<g>
			<defs>
				<rect id="SVGID_1_" x="-27.8" y="-0.2" width="777.8" height="500.2"/>
			</defs>
			<clipPath id="SVGID_00000110448688033136879750000014120021850318195388_">
				<use xlink:href="#SVGID_1_"  style="overflow:visible;"/>
			</clipPath>
			<path style="clip-path:url(#SVGID_00000110448688033136879750000014120021850318195388_);fill:#FFE7EF;" d="M241,564.2
				c0,0-159.2-55.8-170.7-170.2C58.7,279.6,170.3,249.1,216,246.1c45.6-3,136.7-18.9,161.5-71.2c68.6-144.8,276.8-140.7,310-42.2
				c30.8,91.1,28.3,83.6,79.3,103.6c51,20,53.4,132.4,17.8,211.9C749,527.6,304,568,241,564.2z"/>
		</g>
		<g>
			<defs>
				<rect id="SVGID_00000039094309324245591120000005415448229422905016_" x="-27.8" y="-0.2" width="777.8" height="500.2"/>
			</defs>
			<clipPath id="SVGID_00000126301738032408658260000015854257010102717348_">
				<use xlink:href="#SVGID_00000039094309324245591120000005415448229422905016_"  style="overflow:visible;"/>
			</clipPath>
			<path style="clip-path:url(#SVGID_00000126301738032408658260000015854257010102717348_);fill:#FFE7EF;" d="M270.1,127.8
				c-10,1.8-27.9,0.1-35.3-26.8c-7.4-27,24.6-40.9,44.9-38C299.9,66,325.7,117.7,270.1,127.8z"/>
		</g>
		<g>
			<defs>
				<rect id="SVGID_00000069363184846831958200000012243653470236958595_" x="-27.8" y="-0.2" width="777.8" height="500.2"/>
			</defs>
			<clipPath id="SVGID_00000017504432521914431770000011823159437131262599_">
				<use xlink:href="#SVGID_00000069363184846831958200000012243653470236958595_"  style="overflow:visible;"/>
			</clipPath>
			<g style="clip-path:url(#SVGID_00000017504432521914431770000011823159437131262599_);">
				<g>
					<g>
						<g>
							<g>
								<path class="st3" d="M698.6,413.9c18.2-11.1,36.8-21.7,55.5-31.9c6.4-3.5,12.8-6.9,19.3-10.2c0.4-0.2,0-0.9-0.4-0.6
									c-20.8,10.8-41.4,22.1-61.6,34.1c-4.5,2.6-8.9,5.3-13.3,8C697.8,413.5,698.1,414.1,698.6,413.9L698.6,413.9z"/>
							</g>
						</g>
						<g>
							<g>
								<path class="st3" d="M761.3,403.5c-7.3-3.6-14.5-7.2-21.8-10.8c-1-0.5-2.1-1-3.1-1.5c-0.4-0.2-0.8,0.4-0.4,0.6
									c7.3,3.6,14.5,7.2,21.8,10.8c1,0.5,2.1,1,3.1,1.5C761.4,404.3,761.7,403.7,761.3,403.5L761.3,403.5z"/>
							</g>
						</g>
						<g>
							<path class="st3" d="M759.8,387.7c-1.1,1.7-0.3,4.1,1.6,5.3c2,1.2,4.4,0.9,5.5-0.8c1.1-1.7,0.3-4.1-1.6-5.3
								C763.4,385.6,760.9,386,759.8,387.7z"/>
							<path class="st3" d="M769.3,355.2c-0.1,2.3,1.7,4.2,4,4.3c2.3,0.1,4.2-1.7,4.3-4c0.1-2.3-1.7-4.2-4-4.3
								C771.4,351.1,769.4,352.9,769.3,355.2z"/>
							<path class="st3" d="M704.5,426.4c-1.3,2.1-0.4,5.1,2,6.6s5.5,1.1,6.8-1c1.3-2.1,0.4-5.1-2-6.6
								C708.9,423.9,705.9,424.3,704.5,426.4z"/>
							<path class="st3" d="M781.3,350.2c-0.5,0.9-0.3,2,0.6,2.6s2,0.3,2.6-0.6s0.3-2-0.6-2.6C783,349,781.9,349.3,781.3,350.2z"/>
						</g>
						<path class="st4" d="M701.6,380.6c3-0.5,4.4-0.5,6.8-0.3c13.9,0.8,11.6-12.9,26.2-24.2c14.6-11.3,19.1-0.5,28.2-3.4
							c9.1-2.9,16-21.8,32.1-11.7s17.5,28.3,5.7,41.6s-22.3,2-25.8,13.6c-3.4,11.6-5.1,16.8-20,20c-14.9,3.2-25.6-0.8-33.2,19.4
							c-6.7,18-18.8,22.3-31,20.9l-25.7-15.1"/>
					</g>
					<g>
						<path class="st4" d="M704.3,264.5c0.3-25.7,27.4-59.8,55.8-42.4c28.5,17.5,19.2,47.3,3.5,63.8c-13.3,14-44.8,20.2-37.1,31.6
							s10.1,27.9-15.7,38.6c-25.8,10.7,4.3,29-13.1,58.8c-11.7,19.9-25.7,27.5-38.5,27l-33.4-26.5c-3.3-8.1-4.6-17.5-3.1-27
							c4.3-27.2,33-28.2,37.2-40.8c4.2-12.7-4.7-34.6,6.7-53.8C681.5,268.4,704.2,277.3,704.3,264.5z"/>
						<g>
							<g>
								<g>
									<path class="st3" d="M732.5,252.7c-4.7,8.7-9.4,17.4-14,26.1c-8.7,16.4-17.3,32.8-25.5,49.4c-6.2,12.7-12.2,25.5-18.1,38.3
										c-6.4,13.8-12.7,27.6-18.9,41.4c-3.4,7.4-6.8,14.8-10.1,22.4c0,0.1-0.1,0.2-0.2,0.3c-0.2,0.4,0.5,0.8,0.7,0.4
										c2.8-6.2,5.5-12.3,8.3-18.5c6.1-13.5,12.2-27,18.4-40.5c6.1-13.3,12.3-26.7,18.7-39.9c7.7-16,16-31.7,24.3-47.4
										c5.5-10.5,11.1-20.9,16.7-31.2c0.1-0.2,0.2-0.3,0.3-0.5C733.4,252.6,732.8,252.2,732.5,252.7L732.5,252.7z"/>
								</g>
							</g>
							<g>
								<g>
									<path class="st3" d="M682.7,290.5c0.6,5.5,1.1,11.1,1.7,16.6c0.9,8.8,1.8,17.6,2.7,26.4c0.2,2,0.4,4.1,0.6,6.1
										c0,0.5,0.8,0.5,0.8,0c-0.6-5.5-1.1-11.1-1.7-16.6c-0.9-8.8-1.8-17.6-2.7-26.4c-0.2-2-0.4-4.1-0.6-6.1
										C683.4,290,682.6,290,682.7,290.5L682.7,290.5z"/>
								</g>
							</g>
							<g>
								<g>
									<path class="st3" d="M692.3,382.3c-9.5,5.3-19,10.7-28.5,16c-1.3,0.8-2.7,1.5-4,2.2c-0.4,0.2,0,0.9,0.4,0.6
										c9.5-5.3,19-10.7,28.5-16c1.3-0.8,2.7-1.5,4-2.2C693.1,382.7,692.8,382.1,692.3,382.3L692.3,382.3z"/>
								</g>
							</g>
						</g>
						<g>
							<path class="st3" d="M672.1,302.5c-5.4,1.4-4.6,8.5,1,8.6C678.6,309.7,677.7,302.6,672.1,302.5z"/>
						</g>
						<g>
							<path class="st3" d="M755,250.5c-13.1,3.3-11.1,20.4,2.4,20.7C770.4,267.8,768.5,250.7,755,250.5z"/>
						</g>
						<g>
							<path class="st3" d="M752.9,273.4c-5.5,1.4-4.7,8.6,1,8.8C759.4,280.8,758.6,273.6,752.9,273.4z"/>
						</g>
						<g>
							<path class="st3" d="M738,261.2c-7.2,1.8-6.1,11.2,1.3,11.3C746.5,270.7,745.5,261.3,738,261.2z"/>
						</g>
					</g>
					<g>
						<path class="st4" d="M628.4,428.5c-6.3-4.7-11.7-11.4-15-19.5c-9.4-23,12.3-37.2,9.6-49s-19.9-24.5-20.1-44.6
							c-0.3-26.6,21.4-30.3,15.5-40.2c-11.8-20-6.9-59.1,23.2-58.9c30.2,0.1,37,27.6,32.6,47.6c-3.7,17-24.2,37.1-12.9,42.3"/>
						<g>
							<g>
								<g>
									<path class="st3" d="M634.7,252.8c0.4,8.9,0.9,17.8,1.4,26.7c1,16.7,2,33.4,3.5,50.1c1.1,12.6,2.6,25.3,4,37.9
										c1.6,13.7,3.2,27.3,4.8,41c0.9,7.3,1.6,14.7,2.7,22c0,0.1,0,0.2,0,0.3c0.1,0.5,0.8,0.5,0.8,0c-0.8-6-1.5-12.1-2.2-18.2
										c-1.6-13.3-3.2-26.6-4.7-39.9c-1.5-13.1-3-26.3-4.3-39.5c-1.5-16-2.6-32-3.5-48.1c-0.6-10.7-1.2-21.4-1.7-32.1
										c0-0.2,0-0.3,0-0.5C635.4,252.3,634.6,252.3,634.7,252.8L634.7,252.8z"/>
								</g>
							</g>
							<g>
								<g>
									<path class="st3" d="M613.9,305.4c3,4,6,8,9.1,12c4.8,6.4,9.6,12.8,14.5,19.2c1.1,1.5,2.2,3,3.3,4.4c0.3,0.4,0.9,0,0.7-0.4
										c-3-4-6-8-9.1-12c-4.8-6.4-9.6-12.8-14.5-19.2c-1.1-1.5-2.2-3-3.3-4.4C614.2,304.6,613.6,305,613.9,305.4L613.9,305.4z"/>
								</g>
							</g>
							<g>
								<g>
									<path class="st3" d="M664.4,371.8c-4.8,8.6-9.6,17.1-14.4,25.7c-0.7,1.2-1.4,2.4-2,3.6c-0.2,0.4,0.4,0.8,0.7,0.4
										c4.8-8.6,9.6-17.1,14.4-25.7c0.7-1.2,1.4-2.4,2-3.6C665.3,371.7,664.7,371.3,664.4,371.8L664.4,371.8z"/>
								</g>
							</g>
							<g>
								<g>
									<path class="st3" d="M637.6,293.5c5.6-9.5,11.2-19,16.8-28.5c0.8-1.4,1.6-2.7,2.4-4c0.2-0.4-0.4-0.8-0.7-0.4
										c-5.6,9.5-11.2,19-16.8,28.5c-0.8,1.4-1.6,2.7-2.4,4C636.7,293.5,637.4,293.9,637.6,293.5L637.6,293.5z"/>
								</g>
							</g>
						</g>
						<g>
							<path class="st3" d="M611.4,319.6c-3.5,3.6,0.4,8.7,4.8,6.2C619.8,322.2,615.8,317.1,611.4,319.6z"/>
						</g>
					</g>
				</g>
				<g>
					<g>
						<path class="st4" d="M197.2,390.9c-20-14.1-32-53.8-3.1-66.6c29.1-12.9,47.4,10.6,51.9,31.8c3.8,18-8.4,46,4.6,46.1
							c13.1,0.1,27.3,7.2,21.8,33.1c-5.6,26,25.1,12.3,38.9,42c9.3,19.9,7.6,35,0.3,44.7l-38.8,11.8c-8.1-1.8-16.2-5.9-22.8-12.2
							c-19-18.1-4.2-41.1-11.9-51.2c-7.6-10.1-29.6-15-38.5-34.3C187.9,410.8,207.1,397.9,197.2,390.9z"/>
						<g>
							<g>
								<g>
									<path class="st3" d="M203.2,362.4c4.2,8.4,8.5,16.8,12.9,25.1c8.1,15.6,16.3,31.2,24.9,46.5c6.6,11.7,13.4,23.3,20.2,34.8
										c7.4,12.5,14.8,24.9,22.3,37.3c2.7,4.5,5.4,9,8.1,13.4c1.3,2.2,2.6,4.5,4,6.6c0.1,0.1,0.1,0.2,0.2,0.3
										c0.2,0.4,0.9,0,0.6-0.4c-3.4-5.5-6.7-11-10-16.6c-7.3-12.1-14.5-24.2-21.7-36.3c-7.1-12-14.2-24-21.1-36.1
										c-8.3-14.7-16.2-29.7-24-44.6c-5.2-10-10.3-19.9-15.4-30c-0.1-0.2-0.2-0.3-0.2-0.5C203.6,361.6,203,362,203.2,362.4
										L203.2,362.4z"/>
								</g>
							</g>
							<g>
								<g>
									<path class="st3" d="M205.9,421.9c4.6,2.6,9.3,5.1,13.9,7.7c7.4,4.1,14.7,8.1,22.1,12.2c1.7,0.9,3.4,1.9,5.1,2.8
										c0.4,0.2,0.8-0.4,0.4-0.6c-4.6-2.6-9.3-5.1-13.9-7.7c-7.4-4.1-14.7-8.1-22.1-12.2c-1.7-0.9-3.4-1.9-5.1-2.8
										C205.8,421,205.5,421.7,205.9,421.9L205.9,421.9z"/>
								</g>
							</g>
							<g>
								<g>
									<path class="st3" d="M283,464c-0.9,10.3-1.9,20.6-2.8,30.9c-0.1,1.5-0.3,2.9-0.4,4.4c0,0.5,0.7,0.5,0.8,0
										c0.9-10.3,1.9-20.6,2.8-30.9c0.1-1.5,0.3-2.9,0.4-4.4C283.8,463.5,283,463.5,283,464L283,464z"/>
								</g>
							</g>
						</g>
						<g>
							<path class="st3" d="M209.6,436.6c-1.9,5,4.1,8.2,7.3,3.9C218.7,435.5,212.7,432.3,209.6,436.6z"/>
						</g>
						<g>
							<path class="st3" d="M230.5,357.7c-1.9,5.1,4.2,8.4,7.4,3.9C239.8,356.5,233.6,353.3,230.5,357.7z"/>
						</g>
						<g>
							<path class="st3" d="M213.9,346.8c-2.4,6.6,5.5,10.8,9.6,5.1C225.9,345.2,218,341,213.9,346.8z"/>
						</g>
					</g>
					<g>
						<path class="st4" d="M309.1,511.6l-24.4,27.4c-7.1,2.4-15.2,3-23.4,1.3c-23.1-5.1-22.5-29.8-33.2-34
							c-10.7-4.3-29.9,2.3-45.8-8.4c-20.9-14.1-12.2-33.1-23.1-33.9c-22-1.5-50-26.6-33.6-50c16.4-23.6,41.6-14.1,54.9,0.2
							c11.3,12.1,16.1,38.9,26.2,32.9"/>
						<g>
							<g>
								<g>
									<path class="st3" d="M150.4,439.1c7.2,4.5,14.4,8.9,21.7,13.4c13.6,8.3,27.2,16.4,41,24.3c10.6,6,21.3,11.7,32,17.5
										c11.5,6.2,23.1,12.3,34.7,18.3c4.2,2.2,8.4,4.4,12.6,6.6c2,1.1,4.1,2.2,6.2,3.2c0.1,0,0.2,0.1,0.3,0.1
										c0.4,0.2,0.8-0.4,0.4-0.7c-5.2-2.7-10.3-5.4-15.5-8.1c-11.2-5.9-22.5-11.8-33.7-17.8c-11.2-5.9-22.3-11.9-33.3-18.1
										c-13.3-7.4-26.4-15.3-39.5-23.2c-8.7-5.3-17.3-10.7-26-16c-0.1-0.1-0.3-0.2-0.4-0.2C150.4,438.2,150,438.8,150.4,439.1
										L150.4,439.1z"/>
								</g>
							</g>
							<g>
								<g>
									<path class="st3" d="M180.4,483.8c12.4-0.5,24.8-1,37.2-1.5c1.8-0.1,3.5-0.1,5.2-0.2c0.5,0,0.5-0.8,0-0.8
										c-12.4,0.5-24.8,1-37.2,1.5c-1.8,0.1-3.5,0.1-5.2,0.2C179.9,483.1,179.9,483.8,180.4,483.8L180.4,483.8z"/>
								</g>
							</g>
							<g>
								<g>
									<path class="st3" d="M259.6,480.1c4.1,8.4,8.2,16.8,12.3,25.2c0.6,1.2,1.2,2.4,1.7,3.6c0.2,0.4,0.9,0,0.6-0.4
										c-4.1-8.4-8.2-16.8-12.3-25.2c-0.6-1.2-1.2-2.4-1.7-3.6C260.1,479.3,259.4,479.7,259.6,480.1L259.6,480.1z"/>
								</g>
							</g>
							<g>
								<g>
									<path class="st3" d="M183.9,458.7c-4.4-9.5-8.8-19-13.2-28.6c-0.6-1.4-1.2-2.7-1.9-4c-0.2-0.4-0.9-0.1-0.6,0.4
										c4.4,9.5,8.8,19,13.2,28.6c0.6,1.4,1.2,2.7,1.9,4C183.4,459.6,184.1,459.2,183.9,458.7L183.9,458.7z"/>
								</g>
							</g>
						</g>
						<g>
							<path class="st3" d="M190.2,493.4c0.9,4.7,7.1,4.4,7.4-0.4C196.7,488.3,190.5,488.6,190.2,493.4z"/>
						</g>
					</g>
				</g>
			</g>
		</g>
		<g>
			<defs>
				<rect id="SVGID_00000036946781512271185450000004569483032914940046_" x="-27.8" y="-0.2" width="777.8" height="500.2"/>
			</defs>
			<clipPath id="SVGID_00000119112501341007812910000007926608920350815379_">
				<use xlink:href="#SVGID_00000036946781512271185450000004569483032914940046_"  style="overflow:visible;"/>
			</clipPath>
			<g style="clip-path:url(#SVGID_00000119112501341007812910000007926608920350815379_);">
				<g>
					<g>
						<g>
							<g>
								<path class="st6" d="M425.2,370c0,0,18,10.8,29.4-1.5c11.3-12.4,16.2-31,2.8-74.6c-13.4-43.7-47.2-78.1-75.5-93.8
									s-38-14.1-46.7-13.8c-8.6,0.2,44.9,156.3,44.9,156.3L425.2,370z"/>
								<path class="st6" d="M315.9,187.4c0,0-9.1-6.4-50.9,24.6s-58.6,60-70,110.1s22.2,57.1,45.6,53.5s22.8-36.9,22.8-36.9
									L315.9,187.4z"/>
							</g>
						</g>
						<g>
							<g>
								<g>
									<polygon class="st7" points="279.9,455.1 274.1,384.3 395.2,377.4 389.9,446.1 									"/>
								</g>
								<g>
									<g>
										<path class="st8" d="M255.1,392.5c-2.7-15.7-4.2-32.5-4.2-49.9c0-87.1,36.8-157.7,82.1-157.7c45.4,0,77,70.9,82.1,157.7
											c1,17.4-1.5,34.2-4.2,49.9H255.1z"/>
									</g>
								</g>
								<line class="st9" x1="332.6" y1="192.5" x2="331.8" y2="392.5"/>
							</g>
							<g>
								<g>
									<path class="st6" d="M363.3,400.6l-12.8-213.2c0,0,8.4,3.4,10.6,5c28.5,19.9,49.6,71.1,53.4,130.7c0,0.2,0,0.3,0,0.3
										l0.1,1.2l0,0l0.1,2.6l4,73.4L363.3,400.6L363.3,400.6z"/>
									<g>
										<path class="st10" d="M350.5,187.4"/>
										<path class="st9" d="M401,255.8c7.1,20,12,43,13.5,67.4c0,0.2,0,0.3,0,0.3l0.1,1.2l0,0l0.1,2.6l4,73.4"/>
									</g>
									<path class="st9" d="M356.2,189.6c3.1,8.7,14.6,42,14.6,42l-7.1,1.7v0.3l11,7.6l-11.5,136.7"/>
									<g>
										<g>
											<path class="st6" d="M362.8,382c0,0-1.3,34.3,10,46.3c11.3,12,47.7,30.5,46.9-22.1C418.9,353.6,362.8,382,362.8,382z"/>
											<path class="st11" d="M418.4,422.3c3.8-2.1-0.1-40.8-0.1-40.8l-4.1-0.3h-27.1c0,0-1.6,15.9,4,28.5
												C394.7,417.7,410.8,426.5,418.4,422.3z"/>
										</g>
										<line class="st9" x1="386.9" y1="388.4" x2="419.1" y2="388.4"/>
									</g>
								</g>
								<g>
									<g>
										<path class="st6" d="M244.6,400.6l4-73.4l0.1-2.6l0,0l0.1-1.2c0,0,0-0.1,0-0.3c3.8-59.6,27.1-110.6,55.6-130.4
											c2.1-1.6,8.4-5.3,8.4-5.3l-11.7,195.2l-1.1,18L244.6,400.6L244.6,400.6z"/>
									</g>
									<g>
										<path class="st10" d="M312.8,187.4"/>
										<path class="st9" d="M256.5,267.1l-4.6,29.3c-1.4,8.7-2.5,17.6-3.1,26.8c0,0.2,0,0.3,0,0.3l-0.1,1.2l0,0l-0.1,2.6l-4,73.4
											"/>
									</g>
									<path class="st6" d="M301.5,376.4c0,0,1.3,34.3-10,46.3c-11.3,12-47.7,30.5-46.9-22.1C245.3,348,301.5,376.4,301.5,376.4z"
										/>
									<path class="st11" d="M245.8,416.7c-3.8-2.1,0.1-40.8,0.1-40.8l4.1-0.3h27.1c0,0,1.6,15.9-4,28.5
										C269.5,412.1,253.4,420.9,245.8,416.7z"/>
									<line class="st9" x1="277.2" y1="384.1" x2="245.5" y2="384.1"/>
									<path class="st9" d="M306.4,189.6c-3.1,8.7-13.9,42-13.9,42l7.1,1.7v0.3l-11,7.6l11.5,136.7"/>
								</g>
							</g>
						</g>
						<g>
							<g>
								<g>
									<path class="st6" d="M449.4,352c0,0,3-17.6-3.5-26.2c-6.5-8.6-6.6-9.8-17.5-15.6c-10.9-5.8-28.6-11.4-28.6-11.4
										s-9.4-3-13.6,2.5s-15.9,30.8-15.9,30.8s-2,8,3.3,11.8s55.7,28.1,55.7,28.1S445.7,372.5,449.4,352z"/>
									<path class="st9" d="M428.4,310.2c-10.9-5.8-28.6-11.4-28.6-11.4s-9.4-3-13.6,2.5s-15.9,30.8-15.9,30.8s-2,8,3.3,11.8
										s55.7,28.1,55.7,28.1"/>
									<path class="st9" d="M399.8,310.2c0,0,4.4,15.4-11.1,28.8"/>
								</g>
								<g>
									<path class="st12" d="M385.8,329.1c0,0,8.3-7,6.7-18.5c-1.3-9.1-4.8-14.8-15.7-20.3c-2.9-1.4-6.2-2.8-10.2-4.3
										c-4.1-1.5-8.1,3.6-11.5,5.3c-6.6,3.3-10.3,6.8-11.5,10.8c-1.9,5.9,0.2,12.1,4.3,17.2C351.9,324.4,372.9,341.6,385.8,329.1z
										"/>
									<g>
										<path class="st13" d="M377.1,268.8c-4.8,7.5-9.5,14.9-14.3,22.3c-0.7,1.1-1.4,2.1-2,3.2c-1.6,2.4-0.6,6.2,2,7.6
											c2.7,1.5,5.9,0.6,7.6-2c4.8-7.5,9.5-14.9,14.3-22.3c0.7-1.1,1.4-2.1,2-3.2c1.6-2.4,0.6-6.2-2-7.6
											C381.9,265.4,378.7,266.2,377.1,268.8L377.1,268.8z"/>
									</g>
									<g>
										<path class="st14" d="M382.7,313.1c0,0,3.6-8.7,2.8-12c-0.8-3.3-3.8-4.9-9.4-6.8c-5.6-1.9-20-6.3-22.5-6.2
											c-2.6,0-4.1,1.8-4.3,2.9c-0.2,1-0.6,2.9-1.4,3.3s-2.1,1.5-2.3,2.5c-0.2,1-0.2,1.9-1.5,2s-0.9,3.7-0.9,8.3
											c0,4.6,11,17.5,13.9,18.9c2.9,1.4,12.4,3.5,15.3,0.6C375.2,323.7,382.2,314.2,382.7,313.1z"/>
										<g>
											<path class="st9" d="M380.1,296.5c0,0-24.5-9.6-27.8-8.4c-3.3,1.2-5.1,5.7-0.8,8.2s25.2,10,25.2,10"/>
											<path class="st9" d="M371.1,316.7c0,0-17.5-8.3-22.3-12.5c-4.7-4.3-4.6-9.2,0.4-10.4"/>
											<path class="st15" d="M365,324.8c0,0-17.4-11.9-20.6-16.4c-3.2-4.5-1.1-12.1,1.1-9.4"/>
										</g>
									</g>
								</g>
							</g>
							<g>
								<path class="st16" d="M284.3,385.4h72.3c5.8,0,10.4-4.7,10.4-10.4V272.5c0-5.8-4.7-10.4-10.4-10.4h-72.3
									c-5.8,0-10.4,4.7-10.4,10.4V375C273.9,380.7,278.6,385.4,284.3,385.4z"/>
								<g>
									<path class="st17" d="M301.9,271.9H339c2.5,0,4.5-2,4.5-4.5v-4.3c0-2.5-2-4.5-4.5-4.5h-37.1c-2.5,0-4.5,2-4.5,4.5v4.3
										C297.4,269.9,299.5,271.9,301.9,271.9z"/>
									<path class="st17" d="M310.2,259.4c0,5.7,4.6,10.2,10.2,10.2c5.7,0,10.2-4.6,10.2-10.2c0-5.7-4.6-10.2-10.2-10.2
										C314.8,249.2,310.2,253.7,310.2,259.4z M314.9,259.4c0-3.1,2.5-5.6,5.6-5.6s5.6,2.5,5.6,5.6c0,3.1-2.5,5.6-5.6,5.6
										C317.4,265,314.9,262.5,314.9,259.4z"/>
								</g>
							</g>
							<g>
								<g>
									<path class="st6" d="M237.2,376l24.4-5.1c0,0,6.2-1.8,7.1-11.2c0.7-7.7-6.6-37.1-7.2-39.4c-1.1-4.1-3.6-10.1-16.9-6.9
										c-13,3.1-32.7,5.4-36.8,22.6c-4.1,17.1,0.1,26.8,1.2,28.5C210.1,366.3,228.5,376.2,237.2,376z"/>
									<path class="st9" d="M237.2,376l24.4-5.1c0,0,6.2-1.8,7.1-11.2c0.7-7.7-6.6-37.1-7.2-39.4c-1.1-4.1-3.6-10.1-16.9-6.9
										c-13,3.1-32.7,5.4-36.8,22.6c-0.9,3.5-1.3,6.7-1.6,9.6"/>
								</g>
								<g>
									<path class="st14" d="M255.4,323.8c4.6-5.5,18.7-8.6,18.7-8.6l-0.1,8.1c0,0,26.5-4.3,30.3-3.6c5,0.9,6.6,6.9-1.6,9.3
										c-1,0.3,0.9-0.3,0.9-0.3c8.7-1,8.4,8.2,2.7,9.6c-2.4,0.6-1.9,0.5-1.9,0.5c2.5-0.5,3.8,3.2-0.3,6.2c-1,0.7-2.8,1.4-5,2
										l0.3,0.1c0,0,3,1.4-1.1,4.4s-18.2,5.5-27.7,4.9c-9.6-0.6-14.3-10.3-16-14.8C252.8,337.1,251,329,255.4,323.8z"/>
									<g>
										<path class="st9" d="M278.8,343.4c0,0,23-4.1,27.4-5.2c5.8-1.5,6-10.6-2.7-9.6"/>
										<path class="st9" d="M281.3,350.1c0,0,18.6-2.2,22.7-5.2s2.8-6.7,0.3-6.2"/>
										<path class="st9" d="M299.2,347.1c0,0,3,1.4-1.1,4.4s-18.2,5.5-27.7,4.9c-9.6-0.6-14.3-10.3-16-14.8s-3.5-12.6,0.9-17.8
											c4.6-5.5,18.7-8.6,18.7-8.6l0.1,7.9c0,0,26.3-4.2,30.1-3.5c5,0.9,6.6,6.9-1.6,9.3c-8.2,2.4-27.6,5.4-27.6,5.4"/>
									</g>
								</g>
								<path class="st9" d="M256.5,356c0,0-11.5-6.1-9.9-29.1"/>
							</g>
						</g>
					</g>
					<g>
						<path class="st16" d="M331.6,79.3c0,0-0.9-0.2-1.4-0.1c-0.5,0-1.4,0.1-1.4,0.1c-52.6,5.9-56.4,73.1-51.6,88.7
							c4.8,15.9,47.1,7.9,47.1,7.9h11.8c0,0,42.3,7.9,47.1-7.9C388,152.4,384.2,85.3,331.6,79.3z"/>
						<path class="st12" d="M316.5,193.3l-2.3-10.2c0,0,0.5-1.5,1.7-2.5c3.6-2.9,10.7-2.7,17.9-2.7s11.6-0.6,15.7,3.1
							c0.9,0.8,0.6,3,0.6,3s-5.4,9.9-8.5,11.1C338.6,196.2,319.6,199.9,316.5,193.3z"/>
						<g>
							<g>
								<path class="st16" d="M307.6,163.2c-7.2-3.4-12.5-10.9-18-29.8c-5-17.2-0.2-42.3,30.5-48.8s47.5,9.7,50.6,25.9
									c3.1,16.5-4,50.6-17.4,51.7C340.9,163.2,318,168.2,307.6,163.2z"/>
								<g>
									<g>
										<g>
											<path class="st18" d="M374.4,146.2c-0.1,4.7-4,8.5-8.8,8.4c-4.8-0.1-8.5-4-8.4-8.7s4-8.5,8.8-8.4
												C370.7,137.6,374.5,141.5,374.4,146.2z"/>
											<g>
												<g>
													<path class="st16" d="M361.7,147.1c0-0.2,0-0.4,0-0.6c0-0.1,0-0.2,0-0.3c0-0.2,0,0.1,0,0c0-0.1,0-0.1,0-0.2
														c0-0.2,0.1-0.5,0.2-0.7c0-0.1,0.1-0.2,0.1-0.4c0-0.1,0-0.1,0.1-0.2c0,0,0-0.1,0,0c0,0,0-0.1,0.1-0.1
														c0.1-0.3,0.3-0.5,0.4-0.8c0.1-0.1,0,0.1,0.1-0.1c0-0.1,0.1-0.1,0.1-0.2c0.1-0.1,0.2-0.2,0.4-0.4c0,0,0.1-0.1,0,0
														c-0.1,0.1,0,0,0,0c0.1-0.1,0.1-0.1,0.2-0.1c0.2-0.1,0.3-0.2,0.5-0.3c-0.1,0.1,0,0,0,0c0.1,0,0.1-0.1,0.2-0.1
														c0.1,0,0.2-0.1,0.3-0.1c0.1,0,0.2-0.1,0.3-0.1c0.1,0,0.1,0,0.2,0c0.2,0-0.1,0,0.1,0c0.6-0.1,1.2,0,1.7,0
														c0.3,0,0.6-0.3,0.6-0.6c0-0.4-0.3-0.6-0.6-0.6c-1.8-0.2-3.7,0.1-4.9,1.5c-0.8,0.9-1.2,2.1-1.4,3.4c0,0.2,0,0.5,0,0.8
														C360.5,147.9,361.7,147.9,361.7,147.1L361.7,147.1z"/>
												</g>
											</g>
										</g>
										<g>
											<path class="st18" d="M288.8,145.9c-0.1,4.7,3.7,8.6,8.4,8.7s8.7-3.6,8.8-8.4s-3.7-8.6-8.4-8.7S288.9,141.2,288.8,145.9z
												"/>
											<g>
												<g>
													<path class="st16" d="M302.7,147.3c0.1-0.7,0-1.5-0.2-2.1c-0.4-1.4-1.2-2.6-2.5-3.2c-1-0.5-2.2-0.6-3.4-0.5
														c-0.3,0-0.6,0.3-0.6,0.6c0,0.3,0.3,0.6,0.6,0.6c0.5,0,1-0.1,1.5,0c-0.1,0,0.1,0,0.2,0c0.1,0,0.2,0,0.3,0.1
														c0.2,0.1,0.4,0.1,0.6,0.2c-0.1-0.1,0.1,0,0.1,0.1c0.1,0,0.1,0.1,0.2,0.1c0.1,0,0.1,0.1,0.2,0.1c0,0,0.1,0.1,0.1,0.1
														c0,0,0,0,0.1,0.1c-0.1-0.1-0.1-0.1,0,0c0.1,0.1,0.2,0.2,0.4,0.3c0,0.1,0.1,0.1,0.1,0.2c0,0,0,0.1,0.1,0.1
														c0.1,0.1-0.1-0.1,0,0c0.2,0.2,0.3,0.5,0.5,0.8c0,0,0,0.1,0,0.1c0,0.1-0.1-0.1,0,0c0,0.1,0,0.1,0.1,0.2
														c0,0.1,0.1,0.3,0.1,0.4c0.1,0.2,0.1,0.5,0.2,0.7c0,0.2,0-0.1,0,0c0,0.1,0,0.1,0,0.2c0,0.1,0,0.2,0,0.3
														c0,0.2,0,0.4,0,0.7c0,0.3,0.3,0.6,0.6,0.6C302.4,147.9,302.7,147.6,302.7,147.3L302.7,147.3z"/>
												</g>
											</g>
										</g>
									</g>
									<g>
										<path class="st12" d="M344.1,184.7c0,4.9-4.4,9.1-9.8,9.2l-4.2,0.1c-5.4,0.2-9.8-3.7-9.9-8.6l0-18.3
											c0-4.9,4.4-9.1,9.8-9.2l4.2-0.1c5.4-0.2,9.8,3.7,9.9,8.6L344.1,184.7z"/>
										<g>
											<path class="st14" d="M341.8,171.8h-21.4c-9.1,0-16.5-7.4-16.5-16.5v-39.1c0-9.1,7.4-16.5,16.5-16.5h21.4
												c9.1,0,16.5,7.4,16.5,16.5v39.1C358.3,164.4,350.9,171.8,341.8,171.8z"/>
											<path class="st9" d="M341.8,171.8h-21.4c-9.1,0-16.5-7.4-16.5-16.5v-39.1c0-9.1,7.4-16.5,16.5-16.5h21.4
												c9.1,0,16.5,7.4,16.5,16.5v39.1C358.3,164.4,350.9,171.8,341.8,171.8z"/>
										</g>
										<g>
											<polygon class="st19" points="330.8,130.1 327.9,142.6 334.4,142.5 											"/>
											<g>
												<path class="st16" d="M316.5,132.1c1.7,3.2-1.7,6.3-4.8,4.2c-0.2-0.1-0.4-0.3-0.5-0.5c-1.9-3.2,1.4-6.4,4.5-4.5
													C316,131.5,316.3,131.8,316.5,132.1z"/>
												<path class="st16" d="M350,133.9c-0.1,1.7-1.5,3.1-3.2,3.1s-3.1-1.5-3-3.2s1.5-3.1,3.2-3.1
													C348.7,130.7,350,132.2,350,133.9z"/>
											</g>
											<path class="st18" d="M326.8,151.9c0.3,2.7,2.6,4.7,5.4,4.7s5-2.1,5.4-4.7H326.8z"/>
										</g>
									</g>
								</g>
								<g>
									<path class="st16" d="M319,103.8c0,0,8.5,16.9,22,18.3c13.4,1.4,17.7,2.8,18.6,6.3c1,3.4,2.2,5,4.3,2.5
										c2-2.5,5.4-20-2.8-31.6s-14.3-14.5-18.9-15.8s-25.5-4.9-40.1,8.9c-10.9,10.3-19.9,29.6-6,45.1c0,0,0.5,0.3,3.2,0
										c2.7-0.3,4.5,0.9,4.5-1.8C303.9,133,311.6,110.9,319,103.8z"/>
								</g>
							</g>
							<g>
								<ellipse class="st20" cx="315.7" cy="133.4" rx="12.6" ry="14.4"/>
								<ellipse class="st20" cx="347.5" cy="132.8" rx="12.3" ry="14.4"/>
								<path class="st20" d="M328.3,134c0,0,5.1-1,6.8,0"/>
							</g>
						</g>
						<g>
							<path class="st12" d="M308.2,191.5l6.6-9.8c0,0,8.7,7,16,8c0,0,5,6.8-4.8,14.9C316.3,212.7,307.1,202.2,308.2,191.5z"/>
							<path class="st12" d="M356.5,191.5l-6.6-9.8c0,0-8.7,7-16,8c0,0-5,6.8,4.8,14.9C348.5,212.7,357.6,202.2,356.5,191.5z"/>
						</g>
					</g>
				</g>
				<g>
					
						<ellipse transform="matrix(0.1969 -0.9804 0.9804 0.1969 107.9007 945.6214)" class="st21" cx="631.2" cy="406.9" rx="108.7" ry="70.4"/>
					<path class="st9" d="M678.2,340.2c0,0,12.7,12.7-2.2,68.7"/>
				</g>
				<g>
					<g>
						<path class="st22" d="M464.3,329.1c0,0-4.9-18.8-4.3-22.3c0.6-3.4,1.9-17.3-0.1-24.9c-2-7.6-6.2-5.9-6.2-3.8
							c0,2.1,2.5,12-3,14.3s-7.7-4.6-8.7-8c-1-3.4,1-2.8,3.7-2.8c2.8,0,7.2-0.9,5.1-4.2s-13.4-3.5-14.5-2.3
							c-1.1,1.3-2.7,7.9-2.7,7.9s-12-20.8-16.6-20.6c-4.6,0.2,3.4,11.6,5.6,16.2s1,4.2,1,4.2s-14.7-12.3-17.7-10.5
							c-3,1.9,5.7,8.8,9.5,12.9s6.2,6.7,4.7,6.3c-1.5-0.4-10.7-6.3-13-4.4s4.3,5.6,9.2,8.4s13.5,14.9,18,24.3
							c4.5,9.4,9,23.7,11.2,20.1C446.2,338.8,464.3,329.1,464.3,329.1z"/>
						<g>
							<g>
								<path class="st13" d="M469.7,322.5l24.4,30.8L557,293c0,0,9.1,46.2-7.1,93c-16.2,46.9-64.6,47.4-83.6,30.8s-29.1-79-29.1-79
									L469.7,322.5z"/>
							</g>
							<g>
								<path class="st22" d="M479.4,334.7l-39.2,18.4c-2-9.1-3-15.3-3-15.3l32.5-15.4L479.4,334.7z"/>
								<g>
									<line class="st10" x1="466" y1="324" x2="474.1" y2="337.2"/>
									<line class="st10" x1="459.8" y1="327.1" x2="466.8" y2="340.6"/>
									<line class="st10" x1="453.1" y1="330.3" x2="459.4" y2="344.1"/>
									<line class="st10" x1="446.8" y1="333.4" x2="452.1" y2="347.5"/>
									<line class="st10" x1="442" y1="335.5" x2="446.5" y2="350.2"/>
								</g>
							</g>
							<g>
								<path class="st23" d="M476.9,347.1L476.9,347.1c1.3-0.8,3-0.4,3.9,0.9l4.6,7.4c0.8,1.3,0.4,3-0.9,3.9l0,0
									c-1.3,0.8-3,0.4-3.9-0.9L476,351C475.2,349.6,475.6,347.9,476.9,347.1z"/>
								<path class="st23" d="M454.4,352.6L454.4,352.6c1.3-0.8,3-0.4,3.9,0.9l4.6,7.4c0.8,1.3,0.4,3-0.9,3.9l0,0
									c-1.3,0.8-3,0.4-3.9-0.9l-4.6-7.4C452.7,355.1,453.1,353.4,454.4,352.6z"/>
								<path class="st23" d="M460.4,385.4L460.4,385.4c1.3-0.8,3-0.4,3.9,0.9l4.6,7.4c0.8,1.3,0.4,3-0.9,3.9l0,0
									c-1.3,0.8-3,0.4-3.9-0.9l-4.6-7.4C458.7,387.9,459.1,386.2,460.4,385.4z"/>
								<path class="st23" d="M480.7,390.9L480.7,390.9c1.3-0.8,3-0.4,3.9,0.9l4.6,7.4c0.8,1.3,0.4,3-0.9,3.9l0,0
									c-1.3,0.8-3,0.4-3.9-0.9l-4.6-7.4C479,393.5,479.4,391.8,480.7,390.9z"/>
								<path class="st23" d="M473,408.2L473,408.2c1.3-0.8,3-0.4,3.9,0.9l4.6,7.4c0.8,1.3,0.4,3-0.9,3.9l0,0
									c-1.3,0.8-3,0.4-3.9-0.9l-4.6-7.4C471.3,410.7,471.7,409,473,408.2z"/>
								<path class="st23" d="M494.6,370L494.6,370c1.3-0.8,3-0.4,3.9,0.9l4.6,7.4c0.8,1.3,0.4,3-0.9,3.9l0,0
									c-1.3,0.8-3,0.4-3.9-0.9l-4.6-7.4C492.8,372.5,493.2,370.8,494.6,370z"/>
								<path class="st23" d="M503.9,393.1L503.9,393.1c1.3-0.8,3-0.4,3.9,0.9l4.6,7.4c0.8,1.3,0.4,3-0.9,3.9l0,0
									c-1.3,0.8-3,0.4-3.9-0.9l-4.6-7.4C502.2,395.6,502.6,393.9,503.9,393.1z"/>
								<path class="st23" d="M511.4,347.2L511.4,347.2c1.2,0.9,1.5,2.7,0.5,3.9l-5.3,6.9c-0.9,1.2-2.7,1.5-3.9,0.5l0,0
									c-1.2-0.9-1.5-2.7-0.5-3.9l5.3-6.9C508.4,346.5,510.1,346.3,511.4,347.2z"/>
								<path class="st23" d="M493.7,411.4L493.7,411.4c1.3-0.8,3-0.4,3.9,0.9l4.6,7.4c0.8,1.3,0.4,3-0.9,3.9l0,0
									c-1.3,0.8-3,0.4-3.9-0.9l-4.6-7.4C492,414,492.4,412.2,493.7,411.4z"/>
								<path class="st23" d="M473,366.3L473,366.3c1.3-0.8,3-0.4,3.9,0.9l4.6,7.4c0.8,1.3,0.4,3-0.9,3.9l0,0
									c-1.3,0.8-3,0.4-3.9-0.9l-4.6-7.4C471.3,368.9,471.7,367.1,473,366.3z"/>
							</g>
							<g>
								<line class="st10" x1="557" y1="293" x2="494.1" y2="353.3"/>
								<polyline class="st10" points="502.6,364 469.7,322.5 437.2,337.8 								"/>
							</g>
						</g>
					</g>
					<g>
						<g>
							<path class="st13" d="M565.8,290.7c31.5,0,53.8,65.6,60,140.4l-124.7-5.6c2.4-30.8,7.8-58.5,16.3-81.3
								C529.6,311.2,547.8,290.7,565.8,290.7"/>
						</g>
						<path class="st10" d="M501.1,423.5c6.6-79.4,34.3-132.8,64.7-132.8"/>
						<g>
							<path class="st23" d="M545.7,311.2L545.7,311.2c1.5,0.2,2.7,1.6,2.5,3.1l-1,8.7c-0.2,1.5-1.6,2.7-3.1,2.5l0,0
								c-1.5-0.2-2.7-1.6-2.5-3.1l1-8.7C542.7,312.1,544.1,311,545.7,311.2z"/>
							<path class="st23" d="M555.6,333.4L555.6,333.4c1.5,0.2,2.7,1.6,2.5,3.1l-1,8.7c-0.2,1.5-1.6,2.7-3.1,2.5l0,0
								c-1.5-0.2-2.7-1.6-2.5-3.1l1-8.7C552.7,334.3,554.1,333.2,555.6,333.4z"/>
							<path class="st23" d="M565.6,302.9L565.6,302.9c1.5,0,2.8,1.2,2.8,2.8l0.1,8.7c0,1.5-1.2,2.8-2.8,2.8l0,0
								c-1.5,0-2.8-1.2-2.8-2.8l-0.1-8.7C562.8,304.2,564.1,302.9,565.6,302.9z"/>
							<path class="st23" d="M534.2,340.2L534.2,340.2c1.5,0.2,2.7,1.6,2.5,3.1l-1,8.7c-0.2,1.5-1.6,2.7-3.1,2.5l0,0
								c-1.5-0.2-2.7-1.6-2.5-3.1l1-8.7C531.3,341.1,532.7,340,534.2,340.2z"/>
							<path class="st23" d="M580.8,345.8L580.8,345.8c1.5,0.1,2.8,1.4,2.7,2.9l-0.3,8.7c-0.1,1.5-1.4,2.8-2.9,2.7l0,0
								c-1.5-0.1-2.8-1.4-2.7-2.9l0.3-8.7C577.9,346.9,579.2,345.7,580.8,345.8z"/>
							<path class="st23" d="M600.7,359.7L600.7,359.7c1.5,0.1,2.8,1.4,2.7,2.9l-0.3,8.7c-0.1,1.5-1.4,2.8-2.9,2.7l0,0
								c-1.5-0.1-2.8-1.4-2.7-2.9l0.3-8.7C597.8,360.8,599.1,359.6,600.7,359.7z"/>
							<path class="st23" d="M582.7,378.9L582.7,378.9c1.5,0.1,2.8,1.4,2.7,2.9l-0.3,8.7c-0.1,1.5-1.4,2.8-2.9,2.7l0,0
								c-1.5-0.1-2.8-1.4-2.7-2.9l0.3-8.7C579.8,380,581.1,378.8,582.7,378.9z"/>
							<path class="st23" d="M557.3,371.1L557.3,371.1c1.5,0.1,2.8,1.4,2.7,2.9l-0.3,8.7c-0.1,1.5-1.4,2.8-2.9,2.7l0,0
								c-1.5-0.1-2.8-1.4-2.7-2.9l0.3-8.7C554.4,372.3,555.7,371,557.3,371.1z"/>
							<path class="st23" d="M532.1,380.3L532.1,380.3c1.5,0.1,2.8,1.4,2.7,2.9l-0.3,8.7c-0.1,1.5-1.4,2.8-2.9,2.7l0,0
								c-1.5-0.1-2.8-1.4-2.7-2.9l0.3-8.7C529.3,381.4,530.6,380.2,532.1,380.3z"/>
							<path class="st23" d="M517.4,358.7L517.4,358.7c1.5,0.1,2.8,1.4,2.7,2.9l-0.3,8.7c-0.1,1.5-1.4,2.8-2.9,2.7l0,0
								c-1.5-0.1-2.8-1.4-2.7-2.9l0.3-8.7C514.5,359.9,515.8,358.6,517.4,358.7z"/>
							<path class="st23" d="M613.8,380.3L613.8,380.3c1.5,0.1,2.8,1.4,2.7,2.9l-0.3,8.7c-0.1,1.5-1.4,2.8-2.9,2.7l0,0
								c-1.5-0.1-2.8-1.4-2.7-2.9l0.3-8.7C610.9,381.4,612.2,380.2,613.8,380.3z"/>
							<path class="st23" d="M597,398.2L597,398.2c1.5,0.1,2.8,1.4,2.7,2.9l-0.3,8.7c-0.1,1.5-1.4,2.8-2.9,2.7l0,0
								c-1.5-0.1-2.8-1.4-2.7-2.9l0.3-8.7C594.1,399.4,595.4,398.2,597,398.2z"/>
							<path class="st23" d="M610.8,415.3L610.8,415.3c1.5,0.1,2.8,1.4,2.7,2.9l-0.3,8.7c-0.1,1.5-1.4,2.8-2.9,2.7l0,0
								c-1.5-0.1-2.8-1.4-2.7-2.9l0.3-8.7C608,416.5,609.3,415.3,610.8,415.3z"/>
							<path class="st23" d="M566.5,398.2L566.5,398.2c1.5,0.1,2.8,1.4,2.7,2.9l-0.3,8.7c-0.1,1.5-1.4,2.8-2.9,2.7l0,0
								c-1.5-0.1-2.8-1.4-2.7-2.9l0.3-8.7C563.6,399.4,564.9,398.2,566.5,398.2z"/>
							<path class="st23" d="M543.9,411.8L543.9,411.8c1.5,0.1,2.8,1.4,2.7,2.9l-0.3,8.7c-0.1,1.5-1.4,2.8-2.9,2.7l0,0
								c-1.5-0.1-2.8-1.4-2.7-2.9l0.3-8.7C541.1,413,542.4,411.8,543.9,411.8z"/>
							<path class="st23" d="M585,420.1L585,420.1c1.5,0.1,2.8,1.4,2.7,2.9l-0.3,8.7c-0.1,1.5-1.4,2.8-2.9,2.7l0,0
								c-1.5-0.1-2.8-1.4-2.7-2.9l0.3-8.7C582.1,421.2,583.4,420,585,420.1z"/>
							<path class="st23" d="M513.1,391.8L513.1,391.8c1.5,0.1,2.8,1.4,2.7,2.9l-0.3,8.7c-0.1,1.5-1.4,2.8-2.9,2.7l0,0
								c-1.5-0.1-2.8-1.4-2.7-2.9l0.3-8.7C510.3,393,511.6,391.8,513.1,391.8z"/>
							<path class="st23" d="M521.1,416.7L521.1,416.7c1.5,0.1,2.8,1.4,2.7,2.9l-0.3,8.7c-0.1,1.5-1.4,2.8-2.9,2.7l0,0
								c-1.5-0.1-2.8-1.4-2.7-2.9l0.3-8.7C518.2,417.8,519.5,416.6,521.1,416.7z"/>
						</g>
						<g>
							<path class="st22" d="M501.1,423.5l124.3,6.2c0.5,4.5,1.1,9.5,1.4,14.2l-127.2-8C500.1,431.7,500.5,427.5,501.1,423.5z"/>
							<g>
								<path class="st10" d="M615.4,443.4"/>
								<path class="st10" d="M615.4,429.7"/>
								<line class="st10" x1="614.3" y1="429.7" x2="614.3" y2="443.4"/>
								<line class="st10" x1="620.4" y1="429.7" x2="620.4" y2="443.4"/>
								<line class="st10" x1="606" y1="428.8" x2="605.9" y2="442.5"/>
								<path class="st10" d="M600.1,442.6"/>
								<path class="st10" d="M600.3,428.9"/>
								<line class="st10" x1="597.4" y1="427.9" x2="597.3" y2="441.6"/>
								<line class="st10" x1="589.2" y1="427.8" x2="589.1" y2="441.5"/>
								<line class="st10" x1="581.6" y1="427.7" x2="581" y2="441.3"/>
								<line class="st10" x1="573.2" y1="427.2" x2="572.6" y2="440.9"/>
								<line class="st10" x1="565.1" y1="426.8" x2="564.5" y2="440.5"/>
								<line class="st10" x1="554" y1="426.1" x2="553.4" y2="439.7"/>
								<line class="st10" x1="544.2" y1="425.4" x2="543.6" y2="438.7"/>
								<line class="st10" x1="536.5" y1="425.4" x2="535.3" y2="437.9"/>
								<line class="st10" x1="528.9" y1="424.4" x2="527.6" y2="437.7"/>
								<line class="st10" x1="521.4" y1="424.4" x2="520.2" y2="437.2"/>
								<line class="st10" x1="514.1" y1="423.8" x2="512.9" y2="436.6"/>
								<line class="st10" x1="507.6" y1="423.5" x2="506.4" y2="436.3"/>
							</g>
						</g>
					</g>
				</g>
				<path class="st24" d="M97.6,548.6c0,0,34.9-78.9,229.6-113s212.3,1.4,302.9-8.6c90.6-10,183.9,9.2,195.6,54.6
					c11.7,45.4,113.3,75.4-75.8,87C560.8,580.3,97.6,548.6,97.6,548.6z"/>
				<g>
					<g>
						<g>
							<path class="st16" d="M392.6,429.1c0,0-0.1,3.5,0.5,3.8c0.5,0.3,87.2,22.4,87.2,22.4s3,1.1,7.1,0
								c4.1-1.2,89.7-25.2,89.7-25.2s1.8-5-0.8-5.4c-2.2-0.3-102-15.1-102-15.1l-68.9,15L392.6,429.1z"/>
							<g>
								<path class="st25" d="M481.8,446.8l47.6-13.1c0.9-0.3,0.9-1.6-0.1-1.8l-66.1-11.7c-0.8-0.1-1.4,0.8-0.9,1.4l18.5,24.8
									C481,446.8,481.4,446.9,481.8,446.8z"/>
								<path class="st25" d="M486,420.7l21.8,3.9c0,0,0.1,0,0.1,0l17.4-4.6c0.3-0.1,0.3-0.5,0-0.6l-23.5-3.3c0,0-0.1,0-0.1,0
									l-15.7,4C485.7,420.2,485.7,420.6,486,420.7z"/>
							</g>
							<g>
								<path class="st16" d="M439.2,345.1l42,101.9c0,0-2.5,4.9-4.9,4.5s-84.6-21-84.6-21s-6.2-1.8-10.3-10.2
									c-4.9-10.1-43.6-85.5-43.6-85.5s-2.2-3,2.5-3.9c4.7-0.8,87.6,6,87.6,6S435.8,336.8,439.2,345.1z"/>
								<path class="st14" d="M393,381.7c1.5,4.6,6.6,8.4,11.2,8.4s7.1-3.7,5.6-8.4c-1.5-4.6-6.6-8.4-11.2-8.4
									C394,373.4,391.5,377.1,393,381.7z"/>
							</g>
						</g>
					</g>
					<g>
						<g>
							<g>
								<g>
									<g>
										<path class="st26" d="M572.9,190.3c0,3.5,2.8,6.3,6.3,6.3s6.3-2.8,6.3-6.3s-2.8-6.3-6.3-6.3S572.9,186.8,572.9,190.3z"/>
										<path class="st10" d="M618.1,180.4c0,0-5,1.9-10.1,6.2s-19.5,2.4-24.7-13.6c-5.1-16,10.7-29.8,23.4-31.2
											c12.7-1.4,15.8,2.5,24,10.9c8.3,8.4,12.4,3.5,17.6-5.7c7.6-13.4,38.3-20.3,52.5-4.1c14.3,16.2,17.5,43.4-4.2,59.6
											s-57.9,10.6-62.4-6.1C629.9,179.6,620.5,179.3,618.1,180.4z"/>
									</g>
								</g>
							</g>
							<path class="st22" d="M566.6,296.7h-11.8c-3.5,0-6.3-2.8-6.3-6.3v-15.5c0-3.5,2.8-6.3,6.3-6.3h11.8c3.5,0,6.3,2.8,6.3,6.3
								v15.5C572.9,293.8,570.1,296.7,566.6,296.7z"/>
							<g>
								<g>
									<g>
										<path d="M529.4,247.5c0,0-6.4-10.8-4.7-26.4c2.8-25.6,31.4-24.3,34.9-24.5c11.5-0.5,32.3,3.9,34.3,19.1
											c2,15.2-3.6,36.1-4.1,38.5C589.3,256.6,539,264.4,529.4,247.5z"/>
										<g>
											<g>
												<path class="st22" d="M519.3,251.7c-0.1,4.5,3.4,8.2,8,8.4c4.5,0.1,8.3-3.4,8.5-7.9s-3.4-8.2-8-8.4
													C523.2,243.7,519.5,247.2,519.3,251.7z"/>
												<g>
													<path d="M531.3,253.2c0-0.2,0-0.4,0-0.5c0-0.2,0-0.4,0-0.6c0-0.1,0-0.2,0,0c0-0.1,0-0.1,0-0.2c0-0.1,0-0.2-0.1-0.4
														c-0.1-0.2-0.1-0.5-0.2-0.8c-0.1-0.2,0,0.1,0-0.1c0-0.1,0-0.1-0.1-0.2c-0.1-0.1-0.2-0.3-0.2-0.4c0-0.1-0.1-0.1-0.1-0.2
														c-0.1-0.1,0.1,0.1,0-0.1c-0.1-0.1-0.2-0.2-0.3-0.4c0-0.1-0.1-0.1-0.2-0.1c-0.1-0.1,0.1,0.1,0,0c0,0-0.1,0-0.1-0.1
														c-0.1-0.1-0.3-0.2-0.5-0.3c0,0-0.1,0-0.1-0.1c0,0-0.1,0-0.1,0c0.1,0,0.1,0,0,0c-0.1,0-0.2-0.1-0.3-0.1
														c-0.2-0.1-0.4-0.1-0.6-0.1c0,0-0.2,0-0.1,0c-0.1,0-0.1,0-0.2,0c-0.1,0-0.2,0-0.4,0c-0.3,0-0.6,0-0.9,0
														c-0.3,0-0.6-0.3-0.6-0.6c0-0.4,0.3-0.6,0.6-0.6c1.8-0.1,3.6,0.3,4.7,1.8c0.7,0.9,1,2.1,1.1,3.2c0,0.2,0,0.5,0,0.7
														c0,0.3-0.3,0.6-0.6,0.6C531.6,253.8,531.3,253.5,531.3,253.2L531.3,253.2z"/>
												</g>
											</g>
											<g>
												<path class="st22" d="M599.8,252.9c-0.1,4.5-3.9,8-8.5,7.9c-4.5-0.1-8.1-3.9-8-8.4s3.9-8,8.5-7.9
													C596.3,244.6,599.9,248.4,599.8,252.9z"/>
												<g>
													<path d="M586.5,253.6c-0.1-2.1,1-4.3,3-5.1c1-0.4,2.2-0.4,3.3-0.3c0.3,0.1,0.5,0.5,0.4,0.8c-0.1,0.4-0.4,0.5-0.8,0.4
														c-0.8-0.1-1.6-0.1-2.4,0.2c0,0-0.3,0.1-0.1,0.1c-0.1,0-0.2,0.1-0.2,0.1c-0.2,0.1-0.3,0.2-0.4,0.3
														c-0.2,0.1,0-0.1-0.1,0.1c-0.1,0.1-0.1,0.1-0.2,0.1c-0.1,0.1-0.2,0.2-0.3,0.3c0,0,0,0.1-0.1,0.1c0.1-0.1,0-0.1,0,0
														c0,0.1-0.1,0.1-0.1,0.2c-0.1,0.1-0.2,0.2-0.2,0.4c0,0.1-0.1,0.1-0.1,0.2c0,0-0.1,0.2,0,0.1c0,0.1-0.1,0.2-0.1,0.4
														c-0.1,0.2-0.1,0.5-0.2,0.7c0,0.1,0,0.2,0,0.3c0,0.1-0.1,0.2,0,0c0,0,0,0.1,0,0.1c0,0.2,0,0.4,0,0.6
														C587.8,254.4,586.5,254.4,586.5,253.6L586.5,253.6z"/>
												</g>
											</g>
										</g>
										<path class="st22" d="M585.5,254.7c-0.1,12.3-10.3,22.2-22.5,22.1l-7.2-0.1c-12.3-0.1-22.2-10.3-22.1-22.5l0.2-24.1
											c0.1-12.3,10.3-22.2,22.5-22.1l7.2,0.1c12.3,0.1,22.2,10.3,22.1,22.5L585.5,254.7z"/>
									</g>
									<g>
										<polygon class="st19" points="559.5,237.1 556.5,249 562.7,248.9 										"/>
										<path class="st22" d="M555.4,257.8c0.3,2.5,2.4,4.5,5,4.6c2.6,0,4.8-1.9,5.1-4.5L555.4,257.8z"/>
										<g>
											<path d="M545.9,241.8c-0.1,1.7-1.5,2.9-3.1,2.9c-1.7-0.1-2.9-1.5-2.9-3.1s1.5-2.9,3.1-2.9S546,240.1,545.9,241.8z"/>
											<path d="M577.7,241.8c-0.1,1.7-1.5,2.9-3.1,2.9c-1.7-0.1-2.9-1.5-2.9-3.1s1.5-2.9,3.1-2.9
												C576.4,238.7,577.7,240.1,577.7,241.8z"/>
										</g>
									</g>
								</g>
								<g>
									<path d="M529.4,234.5c0,0,24.8-6.3,33.4-20.2c0,0,15,17.8,27.1,18c7.2,0.2,0.4-25.6-12.9-27.4s-34.3-1.8-40.3,6.5
										C530.6,219.5,529.4,234.5,529.4,234.5z"/>
								</g>
							</g>
						</g>
						<g>
							<g>
								<path class="st12" d="M565.1,410.3c0,0-38.5-2.7-43.7-0.8s-34.6,15.9-38,20.1s1.7,8.4,7.4,8.3c3.5-0.1,41.3-3.2,41.3-3.2
									l38.4,0.8L565.1,410.3z"/>
								<g>
									<path class="st9" d="M487.4,437.5c0,0,17.2-6.8,23.3-7.9"/>
									<path class="st9" d="M483.5,435.2c0,0,13.9-9,24-11.3"/>
								</g>
							</g>
							<g>
								<g>
									<path class="st13" d="M571.8,326.5l5-34.1c0,0,131.6,50,108.4,131.4c-18.5,65-125.4,17.8-125.4,17.8l0.1-35.3l47.8-11.6
										C591.1,358.6,571.8,326.5,571.8,326.5z"/>
								</g>
								<g>
									<line class="st9" x1="560" y1="406.3" x2="615.3" y2="392.9"/>
									<path class="st9" d="M607.8,394.7c0,0-12.1-26.2-21.6-41"/>
								</g>
								<g>
									<path class="st23" d="M584.4,410.4L584.4,410.4c-0.2-1.5,0.9-2.9,2.5-3.1l8.7-1c1.5-0.2,2.9,0.9,3.1,2.5l0,0
										c0.2,1.5-0.9,2.9-2.5,3.1l-8.7,1C586,413.1,584.6,412,584.4,410.4z"/>
									<path class="st23" d="M571.6,425.2L571.6,425.2c-0.2-1.5,0.9-2.9,2.5-3.1l8.7-1c1.5-0.2,2.9,0.9,3.1,2.5l0,0
										c0.2,1.5-0.9,2.9-2.5,3.1l-8.7,1C573.2,427.8,571.8,426.7,571.6,425.2z"/>
									<path class="st23" d="M650.1,399.6L650.1,399.6c-0.2-1.5,0.9-3,2.4-3.2l8.6-1.2c1.5-0.2,3,0.9,3.2,2.4l0,0
										c0.2,1.5-0.9,3-2.4,3.2l-8.6,1.2C651.8,402.2,650.3,401.2,650.1,399.6z"/>
									<path class="st23" d="M587.2,440.5L587.2,440.5c0-1.5,1.3-2.8,2.8-2.8l8.7,0.1c1.5,0,2.8,1.3,2.8,2.9l0,0
										c0,1.5-1.3,2.8-2.8,2.8l-8.7-0.1C588.4,443.3,587.2,442,587.2,440.5z"/>
									<path class="st23" d="M600.7,425.3L600.7,425.3c-0.2-1.5,0.9-2.9,2.5-3.1l8.7-1c1.5-0.2,2.9,0.9,3.1,2.5l0,0
										c0.2,1.5-0.9,2.9-2.5,3.1l-8.7,1C602.2,427.9,600.9,426.8,600.7,425.3z"/>
									<path class="st23" d="M621.6,444.4L621.6,444.4c-0.2-1.5,0.9-2.9,2.5-3.1l8.7-1c1.5-0.2,2.9,0.9,3.1,2.5l0,0
										c0.2,1.5-0.9,2.9-2.5,3.1l-8.7,1C623.2,447.1,621.8,446,621.6,444.4z"/>
									<path class="st23" d="M609.7,405.9L609.7,405.9c-0.2-1.5,0.9-2.9,2.5-3.1l8.7-1c1.5-0.2,2.9,0.9,3.1,2.5l0,0
										c0.2,1.5-0.9,2.9-2.5,3.1l-8.7,1C611.2,408.6,609.9,407.5,609.7,405.9z"/>
									<path class="st23" d="M643.5,428.5L643.5,428.5c-0.4-1.5,0.6-3,2.1-3.4l8.5-2c1.5-0.4,3,0.6,3.4,2.1l0,0
										c0.4,1.5-0.6,3-2.1,3.4l-8.5,2C645.3,431,643.8,430,643.5,428.5z"/>
									<path class="st23" d="M668.1,414L668.1,414c-0.4-1.5,0.6-3,2.1-3.4l8.5-2c1.5-0.4,3,0.6,3.4,2.1l0,0c0.4,1.5-0.6,3-2.1,3.4
										l-8.5,2C670,416.4,668.5,415.5,668.1,414z"/>
									<path class="st23" d="M659.2,440.3L659.2,440.3c-0.4-1.5,0.6-3,2.1-3.4l8.5-2c1.5-0.4,3,0.6,3.4,2.1l0,0
										c0.4,1.5-0.6,3-2.1,3.4l-8.5,2C661.1,442.8,659.6,441.8,659.2,440.3z"/>
									<path class="st23" d="M634.1,391.6L634.1,391.6c-0.4-1.5,0.6-3,2.1-3.4l8.5-2c1.5-0.4,3,0.6,3.4,2.1l0,0
										c0.4,1.5-0.6,3-2.1,3.4l-8.5,2C636,394.1,634.4,393.1,634.1,391.6z"/>
									<path class="st23" d="M608.4,373.7L608.4,373.7c1.4-0.6,3.1,0,3.7,1.5l3.5,8c0.6,1.4,0,3.1-1.5,3.7l0,0
										c-1.4,0.6-3.1,0-3.7-1.5l-3.5-8C606.3,376,607,374.3,608.4,373.7z"/>
									<path class="st23" d="M620.1,358.2L620.1,358.2c1.5-0.4,3,0.5,3.4,2l2.2,8.4c0.4,1.5-0.5,3-2,3.4l0,0c-1.5,0.4-3-0.5-3.4-2
										l-2.2-8.4C617.7,360.1,618.6,358.6,620.1,358.2z"/>
									<path class="st23" d="M639.2,358.3L639.2,358.3c1.4-0.7,3.1-0.1,3.8,1.3l3.8,7.8c0.7,1.4,0.1,3.1-1.3,3.8l0,0
										c-1.4,0.7-3.1,0.1-3.8-1.3l-3.8-7.8C637.2,360.7,637.8,359,639.2,358.3z"/>
									<path class="st23" d="M641.8,339.8L641.8,339.8c1.3-0.9,3-0.5,3.9,0.8l4.9,7.2c0.9,1.3,0.5,3-0.8,3.9l0,0
										c-1.3,0.9-3,0.5-3.9-0.8l-4.9-7.2C640.1,342.5,640.5,340.7,641.8,339.8z"/>
									<path class="st23" d="M664.9,372.4L664.9,372.4c1.4-0.7,3.1-0.1,3.8,1.3l3.8,7.8c0.7,1.4,0.1,3.1-1.3,3.8l0,0
										c-1.4,0.7-3.1,0.1-3.8-1.3l-3.8-7.8C662.9,374.8,663.5,373.1,664.9,372.4z"/>
									<path class="st23" d="M600.8,343.6L600.8,343.6c1.4-0.6,3.1,0,3.7,1.4l3.6,8c0.6,1.4,0,3.1-1.4,3.7l0,0
										c-1.4,0.6-3.1,0-3.7-1.4l-3.6-8C598.8,345.9,599.4,344.2,600.8,343.6z"/>
									<path class="st23" d="M621.1,335.3L621.1,335.3c1.3-0.9,3-0.5,3.9,0.8l4.8,7.3c0.8,1.3,0.5,3-0.8,3.9l0,0
										c-1.3,0.9-3,0.5-3.9-0.8l-4.8-7.3C619.4,337.9,619.8,336.1,621.1,335.3z"/>
									<path class="st23" d="M600.3,318.4L600.3,318.4c1.3-0.8,3-0.4,3.9,0.9l4.7,7.4c0.8,1.3,0.4,3-0.9,3.9l0,0
										c-1.3,0.8-3,0.4-3.9-0.9l-4.7-7.4C598.6,321,599,319.2,600.3,318.4z"/>
									<path class="st23" d="M580.8,299.6L580.8,299.6c1.1-1.1,2.8-1.2,4-0.1l6.3,6c1.1,1.1,1.2,2.8,0.1,4l0,0
										c-1.1,1.1-2.8,1.2-4,0.1l-6.3-6C579.8,302.5,579.7,300.7,580.8,299.6z"/>
									<path class="st23" d="M580.4,321.9L580.4,321.9c1.3-0.8,3-0.4,3.9,0.9l4.7,7.4c0.8,1.3,0.4,3-0.9,3.9l0,0
										c-1.3,0.8-3,0.4-3.9-0.9l-4.7-7.4C578.7,324.5,579.1,322.7,580.4,321.9z"/>
									<path class="st23" d="M627.6,416L627.6,416c-0.3-1.5,0.7-3,2.2-3.3l8.6-1.6c1.5-0.3,3,0.7,3.3,2.2l0,0
										c0.3,1.5-0.7,3-2.2,3.3l-8.6,1.6C629.4,418.6,627.9,417.6,627.6,416z"/>
								</g>
								<g>
									<path class="st12" d="M575.4,448c-9.4-3.3-15.5-6.4-15.5-6.4l0.1-35.3l16.4-4L575.4,448z"/>
									<line class="st9" x1="575.5" y1="441.6" x2="559.9" y2="437.5"/>
									<line class="st9" x1="575.7" y1="432.5" x2="559.9" y2="430.6"/>
									<line class="st9" x1="575.9" y1="422.6" x2="559.9" y2="421.6"/>
									<line class="st9" x1="576.2" y1="411.1" x2="560" y2="412.5"/>
								</g>
							</g>
						</g>
						<g>
							<g>
								<path class="st14" d="M575.8,300.5l-31.9-0.4c-1.5,0-2.7-1.2-2.7-2.7l0.1-12.8c0-1.5,1.2-2.7,2.7-2.6l31.9,0.4
									c1.5,0,2.7,1.2,2.7,2.7l-0.1,12.8C578.5,299.3,577.3,300.5,575.8,300.5z"/>
								<path class="st10" d="M575.8,300.5l-31.9-0.4c-1.5,0-2.7-1.2-2.7-2.7l0.1-12.8c0-1.5,1.2-2.7,2.7-2.6l31.9,0.4
									c1.5,0,2.7,1.2,2.7,2.7l-0.1,12.8C578.5,299.3,577.3,300.5,575.8,300.5z"/>
							</g>
							<g>
								<line class="st10" x1="546.6" y1="282" x2="546.6" y2="300.2"/>
								<line class="st10" x1="553.2" y1="282" x2="553.2" y2="300.2"/>
								<line class="st10" x1="559.8" y1="282" x2="559.8" y2="300.2"/>
								<line class="st10" x1="566.4" y1="282" x2="566.4" y2="300.2"/>
								<line class="st10" x1="573" y1="282" x2="573" y2="300.2"/>
							</g>
						</g>
					</g>
				</g>
				<g>
					<g>
						<g>
							<polygon class="st27" points="618.4,452.6 553.1,450.3 521.8,489.2 607.5,495.3 							"/>
							<polygon class="st27" points="633.9,449.3 568.9,443.7 531.9,480.7 616.7,491.1 							"/>
						</g>
						<g>
							<g>
								<path class="st28" d="M637,453.8L637,453.8c0,2.9-1.2,5.3-2.7,5.3l-40.4,0.4c-1.5,0-2.8-2.4-2.8-5.3l0,0
									c0-2.9,1.2-5.8,2.8-5.8l40.4,0.1C635.7,448.5,637,450.9,637,453.8z"/>
							</g>
							<g>
								<g>
									<path class="st16" d="M636.4,453.8c0,1.6-0.3,4.6-2.4,4.7c-0.8,0-1.7,0-2.5,0c-3.4,0-6.8,0.1-10.2,0.1
										c-7.9,0.1-15.8,0.1-23.7,0.2c-1,0-2,0-3,0c-1.2,0-1.9-0.5-2.4-1.8c-0.7-1.8-0.7-4-0.1-5.8c0.3-0.9,0.8-2,1.8-2.2
										c0.6-0.1,1.3,0,1.9,0c7.4,0,14.9,0,22.3,0c3.8,0,7.6,0,11.3,0c1.2,0,2.3,0,3.5,0c0.5,0,1.1-0.1,1.5,0
										C636.1,449.7,636.3,452.5,636.4,453.8c0,0.8,1.3,0.8,1.2,0c-0.1-2.2-0.8-5.7-3.5-5.9c-0.6,0-1.2,0-1.8,0c-3.5,0-7,0-10.4,0
										c-8.5,0-16.9,0-25.4,0c-0.8,0-1.7,0-2.5,0c-1.9,0.1-2.9,2-3.3,3.7c-0.6,2.5-0.6,7.2,2.2,8.4c0.6,0.3,1.4,0.2,2.1,0.2
										c7.8-0.1,15.7-0.1,23.5-0.2c4,0,8-0.1,12-0.1c1.9,0,4.6,0.5,5.9-1.3c1-1.3,1.2-3.1,1.3-4.7
										C637.6,453,636.4,453,636.4,453.8z"/>
								</g>
							</g>
							<g>
								
									<rect x="622.5" y="448.6" transform="matrix(1 -9.284765e-03 9.284765e-03 1 -4.1879 5.8205)" class="st29" width="4.6" height="10.7"/>
								<g>
									<path class="st16" d="M626.4,448.6c0,3.1,0.1,6.2,0.1,9.3c0,0.4,0,0.9,0,1.3c0.2-0.2,0.4-0.4,0.6-0.6c-1.5,0-3.1,0-4.6,0
										c0.2,0.2,0.4,0.4,0.6,0.6c0-3.1-0.1-6.2-0.1-9.3c0-0.4,0-0.9,0-1.3c-0.2,0.2-0.4,0.4-0.6,0.6c1.5,0,3.1,0,4.6,0
										c0.8,0,0.8-1.3,0-1.2c-1.5,0-3.1,0-4.6,0c-0.3,0-0.6,0.3-0.6,0.6c0,3.1,0.1,6.2,0.1,9.3c0,0.4,0,0.9,0,1.3
										c0,0.3,0.3,0.6,0.6,0.6c1.5,0,3.1,0,4.6,0c0.3,0,0.6-0.3,0.6-0.6c0-3.1-0.1-6.2-0.1-9.3c0-0.4,0-0.9,0-1.3
										C627.6,447.8,626.4,447.8,626.4,448.6z"/>
								</g>
							</g>
							<g>
								<g>
									<path class="st14" d="M593.2,459.2l-14.2-4.9l14.2-5.4c0.4-0.1,0.7,0.4,0.7,1.1l0,8.1C593.9,458.8,593.5,459.3,593.2,459.2
										z"/>
									<g>
										<path class="st16" d="M593.3,458.6c-4.1-1.4-8.2-2.9-12.4-4.3c-0.6-0.2-1.2-0.4-1.8-0.6c0,0.4,0,0.8,0,1.2
											c3.2-1.2,6.3-2.4,9.5-3.6c1.5-0.6,3-1.1,4.5-1.7c0,0,0.2-0.1,0.2-0.1c-0.3-0.1-0.1,0.4-0.1,0.6c0,0.1,0,0.2,0,0.3
											c0,0.8,0,1.6,0,2.5c0,1.2,0,2.5,0,3.7c0,0.4,0,0.9,0,1.3c0,0.1,0,0.2,0,0.3C593.2,458.3,593,458.5,593.3,458.6
											c-0.8-0.1-1.1,1.1-0.3,1.2c1.2,0.2,1.5-1.1,1.5-2c0-1,0-2,0-3c0-1.2,0-2.4,0-3.6c0-0.8,0.1-1.7-0.3-2.4
											c-0.4-0.7-1-0.7-1.7-0.4c-0.7,0.3-1.5,0.6-2.2,0.8c-2.3,0.9-4.6,1.8-6.8,2.6c-1.6,0.6-3.1,1.2-4.7,1.8
											c-0.6,0.2-0.6,1,0,1.2c4.1,1.4,8.2,2.9,12.4,4.3c0.6,0.2,1.2,0.4,1.8,0.6C593.7,460.1,594.1,458.9,593.3,458.6z"/>
									</g>
								</g>
								<polygon class="st16" points="586.5,456.4 586.4,451.4 579,454.3 								"/>
							</g>
							<g>
								<path class="st19" d="M628.8,459.2l6.9-0.1c2,0,3.5-2.4,3.5-5.3l0,0c0-2.9-1.6-5.3-3.6-5.3h-6.9L628.8,459.2z"/>
								<g>
									<path class="st16" d="M628.8,459.8c1.5,0,3.1,0,4.7,0c0.7,0,1.5,0,2.2,0c1,0,1.9-0.5,2.6-1.2c1-1.1,1.5-2.7,1.6-4.2
										c0-0.2,0-0.5,0-0.7c0-0.1,0-0.2,0-0.1c0,0.2,0-0.1,0-0.2c0-0.4-0.1-0.8-0.2-1.2c-0.2-0.8-0.4-1.5-0.9-2.2
										c-0.7-1.1-1.8-2-3.1-2c-0.5,0-1.1,0-1.6,0c-1.8,0-3.6,0-5.4,0c-0.3,0-0.6,0.3-0.6,0.6c0,3.1,0.1,6.2,0.1,9.4
										c0,0.4,0,0.9,0,1.3c0,0.8,1.3,0.8,1.2,0c0-3.1-0.1-6.2-0.1-9.4c0-0.4,0-0.9,0-1.3c-0.2,0.2-0.4,0.4-0.6,0.6
										c1.4,0,2.8,0,4.2,0c0.8,0,1.5,0,2.3,0c0.7,0,1.2,0.1,1.7,0.5c1.1,0.9,1.5,2.4,1.6,3.7c0,0.2,0,0.4,0,0.6c0,0,0,0,0,0.1
										c0,0.1,0,0.1,0,0c0-0.2,0,0.1,0,0.1c-0.1,0.4-0.1,0.8-0.2,1.2c-0.2,0.7-0.4,1.3-0.8,1.9c-0.5,0.7-1.1,1.2-2,1.2
										c-0.6,0-1.3,0-1.9,0c-1.6,0-3.3,0-4.9,0C628,458.6,628,459.8,628.8,459.8z"/>
								</g>
							</g>
							<g>
								
									<rect x="627.1" y="448.6" transform="matrix(1 -9.284635e-03 9.284635e-03 1 -4.1873 5.8629)" class="st29" width="4.5" height="10.7"/>
								<g>
									<path class="st16" d="M630.9,448.5c0,3.1,0.1,6.2,0.1,9.3c0,0.4,0,0.9,0,1.3c0.2-0.2,0.4-0.4,0.6-0.6c-1.5,0-3,0-4.5,0
										c0.2,0.2,0.4,0.4,0.6,0.6c0-3.1-0.1-6.2-0.1-9.3c0-0.4,0-0.9,0-1.3c-0.2,0.2-0.4,0.4-0.6,0.6c1.5,0,3,0,4.5,0
										c0.8,0,0.8-1.3,0-1.2c-1.5,0-3,0-4.5,0c-0.3,0-0.6,0.3-0.6,0.6c0,3.1,0.1,6.2,0.1,9.3c0,0.4,0,0.9,0,1.3
										c0,0.3,0.3,0.6,0.6,0.6c1.5,0,3,0,4.5,0c0.3,0,0.6-0.3,0.6-0.6c0-3.1-0.1-6.2-0.1-9.3c0-0.4,0-0.9,0-1.3
										C632.2,447.7,630.9,447.7,630.9,448.5z"/>
								</g>
							</g>
						</g>
					</g>
					<g>
						<g>
							<g>
								<polygon class="st30" points="239.6,464.4 212.5,391.4 224.7,387.7 250.9,460.5 								"/>
								<g>
									<line class="st9" x1="214.4" y1="396.4" x2="218.7" y2="395.1"/>
									<line class="st9" x1="216.2" y1="401.3" x2="220.5" y2="400.1"/>
									<line class="st9" x1="218.4" y1="406.4" x2="222.7" y2="405.1"/>
									<line class="st9" x1="220.1" y1="411.2" x2="224.4" y2="409.9"/>
									<line class="st9" x1="221.8" y1="416.7" x2="226.1" y2="415.4"/>
									<line class="st9" x1="223.8" y1="421.6" x2="228.1" y2="420.3"/>
									<line class="st9" x1="225.9" y1="426.7" x2="230.1" y2="425.4"/>
									<line class="st9" x1="227.8" y1="432.1" x2="232.1" y2="430.8"/>
									<line class="st9" x1="229.2" y1="436.9" x2="233.5" y2="435.6"/>
									<line class="st9" x1="231.1" y1="441" x2="235.4" y2="439.7"/>
								</g>
							</g>
							<g>
								<g>
									<g>
										<path class="st31" d="M246.2,449.7L246.2,449.7c-3.3,0.8-6.3,0.3-6.6-1l-7.9-34.3c-0.3-1.3,2.2-3,5.5-3.8l0,0
											c3.3-0.8,6.8-0.4,7.1,0.9l7.3,34.4C252,447.3,249.5,449,246.2,449.7z"/>
									</g>
									<g>
										<g>
											<path class="st16" d="M246,449.1c-1.4,0.3-5.1,1.1-5.9-0.7c-0.2-0.6-0.3-1.3-0.4-2c-0.7-3-1.4-5.9-2-8.9
												c-1.6-6.9-3.1-13.8-4.7-20.6c-0.2-0.8-0.4-1.5-0.5-2.3c-0.2-1.3,1.4-2,2.4-2.5c1.7-0.8,3.6-1.2,5.4-1.2
												c0.9,0,3-0.1,3.5,0.8c0.2,0.4,0.2,0.9,0.3,1.3c1.4,6.5,2.8,13,4.2,19.5c0.8,3.6,1.5,7.2,2.3,10.7
												c0.2,0.8,0.5,1.7,0.6,2.6C251.2,447.9,247.4,448.8,246,449.1c-0.8,0.2-0.4,1.4,0.3,1.2c1.8-0.5,5.9-1.6,6-4.1
												c0-0.5-0.2-1.1-0.3-1.6c-0.6-3-1.3-6-1.9-9c-1.6-7.4-3.2-14.9-4.8-22.3c-0.1-0.6-0.2-1.3-0.4-1.9c-0.6-2-3.7-1.9-5.4-1.8
												c-2.6,0.2-6.4,1-8.1,3.3c-0.5,0.8-0.4,1.4-0.3,2.2c1.6,6.8,3.1,13.6,4.7,20.4c0.8,3.5,1.6,7,2.4,10.5
												c0.2,0.9,0.4,1.7,0.6,2.5c0.3,1.3,1.4,1.8,2.7,2c1.6,0.2,3.2,0,4.8-0.3C247.1,450.2,246.8,449,246,449.1z"/>
										</g>
									</g>
								</g>
								<g>
									<path class="st26" d="M238.5,444.1l1.4,5.9c0.4,1.6,3.4,2.4,6.7,1.6l0,0c3.3-0.8,5.8-2.7,5.4-4.4l-1.3-5.9L238.5,444.1z"/>
									<g>
										<path class="st32" d="M237.9,444.3c0.3,1.5,0.7,3,1,4.4c0.1,0.5,0.2,1.1,0.4,1.6c0.4,1.1,1.4,1.7,2.5,2
											c2.9,0.8,6.5,0,8.9-1.8c0.9-0.6,1.7-1.5,1.9-2.5c0.1-0.6-0.1-1.2-0.2-1.7c-0.4-1.7-0.7-3.4-1.1-5.1
											c-0.1-0.3-0.4-0.5-0.8-0.4c-3.6,0.8-7.1,1.6-10.6,2.4c-0.5,0.1-1,0.2-1.5,0.4c-0.8,0.2-0.4,1.4,0.3,1.2
											c3.6-0.8,7.1-1.6,10.6-2.4c0.5-0.1,1-0.2,1.5-0.4c-0.3-0.1-0.5-0.3-0.8-0.4c0.3,1.3,0.6,2.6,0.8,3.9
											c0.1,0.6,0.3,1.3,0.4,1.9c0.1,0.7-0.2,1.2-0.7,1.7c-1.9,1.9-5.3,2.7-7.9,2.3c-0.9-0.1-2-0.4-2.3-1.4
											c-0.1-0.5-0.2-0.9-0.3-1.4c-0.3-1.5-0.7-3-1-4.5C238.9,443.2,237.7,443.5,237.9,444.3z"/>
									</g>
								</g>
								<g>
									
										<rect x="237.6" y="437.3" transform="matrix(0.9747 -0.2234 0.2234 0.9747 -91.9829 65.5743)" class="st33" width="12.5" height="4"/>
									<g>
										<path class="st32" d="M250.2,439.3c-3.5,0.8-7.1,1.6-10.6,2.4c-0.5,0.1-1,0.2-1.5,0.4c0.3,0.1,0.5,0.3,0.8,0.4
											c-0.3-1.3-0.6-2.6-0.9-3.9c-0.1,0.3-0.3,0.5-0.4,0.8c3.5-0.8,7.1-1.6,10.6-2.4c0.5-0.1,1-0.2,1.5-0.4
											c-0.3-0.1-0.5-0.3-0.8-0.4c0.3,1.3,0.6,2.6,0.9,3.9c0.2,0.8,1.4,0.5,1.2-0.3c-0.3-1.3-0.6-2.6-0.9-3.9
											c-0.1-0.3-0.4-0.5-0.8-0.4c-3.5,0.8-7.1,1.6-10.6,2.4c-0.5,0.1-1,0.2-1.5,0.4c-0.3,0.1-0.5,0.5-0.4,0.8
											c0.3,1.3,0.6,2.6,0.9,3.9c0.1,0.3,0.4,0.5,0.8,0.4c3.5-0.8,7.1-1.6,10.6-2.4c0.5-0.1,1-0.2,1.5-0.4
											C251.3,440.3,251,439.1,250.2,439.3z"/>
									</g>
								</g>
								<g>
									
										<rect x="238.5" y="441.2" transform="matrix(0.9747 -0.2234 0.2234 0.9747 -92.8267 65.8717)" class="st33" width="12.5" height="3.9"/>
									<g>
										<path class="st32" d="M251,443.1c-3.5,0.8-7.1,1.6-10.6,2.4c-0.5,0.1-1,0.2-1.5,0.4c0.3,0.1,0.5,0.3,0.8,0.4
											c-0.3-1.3-0.6-2.5-0.9-3.8c-0.1,0.3-0.3,0.5-0.4,0.8c3.5-0.8,7.1-1.6,10.6-2.4c0.5-0.1,1-0.2,1.5-0.4
											c-0.3-0.1-0.5-0.3-0.8-0.4c0.3,1.3,0.6,2.5,0.9,3.8c0.2,0.8,1.4,0.5,1.2-0.3c-0.3-1.3-0.6-2.5-0.9-3.8
											c-0.1-0.3-0.4-0.5-0.8-0.4c-3.5,0.8-7.1,1.6-10.6,2.4c-0.5,0.1-1,0.2-1.5,0.4c-0.3,0.1-0.5,0.5-0.4,0.8
											c0.3,1.3,0.6,2.5,0.9,3.8c0.1,0.3,0.4,0.5,0.8,0.4c3.5-0.8,7.1-1.6,10.6-2.4c0.5-0.1,1-0.2,1.5-0.4
											C252.2,444.2,251.8,443,251,443.1z"/>
									</g>
								</g>
								<g>
									<g>
										<path class="st14" d="M232,413.8l3-13.3l8.8,10.7c0.2,0.3-0.3,0.7-1.2,0.9l-9.3,2C232.6,414.3,231.9,414.1,232,413.8z"/>
										<g>
											<path class="st16" d="M232.6,414c0.9-3.9,1.8-7.7,2.6-11.6c0.1-0.6,0.2-1.1,0.4-1.7c-0.4,0.1-0.7,0.2-1,0.3
												c2.2,2.7,4.4,5.4,6.6,8c0.5,0.6,1.1,1.3,1.6,2c0.1,0.2,0.3,0.4,0.4,0.5c0,0,0.1,0.1,0.1,0.1c0,0,0,0,0,0
												c-0.2,0,0-0.4-0.2-0.4c-0.1,0-0.3,0.1-0.4,0.2c-0.5,0.2-1.1,0.2-1.6,0.4c-1,0.2-2.1,0.5-3.1,0.7
												c-1.2,0.3-2.4,0.5-3.5,0.8c-0.4,0.1-0.7,0.2-1.1,0.2c-0.1,0-0.2,0-0.2,0c0,0,0,0,0,0c-0.1,0-0.3,0-0.4,0
												c-0.4,0-0.2-0.1-0.2,0.2c0-0.8-1.2-0.8-1.2,0c0,1.9,4.3,0.5,5.2,0.2c2-0.4,4.1-0.9,6.1-1.3c0.9-0.2,2.4-0.9,1.6-2
												c-0.3-0.4-0.6-0.8-0.9-1.1c-1.5-1.8-3-3.6-4.5-5.4c-1.1-1.4-2.2-2.7-3.4-4.1c-0.3-0.4-0.9-0.2-1,0.3
												c-0.9,3.9-1.8,7.7-2.6,11.6c-0.1,0.6-0.2,1.1-0.4,1.7C231.2,414.4,232.4,414.7,232.6,414z"/>
										</g>
									</g>
									<polygon class="st16" points="233.9,407.4 239.6,406.1 235,400.5 									"/>
								</g>
							</g>
							<g>
								<g>
									<path class="st26" d="M250.3,444.6L250.3,444.6c-3.4-0.7-5.9-2.3-5.6-3.6l6.9-34.5c0.3-1.3,3.2-1.8,6.6-1.1l0,0
										c3.4,0.7,6.4,2.4,6.1,3.8l-7.4,34.4C256.6,444.8,253.6,445.3,250.3,444.6z"/>
								</g>
								<g>
									<g>
										<path class="st16" d="M250.4,444c-1.3-0.3-5.1-1.1-5.2-2.9c0-0.6,0.3-1.3,0.4-1.9c0.6-2.9,1.2-5.9,1.8-8.8
											c1.4-6.9,2.8-13.9,4.2-20.8c0.2-0.8,0.3-1.7,0.5-2.5c0.3-1.3,1.8-1.4,3-1.4c1.7,0,3.4,0.3,5,0.9c0.9,0.3,3.4,1.2,3.6,2.4
											c0,0.4-0.2,0.9-0.3,1.2c-1.4,6.5-2.8,13-4.2,19.5c-0.8,3.6-1.5,7.1-2.3,10.7c-0.2,0.9-0.3,1.8-0.6,2.7
											C255.7,445,251.9,444.3,250.4,444c-0.8-0.1-1.1,1.1-0.3,1.2c1.9,0.4,6.1,1,7.2-1.3c0.2-0.5,0.3-1.1,0.4-1.6
											c0.7-3,1.3-6.1,2-9.1c1.6-7.4,3.2-14.8,4.8-22.1c0.1-0.6,0.3-1.2,0.4-1.8c0.3-2.1-2.5-3.2-4-3.8c-2.5-0.9-6.6-1.9-9-0.3
											c-0.7,0.5-0.9,1.1-1,1.9c-1.4,6.9-2.8,13.8-4.1,20.6c-0.7,3.5-1.4,7-2.1,10.4c-0.2,0.8-0.4,1.6-0.5,2.5
											c-0.2,1.3,0.5,2.2,1.6,2.9c1.3,0.9,2.9,1.4,4.4,1.7C250.9,445.4,251.2,444.2,250.4,444z"/>
									</g>
								</g>
								<g>
									
										<rect x="250.3" y="428" transform="matrix(0.1969 -0.9804 0.9804 0.1969 -223.0231 596.1174)" class="st33" width="4" height="12.5"/>
									<g>
										<path class="st32" d="M258.2,436.8c-3.6-0.7-7.1-1.4-10.7-2.1c-0.5-0.1-1-0.2-1.5-0.3c0.1,0.3,0.3,0.5,0.4,0.8
											c0.3-1.3,0.5-2.6,0.8-4c-0.3,0.1-0.5,0.3-0.8,0.4c3.6,0.7,7.1,1.4,10.7,2.1c0.5,0.1,1,0.2,1.5,0.3
											c-0.1-0.3-0.3-0.5-0.4-0.8c-0.3,1.3-0.5,2.6-0.8,4c-0.2,0.8,1,1.1,1.2,0.3c0.3-1.3,0.5-2.6,0.8-4c0.1-0.3-0.1-0.7-0.4-0.8
											c-3.6-0.7-7.1-1.4-10.7-2.1c-0.5-0.1-1-0.2-1.5-0.3c-0.3-0.1-0.7,0.1-0.8,0.4c-0.3,1.3-0.5,2.6-0.8,4
											c-0.1,0.3,0.1,0.7,0.4,0.8c3.6,0.7,7.1,1.4,10.7,2.1c0.5,0.1,1,0.2,1.5,0.3C258.7,438.1,259,436.9,258.2,436.8z"/>
									</g>
								</g>
								<g>
									<g>
										<path class="st14" d="M252.1,406l8.2-10.9l3.7,13.4c0.1,0.4-0.6,0.5-1.5,0.4l-9.3-2C252.4,406.7,251.9,406.3,252.1,406z"
											/>
										<g>
											<path class="st16" d="M252.6,406.3c2.4-3.2,4.8-6.4,7.2-9.5c0.3-0.5,0.7-0.9,1-1.4c-0.4,0-0.8-0.1-1.1-0.1
												c0.9,3.4,1.8,6.7,2.8,10.1c0.2,0.8,0.4,1.6,0.7,2.4c0.1,0.2,0.1,0.5,0.2,0.7c0,0,0,0.1,0,0.1c0,0,0,0,0,0
												c0-0.1,0-0.1,0-0.2c0.1-0.2,0.1-0.2-0.1-0.2c-0.1,0-0.4,0-0.5,0c-1.6-0.2-3.1-0.6-4.7-1c-1.2-0.2-2.3-0.5-3.5-0.7
												c-0.4-0.1-0.7-0.1-1.1-0.2c-0.1,0-0.1,0-0.2,0c-0.1,0-0.2,0-0.2-0.1c-0.1,0-0.2-0.1-0.3-0.1c-0.1,0-0.1-0.1-0.2-0.1
												C252.5,405.9,252.5,406,252.6,406.3c0.3-0.7-0.7-1.4-1.1-0.6c-0.9,1.8,3.6,2.2,4.6,2.4c2,0.4,4.1,0.9,6.1,1.3
												c0.8,0.2,2.6,0.2,2.4-1.1c-0.1-0.5-0.3-1-0.4-1.4c-0.6-2.3-1.2-4.5-1.9-6.8c-0.5-1.7-0.9-3.4-1.4-5.1
												c-0.1-0.6-0.8-0.6-1.1-0.1c-2.4,3.2-4.8,6.4-7.2,9.5c-0.3,0.5-0.7,0.9-1,1.4C251.1,406.3,252.1,407,252.6,406.3z"/>
										</g>
									</g>
									<polygon class="st16" points="256.5,401 262.2,402.2 260.3,395.1 									"/>
								</g>
								<g>
									<path class="st26" d="M245.6,436.3l-1.2,5.9c-0.3,1.7,2.1,3.6,5.5,4.2l0,0c3.4,0.7,6.4-0.1,6.7-1.8l1.3-5.9L245.6,436.3z"
										/>
									<g>
										<path class="st32" d="M245,436.2c-0.3,1.5-0.6,3-0.9,4.5c-0.1,0.5-0.2,1-0.3,1.6c-0.2,1.1,0.5,2.1,1.3,2.8
											c2.3,2,5.8,2.7,8.8,2.2c1.1-0.2,2.4-0.6,3-1.5c0.3-0.5,0.4-1.1,0.5-1.6c0.4-1.7,0.7-3.4,1.1-5.1c0.1-0.3-0.1-0.7-0.4-0.8
											c-3.6-0.7-7.1-1.4-10.7-2.1c-0.5-0.1-1-0.2-1.5-0.3c-0.8-0.2-1.1,1-0.3,1.2c3.6,0.7,7.1,1.4,10.7,2.1
											c0.5,0.1,1,0.2,1.5,0.3c-0.1-0.3-0.3-0.5-0.4-0.8c-0.3,1.3-0.6,2.6-0.8,3.9c-0.1,0.6-0.3,1.3-0.4,1.9
											c-0.2,0.7-0.7,1.1-1.4,1.3c-2.6,0.9-6,0.2-8.2-1.3c-0.6-0.4-1.5-1.2-1.4-2c0.1-0.5,0.2-0.9,0.3-1.4c0.3-1.5,0.6-3,0.9-4.5
											C246.3,435.7,245.1,435.4,245,436.2z"/>
									</g>
								</g>
								<g>
									
										<rect x="249.6" y="431.8" transform="matrix(0.1968 -0.9804 0.9804 0.1968 -227.4411 598.476)" class="st33" width="3.9" height="12.5"/>
									<g>
										<path class="st32" d="M257.5,440.6c-3.6-0.7-7.1-1.4-10.7-2.1c-0.5-0.1-1-0.2-1.5-0.3c0.1,0.3,0.3,0.5,0.4,0.8
											c0.3-1.3,0.5-2.6,0.8-3.8c-0.3,0.1-0.5,0.3-0.8,0.4c3.6,0.7,7.1,1.4,10.7,2.1c0.5,0.1,1,0.2,1.5,0.3
											c-0.1-0.3-0.3-0.5-0.4-0.8c-0.3,1.3-0.5,2.6-0.8,3.8c-0.2,0.8,1.1,1.1,1.2,0.3c0.3-1.3,0.5-2.6,0.8-3.8
											c0.1-0.3-0.1-0.7-0.4-0.8c-3.6-0.7-7.1-1.4-10.7-2.1c-0.5-0.1-1-0.2-1.5-0.3c-0.3-0.1-0.7,0.1-0.8,0.4
											c-0.3,1.3-0.5,2.6-0.8,3.8c-0.1,0.3,0.1,0.7,0.4,0.8c3.6,0.7,7.1,1.4,10.7,2.1c0.5,0.1,1,0.2,1.5,0.3
											C257.9,442,258.3,440.8,257.5,440.6z"/>
									</g>
								</g>
							</g>
						</g>
						<g>
							<rect x="223.3" y="431.2" class="st17" width="43.6" height="44.4"/>
							<g>
								<path class="st14" d="M266.9,454.3v-1.6c-4.1-3.7-9.9-10.7-10.4-21.5h-0.9C256.1,443.1,262.6,450.6,266.9,454.3z"/>
								<path class="st14" d="M262.3,475.6c0.4-9.1-1.2-16.8-4.3-20.3c-1.8-2-5-3.7-9.8,0.2c-4,3.3-7.1,10-8.8,19.5
									c0,0.2-0.1,0.4-0.1,0.6h0.9c1.2-7,3.7-15,8.4-18.9c3.5-2.8,6.6-2.9,8.9-0.3c2.9,3.3,4.4,10.5,3.9,19.2H262.3z"/>
								<path class="st14" d="M227.5,475.6c0.5-6.6,4-12.8,10.4-21.7c5.5-7.7,9.2-15.3,10.9-22.7h-0.9c-1.7,7-5.2,14.3-10.6,21.7
									c-6.5,9.1-10.2,15.6-10.7,22.7H227.5z"/>
								<path class="st14" d="M223.3,447.6c2.9-0.1,6.9-1.1,9.6-5.4c1.7-2.7,2.6-6.4,2.7-11h-0.9c-0.1,4.2-0.9,7.6-2.4,10.1
									c-2.4,3.9-6.2,4.8-9,4.9L223.3,447.6L223.3,447.6z"/>
							</g>
							<rect x="223.3" y="431.2" class="st9" width="43.6" height="44.4"/>
						</g>
					</g>
				</g>
			</g>
		</g>
	</g>
</g>
</svg>
