<svg id="Photoshop" xmlns="http://www.w3.org/2000/svg" xmlns:xlink="http://www.w3.org/1999/xlink" width="100" height="100" viewBox="0 0 144.149 144.15">
  <defs>
    <radialGradient id="radial-gradient" cx="0.349" cy="0.222" r="0.838" gradientUnits="objectBoundingBox">
      <stop offset="0" stop-color="#193458" stop-opacity="0.98"/>
      <stop offset="0.933" stop-color="#210021"/>
    </radialGradient>
    <linearGradient id="linear-gradient" x1="-0.102" y1="0.219" x2="1.102" y2="0.781" gradientUnits="objectBoundingBox">
      <stop offset="0" stop-color="#fff" stop-opacity="0.2"/>
      <stop offset="1" stop-color="#fff" stop-opacity="0"/>
    </linearGradient>
  </defs>
  <rect id="Rectangle_32" data-name="Rectangle 32" width="137.597" height="137.597" transform="translate(3.276 3.276)" fill="url(#radial-gradient)"/>
  <path id="Path_184" data-name="Path 184" d="M145.15,145.15H1V1H145.15ZM7.552,138.6H138.6V7.552H7.552Z" transform="translate(-1 -1)" fill="#00b5ef"/>
  <path id="Path_185" data-name="Path 185" d="M19.1,84.627H6V6H24.489c13.68,0,25.92,9.975,27.249,23.59A26.239,26.239,0,0,1,25.657,58.418H19.1Zm0-39.314h6.552a13.1,13.1,0,0,0,0-26.209H19.1Z" transform="translate(26.761 26.761)" fill="#00b5ef"/>
  <path id="Path_186" data-name="Path 186" d="M27.365,67.821A42.5,42.5,0,0,1,13.053,64L18.914,52.28a30.331,30.331,0,0,0,11.853,2.585,4.871,4.871,0,0,0,1.542-9.493L29.149,44.32c-6.686-2.227-12.033-7.833-12.991-14.814A18,18,0,0,1,33.961,9a42.635,42.635,0,0,1,17.715,3.967L45.843,24.7a30.374,30.374,0,0,0-11.882-2.6A4.871,4.871,0,0,0,32.419,31.6l4.034,1.344a17.96,17.96,0,0,1,12.2,18.876C47.631,62.081,37.642,68.713,27.365,67.821Z" transform="translate(65.92 43.418)" fill="#00b5ef"/>
  <path id="Path_187" data-name="Path 187" d="M145.15,145.15H1V1H145.15Z" transform="translate(-1 -1)" fill="url(#linear-gradient)"/>
</svg>
