<svg id="Kotlin" xmlns="http://www.w3.org/2000/svg" width="100" height="100" viewBox="0 0 162.886 145.446">
  <circle id="Ellipse_5" data-name="Ellipse 5" cx="14.881" cy="14.881" r="14.881" transform="translate(66.563 57.762)" fill="#61dafb"/>
  <path id="Path_152" data-name="Path 152" d="M97.858,130c11.68,11.36,23.2,18.081,32.481,18.081a16.077,16.077,0,0,0,8.32-2.08c8.32-4.8,11.36-16.8,8.48-33.921-.48-3.04-1.12-6.08-1.92-9.28,3.2-.96,6.08-1.92,8.96-2.88,16.161-6.24,25.121-14.881,25.121-24.321,0-9.6-8.96-18.241-25.121-24.321a73.4,73.4,0,0,0-8.96-2.88c.8-3.2,1.44-6.24,1.92-9.28,2.72-17.441-.32-29.6-8.64-34.4a16.077,16.077,0,0,0-8.32-2.08c-9.12,0-20.8,6.72-32.481,18.081C86.178,9.352,74.657,2.631,65.377,2.631a16.077,16.077,0,0,0-8.32,2.08c-8.32,4.8-11.36,16.8-8.48,33.921.48,3.04,1.12,6.08,1.92,9.28-3.2.96-6.08,1.92-8.96,2.88-16.161,6.24-25.121,14.881-25.121,24.321,0,9.6,8.96,18.241,25.121,24.321a73.4,73.4,0,0,0,8.96,2.88c-.8,3.2-1.44,6.24-1.92,9.28-2.72,17.121.32,29.281,8.48,33.921a16.077,16.077,0,0,0,8.32,2.08C74.657,147.917,86.178,141.2,97.858,130ZM88.9,108.4c2.88.16,5.92.16,8.96.16s6.08,0,8.96-.16c-2.88,3.84-5.92,7.36-8.96,10.72C94.818,115.756,91.778,112.236,88.9,108.4ZM69.057,91.915c1.6,2.72,3.04,5.28,4.8,7.84-4.96-.64-9.6-1.44-14.081-2.4,1.44-4.32,3.04-8.8,4.96-13.281C66.017,86.635,67.457,89.355,69.057,91.915Zm-9.28-38.561c4.48-.96,9.12-1.76,14.081-2.4-1.6,2.56-3.2,5.12-4.8,7.84s-3.04,5.28-4.32,8A106.965,106.965,0,0,1,59.777,53.353Zm8.8,21.921c2.08-4.32,4.32-8.64,6.88-12.96,2.4-4.16,5.12-8.32,7.84-12.48,4.8-.32,9.6-.48,14.561-.48,5.12,0,9.92.16,14.561.48,2.88,4.16,5.44,8.32,7.84,12.48,2.56,4.32,4.8,8.64,6.88,12.96-2.08,4.32-4.32,8.64-6.88,12.96-2.4,4.16-5.12,8.32-7.84,12.48-4.8.32-9.6.48-14.561.48-5.12,0-9.92-.16-14.561-.48-2.88-4.16-5.44-8.32-7.84-12.48C72.9,83.914,70.657,79.594,68.577,75.274Zm62.562-8.64-4.32-8c-1.6-2.72-3.04-5.28-4.8-7.84,4.96.64,9.6,1.44,14.081,2.4C134.659,57.673,133.059,62.154,131.139,66.634Zm0,17.281c1.92,4.48,3.52,8.96,4.96,13.28-4.48.96-9.12,1.76-14.081,2.4,1.6-2.56,3.2-5.12,4.8-7.84C128.259,89.355,129.7,86.635,131.139,83.914Zm3.68,55.522a8.682,8.682,0,0,1-4.64,1.12c-7.84,0-17.6-6.4-27.2-16a167.525,167.525,0,0,0,13.6-16.8,146.542,146.542,0,0,0,21.441-3.36,82.707,82.707,0,0,1,1.76,8.64C142.02,126.636,140.26,136.4,134.819,139.437Zm8.32-84.323c17.921,5.12,28.641,12.96,28.641,20.161,0,6.24-7.36,12.48-20.321,17.441-2.56.96-5.44,1.92-8.32,2.72a168.171,168.171,0,0,0-7.84-20.161A144.924,144.924,0,0,0,143.14,55.113Zm-12.8-45.122a9.063,9.063,0,0,1,4.64,1.12c5.28,3.04,7.2,12.64,4.96,26.4-.48,2.72-1.12,5.6-1.76,8.64a207.647,207.647,0,0,0-21.441-3.36,147.835,147.835,0,0,0-13.6-16.8C112.739,16.552,122.5,9.992,130.339,9.992ZM106.818,42.153c-2.88-.16-5.92-.16-8.96-.16s-6.08,0-8.96.16c2.88-3.84,5.92-7.36,8.96-10.72C100.9,34.793,103.938,38.473,106.818,42.153ZM60.9,11.112a8.682,8.682,0,0,1,4.64-1.12c7.84,0,17.6,6.4,27.2,16a167.522,167.522,0,0,0-13.6,16.8A146.539,146.539,0,0,0,57.7,46.153a82.712,82.712,0,0,1-1.76-8.64C53.7,23.912,55.456,14.312,60.9,11.112Zm-8.32,84.323c-17.921-5.12-28.641-12.96-28.641-20.161,0-6.24,7.36-12.48,20.321-17.441,2.56-.96,5.44-1.92,8.32-2.72a168.169,168.169,0,0,0,7.84,20.161A153.1,153.1,0,0,0,52.576,95.435Zm3.36,17.6c.48-2.72,1.12-5.6,1.76-8.64a207.646,207.646,0,0,0,21.441,3.36,147.835,147.835,0,0,0,13.6,16.8c-9.6,9.44-19.361,16-27.2,16a9.063,9.063,0,0,1-4.64-1.12C55.456,136.4,53.7,126.636,55.936,113.036Z" transform="translate(-16.415 -2.631)" fill="#61dafb"/>
</svg>
