<svg id="_x33__x2C__XD_x2C__Adobe" xmlns="http://www.w3.org/2000/svg" width="100" height="100" viewBox="0 0 241.932 241.931">
  <g id="Group_62" data-name="Group 62" transform="translate(0 0)">
    <rect id="Rectangle_26" data-name="Rectangle 26" width="241.932" height="241.931" fill="#ff26be"/>
    <rect id="Rectangle_27" data-name="Rectangle 27" width="220.642" height="220.642" transform="translate(10.643 10.646)" fill="#2e001f"/>
    <g id="Group_61" data-name="Group 61" transform="translate(45.398 64.766)">
      <g id="Group_60" data-name="Group 60">
        <path id="Path_106" data-name="Path 106" d="M177.212,137.4h-18.9l-20.287,42.43L117.467,137.4H98l27.552,55.093L97.016,248.9h19.238l20.65-43.233,20.89,43.233h20.823l-29.411-57.076Zm52.244,0v28.353H224.01c-18.584,0-41.051,11.984-41.051,42.6,0,23.664,11.99,41.451,37.529,41.451,18.8,0,27.663-6.5,27.663-6.5V137.4Zm-.018,96.111s-2.153.947-7.231.947-20.66-2.237-20.66-26.944,17.905-26.685,22.208-26.685,5.682,1.206,5.682,1.206v51.477Z" transform="translate(-97.016 -137.396)" fill="#ffd9f2"/>
      </g>
    </g>
  </g>
</svg>
