<?xml version="1.0" encoding="utf-8"?>
<!-- Generator: Adobe Illustrator 26.1.0, SVG Export Plug-In . SVG Version: 6.00 Build 0)  -->
<svg version="1.1" id="Layer_1" xmlns="http://www.w3.org/2000/svg" xmlns:xlink="http://www.w3.org/1999/xlink" x="0px" y="0px"
	 viewBox="0 0 500 458.1" style="enable-background:new 0 0 500 458.1;" xml:space="preserve">
<style type="text/css">
	.st0{fill:#FFFFFF;}
	.st1{fill:#BEDAFF;}
	.st2{fill:#00E9FF;}
	.st3{fill:#3A55CA;}
	.st4{fill:#0382FF;}
	.st5{fill:#C3E0FE;}
	.st6{fill:url(#SVGID_1_);}
	.st7{fill:url(#SVGID_00000103974911501075416730000015994000585626860937_);}
	.st8{fill:url(#SVGID_00000093888884874837766780000007041576273067101339_);}
	.st9{fill:url(#SVGID_00000005237236098215539540000009839674942024292023_);}
	.st10{fill:url(#SVGID_00000180339310267221774270000013196463191897348795_);}
	.st11{fill:url(#SVGID_00000175295776675892508640000010780148422423095690_);}
	.st12{fill:url(#SVGID_00000018917914379331115430000002589553992851397507_);}
	.st13{fill:url(#SVGID_00000029728597488910016200000005023337812432087706_);}
	.st14{fill:url(#SVGID_00000178199426996012098930000005339955041521070472_);}
	.st15{fill:#A9BDEA;}
	.st16{fill:url(#SVGID_00000132796525065864220050000017307739140707581078_);}
	.st17{fill:url(#SVGID_00000081610365863282067430000018078416150167067779_);}
	.st18{fill:#A3B9E8;}
	.st19{fill:#7B97C9;}
	.st20{fill:#90A9D6;}
	.st21{opacity:0.32;}
	.st22{display:none;fill:url(#SVGID_00000103967786393765481320000016274301226523230890_);}
	.st23{fill:url(#SVGID_00000022548488645942034700000018147967918811678906_);}
	.st24{fill:url(#SVGID_00000036242854954629942430000016337318647298524053_);}
	.st25{fill:#2645B5;}
	.st26{fill:#335185;}
	.st27{fill:#9CC0E8;}
	.st28{fill:url(#SVGID_00000106136203281047963560000017556809164786551228_);}
	.st29{fill:url(#SVGID_00000023976902602831296610000006382537966897806777_);}
	.st30{fill:url(#SVGID_00000141453698222037428830000007221094660921922973_);}
	.st31{fill:url(#SVGID_00000109749155776207178380000013901052408917777587_);}
	.st32{fill:#BDCEFA;}
	.st33{fill:url(#SVGID_00000052817500954359265960000000406568384607900804_);}
	.st34{fill:url(#SVGID_00000148642513944577573110000016849056089637258627_);}
	.st35{fill:url(#SVGID_00000067929728137035782150000003181580810346504114_);}
	.st36{fill:url(#SVGID_00000072275852849462439430000012478044931384861573_);}
	.st37{fill:url(#SVGID_00000082364141032613565370000013505475323008825263_);}
	.st38{fill:url(#SVGID_00000118383038809580685950000015867050698490649734_);}
	.st39{fill:url(#SVGID_00000041267979117359991040000002376208334559726772_);}
	.st40{fill:url(#SVGID_00000025436826720642222880000014177152735204619939_);}
	.st41{fill:url(#SVGID_00000071521961938064496870000000316315915954342816_);}
	.st42{fill:url(#SVGID_00000133520526228886580630000004170098683763583155_);}
	.st43{fill:url(#SVGID_00000085934735171169110180000010878584019838526611_);}
	.st44{fill:url(#SVGID_00000101088718203712982050000016479703343144722329_);}
	.st45{fill:url(#SVGID_00000076567476027530725450000001778235309455964327_);}
	.st46{fill:#2D0D60;}
	.st47{fill:#FCC4B7;}
	.st48{fill:#293677;}
	.st49{fill:#DD936F;}
	.st50{fill-rule:evenodd;clip-rule:evenodd;fill:#B25E02;}
	.st51{fill:#FEFEFE;}
	.st52{fill:url(#SVGID_00000114794275662024118930000017852570250641354678_);}
	.st53{fill:url(#SVGID_00000124884454005067586760000003134593730701740707_);}
	.st54{fill:url(#SVGID_00000145739278113057170870000005500425060512170167_);}
	.st55{fill:url(#SVGID_00000097469270377554359220000010000106399110388149_);}
	.st56{fill:url(#SVGID_00000018916823628543541900000011404990411674112944_);}
	.st57{fill:url(#SVGID_00000062176509199567833670000013438084914685419180_);}
	.st58{fill:url(#SVGID_00000141413405290271850630000004045295718543491496_);}
	.st59{fill:url(#SVGID_00000151510025999199660350000002322675502753168809_);}
	.st60{fill:url(#SVGID_00000155113616970588102490000002590693043944495513_);}
	.st61{fill:url(#SVGID_00000173875353322226755310000010700743761399842694_);}
	.st62{fill:url(#SVGID_00000114789809094367581720000008894638593959537800_);}
	.st63{fill:url(#SVGID_00000043415384502956404930000003826698557226202295_);}
	.st64{fill:url(#SVGID_00000046314619894865957490000014682113666700387474_);}
	.st65{fill:url(#SVGID_00000003103827400754805980000012519518407361592998_);}
	.st66{fill:url(#SVGID_00000129902925139988224670000017266761347123246486_);}
	.st67{fill:url(#SVGID_00000026850335726032514510000004723290646977413305_);}
	.st68{fill:url(#SVGID_00000100367397793926673270000016409052019670348215_);}
	.st69{fill:url(#SVGID_00000008150617338182387440000014777311160578917039_);}
	.st70{fill:url(#SVGID_00000008828781789173202800000018361304870098576518_);}
	.st71{fill:url(#SVGID_00000036230052143602726160000005725505144884503947_);}
	.st72{fill:url(#SVGID_00000090263705078883032710000007336336736581454761_);}
	.st73{fill:url(#SVGID_00000047024683710716912230000009145081059122791339_);}
	.st74{fill:url(#SVGID_00000050662256251613018380000004503685092662650542_);}
	.st75{fill:url(#SVGID_00000126309287051961379870000005445630929710065305_);}
	.st76{fill:url(#SVGID_00000034050961222259800920000018193628506764390547_);}
	.st77{fill:url(#SVGID_00000116915308619556974470000008404306588661214606_);}
	.st78{fill:url(#SVGID_00000097496525006679426570000012821111351244603287_);}
	.st79{fill:url(#SVGID_00000074416765500877608440000007815160514557357188_);}
	.st80{fill:#484968;}
	.st81{fill:#F1AC85;}
	.st82{fill:#943BBB;}
	.st83{fill:#8800BF;}
	.st84{fill:#FFFFEB;}
	.st85{fill:#1F1F1F;}
	.st86{fill:#54A5F8;}
	.st87{fill:url(#SVGID_00000072244367100871042430000000764175074875886014_);}
	.st88{fill:#010400;}
	.st89{fill:#E28C66;}
	.st90{fill:url(#SVGID_00000006668828483761389690000006321462869955892401_);}
	.st91{fill:url(#SVGID_00000076582885393183238110000001891679545158613919_);}
	.st92{fill:url(#SVGID_00000100377095636313876120000004432416978449078949_);}
	.st93{fill:url(#SVGID_00000026868510072379753340000018186994971423180165_);}
	.st94{fill:url(#SVGID_00000164502564122017804360000009540417791690051516_);}
	.st95{fill:url(#SVGID_00000026861175500151621830000000753508638618509479_);}
	.st96{fill:#B6B9FE;}
	.st97{fill:#F9AB83;}
	.st98{fill:#2D2D4F;}
	.st99{fill:#1C1C38;}
	.st100{fill:#46466C;}
	.st101{fill:#E5A89C;}
	.st102{fill-rule:evenodd;clip-rule:evenodd;fill:#E58800;}
</style>
<g id="BACKGROUND">
</g>
<path class="st0" d="M-0.3,308.8L249.3,453l249.8-144.2L249.5,164.6L-0.3,308.8z M267.6,441.4L249.3,452L231,441.4l18.3-10.6
	L267.6,441.4z M248.4,430.4L230.1,441l-18.3-10.5l18.3-10.6L248.4,430.4z M229.3,419.3L211,429.9l-18.3-10.5l18.3-10.6L229.3,419.3z
	 M210.2,408.3l-18.3,10.6l-18.3-10.5l18.3-10.6L210.2,408.3z M191,397.2l-18.3,10.6l-18.3-10.5l18.3-10.6L191,397.2z M171.9,386.2
	l-18.3,10.6l-18.3-10.5l18.3-10.6L171.9,386.2z M152.8,375.1l-18.3,10.6l-18.3-10.5l18.3-10.6L152.8,375.1z M133.6,364.1l-18.3,10.6
	L97,364.2l18.3-10.6L133.6,364.1z M114.5,353l-18.3,10.6L77.9,353l18.3-10.6L114.5,353z M95.4,342l-18.3,10.6L58.8,342l18.3-10.6
	L95.4,342z M76.2,330.9l-18.3,10.6L39.6,331l18.3-10.6L76.2,330.9z M57.1,319.9l-18.3,10.6L20.5,320l18.3-10.6L57.1,319.9z
	 M37.9,308.8l-18.3,10.6L1.4,308.8l18.3-10.6L37.9,308.8z M286.7,430.3l-18.3,10.6l-18.3-10.5l18.3-10.6L286.7,430.3z M267.6,419.3
	l-18.3,10.6L231,419.3l18.3-10.6L267.6,419.3z M248.5,408.2l-18.3,10.6l-18.3-10.5l18.3-10.6L248.5,408.2z M229.3,397.2L211,407.8
	l-18.3-10.5l18.3-10.6L229.3,397.2z M210.2,386.2l-18.3,10.6l-18.3-10.5l18.3-10.6L210.2,386.2z M191,375.1l-18.3,10.6l-18.3-10.5
	l18.3-10.6L191,375.1z M171.9,364.1l-18.3,10.6l-18.3-10.5l18.3-10.6L171.9,364.1z M152.8,353l-18.3,10.6L116.2,353l18.3-10.6
	L152.8,353z M133.6,342l-18.3,10.6L97.1,342l18.3-10.6L133.6,342z M114.5,330.9l-18.3,10.6L78,330.9l18.3-10.6L114.5,330.9z
	 M95.4,319.9l-18.3,10.6L58.8,320l18.3-10.6L95.4,319.9z M76.2,308.8l-18.3,10.6l-18.3-10.5L58,298.3L76.2,308.8z M57.1,297.8
	l-18.3,10.6l-18.3-10.5l18.3-10.6L57.1,297.8z M305.9,419.3l-18.3,10.6l-18.3-10.5l18.3-10.6L305.9,419.3z M286.7,408.2l-18.3,10.6
	l-18.3-10.5l18.3-10.6L286.7,408.2z M267.6,397.2l-18.3,10.6L231,397.3l18.3-10.6L267.6,397.2z M248.5,386.1l-18.3,10.6l-18.3-10.5
	l18.3-10.6L248.5,386.1z M229.3,375.1L211,385.7l-18.3-10.5l18.3-10.6L229.3,375.1z M210.2,364l-18.3,10.6l-18.3-10.5l18.3-10.6
	L210.2,364z M191.1,353l-18.3,10.6L154.5,353l18.3-10.6L191.1,353z M171.9,341.9l-18.3,10.6L135.4,342l18.3-10.6L171.9,341.9z
	 M152.8,330.9l-18.3,10.6L116.2,331l18.3-10.6L152.8,330.9z M133.6,319.9l-18.3,10.6L97,320l18.3-10.6L133.6,319.9z M114.5,308.8
	l-18.3,10.6L78,308.8l18.3-10.6L114.5,308.8z M95.4,297.8l-18.3,10.6l-18.3-10.5l18.3-10.6L95.4,297.8z M76.2,286.7L58,297.3
	l-18.3-10.5L58,276.2L76.2,286.7z M325,408.2l-18.3,10.6l-18.3-10.5l18.3-10.6L325,408.2z M305.9,397.2l-18.3,10.6l-18.3-10.5
	l18.3-10.6L305.9,397.2z M286.8,386.1l-18.3,10.6l-18.3-10.5l18.3-10.6L286.8,386.1z M267.6,375.1l-18.3,10.6L231,375.2l18.3-10.6
	L267.6,375.1z M248.5,364l-18.3,10.6L211.9,364l18.3-10.6L248.5,364z M229.3,353L211,363.6L192.8,353l18.3-10.6L229.3,353z
	 M210.2,341.9l-18.3,10.6L173.6,342l18.3-10.6L210.2,341.9z M191.1,330.9l-18.3,10.6L154.5,331l18.3-10.6L191.1,330.9z M171.9,319.8
	l-18.3,10.6l-18.3-10.5l18.3-10.6L171.9,319.8z M152.8,308.8l-18.3,10.6l-18.3-10.5l18.3-10.6L152.8,308.8z M133.7,297.7l-18.3,10.6
	l-18.3-10.5l18.3-10.6L133.7,297.7z M114.5,286.7l-18.3,10.6L78,286.7l18.3-10.6L114.5,286.7z M95.4,275.7l-18.3,10.6l-18.3-10.5
	l18.3-10.6L95.4,275.7z M344.2,397.2l-18.3,10.6l-18.3-10.5l18.3-10.6L344.2,397.2z M325,386.1l-18.3,10.6l-18.3-10.5l18.3-10.6
	L325,386.1z M305.9,375.1l-18.3,10.6l-18.3-10.5l18.3-10.6L305.9,375.1z M286.8,364l-18.3,10.6L250.2,364l18.3-10.6L286.8,364z
	 M267.6,353l-18.3,10.6L231.1,353l18.3-10.6L267.6,353z M248.5,341.9l-18.3,10.6L211.9,342l18.3-10.6L248.5,341.9z M229.4,330.9
	l-18.3,10.6L192.8,331l18.3-10.6L229.4,330.9z M210.2,319.8l-18.3,10.6l-18.3-10.5l18.3-10.6L210.2,319.8z M191.1,308.8l-18.3,10.6
	l-18.3-10.5l18.3-10.6L191.1,308.8z M171.9,297.7l-18.3,10.6l-18.3-10.5l18.3-10.6L171.9,297.7z M152.8,286.7l-18.3,10.6l-18.3-10.5
	l18.3-10.6L152.8,286.7z M133.7,275.6l-18.3,10.6l-18.3-10.5l18.3-10.6L133.7,275.6z M114.5,264.6l-18.3,10.6L78,264.6L96.3,254
	L114.5,264.6z M363.3,386.1L345,396.7l-18.3-10.5l18.3-10.6L363.3,386.1z M344.2,375.1l-18.3,10.6l-18.3-10.5l18.3-10.6L344.2,375.1
	z M325.1,364l-18.3,10.6L288.5,364l18.3-10.6L325.1,364z M305.9,353l-18.3,10.6L269.4,353l18.3-10.6L305.9,353z M286.8,341.9
	l-18.3,10.6L250.2,342l18.3-10.6L286.8,341.9z M267.6,330.9l-18.3,10.6L231,331l18.3-10.6L267.6,330.9z M248.5,319.8l-18.3,10.6
	L212,319.8l18.3-10.6L248.5,319.8z M229.4,308.8l-18.3,10.6l-18.3-10.5l18.3-10.6L229.4,308.8z M210.2,297.7L192,308.3l-18.3-10.5
	l18.3-10.6L210.2,297.7z M191.1,286.7l-18.3,10.6l-18.3-10.5l18.3-10.6L191.1,286.7z M172,275.6l-18.3,10.6l-18.3-10.5l18.3-10.6
	L172,275.6z M152.8,264.6l-18.3,10.6l-18.3-10.5l18.3-10.6L152.8,264.6z M133.7,253.5l-18.3,10.6l-18.3-10.5l18.3-10.6L133.7,253.5z
	 M382.5,375.1l-18.3,10.6l-18.3-10.5l18.3-10.6L382.5,375.1z M363.3,364L345,374.6L326.8,364l18.3-10.6L363.3,364z M344.2,353
	l-18.3,10.6L307.7,353l18.3-10.6L344.2,353z M325.1,341.9l-18.3,10.6L288.5,342l18.3-10.6L325.1,341.9z M305.9,330.9l-18.3,10.6
	L269.3,331l18.3-10.6L305.9,330.9z M286.8,319.8l-18.3,10.6l-18.3-10.5l18.3-10.6L286.8,319.8z M267.7,308.8l-18.3,10.6l-18.3-10.5
	l18.3-10.6L267.7,308.8z M248.5,297.7l-18.3,10.6L212,297.7l18.3-10.6L248.5,297.7z M229.4,286.7l-18.3,10.6l-18.3-10.5l18.3-10.6
	L229.4,286.7z M210.2,275.6L192,286.2l-18.3-10.5l18.3-10.6L210.2,275.6z M191.1,264.6l-18.3,10.6l-18.3-10.5l18.3-10.6L191.1,264.6
	z M172,253.5l-18.3,10.6l-18.3-10.5l18.3-10.6L172,253.5z M152.8,242.5L134.6,253l-18.3-10.5l18.3-10.6L152.8,242.5z M401.6,364
	l-18.3,10.6L365.1,364l18.3-10.6L401.6,364z M382.5,353l-18.3,10.6L345.9,353l18.3-10.6L382.5,353z M363.3,341.9L345,352.5
	L326.7,342l18.3-10.6L363.3,341.9z M344.2,330.9l-18.3,10.6L307.6,331l18.3-10.6L344.2,330.9z M325.1,319.8l-18.3,10.6l-18.3-10.5
	l18.3-10.6L325.1,319.8z M305.9,308.8l-18.3,10.6l-18.3-10.5l18.3-10.6L305.9,308.8z M286.8,297.7l-18.3,10.6l-18.3-10.5l18.3-10.6
	L286.8,297.7z M267.7,286.7l-18.3,10.6l-18.3-10.5l18.3-10.6L267.7,286.7z M248.5,275.6l-18.3,10.6L212,275.6l18.3-10.6L248.5,275.6
	z M229.4,264.6l-18.3,10.6l-18.3-10.5l18.3-10.6L229.4,264.6z M210.3,253.5L192,264.1l-18.3-10.5L192,243L210.3,253.5z M191.1,242.5
	L172.8,253l-18.3-10.5l18.3-10.6L191.1,242.5z M172,231.4L153.7,242l-18.3-10.5l18.3-10.6L172,231.4z M420.8,353l-18.3,10.6
	L384.2,353l18.3-10.6L420.8,353z M401.6,341.9l-18.3,10.6L365,342l18.3-10.6L401.6,341.9z M382.5,330.9l-18.3,10.6L346,330.9
	l18.3-10.6L382.5,330.9z M363.4,319.8l-18.3,10.6l-18.3-10.5l18.3-10.6L363.4,319.8z M344.2,308.8l-18.3,10.6l-18.3-10.5l18.3-10.6
	L344.2,308.8z M325.1,297.7l-18.3,10.6l-18.3-10.5l18.3-10.6L325.1,297.7z M306,286.7l-18.3,10.6l-18.3-10.5l18.3-10.6L306,286.7z
	 M286.8,275.6l-18.3,10.6l-18.3-10.5l18.3-10.6L286.8,275.6z M267.7,264.6l-18.3,10.6l-18.3-10.5l18.3-10.6L267.7,264.6z
	 M248.5,253.5l-18.3,10.6L212,253.5l18.3-10.6L248.5,253.5z M229.4,242.5L211.1,253l-18.3-10.5l18.3-10.6L229.4,242.5z M210.3,231.4
	L192,242l-18.3-10.5l18.3-10.6L210.3,231.4z M191.1,220.4L172.8,231l-18.3-10.5l18.3-10.6L191.1,220.4z M439.9,341.9l-18.3,10.6
	L403.3,342l18.3-10.6L439.9,341.9z M420.8,330.9l-18.3,10.6L384.2,331l18.3-10.6L420.8,330.9z M401.6,319.8l-18.3,10.6L365,319.9
	l18.3-10.6L401.6,319.8z M382.5,308.8l-18.3,10.6L346,308.8l18.3-10.6L382.5,308.8z M363.4,297.7l-18.3,10.6l-18.3-10.5l18.3-10.6
	L363.4,297.7z M344.2,286.7L326,297.2l-18.3-10.5l18.3-10.6L344.2,286.7z M325.1,275.6l-18.3,10.6l-18.3-10.5l18.3-10.6L325.1,275.6
	z M306,264.6l-18.3,10.6l-18.3-10.5l18.3-10.6L306,264.6z M286.8,253.5l-18.3,10.6l-18.3-10.5l18.3-10.6L286.8,253.5z M267.7,242.5
	L249.4,253l-18.3-10.5l18.3-10.6L267.7,242.5z M248.6,231.4L230.3,242L212,231.4l18.3-10.6L248.6,231.4z M229.4,220.4L211.1,231
	l-18.3-10.5l18.3-10.6L229.4,220.4z M210.3,209.3L192,219.9l-18.3-10.5l18.3-10.6L210.3,209.3z M459.1,330.8l-18.3,10.6l-18.3-10.5
	l18.3-10.6L459.1,330.8z M439.9,319.8l-18.3,10.6l-18.3-10.5l18.3-10.6L439.9,319.8z M420.8,308.7l-18.3,10.6l-18.3-10.5l18.3-10.6
	L420.8,308.7z M401.7,297.7l-18.3,10.6l-18.3-10.5l18.3-10.6L401.7,297.7z M382.5,286.7l-18.3,10.6L346,286.7l18.3-10.6L382.5,286.7
	z M363.4,275.6l-18.3,10.6l-18.3-10.5l18.3-10.6L363.4,275.6z M344.2,264.6L326,275.1l-18.3-10.5L326,254L344.2,264.6z M325.1,253.5
	l-18.3,10.6l-18.3-10.5l18.3-10.6L325.1,253.5z M306,242.5L287.7,253l-18.3-10.5l18.3-10.6L306,242.5z M286.8,231.4L268.6,242
	l-18.3-10.5l18.3-10.6L286.8,231.4z M267.7,220.4L249.4,231l-18.3-10.5l18.3-10.6L267.7,220.4z M248.6,209.3l-18.3,10.6L212,209.3
	l18.3-10.6L248.6,209.3z M229.4,198.3l-18.3,10.6l-18.3-10.5l18.3-10.6L229.4,198.3z M478.2,319.8l-18.3,10.6l-18.3-10.5l18.3-10.6
	L478.2,319.8z M459.1,308.7l-18.3,10.6l-18.3-10.5l18.3-10.6L459.1,308.7z M439.9,297.7l-18.3,10.6l-18.3-10.5l18.3-10.6
	L439.9,297.7z M420.8,286.6l-18.3,10.6l-18.3-10.5l18.3-10.6L420.8,286.6z M401.7,275.6l-18.3,10.6l-18.3-10.5l18.3-10.6
	L401.7,275.6z M382.5,264.5l-18.3,10.6L346,264.6l18.3-10.6L382.5,264.5z M363.4,253.5l-18.3,10.6l-18.3-10.5l18.3-10.6L363.4,253.5
	z M344.3,242.4L326,253l-18.3-10.5l18.3-10.6L344.3,242.4z M325.1,231.4L306.8,242l-18.3-10.5l18.3-10.6L325.1,231.4z M306,220.4
	L287.7,231l-18.3-10.5l18.3-10.6L306,220.4z M286.9,209.3l-18.3,10.6l-18.3-10.5l18.3-10.6L286.9,209.3z M267.7,198.3l-18.3,10.6
	l-18.3-10.5l18.3-10.6L267.7,198.3z M248.6,187.2l-18.3,10.6L212,187.2l18.3-10.6L248.6,187.2z M497.4,308.7l-18.3,10.6l-18.3-10.5
	l18.3-10.6L497.4,308.7z M478.2,297.7L460,308.2l-18.3-10.5l18.3-10.6L478.2,297.7z M459.1,286.6l-18.3,10.6l-18.3-10.5l18.3-10.6
	L459.1,286.6z M440,275.6l-18.3,10.6l-18.3-10.5l18.3-10.6L440,275.6z M420.8,264.5l-18.3,10.6l-18.3-10.5l18.3-10.6L420.8,264.5z
	 M401.7,253.5L383.4,264l-18.3-10.5l18.3-10.6L401.7,253.5z M382.5,242.4L364.3,253L346,242.4l18.3-10.6L382.5,242.4z M363.4,231.4
	L345.1,242l-18.3-10.5l18.3-10.6L363.4,231.4z M344.3,220.3L326,230.9l-18.3-10.5l18.3-10.6L344.3,220.3z M325.1,209.3l-18.3,10.6
	l-18.3-10.5l18.3-10.6L325.1,209.3z M306,198.2l-18.3,10.6l-18.3-10.5l18.3-10.6L306,198.2z M286.9,187.2l-18.3,10.6l-18.3-10.5
	l18.3-10.6L286.9,187.2z M267.7,176.2l-18.3,10.6l-18.3-10.5l18.3-10.6L267.7,176.2z"/>
<g>
	<g>
		<path class="st1" d="M314.6,189l-3.7,2.1c-1.9,1.1-1.9,2.9,0,4l3.7,2.1c1.9,1.1,5.1,1.1,7,0l3.7-2.1c1.9-1.1,1.9-2.9,0-4l-3.7-2.1
			C319.7,187.9,316.6,187.9,314.6,189z"/>
		<path class="st1" d="M312.8,226.5L312.8,226.5c1.9,1.1,1.9,2.9,0,4l-2.6,1.5c-1.9,1.1-1.9,2.9,0,4l3.7,2.1c1.9,1.1,5.1,1.1,7,0
			l3.7-2.1c1.9-1.1,1.9-2.9,0-4l-2.8-1.6c-1.9-1.1-1.9-2.9,0-4l13.3-7.7c1.9-1.1,5.1-1.1,7,0l0.9,0.5c1.9,1.1,5.1,1.1,7,0l3.7-2.1
			c1.9-1.1,1.9-2.9,0-4L350,211c-1.9-1.1-5.1-1.1-7,0l-2.4,1.4c-1.9,1.1-5.1,1.1-7,0l-13-7.5c-1.9-1.1-5.1-1.1-7,0l-5.1,2.9
			c-1.9,1.1-5.1,1.1-7,0l-3.4-2c-1.9-1.1-5.1-1.1-7,0l-3.7,2.1c-1.9,1.1-1.9,2.9,0,4l3.4,2c1.9,1.1,1.9,2.9,0,4l-5.4,3.1
			c-1.9,1.1-1.9,2.9,0,4l7.9,4.6c1.9,1.1,5.1,1.1,7,0l5.4-3.1C307.7,225.4,310.8,225.4,312.8,226.5z"/>
	</g>
	<g>
		<path class="st1" d="M83.9,366.3l4-2.3c2.1-1.2,2.1-3.2,0-4.4l-4-2.3c-2.1-1.2-5.5-1.2-7.6,0l-4,2.3c-2.1,1.2-2.1,3.2,0,4.4l4,2.3
			C78.4,367.5,81.8,367.5,83.9,366.3z"/>
		<path class="st1" d="M86,325.3L86,325.3c-2.1-1.2-2.1-3.2,0-4.4l2.9-1.6c2.1-1.2,2.1-3.2,0-4.4l-4-2.3c-2.1-1.2-5.5-1.2-7.6,0
			l-4,2.3c-2.1,1.2-2.1,3.2,0,4.4l3.1,1.8c2.1,1.2,2.1,3.2,0,4.4l-14.6,8.4c-2.1,1.2-5.5,1.2-7.6,0l-1-0.6c-2.1-1.2-5.5-1.2-7.6,0
			l-4,2.3c-2.1,1.2-2.1,3.2,0,4.4l4,2.3c2.1,1.2,5.5,1.2,7.6,0l2.6-1.5c2.1-1.2,5.5-1.2,7.6,0l14.2,8.2c2.1,1.2,5.5,1.2,7.6,0
			l5.5-3.2c2.1-1.2,5.5-1.2,7.6,0l3.8,2.2c2.1,1.2,5.5,1.2,7.6,0l4-2.3c2.1-1.2,2.1-3.2,0-4.4l-3.8-2.2c-2.1-1.2-2.1-3.2,0-4.4
			l5.9-3.4c2.1-1.2,2.1-3.2,0-4.4l-8.6-5c-2.1-1.2-5.5-1.2-7.6,0l-5.9,3.4C91.5,326.5,88.1,326.5,86,325.3z"/>
	</g>
</g>
<g>
	<g>
		<path class="st2" d="M95.9,132.8c-4.1,2.4-7.5,8.2-7.5,13s3.4,6.7,7.5,4.3s7.5-8.2,7.5-13S100.1,130.4,95.9,132.8z M95.9,147.1
			c-2.7,1.6-4.9,0.3-4.9-2.8s2.2-6.9,4.9-8.5c2.7-1.6,4.9-0.3,4.9,2.8C100.8,141.7,98.6,145.5,95.9,147.1z"/>
		<path class="st3" d="M92.8,165c0,2.6-1.8,5.8-4.1,7.1c-2.3,1.3-4.1,0.2-4.1-2.4s1.8-5.8,4.1-7.1S92.8,162.4,92.8,165z"/>
		<path class="st3" d="M97,116.7c0,2.6-1.8,5.8-4.1,7.1c-2.3,1.3-4.1,0.2-4.1-2.4s1.8-5.8,4.1-7.1S97,114.1,97,116.7z"/>
		<rect x="71.2" y="152.5" transform="matrix(0.5 -0.866 0.866 0.5 -96.4723 144.6804)" class="st4" width="11.7" height="6.7"/>
		<path class="st5" d="M79.5,131.2l-3.4,2v-3.9c0-0.7-0.5-1-1.1-0.7c-0.6,0.4-1.1,1.2-1.1,2v3.9l-3.4,2c-0.6,0.4-1.1,1.2-1.1,2
			s0.5,1,1.1,0.7l3.4-2v3.9c0,0.7,0.5,1,1.1,0.7c0.6-0.4,1.1-1.2,1.1-2v-3.9l3.4-2c0.6-0.4,1.1-1.2,1.1-2S80.1,130.9,79.5,131.2z"/>
	</g>
	<g>
		<path class="st1" d="M266.8,62.3c-4.1,2.4-7.5,8.2-7.5,13s3.4,6.7,7.5,4.3c4.1-2.4,7.5-8.2,7.5-13
			C274.3,61.9,270.9,59.9,266.8,62.3z M266.8,76.6c-2.7,1.6-4.9,0.3-4.9-2.8c0-3.1,2.2-6.9,4.9-8.5c2.7-1.6,4.9-0.3,4.9,2.8
			C271.7,71.2,269.5,75.1,266.8,76.6z"/>
		<path class="st2" d="M261.3,89.7c0,2.6-1.8,5.8-4.1,7.1c-2.3,1.3-4.1,0.2-4.1-2.4s1.8-5.8,4.1-7.1
			C259.5,86.1,261.3,87.1,261.3,89.7z"/>
		<path class="st3" d="M267.4,45.7c0,2.6-1.8,5.8-4.1,7.1c-2.3,1.3-4.1,0.2-4.1-2.4s1.8-5.8,4.1-7.1
			C265.6,42.1,267.4,43.1,267.4,45.7z"/>
		<rect x="239.8" y="77.3" transform="matrix(0.5 -0.866 0.866 0.5 52.9453 253.0491)" class="st4" width="11.7" height="6.7"/>
		<path class="st5" d="M253.7,55.7l-3.4,2v-3.9c0-0.7-0.5-1-1.1-0.7c-0.6,0.4-1.1,1.2-1.1,2V59l-3.4,2c-0.6,0.4-1.1,1.2-1.1,2
			c0,0.7,0.5,1,1.1,0.7l3.4-2v3.9c0,0.7,0.5,1,1.1,0.7c0.6-0.4,1.1-1.2,1.1-2v-3.9l3.4-2c0.6-0.4,1.1-1.2,1.1-2
			S254.3,55.4,253.7,55.7z"/>
	</g>
</g>
<g>
	
		<linearGradient id="SVGID_1_" gradientUnits="userSpaceOnUse" x1="220.8542" y1="349.7319" x2="466.9153" y2="202.2393" gradientTransform="matrix(1 0 0 1 0 -140)">
		<stop  offset="0" style="stop-color:#E4F2FF;stop-opacity:0"/>
		<stop  offset="5.554383e-02" style="stop-color:#E1EFFF;stop-opacity:5.558312e-02"/>
		<stop  offset="0.6478" style="stop-color:#C7D7FB;stop-opacity:0.6483"/>
		<stop  offset="0.9993" style="stop-color:#BDCEFA"/>
	</linearGradient>
	<path class="st6" d="M436.6,224.5l-129.2-74.6c-4.8-2.8-7.7-7.8-7.7-13.3V17.9c0-11.9,12.8-19.3,23.1-13.3L452,79.2
		c4.8,2.8,7.7,7.8,7.7,13.3v118.6C459.8,223,446.9,230.4,436.6,224.5z"/>
	<g>
		
			<linearGradient id="SVGID_00000134216825764590901560000009228924057284118706_" gradientUnits="userSpaceOnUse" x1="518.0132" y1="183.0222" x2="139.4371" y2="378.7632" gradientTransform="matrix(1 0 0 1 0 -140)">
			<stop  offset="0" style="stop-color:#FFFFFF"/>
			<stop  offset="0.3656" style="stop-color:#E1E9FD;stop-opacity:0.6341"/>
			<stop  offset="0.7632" style="stop-color:#C7D5FB;stop-opacity:0.2363"/>
			<stop  offset="0.9993" style="stop-color:#BDCEFA;stop-opacity:0"/>
		</linearGradient>
		<path style="fill:url(#SVGID_00000134216825764590901560000009228924057284118706_);" d="M444.3,221.4c-1.8,0-3.5-0.5-5.1-1.4
			L310,145.4c-3.2-1.8-5.1-5.2-5.1-8.9V17.9c0-6.3,5.3-10.3,10.3-10.3c1.8,0,3.5,0.5,5.1,1.4l129.2,74.6c3.2,1.8,5.1,5.2,5.1,8.9
			v118.6C454.6,217.5,449.3,221.4,444.3,221.4z M315.2,8.7c-4.5,0-9.3,3.5-9.3,9.3v118.6c0,3.3,1.8,6.4,4.6,8l129.2,74.6
			c1.4,0.8,3,1.3,4.6,1.3c4.5,0,9.3-3.5,9.3-9.3V92.5c0-3.3-1.8-6.4-4.6-8L319.8,9.9C318.3,9.1,316.8,8.7,315.2,8.7z"/>
		<g>
			
				<linearGradient id="SVGID_00000163779369166802254840000003669002202891344304_" gradientUnits="userSpaceOnUse" x1="501.0555" y1="150.2248" x2="122.4793" y2="345.9658" gradientTransform="matrix(1 0 0 1 0 -140)">
				<stop  offset="0" style="stop-color:#FFFFFF"/>
				<stop  offset="0.3656" style="stop-color:#E1E9FD;stop-opacity:0.6341"/>
				<stop  offset="0.7632" style="stop-color:#C7D5FB;stop-opacity:0.2363"/>
				<stop  offset="0.9993" style="stop-color:#BDCEFA;stop-opacity:0"/>
			</linearGradient>
			<path style="fill:url(#SVGID_00000163779369166802254840000003669002202891344304_);" d="M438.2,109.9L326.6,45.4
				c-2.5-1.4-4.5-5.3-4.5-8.7l0,0c0-3.3,2-4.9,4.5-3.4l111.6,64.4c2.5,1.4,4.5,5.3,4.5,8.7l0,0C442.7,109.8,440.7,111.3,438.2,109.9
				z"/>
			
				<linearGradient id="SVGID_00000005240426907953093920000016208650032886934446_" gradientUnits="userSpaceOnUse" x1="501.9983" y1="152.0484" x2="123.4223" y2="347.7893" gradientTransform="matrix(1 0 0 1 0 -140)">
				<stop  offset="0" style="stop-color:#FFFFFF"/>
				<stop  offset="0.3656" style="stop-color:#E1E9FD;stop-opacity:0.6341"/>
				<stop  offset="0.7632" style="stop-color:#C7D5FB;stop-opacity:0.2363"/>
				<stop  offset="0.9993" style="stop-color:#BDCEFA;stop-opacity:0"/>
			</linearGradient>
			<path style="fill:url(#SVGID_00000005240426907953093920000016208650032886934446_);" d="M363.6,128.6l-35.4-20.4
				c-2.5-1.4-4.5-5.3-4.5-8.7V60.3c0-3.3,2-4.9,4.5-3.4l35.4,20.4c2.5,1.4,4.5,5.3,4.5,8.7v39.2
				C368.2,128.5,366.1,130.1,363.6,128.6z"/>
			
				<linearGradient id="SVGID_00000008136256115600322330000000997791050831168952_" gradientUnits="userSpaceOnUse" x1="531.7056" y1="209.5046" x2="153.1297" y2="405.2453" gradientTransform="matrix(1 0 0 1 0 -140)">
				<stop  offset="0" style="stop-color:#FFFFFF"/>
				<stop  offset="0.3656" style="stop-color:#E1E9FD;stop-opacity:0.6341"/>
				<stop  offset="0.7632" style="stop-color:#C7D5FB;stop-opacity:0.2363"/>
				<stop  offset="0.9993" style="stop-color:#BDCEFA;stop-opacity:0"/>
			</linearGradient>
			<path style="fill:url(#SVGID_00000008136256115600322330000000997791050831168952_);" d="M430.2,167l-35.4-20.4
				c-2.5-1.4-4.5-5.3-4.5-8.7V98.7c0-3.3,2-4.9,4.5-3.4l35.4,20.4c2.5,1.4,4.5,5.3,4.5,8.7v39.2C434.7,166.9,432.6,168.5,430.2,167z
				"/>
			<g>
				
					<linearGradient id="SVGID_00000020397005679092968250000008787583267670392250_" gradientUnits="userSpaceOnUse" x1="533.6561" y1="213.2759" x2="155.0801" y2="409.0168" gradientTransform="matrix(1 0 0 1 0 -140)">
					<stop  offset="0" style="stop-color:#FFFFFF"/>
					<stop  offset="0.3656" style="stop-color:#E1E9FD;stop-opacity:0.6341"/>
					<stop  offset="0.7632" style="stop-color:#C7D5FB;stop-opacity:0.2363"/>
					<stop  offset="0.9993" style="stop-color:#BDCEFA;stop-opacity:0"/>
				</linearGradient>
				<path style="fill:url(#SVGID_00000020397005679092968250000008787583267670392250_);" d="M436.6,188l-114.8-66.3
					c-0.7-0.4-1.3-1.5-1.3-2.5l0,0c0-0.9,0.6-1.4,1.3-1l114.8,66.3c0.7,0.4,1.3,1.5,1.3,2.5l0,0C437.9,188,437.3,188.5,436.6,188z"
					/>
				
					<linearGradient id="SVGID_00000047023375444629310230000016602965161330154369_" gradientUnits="userSpaceOnUse" x1="536.34" y1="218.4674" x2="157.764" y2="414.2083" gradientTransform="matrix(1 0 0 1 0 -140)">
					<stop  offset="0" style="stop-color:#FFFFFF"/>
					<stop  offset="0.3656" style="stop-color:#E1E9FD;stop-opacity:0.6341"/>
					<stop  offset="0.7632" style="stop-color:#C7D5FB;stop-opacity:0.2363"/>
					<stop  offset="0.9993" style="stop-color:#BDCEFA;stop-opacity:0"/>
				</linearGradient>
				<path style="fill:url(#SVGID_00000047023375444629310230000016602965161330154369_);" d="M436.6,194.6l-114.8-66.3
					c-0.7-0.4-1.3-1.5-1.3-2.5l0,0c0-0.9,0.6-1.4,1.3-1l114.8,66.3c0.7,0.4,1.3,1.5,1.3,2.5l0,0C437.9,194.6,437.3,195,436.6,194.6z
					"/>
				
					<linearGradient id="SVGID_00000136370648218699698580000015797055203376843439_" gradientUnits="userSpaceOnUse" x1="539" y1="223.6129" x2="160.424" y2="419.3537" gradientTransform="matrix(1 0 0 1 0 -140)">
					<stop  offset="0" style="stop-color:#FFFFFF"/>
					<stop  offset="0.3656" style="stop-color:#E1E9FD;stop-opacity:0.6341"/>
					<stop  offset="0.7632" style="stop-color:#C7D5FB;stop-opacity:0.2363"/>
					<stop  offset="0.9993" style="stop-color:#BDCEFA;stop-opacity:0"/>
				</linearGradient>
				<path style="fill:url(#SVGID_00000136370648218699698580000015797055203376843439_);" d="M436.6,201.1l-114.8-66.3
					c-0.7-0.4-1.3-1.5-1.3-2.5l0,0c0-0.9,0.6-1.4,1.3-1l114.8,66.3c0.7,0.4,1.3,1.5,1.3,2.5l0,0
					C437.9,201.1,437.3,201.6,436.6,201.1z"/>
			</g>
		</g>
	</g>
</g>
<g>
	<g>
		<g>
			
				<linearGradient id="SVGID_00000101813294454855390050000001163709081301965447_" gradientUnits="userSpaceOnUse" x1="239.8533" y1="152.1004" x2="114.6441" y2="468.8418" gradientTransform="matrix(1 0 0 1 0 -140)">
				<stop  offset="0" style="stop-color:#C3E0FE"/>
				<stop  offset="5.553947e-02" style="stop-color:#C1DDFC"/>
				<stop  offset="0.6478" style="stop-color:#ABC3EE"/>
				<stop  offset="0.9993" style="stop-color:#A3B9E8"/>
			</linearGradient>
			<path style="fill:url(#SVGID_00000101813294454855390050000001163709081301965447_);" d="M120.7,315.5v-227
				c0-6.3,3.8-13.6,8.5-16.3L226.5,16c4.7-2.7,8.5,0.2,8.5,6.4v227c0,6.3-3.8,13.6-8.5,16.3l-97.3,56.2
				C124.5,324.6,120.7,321.7,120.7,315.5z"/>
			<g>
				<path class="st15" d="M232.1,15.6L232.1,15.6l-0.2-0.1C232,15.5,232,15.6,232.1,15.6z"/>
				<path class="st15" d="M123,321.9c-1.4-1.2-2.3-3.4-2.3-6.4v-227c0-6.3,3.8-13.6,8.5-16.3L226.5,16c2.1-1.2,3.9-1.3,5.4-0.5
					l-5.2-3c-1.5-1.2-3.7-1.3-6.1,0.1l-97.3,56.2c-4.7,2.7-8.5,10-8.5,16.3v227c0,3.8,1.4,6.3,3.5,7.1l0,0L123,321.9z"/>
				<path class="st15" d="M124.4,322.7L124.4,322.7L124.4,322.7L124.4,322.7z"/>
			</g>
			
				<linearGradient id="SVGID_00000093148519050701735420000011752300120843723173_" gradientUnits="userSpaceOnUse" x1="208.6251" y1="106.9649" x2="89.6147" y2="433.0048" gradientTransform="matrix(1 0 0 1 0 -140)">
				<stop  offset="0" style="stop-color:#BEDAFF"/>
				<stop  offset="1" style="stop-color:#FFFFFF;stop-opacity:0"/>
			</linearGradient>
			<path style="fill:url(#SVGID_00000093148519050701735420000011752300120843723173_);" d="M124.4,322.7L124.4,322.7L124.4,322.7
				L124.4,322.7z M225.7,15.8L128.4,72c-4.7,2.7-8.5,10-8.5,16.3v227c0,2.7,0.7,4.7,1.8,6l1.3,0.7c-1.4-1.2-2.3-3.4-2.3-6.4v-227
				c0-6.3,3.8-13.6,8.5-16.3L226.5,16c1.6-0.9,3.1-1.2,4.4-0.9C229.4,14.5,227.6,14.6,225.7,15.8z M231.9,15.5
				c0.1,0,0.1,0.1,0.2,0.1l0,0L231.9,15.5z"/>
			
				<linearGradient id="SVGID_00000142151508274618175610000003994955309229896345_" gradientUnits="userSpaceOnUse" x1="241.8366" y1="139.5975" x2="43.3619" y2="665.3088" gradientTransform="matrix(1 0 0 1 0 -140)">
				<stop  offset="0" style="stop-color:#E4F2FF"/>
				<stop  offset="5.554383e-02" style="stop-color:#E1EFFF"/>
				<stop  offset="0.6478" style="stop-color:#C7D7FB"/>
				<stop  offset="0.9993" style="stop-color:#BDCEFA"/>
			</linearGradient>
			<path style="fill:url(#SVGID_00000142151508274618175610000003994955309229896345_);" d="M225.8,20.7L209,30.4l-2.5,6.3
				c-1.2,3.1-3.4,5.8-5.8,7.2L155,70.3c-2.4,1.4-4.6,1.2-5.8-0.5l-2.5-3.4l-16.8,9.7c-3,1.7-5.4,6-5.4,9.4v228.6
				c0,3.5,2.4,4.9,5.4,3.1l96-55.4c3-1.7,5.4-6,5.4-9.4V23.8C231.3,20.4,228.8,19,225.8,20.7z"/>
			<path class="st18" d="M192.7,43.8L163,61c-0.5,0.3-1,0-1-0.7l0,0c0-0.7,0.4-1.5,1-1.8l29.7-17.2c0.5-0.3,1,0,1,0.7l0,0
				C193.7,42.7,193.2,43.5,192.7,43.8z"/>
			<path class="st19" d="M118.2,148.1l-0.1-0.1c-0.5-0.3-1-1.2-1-1.9v-20.8c0-0.7,0.4-1.1,1-0.7l0.1,0.1c0.5,0.3,1,1.2,1,1.9v20.8
				C119.2,148.1,118.8,148.4,118.2,148.1z"/>
			<path class="st20" d="M117.2,148.1l-0.1-0.1c-0.5-0.3-1-1.2-1-1.9v-20.8c0-0.7,0.4-1.1,1-0.7l0.1,0.1c0.5,0.3,1,1.2,1,1.9v20.8
				C118.1,148.1,117.7,148.4,117.2,148.1z"/>
			<g>
				<path class="st20" d="M214,19.3c0.9,0.5,0.9,1.4,0,2c-0.9,0.5-2.5,0.5-3.4,0s-0.9-1.4,0-2C211.5,18.7,213.1,18.7,214,19.3z"/>
				<path class="st19" d="M214,19.3c-0.9-0.5-2.5-0.5-3.4,0c-0.2,0.1-0.4,0.3-0.5,0.5c0.1,0,0.1-0.1,0.2-0.1c0.9-0.5,2.5-0.5,3.4,0
					c0.7,0.4,0.9,1,0.5,1.5C214.9,20.5,214.9,19.8,214,19.3z"/>
			</g>
			<g class="st21">
				<polygon class="st0" points="231.2,131.9 231.2,55.8 124.4,162.7 124.4,238.8 				"/>
				<path class="st0" d="M124.4,140.3L231.2,33.4v-9.6c0-3.5-2.4-4.9-5.4-3.1l-8.6,5l-10.5,10.5l-0.2,0.6c-1.2,3.1-3.4,5.8-5.8,7.2
					l-4,2.3l-72.3,72.3C124.4,118.6,124.4,140.3,124.4,140.3z"/>
				<polygon class="st0" points="231.2,192.8 231.2,149 124.4,255.9 124.4,299.7 				"/>
				<polygon class="st0" points="231.2,232.2 231.2,222.2 144.8,308.6 168.5,294.9 				"/>
			</g>
			
				<linearGradient id="SVGID_00000129913384102792258930000012827591176702077824_" gradientUnits="userSpaceOnUse" x1="174.249" y1="177.753" x2="243.4521" y2="394.8314" gradientTransform="matrix(1 0 0 1 0 -140)">
				<stop  offset="0" style="stop-color:#53F0E7"/>
				<stop  offset="1" style="stop-color:#FFFFFF;stop-opacity:0"/>
			</linearGradient>
			<path style="display:none;fill:url(#SVGID_00000129913384102792258930000012827591176702077824_);" d="M231.3,23.8
				c0-3.5-2.4-4.9-5.4-3.1L209,30.4l-2.5,6.3c-1.2,3.1-3.4,5.8-5.8,7.2L155,70.3c-2.4,1.4-4.6,1.2-5.8-0.5l-2.5-3.4l-16.8,9.7
				c-1.5,0.9-2.9,2.4-3.9,4.2l0,0l102.7,179l0,0c1.6-2,2.6-4.6,2.6-6.9L231.3,23.8L231.3,23.8z"/>
			
				<linearGradient id="SVGID_00000090297080284055304620000015809480063369195915_" gradientUnits="userSpaceOnUse" x1="178.6014" y1="159.9763" x2="178.6014" y2="418.4901" gradientTransform="matrix(1 0 0 1 0 -140)">
				<stop  offset="6.674000e-04" style="stop-color:#A9BDEA"/>
				<stop  offset="1" style="stop-color:#FFFFFF;stop-opacity:0"/>
			</linearGradient>
			<path style="fill:url(#SVGID_00000090297080284055304620000015809480063369195915_);" d="M200.7,43.9L155,70.3
				c-2.4,1.4-4.6,1.2-5.8-0.5l-2.5-3.4l-16.8,9.7c-1.5,0.9-2.9,2.4-3.9,4.2c0.8-1.1,1.8-2,2.8-2.6l16.8-9.7l2.5,3.4
				c1.2,1.7,3.4,1.8,5.8,0.5l45.7-26.4c1.8-1,3.5-2.9,4.8-5.1C203.3,41.9,202,43.1,200.7,43.9z M225.8,20.7L209,30.4l-0.5,1.3
				l16.2-9.4c3-1.7,5.4-0.3,5.4,3.1V254c0,1.7-0.6,3.6-1.5,5.2c1.6-2,2.6-4.6,2.6-6.9V23.8C231.3,20.4,228.8,19,225.8,20.7z"/>
		</g>
	</g>
	<g>
		<g>
			<path class="st5" d="M163.7,150.6l-29.5,17c-2.1,1.2-3.7-0.1-3.7-2.8l0,0c0-2.7,1.7-5.9,3.7-7.1l29.5-17c2.1-1.2,3.7,0.1,3.7,2.8
				l0,0C167.4,146.2,165.8,149.4,163.7,150.6z"/>
			<path class="st5" d="M174.2,158.4l-40,23.1c-2.1,1.2-3.7-0.1-3.7-2.8l0,0c0-2.7,1.7-5.9,3.7-7.1l40-23.1c2.1-1.2,3.7,0.1,3.7,2.8
				l0,0C178,154,176.3,157.2,174.2,158.4z"/>
			<path class="st5" d="M156.7,182.3l-22.4,13c-2.1,1.2-3.7-0.1-3.7-2.8l0,0c0-2.7,1.7-5.9,3.7-7.1l22.4-13c2.1-1.2,3.7,0.1,3.7,2.8
				l0,0C160.4,178,158.7,181.1,156.7,182.3z"/>
		</g>
		
			<linearGradient id="SVGID_00000036249184467252466810000007879445937372371858_" gradientUnits="userSpaceOnUse" x1="134.3231" y1="352.0197" x2="238.9644" y2="428.8131" gradientTransform="matrix(1 0 0 1 0 -140)">
			<stop  offset="0" style="stop-color:#00E9FF"/>
			<stop  offset="0.1813" style="stop-color:#01D1FF"/>
			<stop  offset="0.5456" style="stop-color:#02A6FF"/>
			<stop  offset="0.8306" style="stop-color:#038CFF"/>
			<stop  offset="0.9993" style="stop-color:#0382FF"/>
		</linearGradient>
		<path style="fill:url(#SVGID_00000036249184467252466810000007879445937372371858_);" d="M220.9,251.2L136.4,300
			c-3.3,1.9-6-0.1-6-4.5v-46.2c0-4.4,2.7-9.5,6-11.4l84.5-48.8c3.3-1.9,6,0.1,6,4.5v46.2C226.9,244.2,224.2,249.3,220.9,251.2z"/>
		<g>
			<path class="st4" d="M227,55.8v-4.2c0-3.6-2.5-5.1-5.7-3.3l-85.2,49.2c-3.1,1.8-5.7,6.2-5.7,9.8v4.2L227,55.8z"/>
			<g>
				<path class="st2" d="M140.5,100.4c0,1.5-1,3.2-2.3,4c-1.3,0.7-2.3,0.1-2.3-1.3c0-1.5,1-3.2,2.3-4
					C139.4,98.3,140.5,98.9,140.5,100.4z"/>
				<path class="st2" d="M148.5,95.7c0,1.5-1,3.2-2.3,4c-1.3,0.7-2.3,0.1-2.3-1.3c0-1.5,1-3.2,2.3-4
					C147.5,93.7,148.5,94.3,148.5,95.7z"/>
				<path class="st2" d="M156.5,91.1c0,1.5-1,3.2-2.3,4c-1.3,0.7-2.3,0.1-2.3-1.3c0-1.5,1-3.2,2.3-4
					C155.5,89.1,156.5,89.6,156.5,91.1z"/>
			</g>
		</g>
		<g>
			<path class="st0" d="M145.4,128.5l7.9,10c-6.4,8.3-14.8,11.5-19.5,7.5c-2-1.7-3.2-4.5-3.3-8.1L145.4,128.5z"/>
			<path class="st2" d="M145.4,128.5l-14.9,9.5c-0.2-5.4,1.8-11.9,5.5-17.5c3.6-5.4,8.3-9.4,12.8-10.8L145.4,128.5z"/>
			<g>
				<path class="st4" d="M153.3,133.2l3.4-18.8c3.2-1,6.1-0.6,8.2,1.2c5.2,4.4,4.2,15.9-2.2,25.5c-0.5,0.7-1,1.4-1.5,2.1
					L153.3,133.2z"/>
				<g>
					<polygon class="st25" points="156.7,114.4 148.7,109.8 145.4,128.5 153.3,133.2 					"/>
					<path class="st26" d="M164.1,115L164.1,115L164.1,115z"/>
					<path class="st3" d="M164.1,115l-7.9-4.6c-2-1.3-4.6-1.5-7.4-0.6l8,4.6C159.5,113.5,162.1,113.7,164.1,115z"/>
					<path class="st3" d="M153.3,138.6l7.9,4.6l-7.9-10l-8-4.6L153.3,138.6L153.3,138.6z"/>
				</g>
			</g>
		</g>
		<g>
			<polygon class="st5" points="227,179.3 131.2,234.6 131.2,232.5 227,177.2 			"/>
			<polygon class="st5" points="227,152.1 131.2,207.4 131.2,205.3 227,149.9 			"/>
			<g>
				<path class="st1" d="M187.3,194.9l-17.3,10c-1.4,0.8-2.5,0-2.5-1.9v-7.2c0-1.9,1.1-4,2.5-4.8l17.3-10c1.4-0.8,2.5,0,2.5,1.9v7.2
					C189.9,191.9,188.7,194,187.3,194.9z"/>
				<path class="st1" d="M219.3,176.4l-17.3,10c-1.4,0.8-2.5,0-2.5-1.9v-7.2c0-1.9,1.1-4,2.5-4.8l17.3-10c1.4-0.8,2.5,0,2.5,1.9v7.2
					C221.8,173.4,220.7,175.6,219.3,176.4z"/>
				<path class="st27" d="M144.7,229.4c0.5,0.4,1.1,0.4,1.8,0l17.3-10c1.4-0.8,2.5-3,2.5-4.8v-7.2c0-1-0.3-1.6-0.8-2l-8.5-6
					c-0.5-0.4-1.1-0.4-1.8,0l-17.3,10c-1.4,0.8-2.5,3-2.5,4.8v7.2c0,1,0.3,1.6,0.8,2L144.7,229.4z"/>
				<path class="st1" d="M163.9,219.4l-17.3,10c-1.4,0.8-2.5,0-2.5-1.9v-7.2c0-1.9,1.1-4,2.5-4.8l17.3-10c1.4-0.8,2.5,0,2.5,1.9v7.2
					C166.4,216.4,165.3,218.6,163.9,219.4z"/>
			</g>
		</g>
		<g>
			<g>
				<path class="st5" d="M223.5,94.2l-49.1,28.3c-1.8,1.1-3.3-0.1-3.3-2.5v-12.7c0-2.4,1.5-5.3,3.3-6.3l49.1-28.3
					c1.8-1.1,3.3,0.1,3.3,2.5v12.7C226.9,90.3,225.4,93.1,223.5,94.2z"/>
				<g>
					
						<linearGradient id="SVGID_00000070087747149898664040000017718293747998906555_" gradientUnits="userSpaceOnUse" x1="199.7258" y1="235.0387" x2="155.9024" y2="277.592" gradientTransform="matrix(1 0 0 1 0 -140)">
						<stop  offset="0" style="stop-color:#FFFFFF"/>
						<stop  offset="0.3656" style="stop-color:#E1E9FD;stop-opacity:0.6341"/>
						<stop  offset="0.7632" style="stop-color:#C7D5FB;stop-opacity:0.2363"/>
						<stop  offset="0.9993" style="stop-color:#BDCEFA;stop-opacity:0"/>
					</linearGradient>
					<path style="fill:url(#SVGID_00000070087747149898664040000017718293747998906555_);" d="M193,106.3L174.4,117
						c-0.4,0.3-0.8,0-0.8-0.6l0,0c0-0.6,0.4-1.3,0.8-1.5l18.6-10.7c0.4-0.3,0.8,0,0.8,0.6l0,0C193.8,105.4,193.4,106.1,193,106.3z"
						/>
					
						<linearGradient id="SVGID_00000032606523946687200210000003887599741815655050_" gradientUnits="userSpaceOnUse" x1="198.1484" y1="233.4142" x2="154.325" y2="275.9674" gradientTransform="matrix(1 0 0 1 0 -140)">
						<stop  offset="0" style="stop-color:#FFFFFF"/>
						<stop  offset="0.3656" style="stop-color:#E1E9FD;stop-opacity:0.6341"/>
						<stop  offset="0.7632" style="stop-color:#C7D5FB;stop-opacity:0.2363"/>
						<stop  offset="0.9993" style="stop-color:#BDCEFA;stop-opacity:0"/>
					</linearGradient>
					<path style="fill:url(#SVGID_00000032606523946687200210000003887599741815655050_);" d="M198.2,99.1l-23.8,13.7
						c-0.4,0.3-0.8,0-0.8-0.6l0,0c0-0.6,0.4-1.3,0.8-1.5L198.2,97c0.4-0.3,0.8,0,0.8,0.6l0,0C199,98.2,198.7,98.9,198.2,99.1z"/>
					
						<linearGradient id="SVGID_00000029744089013719575430000015320563735199622304_" gradientUnits="userSpaceOnUse" x1="196.0492" y1="231.2525" x2="152.2258" y2="273.8057" gradientTransform="matrix(1 0 0 1 0 -140)">
						<stop  offset="0" style="stop-color:#FFFFFF"/>
						<stop  offset="0.3656" style="stop-color:#E1E9FD;stop-opacity:0.6341"/>
						<stop  offset="0.7632" style="stop-color:#C7D5FB;stop-opacity:0.2363"/>
						<stop  offset="0.9993" style="stop-color:#BDCEFA;stop-opacity:0"/>
					</linearGradient>
					<path style="fill:url(#SVGID_00000029744089013719575430000015320563735199622304_);" d="M198.2,94.9l-23.8,13.7
						c-0.4,0.3-0.8,0-0.8-0.6l0,0c0-0.6,0.4-1.3,0.8-1.5l23.8-13.7c0.4-0.3,0.8,0,0.8,0.6l0,0C199,94,198.7,94.7,198.2,94.9z"/>
				</g>
			</g>
			<g>
				
					<linearGradient id="SVGID_00000096774248203243412120000002491246735328221374_" gradientUnits="userSpaceOnUse" x1="234.0632" y1="224.3913" x2="221.6113" y2="245.5218" gradientTransform="matrix(1 0 0 1 0 -140)">
					<stop  offset="0" style="stop-color:#E4F2FF"/>
					<stop  offset="5.554383e-02" style="stop-color:#E1EFFF"/>
					<stop  offset="0.6478" style="stop-color:#C7D7FB"/>
					<stop  offset="0.9993" style="stop-color:#BDCEFA"/>
				</linearGradient>
				<polygon style="fill:url(#SVGID_00000096774248203243412120000002491246735328221374_);" points="234,97 221.8,104.1 
					221.8,92.7 234,85.7 				"/>
				<polygon class="st32" points="234,85.7 233.9,85.7 222,78.7 222,78.6 209.8,85.7 209.8,97 221.8,104.1 221.8,92.7 				"/>
			</g>
		</g>
		<g>
			<path class="st4" d="M233,149.7l-24.6,14.2c-2.2,1.3-4-0.1-4-3v-27c0-2.9,1.8-6.4,4-7.6L233,112c2.2-1.3,4,0.1,4,3v27
				C237,145,235.2,148.4,233,149.7z"/>
			<g>
				<path class="st3" d="M204.4,160.9v-27c0-2.9,1.8-6.4,4-7.6L233,112c1-0.6,1.8-0.6,2.5-0.3l0,0l-10-5.6c-0.7-0.4-1.6-0.3-2.6,0.2
					l-24.6,14.2c-2.2,1.3-4,4.7-4,7.6v27c0,1.7,0.6,2.8,1.5,3.3l10,5.6l0,0C205,163.7,204.4,162.5,204.4,160.9z"/>
			</g>
			
				<linearGradient id="SVGID_00000169539106461798463210000014707041867789003398_" gradientUnits="userSpaceOnUse" x1="227.2355" y1="269.2732" x2="203.6405" y2="328.8816" gradientTransform="matrix(1 0 0 1 0 -140)">
				<stop  offset="0" style="stop-color:#FFFFFF"/>
				<stop  offset="0.3656" style="stop-color:#E1E9FD;stop-opacity:0.6341"/>
				<stop  offset="0.7632" style="stop-color:#C7D5FB;stop-opacity:0.2363"/>
				<stop  offset="0.9993" style="stop-color:#BDCEFA;stop-opacity:0"/>
			</linearGradient>
			<path style="fill:url(#SVGID_00000169539106461798463210000014707041867789003398_);" d="M222.9,137.1c2.2-2.3,3.7-5.6,3.7-8.5
				c0-3.8-2.6-5.3-5.9-3.4c-3.3,1.9-5.9,6.5-5.9,10.3c0,2.9,1.5,4.4,3.7,4.2c-5,4.1-8.9,11.3-9.1,17.5l22.7-13.1
				C231.8,138.2,228,135.4,222.9,137.1z"/>
		</g>
	</g>
</g>
<g>
	<g>
		<path class="st0" d="M261.5,179.8l-34.7,19.3c-1.5,0.9-4.2,0.8-6-0.2l-20.2-11.7c-1.8-1-2-2.6-0.4-3.5l34.7-19.3
			c1.5-0.9,4.2-0.8,6,0.2l20.2,11.7C262.8,177.3,263,178.9,261.5,179.8z"/>
		<g>
			
				<linearGradient id="SVGID_00000047769457852289405720000003236699144109124287_" gradientUnits="userSpaceOnUse" x1="269.8502" y1="352.8839" x2="177.1904" y2="436.0587" gradientTransform="matrix(1 0 0 1 0 -140)">
				<stop  offset="0" style="stop-color:#E4F2FF"/>
				<stop  offset="5.554383e-02" style="stop-color:#E1EFFF"/>
				<stop  offset="0.6478" style="stop-color:#C7D7FB"/>
				<stop  offset="0.9993" style="stop-color:#BDCEFA"/>
			</linearGradient>
			<path style="fill:url(#SVGID_00000047769457852289405720000003236699144109124287_);" d="M262.5,273v-94.5l0,0l0,0
				c-0.1,0.5-0.4,0.9-1,1.2L226.8,199c-0.7,0.4-1.7,0.6-2.8,0.6v95c1,0,2.1-0.2,2.8-0.6l34.7-19.3
				C262.3,274.3,262.6,273.7,262.5,273z"/>
			
				<linearGradient id="SVGID_00000006704615027141228510000013785048434324847252_" gradientUnits="userSpaceOnUse" x1="211.5784" y1="457.2425" x2="211.5784" y2="316.0534" gradientTransform="matrix(1 0 0 1 0 -140)">
				<stop  offset="7.151770e-02" style="stop-color:#55D1FF"/>
				<stop  offset="0.1638" style="stop-color:#4FC3EE;stop-opacity:0.9006"/>
				<stop  offset="0.3466" style="stop-color:#41A0C2;stop-opacity:0.7038"/>
				<stop  offset="0.6024" style="stop-color:#29677B;stop-opacity:0.4282"/>
				<stop  offset="0.9186" style="stop-color:#0A191A;stop-opacity:8.763379e-02"/>
				<stop  offset="1" style="stop-color:#010400;stop-opacity:0"/>
			</linearGradient>
			<path style="fill:url(#SVGID_00000006704615027141228510000013785048434324847252_);" d="M220.8,198.9l-20.2-11.7
				c-0.8-0.5-1.3-1.1-1.4-1.7V280c-0.2,0.8,0.3,1.6,1.4,2.2l20.2,11.7c0.9,0.5,2.1,0.8,3.2,0.8v-95
				C222.9,199.7,221.7,199.4,220.8,198.9z"/>
			<path class="st32" d="M220.8,198.9l-20.2-11.7c-0.8-0.5-1.3-1.1-1.4-1.7V280c-0.2,0.8,0.3,1.6,1.4,2.2l20.2,11.7
				c0.9,0.5,2.1,0.8,3.2,0.8v-95C222.9,199.7,221.7,199.4,220.8,198.9z"/>
		</g>
	</g>
	<g>
		<g>
			<path class="st0" d="M281.7,206.8L247,226.7c-1.5,0.9-4.2,0.8-6-0.2l-11.5-6.9c-1.8-1-2-2.6-0.4-3.5l34.5-19.8
				c1.5-0.9,4.2-0.8,6,0.2l11.7,6.8C283,204.4,283.2,205.9,281.7,206.8z"/>
			<g>
				
					<linearGradient id="SVGID_00000045619360020168498070000006525139365308422304_" gradientUnits="userSpaceOnUse" x1="282.1918" y1="345.8955" x2="229.4957" y2="381.8247" gradientTransform="matrix(1 0 0 1 0 -140)">
					<stop  offset="0" style="stop-color:#E4F2FF"/>
					<stop  offset="5.554383e-02" style="stop-color:#E1EFFF"/>
					<stop  offset="0.6478" style="stop-color:#C7D7FB"/>
					<stop  offset="0.9993" style="stop-color:#BDCEFA"/>
				</linearGradient>
				<path style="fill:url(#SVGID_00000045619360020168498070000006525139365308422304_);" d="M282.7,209v-3.4l0,0l0,0
					c-0.1,0.5-0.4,0.9-1,1.2L247,226.7c-0.7,0.4-1.7,0.6-2.8,0.6v3.9c1,0,2.1-0.2,2.8-0.6l34.7-19.9
					C282.5,210.3,282.8,209.7,282.7,209z"/>
				
					<linearGradient id="SVGID_00000028301918311130514700000013106929548260502458_" gradientUnits="userSpaceOnUse" x1="236.1284" y1="374.0206" x2="236.1284" y2="356.747" gradientTransform="matrix(1 0 0 1 0 -140)">
					<stop  offset="7.151770e-02" style="stop-color:#55D1FF"/>
					<stop  offset="0.1638" style="stop-color:#4FC3EE;stop-opacity:0.9006"/>
					<stop  offset="0.3466" style="stop-color:#41A0C2;stop-opacity:0.7038"/>
					<stop  offset="0.6024" style="stop-color:#29677B;stop-opacity:0.4282"/>
					<stop  offset="0.9186" style="stop-color:#0A191A;stop-opacity:8.763379e-02"/>
					<stop  offset="1" style="stop-color:#010400;stop-opacity:0"/>
				</linearGradient>
				<path style="fill:url(#SVGID_00000028301918311130514700000013106929548260502458_);" d="M241,226.5l-11.5-6.9
					c-0.8-0.5-1.3-1.1-1.4-1.7v3.4c-0.2,0.8,0.3,1.6,1.4,2.2l11.5,6.9c0.9,0.5,2.1,0.8,3.2,0.8v-3.9
					C243.1,227.3,241.9,227,241,226.5z"/>
				<path class="st32" d="M241,226.5l-11.5-6.9c-0.8-0.5-1.3-1.1-1.4-1.7v3.4c-0.2,0.8,0.3,1.6,1.4,2.2l11.5,6.9
					c0.9,0.5,2.1,0.8,3.2,0.8v-3.9C243.1,227.3,241.9,227,241,226.5z"/>
			</g>
		</g>
		<g>
			<path class="st0" d="M296.5,227.5l-34.7,19.9c-1.5,0.9-4.2,0.8-6-0.2l-11.5-6.9c-1.8-1-2-2.6-0.4-3.5l34.5-19.8
				c1.5-0.9,4.2-0.8,6,0.2l11.7,6.8C297.8,225,298,226.6,296.5,227.5z"/>
			<g>
				
					<linearGradient id="SVGID_00000105419149329983730690000010954793328219639481_" gradientUnits="userSpaceOnUse" x1="296.4845" y1="366.8581" x2="243.7883" y2="402.7874" gradientTransform="matrix(1 0 0 1 0 -140)">
					<stop  offset="0" style="stop-color:#E4F2FF"/>
					<stop  offset="5.554383e-02" style="stop-color:#E1EFFF"/>
					<stop  offset="0.6478" style="stop-color:#C7D7FB"/>
					<stop  offset="0.9993" style="stop-color:#BDCEFA"/>
				</linearGradient>
				<path style="fill:url(#SVGID_00000105419149329983730690000010954793328219639481_);" d="M297.5,229.6v-3.4l0,0l0,0
					c-0.1,0.5-0.4,0.9-1,1.2l-34.7,19.9c-0.7,0.4-1.7,0.6-2.8,0.6v3.9c1,0,2.1-0.2,2.8-0.6l34.7-19.9
					C297.3,231,297.6,230.3,297.5,229.6z"/>
				
					<linearGradient id="SVGID_00000137828581110049816730000016042931630189594289_" gradientUnits="userSpaceOnUse" x1="250.9284" y1="394.6712" x2="250.9284" y2="377.3978" gradientTransform="matrix(1 0 0 1 0 -140)">
					<stop  offset="7.151770e-02" style="stop-color:#55D1FF"/>
					<stop  offset="0.1638" style="stop-color:#4FC3EE;stop-opacity:0.9006"/>
					<stop  offset="0.3466" style="stop-color:#41A0C2;stop-opacity:0.7038"/>
					<stop  offset="0.6024" style="stop-color:#29677B;stop-opacity:0.4282"/>
					<stop  offset="0.9186" style="stop-color:#0A191A;stop-opacity:8.763379e-02"/>
					<stop  offset="1" style="stop-color:#010400;stop-opacity:0"/>
				</linearGradient>
				<path style="fill:url(#SVGID_00000137828581110049816730000016042931630189594289_);" d="M255.8,247.1l-11.5-6.9
					c-0.8-0.5-1.3-1.1-1.4-1.7v3.4c-0.2,0.8,0.3,1.6,1.4,2.2l11.5,6.9c0.9,0.5,2.1,0.8,3.2,0.8V248
					C257.9,247.9,256.7,247.7,255.8,247.1z"/>
				<path class="st32" d="M255.8,247.1l-11.5-6.9c-0.8-0.5-1.3-1.1-1.4-1.7v3.4c-0.2,0.8,0.3,1.6,1.4,2.2l11.5,6.9
					c0.9,0.5,2.1,0.8,3.2,0.8V248C257.9,247.9,256.7,247.7,255.8,247.1z"/>
			</g>
		</g>
		<g>
			<path class="st0" d="M311.3,248.1L276.6,268c-1.5,0.9-4.2,0.8-6-0.2l-11.5-6.9c-1.8-1-2-2.6-0.4-3.5l34.5-19.8
				c1.5-0.9,4.2-0.8,6,0.2l11.7,6.8C312.7,245.7,312.9,247.2,311.3,248.1z"/>
			<g>
				
					<linearGradient id="SVGID_00000018945602864592853510000018030784177199270020_" gradientUnits="userSpaceOnUse" x1="310.8081" y1="387.8661" x2="258.1121" y2="423.7953" gradientTransform="matrix(1 0 0 1 0 -140)">
					<stop  offset="0" style="stop-color:#E4F2FF"/>
					<stop  offset="5.554383e-02" style="stop-color:#E1EFFF"/>
					<stop  offset="0.6478" style="stop-color:#C7D7FB"/>
					<stop  offset="0.9993" style="stop-color:#BDCEFA"/>
				</linearGradient>
				<path style="fill:url(#SVGID_00000018945602864592853510000018030784177199270020_);" d="M312.3,250.3v-3.4l0,0l0,0
					c-0.1,0.5-0.4,0.9-1,1.2L276.6,268c-0.7,0.4-1.7,0.6-2.8,0.6v3.9c1,0,2.1-0.2,2.8-0.6l34.7-19.9
					C312.1,251.6,312.4,251,312.3,250.3z"/>
				
					<linearGradient id="SVGID_00000076583690648479354470000011566379154302431398_" gradientUnits="userSpaceOnUse" x1="265.7284" y1="415.322" x2="265.7284" y2="398.0484" gradientTransform="matrix(1 0 0 1 0 -140)">
					<stop  offset="7.151770e-02" style="stop-color:#55D1FF"/>
					<stop  offset="0.1638" style="stop-color:#4FC3EE;stop-opacity:0.9006"/>
					<stop  offset="0.3466" style="stop-color:#41A0C2;stop-opacity:0.7038"/>
					<stop  offset="0.6024" style="stop-color:#29677B;stop-opacity:0.4282"/>
					<stop  offset="0.9186" style="stop-color:#0A191A;stop-opacity:8.763379e-02"/>
					<stop  offset="1" style="stop-color:#010400;stop-opacity:0"/>
				</linearGradient>
				<path style="fill:url(#SVGID_00000076583690648479354470000011566379154302431398_);" d="M270.6,267.8l-11.5-6.9
					c-0.8-0.5-1.3-1.1-1.4-1.7v3.4c-0.2,0.8,0.3,1.6,1.4,2.2l11.5,6.9c0.9,0.5,2.1,0.8,3.2,0.8v-3.9
					C272.7,268.6,271.5,268.3,270.6,267.8z"/>
				<path class="st32" d="M270.6,267.8l-11.5-6.9c-0.8-0.5-1.3-1.1-1.4-1.7v3.4c-0.2,0.8,0.3,1.6,1.4,2.2l11.5,6.9
					c0.9,0.5,2.1,0.8,3.2,0.8v-3.9C272.7,268.6,271.5,268.3,270.6,267.8z"/>
			</g>
		</g>
		<g>
			<path class="st0" d="M326.1,268.8l-34.7,19.9c-1.5,0.9-4.2,0.8-6-0.2l-11.5-6.9c-1.8-1-2-2.6-0.4-3.5l34.5-19.8
				c1.5-0.9,4.2-0.8,6,0.2l11.7,6.8C327.5,266.3,327.7,267.9,326.1,268.8z"/>
			<g>
				
					<linearGradient id="SVGID_00000007402021188895769500000009083388498267406000_" gradientUnits="userSpaceOnUse" x1="325.1022" y1="408.8306" x2="272.4061" y2="444.7599" gradientTransform="matrix(1 0 0 1 0 -140)">
					<stop  offset="0" style="stop-color:#E4F2FF"/>
					<stop  offset="5.554383e-02" style="stop-color:#E1EFFF"/>
					<stop  offset="0.6478" style="stop-color:#C7D7FB"/>
					<stop  offset="0.9993" style="stop-color:#BDCEFA"/>
				</linearGradient>
				<path style="fill:url(#SVGID_00000007402021188895769500000009083388498267406000_);" d="M327.1,270.9v-3.4l0,0l0,0
					c-0.1,0.5-0.4,0.9-1,1.2l-34.7,19.9c-0.7,0.4-1.7,0.6-2.8,0.6v3.9c1,0,2.1-0.2,2.8-0.6l34.7-19.9
					C326.9,272.3,327.3,271.6,327.1,270.9z"/>
				
					<linearGradient id="SVGID_00000056412317342090259300000003963751718826509189_" gradientUnits="userSpaceOnUse" x1="280.5284" y1="435.9727" x2="280.5284" y2="418.6992" gradientTransform="matrix(1 0 0 1 0 -140)">
					<stop  offset="7.151770e-02" style="stop-color:#55D1FF"/>
					<stop  offset="0.1638" style="stop-color:#4FC3EE;stop-opacity:0.9006"/>
					<stop  offset="0.3466" style="stop-color:#41A0C2;stop-opacity:0.7038"/>
					<stop  offset="0.6024" style="stop-color:#29677B;stop-opacity:0.4282"/>
					<stop  offset="0.9186" style="stop-color:#0A191A;stop-opacity:8.763379e-02"/>
					<stop  offset="1" style="stop-color:#010400;stop-opacity:0"/>
				</linearGradient>
				<path style="fill:url(#SVGID_00000056412317342090259300000003963751718826509189_);" d="M285.4,288.4l-11.5-6.9
					c-0.8-0.5-1.3-1.1-1.4-1.7v3.4c-0.2,0.8,0.3,1.6,1.4,2.2l11.5,6.9c0.9,0.5,2.1,0.8,3.2,0.8v-3.9
					C287.5,289.2,286.4,289,285.4,288.4z"/>
				<path class="st32" d="M285.4,288.4l-11.5-6.9c-0.8-0.5-1.3-1.1-1.4-1.7v3.4c-0.2,0.8,0.3,1.6,1.4,2.2l11.5,6.9
					c0.9,0.5,2.1,0.8,3.2,0.8v-3.9C287.5,289.2,286.4,289,285.4,288.4z"/>
			</g>
		</g>
		<g>
			<path class="st0" d="M341,289.4l-34.7,19.9c-1.5,0.9-4.2,0.8-6-0.2l-11.5-6.9c-1.8-1-2-2.6-0.4-3.5l34.5-19.8
				c1.5-0.9,4.2-0.8,6,0.2l11.7,6.8C342.3,287,342.5,288.5,341,289.4z"/>
			<g>
				
					<linearGradient id="SVGID_00000055680028341702076610000006547057994191408566_" gradientUnits="userSpaceOnUse" x1="339.4563" y1="429.8833" x2="286.76" y2="465.8126" gradientTransform="matrix(1 0 0 1 0 -140)">
					<stop  offset="0" style="stop-color:#E4F2FF"/>
					<stop  offset="5.554383e-02" style="stop-color:#E1EFFF"/>
					<stop  offset="0.6478" style="stop-color:#C7D7FB"/>
					<stop  offset="0.9993" style="stop-color:#BDCEFA"/>
				</linearGradient>
				<path style="fill:url(#SVGID_00000055680028341702076610000006547057994191408566_);" d="M342,291.6v-3.4l0,0l0,0
					c-0.1,0.5-0.4,0.9-1,1.2l-34.7,19.9c-0.7,0.4-1.7,0.6-2.8,0.6v3.9c1,0,2.1-0.2,2.8-0.6l34.7-19.9
					C341.8,292.9,342.1,292.3,342,291.6z"/>
				
					<linearGradient id="SVGID_00000089541970170966836270000008895479767000004284_" gradientUnits="userSpaceOnUse" x1="295.4284" y1="456.6235" x2="295.4284" y2="439.3498" gradientTransform="matrix(1 0 0 1 0 -140)">
					<stop  offset="7.151770e-02" style="stop-color:#55D1FF"/>
					<stop  offset="0.1638" style="stop-color:#4FC3EE;stop-opacity:0.9006"/>
					<stop  offset="0.3466" style="stop-color:#41A0C2;stop-opacity:0.7038"/>
					<stop  offset="0.6024" style="stop-color:#29677B;stop-opacity:0.4282"/>
					<stop  offset="0.9186" style="stop-color:#0A191A;stop-opacity:8.763379e-02"/>
					<stop  offset="1" style="stop-color:#010400;stop-opacity:0"/>
				</linearGradient>
				<path style="fill:url(#SVGID_00000089541970170966836270000008895479767000004284_);" d="M300.3,309.1l-11.5-6.9
					c-0.8-0.5-1.3-1.1-1.4-1.7v3.4c-0.2,0.8,0.3,1.6,1.4,2.2l11.5,6.9c0.9,0.5,2.1,0.8,3.2,0.8v-3.9
					C302.4,309.9,301.2,309.6,300.3,309.1z"/>
				<path class="st32" d="M300.3,309.1l-11.5-6.9c-0.8-0.5-1.3-1.1-1.4-1.7v3.4c-0.2,0.8,0.3,1.6,1.4,2.2l11.5,6.9
					c0.9,0.5,2.1,0.8,3.2,0.8v-3.9C302.4,309.9,301.2,309.6,300.3,309.1z"/>
			</g>
		</g>
	</g>
</g>
<g>
	<g>
		<path d="M223.5,185.9c0,0.8,1.2,2,3.1,3.1c2.5,1.5,3.4,3.3,6.6,1.5c0.9-0.5,1.3-0.9,1.3-1.3v-2c0.1-0.9-2.1-1.5-3.9-2.5
			c-2.5-1.5-5.3-2.3-6.6-1.5c-0.3,0.2-0.5,0.4-0.5,0.7L223.5,185.9L223.5,185.9z"/>
		<path class="st46" d="M226.6,187c-2.5-1.5-3.9-3.1-2.6-3.8c1.3-0.8,4,0,6.6,1.5c2.5,1.5,5.8,2,2.6,3.8
			C230.1,190.3,229.2,188.5,226.6,187z"/>
	</g>
	<g>
		<path d="M230.6,181c0,0.8,1.2,2,3.1,3.1c2.5,1.5,3.4,3.3,6.6,1.5c0.9-0.5,1.3-0.9,1.3-1.3v-2c0.1-0.9-2.1-1.5-3.9-2.5
			c-2.5-1.5-5.3-2.3-6.6-1.5c-0.3,0.2-0.5,0.4-0.5,0.7L230.6,181L230.6,181z"/>
		<path class="st46" d="M233.7,182.1c-2.5-1.5-3.9-3.1-2.6-3.8c1.3-0.8,4,0,6.6,1.5c2.5,1.5,5.8,2,2.6,3.8
			C237.1,185.4,236.2,183.6,233.7,182.1z"/>
	</g>
	<g>
		<path class="st47" d="M227.8,122.6L227.8,122.6c1-0.6,2.3-0.3,2.9,0.7l8.7,13.8c0.6,1,0.3,2.3-0.7,2.9l0,0c-1,0.6-2.3,0.3-2.9-0.7
			l-8.7-13.8C226.5,124.5,226.8,123.2,227.8,122.6z"/>
		<path class="st4" d="M233.5,137.7l2.8,4.5c0.9,1.5,2.9,2,4.5,1l0,0c1.5-0.9,2-2.9,1-4.5l-2.8-4.5
			C238.9,134.3,235.4,132.9,233.5,137.7z"/>
	</g>
	<g>
		<path class="st48" d="M234.4,186.3c0.1-0.2,0.1-0.4,0.1-0.6v-21.8c0-1.4-1.4-2.5-3.2-2.5l0,0c-1.7,0-3.2,1.1-3.2,2.5v23.7
			c0,0.4,0.2,0.7,0.6,0.8C230,188.7,232.9,189.3,234.4,186.3z"/>
	</g>
	<g>
		<path class="st3" d="M241.5,181.2c0.1-0.2,0.1-0.4,0.1-0.6l-0.5-21.8c0-1.4-1.5-2.5-3.2-2.4l0,0c-1.7,0-3.1,1.2-3.1,2.6l0.5,23.7
			c0,0.4,0.2,0.7,0.6,0.7C237.2,183.7,240,184.2,241.5,181.2z"/>
	</g>
	<path class="st1" d="M229.3,167.8c0.1,0,0.2,0.1,0.3,0.1c1.4,0.1,6.4-1,11.4-6.7c0.4-0.5,0.7-1.1,0.7-1.6v-16.1
		c0-1.2-0.4-2.1-1.1-2.5l-3.8-2.2c-0.7-0.4-1.6-0.4-2.7,0.2l-5.2,3c-2.1,1.2-3.8,4.2-3.8,6.6v16.2c0,0.4,0.1,0.7,0.4,0.8
		L229.3,167.8z"/>
	<path class="st49" d="M230.7,143.1c0,0.4,0.3,0.8,0.8,1.1c1,0.6,2.7,0.6,3.8,0c0.5-0.3,0.8-0.7,0.8-1.1v-3.5c0-0.4-0.3-0.8-0.8-1.1
		c-1-0.6-2.7-0.6-3.8,0c-0.5,0.3-0.8,0.7-0.8,1.1V143.1z"/>
	<circle class="st47" cx="233.4" cy="134" r="7.3"/>
	<g>
		<path class="st47" d="M211.8,132.8L211.8,132.8c0.7-0.9,2.1-1,2.9-0.2l11.8,10.7c0.9,0.7,1,2.1,0.2,2.9l0,0
			c-0.7,0.9-2.1,1-2.9,0.2L212,135.8C211.1,135,211,133.7,211.8,132.8z"/>
		<path class="st4" d="M221.1,145.7l4,3.4c1.3,1.2,3.4,1,4.6-0.3l0,0c1.2-1.3,1-3.4-0.3-4.6l-4-3.4
			C225.3,140.8,221.6,140.5,221.1,145.7z"/>
	</g>
	<path class="st50" d="M237.5,140.7c-2.3,1.3-4.1,0.3-4.7-0.7c-1.6-2.5-1.8-0.8-2.8-2c-1.2-2-1-4.8-2.7-6.1
		c-2.5-1.8-1.8-5.5,4.6-7.1c8.6-2.2,12,8.7,6.6,15C238.3,140.3,238.1,140.4,237.5,140.7z"/>
	<path class="st47" d="M230.8,138.4c-0.6,0.6-1.3,0.4-1.5-0.4c-0.2-0.8,0.1-2,0.7-2.7c0.6-0.6,1.3-0.4,1.5,0.4
		C231.8,136.6,231.5,137.8,230.8,138.4z"/>
</g>
<g>
	<g>
		<g>
			<path class="st51" d="M236.4,320l-39.6,22.9c-1.6,0.9-4.4,0.8-6.3-0.3l-41.5-24c-1.9-1.1-2.1-2.7-0.5-3.6l39.6-22.9
				c1.6-0.9,4.4-0.8,6.3,0.3l41.5,24C237.8,317.5,238,319.1,236.4,320z"/>
			<g>
				<path class="st32" d="M236.4,320l-39.6,22.9c-1.6,0.9-4.4,0.8-6.3-0.3l-41.5-24c-1-0.6-1.6-1.4-1.5-2.1l0,0v1.6
					c0,0.7,0.5,1.5,1.5,2.1l41.5,24c1.9,1.1,4.7,1.2,6.3,0.3l39.6-22.9c0.7-0.4,1.1-1,1.1-1.5v-1.6l0,0
					C237.5,319.1,237.1,319.6,236.4,320z"/>
			</g>
			<g>
				
					<linearGradient id="SVGID_00000181798916631284154110000016525556182097187493_" gradientUnits="userSpaceOnUse" x1="252.8241" y1="454.4095" x2="144.4508" y2="455.9305" gradientTransform="matrix(1 0 0 1 0 -140)">
					<stop  offset="0" style="stop-color:#FFFFFF"/>
					<stop  offset="0.5824" style="stop-color:#DAE4FC"/>
					<stop  offset="0.9993" style="stop-color:#BDCEFA"/>
				</linearGradient>
				<path style="fill:url(#SVGID_00000181798916631284154110000016525556182097187493_);" d="M182.4,314.7l-16,9.2
					c-0.5,0.3-1.5,0.3-2.1-0.1l-10.5-6.1c-0.6-0.4-0.7-0.9-0.2-1.2l16-9.2c0.5-0.3,1.5-0.3,2.1,0.1l10.5,6.1
					C182.9,313.8,183,314.4,182.4,314.7z"/>
				
					<linearGradient id="SVGID_00000039124528014501457910000000934804105181670054_" gradientUnits="userSpaceOnUse" x1="252.836" y1="455.2681" x2="144.4626" y2="456.7891" gradientTransform="matrix(1 0 0 1 0 -140)">
					<stop  offset="0" style="stop-color:#FFFFFF"/>
					<stop  offset="0.5824" style="stop-color:#DAE4FC"/>
					<stop  offset="0.9993" style="stop-color:#BDCEFA"/>
				</linearGradient>
				<path style="fill:url(#SVGID_00000039124528014501457910000000934804105181670054_);" d="M209.6,306.1l-37.1,21.4
					c-0.5,0.3-1.4,0.3-2-0.1l0,0c-0.6-0.3-0.7-0.9-0.1-1.2l37.1-21.4c0.5-0.3,1.4-0.3,2,0.1l0,0C210,305.3,210.1,305.8,209.6,306.1z
					"/>
				
					<linearGradient id="SVGID_00000016071030369597372500000017933227259626529711_" gradientUnits="userSpaceOnUse" x1="252.8705" y1="457.7251" x2="144.4971" y2="459.2462" gradientTransform="matrix(1 0 0 1 0 -140)">
					<stop  offset="0" style="stop-color:#FFFFFF"/>
					<stop  offset="0.5824" style="stop-color:#DAE4FC"/>
					<stop  offset="0.9993" style="stop-color:#BDCEFA"/>
				</linearGradient>
				<path style="fill:url(#SVGID_00000016071030369597372500000017933227259626529711_);" d="M213.7,308.5l-37.1,21.4
					c-0.5,0.3-1.4,0.3-2-0.1l0,0c-0.6-0.3-0.7-0.9-0.1-1.2l37.1-21.4c0.5-0.3,1.4-0.3,2,0.1l0,0
					C214.1,307.7,214.2,308.2,213.7,308.5z"/>
				
					<linearGradient id="SVGID_00000165951633315012521270000000717175193666282636_" gradientUnits="userSpaceOnUse" x1="252.9035" y1="460.0808" x2="144.5302" y2="461.6018" gradientTransform="matrix(1 0 0 1 0 -140)">
					<stop  offset="0" style="stop-color:#FFFFFF"/>
					<stop  offset="0.5824" style="stop-color:#DAE4FC"/>
					<stop  offset="0.9993" style="stop-color:#BDCEFA"/>
				</linearGradient>
				<path style="fill:url(#SVGID_00000165951633315012521270000000717175193666282636_);" d="M217.7,310.8l-37.1,21.4
					c-0.5,0.3-1.4,0.3-2-0.1l0,0c-0.6-0.3-0.7-0.9-0.1-1.2l37.1-21.4c0.5-0.3,1.4-0.3,2,0.1l0,0C218.2,310,218.2,310.5,217.7,310.8z
					"/>
				
					<linearGradient id="SVGID_00000062176600058282137280000000532252554019617936_" gradientUnits="userSpaceOnUse" x1="253.0208" y1="468.4407" x2="144.6475" y2="469.9618" gradientTransform="matrix(1 0 0 1 0 -140)">
					<stop  offset="0" style="stop-color:#FFFFFF"/>
					<stop  offset="0.5824" style="stop-color:#DAE4FC"/>
					<stop  offset="0.9993" style="stop-color:#BDCEFA"/>
				</linearGradient>
				<path style="fill:url(#SVGID_00000062176600058282137280000000532252554019617936_);" d="M200.9,325.3l-16.1,9.3
					c-0.5,0.3-1.4,0.3-2-0.1l0,0c-0.6-0.3-0.7-0.9-0.1-1.2l16.1-9.3c0.5-0.3,1.4-0.3,2,0.1l0,0C201.3,324.5,201.4,325,200.9,325.3z"
					/>
				
					<linearGradient id="SVGID_00000078007630350483066280000012711690392615980977_" gradientUnits="userSpaceOnUse" x1="252.6582" y1="442.6065" x2="144.2849" y2="444.1276" gradientTransform="matrix(1 0 0 1 0 -140)">
					<stop  offset="0" style="stop-color:#FFFFFF"/>
					<stop  offset="0.5824" style="stop-color:#DAE4FC"/>
					<stop  offset="0.9993" style="stop-color:#BDCEFA"/>
				</linearGradient>
				<path style="fill:url(#SVGID_00000078007630350483066280000012711690392615980977_);" d="M203.4,302.6l-16,9.2
					c-0.5,0.3-1.5,0.3-2.1-0.1l-10.5-6.1c-0.6-0.4-0.7-0.9-0.2-1.2l16-9.2c0.5-0.3,1.5-0.3,2.1,0.1l10.5,6.1
					C203.8,301.7,203.9,302.3,203.4,302.6z"/>
				
					<linearGradient id="SVGID_00000125582379676364703080000000549015983103658650_" gradientUnits="userSpaceOnUse" x1="252.9984" y1="466.838" x2="144.6253" y2="468.3592" gradientTransform="matrix(1 0 0 1 0 -140)">
					<stop  offset="0" style="stop-color:#FFFFFF"/>
					<stop  offset="0.5824" style="stop-color:#DAE4FC"/>
					<stop  offset="0.9993" style="stop-color:#BDCEFA"/>
				</linearGradient>
				<path style="fill:url(#SVGID_00000125582379676364703080000000549015983103658650_);" d="M231.5,318.9l-36.9,21.3
					c-0.5,0.3-1.5,0.3-2.1-0.1l-5-2.9c-0.6-0.4-0.7-0.9-0.2-1.2l36.9-21.3c0.5-0.3,1.5-0.3,2.1,0.1l5,2.9
					C232,318,232,318.5,231.5,318.9z"/>
			</g>
		</g>
		<g>
			<g>
				<path class="st32" d="M236.4,322.9l-39.6,22.9c-1.6,0.9-4.4,0.8-6.3-0.3l-41.5-24c-1-0.6-1.6-1.4-1.5-2.1l0,0v1.6
					c0,0.7,0.5,1.5,1.5,2.1l41.5,24c1.9,1.1,4.7,1.2,6.3,0.3l39.6-22.9c0.7-0.4,1.1-1,1.1-1.5v-1.6l0,0
					C237.5,321.9,237.1,322.5,236.4,322.9z"/>
			</g>
			
				<linearGradient id="SVGID_00000008847591119955776250000015725993558502696891_" gradientUnits="userSpaceOnUse" x1="237.9276" y1="472.6038" x2="148.1141" y2="472.6038" gradientTransform="matrix(1 0 0 1 0 -140)">
				<stop  offset="0" style="stop-color:#FFFFFF"/>
				<stop  offset="0.5824" style="stop-color:#DAE4FC"/>
				<stop  offset="0.9993" style="stop-color:#BDCEFA"/>
			</linearGradient>
			<path style="fill:url(#SVGID_00000008847591119955776250000015725993558502696891_);" d="M236.4,321.6l-39.6,22.9
				c-1.6,0.9-4.4,0.8-6.3-0.3l-41.5-24c-0.7-0.4-1.2-0.9-1.4-1.4c-0.4,0.9,0.1,1.9,1.4,2.7l41.5,24c1.9,1.1,4.7,1.2,6.3,0.3
				l39.6-22.9c1-0.6,1.3-1.4,0.9-2.2C237.2,321,236.9,321.4,236.4,321.6z"/>
		</g>
		<g>
			<g>
				<path class="st32" d="M236.4,325.7l-39.6,22.9c-1.6,0.9-4.4,0.8-6.3-0.3l-41.5-24c-1-0.6-1.6-1.4-1.5-2.1l0,0v1.6
					c0,0.7,0.5,1.5,1.5,2.1l41.5,24c1.9,1.1,4.7,1.2,6.3,0.3l39.6-22.9c0.7-0.4,1.1-1,1.1-1.5v-1.6l0,0
					C237.5,324.8,237.1,325.3,236.4,325.7z"/>
			</g>
			
				<linearGradient id="SVGID_00000079487493249671155240000007959324737097907127_" gradientUnits="userSpaceOnUse" x1="239.3777" y1="474.6242" x2="147.0737" y2="475.8094" gradientTransform="matrix(1 0 0 1 0 -140)">
				<stop  offset="0" style="stop-color:#FFFFFF"/>
				<stop  offset="0.5824" style="stop-color:#DAE4FC"/>
				<stop  offset="0.9993" style="stop-color:#BDCEFA"/>
			</linearGradient>
			<path style="fill:url(#SVGID_00000079487493249671155240000007959324737097907127_);" d="M236.4,324.5l-39.6,22.9
				c-1.6,0.9-4.4,0.8-6.3-0.3l-41.5-24c-0.7-0.4-1.2-0.9-1.4-1.4c-0.4,0.9,0.1,1.9,1.4,2.7l41.5,24c1.9,1.1,4.7,1.2,6.3,0.3
				l39.6-22.9c1-0.6,1.3-1.4,0.9-2.2C237.2,323.9,236.9,324.2,236.4,324.5z"/>
		</g>
		<g>
			<g>
				<path class="st32" d="M236.4,328.6l-39.6,22.9c-1.6,0.9-4.4,0.8-6.3-0.3l-41.5-24c-1-0.6-1.6-1.4-1.5-2.1l0,0v1.6
					c0,0.7,0.5,1.5,1.5,2.1l41.5,24c1.9,1.1,4.7,1.2,6.3,0.3l39.6-22.9c0.7-0.4,1.1-1,1.1-1.5v-1.6l0,0
					C237.5,327.6,237.1,328.2,236.4,328.6z"/>
			</g>
			
				<linearGradient id="SVGID_00000100344778753417075240000016550368721038280600_" gradientUnits="userSpaceOnUse" x1="237.4191" y1="479.8807" x2="147.9191" y2="477.7139" gradientTransform="matrix(1 0 0 1 0 -140)">
				<stop  offset="0" style="stop-color:#FFFFFF"/>
				<stop  offset="0.5824" style="stop-color:#DAE4FC"/>
				<stop  offset="0.9993" style="stop-color:#BDCEFA"/>
			</linearGradient>
			<path style="fill:url(#SVGID_00000100344778753417075240000016550368721038280600_);" d="M236.4,327.3l-39.6,22.9
				c-1.6,0.9-4.4,0.8-6.3-0.3L149,326c-0.7-0.4-1.2-0.9-1.4-1.4c-0.4,0.9,0.1,1.9,1.4,2.7l41.5,24c1.9,1.1,4.7,1.2,6.3,0.3
				l39.6-22.9c1-0.6,1.3-1.4,0.9-2.2C237.2,326.7,236.9,327,236.4,327.3z"/>
		</g>
		<g>
			<g>
				<path class="st32" d="M236.4,331.4l-39.6,22.9c-1.6,0.9-4.4,0.8-6.3-0.3L149,330c-1-0.6-1.6-1.4-1.5-2.1l0,0v1.6
					c0,0.7,0.5,1.5,1.5,2.1l41.5,24c1.9,1.1,4.7,1.2,6.3,0.3l39.6-22.9c0.7-0.4,1.1-1,1.1-1.5v-1.6l0,0
					C237.5,330.5,237.1,331,236.4,331.4z"/>
			</g>
			
				<linearGradient id="SVGID_00000044165236711260209640000016804695331944462744_" gradientUnits="userSpaceOnUse" x1="237.8415" y1="481.2038" x2="147.4728" y2="481.2038" gradientTransform="matrix(1 0 0 1 0 -140)">
				<stop  offset="0" style="stop-color:#FFFFFF"/>
				<stop  offset="0.5824" style="stop-color:#DAE4FC"/>
				<stop  offset="0.9993" style="stop-color:#BDCEFA"/>
			</linearGradient>
			<path style="fill:url(#SVGID_00000044165236711260209640000016804695331944462744_);" d="M236.4,330.2l-39.6,22.9
				c-1.6,0.9-4.4,0.8-6.3-0.3l-41.5-24c-0.7-0.4-1.2-0.9-1.4-1.4c-0.4,0.9,0.1,1.9,1.4,2.7l41.5,24c1.9,1.1,4.7,1.2,6.3,0.3
				l39.6-22.9c1-0.6,1.3-1.4,0.9-2.2C237.2,329.5,236.9,329.9,236.4,330.2z"/>
		</g>
		<g>
			<g>
				<path class="st32" d="M236.4,334.2l-39.6,22.9c-1.6,0.9-4.4,0.8-6.3-0.3l-41.5-24c-1-0.6-1.6-1.4-1.5-2.1l0,0v1.6
					c0,0.7,0.5,1.5,1.5,2.1l41.5,24c1.9,1.1,4.7,1.2,6.3,0.3l39.6-22.9c0.7-0.4,1.1-1,1.1-1.5v-1.6l0,0
					C237.5,333.3,237.1,333.8,236.4,334.2z"/>
			</g>
			
				<linearGradient id="SVGID_00000045594876800308023740000003516156352712868287_" gradientUnits="userSpaceOnUse" x1="236.6988" y1="484.0038" x2="147.1761" y2="484.0038" gradientTransform="matrix(1 0 0 1 0 -140)">
				<stop  offset="0" style="stop-color:#FFFFFF"/>
				<stop  offset="0.5824" style="stop-color:#DAE4FC"/>
				<stop  offset="0.9993" style="stop-color:#BDCEFA"/>
			</linearGradient>
			<path style="fill:url(#SVGID_00000045594876800308023740000003516156352712868287_);" d="M236.4,333l-39.6,22.9
				c-1.6,0.9-4.4,0.8-6.3-0.3l-41.5-24c-0.7-0.4-1.2-0.9-1.4-1.4c-0.4,0.9,0.1,1.9,1.4,2.7l41.5,24c1.9,1.1,4.7,1.2,6.3,0.3
				l39.6-22.9c1-0.6,1.3-1.4,0.9-2.2C237.2,332.4,236.9,332.7,236.4,333z"/>
		</g>
		<g>
			<g>
				<path class="st32" d="M236.4,337.1L196.8,360c-1.6,0.9-4.4,0.8-6.3-0.3l-41.5-24c-1-0.6-1.6-1.4-1.5-2.1l0,0v1.6
					c0,0.7,0.5,1.5,1.5,2.1l41.5,24c1.9,1.1,4.7,1.2,6.3,0.3l39.6-22.9c0.7-0.4,1.1-1,1.1-1.5v-1.6l0,0
					C237.5,336.1,237.1,336.7,236.4,337.1z"/>
			</g>
			
				<linearGradient id="SVGID_00000156586569958064146630000009080932617064494257_" gradientUnits="userSpaceOnUse" x1="237.0749" y1="486.8038" x2="148.827" y2="486.8038" gradientTransform="matrix(1 0 0 1 0 -140)">
				<stop  offset="0" style="stop-color:#FFFFFF"/>
				<stop  offset="0.5824" style="stop-color:#DAE4FC"/>
				<stop  offset="0.9993" style="stop-color:#BDCEFA"/>
			</linearGradient>
			<path style="fill:url(#SVGID_00000156586569958064146630000009080932617064494257_);" d="M236.4,335.8l-39.6,22.9
				c-1.6,0.9-4.4,0.8-6.3-0.3l-41.5-24c-0.7-0.4-1.2-0.9-1.4-1.4c-0.4,0.9,0.1,1.9,1.4,2.7l41.5,24c1.9,1.1,4.7,1.2,6.3,0.3
				l39.6-22.9c1-0.6,1.3-1.4,0.9-2.2C237.2,335.2,236.9,335.6,236.4,335.8z"/>
		</g>
	</g>
	<g>
		<g>
			<path class="st0" d="M332.1,248.3l39.6,22.9c1.6,0.9,4.4,0.8,6.3-0.3l41.5-24c1.9-1.1,2.1-2.7,0.5-3.6l-39.6-22.9
				c-1.6-0.9-4.4-0.8-6.3,0.3l-41.5,24C330.7,245.7,330.5,247.3,332.1,248.3z"/>
			<g>
				<path class="st32" d="M332.1,248.3l39.6,22.9c1.6,0.9,4.4,0.8,6.3-0.3l41.5-24c1-0.6,1.6-1.4,1.5-2.1l0,0v1.6
					c0,0.7-0.5,1.5-1.5,2.1l-41.5,24c-1.9,1.1-4.7,1.2-6.3,0.3l-39.6-22.9c-0.7-0.4-1.1-1-1.1-1.5v-1.6l0,0
					C331,247.3,331.4,247.9,332.1,248.3z"/>
			</g>
			<g>
				
					<linearGradient id="SVGID_00000021121044227945297120000010418175913749249682_" gradientUnits="userSpaceOnUse" x1="419.9267" y1="383.2227" x2="337.5228" y2="385.465" gradientTransform="matrix(1 0 0 1 0 -140)">
					<stop  offset="0" style="stop-color:#FFFFFF"/>
					<stop  offset="0.5824" style="stop-color:#DAE4FC"/>
					<stop  offset="0.9993" style="stop-color:#BDCEFA"/>
				</linearGradient>
				<path style="fill:url(#SVGID_00000021121044227945297120000010418175913749249682_);" d="M358.9,234.3l37.1,21.4
					c0.5,0.3,1.4,0.3,2-0.1l0,0c0.6-0.3,0.7-0.9,0.1-1.2L361,233c-0.5-0.3-1.4-0.3-2,0.1l0,0C358.5,233.5,358.4,234,358.9,234.3z"/>
				
					<linearGradient id="SVGID_00000181789198473327299850000006032332392097705893_" gradientUnits="userSpaceOnUse" x1="419.9904" y1="385.5621" x2="337.5869" y2="387.8045" gradientTransform="matrix(1 0 0 1 0 -140)">
					<stop  offset="0" style="stop-color:#FFFFFF"/>
					<stop  offset="0.5824" style="stop-color:#DAE4FC"/>
					<stop  offset="0.9993" style="stop-color:#BDCEFA"/>
				</linearGradient>
				<path style="fill:url(#SVGID_00000181789198473327299850000006032332392097705893_);" d="M354.9,236.7l37.1,21.4
					c0.5,0.3,1.4,0.3,2-0.1l0,0c0.6-0.3,0.7-0.9,0.1-1.2L357,235.5c-0.5-0.3-1.4-0.3-2,0.1l0,0C354.4,235.9,354.4,236.4,354.9,236.7
					z"/>
				
					<linearGradient id="SVGID_00000137109335835800383300000001791371986978861474_" gradientUnits="userSpaceOnUse" x1="420.0485" y1="387.699" x2="337.645" y2="389.9413" gradientTransform="matrix(1 0 0 1 0 -140)">
					<stop  offset="0" style="stop-color:#FFFFFF"/>
					<stop  offset="0.5824" style="stop-color:#DAE4FC"/>
					<stop  offset="0.9993" style="stop-color:#BDCEFA"/>
				</linearGradient>
				<path style="fill:url(#SVGID_00000137109335835800383300000001791371986978861474_);" d="M350.8,239l37.1,21.4
					c0.5,0.3,1.4,0.3,2-0.1l0,0c0.6-0.3,0.7-0.9,0.1-1.2l-37.1-21.4c-0.5-0.3-1.4-0.3-2,0.1l0,0C350.4,238.2,350.3,238.7,350.8,239z
					"/>
				
					<linearGradient id="SVGID_00000006676877267947715900000017807676720359506623_" gradientUnits="userSpaceOnUse" x1="420.2831" y1="396.3168" x2="337.8793" y2="398.559" gradientTransform="matrix(1 0 0 1 0 -140)">
					<stop  offset="0" style="stop-color:#FFFFFF"/>
					<stop  offset="0.5824" style="stop-color:#DAE4FC"/>
					<stop  offset="0.9993" style="stop-color:#BDCEFA"/>
				</linearGradient>
				<path style="fill:url(#SVGID_00000006676877267947715900000017807676720359506623_);" d="M367.7,253.5l16.1,9.3
					c0.5,0.3,1.4,0.3,2-0.1l0,0c0.6-0.3,0.7-0.9,0.1-1.2l-16.1-9.3c-0.5-0.3-1.4-0.3-2,0.1l0,0C367.2,252.7,367.2,253.2,367.7,253.5
					z"/>
				
					<linearGradient id="SVGID_00000099627041145080918470000006658450045250755720_" gradientUnits="userSpaceOnUse" x1="419.7558" y1="376.9417" x2="337.3522" y2="379.184" gradientTransform="matrix(1 0 0 1 0 -140)">
					<stop  offset="0" style="stop-color:#FFFFFF"/>
					<stop  offset="0.5824" style="stop-color:#DAE4FC"/>
					<stop  offset="0.9993" style="stop-color:#BDCEFA"/>
				</linearGradient>
				<path style="fill:url(#SVGID_00000099627041145080918470000006658450045250755720_);" d="M365.2,230.8l36.9,21.3
					c0.5,0.3,1.5,0.3,2.1-0.1l10.5-6.1c0.6-0.4,0.7-0.9,0.2-1.2L378,223.4c-0.5-0.3-1.5-0.3-2.1,0.1l-10.5,6.1
					C364.7,230,364.6,230.5,365.2,230.8z"/>
				
					<linearGradient id="SVGID_00000110447532956366949940000014147844415863112630_" gradientUnits="userSpaceOnUse" x1="420.2197" y1="393.9868" x2="337.8159" y2="396.2292" gradientTransform="matrix(1 0 0 1 0 -140)">
					<stop  offset="0" style="stop-color:#FFFFFF"/>
					<stop  offset="0.5824" style="stop-color:#DAE4FC"/>
					<stop  offset="0.9993" style="stop-color:#BDCEFA"/>
				</linearGradient>
				<path style="fill:url(#SVGID_00000110447532956366949940000014147844415863112630_);" d="M337,247.1l36.9,21.3
					c0.5,0.3,1.5,0.3,2.1-0.1l5-2.9c0.6-0.4,0.7-0.9,0.2-1.2l-36.9-21.3c-0.5-0.3-1.5-0.3-2.1,0.1l-5,2.9
					C336.5,246.2,336.5,246.8,337,247.1z"/>
			</g>
		</g>
		<g>
			<g>
				<path class="st32" d="M332.1,251.1l39.6,22.9c1.6,0.9,4.4,0.8,6.3-0.3l41.5-24c1-0.6,1.6-1.4,1.5-2.1l0,0v1.6
					c0,0.7-0.5,1.5-1.5,2.1l-41.5,24c-1.9,1.1-4.7,1.2-6.3,0.3l-39.6-22.9c-0.7-0.4-1.1-1-1.1-1.5v-1.6l0,0
					C331,250.2,331.4,250.7,332.1,251.1z"/>
			</g>
			
				<linearGradient id="SVGID_00000017481873935769244090000002981710752354645938_" gradientUnits="userSpaceOnUse" x1="423.8755" y1="396.8014" x2="310.0001" y2="404.9117" gradientTransform="matrix(1 0 0 1 0 -140)">
				<stop  offset="0" style="stop-color:#FFFFFF"/>
				<stop  offset="0.5824" style="stop-color:#DAE4FC"/>
				<stop  offset="0.9993" style="stop-color:#BDCEFA"/>
			</linearGradient>
			<path style="fill:url(#SVGID_00000017481873935769244090000002981710752354645938_);" d="M332.1,249.9l39.6,22.9
				c1.6,0.9,4.4,0.8,6.3-0.3l41.5-24c0.7-0.4,1.2-0.9,1.4-1.4c0.4,0.9-0.1,1.9-1.4,2.7l-41.5,24c-1.9,1.1-4.7,1.2-6.3,0.3
				l-39.6-22.9c-1-0.6-1.3-1.4-0.9-2.2C331.3,249.2,331.6,249.6,332.1,249.9z"/>
		</g>
		<g>
			<g>
				<path class="st32" d="M332.1,253.9l39.6,22.9c1.6,0.9,4.4,0.8,6.3-0.3l41.5-24c1-0.6,1.6-1.4,1.5-2.1l0,0v1.6
					c0,0.7-0.5,1.5-1.5,2.1l-41.5,24c-1.9,1.1-4.7,1.2-6.3,0.3l-39.6-22.9c-0.7-0.4-1.1-1-1.1-1.5v-1.6l0,0
					C331,253,331.4,253.5,332.1,253.9z"/>
			</g>
			
				<linearGradient id="SVGID_00000159437815563329731410000006934109716524607413_" gradientUnits="userSpaceOnUse" x1="424.0739" y1="399.5872" x2="310.1985" y2="407.6977" gradientTransform="matrix(1 0 0 1 0 -140)">
				<stop  offset="0" style="stop-color:#FFFFFF"/>
				<stop  offset="0.5824" style="stop-color:#DAE4FC"/>
				<stop  offset="0.9993" style="stop-color:#BDCEFA"/>
			</linearGradient>
			<path style="fill:url(#SVGID_00000159437815563329731410000006934109716524607413_);" d="M332.1,252.7l39.6,22.9
				c1.6,0.9,4.4,0.8,6.3-0.3l41.5-24c0.7-0.4,1.2-0.9,1.4-1.4c0.4,0.9-0.1,1.9-1.4,2.7l-41.5,24c-1.9,1.1-4.7,1.2-6.3,0.3L332.1,254
				c-1-0.6-1.3-1.4-0.9-2.2C331.3,252.1,331.6,252.4,332.1,252.7z"/>
		</g>
		<g>
			<g>
				<path class="st32" d="M332.1,256.8l39.6,22.9c1.6,0.9,4.4,0.8,6.3-0.3l41.5-24c1-0.6,1.6-1.4,1.5-2.1l0,0v1.6
					c0,0.7-0.5,1.5-1.5,2.1L378,281c-1.9,1.1-4.7,1.2-6.3,0.3l-39.6-22.9c-0.7-0.4-1.1-1-1.1-1.5v-1.6l0,0
					C331,255.8,331.4,256.4,332.1,256.8z"/>
			</g>
			
				<linearGradient id="SVGID_00000095336192750933226510000012115696294677539462_" gradientUnits="userSpaceOnUse" x1="424.2723" y1="402.3732" x2="310.3969" y2="410.4835" gradientTransform="matrix(1 0 0 1 0 -140)">
				<stop  offset="0" style="stop-color:#FFFFFF"/>
				<stop  offset="0.5824" style="stop-color:#DAE4FC"/>
				<stop  offset="0.9993" style="stop-color:#BDCEFA"/>
			</linearGradient>
			<path style="fill:url(#SVGID_00000095336192750933226510000012115696294677539462_);" d="M332.1,255.5l39.6,22.9
				c1.6,0.9,4.4,0.8,6.3-0.3l41.5-24c0.7-0.4,1.2-0.9,1.4-1.4c0.4,0.9-0.1,1.9-1.4,2.7l-41.5,24c-1.9,1.1-4.7,1.2-6.3,0.3
				l-39.6-22.9c-1-0.6-1.3-1.4-0.9-2.2C331.3,254.9,331.6,255.3,332.1,255.5z"/>
		</g>
	</g>
</g>
<g>
	<g>
		<ellipse class="st0" cx="263.4" cy="379.1" rx="20.6" ry="11.9"/>
		
			<linearGradient id="SVGID_00000089573947276476451310000003289378871153136790_" gradientUnits="userSpaceOnUse" x1="304.3931" y1="525.4664" x2="251.9981" y2="528.9429" gradientTransform="matrix(1 0 0 1 0 -140)">
			<stop  offset="0" style="stop-color:#E4F2FF;stop-opacity:0"/>
			<stop  offset="5.554383e-02" style="stop-color:#E1EFFF;stop-opacity:5.558312e-02"/>
			<stop  offset="0.6478" style="stop-color:#C7D7FB;stop-opacity:0.6483"/>
			<stop  offset="0.9993" style="stop-color:#BDCEFA"/>
		</linearGradient>
		<path style="fill:url(#SVGID_00000089573947276476451310000003289378871153136790_);" d="M278,387.5c-8,4.6-21.1,4.6-29.1,0
			c-4-2.3-6-5.3-6-8.3v7.3c0,3.1,2,6.1,6,8.5c8,4.6,21.1,4.6,29.1,0c4-2.3,6.1-5.4,6-8.5v-7.3C284,382.2,282,385.2,278,387.5z"/>
		
			<linearGradient id="SVGID_00000040552287518166668590000016582354898001673124_" gradientUnits="userSpaceOnUse" x1="245.5647" y1="514.95" x2="281.2983" y2="514.95" gradientTransform="matrix(1 0 0 1 0 -140)">
			<stop  offset="0" style="stop-color:#00E9FF"/>
			<stop  offset="0.1813" style="stop-color:#01D1FF"/>
			<stop  offset="0.5456" style="stop-color:#02A6FF"/>
			<stop  offset="0.8306" style="stop-color:#038CFF"/>
			<stop  offset="0.9993" style="stop-color:#0382FF"/>
		</linearGradient>
		<path style="fill:url(#SVGID_00000040552287518166668590000016582354898001673124_);" d="M250.8,375.8c7-4,18.3-4,25.3,0
			c2.6,1.5,4.2,3.3,4.9,5.3c1.1-3.3-0.5-6.8-4.9-9.3c-7-4-18.3-4-25.3,0c-4.4,2.5-6,6-4.9,9.3C246.6,379.2,248.2,377.3,250.8,375.8z
			"/>
		<g>
			<path class="st2" d="M276.1,375.8c-7-4-18.3-4-25.3,0c-2.6,1.5-4.2,3.3-4.9,5.3c0.7,1.9,2.3,3.8,4.9,5.3c7,4,18.3,4,25.3,0
				c2.6-1.5,4.2-3.4,4.9-5.3C280.3,379.2,278.7,377.3,276.1,375.8z"/>
		</g>
	</g>
	<g>
		<path class="st2" d="M261.9,302h-2.3v-2.3c0-0.4-0.3-0.8-0.8-0.8c-0.4,0-0.8,0.3-0.8,0.8v2.3h-2.3c-0.4,0-0.8,0.3-0.8,0.8
			c0,0.4,0.3,0.8,0.8,0.8h2.3v2.3c0,0.4,0.3,0.8,0.8,0.8c0.4,0,0.8-0.3,0.8-0.8v-2.3h2.3c0.4,0,0.8-0.3,0.8-0.8
			C262.7,302.3,262.3,302,261.9,302z"/>
		<path class="st2" d="M274.7,321.2h-2.3v-2.3c0-0.4-0.3-0.8-0.8-0.8c-0.4,0-0.8,0.3-0.8,0.8v2.3h-2.3c-0.4,0-0.8,0.3-0.8,0.8
			c0,0.4,0.3,0.8,0.8,0.8h2.3v2.3c0,0.4,0.3,0.8,0.8,0.8c0.4,0,0.8-0.3,0.8-0.8v-2.3h2.3c0.4,0,0.8-0.3,0.8-0.8
			C275.5,321.6,275.1,321.2,274.7,321.2z"/>
		<path class="st2" d="M259.7,346h-2.3v-2.3c0-0.4-0.3-0.8-0.8-0.8c-0.4,0-0.8,0.3-0.8,0.8v2.3h-2.3c-0.4,0-0.8,0.3-0.8,0.8
			c0,0.4,0.3,0.8,0.8,0.8h2.3v2.3c0,0.4,0.3,0.8,0.8,0.8c0.4,0,0.8-0.3,0.8-0.8v-2.3h2.3c0.4,0,0.8-0.3,0.8-0.8
			C260.4,346.3,260.1,346,259.7,346z"/>
		<path class="st2" d="M270.3,364.4H268v-2.3c0-0.4-0.3-0.8-0.8-0.8c-0.4,0-0.8,0.3-0.8,0.8v2.3H264c-0.4,0-0.8,0.3-0.8,0.8
			s0.3,0.8,0.8,0.8h2.3v2.3c0,0.4,0.3,0.8,0.8,0.8c0.4,0,0.8-0.3,0.8-0.8V366h2.3c0.4,0,0.8-0.3,0.8-0.8S270.7,364.4,270.3,364.4z"
			/>
		<circle class="st4" cx="267.1" cy="310.6" r="1.7"/>
		<path class="st4" d="M274.9,337.4c0,0.9-0.7,1.7-1.7,1.7c-0.9,0-1.7-0.7-1.7-1.7s0.7-1.7,1.7-1.7
			C274.2,335.7,274.9,336.5,274.9,337.4z"/>
		<path class="st4" d="M262.5,355.7c0,0.9-0.7,1.7-1.7,1.7c-0.9,0-1.7-0.7-1.7-1.7c0-0.9,0.7-1.7,1.7-1.7
			C261.7,354.1,262.5,354.8,262.5,355.7z"/>
		<path class="st4" d="M268.1,342.9c0,0.9-0.7,1.7-1.7,1.7c-0.9,0-1.7-0.7-1.7-1.7c0-0.9,0.7-1.7,1.7-1.7
			C267.3,341.2,268.1,342,268.1,342.9z"/>
		<path class="st4" d="M255.3,337.4c0,0.9-0.7,1.7-1.7,1.7c-0.9,0-1.7-0.7-1.7-1.7s0.7-1.7,1.7-1.7
			C254.6,335.7,255.3,336.5,255.3,337.4z"/>
		<path class="st4" d="M261.7,322.4c0,0.9-0.7,1.7-1.7,1.7c-0.9,0-1.7-0.7-1.7-1.7c0-0.9,0.7-1.7,1.7-1.7
			C260.9,320.7,261.7,321.5,261.7,322.4z"/>
		<path class="st4" d="M273.2,298.3c0,0.9-0.7,1.7-1.7,1.7c-0.9,0-1.7-0.7-1.7-1.7s0.7-1.7,1.7-1.7
			C272.5,296.7,273.2,297.4,273.2,298.3z"/>
		<path class="st4" d="M256.5,293.3c0,0.9-0.7,1.7-1.7,1.7c-0.9,0-1.7-0.7-1.7-1.7c0-0.9,0.7-1.7,1.7-1.7
			C255.8,291.6,256.5,292.4,256.5,293.3z"/>
		
			<rect x="250.8" y="313.2" transform="matrix(0.7071 -0.7071 0.7071 0.7071 -149.2299 272.0186)" class="st3" width="5.9" height="5.9"/>
		
			<rect x="263.4" y="284.9" transform="matrix(0.7071 -0.7071 0.7071 0.7071 -125.5384 272.6169)" class="st3" width="5.9" height="5.9"/>
		
			<rect x="270.3" y="347.2" transform="matrix(0.7071 -0.7071 0.7071 0.7071 -167.5541 295.7613)" class="st3" width="5.9" height="5.9"/>
		
			<rect x="258.7" y="329.1" transform="matrix(0.7071 -0.7071 0.7071 0.7071 -158.1656 282.2779)" class="st3" width="5.9" height="5.9"/>
	</g>
	
		<linearGradient id="SVGID_00000070093927477064786610000014601685049452719778_" gradientUnits="userSpaceOnUse" x1="263.45" y1="403.4686" x2="263.45" y2="577.7191" gradientTransform="matrix(1 0 0 1 0 -140)">
		<stop  offset="0" style="stop-color:#FFFFFF;stop-opacity:0"/>
		<stop  offset="1" style="stop-color:#00E9FF"/>
	</linearGradient>
	<path style="fill:url(#SVGID_00000070093927477064786610000014601685049452719778_);" d="M245.6,378.7c-0.2,2.8,1.5,5.6,5.2,7.7
		c7,4,18.3,4,25.3,0c3.7-2.1,5.4-4.9,5.2-7.7V252.5c0.2-2.8-1.5-5.6-5.2-7.7c-7-4-18.3-4-25.3,0c-3.7,2.1-5.4,4.9-5.2,7.7V378.7z"/>
</g>
<g>
	
		<linearGradient id="SVGID_00000099655003246816052340000006944009007639936665_" gradientUnits="userSpaceOnUse" x1="72.8805" y1="435.5283" x2="97.8254" y2="243.3088" gradientTransform="matrix(1 0 0 1 0 -140)">
		<stop  offset="0" style="stop-color:#0382FF;stop-opacity:0"/>
		<stop  offset="0.6443" style="stop-color:#79A6FE;stop-opacity:0.645"/>
		<stop  offset="0.9989" style="stop-color:#B6B9FE"/>
	</linearGradient>
	<path style="fill:url(#SVGID_00000099655003246816052340000006944009007639936665_);" d="M119.5,180l-73,42.2
		c-5.7,3.3-10.4,11.4-10.4,18v8.8c0,6.6,4.7,9.3,10.4,6l54.3-31.4l-3.3,17.2l18.8-26.1l3.2-1.8c5.7-3.3,10.4-11.4,10.4-18V186
		C129.9,179.4,125.2,176.7,119.5,180z"/>
	<g>
		
			<linearGradient id="SVGID_00000161597739368356162210000012567592239885752708_" gradientUnits="userSpaceOnUse" x1="91.872" y1="344.5443" x2="-4.8759" y2="436.923" gradientTransform="matrix(1 0 0 1 0 -140)">
			<stop  offset="0" style="stop-color:#FFFFFF"/>
			<stop  offset="0.3656" style="stop-color:#E1E9FD;stop-opacity:0.6341"/>
			<stop  offset="0.7632" style="stop-color:#C7D5FB;stop-opacity:0.2363"/>
			<stop  offset="0.9993" style="stop-color:#BDCEFA;stop-opacity:0"/>
		</linearGradient>
		<path style="fill:url(#SVGID_00000161597739368356162210000012567592239885752708_);" d="M118.5,194.3l-71,41
			c-0.7,0.4-1.3,0-1.3-1l0,0c0-1,0.6-2.1,1.3-2.6l71-41c0.7-0.4,1.3,0,1.3,1l0,0C119.8,192.7,119.2,193.9,118.5,194.3z"/>
		
			<linearGradient id="SVGID_00000112621572601612467310000005573372641791382205_" gradientUnits="userSpaceOnUse" x1="92.9898" y1="345.715" x2="-3.7582" y2="438.0938" gradientTransform="matrix(1 0 0 1 0 -140)">
			<stop  offset="0" style="stop-color:#FFFFFF"/>
			<stop  offset="0.3656" style="stop-color:#E1E9FD;stop-opacity:0.6341"/>
			<stop  offset="0.7632" style="stop-color:#C7D5FB;stop-opacity:0.2363"/>
			<stop  offset="0.9993" style="stop-color:#BDCEFA;stop-opacity:0"/>
		</linearGradient>
		<path style="fill:url(#SVGID_00000112621572601612467310000005573372641791382205_);" d="M82.1,224.5l-34.8,20.1
			c-0.6,0.4-1.2,0-1.2-0.9v-0.5c0-0.9,0.5-1.9,1.2-2.2l34.8-20c0.6-0.4,1.2,0,1.2,0.9v0.5C83.2,223.2,82.7,224.2,82.1,224.5z"/>
	</g>
</g>
<g>
	<g>
		<g>
			<g>
				<g>
					<path d="M161,226.2c0,0.3,0.2,0.5,0.5,0.7c0.1,0.1,0-1.4,0.3-1.2c0.1,0.1,4.9,3.8,7.6,3.1c0.3-0.1,0.4-0.4,0.4-0.6v-0.6
						c0-0.7-1-1.7-2.5-3.2c-1.7-1.7-2.8-2.7-5.3-1.2c-0.7,0.4-1,0.7-1,1V226.2z"/>
					<path class="st80" d="M167.4,224.5c2,2,3.2,3.2,2.1,3.8c-1.1,0.6-3.2-0.3-5.3-1.9c-1.9-1.4-4.7-1.6-2.1-3.1
						C164.6,221.8,165.7,222.8,167.4,224.5z"/>
				</g>
			</g>
			<path class="st81" d="M165.3,223.3l-0.1-15.8c0-0.8-0.5-1.4-1.2-1.7l-1.2-0.5l-5.2,3.4l2.5,1.3c0,0-0.5,4.4,0.8,8.4
				c0,0,0.9,1.8,0.7,5.9C161.6,224.5,164.3,225.3,165.3,223.3z"/>
		</g>
		<g>
			<g>
				<g>
					<path d="M153.4,230c0,0.3,0.2,0.5,0.5,0.7c0.1,0.1,0-1.4,0.3-1.2c0.1,0.1,4.9,3.8,7.6,3.1c0.3-0.1,0.4-0.4,0.4-0.6v-0.6
						c0-0.7-1-1.7-2.5-3.2c-1.7-1.7-2.8-2.7-5.3-1.2c-0.7,0.4-1,0.7-1,1V230z"/>
					<path class="st80" d="M159.8,228.2c2,2,3.2,3.2,2.1,3.8c-1.1,0.6-3.2-0.3-5.3-1.9c-1.9-1.4-4.7-1.6-2.1-3.1
						C157,225.5,158.1,226.6,159.8,228.2z"/>
				</g>
			</g>
			<path class="st81" d="M157.7,227.3l-0.1-18.4l-6.1,2l1,3c0,0-0.5,4,0.8,8.1c0,0,0.9,1.8,0.7,5.9
				C154,227.8,156.2,229.1,157.7,227.3z"/>
		</g>
		<path class="st82" d="M152.3,190c0,0,6.8-6.2,2.6-17.2l-3.2,11.4L152.3,190z"/>
		<g>
			<path class="st81" d="M160.3,205.1L160.3,205.1c-1.1,0.3-2.2-0.3-2.5-1.4l-5.4-18.6c-0.3-1.1,0.3-2.2,1.4-2.5l0,0
				c1.1-0.3,2.2,0.3,2.5,1.4l5.4,18.6C162,203.7,161.4,204.8,160.3,205.1z"/>
		</g>
		<path class="st83" d="M154.8,200.2l9.2,5.7c0,0-3.2-0.8-11.5,8l-9.1-5.2L154.8,200.2z"/>
		<path class="st84" d="M144.6,209.4c0.1,0,0.2,0.1,0.3,0.1c1.3,0.1,6.1-0.9,11-6.4c0.4-0.4,0.7-1.1,0.7-1.6v-15.4
			c0-1.2-0.4-2-1.1-2.3l-3.6-2.1c-0.7-0.4-1.6-0.3-2.6,0.2l-4.9,2.8c-2,1.2-3.6,4-3.6,6.3v15.5c0,0.4,0.1,0.6,0.3,0.7L144.6,209.4z"
			/>
		<path class="st49" d="M145.2,185.7c0,0.4,0.2,0.8,0.7,1.1c1,0.6,2.6,0.6,3.6,0c0.5-0.3,0.8-0.7,0.7-1.1v-3.4
			c0-0.4-0.2-0.8-0.7-1.1c-1-0.6-2.6-0.6-3.6,0c-0.5,0.3-0.8,0.7-0.7,1.1V185.7z"/>
		<circle class="st81" cx="147.7" cy="177" r="7"/>
		<path class="st82" d="M149.8,190c0,0-5.2-5.8-1.6-16.4l6.5,2.2c0,0,2.2-5.5-5.1-7.1c0,0-4.9-1.1-6.6,3c0,0-3.9,0.3-2.5,8.4
			C140.5,180.1,140.8,187.8,149.8,190z"/>
		<path class="st85" d="M142.9,185.9"/>
		<path class="st86" d="M152.5,213.8"/>
	</g>
	<g>
		<polygon class="st32" points="166.9,205 153.7,212.6 143.5,207.1 157.1,199.3 		"/>
		
			<linearGradient id="SVGID_00000001632572736761979160000008476987391204328630_" gradientUnits="userSpaceOnUse" x1="172.2532" y1="328.4135" x2="152.6411" y2="352.2891" gradientTransform="matrix(1 0 0 1 0 -140)">
			<stop  offset="0" style="stop-color:#FFFFFF"/>
			<stop  offset="0.5824" style="stop-color:#DAE4FC"/>
			<stop  offset="0.9993" style="stop-color:#BDCEFA"/>
		</linearGradient>
		<polygon style="fill:url(#SVGID_00000001632572736761979160000008476987391204328630_);" points="166.9,205 169,191.7 
			154.3,200.2 153.7,212.6 		"/>
	</g>
	<g>
		<path class="st81" d="M156.3,205.6L156.3,205.6c-0.8,0.7-2.1,0.6-2.8-0.2L141,190.7c-0.7-0.8-0.6-2.1,0.2-2.8l0,0
			c0.8-0.7,2.1-0.6,2.8,0.2l12.5,14.6C157.2,203.6,157.1,204.9,156.3,205.6z"/>
	</g>
</g>
<g>
	<g>
		<g>
			<g>
				<g>
					<path class="st88" d="M259.4,218.4c-0.2,0.1-0.3,0.4-0.4,0.8c0,0.1,1.2-0.7,1.2-0.3c0,0.1-0.9,6,1,7.9c0.2,0.2,0.5,0.2,0.7,0.1
						l0.5-0.3c0.6-0.3,1-1.6,1.5-3.7c0.6-2.2,0.9-3.6-1.5-5.1c-0.7-0.4-1.1-0.5-1.3-0.4L259.4,218.4z"/>
					<path class="st80" d="M263.9,223c-0.7,2.7-1.2,4.2-2.2,3.6c-1-0.6-1.2-2.8-0.9-5.4c0.3-2.3-0.9-4.7,1.6-3.2
						C264.9,219.3,264.5,220.7,263.9,223z"/>
				</g>
			</g>
			<path class="st89" d="M279.7,205.8l-5,1.8l-2,2.3c0,0-3.6,1.5-6.5,4.5c0,0-1.1,1.6-4.7,3.4c0,0,0,2.5,2.2,2.9l14.3-8.2
				c1-0.6,1.7-1.6,1.8-2.7C280,208.9,280,207.6,279.7,205.8z"/>
		</g>
	</g>
	<g>
		<g>
			<g>
				<path class="st46" d="M269.2,231.1c0,0.3,0.2,0.5,0.5,0.7c0.1,0.1,0-1.4,0.3-1.1c0.1,0.1,4.8,3.7,7.4,3c0.3-0.1,0.4-0.3,0.4-0.6
					v-0.6c0-0.7-0.9-1.7-2.4-3.1c-1.6-1.6-2.7-2.6-5.2-1.2c-0.7,0.4-1,0.7-1,1L269.2,231.1z"/>
				<path class="st80" d="M275.3,229.4c2,1.9,3.1,3.1,2.1,3.7c-1,0.6-3.1-0.3-5.2-1.9c-1.8-1.4-4.5-1.6-2.1-3
					C272.6,226.8,273.7,227.8,275.3,229.4z"/>
			</g>
		</g>
		<path class="st81" d="M273.3,228.5l-0.1-17.9l-4.9,1.6v3.3c0,0-0.5,3.9,0.7,7.8c0,0,0.8,1.7,0.7,5.7
			C269.7,229,271.9,230.2,273.3,228.5z"/>
	</g>
	<g>
		<path class="st89" d="M286.6,203.4L286.6,203.4c-1,0.4-2.1,0-2.6-1l-7.7-17c-0.4-1,0-2.1,1-2.6l0,0c1-0.4,2.1,0,2.6,1l7.7,17
			C288,201.8,287.5,203,286.6,203.4z"/>
	</g>
	<g>
		<polygon class="st32" points="287.3,201.5 275.3,194.6 275.3,184.9 287.3,191.8 		"/>
		<g>
			
				<linearGradient id="SVGID_00000003805839607262751410000002098438302341988773_" gradientUnits="userSpaceOnUse" x1="285.7198" y1="330.2686" x2="283.205" y2="340.1343" gradientTransform="matrix(1 0 0 1 0 -140)">
				<stop  offset="0" style="stop-color:#FFFFFF"/>
				<stop  offset="0.3656" style="stop-color:#E1E9FD;stop-opacity:0.6341"/>
				<stop  offset="0.7632" style="stop-color:#C7D5FB;stop-opacity:0.2363"/>
				<stop  offset="0.9993" style="stop-color:#BDCEFA;stop-opacity:0"/>
			</linearGradient>
			<polygon style="fill:url(#SVGID_00000003805839607262751410000002098438302341988773_);" points="284.3,198.9 284.3,191.5 
				284.6,191.7 284.6,199 			"/>
			
				<linearGradient id="SVGID_00000167372706113535516310000012797850845153549973_" gradientUnits="userSpaceOnUse" x1="284.8682" y1="330.0516" x2="282.3534" y2="339.9173" gradientTransform="matrix(1 0 0 1 0 -140)">
				<stop  offset="0" style="stop-color:#FFFFFF"/>
				<stop  offset="0.3656" style="stop-color:#E1E9FD;stop-opacity:0.6341"/>
				<stop  offset="0.7632" style="stop-color:#C7D5FB;stop-opacity:0.2363"/>
				<stop  offset="0.9993" style="stop-color:#BDCEFA;stop-opacity:0"/>
			</linearGradient>
			<polygon style="fill:url(#SVGID_00000167372706113535516310000012797850845153549973_);" points="283.8,196.4 283.8,191.2 
				284,191.3 284,196.5 			"/>
			
				<linearGradient id="SVGID_00000059302402802882400310000007460298410513020305_" gradientUnits="userSpaceOnUse" x1="284.4126" y1="329.9354" x2="281.8978" y2="339.8011" gradientTransform="matrix(1 0 0 1 0 -140)">
				<stop  offset="0" style="stop-color:#FFFFFF"/>
				<stop  offset="0.3656" style="stop-color:#E1E9FD;stop-opacity:0.6341"/>
				<stop  offset="0.7632" style="stop-color:#C7D5FB;stop-opacity:0.2363"/>
				<stop  offset="0.9993" style="stop-color:#BDCEFA;stop-opacity:0"/>
			</linearGradient>
			<polygon style="fill:url(#SVGID_00000059302402802882400310000007460298410513020305_);" points="283.2,197.6 283.2,190.8 
				283.4,191 283.4,197.8 			"/>
			
				<linearGradient id="SVGID_00000040545024392570970440000008909174286515265199_" gradientUnits="userSpaceOnUse" x1="283.8841" y1="329.8007" x2="281.3693" y2="339.6665" gradientTransform="matrix(1 0 0 1 0 -140)">
				<stop  offset="0" style="stop-color:#FFFFFF"/>
				<stop  offset="0.3656" style="stop-color:#E1E9FD;stop-opacity:0.6341"/>
				<stop  offset="0.7632" style="stop-color:#C7D5FB;stop-opacity:0.2363"/>
				<stop  offset="0.9993" style="stop-color:#BDCEFA;stop-opacity:0"/>
			</linearGradient>
			<polygon style="fill:url(#SVGID_00000040545024392570970440000008909174286515265199_);" points="282.6,197.9 282.6,190.5 
				282.9,190.7 282.9,198 			"/>
			
				<linearGradient id="SVGID_00000096040714670634295510000005317541892477470080_" gradientUnits="userSpaceOnUse" x1="282.6865" y1="329.4954" x2="280.1717" y2="339.3612" gradientTransform="matrix(1 0 0 1 0 -140)">
				<stop  offset="0" style="stop-color:#FFFFFF"/>
				<stop  offset="0.3656" style="stop-color:#E1E9FD;stop-opacity:0.6341"/>
				<stop  offset="0.7632" style="stop-color:#C7D5FB;stop-opacity:0.2363"/>
				<stop  offset="0.9993" style="stop-color:#BDCEFA;stop-opacity:0"/>
			</linearGradient>
			<polygon style="fill:url(#SVGID_00000096040714670634295510000005317541892477470080_);" points="282,192.9 282,190.2 
				282.3,190.3 282.3,193 			"/>
		</g>
	</g>
	
		<linearGradient id="SVGID_00000060734917833153225910000010677332950069091474_" gradientUnits="userSpaceOnUse" x1="265.1752" y1="346.6695" x2="280.1919" y2="346.6695" gradientTransform="matrix(1 0 0 1 0 -140)">
		<stop  offset="7.043800e-02" style="stop-color:#8347E2"/>
		<stop  offset="0.2746" style="stop-color:#773BD1"/>
		<stop  offset="0.6762" style="stop-color:#591CA6"/>
		<stop  offset="0.9996" style="stop-color:#3D007E"/>
	</linearGradient>
	<path style="fill:url(#SVGID_00000060734917833153225910000010677332950069091474_);" d="M265.2,206.4v6.6c0,0,7.7,2.6,15-6.6V200
		L265.2,206.4z"/>
	<path class="st96" d="M268.7,208.5c0.1,0,0.2,0.1,0.2,0.1c1.3,0.1,6-0.9,10.6-6.2c0.4-0.4,0.6-1,0.6-1.5V186c0-1.1-0.4-1.9-1-2.3
		l-3.5-2c-0.6-0.4-1.5-0.3-2.5,0.2l-4.8,2.8c-1.9,1.1-3.5,3.9-3.5,6.1v15c0,0.3,0.1,0.6,0.3,0.7L268.7,208.5z"/>
	<path class="st49" d="M270,185.5c0,0.4,0.2,0.7,0.7,1c1,0.6,2.5,0.6,3.5,0c0.5-0.3,0.7-0.7,0.7-1v-3.3c0-0.4-0.2-0.7-0.7-1
		c-1-0.6-2.5-0.6-3.5,0c-0.5,0.3-0.7,0.7-0.7,1V185.5z"/>
	<g>
		<path class="st97" d="M256.8,206.9L256.8,206.9c-1-0.5-1.3-1.7-0.9-2.6l8.4-16.7c0.5-1,1.7-1.3,2.6-0.9l0,0c1,0.5,1.3,1.7,0.9,2.6
			l-8.4,16.7C259,207,257.8,207.4,256.8,206.9z"/>
	</g>
	<g>
		<path class="st46" d="M278.8,175.2l2.4,9.5c0.2,0.9-0.7,1.7-1.5,1.3l-5.6-2.3c-0.5-0.2-0.8-0.7-0.7-1.2l1.8-9.3
			c0.2-1,1.5-1.2,2-0.4l1.3,2.2C278.7,175,278.8,175.1,278.8,175.2z"/>
		<path class="st97" d="M270.2,180.9c0,0.8-0.6,1.1-1.3,0.7c-0.7-0.4-1.3-1.4-1.3-2.2s0.6-1.1,1.3-0.7
			C269.7,179.1,270.2,180.1,270.2,180.9z"/>
		<circle class="st97" cx="272.5" cy="177" r="6.8"/>
		<path class="st46" d="M265.9,178c0,0,5.8,3.2,8.6-5.1c0,0,1.5,3.5,5.2,2.7c0,0,0-5.4-5.6-6.4C274.1,169.2,264.2,168.2,265.9,178z"
			/>
		<path class="st46" d="M269,178.2l2.4,9.5c0.2,0.9-0.7,1.7-1.5,1.3l-5.6-2.3c-0.5-0.2-0.8-0.7-0.7-1.2l1.8-9.3c0.2-1,1.5-1.2,2-0.4
			l1.3,2.2C269,178,269,178.1,269,178.2z"/>
	</g>
</g>
<g>
	<g>
		<path class="st47" d="M308.2,324.1L308.2,324.1c0.9,0.4,2.1,0,2.5-0.9l6-13.3c0.4-0.9,0-2.1-0.9-2.5l0,0c-0.9-0.4-2.1,0-2.5,0.9
			l-6,13.3C306.9,322.6,307.3,323.7,308.2,324.1z"/>
		<path class="st32" d="M311.5,310l2-4.3c0.7-1.5,2.4-2.1,3.8-1.4l0,0c1.5,0.7,2.1,2.4,1.4,3.8l-2,4.3
			C316.7,312.4,313.8,314,311.5,310z"/>
	</g>
	<g>
		<g>
			<path class="st98" d="M320.3,324.2c0.1,0.2,0.1,0.4,0.1,0.6v6.4c0,1.2-1.2,2.3-2.8,2.3l0,0c-1.6,0-2.9-1-2.9-2.2v-8.1
				c0-0.3,0.2-0.6,0.5-0.7C316.3,322.1,318.9,321.6,320.3,324.2z"/>
		</g>
		<g>
			<g>
				<path class="st88" d="M333.6,336.8c0.8,0.3,0.2,2.3,0.3,4.2c0,2.6-0.5,5.1-1.7,5.8c-0.3,0.2-0.6,0.2-0.8,0.1l-1.2-0.7
					c-0.7-0.3-1.1-1.9-1.8-4.2c-0.7-2.5-1.1-4.2,1.7-5.8c0.8-0.5,1.3-0.6,1.5-0.5L333.6,336.8z"/>
				<path class="st99" d="M328.5,342.1c0.8,3.1,1.4,4.8,2.5,4.1c1.2-0.7,1.4-3.2,1-6.2c-0.4-2.6,0.9-5.4-1.8-3.7
					C327.3,337.9,327.8,339.5,328.5,342.1z"/>
			</g>
			<path class="st98" d="M327.9,339.7c-0.2,0-0.4-0.1-0.6-0.2l-11.5-6.4c-1.1-0.6-1.4-2.2-0.6-3.6l0,0c0.8-1.4,2.3-2,3.3-1.4l13,7.2
				c0.3,0.2,0.4,0.5,0.4,0.8C331.7,337.3,330.9,339.8,327.9,339.7z"/>
		</g>
	</g>
	<g>
		<g>
			<path class="st88" d="M326.2,349.2c0.1,0.8-1.9,1.3-3.5,2.3c-2.3,1.3-4.7,2-5.9,1.4c-0.3-0.2-0.4-0.4-0.4-0.6V351
				c0-0.8,1.1-1.9,2.8-3.6c1.9-1.8,3.1-3,5.9-1.4c0.8,0.5,1.1,0.8,1.1,1.1V349.2z"/>
			<path class="st99" d="M319.1,347.2c-2.3,2.2-3.5,3.5-2.4,4.2c1.2,0.7,3.5-0.3,5.9-2.2c2.1-1.6,5.2-1.8,2.4-3.4
				C322.2,344.2,321,345.4,319.1,347.2z"/>
		</g>
		<path class="st100" d="M320.9,345.6c-0.1-0.2-0.1-0.4-0.1-0.6v-19.6c0-1.2,1.3-2.3,2.8-2.3l0,0c1.6,0,2.8,1,2.8,2.3v21.3
			c0,0.3-0.2,0.6-0.5,0.7C324.9,347.8,322.3,348.2,320.9,345.6z"/>
	</g>
	<path class="st0" d="M325.5,329c-0.1,0-0.1,0.1-0.2,0.1c-1.3,0.1-5.8-0.9-10.3-6c-0.4-0.4-0.6-1-0.6-1.5v-14.4c0-1.1,0.4-1.9,1-2.2
		l3.4-2c0.6-0.4,1.5-0.3,2.4,0.2l4.6,2.7c1.9,1.1,3.4,3.7,3.4,5.9v14.5c0,0.3-0.1,0.6-0.3,0.7L325.5,329z"/>
	<path class="st101" d="M324.2,306.8c0,0.4-0.2,0.7-0.7,1c-0.9,0.5-2.5,0.5-3.4,0c-0.5-0.3-0.7-0.6-0.7-1v-3.1c0-0.4,0.2-0.7,0.7-1
		c0.9-0.5,2.5-0.5,3.4,0c0.5,0.3,0.7,0.6,0.7,1V306.8z"/>
	<g>
		<path class="st47" d="M337,327.5L337,327.5c0.9-0.5,1.3-1.6,0.8-2.5l-6.6-13.1c-0.5-0.9-1.6-1.3-2.5-0.8l0,0
			c-0.9,0.5-1.3,1.6-0.8,2.5l6.6,13.1C334.9,327.5,336.1,327.9,337,327.5z"/>
		<path class="st32" d="M328,316.1l-2.1-4.2c-0.7-1.4-0.1-3.2,1.3-3.9l0,0c1.4-0.7,3.2-0.1,3.9,1.3l2.1,4.2
			C333.1,313.5,332.5,316.8,328,316.1z"/>
	</g>
	<path class="st47" d="M315.2,298.6c0,3.6,3,6.6,6.6,6.6s6.6-3,6.6-6.6s-3-6.6-6.6-6.6C318.1,292.1,315.2,295,315.2,298.6z"/>
	<path class="st102" d="M327.2,290.8c5.6,1.9,2.8,10.2-1.3,13.1c-2-1.1,0.4-3.1-2.3-1.7c-0.5-2.6,0.7-1.8-0.1-5.2
		c-2.9,1.5-8.4-0.3-9.3-3.1c1-0.4,2-3.3,4.4-4.3C321.7,288.4,325.5,289,327.2,290.8z"/>
	<path class="st47" d="M323.9,302.3c0,0.8,0.6,1.1,1.2,0.7c0.7-0.4,1.2-1.3,1.2-2.1c0-0.8-0.6-1.1-1.2-0.7
		C324.5,300.6,323.9,301.6,323.9,302.3z"/>
</g>
<g id="DESIGNED_BY_FREEPIK">
</g>
</svg>
