<svg height="60" width="311" xmlns="http://www.w3.org/2000/svg"><g fill-rule="evenodd"><path d="m296.205 33.437v.561c0 3.24 1.834 5.442 5.415 5.442 2.686 0 4.306-1.297 5.671-3.066l2.942 3.325c-1.833 2.548-5.074 4.145-9.21 4.145-6.566 0-10.489-4.621-10.489-11.832 0-7.125 3.795-11.747 10.318-11.747 6.95 0 10.148 5.183 10.148 11.357v1.815zm9.124-3.8c0-3.109-1.577-5.225-4.391-5.225-2.857 0-4.733 2.158-4.733 5.268v.345h9.124zm-25.427 9.76c2.601 0 3.88-1.512 4.69-3.541l4.179 2.029c-1.45 3.973-4.563 5.959-8.869 5.959-6.566 0-10.276-4.577-10.276-11.832 0-7.212 3.71-11.747 10.276-11.747 4.477 0 7.419 2.16 8.741 5.702l-4.477 2.029c-.512-1.9-1.919-3.282-4.264-3.282-3.028 0-4.562 2.159-4.562 5.311v4.103c0 3.152 1.534 5.269 4.562 5.269zm-19.544-9.76c0-3.196-1.066-4.837-3.667-4.837-2.26 0-4.435 1.21-4.435 3.627v14.899h-5.458v-22.543h5.458v3.758h.213c.896-2.419 2.772-4.276 6.226-4.276 4.562 0 7.121 3.196 7.121 8.811v14.25h-5.458zm-24.405 9.803h-.255c-.725 2.894-3.156 4.404-6.482 4.404-4.519 0-7.077-2.634-7.077-6.649 0-4.621 3.453-6.911 9.508-6.911h3.795v-1.641c0-2.504-1.237-3.973-4.136-3.973-2.558 0-4.008 1.297-5.074 2.851l-3.24-2.937c1.619-2.591 4.221-4.319 8.698-4.319 6.012 0 9.21 2.894 9.21 8.033v10.624h2.217v4.404h-3.027c-2.345 0-3.795-1.555-4.137-3.886zm-.511-5.829h-3.497c-2.856 0-4.263.992-4.263 2.763v.734c0 1.814 1.236 2.72 3.368 2.72 2.431 0 4.392-1.123 4.392-3.238zm-22.485-3.974c0-3.196-1.066-4.837-3.667-4.837-2.261 0-4.435 1.21-4.435 3.627v14.899h-5.458v-22.543h5.458v3.758h.213c.896-2.419 2.772-4.276 6.226-4.276 4.562 0 7.121 3.196 7.121 8.811v14.25h-5.458zm-21.847-12.135c-2.26 0-3.198-1.165-3.198-2.764v-.863c0-1.599.938-2.764 3.198-2.764 2.217 0 3.197 1.165 3.197 2.764v.863c0 1.599-.98 2.764-3.197 2.764zm0 3.281h2.729v22.543h-5.458v-17.489h-5.45v-5.054zm-23.067 5.787h11.77v5.052h-11.77v11.704h-5.627v-29.279h19.145v5.053h-13.518zm-19.024 17.533c-2.942 0-5.287-1.726-6.139-4.274h-.171v12.394h-5.458v-31.18h5.458v3.714h.171c.81-2.592 3.197-4.233 6.139-4.233 5.629 0 8.742 4.233 8.742 11.747 0 7.558-3.113 11.832-8.742 11.832zm3.028-13.732c0-3.195-1.962-5.312-4.775-5.312-2.602 0-4.563 1.425-4.563 3.627v7.17c0 2.331 1.961 3.669 4.563 3.669 2.813 0 4.775-2.071 4.775-5.268zm-25.641 9.328h-.256c-.724 2.894-3.155 4.404-6.481 4.404-4.519 0-7.078-2.634-7.078-6.649 0-4.622 3.454-6.911 9.509-6.911h3.795v-1.64c0-2.505-1.237-3.974-4.137-3.974-2.558 0-4.007 1.296-5.074 2.851l-3.24-2.937c1.62-2.591 4.221-4.319 8.698-4.319 6.013 0 9.211 2.894 9.211 8.033v10.623h2.216v4.405h-3.027c-2.345 0-3.795-1.555-4.136-3.886zm-.511-5.83h-3.497c-2.857 0-4.264.993-4.264 2.764v.734c0 1.813 1.237 2.72 3.369 2.72 2.431 0 4.392-1.122 4.392-3.237zm-30.588.388c0 3.24 1.834 5.442 5.415 5.442 2.687 0 4.306-1.296 5.671-3.066l2.942 3.325c-1.834 2.548-5.074 4.145-9.21 4.145-6.566 0-10.489-4.62-10.489-11.832 0-7.125 3.795-11.747 10.319-11.747 6.95 0 10.147 5.183 10.147 11.359v1.814h-14.795zm9.124-3.973v-.388c0-3.11-1.577-5.225-4.392-5.225-2.856 0-4.732 2.158-4.732 5.268v.345zm-34.952-15.978h5.627v24.226h11.726v5.053h-17.353z" fill="#1d1a6e"/><path d="m46.224 45.94a83.321 83.321 0 0 1 -19.611 13.412l-.883.433a2.066 2.066 0 0 1 -1.828 0l-.883-.433a83.321 83.321 0 0 1 -19.611-13.412 10.552 10.552 0 0 1 -3.405-7.754v-22.703c0-.191.025-.373.071-.546a2.099 2.099 0 0 1 -.017-.931c.138-.605.563-1.103 1.104-1.399l22.661-12.367a2.076 2.076 0 0 1 1.988 0l18.752 10.234 3.976 2.169a2.104 2.104 0 0 1 1.092 1.848v23.695a10.55 10.55 0 0 1 -3.406 7.754zm-40.006-3.105a79.17 79.17 0 0 0 18.598 12.724 79.114 79.114 0 0 0 18.598-12.725 6.324 6.324 0 0 0 2.044-4.648v-20.488l-4.921 2.228v11.764c0 2-.844 3.923-2.316 5.274a50.853 50.853 0 0 1 -11.961 8.18l-.53.259a2.06 2.06 0 0 1 -1.829 0l-.529-.259a50.853 50.853 0 0 1 -11.961-8.18 7.176 7.176 0 0 1 -2.316-5.274v-11.764l-4.921-2.202v20.462c0 1.761.745 3.457 2.044 4.649zm18.356-16.097a2.068 2.068 0 0 1 -.605-.156l-10.702-4.789v9.897c0 .821.347 1.611.954 2.168a46.662 46.662 0 0 0 10.353 7.185zm.242-22.261-18.007 9.827 18.007 8.059 17.965-8.081-.206-.113z" fill="#443eff"/></g></svg>