<?xml version="1.0" encoding="utf-8"?>
<!-- Generator: Adobe Illustrator 26.1.0, SVG Export Plug-In . SVG Version: 6.00 Build 0)  -->
<svg version="1.1" id="Layer_1" xmlns="http://www.w3.org/2000/svg" xmlns:xlink="http://www.w3.org/1999/xlink" x="0px" y="0px"
	 viewBox="0 0 601.1 500" style="enable-background:new 0 0 601.1 500;" xml:space="preserve">
<style type="text/css">
	.st0{fill:#3B03A6;}
	.st1{fill:#BAA7F6;}
	.st2{fill:#79D3FE;}
	.st3{fill:#D7D1EB;}
	.st4{fill:#E9E5F6;}
	.st5{fill:#FFFFFF;}
	.st6{fill:none;stroke:#D7D1EB;stroke-width:2;stroke-miterlimit:10;}
	.st7{opacity:0.2;fill:#79D3FE;enable-background:new    ;}
	.st8{fill:none;stroke:#FFFFFF;stroke-width:2;stroke-linecap:round;stroke-miterlimit:10;}
	.st9{fill:#FE61CA;}
	.st10{fill:#0197F8;}
	.st11{fill:#535FE9;}
	.st12{fill:#FFCDA8;}
</style>
<g id="BACKGROUND">
</g>
<circle class="st0" cx="403.5" cy="251.8" r="20.4"/>
<ellipse class="st0" cx="336.7" cy="189.1" rx="9.9" ry="9.9"/>
<ellipse class="st0" cx="270.6" cy="154.9" rx="9.9" ry="9.9"/>
<path class="st0" d="M241.8,297.7c4.9,0,8.8,4,8.8,8.8s-4,8.8-8.8,8.8s-8.8-4-8.8-8.8S236.9,297.7,241.8,297.7z"/>
<path class="st0" d="M255.8,294.6c0,0,0.7,10.7,0.1,11.8c-0.6,1.1-16,7.7-16,7.7l-2.1-13L255.8,294.6z"/>
<polygon class="st0" points="266.8,262 255.9,254.5 264.5,243.6 "/>
<polygon class="st0" points="265.6,180 256.1,175.9 264.7,148 279.2,153.7 "/>
<polygon class="st0" points="321.4,218.8 310.5,210.2 332.5,183 344.6,191.3 "/>
<polygon class="st0" points="503,364.1 494.5,351.4 438.7,412.4 440.8,413.7 "/>
<path class="st1" d="M265.6,323l53.3-75.9l45.3,62.1l-55.6,27.4c0,0,7.1,9.7,12.8,19.7c5.7,10,3.9,19.5-1.4,17.6
	c-5.2-1.9-27.7-19.6-27.7-19.6L265.6,323z"/>
<path class="st2" d="M293.4,355.1c4.5,3.5,22.1,17.1,26.6,18.8l-25.6-22.5L293.4,355.1z"/>
<polygon class="st0" points="326.1,227.2 317.8,259 330.4,264.9 "/>
<path class="st3" d="M295.4,327.7c4.2,9.1,4.6,34.5-4.3,31.7c-8.8-2.7-52.2-43.4-52.2-43.4l4.5-9.9l13.3-5.1
	C256.8,301.1,291.2,318.7,295.4,327.7z"/>
<polygon class="st3" points="271.9,256.8 257,297.4 241.8,303.7 235.6,299.6 254.4,254.3 "/>
<polygon class="st2" points="251.7,260.9 235.6,299.6 237.9,301.1 252.5,260.9 "/>
<circle class="st0" cx="264.7" cy="257.1" r="13.5"/>
<path class="st2" d="M265.1,243.7c-0.1,0-0.3,0-0.4,0c-7.5,0-13.5,6-13.5,13.5c0,2.2,0.5,4.3,1.5,6.1c-0.1-0.8-0.2-1.6-0.2-2.4
	C252.5,252.8,257.8,246,265.1,243.7z"/>
<polygon class="st0" points="264.7,279 268.7,287.2 254.7,299.1 250.6,288.1 "/>
<path class="st4" d="M301.6,308.7c4.3,11.1-1.8,26.1-8.1,20.6c-6.3-5.4-37.6-27.4-38.8-27c-1.1,0.4,1.1-7.7,1.1-7.7l12.9-9.9
	C268.7,284.8,297.3,297.6,301.6,308.7z"/>
<polygon class="st0" points="309.5,318.1 300.5,312.9 317,280.7 323.6,284.8 "/>
<polygon class="st4" points="268.7,284.8 254.7,291.7 247,284.8 251.9,264.7 261.7,259 270.6,265.6 "/>
<polygon class="st4" points="321.4,260.2 283.3,275.4 263.5,256.1 264.7,241.6 327.4,218.8 "/>
<polygon class="st2" points="327.4,218.8 264.7,241.6 263.5,256.1 268.7,246 326.1,227.2 "/>
<polygon class="st3" points="321.4,260.2 283.3,275.4 274.6,267.4 323.4,246 "/>
<polygon class="st4" points="385.5,277.3 372.9,316.1 355.2,309.9 326.1,263 326,221.8 "/>
<polygon class="st3" points="326.1,263 355.2,309.9 372.9,316.1 375.8,307.4 326.1,243.6 "/>
<polygon class="st0" points="373.7,274.7 371.5,272.2 396.4,232.7 406.9,247 "/>
<polygon class="st5" points="598,500.7 461.5,500.7 456.8,480.8 456.8,480.7 440.8,413.7 444.8,410.5 452.8,404.1 460.5,398 
	498.8,367.4 503,364.1 506.1,361.5 "/>
<path class="st5" d="M359.7,378.3c-12.2-12.7-15.1-29.6-15.1-29.6l22.8-44.3l2.7-26.8l27.3-22.7c0,0,14.2-6.6,19.6-4.7
	c6.2,2.1,13.2,4.8,14.8,6.6c3.1,3.4,3.7,12.9,9.1,19.7c5.3,6.8,57.9,70.7,57.9,70.7l-1.7,16l-58.4,49.2
	C438.7,412.4,371.9,391,359.7,378.3z"/>
<path class="st3" d="M359.7,378.3c9.3,9.7,50.2,24.4,69.2,30.9l0,0c3.6-3.2,27.9-23.1,21.8-61c0,0-5.5-7.9-10.7,0s-17.2,12.4-26.6,4
	s-38.4,6.2-38.4,6.2l-29-12.2l-1.3,2.5C344.6,348.7,347.4,365.6,359.7,378.3z"/>
<path class="st2" d="M455.6,316c6.9,9.1,19.2,11,19.2,11s-7.5-3.2-15.9-12.7s-10-16.3-10-16.3S448.7,306.9,455.6,316z"/>
<polygon class="st2" points="370.1,277.6 367.5,302.8 370.5,302.3 371.5,281.4 372.8,275.4 "/>
<path class="st2" d="M359.7,378.3c9.3,9.7,50.2,24.4,69.2,30.9l4.9-5c0,0-22.2-4-39.9-10.6C376.2,386.9,359.7,378.3,359.7,378.3z"/>
<path class="st2" d="M450.7,288.7v6.4l28.4,34.2h4.9C473.5,316.7,459.9,300,450.7,288.7z"/>
<path class="st3" d="M396.4,378.1l-46.3-40.2l-5.5,10.7c0,0,2.6,15.5,13.6,28C376.7,380.9,396.4,378.1,396.4,378.1z"/>
<polygon class="st5" points="371.5,272.2 366.2,272.2 321.4,221.8 321.4,211 337,190.7 347.3,191.6 396.4,232.7 393.5,251.1 "/>
<polygon class="st5" points="265.8,181.7 264.7,171.7 273.7,155.2 281.9,152.9 331.6,179.7 334.1,189 318,208.9 308.4,210.5 "/>
<path class="st5" d="M261.9,171.3l-6.8,5.4l-24.6-8.2c-10-3.3-17.3-12.2-18.5-22.7l0,0c-0.6-4.7,3.6-8.5,8.2-7.6l43.2,8.4l7.3,7.5
	L261.9,171.3z"/>
<path class="st5" d="M376,373.9c0,0-67.9-54.4-67.9-54c0,0.3-1.2-7.2-1.2-7.2l14.4-27.9h5l77.2,40.5L376,373.9z"/>
<path class="st5" d="M304.7,310.5l-6.3,3.6c0,0-22.9-16.8-29.2-23.6c-6.3-6.8-12.2-20.2-1.8-27.2c10.4-7,49.7,15.4,49.7,15.4v6
	L304.7,310.5z"/>
<path class="st3" d="M385.5,357.1c-8-10.3-17.1-18.9-18.3-16.8c-2.6,4.5-5.2,11.1-5.2,11.1L313.7,316l5.9-5.1l-21.2-14.7l-2.9,7.4
	c0,0-5.8-3-18.4-12c-8-5.8-12.9-13.4-15.3-18.2c-0.2,6.2,3.6,12.9,7.5,17.1c6.3,6.8,29.2,23.6,29.2,23.6l5.9-3.4
	c0.9,0.6,1.9,1.1,2.9,1.5l-0.2,0.4c0,0,1.2,7.5,1.2,7.2s67.9,54,67.9,54L385.5,357.1z"/>
<polygon class="st2" points="377.4,370.1 376,373.9 308.1,319.9 307.6,317 "/>
<circle class="st0" cx="391.8" cy="351.4" r="27.1"/>
<circle class="st0" cx="312.1" cy="299.1" r="14"/>
<path class="st2" d="M323.6,294.1c-1.9-4.5-6.4-7.6-11.6-7.6c-6.9,0-12.6,5.6-12.6,12.6c0,2.5,0.7,4.8,2,6.7c-0.7-1.5-1-3.2-1-5
	c0-6.9,5.6-12.6,12.6-12.6C317.5,288.3,321.4,290.6,323.6,294.1z"/>
<path class="st2" d="M413.3,342.1c-3.6-8.3-11.9-14.2-21.5-14.2c-13,0-23.5,10.5-23.5,23.5c0,4.6,1.4,8.9,3.6,12.5
	c-1.2-2.8-1.9-6-1.9-9.3c0-13,10.5-23.5,23.5-23.5C401.8,331.1,409.1,335.5,413.3,342.1z"/>
<path class="st3" d="M427.6,408.7c1.1,0.4,2.1,0.7,3,1c13.6-11.7,22.2-29,22.2-48.2c0-35.1-28.5-63.6-63.6-63.6
	c-7.6,0-14.8,1.3-21.5,3.8l-0.3,2.7l-0.2,0.4c6.8-2.7,14.3-4.1,22-4.1c33.6,0,60.9,27.3,60.9,60.9
	C450.1,380.5,441.3,397.5,427.6,408.7z"/>
<line class="st6" x1="505.3" y1="500.7" x2="460.5" y2="398"/>
<line class="st6" x1="326.8" y1="204" x2="380.6" y2="263.5"/>
<line class="st6" x1="266.8" y1="167.9" x2="323.6" y2="201.9"/>
<path class="st3" d="M264.9,165.5l-52.4-17c0.2,1.1,0.5,2.1,0.9,3.1l50.3,16.4L264.9,165.5z"/>
<polygon class="st3" points="485.5,500.7 461.5,500.7 456.8,480.8 456.8,480.7 440.8,413.7 444.8,410.5 452.8,404.1 "/>
<path class="st1" d="M289,358.5l-45.4-52.3l-4.5,9.9C239,316.1,276.8,351.6,289,358.5z"/>
<path class="st1" d="M293.5,329.3c3.5,3,6.9-0.2,8.5-5.4l-45.7-20.8C262.9,306.8,287.9,324.5,293.5,329.3z"/>
<polygon class="st2" points="251.9,264.7 247,284.8 254.7,291.7 250.6,281.9 255.1,266.1 261.7,259 "/>
<g>
	<polygon class="st3" points="318,208.9 264.7,171.7 265.8,181.7 308.4,210.5 	"/>
	<polygon class="st3" points="366.2,272.2 371.5,272.2 321.4,211 321.4,221.8 	"/>
	<path class="st3" d="M214.7,154.9c3.2,6.3,8.8,11.3,15.8,13.6l24.6,8.2l6.8-5.4c0,0-18.6-4.9-29-8.6
		C222.6,158.9,214.8,155,214.7,154.9z"/>
</g>
<path class="st2" d="M268.7,342.7L240,314.1l0,0l-0.9,1.9C239,316.1,254.4,330.5,268.7,342.7z"/>
<path class="st2" d="M234.8,311.9c-0.5-1.3-0.8-2.6-0.8-4.1c0-2.5,0.8-4.7,2.2-6.5l-1.1-0.6c-1.4,1.5-2.2,3.6-2.2,5.8
	C233,308.6,233.7,310.4,234.8,311.9z"/>
<path class="st2" d="M213,141.4l50.3,5.2l-43.2-8.4C217.2,137.6,214.4,139.1,213,141.4z"/>
<polygon class="st2" points="331.6,179.7 281.9,152.9 273.7,155.2 283.5,157.4 330.1,181.7 334.1,189 "/>
<polygon class="st2" points="396.4,232.7 347.3,191.6 337,190.7 346.6,195.5 391.6,234.6 393.5,251.1 "/>
<path class="st2" d="M397.4,255c0,0,15.3-3.6,22.6,1.1c7.3,4.8,9.1,6.6,10.2,12.8c1.1,6.2,12,15.8,12,15.8l3.5,7.7l2.2-7.2
	c-3.5-4.3-6-7.4-6.9-8.6c-5.3-6.8-6-16.3-9.1-19.7c-1.6-1.8-8.7-4.5-14.8-6.6C411.6,248.4,397.4,255,397.4,255z"/>
<path class="st3" d="M485.1,331.2c0.1,0,0.2,0,0.3,0c-0.7-0.9-1.5-1.8-2.3-2.8c-19.4-1-34.9-17.1-34.9-36.7c0-1.8,0.1-3.6,0.4-5.3
	c-0.8-1-1.6-1.9-2.3-2.8c-0.5,2.6-0.8,5.3-0.8,8.1C445.6,313.5,463.3,331.2,485.1,331.2z"/>
<polygon class="st2" points="456.8,480.8 444.8,410.5 440.8,413.7 "/>
<polygon class="st2" points="438.7,412.4 442.5,409.2 438.7,406.7 433,410.5 "/>
<path class="st2" d="M403.5,235c8.9,0,16.5,5.3,20,12.9c-1.8-9.3-10.1-16.4-20-16.4c-0.4,0-0.8,0-1.2,0.1l0.8,3.5
	C403.3,235,403.4,235,403.5,235z"/>
<polygon class="st2" points="498.8,347.4 497.1,363.3 495.3,349.1 483,333 487,333 "/>
<polygon class="st2" points="598,500.7 597.9,500.7 498.8,367.4 503,364.1 506.1,361.5 "/>
<g>
	<path class="st2" d="M265.6,264.8c0,0,8.4-2.6,20.6,2.9c12.2,5.4,28.1,11.5,28.7,12.2s2.1,4.9,2.1,4.9v-6c0,0-39.2-22.4-49.7-15.4
		C266.7,263.8,266.1,264.3,265.6,264.8z"/>
	<path class="st2" d="M320.4,286.5h6.3c0,0,70.1,39,76.8,38.7l-77.2-40.5h-5L320.4,286.5L320.4,286.5L320.4,286.5z"/>
</g>
<g>
	<path class="st2" d="M310.5,210.2l-44.7-31.7c0,0-0.1,0-0.4-0.1l0.4,3.3l42.6,28.8L310.5,210.2z"/>
	<polygon class="st2" points="321.4,221.8 366.2,272.2 368.5,272.2 321.4,217.4 321.4,217.4 	"/>
	<path class="st2" d="M255.1,176.7l1.4-1.1c-8.5-2.7-20.4-6.6-25.6-9.1c-8.3-3.9-13.1-6.9-13.3-7.1c3.2,4.1,7.7,7.3,12.8,9
		L255.1,176.7z"/>
</g>
<path class="st2" d="M333.9,181.7c1-0.3,2-0.5,3.1-0.5c4.6,0,8.4,3.1,9.6,7.3c-0.3-5.2-4.6-9.3-9.9-9.3c-1.2,0-2.4,0.2-3.5,0.7
	L333.9,181.7z"/>
<path class="st2" d="M267.2,148.4c1.5-0.9,3.3-1.5,5.2-1.5c2.3,0,4.4,0.8,6.1,2.1c-1.8-2.4-4.7-4-8-4c-2,0-3.9,0.6-5.5,1.6
	C265.8,147.2,266.5,147.9,267.2,148.4z"/>
<path class="st2" d="M298.4,314.1l2.1-1.2c0,0-17.1-12.2-24.5-18.3c-7.5-6.1-13.7-16.4-13.7-16.4l0,0c1.2,4.7,4,9.2,6.9,12.3
	C275.6,297.4,298.4,314.1,298.4,314.1z"/>
<path class="st2" d="M254.7,302.4c0.9-0.4,21.5,13.9,32.7,22.3l0,0c-4.2-5.4-32.7-25.5-32.7-25.5
	C254.4,300.9,254.2,302.6,254.7,302.4z"/>
<circle class="st7" cx="212.6" cy="148.1" r="55.9"/>
<circle class="st7" cx="212.6" cy="148.1" r="42.3"/>
<ellipse class="st7" cx="212.6" cy="148" rx="28.7" ry="28.7"/>
<line class="st8" x1="339.9" y1="59.5" x2="279.2" y2="101.9"/>
<line class="st8" x1="423.9" y1="154.9" x2="314.9" y2="154.9"/>
<line class="st8" x1="72.6" y1="152.9" x2="140" y2="152.9"/>
<line class="st8" x1="86.9" y1="231.4" x2="149.3" y2="189.5"/>
<rect x="142.5" y="72.4" class="st5" width="39.8" height="4.4"/>
<rect x="169.1" y="83.3" class="st5" width="13.2" height="4.4"/>
<rect x="36.8" y="287" class="st5" width="39.8" height="4.4"/>
<rect x="49" y="140.9" class="st9" width="13.4" height="13.6"/>
<rect x="28.8" y="132.4" class="st2" width="13.4" height="22.1"/>
<rect x="8.5" y="127.3" class="st10" width="13.4" height="27.2"/>
<rect x="63.4" y="297.9" class="st5" width="13.2" height="4.4"/>
<rect x="49.1" y="165.7" class="st5" width="13.2" height="4.4"/>
<rect x="349.5" y="73" class="st5" width="39.8" height="4.4"/>
<rect x="349.5" y="83.9" class="st5" width="13.2" height="4.4"/>
<rect x="449.5" y="188.2" class="st5" width="39.8" height="4.4"/>
<rect x="476.1" y="199.1" class="st5" width="13.2" height="4.4"/>
<path class="st11" d="M395.7,44.2c0,10.9,8.8,19.6,19.6,19.6c10.9,0,19.6-8.8,19.6-19.6c0-10.9-8.8-19.6-19.6-19.6
	C404.4,24.6,395.7,33.4,395.7,44.2z M405.5,44.2c0-5.4,4.4-9.8,9.8-9.8s9.8,4.4,9.8,9.8s-4.4,9.8-9.8,9.8S405.5,49.6,405.5,44.2z"/>
<path class="st11" d="M346.7,44.2c0,10.9,8.8,19.6,19.6,19.6S386,55.1,386,44.2s-8.8-19.6-19.6-19.6
	C355.5,24.6,346.7,33.4,346.7,44.2z M356.5,44.2c0-5.4,4.4-9.8,9.8-9.8s9.8,4.4,9.8,9.8s-4.4,9.8-9.8,9.8S356.5,49.6,356.5,44.2z"/>
<path class="st9" d="M395.7,44.2h9.9c0-5.4,4.4-9.8,9.8-9.8v-9.9C404.4,24.6,395.7,33.4,395.7,44.2z"/>
<path class="st2" d="M366.3,34.4v-9.9c-10.9,0-19.6,8.8-19.6,19.6c0,10.9,8.8,19.6,19.6,19.6c5.4,0,10.3-2.2,13.9-5.7l-7-7
	c-1.8,1.8-4.2,2.9-6.9,2.9c-5.4,0-9.8-4.4-9.8-9.8S360.9,34.5,366.3,34.4z"/>
<g>
	<path class="st0" d="M447.5,170.4v-30.8c0-1.5,1.2-2.8,2.8-2.8h30.8c1.5,0,2.8,1.2,2.8,2.8v30.8c0,1.5-1.2,2.8-2.8,2.8h-30.8
		C448.8,173.2,447.5,171.9,447.5,170.4z"/>
	<path class="st3" d="M453.2,165.8V144c0-0.9,0.7-1.7,1.7-1.7h21.8c0.9,0,1.7,0.7,1.7,1.7v21.8c0,0.9-0.7,1.7-1.7,1.7h-21.8
		C453.9,167.5,453.2,166.7,453.2,165.8z"/>
	<g>
		<path class="st12" d="M475.2,138.3v-5.2c0-0.9,0.7-1.5,1.5-1.5l0,0c0.9,0,1.5,0.7,1.5,1.5v5.2c0,0.9-0.7,1.5-1.5,1.5l0,0
			C475.9,139.8,475.2,139.2,475.2,138.3z"/>
		<path class="st12" d="M467.9,138.3v-5.2c0-0.9,0.7-1.5,1.5-1.5l0,0c0.9,0,1.5,0.7,1.5,1.5v5.2c0,0.9-0.7,1.5-1.5,1.5l0,0
			C468.6,139.8,467.9,139.2,467.9,138.3z"/>
		<path class="st12" d="M460.5,138.3v-5.2c0-0.9,0.7-1.5,1.5-1.5l0,0c0.9,0,1.5,0.7,1.5,1.5v5.2c0,0.9-0.7,1.5-1.5,1.5l0,0
			C461.2,139.8,460.5,139.2,460.5,138.3z"/>
		<path class="st12" d="M453.2,138.3v-5.2c0-0.9,0.7-1.5,1.5-1.5l0,0c0.9,0,1.5,0.7,1.5,1.5v5.2c0,0.9-0.7,1.5-1.5,1.5l0,0
			C453.9,139.8,453.2,139.2,453.2,138.3z"/>
	</g>
	<g>
		<path class="st12" d="M475.2,176.8v-5.2c0-0.9,0.7-1.5,1.5-1.5l0,0c0.9,0,1.5,0.7,1.5,1.5v5.2c0,0.9-0.7,1.5-1.5,1.5l0,0
			C475.9,178.3,475.2,177.6,475.2,176.8z"/>
		<path class="st12" d="M467.9,176.8v-5.2c0-0.9,0.7-1.5,1.5-1.5l0,0c0.9,0,1.5,0.7,1.5,1.5v5.2c0,0.9-0.7,1.5-1.5,1.5l0,0
			C468.6,178.3,467.9,177.6,467.9,176.8z"/>
		<path class="st12" d="M460.5,176.8v-5.2c0-0.9,0.7-1.5,1.5-1.5l0,0c0.9,0,1.5,0.7,1.5,1.5v5.2c0,0.9-0.7,1.5-1.5,1.5l0,0
			C461.2,178.3,460.5,177.6,460.5,176.8z"/>
		<path class="st12" d="M453.2,176.8v-5.2c0-0.9,0.7-1.5,1.5-1.5l0,0c0.9,0,1.5,0.7,1.5,1.5v5.2c0,0.9-0.7,1.5-1.5,1.5l0,0
			C453.9,178.3,453.2,177.6,453.2,176.8z"/>
	</g>
	<g>
		<path class="st12" d="M449.1,145.5h-5.2c-0.9,0-1.5-0.7-1.5-1.5l0,0c0-0.9,0.7-1.5,1.5-1.5h5.2c0.9,0,1.5,0.7,1.5,1.5l0,0
			C450.6,144.8,449.9,145.5,449.1,145.5z"/>
		<path class="st12" d="M449.1,152.8h-5.2c-0.9,0-1.5-0.7-1.5-1.5l0,0c0-0.9,0.7-1.5,1.5-1.5h5.2c0.9,0,1.5,0.7,1.5,1.5l0,0
			C450.6,152.1,449.9,152.8,449.1,152.8z"/>
		<path class="st12" d="M449.1,160.1h-5.2c-0.9,0-1.5-0.7-1.5-1.5l0,0c0-0.9,0.7-1.5,1.5-1.5h5.2c0.9,0,1.5,0.7,1.5,1.5l0,0
			C450.6,159.5,449.9,160.1,449.1,160.1z"/>
		<path class="st12" d="M449.1,167.5h-5.2c-0.9,0-1.5-0.7-1.5-1.5l0,0c0-0.9,0.7-1.5,1.5-1.5h5.2c0.9,0,1.5,0.7,1.5,1.5l0,0
			C450.6,166.8,449.9,167.5,449.1,167.5z"/>
	</g>
	<g>
		<path class="st12" d="M487.6,145.5h-5.2c-0.9,0-1.5-0.7-1.5-1.5l0,0c0-0.9,0.7-1.5,1.5-1.5h5.2c0.9,0,1.5,0.7,1.5,1.5l0,0
			C489.1,144.8,488.4,145.5,487.6,145.5z"/>
		<path class="st12" d="M487.6,152.8h-5.2c-0.9,0-1.5-0.7-1.5-1.5l0,0c0-0.9,0.7-1.5,1.5-1.5h5.2c0.9,0,1.5,0.7,1.5,1.5l0,0
			C489.1,152.1,488.4,152.8,487.6,152.8z"/>
		<path class="st12" d="M487.6,160.1h-5.2c-0.9,0-1.5-0.7-1.5-1.5l0,0c0-0.9,0.7-1.5,1.5-1.5h5.2c0.9,0,1.5,0.7,1.5,1.5l0,0
			C489.1,159.5,488.4,160.1,487.6,160.1z"/>
		<path class="st12" d="M487.6,167.5h-5.2c-0.9,0-1.5-0.7-1.5-1.5l0,0c0-0.9,0.7-1.5,1.5-1.5h5.2c0.9,0,1.5,0.7,1.5,1.5l0,0
			C489.1,166.8,488.4,167.5,487.6,167.5z"/>
	</g>
</g>
<polygon class="st5" points="512.5,243.6 520.2,230.3 527.9,243.6 "/>
<polygon class="st5" points="121.2,344.6 128.9,331.3 136.6,344.6 "/>
<polygon class="st5" points="473.1,87.3 480.8,74 488.5,87.3 "/>
<polygon class="st2" points="512.5,257 520.2,243.6 527.9,257 "/>
<polygon class="st5" points="196.5,24.6 204.2,11.3 211.9,24.6 "/>
<polygon class="st2" points="196.5,37.9 204.2,24.6 211.9,37.9 "/>
<g>
	<path class="st0" d="M47.1,234.1l-1.5,7.1h13.2l-1.5-7.1c-0.2-0.7-0.8-1.2-1.5-1.2h-7.2C47.8,232.9,47.2,233.4,47.1,234.1z"/>
	<path class="st0" d="M67.1,239.8l-6.9,2.2l6.6,11.4l5.4-4.9c0.5-0.5,0.7-1.3,0.3-1.9l-3.6-6.2C68.5,239.9,67.7,239.6,67.1,239.8z"
		/>
	<path class="st0" d="M72.1,260l-5.4-4.9l-6.6,11.4l6.9,2.2c0.7,0.2,1.4-0.1,1.8-0.7l3.6-6.2C72.8,261.2,72.6,260.5,72.1,260z"/>
	<path class="st0" d="M57.2,274.4l1.5-7.1H45.5l1.5,7.1c0.2,0.7,0.8,1.2,1.5,1.2h7.2C56.4,275.6,57,275.1,57.2,274.4z"/>
	<path class="st0" d="M37.2,268.7l6.9-2.2l-6.6-11.4l-5.4,4.9c-0.5,0.5-0.7,1.3-0.3,1.9l3.6,6.2C35.8,268.7,36.5,269,37.2,268.7z"/>
	<path class="st0" d="M32.1,248.6l5.4,4.9l6.6-11.4l-6.9-2.2c-0.7-0.2-1.4,0.1-1.8,0.7l-3.6,6.2C31.5,247.3,31.6,248.1,32.1,248.6z"
		/>
	<circle class="st10" cx="52.1" cy="254.3" r="16.8"/>
	<path class="st11" d="M52.1,244.5c5.4,0,9.8,4.4,9.8,9.8s-4.4,9.8-9.8,9.8s-9.8-4.4-9.8-9.8S46.7,244.5,52.1,244.5z"/>
	<circle class="st0" cx="52.1" cy="254.3" r="4.6"/>
</g>
<polygon class="st2" points="159.5,34.8 168.7,34.8 182.3,62 173.1,62 "/>
<g>
	<polygon class="st2" points="164.7,373.9 155.4,392.6 218.9,392.6 224.8,380.8 268.5,380.8 271.9,373.9 228.2,373.9 220.6,373.9 	
		"/>
	<polygon class="st2" points="138.4,392.6 148.8,392.6 158.2,373.9 147.7,373.9 	"/>
</g>
<polygon class="st2" points="144.2,34.8 153.4,34.8 167,62 157.8,62 "/>
<polygon class="st2" points="128.9,34.8 138.1,34.8 151.7,62 142.5,62 "/>
<polygon class="st9" points="186.2,258.6 195.4,258.6 209,285.8 199.8,285.8 "/>
<polygon class="st9" points="170.9,258.6 180.1,258.6 193.7,285.8 184.5,285.8 "/>
<polygon class="st9" points="155.6,258.6 164.8,258.6 178.4,285.8 169.2,285.8 "/>
<polygon class="st2" points="113.6,34.8 122.8,34.8 136.4,62 127.2,62 "/>
<polygon class="st10" points="98.3,34.8 107.5,34.8 121.1,62 111.9,62 "/>
<polygon class="st9" points="324.8,432.3 320.2,436.8 323,439.6 327.5,435.1 332.1,439.6 334.9,436.8 330.3,432.3 334.9,427.7 
	332.1,424.9 327.5,429.5 323,424.9 320.2,427.7 "/>
<polygon class="st5" points="539,315.4 534.4,319.9 537.2,322.7 541.8,318.1 546.3,322.7 549.1,319.9 544.5,315.4 549.1,310.8 
	546.3,308 541.8,312.6 537.2,308 534.4,310.8 "/>
<polygon class="st5" points="73.8,92.2 69.3,96.7 72.1,99.5 76.6,94.9 81.2,99.5 84,96.7 79.4,92.2 84,87.6 81.2,84.8 76.6,89.4 
	72.1,84.8 69.3,87.6 "/>
<circle class="st5" cx="402.2" cy="119.6" r="4.8"/>
<path class="st5" d="M98.3,428.9c1.9,0,3.4,1.5,3.4,3.4s-1.5,3.4-3.4,3.4s-3.4-1.5-3.4-3.4S96.4,428.9,98.3,428.9z"/>
<circle class="st5" cx="35.3" cy="48.4" r="3.4"/>
<circle class="st9" cx="281.4" cy="37.9" r="3.4"/>
<circle class="st9" cx="527.9" cy="132.4" r="3.4"/>
</svg>
