<svg id="SvgjsSvg1066" width="288" height="288" xmlns="http://www.w3.org/2000/svg" version="1.1" xmlns:xlink="http://www.w3.org/1999/xlink" xmlns:svgjs="http://svgjs.com/svgjs"><defs id="SvgjsDefs1067"></defs><g id="SvgjsG1068"><svg xmlns="http://www.w3.org/2000/svg" enable-background="new 0 0 24 24" viewBox="0 0 24 24" width="288" height="288"><rect width="3" height="4" x="4.5" y="8.5" fill="none" stroke="#ffffff" stroke-linecap="round" stroke-linejoin="round" class="colorStroke303c42 svgStroke"></rect><rect width="3" height="7" x="10.5" y="5.5" fill="none" stroke="#ffffff" stroke-linecap="round" stroke-linejoin="round" class="colorStroke303c42 svgStroke"></rect><rect width="3" height="9" x="16.5" y="3.5" fill="none" stroke="#ffffff" stroke-linecap="round" stroke-linejoin="round" class="colorStroke303c42 svgStroke"></rect><path fill="none" stroke="#ffffff" stroke-linecap="round" stroke-linejoin="round" d="M2 1.5h20c.8 0 1.5.7 1.5 1.5v14c0 .8-.7 1.5-1.5 1.5H2c-.8 0-1.5-.7-1.5-1.5V3C.5 2.2 1.2 1.5 2 1.5zM9.5 18.5c0 0 .2 4-2 4h9c-2.2 0-2-4-2-4" class="colorStroke303c42 svgStroke"></path><line x1=".5" x2="23.5" y1="14.5" y2="14.5" fill="none" stroke="#ffffff" stroke-linecap="round" stroke-linejoin="round" class="colorStroke303c42 svgStroke"></line><circle cx="12" cy="16.5" r=".5" fill="none" stroke="#ffffff" stroke-linecap="round" stroke-linejoin="round" class="colorStroke303c42 svgStroke"></circle></svg></g></svg>