<svg id="SvgjsSvg1042" width="288" height="288" xmlns="http://www.w3.org/2000/svg" version="1.1" xmlns:xlink="http://www.w3.org/1999/xlink" xmlns:svgjs="http://svgjs.com/svgjs"><defs id="SvgjsDefs1043"></defs><g id="SvgjsG1044"><svg xmlns="http://www.w3.org/2000/svg" enable-background="new 0 0 64 64" viewBox="0 0 64 64" width="288" height="288"><path d="M63 0H51c-.552 0-1 .447-1 1v12c0 .553.448 1 1 1h5c0 1.654-1.346 3-3 3h-9.586l1.293-1.293-1.414-1.414-3 3c-.391.391-.391 1.023 0 1.414l3 3 1.414-1.414L43.414 19H53c2.757 0 5-2.243 5-5h5c.552 0 1-.447 1-1V1C64 .447 63.552 0 63 0zM62 12H52V2h10V12zM23.707 18.707l-1.414-1.414L21 18.586V11c0-2.757-2.243-5-5-5h-.465l-3.703-5.555C11.646.167 11.334 0 11 0H5C4.666 0 4.354.167 4.168.445l-4 6c-.224.336-.224.773 0 1.109l4 6C4.354 13.833 4.666 14 5 14h6c.334 0 .646-.167.832-.445L15.535 8H16c1.654 0 3 1.346 3 3v7.586l-1.293-1.293-1.414 1.414 3 3C19.488 21.902 19.744 22 20 22s.512-.098.707-.293L23.707 18.707zM10.465 12h-4.93L2.202 7l3.333-5h4.93l3.333 5L10.465 12z" fill="#ffffff" class="color000 svgShape"></path><path d="M32.707 18.707l-1.414-1.414L30 18.586V11c0-1.34.889-2.464 2.103-2.848C32.655 11.464 35.533 14 39 14c3.86 0 7-3.141 7-7s-3.14-7-7-7c-3.552 0-6.488 2.662-6.935 6.094C29.755 6.534 28 8.563 28 11v7.586l-1.293-1.293-1.414 1.414 3 3C28.488 21.902 28.744 22 29 22s.512-.098.707-.293L32.707 18.707zM39 2c2.757 0 5 2.243 5 5s-2.243 5-5 5-5-2.243-5-5S36.243 2 39 2zM28.192 37.241c-2.34 2.338-6.146 2.338-8.485 0l-1.414 1.414c1.56 1.56 3.608 2.339 5.657 2.339s4.097-.779 5.657-2.339L28.192 37.241zM35.808 37.241l-1.414 1.414c1.56 1.56 3.608 2.339 5.657 2.339s4.097-.779 5.657-2.339l-1.414-1.414C41.953 39.579 38.147 39.579 35.808 37.241zM27.707 49.241l-1.414 1.414c1.56 1.56 3.608 2.339 5.657 2.339s4.097-.779 5.657-2.339l-1.414-1.414C33.853 51.579 30.047 51.579 27.707 49.241z" fill="#ffffff" class="color000 svgShape"></path><path d="M48,22H29h-9h-4c-3.309,0-6,2.691-6,6v11.14c0,11.987,8.547,22.315,20.322,24.559l1.491,0.284	C31.875,63.994,31.937,64,32,64c0.062,0,0.125-0.006,0.187-0.018l1.49-0.284C45.453,61.455,54,51.127,54,39.14V28
	C54,24.691,51.309,22,48,22z M33.303,61.733L32,61.982l-1.304-0.249C19.863,59.67,12,50.168,12,39.14v-6.68
	c1.063,0.954,2.462,1.54,4,1.54h32c1.538,0,2.937-0.586,4-1.54v6.68C52,50.168,44.137,59.67,33.303,61.733z M48,32H16
	c-2.206,0-4-1.794-4-4s1.794-4,4-4h32c2.206,0,4,1.794,4,4S50.206,32,48,32z" fill="#ffffff" class="color000 svgShape"></path></svg></g></svg>