<svg id="SvgjsSvg1093" width="288" height="288" xmlns="http://www.w3.org/2000/svg" version="1.1" xmlns:xlink="http://www.w3.org/1999/xlink" xmlns:svgjs="http://svgjs.com/svgjs"><defs id="SvgjsDefs1094"></defs><g id="SvgjsG1095"><svg xmlns="http://www.w3.org/2000/svg" viewBox="0 0 48 48" width="288" height="288"><path d="M24.71 35.04c0-3.71-2.39-6.87-5.72-8.03a4.423 4.423 0 0 0 1.66-3.45 4.464 4.464 0 0 0-8.93 0c0 1.4.66 2.63 1.66 3.45-3.32 1.16-5.72 4.32-5.72 8.03 0 .41.34.75.75.75h15.53c.44 0 .77-.34.77-.75zM13.23 23.56a2.966 2.966 0 0 1 5.93 0 2.966 2.966 0 0 1-5.93 0zM9.22 34.29c.38-3.52 3.36-6.27 6.98-6.27s6.6 2.75 6.98 6.27H9.22z" fill="#ffffff" class="color000 svgShape"></path><path d="M47 40.35h-1.41V15.23a2.2 2.2 0 0 0-2.2-2.2h-2.14V3.2c0-1.63-1.32-2.95-2.95-2.95H21.71c-1.63 0-2.95 1.32-2.95 2.95v9.83H4.61a2.2 2.2 0 0 0-2.2 2.2v25.12H1c-.41 0-.75.34-.75.75 0 3.67 2.63 6.65 5.86 6.65h35.78c3.23 0 5.86-2.98 5.86-6.65 0-.41-.34-.75-.75-.75zM20.26 3.2c0-.8.65-1.45 1.45-1.45h16.58c.8 0 1.45.65 1.45 1.45v10.35c0 .8-.65 1.45-1.45 1.45h-9.82c-.2 0-.39.08-.53.22l-3.79 3.79v-3.26c0-.41-.34-.75-.75-.75h-1.69c-.8 0-1.45-.65-1.45-1.45V3.2zM3.9 15.23c0-.39.32-.7.7-.7h14.33c.41 1.14 1.49 1.97 2.77 1.97h.94v4.32c0 .3.18.58.46.69.09.04.19.06.29.06.19 0 .39-.08.53-.22l4.85-4.85h9.51c1.28 0 2.37-.83 2.77-1.97h2.32c.39 0 .7.32.7.7v25.12H28.06a.73.73 0 0 0-.67.42l-.94 1.91h-4.89l-.94-1.91a.751.751 0 0 0-.67-.42H3.9V15.23zm37.99 31.02H6.11c-2.19 0-4.01-1.91-4.31-4.4h17.67l.94 1.91c.13.26.39.42.67.42h5.83c.29 0 .55-.16.67-.42l.94-1.91H46.2c-.3 2.49-2.12 4.4-4.31 4.4z" fill="#ffffff" class="color000 svgShape"></path><path d="M22.98 5.4h14.05v1.5H22.98zM22.98 9.85h14.05v1.5H22.98z" fill="#ffffff" class="color000 svgShape"></path></svg></g></svg>