<?xml version="1.0" encoding="UTF-8"?>
<svg xmlns="http://www.w3.org/2000/svg" width="300" height="100" viewBox="0 0 300 100" fill="none">
  <path d="M26 42.7998L48.7104 42.8042L62.5198 42.8065V29.3516L26 42.7998Z" fill="#FF9D28"></path>
  <path d="M62.5195 29.3534V76.8563L79.7673 23L62.5195 29.3534Z" fill="#68C5ED"></path>
  <path d="M62.5204 42.807L48.7109 42.8047L62.5204 76.8549V42.807Z" fill="#044D80"></path>
  <path d="M26 42.8008L52.2517 51.542L48.7104 42.8052L26 42.8008Z" fill="#E54747"></path>
  <path d="M109.661 64.3486C109.461 64.5455 109.127 64.7912 108.66 65.0863C108.193 65.3817 107.585 65.6768 106.835 65.9723C106.084 66.267 105.167 66.5208 104.083 66.7348C102.999 66.9474 101.757 67.0543 100.357 67.0543C97.6554 67.0543 95.3209 66.6277 93.3536 65.7755C91.3855 64.9232 89.7599 63.7334 88.4764 62.2087C87.1924 60.6836 86.2506 58.8801 85.6503 56.797C85.05 54.7144 84.75 52.4271 84.75 49.9341C84.75 47.4422 85.0751 45.1376 85.7254 43.0223C86.3756 40.9067 87.351 39.079 88.6515 37.5368C89.9521 35.9957 91.5779 34.7902 93.5288 33.9208C95.4797 33.0524 97.772 32.6172 100.407 32.6172C101.707 32.6172 102.883 32.7323 103.933 32.9615C104.984 33.1912 105.901 33.462 106.685 33.7733C107.468 34.0854 108.118 34.4127 108.636 34.7572C109.152 35.1015 109.544 35.3892 109.811 35.618C110.111 35.8811 110.369 36.1923 110.587 36.5527C110.803 36.914 110.912 37.3076 110.912 37.7336C110.912 38.39 110.661 39.0456 110.161 39.7014C109.661 40.3578 109.111 40.9645 108.51 41.5217C108.11 41.1281 107.66 40.727 107.16 40.3165C106.66 39.9066 106.101 39.5463 105.484 39.2341C104.867 38.9229 104.166 38.6606 103.383 38.447C102.599 38.234 101.724 38.1271 100.757 38.1271C99.0564 38.1271 97.6309 38.4639 96.4803 39.1357C95.3298 39.8083 94.4043 40.6853 93.7041 41.7677C93.0038 42.8501 92.5035 44.0883 92.2033 45.482C91.9033 46.8763 91.7532 48.2946 91.7532 49.7375C91.7532 51.2794 91.9033 52.7552 92.2033 54.1649C92.5034 55.5753 93.02 56.8219 93.7541 57.9038C94.4871 58.986 95.4462 59.8554 96.6303 60.5111C97.8135 61.1677 99.2892 61.4951 101.057 61.4951C101.99 61.4951 102.849 61.3806 103.633 61.151C104.416 60.9216 105.109 60.6426 105.709 60.3141C106.309 59.987 106.835 59.6428 107.285 59.2816C107.735 58.9208 108.11 58.6096 108.41 58.3466C108.611 58.5766 108.843 58.8557 109.111 59.1831C109.379 59.5141 109.63 59.859 109.861 60.2163C110.094 60.5775 110.294 60.938 110.461 61.2982C110.628 61.6597 110.711 61.9872 110.711 62.2819C110.711 62.7089 110.628 63.0694 110.461 63.3645C110.294 63.6598 110.027 63.9881 109.661 64.3486ZM135.439 60.5755C135.439 63.1823 135.825 65.0795 136.597 66.2673C135.993 66.4978 135.431 66.6631 134.911 66.762C134.39 66.8612 133.845 66.9104 133.275 66.9104C132.068 66.9104 131.153 66.6794 130.533 66.2176C129.912 65.7561 129.518 65.0962 129.35 64.2379C128.612 64.9976 127.639 65.6407 126.431 66.1687C125.224 66.6956 123.747 66.9603 122.003 66.9603C121.097 66.9603 120.191 66.8367 119.286 66.5909C118.38 66.343 117.557 65.9409 116.82 65.3824C116.081 64.8228 115.478 64.0745 115.008 63.137C114.538 62.1995 114.303 61.0568 114.303 59.7086C114.303 58.0312 114.714 56.6658 115.536 55.6138C116.358 54.5608 117.39 53.7305 118.631 53.1218C119.872 52.5138 121.214 52.0953 122.657 51.8645C124.099 51.634 125.425 51.4864 126.633 51.4199C127.036 51.3873 127.429 51.3703 127.815 51.3703H128.897V50.4695C128.897 49.2012 128.553 48.3002 127.866 47.7667C127.178 47.233 126.062 46.9655 124.519 46.9655C123.076 46.9655 121.793 47.1967 120.669 47.6583C119.545 48.1208 118.446 48.6482 117.373 49.2422C116.903 48.6814 116.525 48.063 116.241 47.3862C115.956 46.7104 115.813 46.207 115.813 45.8767C115.813 45.4151 116.073 44.9696 116.593 44.5404C117.113 44.1121 117.826 43.7238 118.732 43.3773C119.638 43.0309 120.677 42.751 121.852 42.536C123.026 42.3217 124.268 42.2143 125.576 42.2143C127.388 42.2143 128.923 42.3961 130.181 42.7587C131.439 43.1222 132.462 43.6828 133.25 44.4414C134.038 45.2009 134.6 46.149 134.936 47.2872C135.271 48.4256 135.439 49.7542 135.439 51.2713V60.5755H135.439ZM128.998 54.8346H128.293C128.058 54.8346 127.823 54.8518 127.589 54.8843C126.75 54.9507 125.919 55.0495 125.098 55.1809C124.275 55.3132 123.546 55.5442 122.909 55.874C122.271 56.2041 121.751 56.6334 121.349 57.1606C120.946 57.6888 120.745 58.3656 120.745 59.1901C120.745 60.114 121.013 60.8972 121.55 61.5407C122.086 62.1843 122.992 62.506 124.267 62.506C124.904 62.506 125.508 62.424 126.079 62.2582C126.649 62.0939 127.152 61.8793 127.589 61.6153C128.024 61.3512 128.369 61.0627 128.621 60.7488C128.872 60.4357 128.998 60.1472 128.998 59.883V54.8346H128.998ZM147.969 45.0846C148.504 44.4582 149.34 43.8226 150.477 43.1791C151.614 42.5357 153.052 42.214 154.792 42.214C156.03 42.214 157.208 42.4203 158.329 42.8326C159.449 43.2455 160.444 43.9138 161.313 44.8371C162.183 45.7612 162.877 46.9822 163.396 48.4995C163.914 50.0176 164.174 51.8822 164.174 54.092C164.174 56.6656 163.872 58.7861 163.27 60.4519C162.668 62.1187 161.891 63.4385 160.938 64.4115C159.985 65.3849 158.923 66.0696 157.753 66.4653C156.582 66.8612 155.411 67.0594 154.241 67.0594C153.271 67.0594 152.426 66.952 151.708 66.7377C150.988 66.5228 150.378 66.2844 149.876 66.02C149.375 65.7563 148.99 65.4928 148.723 65.2281C148.455 64.9644 148.288 64.7825 148.221 64.6833V76.8497H141.377V42.9068C141.545 42.8744 141.748 42.8412 141.986 42.808C142.189 42.7756 142.425 42.7506 142.696 42.7336C142.966 42.7174 143.287 42.709 143.659 42.709C144.774 42.709 145.721 42.8907 146.498 43.2534C147.275 43.6169 147.766 44.2269 147.969 45.0846ZM157.027 54.2404C157.027 53.2507 156.944 52.3274 156.777 51.4691C156.611 50.6116 156.335 49.869 155.952 49.242C155.568 48.6155 155.05 48.1284 154.4 47.7818C153.749 47.4354 152.957 47.2624 152.024 47.2624C150.623 47.2624 149.647 47.5268 149.097 48.054C148.546 48.5823 148.271 49.1601 148.271 49.7864V60.2789C148.538 60.5433 149.012 60.8562 149.696 61.2192C150.381 61.5825 151.172 61.7633 152.073 61.7633C153.775 61.7633 155.026 61.1041 155.827 59.7839C156.627 58.4644 157.027 56.6162 157.027 54.2404ZM169.456 62.7535C169.221 62.0939 169.07 61.4006 169.003 60.6746C168.935 59.9491 168.902 59.2235 168.902 58.4966V35.5324C169.137 35.5 169.388 35.4668 169.657 35.4335C169.891 35.4011 170.143 35.3765 170.412 35.3593C170.68 35.3431 170.948 35.3347 171.217 35.3347C171.753 35.3347 172.29 35.3842 172.827 35.483C173.363 35.5822 173.85 35.7801 174.287 36.0768C174.723 36.3738 175.075 36.7784 175.343 37.2894C175.612 37.8013 175.746 38.4696 175.746 39.2938V42.8076H182.792V47.8067H175.746V58.3608C175.746 60.6624 176.702 61.8129 178.615 61.8129C179.084 61.8129 179.528 61.739 179.948 61.5901C180.367 61.4418 180.745 61.277 181.081 61.0955C181.416 60.914 181.71 60.7244 181.961 60.5263C182.213 60.3282 182.389 60.1799 182.489 60.081C182.993 60.8073 183.378 61.436 183.647 61.9665C183.915 62.4977 184.049 62.9962 184.049 63.462C184.049 63.8954 183.874 64.3203 183.521 64.7364C183.168 65.1524 182.673 65.5361 182.036 65.8855C181.399 66.235 180.628 66.518 179.722 66.7346C178.816 66.9512 177.826 67.0596 176.753 67.0596C174.672 67.0596 173.053 66.6634 171.896 65.8718C170.739 65.0795 169.925 64.0401 169.456 62.7535ZM200.125 62.1099C200.967 62.1099 201.707 62.0196 202.347 61.8377C202.987 61.6569 203.559 61.434 204.064 61.17C204.569 60.9063 205.007 60.6175 205.377 60.3039C205.747 59.9906 206.084 59.702 206.388 59.4374C206.791 59.9321 207.212 60.5679 207.65 61.3426C208.087 62.1187 208.306 62.7535 208.306 63.2482C208.306 63.9744 207.886 64.6343 207.048 65.2281C206.344 65.7563 205.345 66.21 204.054 66.5889C202.762 66.9681 201.244 67.1581 199.5 67.1581C197.922 67.1581 196.371 66.9603 194.845 66.5643C193.318 66.1685 191.959 65.4754 190.769 64.4854C189.577 63.496 188.613 62.1681 187.875 60.5016C187.137 58.8355 186.768 56.7325 186.768 54.1912C186.768 52.1123 187.095 50.3231 187.749 48.8214C188.403 47.3203 189.275 46.0746 190.366 45.0848C191.456 44.0949 192.689 43.3696 194.065 42.9069C195.44 42.4455 196.849 42.2141 198.292 42.2141C200.171 42.2141 201.764 42.5035 203.073 43.0803C204.381 43.6579 205.446 44.4335 206.268 45.4065C207.09 46.3798 207.685 47.4934 208.055 48.7472C208.423 50.0014 208.608 51.3207 208.608 52.7065V53.3993C208.608 53.6639 208.6 53.9437 208.583 54.2406C208.566 54.5378 208.549 54.827 208.533 55.1067C208.515 55.3877 208.49 55.6101 208.458 55.775H193.612C193.746 57.5899 194.319 59.0992 195.328 60.3039C196.338 61.5085 197.937 62.1099 200.125 62.1099ZM202.418 52.0629C202.418 50.4792 202.106 49.1924 201.482 48.2026C200.857 47.2129 199.735 46.7177 198.116 46.7177C196.732 46.7177 195.627 47.1881 194.801 48.1284C193.974 49.0689 193.561 50.3803 193.561 52.0627H202.418V52.0629ZM220.518 45.2097C220.719 44.9153 220.988 44.5881 221.323 44.2276C221.658 43.8674 222.07 43.5401 222.556 43.2457C223.042 42.9511 223.579 42.705 224.167 42.5087C224.753 42.3123 225.382 42.2141 226.054 42.2141C226.457 42.2141 226.884 42.2474 227.337 42.3123C227.79 42.3781 228.209 42.501 228.595 42.6804C228.981 42.8607 229.291 43.1057 229.526 43.4167C229.761 43.7276 229.878 44.1119 229.878 44.5698C229.878 45.2897 229.694 46.1164 229.325 47.0498C228.955 47.984 228.587 48.7805 228.218 49.4401C227.647 48.9783 227.077 48.6236 226.507 48.3761C225.936 48.1287 225.265 48.0048 224.494 48.0048C223.454 48.0048 222.582 48.3027 221.877 48.898C221.172 49.4935 220.82 50.205 220.82 51.0322V67.054H213.976V42.9068C214.144 42.8744 214.345 42.8412 214.58 42.808C214.781 42.7756 215.016 42.7506 215.285 42.7336C215.553 42.7174 215.871 42.709 216.241 42.709C217.314 42.709 218.245 42.9137 219.034 43.3223C219.822 43.7304 220.317 44.3599 220.518 45.2097ZM239.977 45.2097C240.178 44.9153 240.446 44.5881 240.782 44.2276C241.117 43.8674 241.528 43.5401 242.015 43.2457C242.501 42.9511 243.038 42.705 243.625 42.5087C244.212 42.3123 244.841 42.2141 245.512 42.2141C245.915 42.2141 246.342 42.2474 246.795 42.3123C247.248 42.3781 247.667 42.501 248.053 42.6804C248.439 42.8607 248.749 43.1057 248.985 43.4167C249.219 43.7276 249.337 44.1119 249.337 44.5698C249.337 45.2897 249.152 46.1164 248.783 47.0498C248.413 47.984 248.045 48.7805 247.676 49.4401C247.106 48.9783 246.535 48.6236 245.965 48.3761C245.394 48.1287 244.723 48.0048 243.952 48.0048C242.912 48.0048 242.04 48.3027 241.335 48.898C240.631 49.4935 240.279 50.205 240.279 51.0322V67.054H233.435V42.9068C233.602 42.8744 233.803 42.8412 234.039 42.808C234.24 42.7756 234.475 42.7506 234.743 42.7336C235.011 42.7174 235.33 42.709 235.699 42.709C236.773 42.709 237.704 42.9137 238.492 43.3223C239.28 43.7304 239.775 44.3599 239.977 45.2097ZM272.637 60.5755C272.637 63.1823 273.022 65.0795 273.794 66.2673C273.19 66.4978 272.628 66.6631 272.109 66.762C271.588 66.8612 271.043 66.9104 270.473 66.9104C269.265 66.9104 268.351 66.6794 267.731 66.2176C267.109 65.7561 266.715 65.0962 266.548 64.2379C265.81 64.9976 264.837 65.6407 263.629 66.1687C262.421 66.6956 260.945 66.9603 259.201 66.9603C258.295 66.9603 257.389 66.8367 256.483 66.5909C255.577 66.343 254.755 65.9409 254.017 65.3824C253.279 64.8228 252.675 64.0745 252.206 63.137C251.735 62.1995 251.501 61.0568 251.501 59.7086C251.501 58.0312 251.911 56.6658 252.734 55.6138C253.556 54.5608 254.588 53.7305 255.829 53.1218C257.07 52.5138 258.412 52.0953 259.855 51.8645C261.297 51.634 262.623 51.4864 263.83 51.4199C264.233 51.3873 264.627 51.3703 265.013 51.3703H266.095V50.4695C266.095 49.2012 265.751 48.3002 265.063 47.7667C264.375 47.233 263.26 46.9655 261.717 46.9655C260.274 46.9655 258.991 47.1967 257.867 47.6583C256.743 48.1208 255.644 48.6482 254.571 49.2422C254.101 48.6814 253.723 48.063 253.438 47.3862C253.153 46.7104 253.011 46.207 253.011 45.8767C253.011 45.4151 253.27 44.9696 253.791 44.5404C254.311 44.1121 255.024 43.7238 255.93 43.3773C256.836 43.0309 257.875 42.751 259.05 42.536C260.224 42.3217 261.465 42.2143 262.774 42.2143C264.585 42.2143 266.12 42.3961 267.378 42.7587C268.636 43.1222 269.659 43.6828 270.448 44.4414C271.236 45.2009 271.798 46.149 272.134 47.2872C272.469 48.4256 272.637 49.7542 272.637 51.2713V60.5755ZM266.195 54.8346H265.491C265.256 54.8346 265.021 54.8518 264.787 54.8843C263.948 54.9507 263.117 55.0495 262.295 55.1809C261.473 55.3132 260.743 55.5442 260.106 55.874C259.469 56.2041 258.949 56.6334 258.546 57.1606C258.144 57.6888 257.942 58.3656 257.942 59.1901C257.942 60.114 258.211 60.8972 258.748 61.5407C259.284 62.1843 260.19 62.506 261.465 62.506C262.102 62.506 262.706 62.424 263.277 62.2582C263.847 62.0939 264.35 61.8793 264.787 61.6153C265.222 61.3512 265.567 61.0627 265.818 60.7488C266.07 60.4357 266.196 60.1472 266.196 59.883V54.8346H266.195Z" fill="#044D80"></path>
</svg>
