<svg id="figma" xmlns="http://www.w3.org/2000/svg" width="100" height="100" viewBox="0 0 149.785 224.678">
  <path id="Path_117" data-name="Path 117" d="M37.446,156.813a37.46,37.46,0,0,0,37.446-37.446V81.92H37.446a37.446,37.446,0,1,0,0,74.893Z" transform="translate(0 67.865)" fill="#0acf83"/>
  <path id="Path_118" data-name="Path 118" d="M0,78.406A37.472,37.472,0,0,1,37.446,40.96H74.893v74.893H37.446A37.46,37.46,0,0,1,0,78.406Z" transform="translate(0 33.933)" fill="#a259ff"/>
  <path id="Path_119" data-name="Path 119" d="M0,37.446A37.472,37.472,0,0,1,37.446,0H74.893V74.893H37.446A37.46,37.46,0,0,1,0,37.446Z" fill="#f24e1e"/>
  <path id="Path_120" data-name="Path 120" d="M40.96,0H78.406a37.446,37.446,0,1,1,0,74.893H40.96V0Z" transform="translate(33.933)" fill="#ff7262"/>
  <path id="Path_121" data-name="Path 121" d="M115.853,78.406A37.446,37.446,0,1,1,78.406,40.96a37.448,37.448,0,0,1,37.446,37.446Z" transform="translate(33.933 33.933)" fill="#1abcfe"/>
</svg>
