<?xml version="1.0" encoding="utf-8"?>
<!-- Generator: Adobe Illustrator 26.1.0, SVG Export Plug-In . SVG Version: 6.00 Build 0)  -->
<svg version="1.1" id="Layer_1" xmlns="http://www.w3.org/2000/svg" xmlns:xlink="http://www.w3.org/1999/xlink" x="0px" y="0px"
	 viewBox="0 0 58.83 58.83" style="enable-background:new 0 0 58.83 58.83;" xml:space="preserve">
<path style="opacity:0.6;fill:#4AD89E;" d="M78.08,14.48V13.7H31.78l-1.35,0.78H78.08z M78.08,30.7v-0.78H3.69L2.34,30.7H78.08z
	 M78.08,11.78V11H36.47l-1.35,0.78H78.08z M78.08,22.59v-0.78H17.74l-1.35,0.78H78.08z M78.08,28v-0.78H8.37L7.02,28H78.08z
	 M78.08,25.3v-0.78H13.06L11.7,25.3H78.08z M78.08,9.08V8.3H41.15L39.8,9.08H78.08z M78.08,19.89v-0.78H22.42l-1.35,0.78H78.08z
	 M78.08,17.19v-0.78H27.1l-1.35,0.78H78.08z M78.08-9.85v-0.78h-4.15l-1.35,0.78H78.08z M78.08-7.14v-0.78h-8.83l-1.35,0.78H78.08z
	 M77.26-12.55h0.82v-0.47L77.26-12.55z M78.08-1.74v-0.78h-18.2l-1.35,0.78H78.08z M78.08,0.97V0.19H55.2l-1.35,0.78H78.08z
	 M78.08-4.44v-0.78H64.56l-1.35,0.78H78.08z M78.08,6.37V5.59H45.83l-1.35,0.78H78.08z M78.08,3.67V2.89H50.51l-1.35,0.78H78.08z
	 M78.08,65.85v-0.78H60.67l1.35,0.78H78.08z M78.08,60.44v-0.78H51.3l1.35,0.78H78.08z M78.08,33.41v-0.78H4.48l1.35,0.78H78.08z
	 M78.08,55.03v-0.78H41.94l1.35,0.78H78.08z M78.08,57.74v-0.78H46.62l1.35,0.78H78.08z M78.08,73.96v-0.78h-3.36l1.35,0.78H78.08z
	 M78.08,68.55v-0.78H65.35l1.35,0.78H78.08z M78.08,71.25v-0.78h-8.04l1.35,0.78H78.08z M78.08,63.14v-0.78H55.98l1.35,0.78H78.08z
	 M78.08,38.81v-0.78H13.84l1.35,0.78H78.08z M78.08,36.11v-0.78H9.16l1.35,0.78H78.08z M78.08,52.33v-0.78H37.25l1.35,0.78H78.08z
	 M78.08,41.52v-0.78H18.52l1.35,0.78H78.08z M78.08,44.22v-0.78H23.21l1.35,0.78H78.08z M78.08,49.63v-0.78h-45.5l1.35,0.78H78.08z
	 M78.08,46.92v-0.78H27.89l1.35,0.78H78.08z"/>
</svg>
