<?xml version="1.0" encoding="utf-8"?>
<!-- Generator: Adobe Illustrator 26.1.0, SVG Export Plug-In . SVG Version: 6.00 Build 0)  -->
<svg version="1.1" id="Layer_1" xmlns="http://www.w3.org/2000/svg" xmlns:xlink="http://www.w3.org/1999/xlink" x="0px" y="0px"
	 viewBox="0 0 58.83 58.83" style="enable-background:new 0 0 58.83 58.83;" xml:space="preserve">
<g>
	<path style="fill:#854DFF;" d="M36.38,64.79c-0.27,0.27-0.71,0.27-0.98,0c-0.27-0.27-0.27-0.71,0-0.98c0.27-0.27,0.71-0.27,0.98,0
		C36.65,64.09,36.65,64.52,36.38,64.79z"/>
	<path style="fill:#854DFF;" d="M12.57,81.1c-0.27,0.27-0.71,0.27-0.98,0c-0.27-0.27-0.27-0.71,0-0.98s0.71-0.27,0.98,0
		C12.84,80.39,12.84,80.83,12.57,81.1z"/>
	<path style="fill:#854DFF;" d="M45.87,58.2c-0.27,0.27-0.71,0.27-0.98,0c-0.27-0.27-0.27-0.71,0-0.98c0.27-0.27,0.71-0.27,0.98,0
		C46.14,57.5,46.14,57.93,45.87,58.2z"/>
	<circle style="fill:#854DFF;" cx="76.3" cy="80.88" r="0.69"/>
	<path style="fill:#854DFF;" d="M38.69,71.63c-0.27,0.27-0.71,0.27-0.98,0c-0.27-0.27-0.27-0.71,0-0.98c0.27-0.27,0.71-0.27,0.98,0
		C38.96,70.92,38.96,71.36,38.69,71.63z"/>
	<circle style="fill:#854DFF;" cx="34.97" cy="87.25" r="0.69"/>
	<path style="fill:#854DFF;" d="M52.76,35.99c-0.27,0.27-0.71,0.27-0.98,0c-0.27-0.27-0.27-0.71,0-0.98c0.27-0.27,0.71-0.27,0.98,0
		C53.03,35.28,53.03,35.72,52.76,35.99z"/>
	<circle style="fill:#854DFF;" cx="35.85" cy="56.56" r="0.69"/>
	<path style="fill:#854DFF;" d="M32.05,77.44c-0.27,0.27-0.71,0.27-0.98,0c-0.27-0.27-0.27-0.71,0-0.98c0.27-0.27,0.71-0.27,0.98,0
		C32.32,76.73,32.32,77.17,32.05,77.44z"/>
	<path style="fill:#854DFF;" d="M44.86,37.97c-0.27,0.27-0.71,0.27-0.98,0c-0.27-0.27-0.27-0.71,0-0.98c0.27-0.27,0.71-0.27,0.98,0
		C45.13,37.26,45.13,37.7,44.86,37.97z"/>
	<path style="fill:#854DFF;" d="M16.8,80.16c-0.27,0.27-0.71,0.27-0.98,0c-0.27-0.27-0.27-0.71,0-0.98c0.27-0.27,0.71-0.27,0.98,0
		C17.07,79.45,17.07,79.89,16.8,80.16z"/>
	<circle style="fill:#854DFF;" cx="31.1" cy="50.56" r="0.69"/>
	<path style="fill:#854DFF;" d="M40.26,27.44c-0.27,0.27-0.71,0.27-0.98,0c-0.27-0.27-0.27-0.71,0-0.98c0.27-0.27,0.71-0.27,0.98,0
		C40.53,26.74,40.53,27.17,40.26,27.44z"/>
	<path style="fill:#854DFF;" d="M16.11,56.25c-0.27,0.27-0.71,0.27-0.98,0c-0.27-0.27-0.27-0.71,0-0.98c0.27-0.27,0.71-0.27,0.98,0
		C16.38,55.54,16.38,55.98,16.11,56.25z"/>
	<path style="fill:#854DFF;" d="M48.85,81.89c-0.27,0.27-0.71,0.27-0.98,0c-0.27-0.27-0.27-0.71,0-0.98c0.27-0.27,0.71-0.27,0.98,0
		C49.12,81.19,49.12,81.62,48.85,81.89z"/>
	<path style="fill:#854DFF;" d="M32.05,93.24c-0.27,0.27-0.71,0.27-0.98,0c-0.27-0.27-0.27-0.71,0-0.98c0.27-0.27,0.71-0.27,0.98,0
		C32.32,92.53,32.32,92.97,32.05,93.24z"/>
	<path style="fill:#854DFF;" d="M5.24,96.37c-0.27,0.27-0.71,0.27-0.98,0c-0.27-0.27-0.27-0.71,0-0.98c0.27-0.27,0.71-0.27,0.98,0
		C5.51,95.66,5.51,96.1,5.24,96.37z"/>
	<path style="fill:#854DFF;" d="M22.75,29.22c-0.27,0.27-0.71,0.27-0.98,0c-0.27-0.27-0.27-0.71,0-0.98c0.27-0.27,0.71-0.27,0.98,0
		C23.02,28.52,23.02,28.95,22.75,29.22z"/>
	<circle style="fill:#854DFF;" cx="27.41" cy="61.7" r="0.69"/>
	<path style="fill:#854DFF;" d="M61.97,62.7c-0.27,0.27-0.71,0.27-0.98,0c-0.27-0.27-0.27-0.71,0-0.98c0.27-0.27,0.71-0.27,0.98,0
		C62.24,61.99,62.24,62.43,61.97,62.7z"/>
	<path style="fill:#854DFF;" d="M35.48,12.87c-0.27,0.27-0.71,0.27-0.98,0c-0.27-0.27-0.27-0.71,0-0.98c0.27-0.27,0.71-0.27,0.98,0
		C35.75,12.16,35.75,12.6,35.48,12.87z"/>
	<path style="fill:#854DFF;" d="M39.34,48.02c-0.27,0.27-0.71,0.27-0.98,0c-0.27-0.27-0.27-0.71,0-0.98c0.27-0.27,0.71-0.27,0.98,0
		C39.61,47.31,39.61,47.75,39.34,48.02z"/>
	<path style="fill:#854DFF;" d="M58.31,49.72c-0.27,0.27-0.71,0.27-0.98,0c-0.27-0.27-0.27-0.71,0-0.98c0.27-0.27,0.71-0.27,0.98,0
		C58.58,49.01,58.58,49.45,58.31,49.72z"/>
	<path style="fill:#854DFF;" d="M28.06,9.76c-0.27,0.27-0.71,0.27-0.98,0c-0.27-0.27-0.27-0.71,0-0.98c0.27-0.27,0.71-0.27,0.98,0
		C28.33,9.05,28.33,9.49,28.06,9.76z"/>
	<path style="fill:#854DFF;" d="M29.56,85.28c-0.27,0.27-0.71,0.27-0.98,0s-0.27-0.71,0-0.98c0.27-0.27,0.71-0.27,0.98,0
		C29.83,84.57,29.83,85.01,29.56,85.28z"/>
	<path style="fill:#854DFF;" d="M9.88,93.87c-0.27,0.27-0.71,0.27-0.98,0c-0.27-0.27-0.27-0.71,0-0.98c0.27-0.27,0.71-0.27,0.98,0
		C10.15,93.16,10.15,93.6,9.88,93.87z"/>
	<path style="fill:#854DFF;" d="M43.86,85.1c-0.27,0.27-0.71,0.27-0.98,0c-0.27-0.27-0.27-0.71,0-0.98s0.71-0.27,0.98,0
		C44.13,84.4,44.13,84.83,43.86,85.1z"/>
	<path style="fill:#854DFF;" d="M44.65,32.59c-0.27,0.27-0.71,0.27-0.98,0c-0.27-0.27-0.27-0.71,0-0.98c0.27-0.27,0.71-0.27,0.98,0
		C44.92,31.88,44.92,32.32,44.65,32.59z"/>
	<path style="fill:#854DFF;" d="M23.15,96.04c-0.27,0.27-0.71,0.27-0.98,0c-0.27-0.27-0.27-0.71,0-0.98c0.27-0.27,0.71-0.27,0.98,0
		C23.42,95.33,23.42,95.77,23.15,96.04z"/>
	<path style="fill:#854DFF;" d="M24.8,86.39c-0.27,0.27-0.71,0.27-0.98,0c-0.27-0.27-0.27-0.71,0-0.98c0.27-0.27,0.71-0.27,0.98,0
		C25.07,85.68,25.07,86.12,24.8,86.39z"/>
	<path style="fill:#854DFF;" d="M52.7,52.5c-0.27,0.27-0.71,0.27-0.98,0c-0.27-0.27-0.27-0.71,0-0.98c0.27-0.27,0.71-0.27,0.98,0
		C52.97,51.79,52.97,52.23,52.7,52.5z"/>
	<circle style="fill:#854DFF;" cx="48.66" cy="33.31" r="0.69"/>
	<path style="fill:#854DFF;" d="M30.71,18.3c-0.27,0.27-0.71,0.27-0.98,0c-0.27-0.27-0.27-0.71,0-0.98c0.27-0.27,0.71-0.27,0.98,0
		C30.98,17.59,30.98,18.03,30.71,18.3z"/>
	<path style="fill:#854DFF;" d="M36.19,27.43c-0.27,0.27-0.71,0.27-0.98,0c-0.27-0.27-0.27-0.71,0-0.98c0.27-0.27,0.71-0.27,0.98,0
		C36.46,26.72,36.46,27.16,36.19,27.43z"/>
	<circle style="fill:#854DFF;" cx="61.75" cy="51.84" r="0.69"/>
	<path style="fill:#854DFF;" d="M46.37,54c-0.27,0.27-0.71,0.27-0.98,0c-0.27-0.27-0.27-0.71,0-0.98c0.27-0.27,0.71-0.27,0.98,0
		C46.64,53.29,46.64,53.73,46.37,54z"/>
	<path style="fill:#854DFF;" d="M77.66,53.96c-0.27,0.27-0.71,0.27-0.98,0c-0.27-0.27-0.27-0.71,0-0.98c0.27-0.27,0.71-0.27,0.98,0
		C77.93,53.25,77.93,53.69,77.66,53.96z"/>
	<path style="fill:#854DFF;" d="M74.52,76.43c-0.27,0.27-0.71,0.27-0.98,0c-0.27-0.27-0.27-0.71,0-0.98c0.27-0.27,0.71-0.27,0.98,0
		C74.79,75.72,74.79,76.16,74.52,76.43z"/>
	<path style="fill:#854DFF;" d="M17.53,84.47c-0.27,0.27-0.71,0.27-0.98,0c-0.27-0.27-0.27-0.71,0-0.98c0.27-0.27,0.71-0.27,0.98,0
		C17.8,83.76,17.8,84.2,17.53,84.47z"/>
	<path style="fill:#854DFF;" d="M59.83,66.81c-0.27,0.27-0.71,0.27-0.98,0c-0.27-0.27-0.27-0.71,0-0.98c0.27-0.27,0.71-0.27,0.98,0
		C60.1,66.1,60.1,66.54,59.83,66.81z"/>
	<path style="fill:#854DFF;" d="M9.43,78.06c-0.27,0.27-0.71,0.27-0.98,0c-0.27-0.27-0.27-0.71,0-0.98c0.27-0.27,0.71-0.27,0.98,0
		C9.7,77.35,9.7,77.79,9.43,78.06z"/>
	<path style="fill:#854DFF;" d="M23.04,39.53c-0.27,0.27-0.71,0.27-0.98,0c-0.27-0.27-0.27-0.71,0-0.98s0.71-0.27,0.98,0
		C23.31,38.83,23.31,39.26,23.04,39.53z"/>
	<path style="fill:#854DFF;" d="M13.9,60.41c-0.27,0.27-0.71,0.27-0.98,0c-0.27-0.27-0.27-0.71,0-0.98c0.27-0.27,0.71-0.27,0.98,0
		C14.17,59.7,14.17,60.14,13.9,60.41z"/>
	<circle style="fill:#854DFF;" cx="57.78" cy="34.77" r="0.69"/>
	<path style="fill:#854DFF;" d="M30.09,47.27c-0.27,0.27-0.71,0.27-0.98,0c-0.27-0.27-0.27-0.71,0-0.98c0.27-0.27,0.71-0.27,0.98,0
		C30.36,46.56,30.36,47,30.09,47.27z"/>
	<path style="fill:#854DFF;" d="M15.58,88.3c-0.27,0.27-0.71,0.27-0.98,0c-0.27-0.27-0.27-0.71,0-0.98c0.27-0.27,0.71-0.27,0.98,0
		C15.85,87.59,15.85,88.03,15.58,88.3z"/>
	<circle style="fill:#854DFF;" cx="33.37" cy="82.95" r="0.69"/>
	<path style="fill:#854DFF;" d="M46.43,43.04c-0.27,0.27-0.71,0.27-0.98,0c-0.27-0.27-0.27-0.71,0-0.98c0.27-0.27,0.71-0.27,0.98,0
		C46.7,42.33,46.7,42.77,46.43,43.04z"/>
	<path style="fill:#854DFF;" d="M26.19,90.03c-0.27,0.27-0.71,0.27-0.98,0c-0.27-0.27-0.27-0.71,0-0.98c0.27-0.27,0.71-0.27,0.98,0
		C26.46,89.33,26.46,89.76,26.19,90.03z"/>
	<path style="fill:#854DFF;" d="M65.6,55.35c-0.27,0.27-0.71,0.27-0.98,0c-0.27-0.27-0.27-0.71,0-0.98c0.27-0.27,0.71-0.27,0.98,0
		C65.87,54.64,65.87,55.08,65.6,55.35z"/>
	<circle style="fill:#854DFF;" cx="70.47" cy="56.65" r="0.69"/>
	<circle style="fill:#854DFF;" cx="39.82" cy="59.96" r="0.69"/>
	<path style="fill:#854DFF;" d="M14.25,96.2c-0.27,0.27-0.71,0.27-0.98,0c-0.27-0.27-0.27-0.71,0-0.98s0.71-0.27,0.98,0
		C14.52,95.5,14.52,95.93,14.25,96.2z"/>
	<path style="fill:#854DFF;" d="M15.25,92.44c-0.27,0.27-0.71,0.27-0.98,0c-0.27-0.27-0.27-0.71,0-0.98c0.27-0.27,0.71-0.27,0.98,0
		C15.52,91.73,15.51,92.17,15.25,92.44z"/>
	<circle style="fill:#854DFF;" cx="40.05" cy="77.61" r="0.69"/>
	<path style="fill:#854DFF;" d="M18.15,96.98c-0.27,0.27-0.71,0.27-0.98,0s-0.27-0.71,0-0.98c0.27-0.27,0.71-0.27,0.98,0
		S18.42,96.71,18.15,96.98z"/>
	<path style="fill:#854DFF;" d="M50.74,45.77c-0.27,0.27-0.71,0.27-0.98,0c-0.27-0.27-0.27-0.71,0-0.98c0.27-0.27,0.71-0.27,0.98,0
		C51.01,45.06,51.01,45.5,50.74,45.77z"/>
	<path style="fill:#854DFF;" d="M75.21,57.33c-0.27,0.27-0.71,0.27-0.98,0c-0.27-0.27-0.27-0.71,0-0.98c0.27-0.27,0.71-0.27,0.98,0
		C75.48,56.62,75.48,57.06,75.21,57.33z"/>
	<circle style="fill:#854DFF;" cx="51.29" cy="40.65" r="0.69"/>
	<path style="fill:#854DFF;" d="M20.47,36.52c-0.27,0.27-0.71,0.27-0.98,0c-0.27-0.27-0.27-0.71,0-0.98c0.27-0.27,0.71-0.27,0.98,0
		S20.74,36.25,20.47,36.52z"/>
	<path style="fill:#854DFF;" d="M44.08,76.55c-0.27,0.27-0.71,0.27-0.98,0c-0.27-0.27-0.27-0.71,0-0.98c0.27-0.27,0.71-0.27,0.98,0
		C44.35,75.85,44.35,76.28,44.08,76.55z"/>
	<path style="fill:#854DFF;" d="M5.95,91.96c-0.27,0.27-0.71,0.27-0.98,0c-0.27-0.27-0.27-0.71,0-0.98c0.27-0.27,0.71-0.27,0.98,0
		C6.22,91.26,6.22,91.69,5.95,91.96z"/>
	<path style="fill:#854DFF;" d="M82.51,59.15c-0.27,0.27-0.71,0.27-0.98,0c-0.27-0.27-0.27-0.71,0-0.98c0.27-0.27,0.71-0.27,0.98,0
		C82.78,58.44,82.78,58.88,82.51,59.15z"/>
	<path style="fill:#854DFF;" d="M92.51,77.44c-0.27,0.27-0.71,0.27-0.98,0c-0.27-0.27-0.27-0.71,0-0.98c0.27-0.27,0.71-0.27,0.98,0
		C92.78,76.74,92.78,77.17,92.51,77.44z"/>
	<circle style="fill:#854DFF;" cx="47.89" cy="68.93" r="0.69"/>
	<circle style="fill:#854DFF;" cx="85.24" cy="62.26" r="0.69"/>
	<circle style="fill:#854DFF;" cx="68.6" cy="52.31" r="0.69"/>
	<path style="fill:#854DFF;" d="M48.26,89.08c-0.27,0.27-0.71,0.27-0.98,0c-0.27-0.27-0.27-0.71,0-0.98c0.27-0.27,0.71-0.27,0.98,0
		S48.53,88.81,48.26,89.08z"/>
	<circle style="fill:#854DFF;" cx="65.8" cy="78.98" r="0.69"/>
	<path style="fill:#854DFF;" d="M66.57,59.22c-0.27,0.27-0.71,0.27-0.98,0c-0.27-0.27-0.27-0.71,0-0.98c0.27-0.27,0.71-0.27,0.98,0
		C66.84,58.51,66.84,58.95,66.57,59.22z"/>
	<circle style="fill:#854DFF;" cx="73.17" cy="51.66" r="0.69"/>
	<circle style="fill:#854DFF;" cx="27.26" cy="93.64" r="0.69"/>
	<path style="fill:#854DFF;" d="M24.2,53.65c-0.27,0.27-0.71,0.27-0.98,0c-0.27-0.27-0.27-0.71,0-0.98c0.27-0.27,0.71-0.27,0.98,0
		C24.47,52.94,24.47,53.38,24.2,53.65z"/>
	<path style="fill:#854DFF;" d="M22.33,92.59c-0.27,0.27-0.71,0.27-0.98,0c-0.27-0.27-0.27-0.71,0-0.98c0.27-0.27,0.71-0.27,0.98,0
		C22.6,91.89,22.6,92.32,22.33,92.59z"/>
	<path style="fill:#854DFF;" d="M29.26,5.76c-0.27,0.27-0.71,0.27-0.98,0c-0.27-0.27-0.27-0.71,0-0.98c0.27-0.27,0.71-0.27,0.98,0
		C29.53,5.05,29.53,5.49,29.26,5.76z"/>
	<path style="fill:#854DFF;" d="M21.3,58.05c-0.27,0.27-0.71,0.27-0.98,0c-0.27-0.27-0.27-0.71,0-0.98c0.27-0.27,0.71-0.27,0.98,0
		C21.57,57.34,21.57,57.78,21.3,58.05z"/>
	<circle style="fill:#854DFF;" cx="27.66" cy="74.53" r="0.69"/>
	<path style="fill:#854DFF;" d="M25.72,47.28c-0.27,0.27-0.71,0.27-0.98,0c-0.27-0.27-0.27-0.71,0-0.98c0.27-0.27,0.71-0.27,0.98,0
		C25.99,46.57,25.99,47.01,25.72,47.28z"/>
	<circle style="fill:#854DFF;" cx="30.61" cy="88.77" r="0.69"/>
	<path style="fill:#854DFF;" d="M42.31,72.59c-0.27,0.27-0.71,0.27-0.98,0c-0.27-0.27-0.27-0.71,0-0.98c0.27-0.27,0.71-0.27,0.98,0
		C42.58,71.89,42.58,72.32,42.31,72.59z"/>
	<path style="fill:#854DFF;" d="M27.77,22.55c-0.27,0.27-0.71,0.27-0.98,0c-0.27-0.27-0.27-0.71,0-0.98c0.27-0.27,0.71-0.27,0.98,0
		C28.04,21.85,28.04,22.28,27.77,22.55z"/>
	<circle style="fill:#854DFF;" cx="95.05" cy="73.01" r="0.69"/>
	<circle style="fill:#854DFF;" cx="11.88" cy="84.64" r="0.69"/>
	<path style="fill:#854DFF;" d="M10.73,89.42c-0.27,0.27-0.71,0.27-0.98,0c-0.27-0.27-0.27-0.71,0-0.98c0.27-0.27,0.71-0.27,0.98,0
		C11,88.71,11,89.15,10.73,89.42z"/>
	<path style="fill:#854DFF;" d="M61.71,57.45c-0.27,0.27-0.71,0.27-0.98,0c-0.27-0.27-0.27-0.71,0-0.98c0.27-0.27,0.71-0.27,0.98,0
		C61.98,56.75,61.98,57.18,61.71,57.45z"/>
	<circle style="fill:#854DFF;" cx="20.8" cy="84.88" r="0.69"/>
	<path style="fill:#854DFF;" d="M65.36,75.35c-0.27,0.27-0.71,0.27-0.98,0c-0.27-0.27-0.27-0.71,0-0.98c0.27-0.27,0.71-0.27,0.98,0
		C65.63,74.64,65.63,75.08,65.36,75.35z"/>
	<path style="fill:#854DFF;" d="M33.63,32.04c-0.27,0.27-0.71,0.27-0.98,0c-0.27-0.27-0.27-0.71,0-0.98c0.27-0.27,0.71-0.27,0.98,0
		C33.9,31.34,33.9,31.77,33.63,32.04z"/>
	<circle style="fill:#854DFF;" cx="47.04" cy="78.05" r="0.69"/>
	<path style="fill:#854DFF;" d="M38.77,15.76c-0.27,0.27-0.71,0.27-0.98,0c-0.27-0.27-0.27-0.71,0-0.98c0.27-0.27,0.71-0.27,0.98,0
		C39.04,15.06,39.04,15.49,38.77,15.76z"/>
	<path style="fill:#854DFF;" d="M57.86,53.83c-0.27,0.27-0.71,0.27-0.98,0c-0.27-0.27-0.27-0.71,0-0.98c0.27-0.27,0.71-0.27,0.98,0
		C58.13,53.12,58.13,53.56,57.86,53.83z"/>
	<path style="fill:#854DFF;" d="M62.65,46.99c-0.27,0.27-0.71,0.27-0.98,0c-0.27-0.27-0.27-0.71,0-0.98c0.27-0.27,0.71-0.27,0.98,0
		C62.92,46.28,62.92,46.72,62.65,46.99z"/>
	<path style="fill:#854DFF;" d="M49.19,85.3c-0.27,0.27-0.71,0.27-0.98,0c-0.27-0.27-0.27-0.71,0-0.98c0.27-0.27,0.71-0.27,0.98,0
		C49.46,84.59,49.46,85.03,49.19,85.3z"/>
	<path style="fill:#854DFF;" d="M17.31,71.94c-0.27,0.27-0.71,0.27-0.98,0c-0.27-0.27-0.27-0.71,0-0.98c0.27-0.27,0.71-0.27,0.98,0
		C17.58,71.23,17.58,71.67,17.31,71.94z"/>
	<path style="fill:#854DFF;" d="M29.97,30.23c-0.27,0.27-0.71,0.27-0.98,0c-0.27-0.27-0.27-0.71,0-0.98c0.27-0.27,0.71-0.27,0.98,0
		C30.24,29.53,30.24,29.96,29.97,30.23z"/>
	<path style="fill:#854DFF;" d="M48.57,25.12c-0.27,0.27-0.71,0.27-0.98,0c-0.27-0.27-0.27-0.71,0-0.98c0.27-0.27,0.71-0.27,0.98,0
		C48.84,24.42,48.84,24.85,48.57,25.12z"/>
	<circle style="fill:#854DFF;" cx="66.27" cy="83.54" r="0.69"/>
	<circle style="fill:#854DFF;" cx="21.59" cy="43.9" r="0.69"/>
	<path style="fill:#854DFF;" d="M36.71,76.37c-0.27,0.27-0.71,0.27-0.98,0c-0.27-0.27-0.27-0.71,0-0.98c0.27-0.27,0.71-0.27,0.98,0
		C36.98,75.66,36.98,76.1,36.71,76.37z"/>
	<path style="fill:#854DFF;" d="M31.5,65.52c-0.27,0.27-0.71,0.27-0.98,0c-0.27-0.27-0.27-0.71,0-0.98c0.27-0.27,0.71-0.27,0.98,0
		C31.77,64.81,31.77,65.25,31.5,65.52z"/>
	<path style="fill:#854DFF;" d="M26.7,42.82c-0.27,0.27-0.71,0.27-0.98,0c-0.27-0.27-0.27-0.71,0-0.98c0.27-0.27,0.71-0.27,0.98,0
		C26.97,42.11,26.97,42.55,26.7,42.82z"/>
	<path style="fill:#854DFF;" d="M32.77,9.78c-0.27,0.27-0.71,0.27-0.98,0c-0.27-0.27-0.27-0.71,0-0.98c0.27-0.27,0.71-0.27,0.98,0
		C33.04,9.08,33.04,9.51,32.77,9.78z"/>
	<path style="fill:#854DFF;" d="M55.04,32.36c-0.27,0.27-0.71,0.27-0.98,0c-0.27-0.27-0.27-0.71,0-0.98c0.27-0.27,0.71-0.27,0.98,0
		C55.31,31.65,55.31,32.09,55.04,32.36z"/>
	<path style="fill:#854DFF;" d="M13.64,76.2c-0.27,0.27-0.71,0.27-0.98,0c-0.27-0.27-0.27-0.71,0-0.98s0.71-0.27,0.98,0
		C13.91,75.5,13.91,75.93,13.64,76.2z"/>
	<circle style="fill:#854DFF;" cx="46.76" cy="64.3" r="0.69"/>
	<path style="fill:#854DFF;" d="M7.58,99.72c-0.27,0.27-0.71,0.27-0.98,0s-0.27-0.71,0-0.98c0.27-0.27,0.71-0.27,0.98,0
		C7.85,99.02,7.85,99.45,7.58,99.72z"/>
	<circle style="fill:#854DFF;" cx="48" cy="38.36" r="0.69"/>
	<path style="fill:#854DFF;" d="M35.86,38.07c-0.27,0.27-0.71,0.27-0.98,0c-0.27-0.27-0.27-0.71,0-0.98c0.27-0.27,0.71-0.27,0.98,0
		S36.13,37.8,35.86,38.07z"/>
	<circle style="fill:#854DFF;" cx="35.36" cy="68.3" r="0.69"/>
	<circle style="fill:#854DFF;" cx="50.25" cy="56.1" r="0.69"/>
	<path style="fill:#854DFF;" d="M41.6,44.26c-0.27,0.27-0.71,0.27-0.98,0c-0.27-0.27-0.27-0.71,0-0.98c0.27-0.27,0.71-0.27,0.98,0
		C41.87,43.55,41.87,43.99,41.6,44.26z"/>
	<path style="fill:#854DFF;" d="M61.22,42.15c-0.27,0.27-0.71,0.27-0.98,0c-0.27-0.27-0.27-0.71,0-0.98c0.27-0.27,0.71-0.27,0.98,0
		C61.49,41.44,61.49,41.88,61.22,42.15z"/>
	<circle style="fill:#854DFF;" cx="35.59" cy="21.9" r="0.69"/>
	<path style="fill:#854DFF;" d="M89.66,74.79c-0.27,0.27-0.71,0.27-0.98,0s-0.27-0.71,0-0.98c0.27-0.27,0.71-0.27,0.98,0
		C89.93,74.08,89.93,74.52,89.66,74.79z"/>
	<path style="fill:#854DFF;" d="M68.21,45.7c-0.27,0.27-0.71,0.27-0.98,0s-0.27-0.71,0-0.98c0.27-0.27,0.71-0.27,0.98,0
		C68.48,44.99,68.48,45.43,68.21,45.7z"/>
	<path style="fill:#854DFF;" d="M31.15,70.7c-0.27,0.27-0.71,0.27-0.98,0c-0.27-0.27-0.27-0.71,0-0.98c0.27-0.27,0.71-0.27,0.98,0
		C31.42,69.99,31.42,70.43,31.15,70.7z"/>
	<path style="fill:#854DFF;" d="M47.83,29.56c-0.27,0.27-0.71,0.27-0.98,0c-0.27-0.27-0.27-0.71,0-0.98c0.27-0.27,0.71-0.27,0.98,0
		C48.1,28.85,48.1,29.29,47.83,29.56z"/>
	<path style="fill:#854DFF;" d="M53.86,48.4c-0.27,0.27-0.71,0.27-0.98,0c-0.27-0.27-0.27-0.71,0-0.98c0.27-0.27,0.71-0.27,0.98,0
		C54.13,47.69,54.13,48.13,53.86,48.4z"/>
	<path style="fill:#854DFF;" d="M40.56,40.45c-0.27,0.27-0.71,0.27-0.98,0c-0.27-0.27-0.27-0.71,0-0.98c0.27-0.27,0.71-0.27,0.98,0
		C40.83,39.74,40.83,40.18,40.56,40.45z"/>
	<path style="fill:#854DFF;" d="M71.51,48.56c-0.27,0.27-0.71,0.27-0.98,0c-0.27-0.27-0.27-0.71,0-0.98c0.27-0.27,0.71-0.27,0.98,0
		C71.78,47.85,71.78,48.29,71.51,48.56z"/>
	<path style="fill:#854DFF;" d="M65.71,42.69c-0.27,0.27-0.71,0.27-0.98,0c-0.27-0.27-0.27-0.71,0-0.98c0.27-0.27,0.71-0.27,0.98,0
		C65.98,41.98,65.98,42.42,65.71,42.69z"/>
	<path style="fill:#854DFF;" d="M48.75,50.5c-0.27,0.27-0.71,0.27-0.98,0c-0.27-0.27-0.27-0.71,0-0.98c0.27-0.27,0.71-0.27,0.98,0
		C49.02,49.79,49.02,50.23,48.75,50.5z"/>
	<circle style="fill:#854DFF;" cx="77.27" cy="63.34" r="0.69"/>
	<path style="fill:#854DFF;" d="M41.87,56.07c-0.27,0.27-0.71,0.27-0.98,0c-0.27-0.27-0.27-0.71,0-0.98c0.27-0.27,0.71-0.27,0.98,0
		C42.14,55.37,42.14,55.8,41.87,56.07z"/>
	<path style="fill:#854DFF;" d="M40.57,66.12c-0.27,0.27-0.71,0.27-0.98,0c-0.27-0.27-0.27-0.71,0-0.98c0.27-0.27,0.71-0.27,0.98,0
		C40.84,65.41,40.84,65.85,40.57,66.12z"/>
	<path style="fill:#854DFF;" d="M81.89,64.39c-0.27,0.27-0.71,0.27-0.98,0c-0.27-0.27-0.27-0.71,0-0.98c0.27-0.27,0.71-0.27,0.98,0
		C82.16,63.69,82.16,64.12,81.89,64.39z"/>
	<circle style="fill:#854DFF;" cx="30.1" cy="13.62" r="0.69"/>
	<path style="fill:#854DFF;" d="M42.83,81.68c-0.27,0.27-0.71,0.27-0.98,0c-0.27-0.27-0.27-0.71,0-0.98c0.27-0.27,0.71-0.27,0.98,0
		C43.1,80.97,43.1,81.41,42.83,81.68z"/>
	<circle style="fill:#854DFF;" cx="36.29" cy="80.06" r="0.69"/>
	<circle style="fill:#854DFF;" cx="43.4" cy="61.98" r="0.69"/>
	<circle style="fill:#854DFF;" cx="65.37" cy="49.17" r="0.69"/>
	<circle style="fill:#854DFF;" cx="27.22" cy="51.94" r="0.69"/>
	<circle style="fill:#854DFF;" cx="88.89" cy="65.32" r="0.69"/>
	<path style="fill:#854DFF;" d="M62.68,70.23c-0.27,0.27-0.71,0.27-0.98,0c-0.27-0.27-0.27-0.71,0-0.98c0.27-0.27,0.71-0.27,0.98,0
		S62.95,69.96,62.68,70.23z"/>
	<path style="fill:#854DFF;" d="M35.66,61.14c-0.27,0.27-0.71,0.27-0.98,0c-0.27-0.27-0.27-0.71,0-0.98c0.27-0.27,0.71-0.27,0.98,0
		C35.93,60.43,35.93,60.87,35.66,61.14z"/>
	<path style="fill:#854DFF;" d="M78.61,77.48c-0.27,0.27-0.71,0.27-0.98,0c-0.27-0.27-0.27-0.71,0-0.98c0.27-0.27,0.71-0.27,0.98,0
		S78.88,77.21,78.61,77.48z"/>
	<path style="fill:#854DFF;" d="M56.39,65.11c-0.27,0.27-0.71,0.27-0.98,0c-0.27-0.27-0.27-0.71,0-0.98c0.27-0.27,0.71-0.27,0.98,0
		C56.66,64.4,56.66,64.84,56.39,65.11z"/>
	<circle style="fill:#854DFF;" cx="55.91" cy="38.58" r="0.69"/>
	<path style="fill:#854DFF;" d="M28.05,68.5c-0.27,0.27-0.71,0.27-0.98,0c-0.27-0.27-0.27-0.71,0-0.98c0.27-0.27,0.71-0.27,0.98,0
		C28.32,67.79,28.32,68.23,28.05,68.5z"/>
	<circle style="fill:#854DFF;" cx="21.61" cy="48.77" r="0.69"/>
	<path style="fill:#854DFF;" d="M25.14,72c-0.27,0.27-0.71,0.27-0.98,0c-0.27-0.27-0.27-0.71,0-0.98c0.27-0.27,0.71-0.27,0.98,0
		C25.41,71.29,25.41,71.73,25.14,72z"/>
	<path style="fill:#854DFF;" d="M43.51,50.08c-0.27,0.27-0.71,0.27-0.98,0c-0.27-0.27-0.27-0.71,0-0.98c0.27-0.27,0.71-0.27,0.98,0
		C43.78,49.38,43.78,49.81,43.51,50.08z"/>
	<circle style="fill:#854DFF;" cx="92.8" cy="69.77" r="0.69"/>
	<circle style="fill:#854DFF;" cx="40.82" cy="18.33" r="0.69"/>
	<path style="fill:#854DFF;" d="M31.34,36.18c-0.27,0.27-0.71,0.27-0.98,0c-0.27-0.27-0.27-0.71,0-0.98c0.27-0.27,0.71-0.27,0.98,0
		C31.61,35.47,31.61,35.91,31.34,36.18z"/>
	<circle style="fill:#854DFF;" cx="39.99" cy="30.88" r="0.69"/>
	<circle style="fill:#854DFF;" cx="65.94" cy="62.77" r="0.69"/>
	<path style="fill:#854DFF;" d="M39.63,52.86c-0.27,0.27-0.71,0.27-0.98,0c-0.27-0.27-0.27-0.71,0-0.98c0.27-0.27,0.71-0.27,0.98,0
		C39.9,52.15,39.9,52.59,39.63,52.86z"/>
	<path style="fill:#854DFF;" d="M38.82,85.04c-0.27,0.27-0.71,0.27-0.98,0c-0.27-0.27-0.27-0.71,0-0.98c0.27-0.27,0.71-0.27,0.98,0
		C39.09,84.33,39.09,84.77,38.82,85.04z"/>
	<path style="fill:#854DFF;" d="M35.24,52.79c-0.27,0.27-0.71,0.27-0.98,0c-0.27-0.27-0.27-0.71,0-0.98c0.27-0.27,0.71-0.27,0.98,0
		C35.51,52.09,35.51,52.52,35.24,52.79z"/>
	<circle style="fill:#854DFF;" cx="18.33" cy="41.73" r="0.69"/>
	<path style="fill:#854DFF;" d="M10.76,72.93c-0.27,0.27-0.71,0.27-0.98,0c-0.27-0.27-0.27-0.71,0-0.98c0.27-0.27,0.71-0.27,0.98,0
		C11.03,72.22,11.03,72.66,10.76,72.93z"/>
	<path style="fill:#854DFF;" d="M40.1,89.97c-0.27,0.27-0.71,0.27-0.98,0s-0.27-0.71,0-0.98c0.27-0.27,0.71-0.27,0.98,0
		C40.37,89.26,40.37,89.7,40.1,89.97z"/>
	<path style="fill:#854DFF;" d="M6.99,87.33c-0.27,0.27-0.71,0.27-0.98,0c-0.27-0.27-0.27-0.71,0-0.98c0.27-0.27,0.71-0.27,0.98,0
		C7.26,86.62,7.26,87.06,6.99,87.33z"/>
	<path style="fill:#854DFF;" d="M74.11,61.68c-0.27,0.27-0.71,0.27-0.98,0c-0.27-0.27-0.27-0.71,0-0.98c0.27-0.27,0.71-0.27,0.98,0
		C74.37,60.97,74.38,61.41,74.11,61.68z"/>
	<path style="fill:#854DFF;" d="M52.07,77.55c-0.27,0.27-0.71,0.27-0.98,0c-0.27-0.27-0.27-0.71,0-0.98c0.27-0.27,0.71-0.27,0.98,0
		C52.34,76.85,52.34,77.28,52.07,77.55z"/>
	<path style="fill:#854DFF;" d="M13.84,70.05c-0.27,0.27-0.71,0.27-0.98,0c-0.27-0.27-0.27-0.71,0-0.98c0.27-0.27,0.71-0.27,0.98,0
		C14.11,69.34,14.11,69.78,13.84,70.05z"/>
	<circle style="fill:#854DFF;" cx="17.71" cy="60.29" r="0.69"/>
	<path style="fill:#854DFF;" d="M65.29,67.32c-0.27,0.27-0.71,0.27-0.98,0s-0.27-0.71,0-0.98c0.27-0.27,0.71-0.27,0.98,0
		C65.56,66.61,65.56,67.05,65.29,67.32z"/>
	<path style="fill:#854DFF;" d="M86.65,78.33c-0.27,0.27-0.71,0.27-0.98,0c-0.27-0.27-0.27-0.71,0-0.98c0.27-0.27,0.71-0.27,0.98,0
		C86.92,77.62,86.92,78.06,86.65,78.33z"/>
	<circle style="fill:#854DFF;" cx="98.06" cy="75.28" r="0.69"/>
	<path style="fill:#854DFF;" d="M47.21,73.57c-0.27,0.27-0.71,0.27-0.98,0c-0.27-0.27-0.27-0.71,0-0.98c0.27-0.27,0.71-0.27,0.98,0
		C47.48,72.86,47.48,73.3,47.21,73.57z"/>
	<circle style="fill:#854DFF;" cx="56.07" cy="85.33" r="0.69"/>
	<path style="fill:#854DFF;" d="M58.58,45.51c-0.27,0.27-0.71,0.27-0.98,0c-0.27-0.27-0.27-0.71,0-0.98c0.27-0.27,0.71-0.27,0.98,0
		C58.85,44.8,58.85,45.24,58.58,45.51z"/>
	<path style="fill:#854DFF;" d="M16.53,51.95c-0.27,0.27-0.71,0.27-0.98,0c-0.27-0.27-0.27-0.71,0-0.98c0.27-0.27,0.71-0.27,0.98,0
		C16.8,51.24,16.8,51.68,16.53,51.95z"/>
	<path style="fill:#854DFF;" d="M76.78,72.29c-0.27,0.27-0.71,0.27-0.98,0c-0.27-0.27-0.27-0.71,0-0.98c0.27-0.27,0.71-0.27,0.98,0
		C77.05,71.58,77.05,72.02,76.78,72.29z"/>
	<path style="fill:#854DFF;" d="M56.08,75.25c-0.27,0.27-0.71,0.27-0.98,0c-0.27-0.27-0.27-0.71,0-0.98c0.27-0.27,0.71-0.27,0.98,0
		C56.35,74.55,56.35,74.98,56.08,75.25z"/>
	<circle style="fill:#854DFF;" cx="45.49" cy="46.3" r="0.69"/>
	<path style="fill:#854DFF;" d="M8.2,82.95c-0.27,0.27-0.71,0.27-0.98,0c-0.27-0.27-0.27-0.71,0-0.98c0.27-0.27,0.71-0.27,0.98,0
		C8.47,82.24,8.47,82.68,8.2,82.95z"/>
	<path style="fill:#854DFF;" d="M60.96,78.57c-0.27,0.27-0.71,0.27-0.98,0c-0.27-0.27-0.27-0.71,0-0.98c0.27-0.27,0.71-0.27,0.98,0
		C61.23,77.87,61.23,78.3,60.96,78.57z"/>
	<path style="fill:#854DFF;" d="M43.81,89.84c-0.27,0.27-0.71,0.27-0.98,0c-0.27-0.27-0.27-0.71,0-0.98c0.27-0.27,0.71-0.27,0.98,0
		C44.08,89.13,44.08,89.57,43.81,89.84z"/>
	<circle style="fill:#854DFF;" cx="60.6" cy="73.68" r="0.69"/>
	<circle style="fill:#854DFF;" cx="30.45" cy="39.85" r="0.69"/>
	<circle style="fill:#854DFF;" cx="2.75" cy="100.2" r="0.69"/>
	<path style="fill:#854DFF;" d="M44.11,68.38c-0.27,0.27-0.71,0.27-0.98,0c-0.27-0.27-0.27-0.71,0-0.98c0.27-0.27,0.71-0.27,0.98,0
		C44.38,67.67,44.38,68.11,44.11,68.38z"/>
	<circle style="fill:#854DFF;" cx="30.99" cy="59.96" r="0.69"/>
	<path style="fill:#854DFF;" d="M26.5,14.4c-0.27,0.27-0.71,0.27-0.98,0c-0.27-0.27-0.27-0.71,0-0.98c0.27-0.27,0.71-0.27,0.98,0
		C26.77,13.69,26.77,14.13,26.5,14.4z"/>
	<circle style="fill:#854DFF;" cx="31.84" cy="43.43" r="0.69"/>
	<path style="fill:#854DFF;" d="M30.99,56.16c-0.27,0.27-0.71,0.27-0.98,0c-0.27-0.27-0.27-0.71,0-0.98c0.27-0.27,0.71-0.27,0.98,0
		C31.26,55.45,31.26,55.89,30.99,56.16z"/>
	<path style="fill:#854DFF;" d="M31.86,22.38c-0.27,0.27-0.71,0.27-0.98,0c-0.27-0.27-0.27-0.71,0-0.98c0.27-0.27,0.71-0.27,0.98,0
		C32.13,21.67,32.13,22.11,31.86,22.38z"/>
	<circle style="fill:#854DFF;" cx="33.3" cy="72.89" r="0.69"/>
	<path style="fill:#854DFF;" d="M53.73,81.69c-0.27,0.27-0.71,0.27-0.98,0s-0.27-0.71,0-0.98c0.27-0.27,0.71-0.27,0.98,0
		C54,80.98,54,81.42,53.73,81.69z"/>
	<circle style="fill:#854DFF;" cx="69.88" cy="74.8" r="0.69"/>
	<circle style="fill:#854DFF;" cx="51.31" cy="65.37" r="0.69"/>
	<path style="fill:#854DFF;" d="M26.35,57.51c-0.27,0.27-0.71,0.27-0.98,0c-0.27-0.27-0.27-0.71,0-0.98c0.27-0.27,0.71-0.27,0.98,0
		C26.62,56.8,26.62,57.24,26.35,57.51z"/>
	<path style="fill:#854DFF;" d="M53.14,87.15c-0.27,0.27-0.71,0.27-0.98,0c-0.27-0.27-0.27-0.71,0-0.98c0.27-0.27,0.71-0.27,0.98,0
		C53.41,86.45,53.41,86.88,53.14,87.15z"/>
	<path style="fill:#854DFF;" d="M40.14,23.04c-0.27,0.27-0.71,0.27-0.98,0c-0.27-0.27-0.27-0.71,0-0.98c0.27-0.27,0.71-0.27,0.98,0
		C40.41,22.34,40.41,22.77,40.14,23.04z"/>
	<circle style="fill:#854DFF;" cx="31.45" cy="26.15" r="0.69"/>
	<path style="fill:#854DFF;" d="M20.52,64.71c-0.27,0.27-0.71,0.27-0.98,0c-0.27-0.27-0.27-0.71,0-0.98c0.27-0.27,0.71-0.27,0.98,0
		C20.79,64,20.79,64.44,20.52,64.71z"/>
	<path style="fill:#854DFF;" d="M35.5,47.4c-0.27,0.27-0.71,0.27-0.98,0c-0.27-0.27-0.27-0.71,0-0.98c0.27-0.27,0.71-0.27,0.98,0
		C35.76,46.69,35.76,47.13,35.5,47.4z"/>
	<circle style="fill:#854DFF;" cx="15.71" cy="64.67" r="0.69"/>
	<path style="fill:#854DFF;" d="M67.97,71.82c-0.27,0.27-0.71,0.27-0.98,0c-0.27-0.27-0.27-0.71,0-0.98c0.27-0.27,0.71-0.27,0.98,0
		C68.24,71.11,68.24,71.55,67.97,71.82z"/>
	<path style="fill:#854DFF;" d="M49.61,61.02c-0.27,0.27-0.71,0.27-0.98,0c-0.27-0.27-0.27-0.71,0-0.98c0.27-0.27,0.71-0.27,0.98,0
		C49.88,60.31,49.88,60.75,49.61,61.02z"/>
	<path style="fill:#854DFF;" d="M53.85,69.59c-0.27,0.27-0.71,0.27-0.98,0c-0.27-0.27-0.27-0.71,0-0.98c0.27-0.27,0.71-0.27,0.98,0
		C54.12,68.88,54.12,69.32,53.85,69.59z"/>
	<circle style="fill:#854DFF;" cx="23.32" cy="61.33" r="0.69"/>
	<circle style="fill:#854DFF;" cx="84.76" cy="67.53" r="0.69"/>
	<path style="fill:#854DFF;" d="M53.92,61.34c-0.27,0.27-0.71,0.27-0.98,0c-0.27-0.27-0.27-0.71,0-0.98c0.27-0.27,0.71-0.27,0.98,0
		S54.19,61.07,53.92,61.34z"/>
	<circle style="fill:#854DFF;" cx="26.17" cy="27.09" r="0.69"/>
	<path style="fill:#854DFF;" d="M12.35,66.28c-0.27,0.27-0.71,0.27-0.98,0c-0.27-0.27-0.27-0.71,0-0.98c0.27-0.27,0.71-0.27,0.98,0
		C12.62,65.57,12.62,66.01,12.35,66.28z"/>
	<circle style="fill:#854DFF;" cx="43.84" cy="26.04" r="0.69"/>
	<circle style="fill:#854DFF;" cx="54.56" cy="56.18" r="0.69"/>
	<path style="fill:#854DFF;" d="M36.58,92.15c-0.27,0.27-0.71,0.27-0.98,0c-0.27-0.27-0.27-0.71,0-0.98c0.27-0.27,0.71-0.27,0.98,0
		C36.85,91.44,36.85,91.88,36.58,92.15z"/>
	<circle style="fill:#854DFF;" cx="85.15" cy="72.87" r="0.69"/>
	<path style="fill:#854DFF;" d="M74.38,66.85c-0.27,0.27-0.71,0.27-0.98,0c-0.27-0.27-0.27-0.71,0-0.98s0.71-0.27,0.98,0
		C74.65,66.14,74.65,66.58,74.38,66.85z"/>
	<path style="fill:#854DFF;" d="M71.77,82.98c-0.27,0.27-0.71,0.27-0.98,0s-0.27-0.71,0-0.98c0.27-0.27,0.71-0.27,0.98,0
		C72.04,82.27,72.04,82.71,71.77,82.98z"/>
	<circle style="fill:#854DFF;" cx="22.34" cy="32.84" r="0.69"/>
	<path style="fill:#854DFF;" d="M72.74,70.92c-0.27,0.27-0.71,0.27-0.98,0c-0.27-0.27-0.27-0.71,0-0.98c0.27-0.27,0.71-0.27,0.98,0
		S73.01,70.65,72.74,70.92z"/>
	<path style="fill:#854DFF;" d="M51.71,73.2c-0.27,0.27-0.71,0.27-0.98,0c-0.27-0.27-0.27-0.71,0-0.98c0.27-0.27,0.71-0.27,0.98,0
		C51.98,72.49,51.98,72.93,51.71,73.2z"/>
	<path style="fill:#854DFF;" d="M89.18,70.14c-0.27,0.27-0.71,0.27-0.98,0c-0.27-0.27-0.27-0.71,0-0.98c0.27-0.27,0.71-0.27,0.98,0
		C89.45,69.43,89.45,69.87,89.18,70.14z"/>
	<path style="fill:#854DFF;" d="M25.59,18.86c-0.27,0.27-0.71,0.27-0.98,0c-0.27-0.27-0.27-0.71,0-0.98c0.27-0.27,0.71-0.27,0.98,0
		C25.86,18.16,25.86,18.59,25.59,18.86z"/>
	<circle style="fill:#854DFF;" cx="70.62" cy="79.03" r="0.69"/>
	<circle style="fill:#854DFF;" cx="78.41" cy="67.67" r="0.69"/>
	<path style="fill:#854DFF;" d="M36.98,33.88c-0.27,0.27-0.71,0.27-0.98,0c-0.27-0.27-0.27-0.71,0-0.98c0.27-0.27,0.71-0.27,0.98,0
		C37.25,33.17,37.25,33.61,36.98,33.88z"/>
	<path style="fill:#854DFF;" d="M57.61,71.2c-0.27,0.27-0.71,0.27-0.98,0c-0.27-0.27-0.27-0.71,0-0.98c0.27-0.27,0.71-0.27,0.98,0
		C57.88,70.49,57.88,70.93,57.61,71.2z"/>
	<path style="fill:#854DFF;" d="M30.03,80.43c-0.27,0.27-0.71,0.27-0.98,0c-0.27-0.27-0.27-0.71,0-0.98c0.27-0.27,0.71-0.27,0.98,0
		C30.3,79.72,30.3,80.16,30.03,80.43z"/>
	<path style="fill:#854DFF;" d="M24.65,66.56c-0.27,0.27-0.71,0.27-0.98,0c-0.27-0.27-0.27-0.71,0-0.98c0.27-0.27,0.71-0.27,0.98,0
		C24.92,65.85,24.92,66.29,24.65,66.56z"/>
	<path style="fill:#854DFF;" d="M58.3,60.01c-0.27,0.27-0.71,0.27-0.98,0c-0.27-0.27-0.27-0.71,0-0.98c0.27-0.27,0.71-0.27,0.98,0
		C58.57,59.3,58.57,59.74,58.3,60.01z"/>
	<path style="fill:#854DFF;" d="M70.42,62.4c-0.27,0.27-0.71,0.27-0.98,0c-0.27-0.27-0.27-0.71,0-0.98c0.27-0.27,0.71-0.27,0.98,0
		C70.69,61.69,70.69,62.13,70.42,62.4z"/>
	<path style="fill:#854DFF;" d="M21.88,74.26c-0.27,0.27-0.71,0.27-0.98,0c-0.27-0.27-0.27-0.71,0-0.98c0.27-0.27,0.71-0.27,0.98,0
		C22.14,73.56,22.14,73.99,21.88,74.26z"/>
	<circle style="fill:#854DFF;" cx="81.22" cy="74.54" r="0.69"/>
	<circle style="fill:#854DFF;" cx="25.57" cy="81.5" r="0.69"/>
	<path style="fill:#854DFF;" d="M62.47,82.58c-0.27,0.27-0.71,0.27-0.98,0c-0.27-0.27-0.27-0.71,0-0.98c0.27-0.27,0.71-0.27,0.98,0
		C62.74,81.88,62.74,82.31,62.47,82.58z"/>
	<path style="fill:#854DFF;" d="M55.5,43.4c-0.27,0.27-0.71,0.27-0.98,0c-0.27-0.27-0.27-0.71,0-0.98c0.27-0.27,0.71-0.27,0.98,0
		C55.77,42.69,55.77,43.13,55.5,43.4z"/>
	<path style="fill:#854DFF;" d="M52.28,29.28c-0.27,0.27-0.71,0.27-0.98,0c-0.27-0.27-0.27-0.71,0-0.98c0.27-0.27,0.71-0.27,0.98,0
		C52.55,28.57,52.55,29.01,52.28,29.28z"/>
	<circle style="fill:#854DFF;" cx="81.93" cy="79.47" r="0.69"/>
	<circle style="fill:#854DFF;" cx="61.33" cy="37.95" r="0.69"/>
	<path style="fill:#854DFF;" d="M23.77,24.19c-0.27,0.27-0.71,0.27-0.98,0c-0.27-0.27-0.27-0.71,0-0.98c0.27-0.27,0.71-0.27,0.98,0
		C24.04,23.48,24.04,23.92,23.77,24.19z"/>
	<circle style="fill:#854DFF;" cx="78.44" cy="58.4" r="0.69"/>
	<circle style="fill:#854DFF;" cx="34.75" cy="17.33" r="0.69"/>
	<path style="fill:#854DFF;" d="M20.27,53.8c-0.27,0.27-0.71,0.27-0.98,0c-0.27-0.27-0.27-0.71,0-0.98c0.27-0.27,0.71-0.27,0.98,0
		C20.54,53.09,20.54,53.53,20.27,53.8z"/>
	<circle style="fill:#854DFF;" cx="20.07" cy="68.74" r="0.69"/>
	<path style="fill:#854DFF;" d="M36.43,42.43c-0.27,0.27-0.71,0.27-0.98,0c-0.27-0.27-0.27-0.71,0-0.98c0.27-0.27,0.71-0.27,0.98,0
		C36.7,41.72,36.7,42.16,36.43,42.43z"/>
	<circle style="fill:#854DFF;" cx="60.16" cy="85.33" r="0.69"/>
	<circle style="fill:#854DFF;" cx="44.2" cy="21.12" r="0.69"/>
	<circle style="fill:#854DFF;" cx="26.34" cy="37.12" r="0.69"/>
	<circle style="fill:#854DFF;" cx="24.08" cy="77.48" r="0.69"/>
	<circle style="fill:#854DFF;" cx="19.15" cy="89.76" r="0.69"/>
	<path style="fill:#854DFF;" d="M69.86,67.33c-0.27,0.27-0.71,0.27-0.98,0c-0.27-0.27-0.27-0.71,0-0.98c0.27-0.27,0.71-0.27,0.98,0
		C70.13,66.62,70.13,67.06,69.86,67.33z"/>
	<circle style="fill:#854DFF;" cx="56.85" cy="79.64" r="0.69"/>
	<path style="fill:#854DFF;" d="M41.03,36.21c-0.27,0.27-0.71,0.27-0.98,0c-0.27-0.27-0.27-0.71,0-0.98c0.27-0.27,0.71-0.27,0.98,0
		C41.3,35.5,41.3,35.94,41.03,36.21z"/>
	<path style="fill:#854DFF;" d="M27.21,33.14c-0.27,0.27-0.71,0.27-0.98,0c-0.27-0.27-0.27-0.71,0-0.98c0.27-0.27,0.71-0.27,0.98,0
		C27.48,32.44,27.48,32.87,27.21,33.14z"/>
	<path style="fill:#854DFF;" d="M21.08,80.4c-0.27,0.27-0.71,0.27-0.98,0s-0.27-0.71,0-0.98c0.27-0.27,0.71-0.27,0.98,0
		C21.35,79.69,21.35,80.13,21.08,80.4z"/>
	<path style="fill:#854DFF;" d="M17.91,47.52c-0.27,0.27-0.71,0.27-0.98,0c-0.27-0.27-0.27-0.71,0-0.98c0.27-0.27,0.71-0.27,0.98,0
		C18.18,46.81,18.18,47.25,17.91,47.52z"/>
	<path style="fill:#854DFF;" d="M18.15,76.06c-0.27,0.27-0.71,0.27-0.98,0c-0.27-0.27-0.27-0.71,0-0.98s0.71-0.27,0.98,0
		C18.42,75.35,18.42,75.79,18.15,76.06z"/>
	<path style="fill:#854DFF;" d="M11.57,98.66c-0.27,0.27-0.71,0.27-0.98,0c-0.27-0.27-0.27-0.71,0-0.98c0.27-0.27,0.71-0.27,0.98,0
		C11.84,97.95,11.84,98.39,11.57,98.66z"/>
	<circle style="fill:#854DFF;" cx="81.26" cy="70.23" r="0.69"/>
</g>
</svg>
