<?xml version="1.0" encoding="utf-8"?>
<!-- Generator: Adobe Illustrator 26.0.1, SVG Export Plug-In . SVG Version: 6.00 Build 0)  -->
<svg version="1.1" id="Layer_1" xmlns="http://www.w3.org/2000/svg" xmlns:xlink="http://www.w3.org/1999/xlink" x="0px" y="0px"
	 width="309px" height="207px" viewBox="0 0 309 207" style="enable-background:new 0 0 309 207;" xml:space="preserve">
<style type="text/css">
	.st0{clip-path:url(#SVGID_00000162325486245411989280000017386697898253136557_);}
	.st1{fill:#FFFFFF;}
	.st2{fill:#FAA4FF;}
	.st3{fill:#ADAAF9;}
	.st4{clip-path:url(#SVGID_00000005978962469310007310000010267026245623342507_);}
	.st5{clip-path:url(#SVGID_00000040561445291892401290000003067741912284750208_);}
	.st6{clip-path:url(#SVGID_00000126311521630670593780000004930017527492181921_);}
	.st7{clip-path:url(#SVGID_00000035513688839840938790000001465049838392219779_);}
	.st8{fill:#FFE471;}
	.st9{fill:#47D985;}
	.st10{fill:#935B50;}
	.st11{fill:#020202;}
	.st12{fill:#FCD008;}
	.st13{clip-path:url(#SVGID_00000176024883069033277940000012003960559428990875_);}
	.st14{fill:#5E55FF;}
	.st15{clip-path:url(#SVGID_00000094581684772960419930000007579429271324189628_);}
</style>
<g>
	<g>
		<defs>
			<rect id="SVGID_1_" x="94.7" width="152" height="206"/>
		</defs>
		<clipPath id="SVGID_00000078042784710929870700000009399545400231611831_">
			<use xlink:href="#SVGID_1_"  style="overflow:visible;"/>
		</clipPath>
		<g style="clip-path:url(#SVGID_00000078042784710929870700000009399545400231611831_);">
			<path class="st1" d="M109.2,0.2H232c7.4,0,13.4,6,13.4,13.4v178.8c0,7.4-6,13.4-13.4,13.4H109.2c-7.4,0-13.4-6-13.4-13.4V13.7
				C95.8,6.3,101.8,0.2,109.2,0.2"/>
		</g>
	</g>
</g>
<path class="st2" d="M245.5,163.2c-0.1,0-0.2-0.1-0.2-0.2v-38.6c0-0.1,0.1-0.2,0.2-0.2c0.1,0,0.2,0.1,0.2,0.2V163
	C245.8,163.1,245.7,163.2,245.5,163.2"/>
<path class="st3" d="M245.5,124.5c-0.1,0-0.2-0.1-0.2-0.2v-66c0-0.1,0.1-0.2,0.2-0.2c0.1,0,0.2,0.1,0.2,0.2v66
	C245.8,124.4,245.7,124.5,245.5,124.5"/>
<path class="st2" d="M245.5,58.5c-0.1,0-0.2-0.1-0.2-0.2V19.6c0-0.1,0.1-0.2,0.2-0.2c0.1,0,0.2,0.1,0.2,0.2v38.7
	C245.8,58.4,245.7,58.5,245.5,58.5"/>
<g>
	<g>
		<defs>
			<rect id="SVGID_00000161593653717648506870000013388934242321178760_" x="94.7" width="152" height="206"/>
		</defs>
		<clipPath id="SVGID_00000009586363125606625340000000810196640131876525_">
			<use xlink:href="#SVGID_00000161593653717648506870000013388934242321178760_"  style="overflow:visible;"/>
		</clipPath>
		<g style="clip-path:url(#SVGID_00000009586363125606625340000000810196640131876525_);">
			<path class="st3" d="M232.1,206.2H109.2c-7.5,0-13.7-6.1-13.7-13.7V13.7c0-7.6,6.1-13.7,13.7-13.7H232c7.5,0,13.7,6.1,13.7,13.7
				v5.9c0,0.1-0.1,0.2-0.2,0.2c-0.1,0-0.2-0.1-0.2-0.2v-5.9c0-7.3-5.9-13.2-13.2-13.2H109.2C101.9,0.5,96,6.4,96,13.7v178.8
				c0,7.3,5.9,13.2,13.2,13.2H232c7.3,0,13.2-5.9,13.2-13.2v-29.6c0-0.1,0.1-0.2,0.2-0.2c0.1,0,0.2,0.1,0.2,0.2v29.6
				C245.8,200,239.6,206.2,232.1,206.2"/>
		</g>
	</g>
</g>
<g>
	<g>
		<defs>
			<rect id="SVGID_00000101074704452348222200000015784242594818521007_" x="90.7" width="150.7" height="206"/>
		</defs>
		<clipPath id="SVGID_00000148646856851902856100000018386148484426108327_">
			<use xlink:href="#SVGID_00000101074704452348222200000015784242594818521007_"  style="overflow:visible;"/>
		</clipPath>
		<g style="clip-path:url(#SVGID_00000148646856851902856100000018386148484426108327_);">
			<path class="st3" d="M104.1,0.2H227c7.4,0,13.4,6,13.4,13.4v178.8c0,7.4-6,13.4-13.4,13.4H104.1c-7.4,0-13.4-6-13.4-13.4V13.7
				C90.7,6.3,96.7,0.2,104.1,0.2"/>
		</g>
	</g>
</g>
<path class="st1" d="M104.1,4.8c-4.9,0-8.8,4-8.8,8.9v178.8c0,4.9,4,8.9,8.8,8.9H227c4.9,0,8.8-4,8.8-8.9V13.7c0-4.9-4-8.9-8.8-8.9
	H104.1"/>
<path d="M240.4,124.5c-0.1,0-0.2-0.1-0.2-0.2v-66c0-0.1,0.1-0.2,0.2-0.2c0.1,0,0.2,0.1,0.2,0.2v66
	C240.7,124.4,240.6,124.5,240.4,124.5"/>
<path d="M90.7,28c-0.1,0-0.2-0.1-0.2-0.2V13.9C90.5,6.2,96.7,0,104.3,0h122.5c7.6,0,13.9,6.2,13.9,13.9v5.7c0,0.1-0.1,0.2-0.2,0.2
	c-0.1,0-0.2-0.1-0.2-0.2v-5.7c0-7.4-6-13.4-13.4-13.4H104.3C97,0.5,91,6.5,91,13.9v13.9C91,27.9,90.8,28,90.7,28"/>
<g>
	<g>
		<defs>
			<rect id="SVGID_00000171717393542236071840000008057956489466725507_" x="89.3" y="65.3" width="152" height="140.7"/>
		</defs>
		<clipPath id="SVGID_00000126312443275764684020000007088781578156372892_">
			<use xlink:href="#SVGID_00000171717393542236071840000008057956489466725507_"  style="overflow:visible;"/>
		</clipPath>
		<g style="clip-path:url(#SVGID_00000126312443275764684020000007088781578156372892_);">
			<path d="M226.8,206.2H104.3c-7.6,0-13.9-6.2-13.9-13.9V66.5c0-0.1,0.1-0.2,0.2-0.2s0.2,0.1,0.2,0.2v125.8c0,7.4,6,13.4,13.4,13.4
				h122.5c7.4,0,13.4-6,13.4-13.4V163c0-0.1,0.1-0.2,0.2-0.2c0.1,0,0.2,0.1,0.2,0.2v29.3C240.7,200,234.4,206.2,226.8,206.2"/>
		</g>
	</g>
</g>
<g>
	<g>
		<defs>
			<rect id="SVGID_00000167390587939174326000000007060712296100086419_" x="198.7" y="124" width="58.8" height="40"/>
		</defs>
		<clipPath id="SVGID_00000058568286188204813680000017673996754886882978_">
			<use xlink:href="#SVGID_00000167390587939174326000000007060712296100086419_"  style="overflow:visible;"/>
		</clipPath>
		<g style="clip-path:url(#SVGID_00000058568286188204813680000017673996754886882978_);">
			<path d="M257.4,163.2h-52.7c-0.1,0-0.2-0.1-0.2-0.2c0-0.1,0.1-0.2,0.2-0.2h52.2v-38.1h-56.6v25.1c0,0.1-0.1,0.2-0.2,0.2
				c-0.1,0-0.2-0.1-0.2-0.2v-25.6h57.5V163.2"/>
		</g>
	</g>
</g>
<path class="st3" d="M204.8,163.2h-4.6c-0.1,0-0.2-0.1-0.2-0.2v-13.3c0-0.1,0.1-0.2,0.2-0.2c0.1,0,0.2,0.1,0.2,0.2v13.1h4.4
	c0.1,0,0.2,0.1,0.2,0.2C205,163.1,204.9,163.2,204.8,163.2"/>
<path d="M222,139.5c-2.9,0-5.2,2.3-5.2,5.2s2.3,5.2,5.2,5.2s5.2-2.3,5.2-5.2S224.9,139.5,222,139.5z M222,150.4
	c-3.1,0-5.7-2.6-5.7-5.7c0-3.1,2.5-5.7,5.7-5.7c3.1,0,5.7,2.6,5.7,5.7C227.7,147.8,225.1,150.4,222,150.4z M220.2,157h3.6l0.2-2.8
	h0.2c1-0.2,2-0.6,2.9-1.2l0.2-0.1l2.2,1.8l2.6-2.6l-1.8-2.2l0.1-0.2c0.5-0.9,0.9-1.8,1.2-2.9v-0.2l2.8-0.2v-3.6l-2.8-0.2v-0.2
	c-0.2-1-0.6-2-1.2-2.9l-0.1-0.2l1.8-2.2l-2.6-2.6l-2.2,1.8l-0.2-0.1c-0.9-0.6-1.8-1-2.9-1.2H224l-0.2-2.8h-3.6L220,135h-0.2
	c-1,0.2-2,0.6-2.9,1.2l-0.2,0.1l-2.2-1.8l-2.6,2.6l1.8,2.2l-0.1,0.2c-0.5,0.9-1,1.8-1.2,2.9v0.2l-2.8,0.2v3.6l2.8,0.2v0.2
	c0.2,1,0.6,2,1.2,2.9l0.1,0.2l-1.8,2.2l2.6,2.6l2.2-1.8l0.2,0.1c0.9,0.5,1.8,1,2.9,1.2h0.2L220.2,157z M224.3,157.5h-4.6l-0.2-2.9
	c-0.9-0.2-1.8-0.6-2.7-1.1l-2.2,1.9l-3.2-3.2l1.9-2.2c-0.5-0.8-0.9-1.7-1.1-2.7l-2.9-0.2v-4.6l2.9-0.2c0.2-0.9,0.6-1.8,1.1-2.7
	l-1.9-2.2l3.2-3.2l2.2,1.9c0.8-0.5,1.7-0.9,2.7-1.1l0.2-2.9h4.6l0.2,2.9c0.9,0.2,1.8,0.6,2.7,1.1l2.2-1.9l3.2,3.2l-1.9,2.2
	c0.5,0.8,0.9,1.7,1.1,2.7l2.9,0.2v4.6l-2.9,0.2c-0.2,0.9-0.6,1.8-1.1,2.7l1.9,2.2l-3.2,3.2l-2.2-1.9c-0.8,0.5-1.7,0.9-2.7,1.1
	L224.3,157.5"/>
<path d="M241.1,134.1c-1.1,0-2.1,0.6-2.5,1.7c-0.6,1.4,0.1,3,1.5,3.5c1.4,0.6,3-0.1,3.5-1.5c0.6-1.4-0.1-3-1.5-3.5
	C241.8,134.1,241.5,134.1,241.1,134.1z M241.1,140c-0.4,0-0.8-0.1-1.2-0.2c-1.6-0.7-2.4-2.6-1.8-4.2c0.3-0.8,0.9-1.4,1.7-1.7
	s1.7-0.3,2.5,0c1.6,0.7,2.4,2.6,1.8,4.2C243.6,139.2,242.4,140,241.1,140z M242.1,141.9l0.7,1.4l1.6-0.7l-0.5-1.5l0.2-0.1
	c0.4-0.3,0.8-0.7,1.2-1.2l0.1-0.1l1.5,0.5l0.7-1.6l-1.4-0.7v-0.2c0.1-0.5,0.1-1.1,0-1.7v-0.2l1.4-0.7l-0.7-1.6l-1.4,0.5l-0.1-0.1
	c-0.3-0.4-0.7-0.8-1.2-1.2l-0.1-0.1l0.5-1.5l-1.6-0.7l-0.7,1.4h-0.2c-0.6-0.1-1.1-0.1-1.7,0h-0.2l-0.7-1.4l-1.6,0.7l0.5,1.5
	l-0.1,0.1c-0.4,0.3-0.8,0.7-1.2,1.2L237,134l-1.5-0.5l-0.7,1.6l1.4,0.7v0.2c-0.1,0.6-0.1,1.1,0,1.7v0.2l-1.4,0.7l0.7,1.6l1.5-0.5
	l0.1,0.2c0.3,0.4,0.7,0.8,1.2,1.2l0.1,0.1l-0.5,1.5l1.6,0.7l0.7-1.4h0.2C241,142.1,241.5,142.1,242.1,141.9L242.1,141.9z
	 M242.6,143.9l-0.8-1.4c-0.5,0.1-1,0.1-1.5,0l-0.7,1.4l-2.5-1l0.5-1.6c-0.4-0.3-0.7-0.6-1-1l-1.5,0.5l-1-2.5l1.4-0.8
	c-0.1-0.5-0.1-1,0-1.5l-1.4-0.7l1-2.5l1.6,0.5c0.3-0.4,0.6-0.7,1-1l-0.5-1.5l2.5-1l0.8,1.4c0.5-0.1,1-0.1,1.4,0l0.7-1.4l2.5,1
	l-0.5,1.6c0.4,0.3,0.7,0.6,1,1l1.5-0.5l1,2.5l-1.4,0.8c0.1,0.5,0.1,1,0,1.5l1.4,0.7l-1,2.5l-1.6-0.5c-0.3,0.4-0.6,0.7-1,1l0.5,1.5
	L242.6,143.9"/>
<path class="st3" d="M237.3,128.2c-0.1,0-0.2-0.1-0.2-0.2c0-0.1,0.1-0.3,0.2-0.3l2.5-0.3c0.1,0,0.3,0.1,0.3,0.2s-0.1,0.3-0.2,0.3
	L237.3,128.2L237.3,128.2z M244.6,128.5L244.6,128.5c-0.8-0.3-1.6-0.5-2.4-0.6c-0.1,0-0.2-0.1-0.2-0.3c0-0.1,0.1-0.2,0.3-0.2
	c0.8,0.1,1.7,0.3,2.5,0.6c0.1,0.1,0.2,0.2,0.1,0.3C244.8,128.5,244.7,128.5,244.6,128.5z M232.3,128.8c-0.1,0-0.2-0.1-0.2-0.2
	c0-0.1,0.1-0.3,0.2-0.3l2.5-0.3c0.1,0,0.3,0.1,0.3,0.2c0,0.1-0.1,0.3-0.2,0.3L232.3,128.8L232.3,128.8z M227.4,129.3
	c-0.1,0-0.2-0.1-0.2-0.2c0-0.1,0.1-0.3,0.2-0.3l2.5-0.3c0.1,0,0.3,0.1,0.3,0.2c0,0.1-0.1,0.3-0.2,0.3L227.4,129.3L227.4,129.3z
	 M222.4,129.9c-0.1,0-0.2-0.1-0.2-0.2c0-0.1,0.1-0.3,0.2-0.3l2.5-0.3c0.1,0,0.3,0.1,0.3,0.2s-0.1,0.3-0.2,0.3L222.4,129.9
	C222.5,129.9,222.5,129.9,222.4,129.9z M217.6,130.7c-0.1,0-0.2-0.1-0.2-0.2c0-0.1,0-0.3,0.2-0.3c0.8-0.2,1.6-0.4,2.5-0.5
	c0.1,0,0.3,0.1,0.3,0.2c0,0.1-0.1,0.3-0.2,0.3C219.2,130.2,218.4,130.4,217.6,130.7L217.6,130.7z M248.1,131c-0.1,0-0.1,0-0.2-0.1
	c-0.5-0.6-1.1-1.1-1.8-1.6c-0.1-0.1-0.1-0.2-0.1-0.3c0.1-0.1,0.2-0.1,0.3-0.1c0.7,0.5,1.4,1,1.9,1.7
	C248.3,130.7,248.3,130.9,248.1,131C248.2,131,248.1,131,248.1,131z M213.1,132.9c-0.1,0-0.2,0-0.2-0.1c-0.1-0.1-0.1-0.3,0.1-0.3
	c0.7-0.5,1.4-0.9,2.1-1.3c0.1-0.1,0.3,0,0.3,0.1c0.1,0.1,0,0.3-0.1,0.3c-0.7,0.4-1.4,0.8-2.1,1.3
	C213.2,132.9,213.2,132.9,213.1,132.9z M250.2,135.4c-0.1,0-0.2-0.1-0.2-0.2c-0.1-0.8-0.4-1.6-0.7-2.3c-0.1-0.1,0-0.3,0.1-0.3
	c0.1-0.1,0.3,0,0.3,0.1c0.4,0.8,0.6,1.6,0.8,2.4C250.5,135.3,250.4,135.4,250.2,135.4L250.2,135.4z M209.7,136.5h-0.1
	c-0.1-0.1-0.1-0.2-0.1-0.3c0.5-0.7,1-1.4,1.6-2c0.1-0.1,0.3-0.1,0.4,0c0.1,0.1,0.1,0.3,0,0.4c-0.6,0.6-1.1,1.2-1.5,1.9
	C209.9,136.5,209.8,136.5,209.7,136.5z M249.7,140.3C249.7,140.3,249.6,140.3,249.7,140.3c-0.2-0.1-0.3-0.2-0.2-0.3
	c0.3-0.8,0.5-1.5,0.6-2.3c0-0.1,0.1-0.2,0.3-0.2c0.1,0,0.2,0.1,0.2,0.3c-0.1,0.8-0.3,1.7-0.6,2.5
	C249.9,140.3,249.8,140.3,249.7,140.3z M207.6,141L207.6,141c-0.2,0-0.3-0.2-0.2-0.3c0.2-0.8,0.5-1.6,0.9-2.4
	c0.1-0.1,0.2-0.2,0.3-0.1s0.2,0.2,0.1,0.3c-0.3,0.7-0.6,1.5-0.8,2.3C207.8,140.9,207.7,141,207.6,141z M246.8,144.3
	c-0.1,0-0.1,0-0.2-0.1c-0.1-0.1-0.1-0.3,0-0.3l0.1-0.1l0,0c0.6-0.5,1.1-1,1.6-1.6c0.1-0.1,0.2-0.1,0.3-0.1c0.1,0.1,0.1,0.2,0.1,0.3
	c-0.5,0.6-1,1.2-1.6,1.7l0,0l-0.1,0.1C246.9,144.3,246.8,144.3,246.8,144.3z M207.1,145.9c-0.1,0-0.2-0.1-0.2-0.2c0-0.3,0-0.7,0-1
	c0-0.5,0-1,0.1-1.5c0-0.1,0.1-0.2,0.3-0.2c0.1,0,0.2,0.1,0.2,0.3c-0.1,0.5-0.1,1-0.1,1.5c0,0.3,0,0.7,0,1
	C207.4,145.8,207.3,145.9,207.1,145.9L207.1,145.9z M242.9,147.4c-0.1,0-0.1,0-0.2-0.1c-0.1-0.1-0.1-0.3,0-0.3l1.9-1.6
	c0.1-0.1,0.3-0.1,0.3,0c0.1,0.1,0.1,0.3,0,0.3l-1.9,1.5C243,147.4,242.9,147.4,242.9,147.4z M239,150.5c-0.1,0-0.1,0-0.2-0.1
	c-0.1-0.1-0.1-0.3,0-0.4l1.9-1.5c0.1-0.1,0.3-0.1,0.3,0c0.1,0.1,0.1,0.3,0,0.3l-1.9,1.5C239.1,150.5,239,150.5,239,150.5z
	 M208.3,150.7c-0.1,0-0.2-0.1-0.2-0.2c-0.3-0.8-0.6-1.6-0.8-2.4c0-0.1,0-0.3,0.2-0.3c0.1,0,0.3,0.1,0.3,0.2c0.2,0.8,0.4,1.6,0.8,2.3
	C208.6,150.5,208.5,150.7,208.3,150.7L208.3,150.7z M235.1,153.6c-0.1,0-0.1,0-0.2-0.1c-0.1-0.1-0.1-0.3,0-0.3l2-1.5
	c0.1-0.1,0.3-0.1,0.3,0c0.1,0.1,0.1,0.3,0,0.4l-1.9,1.5C235.2,153.6,235.1,153.6,235.1,153.6z M210.9,154.9c-0.1,0-0.1,0-0.2-0.1
	c-0.6-0.6-1.1-1.3-1.5-2c-0.1-0.1,0-0.3,0.1-0.3c0.1-0.1,0.3,0,0.3,0.1c0.4,0.7,0.9,1.3,1.5,1.9c0.1,0.1,0.1,0.3,0,0.3
	C211.1,154.9,211,154.9,210.9,154.9z M231.2,156.7c-0.1,0-0.2,0-0.2-0.1c-0.1-0.1-0.1-0.3,0-0.3l0.1-0.1c0,0,0,0,0.1,0l1.8-1.4
	c0.1-0.1,0.3-0.1,0.3,0c0.1,0.1,0.1,0.3,0,0.3l-1.8,1.5c0,0,0,0-0.1,0l-0.1,0.1H231.2z M214.8,158h-0.1c-0.7-0.4-1.4-0.9-2.1-1.4
	c-0.1-0.1-0.1-0.2,0-0.3s0.2-0.1,0.3,0c0.6,0.5,1.3,1,2,1.4c0.1,0.1,0.2,0.2,0.1,0.3C215,158,214.9,158,214.8,158z M226.8,159
	c-0.1,0-0.2-0.1-0.2-0.2c0-0.1,0-0.3,0.2-0.3c0.8-0.3,1.5-0.6,2.2-1c0.1-0.1,0.3,0,0.3,0.1c0.1,0.1,0,0.3-0.1,0.3
	C228.5,158.4,227.7,158.8,226.8,159C226.9,159,226.9,159,226.8,159z M219.5,159.6L219.5,159.6c-0.9-0.1-1.7-0.4-2.5-0.6
	c-0.1,0-0.2-0.2-0.2-0.3s0.2-0.2,0.3-0.2c0.8,0.3,1.6,0.5,2.4,0.6c0.1,0,0.2,0.2,0.2,0.3C219.7,159.6,219.6,159.6,219.5,159.6z
	 M222,159.8L222,159.8c-0.2,0-0.3-0.1-0.3-0.2c0-0.1,0.1-0.2,0.2-0.2l0,0c0.8,0,1.6-0.1,2.4-0.2c0.1,0,0.3,0.1,0.3,0.2
	c0,0.1-0.1,0.3-0.2,0.3C223.7,159.8,222.8,159.8,222,159.8"/>
<path class="st8" d="M175.4,175.3l-4-12.2l3.4,2l1.9-5.8l1.2,4.6l3.2-0.8l-4,12.2H175.4"/>
<path d="M171.9,175.5v3.1c0,2.4,1.9,4.3,4.3,4.3c2.4,0,4.3-1.9,4.3-4.3v-3.1H171.9z M176.3,183.5c-2.7,0-4.8-2.2-4.8-4.8V175h9.7
	v3.6C181.1,181.3,178.9,183.5,176.3,183.5"/>
<path d="M172.8,175h6.8v-2.4l0.2-0.1c3.5-1.4,5.7-4.8,5.7-8.6c0-5.1-4.2-9.3-9.3-9.3s-9.2,4.2-9.2,9.3c0,3.8,2.2,7.1,5.7,8.6
	l0.2,0.1L172.8,175L172.8,175z M180.2,175.5h-7.8V173c-3.6-1.6-5.8-5.1-5.8-8.9c0-5.4,4.4-9.8,9.8-9.8s9.8,4.4,9.8,9.8
	c0,3.9-2.3,7.4-5.8,8.9v2.5"/>
<path class="st3" d="M178.9,177.6h-5.3c-0.1,0-0.2-0.1-0.2-0.2c0-0.1,0.1-0.2,0.2-0.2h5.3c0.1,0,0.2,0.1,0.2,0.2
	C179.2,177.5,179.1,177.6,178.9,177.6"/>
<path class="st3" d="M178.9,179.6h-5.3c-0.1,0-0.2-0.1-0.2-0.2c0-0.1,0.1-0.2,0.2-0.2h5.3c0.1,0,0.2,0.1,0.2,0.2
	C179.2,179.5,179.1,179.6,178.9,179.6"/>
<path d="M182.6,164.3c-0.1,0-0.2-0.1-0.2-0.2c0-3.4-2.7-6.1-6.1-6.1c-1.5,0-2.9,0.5-4,1.5c-0.1,0.1-0.3,0.1-0.3,0
	c-0.1-0.1-0.1-0.3,0-0.3c1.2-1.1,2.8-1.7,4.4-1.7c3.6,0,6.6,3,6.6,6.6C182.9,164.2,182.8,164.3,182.6,164.3"/>
<path d="M148,188h56.6v-38.1H148V188z M205,188.5h-57.5v-39.1H205V188.5"/>
<path d="M155.8,14.3c-7.4,0-13.5,6.1-13.5,13.5s6.1,13.5,13.5,13.5s13.5-6.1,13.5-13.5S163.3,14.3,155.8,14.3z M155.8,41.8
	c-7.7,0-14-6.3-14-14s6.3-14,14-14s14,6.3,14,14C169.8,35.6,163.6,41.8,155.8,41.8"/>
<path d="M155.8,14.3c-3.7,0-6.8,6.1-6.8,13.5s3,13.5,6.8,13.5c3.7,0,6.8-6.1,6.8-13.5S159.6,14.3,155.8,14.3z M155.8,41.8
	c-4,0-7.3-6.3-7.3-14s3.3-14,7.3-14s7.3,6.3,7.3,14C163.1,35.6,159.8,41.8,155.8,41.8"/>
<path d="M155.8,21.7c-3.5,0-6.9-1.3-9.5-3.7c-0.1-0.1-0.1-0.2,0-0.3c0.1-0.1,0.2-0.1,0.3,0c2.5,2.3,5.8,3.6,9.2,3.6s6.7-1.3,9.2-3.6
	c0.1-0.1,0.3-0.1,0.3,0c0.1,0.1,0.1,0.3,0,0.3C162.8,20.3,159.4,21.7,155.8,21.7"/>
<path d="M146.5,38.2c-0.1,0-0.1,0-0.2-0.1c-0.1-0.1-0.1-0.3,0-0.3c2.6-2.4,6-3.7,9.5-3.7s6.9,1.3,9.5,3.7c0.1,0.1,0.1,0.2,0,0.3
	s-0.2,0.1-0.3,0c-2.5-2.3-5.8-3.6-9.2-3.6s-6.7,1.3-9.2,3.6C146.6,38.1,146.5,38.2,146.5,38.2"/>
<path d="M169.6,28.1h-27.5c-0.1,0-0.2-0.1-0.2-0.2s0.1-0.2,0.2-0.2h27.5c0.1,0,0.2,0.1,0.2,0.2S169.7,28.1,169.6,28.1"/>
<path d="M155.8,41.8c-0.1,0-0.2-0.1-0.2-0.2V14c0-0.1,0.1-0.2,0.2-0.2c0.1,0,0.2,0.1,0.2,0.2v27.6C156.1,41.7,156,41.8,155.8,41.8"
	/>
<path d="M184.6,47.4h-49c-0.1,0-0.2-0.1-0.2-0.2c0-0.1,0.1-0.2,0.2-0.2h48.5V8.8h-56.6v19c0,0.1-0.1,0.2-0.2,0.2s-0.2-0.1-0.2-0.2
	V8.3h57.5V47.4"/>
<path class="st3" d="M135.6,47.4h-8.3c-0.1,0-0.2-0.1-0.2-0.2V27.8c0-0.1,0.1-0.2,0.2-0.2s0.2,0.1,0.2,0.2v19.1h8.1
	c0.1,0,0.2,0.1,0.2,0.2C135.9,47.3,135.8,47.4,135.6,47.4"/>
<path d="M87.4,44.1l18.3,8.4l18.2-8.4l-18.2-8.4L87.4,44.1z M105.7,53L105.7,53l-19.5-8.9l19.5-8.9h0.1l19.3,8.9L105.7,53"/>
<path d="M98.2,58.5h15V46h-15V58.5z M113.7,59h-16V45.5h16V59"/>
<path class="st8" d="M127.4,58.5h-5.2l2.4-10.9L127.4,58.5"/>
<path d="M127.7,58.8h-5.5c-0.1,0-0.2-0.1-0.2-0.2s0.1-0.2,0.2-0.2h4.8l-2.7-10.6v-3.6c0-0.1,0.1-0.2,0.2-0.2s0.2,0.1,0.2,0.2v3.5
	L127.7,58.8"/>
<path d="M126.9,56.4l-4.7,2.1h5.2L126.9,56.4"/>
<path d="M78.8,66.2h56.6V28.1H78.8V66.2z M135.9,66.7H78.3V27.6h57.5L135.9,66.7"/>
<path d="M253.2,58.5h-41.3c-0.1,0-0.2-0.1-0.2-0.2c0-0.1,0.1-0.2,0.2-0.2h40.8V19.9h-56.5v32.2c0,0.1-0.1,0.2-0.2,0.2
	c-0.1,0-0.2-0.1-0.2-0.2V19.4h57.5v39.1"/>
<path d="M224.3,23.7c-2.8,0-5.2,7-5.2,15.3s2.4,15.3,5.2,15.3s5.2-7,5.2-15.3S227.1,23.7,224.3,23.7z M224.3,54.7
	c-3.2,0-5.7-6.9-5.7-15.8c0-8.8,2.5-15.8,5.7-15.8S230,30,230,38.9S227.5,54.7,224.3,54.7"/>
<path d="M234.4,29.7c-3.1,0-8,1.8-12.9,4.9c-6.9,4.5-11.5,10.3-10,12.6c1.5,2.4,8.7,0.6,15.6-3.9c6.9-4.5,11.5-10.3,10-12.6
	C236.6,30,235.7,29.7,234.4,29.7z M214.3,48.8c-1.5,0-2.6-0.4-3.2-1.3c-1.7-2.7,2.7-8.5,10.2-13.3c7.4-4.8,14.6-6.4,16.3-3.8
	c1.7,2.7-2.7,8.5-10.2,13.3C222.3,47,217.4,48.8,214.3,48.8"/>
<path d="M221.5,43.3c6.9,4.5,14.1,6.3,15.6,3.9c1.5-2.4-3.1-8.1-10-12.6c-3.5-2.2-7-3.8-10-4.6c-2.9-0.7-4.9-0.4-5.6,0.7
	C210,33.1,214.5,38.8,221.5,43.3z M234.3,48.8c-3.2,0-8.1-1.8-13.1-5c-7.4-4.8-11.9-10.6-10.2-13.3c0.8-1.3,3-1.6,6.2-0.9
	c3,0.7,6.6,2.4,10.1,4.6c7.4,4.8,11.9,10.6,10.2,13.3C237,48.4,235.8,48.8,234.3,48.8"/>
<path class="st2" d="M219.2,26c0,1.2,1,2.1,2.1,2.1s2.1-1,2.1-2.1c0-1.2-1-2.1-2.1-2.1S219.2,24.8,219.2,26"/>
<path class="st9" d="M233.8,42c0,1.2,1,2.1,2.1,2.1c1.2,0,2.1-1,2.1-2.1c0-1.2-1-2.1-2.1-2.1C234.7,39.8,233.8,40.8,233.8,42"/>
<path class="st3" d="M210.8,41.1c0,1.2,1,2.1,2.1,2.1s2.1-1,2.1-2.1c0-1.2-1-2.1-2.1-2.1S210.8,39.9,210.8,41.1"/>
<path class="st10" d="M109.5,85.6h-3.8v-7.1h3.8V85.6"/>
<path class="st10" d="M105.7,78.5c0,2,1.5,3.7,3.3,3.7s3.3-1.6,3.3-3.7s-1.5-3.7-3.3-3.7S105.7,76.4,105.7,78.5"/>
<path class="st1" d="M108.3,80.5c0.2,0.2,0.6,0.4,0.9,0.4c0.8,0.1,1.5-0.4,1.7-1.2L108.3,80.5"/>
<path d="M109.1,82.4c-0.4,0-0.7-0.1-1-0.2c-0.1,0-0.2-0.2-0.2-0.3c0-0.1,0.2-0.2,0.3-0.2c0.3,0.1,0.6,0.2,0.9,0.2c1.7,0,3-1.5,3-3.3
	c0-0.9-0.3-1.7-0.9-2.3c-0.6-0.6-1.3-1-2.1-1c-1.5,0-2.8,1.3-3,3c0,0.1-0.1,0.2-0.3,0.2c-0.1,0-0.2-0.1-0.2-0.3
	c0.2-1.9,1.7-3.4,3.5-3.4c0.9,0,1.8,0.4,2.5,1.1s1,1.7,1,2.7C112.6,80.7,111.1,82.4,109.1,82.4"/>
<path d="M109.2,77.1l3.2,1.6c0-0.1,0-0.2,0-0.3c0-2-1.5-3.6-3.3-3.6s-3.4,1.7-3.4,3.7c0,0.1,0,0.3,0,0.4L109.2,77.1"/>
<path d="M107.1,74c0.4,1.5-0.4,3-1.9,3.4s-3-0.4-3.4-1.9s0.4-3,1.9-3.4S106.7,72.6,107.1,74"/>
<path d="M102.8,71.6c0.4,1.5-0.4,3-1.9,3.4s-3-0.4-3.4-1.9s0.4-3,1.9-3.4C100.9,69.3,102.4,70.2,102.8,71.6"/>
<path d="M98.5,69.2c0.4,1.5-0.4,3-1.9,3.4s-3-0.4-3.4-1.9s0.4-3,1.9-3.4C96.6,66.9,98.1,67.7,98.5,69.2"/>
<path class="st10" d="M91.5,119.1h21.8v-9.4H96.5L91.5,119.1"/>
<path d="M101.7,115.7c-1.7,1.1-5.8,2-8.9,0.9l3.7-6.9h16.7v5.2C105.6,112.8,103.6,114.5,101.7,115.7"/>
<path d="M157.7,118.5h57V55h-57V118.5"/>
<path class="st1" d="M155.3,60.6c0.6,0.2,1,0.8,0.8,1.4l-0.6,2.1h0.1c0.6,0.2,1,0.8,0.9,1.5l-0.7,4c-0.2,1-0.1,2,0.3,2.9l0.7,1.8
	l3.1-2.6c0.5-0.4,1.2-0.3,1.6,0.1l0.1,0.1c0.4,0.5,0.4,1.2-0.1,1.6l-0.9,0.8c-0.8,0.7-1.5,1.6-2,2.5c-0.5,0.8-1.1,1.8-1.4,2.2
	c-0.8,1.1-1.8,1.4-2.5,1.4V60.5C155,60.5,155.2,60.5,155.3,60.6"/>
<path class="st1" d="M154.9,115.6h57V52.1h-57V115.6"/>
<path class="st10" d="M148.7,75.6l5.1-14.3c0.2-0.5,0.7-0.8,1.2-0.8c-0.1,0-0.2,0-0.2,0v15.1h0.1c0.7-0.2,1.3-0.6,1.8-1l0.1-0.1
	l3.1-2.6c0.5-0.4,1.2-0.3,1.6,0.1l0.1,0.1c0.4,0.5,0.4,1.2-0.1,1.6l-0.9,0.8c-0.8,0.7-1.5,1.6-2,2.5c-0.5,0.8-1.1,1.8-1.4,2.2
	c-1.4,1.9-3.4,1.4-3.4,1.4l-9.4,7.3l-1.9-7.7L148.7,75.6"/>
<path class="st11" d="M142.7,80.3l1.9,7.7l7.6-6l-5.7-4.7L142.7,80.3"/>
<path d="M154.9,60.8v-0.5l0,0c0.1,0,0.2,0,0.3,0v0.5C155,60.8,155,60.8,154.9,60.8"/>
<path d="M148.7,75.6L148.7,75.6L148.7,75.6z M143,80.4l1.7,7.2l9.2-7.2h0.1c0.1,0,1.8,0.4,3.1-1.3c0.3-0.3,0.8-1.1,1.4-2.2
	c0.6-0.9,1.3-1.8,2.1-2.5l0.9-0.8c0.4-0.3,0.4-0.9,0.1-1.2l-0.1-0.1c-0.3-0.4-0.9-0.4-1.3-0.1l-3.4,2.8l-0.8-2.2
	c-0.4-1-0.5-2-0.3-3.1l0.7-4c0.1-0.5-0.2-1.1-0.8-1.2l-0.3-0.1l0.6-2.3c0.1-0.5-0.2-1-0.7-1.1c-0.1,0-0.2,0-0.3,0
	c-0.4,0-0.7,0.3-0.8,0.6l-5.2,14.3L143,80.4z M144.4,88.4l-2-8.2l6.1-4.7l5.1-14.2c0.2-0.5,0.7-0.9,1.2-1c0.2,0,0.4,0,0.5,0
	c0.8,0.2,1.2,1,1,1.7l-0.5,1.9c0.7,0.3,1.1,1,1,1.8l-0.7,4c-0.2,1-0.1,1.9,0.3,2.8L157,74l2.8-2.4c0.6-0.5,1.5-0.4,2,0.2l0.1,0.1
	c0.5,0.6,0.5,1.4-0.1,1.9l-0.9,0.8c-0.8,0.7-1.4,1.5-2,2.4c-0.5,0.8-1.1,1.8-1.4,2.2c-1.3,1.7-3,1.6-3.5,1.5L144.4,88.4"/>
<path d="M142.7,80.5c-0.1,0-0.1,0-0.2-0.1c-0.1-0.1-0.1-0.3,0-0.3l6-4.7c0.1-0.1,0.3-0.1,0.3,0c0.1,0.1,0.1,0.3,0,0.3l-6,4.7
	C142.8,80.5,142.7,80.5,142.7,80.5"/>
<path d="M212.1,115.8h-57.5V80.7c0-0.1,0.1-0.2,0.2-0.2s0.2,0.1,0.2,0.2v34.7h56.5v-63H155v23.2c0,0.1-0.1,0.2-0.2,0.2
	s-0.2-0.1-0.2-0.2V51.8h57.5V115.8"/>
<path class="st3" d="M163.1,109.1h4.5V89.6h-4.5V109.1"/>
<path class="st3" d="M172.1,109.1h4.5V95.6h-4.5V109.1"/>
<path class="st2" d="M181.1,109.1h4.5v-9.6h-4.5V109.1"/>
<path class="st3" d="M190.1,109.1h4.5V95.6h-4.5V109.1"/>
<path class="st9" d="M199.1,109.1h4.5V91.8h-4.5V109.1"/>
<path class="st2" d="M193.2,83.8l-9.8-9.8l9.8-9.8C198.6,69.5,198.6,78.4,193.2,83.8"/>
<path class="st9" d="M195,59.8l-9.8,9.8V55.7C189,55.7,192.5,57.2,195,59.8"/>
<path class="st3" d="M183.4,73.9l9.8,9.8c-5.4,5.4-14.2,5.4-19.7,0c-5.4-5.4-5.4-14.3,0-19.7c2.7-2.7,6.3-4.1,9.8-4.1L183.4,73.9"/>
<path class="st10" d="M153.2,73.1l0.5-1.1c0.3-0.7,0.8-1.3,1.4-1.7l3.4-2.3c0.5-0.3,0.6-1,0.3-1.5s-0.9-0.6-1.4-0.4l-4,2.2
	c-0.3,0.2-0.6,0.4-0.8,0.7l-1.3,1.5L153.2,73.1"/>
<path class="st10" d="M154.5,70.3l0.3-1.1c0.2-0.7,0.6-1.4,1.1-1.9l3-2.8c0.4-0.4,0.5-1.1,0.1-1.5s-1-0.5-1.4-0.1l-3.6,2.8
	c-0.3,0.2-0.5,0.5-0.7,0.8l-1,1.7L154.5,70.3"/>
<path d="M156.6,66.9c-0.1,0-0.1,0-0.2-0.1c-0.1-0.1-0.1-0.3,0-0.4l2.3-2.1c0.3-0.3,0.3-0.8,0-1.2c-0.3-0.3-0.8-0.4-1.1-0.1l-3.6,2.8
	c-0.3,0.2-0.5,0.5-0.7,0.8c-0.1,0.1-0.2,0.2-0.3,0.1s-0.2-0.2-0.1-0.3c0.2-0.4,0.5-0.7,0.8-0.9l3.6-2.8c0.5-0.4,1.3-0.3,1.8,0.2
	s0.4,1.4-0.1,1.9L156.6,66.9C156.7,66.8,156.7,66.9,156.6,66.9"/>
<path d="M153.3,73.5C153.2,73.5,153.2,73.5,153.3,73.5c-0.2-0.1-0.3-0.2-0.2-0.3l0.4-1.2c0.3-0.8,0.8-1.4,1.5-1.8l3.4-2.3
	c0.4-0.2,0.5-0.8,0.2-1.1c-0.2-0.4-0.7-0.5-1.1-0.3l-3.6,1.8c-0.7,0.4-1.4,0.9-1.9,1.6c-0.1,0.1-0.2,0.1-0.3,0s-0.1-0.2,0-0.3
	c0.6-0.7,1.3-1.3,2.1-1.7l3.6-1.8c0.6-0.3,1.4-0.1,1.7,0.5c0.4,0.6,0.2,1.4-0.4,1.8l-3.4,2.3c-0.6,0.4-1,0.9-1.3,1.6l-0.4,1.2
	C153.5,73.4,153.4,73.5,153.3,73.5"/>
<path d="M154.3,76c-0.4,0-0.8-0.1-1.2-0.2c-0.1-0.1-0.2-0.2-0.1-0.3c0.1-0.1,0.2-0.2,0.3-0.1c1,0.4,2.1,0.2,2.8-0.5l0.8-0.6
	c0.1-0.1,0.3-0.1,0.3,0c0.1,0.1,0.1,0.3,0,0.4l-0.8,0.6C155.8,75.8,155,76,154.3,76"/>
<path class="st8" d="M131.2,86.3l13.4-10.4l7,9l-12.9,10c-2.3,1.8-5.1,2.7-7.9,2.7h-20.3V86.3H131.2"/>
<path class="st8" d="M104.3,86.6h6.9v-3.1h-6.9V86.6"/>
<path class="st8" d="M114.5,89.7c0.3,1.3,1.2,2.5,2.4,3.1c1.4,0.7,2.3,2.2,2.3,3.8c0,1.1-0.4,2.1-1.2,2.9c-0.8,0.9-1.1,2.1-0.8,3.3
	l2,8.5H90.4L102,86.4h12.6L114.5,89.7"/>
<path d="M119.5,111.5H90l4.5-9.7c0.1-0.1,0.2-0.2,0.3-0.1c0.1,0.1,0.2,0.2,0.1,0.3l-4.2,9h28.1l-1.9-8.2c-0.3-1.3,0-2.6,0.9-3.5
	c0.7-0.7,1.1-1.7,1.1-2.7c0-1.5-0.8-2.9-2.1-3.6c-1.3-0.7-2.2-1.9-2.5-3.3c0-0.1,0.1-0.3,0.2-0.3s0.3,0.1,0.3,0.2
	c0.2,1.2,1.1,2.3,2.2,2.9c1.5,0.8,2.4,2.3,2.4,4c0,1.1-0.4,2.2-1.2,3.1c-0.7,0.8-1,1.9-0.8,3L119.5,111.5"/>
<path d="M107.8,100.4c-0.1,0-0.2,0-0.2-0.1c-0.1-0.1,0-0.3,0.1-0.3c1.1-0.8,1.8-2,1.7-3.4c-0.1-2.2-1.8-3.9-4-3.9
	c-0.1,0-0.2-0.1-0.2-0.2s0.1-0.2,0.2-0.2c2.5,0,4.4,1.9,4.5,4.4c0,1.5-0.7,3-2,3.8C107.9,100.4,107.8,100.4,107.8,100.4"/>
<path class="st10" d="M55.7,136.7l2.9-4.8c0.4-0.7,0.9-1.2,1.5-1.7l6.1-4.4l1.6,2.2l-5.6,4c-0.7,0.5-1.3,1.2-1.8,2l-2.4,4
	c-0.4,0.7-1.3,0.8-1.9,0.3l-0.2-0.1C55.5,137.9,55.4,137.2,55.7,136.7"/>
<path class="st10" d="M53.7,134.7l2.8-4.8c0.4-0.7,0.9-1.2,1.5-1.7l6.1-4.4l1.6,2.2l-5.7,4.1c-0.6,0.5-1.2,1-1.5,1.7l-2.4,4.1
	c-0.4,0.7-1.4,0.9-2,0.4C53.5,136,53.4,135.3,53.7,134.7"/>
<path class="st10" d="M68.5,128.4h-0.2c-0.7,0-1.3,0.2-1.9,0.6l-2.6,1.8l-3.6-2.4l7.3-8.5h6.3l-1.5,7.1c-0.2,0.9-0.5,1.8-1,2.5
	l-3.5,5.5c-0.4,0.7-1.3,0.8-1.9,0.4l-0.1-0.1c-0.7-0.4-0.8-1.3-0.4-1.9L68.5,128.4"/>
<path class="st11" d="M67.5,119.9h6.3l-0.9,4.2h-9L67.5,119.9"/>
<path d="M56.9,138.9c-0.3,0-0.7-0.1-0.9-0.3l-0.2-0.1c-0.6-0.5-0.7-1.3-0.3-1.9l2.9-4.8c0.4-0.7,0.9-1.3,1.6-1.7l2.7-1.9
	c0.1-0.1,0.3-0.1,0.3,0.1c0.1,0.1,0.1,0.3-0.1,0.3l-2.7,1.9c-0.6,0.4-1.1,1-1.4,1.6l-2.9,4.8c-0.2,0.4-0.2,1,0.2,1.3l0.2,0.1
	c0.2,0.2,0.5,0.3,0.8,0.2s0.5-0.2,0.7-0.5l2.4-4c0.5-0.8,1.1-1.5,1.9-2.1l4.2-3.1c0.6-0.4,1.3-0.7,2-0.7h0.1c0.1,0,0.2,0.1,0.2,0.2
	c0,0.1-0.1,0.2-0.2,0.2h-0.1c-0.6,0-1.2,0.2-1.8,0.6l-4.2,3.1c-0.7,0.5-1.3,1.1-1.7,1.9l-2.4,4.1c-0.2,0.4-0.6,0.6-1,0.7
	C57.1,138.9,57,138.9,56.9,138.9"/>
<path d="M54.9,137c-0.4,0-0.7-0.1-1-0.4c-0.6-0.5-0.8-1.4-0.4-2.1l2.8-4.8c0.4-0.7,0.9-1.3,1.6-1.7l5.9-4.2l3.6-4.2h6.7l-1.6,7.4
	c-0.2,0.9-0.6,1.8-1.1,2.6l-3.5,5.5c-0.5,0.8-1.5,1-2.3,0.5l-0.1-0.1c-0.4-0.2-0.6-0.6-0.7-1s0-0.9,0.2-1.2l4.2-6.5
	c0.1-0.1,0.2-0.2,0.3-0.1c0.1,0.1,0.2,0.2,0.1,0.3l-4.2,6.5c-0.3,0.5-0.2,1.3,0.3,1.6l0.1,0.1c0.5,0.3,1.3,0.2,1.6-0.4l3.5-5.5
	c0.5-0.8,0.8-1.6,1-2.5l1.4-6.8h-5.8l-3.5,4.1l-5.9,4.3c-0.6,0.4-1.1,1-1.4,1.6l-2.8,4.8c-0.3,0.5-0.2,1.1,0.3,1.4
	c0.2,0.2,0.6,0.3,0.9,0.2c0.3,0,0.6-0.2,0.8-0.5c0.1-0.1,0.2-0.1,0.3-0.1c0.1,0.1,0.1,0.2,0.1,0.3c-0.2,0.4-0.6,0.6-1.1,0.7
	C55,137,55,137,54.9,137"/>
<path class="st8" d="M64.6,119.3l6.8-12.9c2.1-4,5.3-7.3,9.2-9.6l13.9-8.2c2.5-1.5,5.3-2.2,8.2-2.2h3.2l-8,13.6l-13.3,7.7L75.4,125
	L64.6,119.3"/>
<path class="st12" d="M80.6,96.8l1.5-0.9c-0.1,5.1-4.3,9.2-9.4,9.2c-0.2,0-0.4,0-0.5,0C74.2,101.7,77.2,98.8,80.6,96.8"/>
<path d="M75.5,125.4l-11.2-6l7-13.1c2.1-4,5.4-7.4,9.3-9.7l13.9-8.2c2.7-1.6,5.2-2.3,8.3-2.3h5.5c0.1,0,0.2,0.1,0.2,0.2
	s-0.1,0.2-0.2,0.2h-5.5c-3,0-5.5,0.7-8.1,2.2L80.8,97c-3.9,2.3-7,5.6-9.1,9.5L65,119.2l10.3,5.5l9.1-17.1h0.1l12-6.9
	c0.1-0.1,0.3,0,0.3,0.1c0.1,0.1,0,0.3-0.1,0.3L84.8,108L75.5,125.4"/>
<path class="st10" d="M114.4,170.8h11.1v22.6h-11.1V170.8"/>
<path class="st11" d="M125.6,175.7l-11.1,4.5v-9.3h11.1V175.7"/>
<path class="st11" d="M114.4,182.3h11.1v11.1h-11.1V182.3"/>
<path class="st8" d="M113.8,189.3l-0.2,0.2c-2,2.5-1.9,4.6-2.9,8.1l13.1,4.8l19.5,0.2l3.3-2l-1.1-2.8l-10.8-3.6l-7.4-4.7l-1.5-2.3
	h-2.1l-1.7,1.6v2c-2,1.2-2.3,1.7-3.3,1.7c0,0-1.7,0.2-2.2-1.4l-0.5-1.6C115.7,188.7,114.4,188.5,113.8,189.3"/>
<g>
	<g>
		<defs>
			<rect id="SVGID_00000049921171637883761450000008999986516514985148_" x="106.7" y="197.3" width="40" height="8.7"/>
		</defs>
		<clipPath id="SVGID_00000044873502468151479140000015980757871596477078_">
			<use xlink:href="#SVGID_00000049921171637883761450000008999986516514985148_"  style="overflow:visible;"/>
		</clipPath>
		<g style="clip-path:url(#SVGID_00000044873502468151479140000015980757871596477078_);">
			<path class="st11" d="M146.7,200.6l-6.1,1.2l-16.2-0.3l-13.7-3.9l-2,1.8l-0.8,4.5l5.3,2.3c0,0,3.8,0,8.6,0l1.2-1.2h1.8l1.2,1.2
				c7.5,0,15.7,0,15.7,0l4.4-2.2l0.7-1.4L146.7,200.6"/>
		</g>
	</g>
</g>
<path d="M110.6,186.1c-0.2,0-0.3,0-0.5,0.1c-0.7,0.3-1.1,1.1-0.8,1.8c0.2,0.6,1.8,2.2,2.8,3.2c0.1-1.3,0.1-3.6-0.1-4.2
	C111.7,186.4,111.2,186.1,110.6,186.1z M112.5,192.3l-0.4-0.4c-0.3-0.3-2.9-2.8-3.3-3.7c-0.2-0.5-0.2-1,0-1.5s0.6-0.8,1-1
	c0.5-0.2,1-0.2,1.5,0s0.8,0.6,1,1.1c0.3,0.9,0.2,4.5,0.1,4.9L112.5,192.3"/>
<path d="M126.9,192.4c-0.1,0-0.2,0-0.2-0.1c-0.1-0.1-0.1-0.3,0.1-0.3l2.2-1.5c0.1-0.1,0.3-0.1,0.3,0.1s0.1,0.3-0.1,0.3L126.9,192.4
	C127,192.4,127,192.4,126.9,192.4"/>
<path d="M128.8,193.6c-0.1,0-0.2,0-0.2-0.1c-0.1-0.1,0-0.3,0.1-0.3l2.2-1.5c0.1-0.1,0.3,0,0.3,0.1c0.1,0.1,0,0.3-0.1,0.3l-2.2,1.5
	C128.9,193.6,128.8,193.6,128.8,193.6"/>
<path d="M130.6,194.9c-0.1,0-0.2,0-0.2-0.1c-0.1-0.1-0.1-0.3,0.1-0.3l2.2-1.5c0.1-0.1,0.3-0.1,0.3,0.1c0.1,0.1,0.1,0.3-0.1,0.3
	l-2.2,1.5C130.7,194.9,130.7,194.9,130.6,194.9"/>
<path class="st3" d="M91.3,123.5l0.2-4.4h21.7l12.9,16.2c2.7,3.3,4.1,7.5,4.1,11.8v27.3h-19.5V148L91.3,123.5"/>
<path class="st14" d="M130.3,150.8c-3.6-2.4-5.9-6.5-5.9-11.1c0-1.9,0.4-3.7,1.1-5.3l0.8,0.9c2.7,3.3,4.1,7.5,4.1,11.8v3.7"/>
<path class="st10" d="M72.6,165.6l9.2,4.8l-10,19.6l-9.3-4.8L72.6,165.6"/>
<path class="st11" d="M79.6,174.7l-11-1.5l3.9-7.6l9.2,4.8L79.6,174.7"/>
<path class="st11" d="M67.3,175.8l9.2,4.8l-4.8,9.3l-9.3-4.8L67.3,175.8"/>
<path class="st8" d="M56.6,186.9c2.5-2.7,3.4-4.6,6.3-5.9l0.2-0.1c0.9-0.4,1.9,0.4,1.8,1.4l-0.3,1.7c-0.2,1.6,1.3,2.2,1.3,2.2
	c0.9,0.4,1.4,0.1,3.7,0l0.9-1.8l2.3-0.6l1.8,0.9l0.3,2.7l4.9,7.4l7.5,3.3l1.3,2.7l-3.2,2.1H73.2l-7.1-5.8L56.6,186.9"/>
<path d="M73.2,202.6h12.3l2.9-2l-1.2-2.4l-7.5-3.3l-4.9-7.5l-0.3-2.7l-1.6-0.8l-2.1,0.6l-0.9,1.8h-0.1c-0.7,0-1.3,0.1-1.7,0.2
	c-0.9,0.1-1.5,0.2-2.1-0.2l0,0c-0.4-0.2-1.7-0.9-1.4-2.5l0.3-1.7c0.1-0.4-0.1-0.7-0.4-1c-0.3-0.2-0.7-0.3-1-0.1l-0.2,0.1
	c-2,0.9-3,2.1-4.4,3.7c-0.5,0.6-1,1.2-1.7,2l9.3,10L73.2,202.6z M85.7,203.1H73.1l-7.2-5.8l-9.6-10.4l0.2-0.2
	c0.7-0.8,1.3-1.5,1.8-2.1c1.4-1.6,2.4-2.9,4.5-3.9l0.2-0.1c0.5-0.2,1.1-0.2,1.5,0.2c0.4,0.3,0.7,0.9,0.6,1.4l-0.3,1.7
	c-0.2,1.2,0.7,1.8,1.1,2l0,0c0.5,0.3,0.9,0.2,1.8,0.1c0.4-0.1,0.9-0.1,1.6-0.2l0.9-1.8l2.5-0.7l2,1l0.3,2.8l4.8,7.3l7.5,3.3l1.5,3
	L85.7,203.1"/>
<g>
	<g>
		<defs>
			<rect id="SVGID_00000068640541639544444930000004530882074493738148_" x="51.3" y="186.7" width="38.1" height="19.3"/>
		</defs>
		<clipPath id="SVGID_00000036962814409996839840000012806403985255404988_">
			<use xlink:href="#SVGID_00000068640541639544444930000004530882074493738148_"  style="overflow:visible;"/>
		</clipPath>
		<g style="clip-path:url(#SVGID_00000036962814409996839840000012806403985255404988_);">
			<path class="st11" d="M54.1,187.6l2.6-0.7l10.4,9.7l8.6,5l7,0.2l6.1-1.1v2L88,204l-4.4,2.2c0,0-2.6,0-7.6,0c0,0-7.8-3.7-9.8-4.7
				l-0.5-1.6l-1.6-0.8l-1.6,0.5c-4.3-2.2-7.7-3.9-7.7-3.9l-3.6-4.5L54.1,187.6"/>
		</g>
	</g>
</g>
<path d="M61.2,176.4c-0.3,0-0.6,0.1-0.9,0.3c-0.3,0.2-0.5,0.6-0.5,1c-0.1,0.6,0.6,2.8,1,4.1c0.7-1.2,1.7-3.2,1.8-3.8
	c0-0.4-0.1-0.7-0.3-1s-0.6-0.5-1-0.5C61.3,176.4,61.2,176.4,61.2,176.4z M60.7,183l-0.2-0.5c-0.1-0.4-1.3-3.9-1.2-4.8
	c0.1-0.5,0.3-1,0.7-1.3s0.9-0.5,1.4-0.4c0.5,0,1,0.3,1.3,0.7s0.5,0.9,0.4,1.4c-0.1,0.9-1.9,4.1-2.1,4.5L60.7,183"/>
<path d="M73.6,189.7c-0.1,0-0.2-0.1-0.2-0.2c0-0.1,0.1-0.3,0.2-0.3l2.6-0.3c0.1,0,0.3,0.1,0.3,0.2c0,0.1-0.1,0.3-0.2,0.3L73.6,189.7
	L73.6,189.7"/>
<path d="M74.6,191.7c-0.1,0-0.2-0.1-0.2-0.2c0-0.1,0.1-0.3,0.2-0.3l2.6-0.3c0.1,0,0.3,0.1,0.3,0.2c0,0.1-0.1,0.3-0.2,0.3L74.6,191.7
	C74.7,191.7,74.6,191.7,74.6,191.7"/>
<path d="M75.7,193.6c-0.1,0-0.2-0.1-0.2-0.2c0-0.1,0.1-0.3,0.2-0.3l2.6-0.3c0.1,0,0.3,0.1,0.3,0.2c0,0.1-0.1,0.3-0.2,0.3L75.7,193.6
	L75.7,193.6"/>
<path class="st3" d="M66.2,166.5l17.5,9.7l29.4-55.2v-2H91.4L66.2,166.5"/>
<path d="M83.9,176.6l-18-10l29.6-55.5c0.1-0.1,0.2-0.2,0.3-0.1c0.1,0.1,0.2,0.2,0.1,0.3l-29.3,55l17.1,9.5l20.5-38.5
	c1.2-2.2,2.9-4.1,5-5.5l2.1-1.4c0.1-0.1,0.3,0,0.3,0.1c0.1,0.1,0,0.3-0.1,0.3l-2.1,1.3c-2,1.3-3.7,3.2-4.9,5.3L83.9,176.6"/>
</svg>
