<?xml version="1.0" encoding="utf-8"?>
<!-- Generator: Adobe Illustrator 26.0.1, SVG Export Plug-In . SVG Version: 6.00 Build 0)  -->
<svg version="1.1" id="Layer_1" xmlns="http://www.w3.org/2000/svg" xmlns:xlink="http://www.w3.org/1999/xlink" x="0px" y="0px"
	 width="309px" height="207px" viewBox="0 0 309 207" style="enable-background:new 0 0 309 207;" xml:space="preserve">
<style type="text/css">
	.st0{clip-path:url(#SVGID_00000114792505142207722170000011203996930293601210_);}
	.st1{fill:#B4AEFF;}
	.st2{clip-path:url(#SVGID_00000145773703682847241830000012495975769440872615_);}
	.st3{fill:#FFFFFF;}
	.st4{clip-path:url(#SVGID_00000132796040608566468050000007914098366560504716_);}
	.st5{fill:#FDA4FF;}
	.st6{clip-path:url(#SVGID_00000125581082264890229300000011676582057088748211_);}
	.st7{fill:#FFE471;}
	.st8{clip-path:url(#SVGID_00000100359327870225254250000000462326781424806289_);}
	.st9{fill:#955B50;}
	.st10{fill:#020202;}
	.st11{clip-path:url(#SVGID_00000002354001116399645670000004951633966047204267_);}
	.st12{fill:#6155FF;}
	.st13{clip-path:url(#SVGID_00000023275330578244014430000017270870661669073567_);}
</style>
<g>
	<defs>
		<rect id="SVGID_1_" x="141.3" width="116" height="206"/>
	</defs>
	<clipPath id="SVGID_00000073718851690785355350000014309227758725203887_">
		<use xlink:href="#SVGID_1_"  style="overflow:visible;"/>
	</clipPath>
	<g style="clip-path:url(#SVGID_00000073718851690785355350000014309227758725203887_);">
		<path class="st1" d="M155.3,0.2h88.5c7.4,0,13.4,6,13.4,13.4v178.8c0,7.4-6,13.5-13.4,13.5h-88.5c-7.4,0-13.4-6-13.4-13.5V13.7
			C141.9,6.3,147.9,0.2,155.3,0.2"/>
	</g>
</g>
<g>
	<defs>
		<rect id="SVGID_00000024709446554018310990000000954372185004503685_" x="252" y="22.7" width="7.6" height="18.7"/>
	</defs>
	<clipPath id="SVGID_00000075857044476032417390000010117368475757123761_">
		<use xlink:href="#SVGID_00000024709446554018310990000000954372185004503685_"  style="overflow:visible;"/>
	</clipPath>
	<g style="clip-path:url(#SVGID_00000075857044476032417390000010117368475757123761_);">
		<path d="M253,23.7h6.6v16.9H253V23.7"/>
	</g>
</g>
<path class="st3" d="M253,23.7h3.2v16.9H253V23.7"/>
<path d="M253.2,40.3h2.7V23.9h-2.7V40.3z M256.4,40.8h-3.7V23.4h3.7V40.8"/>
<g>
	<defs>
		<rect id="SVGID_00000023264730529723928040000012506854978607642020_" x="134.7" width="116" height="206"/>
	</defs>
	<clipPath id="SVGID_00000114038113770012169640000001024759866317173400_">
		<use xlink:href="#SVGID_00000023264730529723928040000012506854978607642020_"  style="overflow:visible;"/>
	</clipPath>
	<g style="clip-path:url(#SVGID_00000114038113770012169640000001024759866317173400_);">
		<path class="st3" d="M148.3,0.2h88.5c7.4,0,13.4,6,13.4,13.4v178.8c0,7.4-6,13.5-13.4,13.5h-88.5c-7.4,0-13.4-6-13.4-13.5V13.7
			C134.9,6.3,140.9,0.2,148.3,0.2"/>
	</g>
</g>
<path class="st5" d="M134.9,135.7c-0.1,0-0.2-0.1-0.2-0.2V82.1c0-0.1,0.1-0.2,0.2-0.2s0.2,0.1,0.2,0.2v53.3
	C135.2,135.5,135,135.7,134.9,135.7"/>
<g>
	<defs>
		<rect id="SVGID_00000047037351645850942690000002843068230911142788_" x="133.3" width="117.3" height="206"/>
	</defs>
	<clipPath id="SVGID_00000117666121454469621720000016495401331571093917_">
		<use xlink:href="#SVGID_00000047037351645850942690000002843068230911142788_"  style="overflow:visible;"/>
	</clipPath>
	<g style="clip-path:url(#SVGID_00000117666121454469621720000016495401331571093917_);">
		<path d="M236.7,206.2h-88.2c-7.6,0-13.8-6.2-13.8-13.8v-57c0-0.1,0.1-0.2,0.2-0.2s0.2,0.1,0.2,0.2v57c0,7.4,6,13.3,13.3,13.3h88.2
			c7.3,0,13.3-6,13.3-13.3V13.8c0-7.4-6-13.4-13.3-13.4h-88.2c-7.3,0-13.3,6-13.3,13.4v68.3c0,0.1-0.1,0.2-0.2,0.2s-0.2-0.1-0.2-0.2
			V13.8c0-7.6,6.2-13.8,13.8-13.8h88.2c7.6,0,13.8,6.2,13.8,13.8v178.5C250.5,200,244.3,206.2,236.7,206.2"/>
	</g>
</g>
<path d="M200.9,5.8h-22.6c-0.1,0-0.2-0.1-0.2-0.2c0-0.1,0.1-0.2,0.2-0.2h22.6c0.1,0,0.2,0.1,0.2,0.2C201.2,5.7,201.1,5.8,200.9,5.8"
	/>
<path d="M239,137.1h-37.3c-0.1,0-0.2-0.1-0.2-0.2c0-0.1,0.1-0.2,0.2-0.2H239c0.1,0,0.2,0.1,0.2,0.2C239.3,137,239.2,137.1,239,137.1
	"/>
<path d="M231.7,148h-37.3c-0.1,0-0.2-0.1-0.2-0.2c0-0.1,0.1-0.2,0.2-0.2h37.3c0.1,0,0.2,0.1,0.2,0.2
	C231.9,147.8,231.8,148,231.7,148"/>
<path d="M240,158.8h-37.3c-0.1,0-0.2-0.1-0.2-0.2c0-0.1,0.1-0.2,0.2-0.2H240c0.1,0,0.2,0.1,0.2,0.2
	C240.2,158.7,240.1,158.8,240,158.8"/>
<path d="M204.9,4.1c-0.8,0-1.4,0.6-1.4,1.4c0,0.8,0.6,1.4,1.4,1.4s1.4-0.6,1.4-1.4C206.4,4.8,205.7,4.1,204.9,4.1z M204.9,7.5
	c-1.1,0-1.9-0.9-1.9-1.9s0.9-1.9,1.9-1.9c1.1,0,1.9,0.9,1.9,1.9S206,7.5,204.9,7.5"/>
<path class="st1" d="M190.4,33.1c-0.1,0-0.1,0-0.2-0.1c-0.1-0.1-0.1-0.3,0-0.3c2.8-2.8,6.2-5,9.9-6.4c0.1,0,0.3,0,0.3,0.1
	c0,0.1,0,0.3-0.1,0.3c-3.6,1.3-7,3.5-9.7,6.2C190.5,33.1,190.5,33.1,190.4,33.1"/>
<path d="M209.3,78.5c-14.8,0-26.8-12.1-26.8-26.9c0-7.1,2.8-13.8,7.7-18.9c0.1-0.1,0.2-0.1,0.3,0c0.1,0.1,0.1,0.3,0,0.4
	c-4.9,5-7.6,11.6-7.6,18.6c0,14.5,11.8,26.4,26.3,26.4s26.3-11.8,26.3-26.4c0-14.6-11.8-26.4-26.3-26.4c-3.1,0-6.2,0.5-9.1,1.6
	c-0.1,0-0.3,0-0.3-0.2s0-0.3,0.1-0.3c2.9-1.1,6.1-1.6,9.2-1.6c14.8,0,26.8,12.1,26.8,26.9C236.1,66.4,224.1,78.5,209.3,78.5"/>
<path d="M242.2,47.8l-32.8,15l-32.9-15l32.9-15L242.2,47.8"/>
<path d="M224.1,68.9l-29.5,0l0-18.6l29.5,0L224.1,68.9"/>
<path class="st7" d="M246.1,68.5h-7.5l3.4-15.6L246.1,68.5"/>
<path d="M246.4,68.7h-7.7c-0.1,0-0.2-0.1-0.2-0.2c0-0.1,0.1-0.2,0.2-0.2h7.1l-4-15.3v-5.2c0-0.1,0.1-0.2,0.2-0.2s0.2,0.1,0.2,0.2
	v5.1L246.4,68.7"/>
<path d="M245.3,65.5l-6.7,3h7.5L245.3,65.5"/>
<path class="st3" d="M194.5,52.8c-0.1,0-0.2-0.1-0.2-0.2l0-2.6l30,0l0,2.6c0,0.1-0.1,0.2-0.2,0.2c-0.1,0-0.2-0.1-0.2-0.2l0-2.1
	l-29,0l0,2.1C194.8,52.7,194.7,52.8,194.5,52.8"/>
<path class="st5" d="M99.7,19.7h66.4c-1.7-4.2-4.9-7.6-9.1-9.4c-4.3-1.9-9-2-13.3-0.2c-0.1,0-0.2,0-0.3-0.1c-2.8-5-8.1-7.6-13.8-6.6
	c-5.7,1-9.9,5.1-10.9,10.7c0,0.1-0.1,0.1-0.1,0.2c-0.1,0-0.1,0-0.2,0C111.6,12.1,104.2,14.3,99.7,19.7z M166.4,20.2H99.2
	c-0.1,0-0.2-0.1-0.2-0.1c0-0.1,0-0.2,0-0.3c4.5-5.8,12.2-8.2,19.2-6.1c1.2-5.7,5.5-9.9,11.3-10.9c5.8-1,11.3,1.6,14.2,6.7
	c4.4-1.7,9.2-1.6,13.5,0.3c4.4,1.9,7.8,5.5,9.5,10c0,0.1,0,0.2,0,0.2C166.6,20.1,166.5,20.2,166.4,20.2"/>
<path class="st5" d="M102.7,29.5c-0.1,0-0.2,0-0.3,0c-1.3,0.2-2.3,1.4-2.1,2.7c0.2,1.3,1.4,2.3,2.7,2.1c0.6-0.1,1.2-0.4,1.6-0.9
	s0.6-1.2,0.5-1.8s-0.4-1.2-0.9-1.6C103.8,29.6,103.2,29.5,102.7,29.5z M102.7,34.8c-1.4,0-2.7-1.1-2.9-2.5c-0.2-1.6,0.9-3.1,2.5-3.3
	c0.8-0.1,1.5,0.1,2.2,0.6c0.6,0.5,1,1.2,1.1,1.9c0.1,0.8-0.1,1.5-0.6,2.2c-0.5,0.6-1.2,1-1.9,1.1C103,34.8,102.8,34.8,102.7,34.8"/>
<path class="st5" d="M113.4,22.8c-0.2,0-0.4,0-0.6,0c-2.2,0.3-3.8,2.4-3.5,4.6c0.3,2.2,2.4,3.8,4.6,3.5c2.2-0.3,3.8-2.4,3.5-4.6
	C117.2,24.3,115.4,22.8,113.4,22.8z M114,31.2L114,31.2L114,31.2z M113.4,31.5c-2.3,0-4.2-1.7-4.6-4c-0.3-2.5,1.4-4.8,3.9-5.2
	c2.5-0.3,4.8,1.4,5.2,3.9c0.3,2.5-1.4,4.8-3.9,5.2C113.8,31.5,113.6,31.5,113.4,31.5"/>
<g>
	<defs>
		<rect id="SVGID_00000162354444153823323380000015726382965079472043_" x="54.4" y="120" width="40.3" height="1.3"/>
	</defs>
	<clipPath id="SVGID_00000172438815802836608390000013282586938823867576_">
		<use xlink:href="#SVGID_00000162354444153823323380000015726382965079472043_"  style="overflow:visible;"/>
	</clipPath>
	<g style="clip-path:url(#SVGID_00000172438815802836608390000013282586938823867576_);">
		<path d="M94,121.3H54.7c-0.1,0-0.2-0.1-0.2-0.2s0.1-0.2,0.2-0.2H94c0.1,0,0.2,0.1,0.2,0.2S94.1,121.3,94,121.3"/>
	</g>
</g>
<path d="M92.7,31.9v6.9c0,2.5-2.1,4.6-4.6,4.6H86l-6.4,1.3v-2.1c0-2.3,1.2-4.4,3.2-5.4L92.7,31.9"/>
<path class="st5" d="M80.6,54.1h6v-7.5h-6V54.1"/>
<path d="M80.6,48.8v-2.3h6v5c-0.5,0.1-1.6,0.2-2.8-0.2C81.7,50.8,80.8,49.2,80.6,48.8"/>
<path class="st5" d="M79.6,44.9c0,2.9,2.1,5.2,4.7,5.2c2.6,0,4.7-2.3,4.7-5.2c0-2.9-2.1-5.2-4.7-5.2C81.8,39.7,79.6,42,79.6,44.9"/>
<path d="M84.4,50.4c-1.5,0-2.5-0.3-3.8-1.6c-0.1-0.1-0.1-0.3,0-0.4c0.1-0.1,0.3-0.1,0.3,0c1.1,1.2,2,1.5,3.4,1.5
	c2.5,0,4.5-2.2,4.5-5c0-2.8-2-5-4.5-5c-1.6,0-3,0.9-3.8,2.4c-0.1,0.1-0.2,0.2-0.3,0.1c-0.1-0.1-0.2-0.2-0.1-0.3
	c0.9-1.7,2.5-2.7,4.3-2.7c2.7,0,5,2.5,5,5.5C89.3,47.9,87.1,50.4,84.4,50.4"/>
<path d="M84.4,39.7c-2.6,0-4.7,2.3-4.7,5.2c0,0.3,0,0.5,0.1,0.8l3.1-2.3h6.2C88.3,41.2,86.5,39.7,84.4,39.7"/>
<path class="st3" d="M82.9,47.3c0.4,0.4,0.9,0.6,1.5,0.7c1.3,0.1,2.4-0.7,2.7-1.9L82.9,47.3"/>
<path class="st9" d="M107.3,126.7l8.4,12.1L91.2,156l-8.4-12.1L107.3,126.7"/>
<path class="st10" d="M105,146.3l-13-8.9l15.3-10.7l8.4,12.1L105,146.3"/>
<path class="st10" d="M90.7,138.2l8.4,12.1l-8,5.6l-8.4-12.1L90.7,138.2"/>
<path class="st7" d="M86.7,140l-0.4,0c-4.2-0.3-6.4,1.4-11,3l4.8,17.9l14.6,21.5l4.7,2.2l2.2-3.3l-4.3-14.5l-0.5-11.7l1.3-3.4
	l-1.6-2.2l-3.1-0.7l-2.2,1.5c-2.8-1.2-3.6-1.2-4.4-2.3c0,0-1.4-1.7-0.1-3.4l1.3-1.8C88.8,141.6,88,140.1,86.7,140"/>
<path class="st10" d="M99.3,184.5l-5.9-5.8l-11.9-17.9L75.3,143l-3.4-0.8l-5.5,2.5l1.5,7.5c0,0,2.9,4.1,6.5,9.4l2.1,0.4l1.4,2
	l-0.4,2.2c5.7,8.2,11.9,17.1,11.9,17.1l5.8,3.1l2-0.3L99.3,184.5"/>
<path d="M86.2,133.2c-0.1,0-0.3,0-0.4,0c-0.5,0.1-1,0.4-1.2,0.8c-0.5,0.7-1.1,3.9-1.4,5.6c1.5-0.9,4.2-2.7,4.6-3.4
	c0.3-0.4,0.4-1,0.3-1.5c-0.1-0.5-0.4-1-0.8-1.2C87,133.3,86.6,133.2,86.2,133.2z M82.6,140.7l0.1-0.5c0-0.2,0.8-5.3,1.5-6.4
	c0.4-0.5,0.9-0.9,1.6-1.1c0.6-0.1,1.3,0,1.8,0.4c0.5,0.4,0.9,0.9,1,1.6c0.1,0.6,0,1.3-0.4,1.8c-0.7,1.1-5.1,3.8-5.2,3.9L82.6,140.7"
	/>
<path d="M96.8,158C96.8,158,96.7,158,96.8,158l-3.3-1.2c-0.1,0-0.2-0.2-0.1-0.3c0-0.1,0.2-0.2,0.3-0.1l3.3,1.2
	c0.1,0,0.2,0.2,0.1,0.3C97,157.9,96.9,158,96.8,158"/>
<path d="M96.9,160.9C96.8,160.9,96.8,160.9,96.9,160.9l-3.3-1.2c-0.1,0-0.2-0.2-0.1-0.3c0.1-0.1,0.2-0.2,0.3-0.1l3.3,1.2
	c0.1,0,0.2,0.2,0.1,0.3C97.1,160.9,97,160.9,96.9,160.9"/>
<path d="M96.9,163.9C96.9,163.9,96.8,163.9,96.9,163.9l-3.3-1.2c-0.1,0-0.2-0.2-0.1-0.3c0-0.1,0.2-0.2,0.3-0.1l3.3,1.2
	c0.1,0,0.2,0.2,0.1,0.3C97.1,163.9,97,163.9,96.9,163.9"/>
<path class="st1" d="M162.4,81.2l-60.8,14.1l4.6,21.4l17.8-4.9l-26.3,18.4l12.4,17.8l62.7-43.8c5.5-3.9,6.9-11.5,3-17l-0.7-1
	C172.3,82,167.2,80.1,162.4,81.2"/>
<path d="M110.5,126.7c2.5-1.7,4.4-3.7,9.5-4c6.4-0.3,15.3,0.3,19.7-3.7h-26.1l-12.9,9.1C106.7,128.4,109.5,127.4,110.5,126.7"/>
<path class="st9" d="M151.7,162.5l12.7-4.8l10.1,26.9l-12.7,4.8L151.7,162.5"/>
<path class="st10" d="M170,172.8l-11.9,6.9l-6.4-17.2l12.7-4.8L170,172.8"/>
<path class="st10" d="M158.7,181.2l12.7-4.8l3.1,8.2l-12.7,4.8L158.7,181.2"/>
<path class="st7" d="M158.2,196.6c-0.4-4.8-1.4-7.4-0.2-11.3l0.1-0.3c0.4-1.3,2-1.6,2.9-0.5l1.4,1.7c1.3,1.7,3.3,0.7,3.3,0.7
	c1.2-0.4,1.4-1.3,3.2-3.6l-0.9-2.5l1.4-2.8l2.5-0.9l2.9,2.1l11.4,1.8l9.8-4.3l3.8,1l-0.7,5l-10.9,12l-11.8,1.8L158.2,196.6"/>
<path d="M159.7,184.1c-0.1,0-0.2,0-0.3,0c-0.5,0.1-0.9,0.5-1.1,1l-0.1,0.3c-0.9,2.7-0.6,4.8-0.2,7.5c0.1,1,0.3,2.2,0.4,3.4l17.9-0.2
	l11.6-1.8l10.8-11.9l0.7-4.7l-3.5-1l-9.8,4.3l-11.5-1.8l-2.9-2.1l-2.3,0.9l-1.3,2.6l0.9,2.5l-0.1,0.1c-0.6,0.8-1,1.4-1.4,1.8
	c-0.7,1-1.1,1.5-2,1.9l0,0c-0.5,0.2-2.3,0.8-3.6-0.8l-1.4-1.7C160.5,184.2,160.2,184.1,159.7,184.1z M158,196.8l0-0.2
	c-0.1-1.4-0.3-2.6-0.4-3.6c-0.4-2.7-0.7-4.9,0.2-7.7l0.1-0.3c0.2-0.7,0.8-1.2,1.5-1.3c0.7-0.1,1.4,0.1,1.8,0.7l1.4,1.7
	c1,1.3,2.4,0.9,3,0.7c0,0,0,0,0,0c0.7-0.3,1-0.7,1.7-1.7c0.3-0.5,0.7-1,1.3-1.7l-0.9-2.4l1.5-3l2.7-1l3,2.1l11.2,1.7l9.8-4.3
	l4.1,1.1l-0.8,5.2l-11,12.2l-11.9,1.8L158,196.8"/>
<g>
	<defs>
		<rect id="SVGID_00000093161578347874379490000013617159957786899849_" x="156" y="177.3" width="46.7" height="28.7"/>
	</defs>
	<clipPath id="SVGID_00000173851264537181909460000004892285422745886391_">
		<use xlink:href="#SVGID_00000093161578347874379490000013617159957786899849_"  style="overflow:visible;"/>
	</clipPath>
	<g style="clip-path:url(#SVGID_00000173851264537181909460000004892285422745886391_);">
		<path class="st10" d="M156.6,199.7l1.6-3.1l18.5-1.6l12.4-3.9l6.3-6.6l4.3-6.9l1.9,1.7l0.7,1.9l-1.7,6.2c0,0-2.2,2.5-6.7,7.4
			c0,0-10.4,4.3-13.1,5.3l-2-0.9l-2.2,0.8l-0.9,1.9c-5.9,2.2-10.5,4-10.5,4h-7.4L156.6,199.7"/>
	</g>
</g>
<path d="M153.5,182.3c-0.5,0-0.9,0.2-1.3,0.5c-0.4,0.3-0.6,0.8-0.6,1.3c0,0.5,0.2,1,0.5,1.4c0.6,0.6,3.4,2,5,2.7
	c-0.5-1.6-1.6-4.6-2.2-5.2C154.5,182.6,154,182.3,153.5,182.3z M157.8,189.1l-0.5-0.2c-0.2-0.1-4.8-2.1-5.7-3
	c-0.4-0.5-0.7-1.1-0.6-1.7c0-0.6,0.3-1.2,0.8-1.7c1-0.9,2.5-0.8,3.4,0.2c0.8,0.9,2.4,5.8,2.4,6L157.8,189.1"/>
<path d="M175.5,182.7c-0.1,0-0.1,0-0.1,0c-0.1-0.1-0.1-0.2-0.1-0.3l1.9-2.8c0.1-0.1,0.2-0.1,0.3-0.1c0.1,0.1,0.1,0.2,0.1,0.3
	l-1.9,2.8C175.7,182.7,175.6,182.7,175.5,182.7"/>
<path d="M178.4,183.4c0,0-0.1,0-0.1,0c-0.1-0.1-0.1-0.2-0.1-0.3l1.9-2.8c0.1-0.1,0.2-0.1,0.3-0.1c0.1,0.1,0.1,0.2,0.1,0.3l-2,2.8
	C178.5,183.3,178.4,183.4,178.4,183.4"/>
<path d="M181.2,184c0,0-0.1,0-0.1,0c-0.1-0.1-0.1-0.2-0.1-0.3l1.9-2.8c0.1-0.1,0.2-0.1,0.3-0.1c0.1,0.1,0.1,0.2,0.1,0.3l-1.9,2.8
	C181.4,184,181.3,184,181.2,184"/>
<path class="st1" d="M174.4,169.9l-17.6-48.8v0l-5.1-13.9c-2.1-5.9-7.7-9.8-13.9-9.8H75.1v7c0,9.2,7.5,16.7,16.7,16.7h38l20.7,57.5
	L174.4,169.9"/>
<path class="st12" d="M137.8,97.4h-2.6c0.6,8.2,7.4,14.7,15.8,14.7c0.9,0,1.7-0.1,2.5-0.2l-1.7-4.8C149.6,101.3,144,97.4,137.8,97.4
	"/>
<path d="M109.1,99.7H75.1v4.6c0,1.5,0.2,3,0.6,4.4c1.5-0.2,3.2-0.6,4.3-1.3c2.5-1.7,4.4-3.7,9.5-4C95.8,103,104.7,103.7,109.1,99.7"
	/>
<path d="M75.3,97.6v6.7c0,9.1,7.4,16.5,16.5,16.5h38.1l0.1,0.2l20.6,57.2l23.4-8.5l-17.5-48.6l-5.1-13.9c-2.1-5.7-7.6-9.6-13.7-9.6
	H75.3z M150.3,178.8l-20.7-57.5H91.8c-9.3,0-17-7.6-17-17v-7.2h63c6.3,0,12,4,14.1,9.9L157,121l17.7,49L150.3,178.8"/>
<path class="st5" d="M159.4,39.5c-0.5-0.9-1.7-1.3-2.7-0.8l-3.2,1.7l-0.1-0.2c-0.6-1-1.8-1.4-2.8-0.9l-6.3,2.6
	c-1.5,0.7-3.2,0.9-4.9,0.7l-3.2-0.5l3-6.1c0.5-0.9,0.1-2.1-0.8-2.6l-0.2-0.1c-0.9-0.5-2-0.2-2.6,0.8l-1,1.8c-0.9,1.6-2,3-3.3,4.3
	c-1.1,1.1-2.4,2.5-3,3.2c-2.5,3-0.5,6-0.5,6l-11.9,16.5l-6.1-4.8L102,71.7l11.2,8.3c2.4,1.8,5.8,1.3,7.5-1.2L137,56.4l21.8-14.2
	C159.6,41.6,159.9,40.4,159.4,39.5"/>
<path d="M102.3,71.7l11,8.2c1.1,0.8,2.5,1.2,3.8,0.9c1.3-0.2,2.5-0.9,3.3-2l16.3-22.5l21.8-14.3c0.8-0.5,1-1.5,0.6-2.3
	c-0.5-0.8-1.5-1.1-2.3-0.7l-3.4,1.8l-0.2-0.4c-0.5-0.9-1.6-1.2-2.5-0.8l-6.3,2.6c-1.6,0.7-3.3,0.9-5,0.7l-3.6-0.5L139,36
	c0.4-0.8,0.1-1.8-0.7-2.2l-0.2-0.1c-0.8-0.4-1.8-0.1-2.2,0.7l-1,1.8c-0.9,1.6-2,3-3.3,4.3c-1.5,1.5-2.5,2.6-3,3.1
	c-2.3,2.8-0.5,5.7-0.5,5.7l0.1,0.1L116,66.2l-6.1-4.8L102.3,71.7z M116.3,81.3c-1.2,0-2.3-0.4-3.3-1.1l-11.4-8.4l8.2-11l6.1,4.8
	l11.6-16.2c-0.4-0.7-1.6-3.4,0.6-6.2c0.6-0.7,2-2.1,3-3.2c1.2-1.3,2.3-2.7,3.2-4.2l1-1.8c0.6-1,1.9-1.4,2.9-0.8l0.2,0.1
	c1,0.5,1.5,1.8,0.9,2.9l-2.8,5.8l2.9,0.4c1.6,0.2,3.3,0,4.8-0.7l6.3-2.6c1.1-0.5,2.5,0,3.1,1l3-1.6c1.1-0.5,2.4-0.1,3,0.9
	c0.6,1,0.2,2.3-0.7,3l-21.8,14.2L120.8,79c-0.9,1.2-2.2,2-3.7,2.2C116.9,81.3,116.6,81.3,116.3,81.3"/>
<path class="st5" d="M139.5,49l1.6-1.2c1-0.7,1.8-1.8,2.2-2.9l2.4-6.4c0.3-0.9,1.4-1.4,2.3-1.1c0.9,0.3,1.4,1.2,1.1,2.2l-2,7.4
	c-0.2,0.6-0.4,1.2-0.8,1.6l-2,2.6L139.5,49"/>
<path class="st5" d="M143.6,45.8l1.7-0.9c1.1-0.6,2-1.4,2.7-2.5l3.4-5.9c0.5-0.9,1.6-1.2,2.4-0.7c0.8,0.5,1.1,1.5,0.8,2.3l-3.2,7
	c-0.3,0.6-0.6,1.1-1.1,1.5l-2.4,2.3L143.6,45.8"/>
<path d="M150.4,46.8c-0.1,0-0.1,0-0.2-0.1c-0.1-0.1-0.1-0.3,0-0.3c0.4-0.4,0.8-0.9,1-1.4l3.2-7c0.3-0.7,0-1.6-0.7-2
	c-0.7-0.4-1.7-0.1-2.1,0.6l-2.6,4.6c-0.1,0.1-0.2,0.2-0.3,0.1c-0.1-0.1-0.2-0.2-0.1-0.3l2.6-4.6c0.6-1,1.8-1.3,2.8-0.8
	c0.9,0.5,1.3,1.7,0.9,2.6l-3.2,7c-0.3,0.6-0.7,1.1-1.1,1.6C150.5,46.8,150.4,46.8,150.4,46.8"/>
<path d="M137.7,50.2c-0.1,0-0.2,0-0.2-0.1c-0.1-0.1,0-0.3,0.1-0.3l3.4-2.1c1-0.7,1.7-1.7,2.1-2.8l2.4-6.4c0.4-1,1.5-1.6,2.6-1.2
	c1,0.4,1.6,1.4,1.3,2.5l-1.5,6.5c-0.3,1.5-1.2,2.5-2.1,3.7l-0.1,0.1c-0.1,0.1-0.2,0.1-0.3,0c-0.1-0.1-0.1-0.2,0-0.3l0.1-0.1
	c0.9-1.1,1.7-2.1,2-3.5l1.5-6.5c0.2-0.8-0.2-1.6-1-1.9c-0.8-0.3-1.7,0.1-2,0.9l-2.4,6.4c-0.4,1.2-1.2,2.3-2.3,3l-3.4,2.2
	C137.8,50.2,137.8,50.2,137.7,50.2"/>
<path d="M134.9,45c0,0-0.1,0-0.1,0c-0.1-0.1-0.2-0.2-0.1-0.3L136,42c0.1-0.1,0.2-0.2,0.3-0.1c0.1,0.1,0.2,0.2,0.1,0.3l-1.3,2.7
	C135.1,45,135,45,134.9,45"/>
<g>
	<defs>
		<rect id="SVGID_00000141419759320913083710000000171074882842870404_" x="54.4" y="53.3" width="18.9" height="25.3"/>
	</defs>
	<clipPath id="SVGID_00000155837359188599118820000003664744651543587503_">
		<use xlink:href="#SVGID_00000141419759320913083710000000171074882842870404_"  style="overflow:visible;"/>
	</clipPath>
	<g style="clip-path:url(#SVGID_00000155837359188599118820000003664744651543587503_);">
		<path class="st7" d="M73,54.1h-2.3c-6.4,0-12,4.4-13.4,10.7l-2.9,12.6H73V54.1"/>
	</g>
</g>
<path class="st7" d="M98.6,54.1H88v18.3h15l10-11l-5.9-4.4C104.6,55.1,101.6,54.1,98.6,54.1"/>
<path class="st7" d="M99.3,54.1H70.1v46.6h41.8L99.3,54.1"/>
<path d="M124,97.1h38.4L184,68.4h-38.4L124,97.1z M162.6,97.6H123l22.4-29.7H185L162.6,97.6"/>
<path d="M102.1,100.5h60.1v-2.9h-60.1V100.5z M162.7,101h-61.1v-3.9h61.1V101"/>
<path d="M153.7,81.3c-1,0-1.9,0.8-1.9,1.9c0,1,0.8,1.9,1.9,1.9s1.9-0.8,1.9-1.9C155.5,82.1,154.7,81.3,153.7,81.3z M153.7,85.6
	c-1.3,0-2.4-1.1-2.4-2.4s1.1-2.4,2.4-2.4s2.4,1.1,2.4,2.4S155,85.6,153.7,85.6"/>
<path class="st5" d="M56.6,89.5V77.6h13.6v5.2c0,1.4,1.2,2.6,2.6,2.6l22.3,0v12.2l-30.4,0C60.2,97.6,56.6,94,56.6,89.5"/>
<path d="M56.6,84.9v-7.4h13.6v4.3c-0.9,0-2.1-0.1-3.1-0.4c-1.4-0.4-2.9-0.7-4.2,1.2C61,85.2,58.6,85.5,56.6,84.9"/>
<path class="st5" d="M108.5,89.2l1.3,1.4c0.7,0.7,0.7,1.8,0.2,2.6l-1.3,1.8l-3.2-3.5H85.7v-4.2h18.6C105.9,87.4,107.4,88,108.5,89.2
	"/>
<path class="st5" d="M107.8,86.6l0.8,0.8c0.7,0.7,0.7,1.8,0.2,2.6l-1.3,1.8l-3.2-3.5H85.7v-2.9h3.2c1.3,0,3.6-1.3,6.6-1.3h6.9
	C104.4,84.2,106.4,85,107.8,86.6"/>
<path d="M109.9,93.5c0,0-0.1,0-0.1,0c-0.1-0.1-0.1-0.2-0.1-0.3c0.5-0.7,0.4-1.7-0.1-2.3l-1.3-1.4c-1-1.1-2.5-1.7-4-1.7h-3.7
	c-0.1,0-0.2-0.1-0.2-0.2c0-0.1,0.1-0.2,0.2-0.2h3.7c1.6,0,3.2,0.7,4.3,1.9l1.3,1.4c0.8,0.8,0.8,2,0.2,2.9
	C110.1,93.5,110,93.5,109.9,93.5"/>
<path class="st5" d="M108.9,92l1.6,1.7c0.7,0.7,0.7,1.8,0.2,2.6l-1.3,1.8l-3.2-3.5H93.9v-4.2h11.5C106.8,90.4,108,91,108.9,92"/>
<path d="M110.2,97.3c-0.1,0-0.1,0-0.1,0c-0.1-0.1-0.1-0.2-0.1-0.3l0.5-0.7c0.5-0.7,0.4-1.7-0.1-2.3l-1.6-1.7
	c-0.8-0.9-2.1-1.4-3.3-1.4h-4.8c-0.1,0-0.2-0.1-0.2-0.2c0-0.1,0.1-0.2,0.2-0.2h4.8c1.4,0,2.7,0.6,3.7,1.6l1.6,1.7
	c0.8,0.8,0.8,2,0.2,2.9l-0.5,0.7C110.3,97.2,110.2,97.3,110.2,97.3"/>
<path class="st5" d="M108.3,95l1.7,1.8c0.6,0.7,0.7,1.7,0.1,2.4c-0.7,1-2.2,1.1-3,0.2l-0.9-1c-0.4-0.5-1-0.8-1.7-0.8H94.3
	c-2.7,0-4.6-0.2-7.2-4.2l17.7,0C106.1,93.4,107.4,94,108.3,95"/>
<path d="M108.6,100.2c-0.6,0-1.2-0.3-1.6-0.7l-0.9-1c-0.4-0.4-0.9-0.7-1.5-0.7H93.2c-2.1,0-4-1-5.2-2.7c-0.1-0.1,0-0.3,0.1-0.3
	c0.1-0.1,0.3,0,0.3,0.1c1.1,1.6,2.8,2.5,4.7,2.5h11.4c0.7,0,1.4,0.3,1.9,0.8l0.9,1c0.3,0.4,0.8,0.6,1.3,0.5c0.5,0,1-0.3,1.3-0.7
	c0.5-0.6,0.4-1.5-0.1-2.1l-1.7-1.8c-0.9-0.9-2.1-1.5-3.4-1.5h-4c-0.1,0-0.2-0.1-0.2-0.2c0-0.1,0.1-0.2,0.2-0.2h4
	c1.4,0,2.8,0.6,3.7,1.6l1.7,1.8c0.7,0.8,0.8,1.9,0.2,2.7c-0.4,0.5-1,0.9-1.6,0.9C108.7,100.2,108.6,100.2,108.6,100.2"/>
<path d="M64.7,97.9c-2.2,0-4.3-0.9-5.9-2.4c-1.6-1.6-2.4-3.7-2.4-5.9V77.3h14.1v5.4c0,0.6,0.2,1.2,0.7,1.7c0.4,0.4,1,0.7,1.7,0.7
	c0,0,0,0,0,0h15.5c1.2,0,2.1-0.3,3.1-0.5c1.2-0.3,2.5-0.7,4.6-0.7h6.4c2.2,0,4.3,0.9,5.8,2.5l0.8,0.8c0.6,0.7,0.8,1.7,0.4,2.6
	c-0.1,0.1-0.2,0.2-0.3,0.1c-0.1-0.1-0.2-0.2-0.1-0.3c0.3-0.7,0.2-1.5-0.3-2l-0.8-0.8c-1.4-1.5-3.3-2.4-5.4-2.4h-6.4
	c-2,0-3.2,0.3-4.4,0.7c-1,0.3-2,0.5-3.2,0.5H72.8h0c-0.8,0-1.5-0.3-2-0.8c-0.5-0.5-0.8-1.3-0.8-2v-4.9H56.8v11.7
	c0,2.1,0.8,4.1,2.3,5.5c1.5,1.5,3.4,2.3,5.5,2.3h32.5c0.1,0,0.2,0.1,0.2,0.2c0,0.1-0.1,0.2-0.2,0.2H64.7"/>
<path class="st5" d="M152.4,32.4h51.9c-1.3-3.3-3.8-5.9-7.1-7.3c-3.3-1.5-7.1-1.5-10.4-0.2c-0.1,0-0.2,0-0.3-0.1
	c-2.6-4.7-7.3-5.8-10.8-5.2c-4.4,0.7-7.7,4-8.5,8.4c0,0.1-0.1,0.1-0.1,0.2c-0.1,0-0.1,0-0.2,0C161.7,26.6,155.9,28.3,152.4,32.4z
	 M204.7,32.9h-52.8c-0.1,0-0.2-0.1-0.2-0.1c0-0.1,0-0.2,0-0.3c3.5-4.6,9.6-6.5,15.1-4.8c0.9-4.5,4.3-7.8,8.9-8.5
	c4.6-0.8,8.9,1.2,11.2,5.2c3.5-1.3,7.2-1.2,10.6,0.2c3.5,1.5,6.1,4.3,7.5,7.9c0,0.1,0,0.2,0,0.2C204.8,32.9,204.8,32.9,204.7,32.9"
	/>
<path class="st5" d="M205.5,19.7h35.6c-0.9-2.2-2.6-3.9-4.8-4.9c-2.3-1-4.8-1-7.2-0.1c-0.1,0-0.2,0-0.3-0.1c-1.8-3.2-5-3.9-7.4-3.5
	c-2.4,0.4-5.2,2.1-5.8,5.7c0,0.1-0.1,0.1-0.1,0.2c-0.1,0-0.1,0-0.2,0C211.8,15.8,207.9,16.9,205.5,19.7z M241.4,20.2H205
	c-0.1,0-0.2-0.1-0.2-0.1c0-0.1,0-0.2,0-0.3c2.4-3.2,6.6-4.5,10.4-3.4c0.7-3.1,3-5.3,6.2-5.9c3.2-0.5,6.1,0.8,7.8,3.6
	c2.4-0.9,5-0.8,7.3,0.2c2.4,1.1,4.3,3,5.2,5.5c0,0.1,0,0.2,0,0.2C241.6,20.1,241.5,20.2,241.4,20.2"/>
</svg>
