<?xml version="1.0" encoding="UTF-8"?>
<svg xmlns="http://www.w3.org/2000/svg" width="300" height="100" viewBox="0 0 300 100" fill="none">
  <g clip-path="url(#clip0)">
    <path d="M235.7 43.228L235.202 49.2105H232.759C228.858 49.2105 226.83 52.3375 226.83 55.3342V68.8461H219.917V43.228H226.465L226.614 46.4255C227.988 44.2328 230.392 43.228 233.357 43.228H235.7ZM187.768 68.8458H180.848V55.3029C180.848 52.4667 180.603 48.8971 176.614 48.8971C172.772 48.8971 171.242 51.6697 171.242 54.8982V68.8458H164.324V43.2277H170.738L170.884 46.5028C172.259 44.3101 174.819 42.6028 178.596 42.6028C185.568 42.6028 187.768 47.5805 187.768 52.7606V68.8458ZM161.307 62.8615L160.823 68.6905C159.164 69.1356 157.691 69.2953 155.908 69.2953C149.388 69.2953 147.497 66.3056 147.497 60.2967V36.0036H154.416V43.2283H161.302L160.823 49.21H154.416V59.7764C154.416 62.1877 155.078 63.4903 157.551 63.4903C158.627 63.4903 159.823 63.3608 161.307 62.8615ZM145.225 43.228L144.69 49.2105H142.809C138.916 49.2105 136.98 52.3336 136.98 55.3342V68.8461H130.06V43.228H136.612L136.749 46.4255C138.13 44.2328 140.535 43.228 143.503 43.228H145.225ZM98.8356 66.0077C94.1424 68.5182 89.4547 69.9666 83.2628 69.7867C71.7839 69.4362 63.5024 62.3085 63.5024 50.269C63.5024 38.2822 71.8637 30.6234 83.2683 30.4435C89.0492 30.3551 94.2223 31.8221 98.2657 35.3902L93.395 40.3175C90.893 38.1845 87.2116 36.9378 82.8123 37.137C75.635 37.4712 71.3101 42.6869 71.2148 49.8581C71.1209 57.6278 75.8854 62.9823 83.3334 63.1777C86.8379 63.2653 89.3485 62.7947 91.521 61.8193V53.8775H83.78L84.3026 47.3638H98.8356V66.0077ZM216.827 58.4715H197.856C198.397 61.745 200.97 63.7144 204.175 63.8035C207.29 63.888 209.033 62.9468 211.312 60.6394L215.826 64.0819C212.618 68.0338 208.768 69.4721 204.382 69.4721C196.667 69.4721 190.887 64.078 190.887 56.0361C190.887 48.0028 196.638 42.6026 204.093 42.6026C212.309 42.6026 216.827 47.5803 216.827 56.4161V58.4715ZM209.895 53.1154C209.683 49.8792 207.258 47.833 203.919 47.9633C200.558 48.0905 198.32 50.2792 197.856 53.1154H209.895ZM125.704 52.0704V68.8457H119.604L119.453 66.3197C117.581 68.638 114.543 69.4722 111.414 69.4722C106.703 69.4722 102.252 67.1493 102.159 61.739C102.019 53.235 111.73 52.631 117.829 52.631H119.047V52.2945C119.047 49.4824 117.187 47.9635 113.683 47.9635C111.168 47.9635 108.685 48.9722 106.849 50.6934L102.857 46.6376C106.481 43.6991 110.253 42.6027 114.27 42.6027C122.206 42.6027 125.704 46.2701 125.704 52.0704ZM119.047 57.6738H118.085C114.809 57.6808 109.056 57.8421 109.077 61.2676C109.108 66.0933 119.047 64.5597 119.047 58.7399V57.6738ZM230.303 65.8658C230.303 64.2353 231.533 63.0063 233.111 63.0063C234.67 63.0063 235.902 64.2353 235.902 65.8658C235.902 67.525 234.67 68.7501 233.111 68.7501C231.533 68.7501 230.303 67.525 230.303 65.8658ZM233.111 69.323C234.99 69.323 236.592 67.8639 236.592 65.8658C236.592 63.8879 234.99 62.4318 233.111 62.4318C231.215 62.4318 229.611 63.8879 229.611 65.8658C229.611 67.8639 231.215 69.323 233.111 69.323ZM232.382 66.1418H233.075L234.121 67.8639H234.797L233.668 66.1139C234.252 66.0426 234.697 65.7293 234.697 65.0183C234.697 64.2352 234.233 63.8879 233.293 63.8879H231.781V67.8639H232.382V66.1418ZM232.382 65.6293V64.4004H233.201C233.621 64.4004 234.068 64.4911 234.068 64.9835C234.068 65.5937 233.612 65.6293 233.103 65.6293H232.382Z" fill="#006699"></path>
  </g>
  <defs>
    <clipPath id="clip0">
      <rect width="173.913" height="40" fill="white" transform="translate(63 30)"></rect>
    </clipPath>
  </defs>
</svg>
