<?xml version="1.0" encoding="UTF-8"?>
<svg xmlns="http://www.w3.org/2000/svg" width="300" height="100" viewBox="0 0 300 100" fill="none">
  <path d="M105.389 45.0166C105.389 43.1794 105.783 41.4734 106.439 39.7674C107.095 38.1927 108.014 36.7491 109.326 35.5681C110.638 34.387 112.213 33.4684 113.919 32.9435C115.888 32.2873 117.987 32.0249 120.087 32.0249C122.449 31.8936 124.811 32.2873 127.042 33.0747C128.617 33.7309 130.06 34.5182 131.373 35.6993C132.291 36.6179 133.079 37.6677 133.603 38.8488C133.997 39.7674 134.26 40.686 134.391 41.6046C134.391 41.9983 134.26 42.2608 133.997 42.5232C133.735 42.7857 133.341 42.9169 133.079 42.9169H129.142C128.879 42.9169 128.486 42.7857 128.223 42.6545C128.092 42.5232 127.829 42.2608 127.829 42.1295C127.829 41.9983 127.567 41.7358 127.304 41.3422C126.911 40.8172 126.517 40.4236 125.992 40.0299C125.336 39.5049 124.549 38.98 123.761 38.7176C122.58 38.3239 121.399 38.1927 120.087 38.1927C117.987 37.9302 115.888 38.5863 114.313 40.0299C112.869 41.3422 111.951 43.3106 111.951 45.279C111.951 46.4601 111.819 47.7724 111.819 49.2159C111.819 50.6594 111.819 51.9717 111.951 53.1528C111.819 55.3837 112.738 57.4834 114.313 58.9269C116.019 60.2392 117.987 60.8953 120.087 60.7641C121.137 60.7641 122.318 60.6329 123.368 60.3704C124.286 60.108 125.205 59.7143 125.992 59.0581C126.78 58.5332 127.304 57.7458 127.698 56.8272C128.092 55.7774 128.354 54.4651 128.354 53.284V53.0216H121.793C121.399 53.0216 121.137 52.8903 120.874 52.6279C120.612 52.3654 120.481 52.103 120.481 51.7093V48.1661C120.481 47.7724 120.612 47.5099 120.874 47.2475C121.137 46.985 121.399 46.8538 121.793 46.8538H133.603C133.997 46.8538 134.26 46.985 134.522 47.2475C134.785 47.5099 134.916 47.7724 134.916 48.1661V53.5465C134.916 55.3837 134.653 57.2209 133.997 58.9269C133.341 60.5016 132.422 61.9452 131.241 63.1262C129.929 64.3073 128.354 65.3571 126.648 65.8821C122.449 67.1943 117.987 67.1943 113.788 65.8821C112.082 65.3571 110.638 64.4385 109.326 63.1262C108.145 61.9452 107.226 60.5016 106.57 58.9269C105.914 57.2209 105.52 55.3837 105.389 53.5465C105.389 52.8903 105.389 52.2342 105.389 51.5781C105.389 50.7907 105.389 50.1345 105.389 49.3472C105.389 48.5598 105.389 47.7724 105.389 47.1163C105.389 46.4601 105.389 45.6727 105.389 45.0166Z" fill="#444A51"></path>
  <path d="M137.015 53.8118C137.015 52.1058 137.278 50.3998 137.803 48.6938C138.327 47.1191 139.115 45.8068 140.165 44.4945C141.214 43.3134 142.527 42.3948 143.97 41.7387C145.545 41.0825 147.251 40.6888 148.826 40.6888C150.532 40.6888 152.238 40.9513 153.681 41.7387C155.125 42.3948 156.437 43.1822 157.487 44.3633C158.537 45.5443 159.324 46.8566 159.849 48.3001C160.374 49.8749 160.768 51.4497 160.768 53.0244V55.2553C160.768 56.0427 160.243 56.5676 159.455 56.5676H143.314C143.314 57.2237 143.445 57.8799 143.708 58.536C143.97 59.061 144.495 59.5859 144.889 59.9796C145.414 60.3733 146.07 60.6357 146.726 60.8982C147.382 61.0294 148.038 61.1606 148.826 61.1606C149.613 61.1606 150.532 61.0294 151.319 60.8982C151.844 60.7669 152.369 60.5045 152.894 60.1108C153.156 59.8483 153.419 59.7171 153.813 59.5859C154.075 59.4546 154.469 59.4546 154.731 59.4546H158.668C159.062 59.4546 159.324 59.5859 159.587 59.8483C159.849 60.1108 159.98 60.3733 159.98 60.7669C159.849 61.4231 159.587 61.948 159.193 62.4729C158.668 63.2603 157.881 64.0477 157.093 64.5726C156.043 65.36 154.862 65.8849 153.681 66.4098C152.107 66.9347 150.532 67.1972 148.957 67.066C147.251 67.066 145.545 66.8035 144.102 66.1473C142.658 65.6224 141.346 64.7038 140.427 63.5228C139.377 62.3417 138.59 60.8982 138.065 59.4546C137.278 57.4862 137.015 55.649 137.015 53.8118ZM148.826 46.5942C148.038 46.5942 147.251 46.7254 146.464 46.9879C145.808 47.2503 145.283 47.644 144.758 48.0377C144.364 48.4314 143.97 48.9563 143.708 49.4812C143.445 50.0061 143.314 50.531 143.314 51.056H154.206C154.206 50.531 154.075 50.0061 153.944 49.4812C153.813 48.9563 153.419 48.4314 153.025 48.0377C152.631 47.5128 151.975 47.2503 151.45 46.9879C150.663 46.5942 149.744 46.4629 148.826 46.5942Z" fill="#444A51"></path>
  <path d="M170.741 57.2196C170.741 58.1382 171.003 58.9256 171.528 59.5817C172.316 60.2379 173.497 60.6315 174.547 60.5003H177.434C178.221 60.5003 178.746 61.0252 178.746 61.8126V64.9621C178.746 65.3558 178.615 65.6183 178.352 65.8807C178.09 66.1432 177.827 66.2744 177.434 66.2744H173.891C171.397 66.4056 168.904 65.6183 166.935 64.0435C165.229 62.2063 164.311 59.8442 164.442 57.3508V46.9837H162.605C162.211 46.9837 161.949 46.8524 161.686 46.59C161.424 46.3275 161.292 46.0651 161.292 45.6714V42.5219C161.292 41.7345 161.817 41.2096 162.605 41.2096H164.442V34.5169C164.442 34.1232 164.573 33.8607 164.836 33.5983C165.098 33.3358 165.361 33.2046 165.754 33.2046H169.429C170.216 33.2046 170.741 33.7295 170.741 34.5169V41.2096H177.04C177.434 41.2096 177.696 41.3408 177.959 41.6033C178.221 41.8657 178.352 42.1282 178.352 42.5219V45.6714C178.352 46.0651 178.221 46.3275 177.959 46.59C177.696 46.8524 177.434 46.9837 177.04 46.9837H170.741V57.2196Z" fill="#444A51"></path>
  <path d="M198.957 33.8608C199.351 33.8608 199.745 33.9921 200.139 34.2545C200.401 34.6482 200.663 35.0419 200.795 35.4356L212.343 64.831C212.343 64.9622 212.343 65.0934 212.343 65.0934C212.343 65.8808 211.818 66.4057 211.031 66.4057H207.619C207.094 66.4057 206.7 66.2745 206.306 66.012C206.044 65.7496 205.913 65.4871 205.781 65.2247L203.813 59.9755H188.984L187.016 65.2247C186.884 65.4871 186.753 65.7496 186.491 66.012C186.097 66.2745 185.703 66.4057 185.178 66.4057H181.766C181.373 66.4057 181.11 66.2745 180.848 66.012C180.585 65.7496 180.454 65.4871 180.454 65.0934C180.454 64.9622 180.454 64.831 180.454 64.831L192.002 35.4356C192.134 35.0419 192.396 34.517 192.658 34.2545C192.921 33.9921 193.315 33.8608 193.84 33.8608H198.957ZM201.582 54.0702L196.333 40.6848L191.215 54.0702H201.582Z" fill="#444A51"></path>
  <path d="M228.088 66.8035C227.17 66.8035 226.382 66.6723 225.464 66.541C224.808 66.4098 224.02 66.1473 223.364 65.8849C222.839 65.6224 222.314 65.36 221.789 64.9663C221.396 64.7038 221.133 64.3101 220.739 64.0477V72.7088C220.739 73.4962 220.215 74.0211 219.427 74.0211H215.753C215.359 74.0211 215.097 73.8899 214.834 73.6274C214.572 73.365 214.44 73.1025 214.44 72.7088V42.5261C214.44 42.1324 214.572 41.8699 214.834 41.6074C215.097 41.345 215.359 41.2138 215.753 41.2138H219.427C219.821 41.2138 220.083 41.345 220.346 41.6074C220.608 41.8699 220.739 42.1324 220.739 42.5261V43.5759C221.002 43.1822 221.396 42.9197 221.789 42.6573C222.314 42.2636 222.708 42.0011 223.364 41.7387C224.02 41.4762 224.676 41.2138 225.464 40.9513C226.382 40.8201 227.17 40.6888 228.088 40.6888C229.663 40.6888 231.107 40.9513 232.419 41.6074C233.731 42.2636 234.781 43.051 235.7 44.1008C236.618 45.1506 237.406 46.3317 237.93 47.644C238.455 48.9563 238.718 50.3998 238.849 51.9746C238.849 52.4995 238.849 53.0244 238.849 53.6806C238.849 54.3367 238.849 54.8616 238.849 55.3865C238.849 56.8301 238.455 58.2736 237.93 59.7171C237.406 61.0294 236.749 62.3417 235.7 63.3915C234.781 64.4414 233.6 65.36 232.419 65.8849C231.107 66.541 229.532 66.8035 228.088 66.8035ZM232.55 55.1241C232.681 54.2055 232.681 53.2869 232.55 52.3683C232.55 50.6623 231.894 49.0875 230.582 47.9065C229.532 46.9879 228.088 46.5942 226.645 46.5942C225.201 46.5942 223.758 46.9879 222.577 48.0377C221.396 49.0875 220.739 50.531 220.739 52.1058C220.608 52.7619 220.608 53.2869 220.608 53.943C220.608 54.5992 220.608 55.1241 220.739 55.7802C220.871 58.9297 223.495 61.2919 226.645 61.1606C228.088 61.1606 229.532 60.6357 230.582 59.8483C231.894 58.536 232.55 56.8301 232.55 55.1241Z" fill="#444A51"></path>
  <path d="M255.121 66.8035C254.203 66.8035 253.284 66.6723 252.366 66.541C251.709 66.4098 250.922 66.1473 250.266 65.8849C249.741 65.6224 249.216 65.36 248.691 64.9663C248.297 64.7038 248.035 64.3101 247.641 64.0477V72.7088C247.641 73.1025 247.51 73.365 247.248 73.6274C246.985 73.8899 246.723 74.0211 246.329 74.0211H242.655C241.867 74.0211 241.342 73.4962 241.342 72.7088V42.5261C241.342 41.7387 241.867 41.2138 242.655 41.2138H246.329C246.723 41.2138 246.985 41.345 247.248 41.6074C247.51 41.8699 247.641 42.1324 247.641 42.5261V43.5759C247.904 43.1822 248.297 42.9197 248.691 42.6573C249.216 42.2636 249.61 42.0011 250.266 41.7387C250.922 41.4762 251.578 41.2138 252.366 40.9513C253.284 40.6888 254.203 40.6888 255.121 40.6888C256.696 40.6888 258.14 40.9513 259.452 41.6074C260.764 42.2636 261.814 43.051 262.733 44.1008C263.651 45.1506 264.439 46.3317 264.964 47.644C265.488 48.9563 265.751 50.3998 265.882 51.9746C265.882 52.4995 265.882 53.0244 265.882 53.6806C265.882 54.3367 265.882 54.8616 265.882 55.3865C265.882 56.8301 265.488 58.2736 264.964 59.7171C264.439 61.0294 263.782 62.3417 262.733 63.3915C261.814 64.4414 260.633 65.36 259.452 65.8849C258.14 66.541 256.565 66.8035 255.121 66.8035ZM259.583 55.1241C259.714 54.2055 259.714 53.2869 259.583 52.3683C259.583 50.6623 258.927 49.0875 257.615 47.9065C256.434 46.9879 254.99 46.5942 253.547 46.5942C252.103 46.5942 250.66 47.1191 249.61 48.0377C248.429 49.0875 247.773 50.531 247.773 52.1058C247.641 52.7619 247.641 53.2869 247.641 53.943C247.641 54.5992 247.641 55.1241 247.773 55.7802C247.904 57.2237 248.56 58.6673 249.61 59.7171C250.66 60.6357 252.103 61.1606 253.547 61.1606C254.99 61.1606 256.434 60.6357 257.615 59.7171C258.796 58.536 259.583 56.8301 259.583 55.1241Z" fill="#444A51"></path>
  <path d="M93.9728 49.35L77.8316 33.2088C77.3067 32.6838 76.5193 32.6838 75.9944 33.2088L72.8449 36.3583L85.8366 49.35C86.3615 49.8749 86.3615 50.6623 85.9678 51.1872C85.9678 51.1872 85.9678 51.1872 85.8366 51.3184L72.4512 64.5726L75.6007 67.7221C76.1256 68.247 76.913 68.247 77.4379 67.8533C77.4379 67.8533 77.4379 67.8533 77.5691 67.7221L94.104 51.1872C94.4977 50.7935 94.4977 49.8749 93.9728 49.35Z" fill="#2CB5B4"></path>
  <path d="M66.5451 34.3875L65.364 33.2064C64.8391 32.6815 64.0517 32.6815 63.5268 33.0752C63.5268 33.0752 63.5268 33.0752 63.3956 33.2064L60.2461 36.3559L62.3458 38.4556L66.4139 42.5237L70.482 38.4556L66.5451 34.3875Z" fill="#8CBF44"></path>
  <path d="M66.1522 58.2715L62.084 62.3396L59.9844 64.4393L63.1339 67.5888C63.6588 68.1137 64.4462 68.1137 64.9711 67.5888L66.1522 66.4077L70.2203 62.3396L66.1522 58.2715Z" fill="#8CBF44"></path>
  <path d="M73.2378 49.3459C73.7627 49.8708 73.7627 50.7894 73.2378 51.3143L66.1514 58.2695L70.2195 62.3376L81.374 51.1831C81.8989 50.6582 81.8989 49.7396 81.374 49.2147L70.6132 38.4539L66.5451 42.522L73.2378 49.3459Z" fill="#B8CE2C"></path>
  <path d="M46.8605 49.7437L58.1462 38.4579L53.9469 34.2586L52.897 33.2088C52.3721 32.6838 51.4535 32.6838 50.9286 33.2088L34.3937 49.7437C33.8688 50.2686 33.8688 51.056 34.3937 51.5809L50.5349 67.7221C51.0598 68.247 51.8472 68.247 52.3721 67.7221L53.5532 66.541L57.6213 62.4729L46.8605 51.7121C46.2043 51.3184 45.9419 50.6623 46.4668 50.0061C46.598 49.7437 46.7293 49.7437 46.8605 49.7437Z" fill="#87EFEF"></path>
  <path d="M59.4606 49.7396L64.4473 44.7529L60.248 40.6848L58.1483 38.4539L46.9938 49.6084C46.4689 50.1333 46.4689 50.9207 46.9938 51.4456L57.7546 62.2064L59.8543 60.1067L63.9224 56.0386L59.4606 51.5768C58.9357 51.1831 58.9357 50.2645 59.4606 49.7396Z" fill="#8CBF44"></path>
  <path d="M59.4606 51.5809L64.0536 56.1739L69.0403 51.1872C69.5652 50.6623 69.5652 49.7437 69.0403 49.2188L64.4473 44.6257L59.4606 49.7437C58.9357 50.2686 58.9357 51.056 59.4606 51.5809Z" fill="#B8CE2C"></path>
  <path d="M66.5451 34.3875L65.364 33.2064C64.8391 32.6815 64.0517 32.6815 63.5268 33.0752C63.5268 33.0752 63.5268 33.0752 63.3956 33.2064L60.2461 36.3559L62.3458 38.4556L66.4139 42.5237L70.482 38.4556L66.5451 34.3875Z" fill="#41E3E2"></path>
  <path d="M66.1522 58.2715L62.084 62.3396L59.9844 64.4393L63.1339 67.5888C63.6588 68.1137 64.4462 68.1137 64.9711 67.5888L66.1522 66.4077L70.2203 62.3396L66.1522 58.2715Z" fill="#41E3E2"></path>
  <path d="M73.2378 49.3459C73.7627 49.8708 73.7627 50.7894 73.2378 51.3143L66.1514 58.2695L70.2195 62.3376L81.374 51.1831C81.8989 50.6582 81.8989 49.7396 81.374 49.2147L70.6132 38.4539L66.5451 42.522L73.2378 49.3459Z" fill="#4FBCC1"></path>
  <path d="M46.8605 49.7437L58.1462 38.4579L53.9469 34.2586L52.897 33.2088C52.3721 32.6838 51.4535 32.6838 50.9286 33.2088L34.3937 49.7437C33.8688 50.2686 33.8688 51.056 34.3937 51.5809L50.5349 67.7221C51.0598 68.247 51.8472 68.247 52.3721 67.7221L53.5532 66.541L57.6213 62.4729L46.8605 51.7121C46.2043 51.3184 45.9419 50.6623 46.4668 50.0061C46.598 49.7437 46.7293 49.7437 46.8605 49.7437Z" fill="#87EFEF"></path>
  <path d="M59.4606 49.7396L64.4473 44.7529L60.248 40.6848L58.1483 38.4539L46.9938 49.6084C46.4689 50.1333 46.4689 50.9207 46.9938 51.4456L57.7546 62.2064L59.8543 60.1067L63.9224 56.0386L59.4606 51.5768C58.9357 51.1831 58.9357 50.2645 59.4606 49.7396Z" fill="#41E3E2"></path>
  <path d="M59.4606 51.5809L64.0536 56.1739L69.0403 51.1872C69.5652 50.6623 69.5652 49.7437 69.0403 49.2188L64.4473 44.6257L59.4606 49.7437C58.9357 50.2686 58.9357 51.056 59.4606 51.5809Z" fill="#4FBCC1"></path>
</svg>
