<?xml version="1.0" encoding="UTF-8"?>
<svg xmlns="http://www.w3.org/2000/svg" width="300" height="100" viewBox="0 0 300 100" fill="none">
  <path d="M88.3662 36.683H114.707V41.6059H104.35V69.28H98.6545V41.6059H88.3433V36.683H88.3662ZM113.582 45.6777H118.45V50.2325H118.542C118.703 49.5884 119.002 48.9673 119.438 48.3692C119.874 47.771 120.402 47.1959 121.022 46.7128C121.642 46.2068 122.331 45.8157 123.089 45.4936C123.847 45.1946 124.628 45.0335 125.409 45.0335C126.006 45.0335 126.442 45.0565 126.672 45.0795C126.901 45.1025 127.131 45.1486 127.384 45.1716V50.1865C127.016 50.1175 126.649 50.0715 126.258 50.0255C125.868 49.9795 125.501 49.9565 125.133 49.9565C124.26 49.9565 123.434 50.1405 122.653 50.4856C121.872 50.8306 121.206 51.3597 120.632 52.0268C120.058 52.717 119.599 53.5451 119.254 54.5573C118.91 55.5695 118.749 56.7197 118.749 58.031V69.257H113.559V45.6777H113.582ZM151.244 69.28H146.146V65.9904H146.054C145.411 67.1867 144.47 68.1298 143.207 68.843C141.944 69.5561 140.657 69.9242 139.348 69.9242C136.248 69.9242 133.998 69.165 132.62 67.6237C131.242 66.0824 130.553 63.759 130.553 60.6534V45.6777H135.743V60.1473C135.743 62.2177 136.133 63.69 136.937 64.5412C137.718 65.3923 138.843 65.8294 140.267 65.8294C141.369 65.8294 142.265 65.6684 143 65.3233C143.735 64.9782 144.332 64.5412 144.768 63.9661C145.228 63.414 145.549 62.7238 145.756 61.9417C145.962 61.1595 146.054 60.3084 146.054 59.3882V45.7007H151.244V69.28ZM160.086 61.7116C160.247 63.2299 160.821 64.2881 161.808 64.9092C162.819 65.5073 164.013 65.8294 165.414 65.8294C165.896 65.8294 166.447 65.7834 167.067 65.7144C167.687 65.6454 168.284 65.4843 168.813 65.2773C169.364 65.0703 169.8 64.7482 170.167 64.3341C170.512 63.92 170.673 63.3909 170.65 62.7238C170.627 62.0567 170.374 61.5046 169.915 61.0905C169.456 60.6534 168.881 60.3314 168.17 60.0553C167.458 59.8023 166.654 59.5722 165.735 59.3882C164.817 59.2042 163.898 58.9971 162.956 58.7901C161.992 58.5831 161.05 58.307 160.155 58.0079C159.259 57.7089 158.455 57.2948 157.743 56.7657C157.032 56.2596 156.457 55.5925 156.044 54.7873C155.608 53.9822 155.401 52.993 155.401 51.7968C155.401 50.5086 155.723 49.4504 156.343 48.5762C156.963 47.702 157.766 47.0119 158.708 46.4828C159.672 45.9537 160.729 45.5856 161.9 45.3556C163.071 45.1486 164.197 45.0335 165.253 45.0335C166.47 45.0335 167.641 45.1716 168.744 45.4246C169.846 45.6777 170.856 46.0917 171.752 46.6898C172.648 47.265 173.383 48.0241 173.98 48.9443C174.577 49.8644 174.944 50.9916 175.105 52.3029H169.685C169.433 51.0607 168.881 50.2095 167.986 49.7954C167.09 49.3583 166.057 49.1513 164.908 49.1513C164.541 49.1513 164.105 49.1743 163.599 49.2433C163.094 49.3123 162.635 49.4274 162.176 49.5884C161.739 49.7494 161.372 50.0025 161.05 50.3245C160.752 50.6466 160.591 51.0607 160.591 51.5898C160.591 52.2339 160.821 52.74 161.257 53.131C161.693 53.5221 162.268 53.8442 162.979 54.1202C163.691 54.3733 164.495 54.6033 165.414 54.7873C166.332 54.9714 167.274 55.1784 168.238 55.3855C169.18 55.5925 170.099 55.8685 171.017 56.1676C171.936 56.4667 172.74 56.8807 173.451 57.4098C174.163 57.9389 174.738 58.5831 175.174 59.3652C175.61 60.1473 175.84 61.1365 175.84 62.2867C175.84 63.69 175.518 64.8632 174.875 65.8524C174.232 66.8186 173.406 67.6237 172.395 68.2218C171.385 68.82 170.236 69.28 168.996 69.5561C167.756 69.8321 166.516 69.9702 165.299 69.9702C163.806 69.9702 162.428 69.8091 161.165 69.4641C159.902 69.119 158.8 68.6129 157.881 67.9458C156.963 67.2557 156.228 66.4045 155.7 65.3923C155.171 64.3801 154.896 63.1609 154.85 61.7576H160.086V61.7116ZM177.218 45.6777H181.145V38.5923H186.335V45.6777H191.02V49.5654H186.335V62.1717C186.335 62.7238 186.358 63.1839 186.404 63.598C186.45 63.9891 186.564 64.3341 186.725 64.6102C186.886 64.8862 187.139 65.0933 187.483 65.2313C187.828 65.3693 188.264 65.4383 188.861 65.4383C189.228 65.4383 189.596 65.4383 189.963 65.4153C190.331 65.3923 190.698 65.3463 191.066 65.2543V69.28C190.491 69.3491 189.917 69.3951 189.389 69.4641C188.838 69.5331 188.287 69.5561 187.713 69.5561C186.335 69.5561 185.233 69.4181 184.406 69.165C183.579 68.912 182.913 68.5209 182.454 68.0148C181.971 67.5087 181.673 66.8876 181.489 66.1285C181.328 65.3693 181.214 64.4952 181.191 63.529V49.6114H177.264V45.6777H177.218ZM194.694 45.6777H199.609V48.8753H199.7C200.435 47.495 201.446 46.5288 202.755 45.9307C204.064 45.3326 205.465 45.0335 207.003 45.0335C208.863 45.0335 210.471 45.3556 211.849 46.0227C213.227 46.6668 214.375 47.564 215.294 48.7142C216.212 49.8644 216.878 51.1987 217.338 52.717C217.797 54.2352 218.026 55.8685 218.026 57.5939C218.026 59.1812 217.82 60.7225 217.406 62.1947C216.993 63.69 216.373 65.0012 215.546 66.1515C214.72 67.3017 213.663 68.1988 212.377 68.889C211.091 69.5791 209.598 69.9242 207.853 69.9242C207.095 69.9242 206.337 69.8551 205.579 69.7171C204.822 69.5791 204.087 69.3491 203.398 69.05C202.709 68.7509 202.043 68.3599 201.469 67.8768C200.872 67.3937 200.389 66.8416 199.976 66.2205H199.884V77.9987H194.694V45.6777ZM212.836 57.5019C212.836 56.4437 212.699 55.4085 212.423 54.3963C212.147 53.3841 211.734 52.5099 211.183 51.7278C210.632 50.9456 209.943 50.3245 209.139 49.8644C208.312 49.4043 207.371 49.1513 206.314 49.1513C204.133 49.1513 202.479 49.9104 201.377 51.4287C200.275 52.947 199.723 54.9714 199.723 57.5019C199.723 58.6981 199.861 59.8023 200.16 60.8145C200.458 61.8267 200.872 62.7008 201.469 63.437C202.043 64.1731 202.732 64.7482 203.536 65.1623C204.339 65.5994 205.281 65.8064 206.337 65.8064C207.532 65.8064 208.519 65.5534 209.346 65.0703C210.172 64.5872 210.838 63.9431 211.367 63.1839C211.895 62.4018 212.285 61.5276 212.515 60.5384C212.722 59.5492 212.836 58.537 212.836 57.5019ZM221.999 36.683H227.189V41.6059H221.999V36.683ZM221.999 45.6777H227.189V69.28H221.999V45.6777ZM231.828 36.683H237.019V69.28H231.828V36.683ZM252.933 69.9242C251.05 69.9242 249.374 69.6021 247.904 68.981C246.434 68.3599 245.194 67.4857 244.161 66.4045C243.15 65.3003 242.369 63.9891 241.841 62.4708C241.313 60.9525 241.037 59.2732 241.037 57.4558C241.037 55.6615 241.313 54.0052 241.841 52.4869C242.369 50.9686 243.15 49.6574 244.161 48.5532C245.171 47.449 246.434 46.5978 247.904 45.9767C249.374 45.3556 251.05 45.0335 252.933 45.0335C254.816 45.0335 256.493 45.3556 257.963 45.9767C259.432 46.5978 260.672 47.472 261.706 48.5532C262.716 49.6574 263.497 50.9686 264.025 52.4869C264.554 54.0052 264.829 55.6615 264.829 57.4558C264.829 59.2732 264.554 60.9525 264.025 62.4708C263.497 63.9891 262.716 65.3003 261.706 66.4045C260.695 67.5087 259.432 68.3599 257.963 68.981C256.493 69.6021 254.816 69.9242 252.933 69.9242ZM252.933 65.8064C254.081 65.8064 255.092 65.5534 255.942 65.0703C256.791 64.5872 257.48 63.9431 258.031 63.1609C258.583 62.3788 258.973 61.4816 259.249 60.4924C259.501 59.5032 259.639 58.491 259.639 57.4558C259.639 56.4437 259.501 55.4545 259.249 54.4423C258.996 53.4301 258.583 52.5559 258.031 51.7738C257.48 50.9916 256.791 50.3705 255.942 49.8874C255.092 49.4043 254.081 49.1513 252.933 49.1513C251.785 49.1513 250.775 49.4043 249.925 49.8874C249.075 50.3705 248.386 51.0146 247.835 51.7738C247.284 52.5559 246.893 53.4301 246.618 54.4423C246.365 55.4545 246.227 56.4437 246.227 57.4558C246.227 58.491 246.365 59.5032 246.618 60.4924C246.87 61.4816 247.284 62.3788 247.835 63.1609C248.386 63.9431 249.075 64.5872 249.925 65.0703C250.775 65.5764 251.785 65.8064 252.933 65.8064ZM266.345 45.6777H270.272V38.5923H275.462V45.6777H280.147V49.5654H275.462V62.1717C275.462 62.7238 275.485 63.1839 275.531 63.598C275.577 63.9891 275.692 64.3341 275.852 64.6102C276.013 64.8862 276.266 65.0933 276.61 65.2313C276.955 65.3693 277.391 65.4383 277.988 65.4383C278.355 65.4383 278.723 65.4383 279.09 65.4153C279.458 65.3923 279.825 65.3463 280.193 65.2543V69.28C279.619 69.3491 279.044 69.3951 278.516 69.4641C277.965 69.5331 277.414 69.5561 276.84 69.5561C275.462 69.5561 274.36 69.4181 273.533 69.165C272.706 68.912 272.04 68.5209 271.581 68.0148C271.099 67.5087 270.8 66.8876 270.616 66.1285C270.456 65.3693 270.341 64.4952 270.318 63.529V49.6114H266.391V45.6777H266.345Z" fill="#000032"></path>
  <path d="M82.304 36.6822H58.5123L51.1635 14L43.7917 36.6822L20 36.6592L39.2676 50.6918L31.8959 73.351L51.1635 59.3414L70.4081 73.351L63.0593 50.6918L82.304 36.6822Z" fill="#00B67A"></path>
  <path d="M64.7124 55.8204L63.0589 50.6905L51.1631 59.3401L64.7124 55.8204Z" fill="#005128"></path>
</svg>
