<svg width="121" height="32" viewBox="0 0 121 32" fill="none" xmlns="http://www.w3.org/2000/svg">
<path d="M0.000107052 6.25066C-0.00433985 5.56348 0.129796 4.88219 0.39484 4.24576C0.659884 3.60934 1.05063 3.03027 1.54473 2.5417C2.03883 2.05313 2.62657 1.66464 3.27434 1.39846C3.92211 1.13229 4.61718 0.993649 5.31978 0.990479H26.2C26.9018 0.993651 27.596 1.13202 28.243 1.39767C28.8901 1.66332 29.4773 2.05105 29.9711 2.53872C30.4649 3.02639 30.8556 3.60443 31.1209 4.23982C31.3863 4.87522 31.521 5.55552 31.5174 6.24185V26.5648C31.521 27.2511 31.3863 27.9314 31.1209 28.5668C30.8556 29.2022 30.4649 29.7803 29.9711 30.2679C29.4773 30.7556 28.8901 31.1433 28.243 31.409C27.596 31.6746 26.9018 31.813 26.2 31.8162H5.31978C4.61794 31.813 3.92361 31.6746 3.27643 31.409C2.62925 31.1434 2.04191 30.7557 1.54793 30.2681C1.05395 29.7804 0.663012 29.2024 0.397436 28.567C0.13186 27.9316 -0.0031525 27.2512 0.000107052 26.5648V6.25066Z" fill="#7947BF"/>
<path d="M25.9027 8.7373L23.5051 11.0779C23.5854 11.3597 23.627 11.6506 23.6289 11.9432C23.6303 12.4413 23.5134 12.9329 23.2876 13.3793C23.0618 13.8257 22.7331 14.2148 22.3275 14.516C21.9218 14.8171 21.4503 15.0221 20.9499 15.1147C20.4495 15.2074 19.934 15.1852 19.4438 15.05L18.9351 15.5476L17.0508 17.3905C18.2847 18.1042 19.7263 18.3963 21.1486 18.2207C22.5709 18.0451 23.8932 17.4119 24.9071 16.4207C25.9211 15.4295 26.5692 14.1367 26.7494 12.7457C26.9296 11.3547 26.6318 9.94455 25.9027 8.7373V8.7373Z" fill="#FDFDFD"/>
<path d="M17.0307 11.943C17.0293 11.4452 17.1461 10.9539 17.3718 10.5077C17.5975 10.0615 17.926 9.67268 18.3314 9.37174C18.7369 9.07081 19.2082 8.86601 19.7083 8.77347C20.2084 8.68093 20.7237 8.70317 21.2135 8.83845L23.6066 6.49569C22.7485 6.0013 21.7853 5.70759 20.792 5.63748C19.7988 5.56738 18.8024 5.72278 17.8807 6.09156C16.959 6.46034 16.1369 7.03251 15.4786 7.76338C14.8204 8.49426 14.3438 9.36406 14.0861 10.3049C13.7904 11.3934 13.795 12.5391 14.0996 13.6252C14.2504 14.1588 14.473 14.6704 14.7614 15.1467L16.6457 13.3038L17.1523 12.8062C17.0727 12.525 17.0318 12.2347 17.0307 11.943V11.943Z" fill="#FDFDFD"/>
<g opacity="0.75">
<path opacity="0.75" d="M20.3286 18.2646C19.7478 18.2672 19.1692 18.1931 18.6086 18.0444C18.3206 18.5258 17.9104 18.9262 17.4177 19.207C16.9148 19.4962 16.3419 19.6482 15.7586 19.6474C15.4584 19.6435 15.1601 19.6006 14.8716 19.5197L14.3628 20.0151L12.4785 21.858C13.3364 22.3529 14.2997 22.647 15.2931 22.7173C16.2865 22.7876 17.2831 22.6323 18.205 22.2635C19.1268 21.8946 19.9489 21.3223 20.6071 20.5911C21.2653 19.86 21.7417 18.9899 21.999 18.0488C21.4541 18.1913 20.8926 18.2638 20.3286 18.2646V18.2646Z" fill="#F7F7F7"/>
<path opacity="0.75" d="M12.4603 16.404C12.4614 15.8403 12.6133 15.2866 12.9008 14.798C13.1883 14.3094 13.6014 13.9029 14.0992 13.6187C13.7947 12.5325 13.79 11.3868 14.0857 10.2983C13.2609 10.514 12.488 10.8874 11.8117 11.3971C11.1354 11.9067 10.5691 12.5424 10.1456 13.2675C9.72211 13.9925 9.44976 14.7925 9.34435 15.6211C9.23893 16.4497 9.30253 17.2906 9.53146 18.095C9.6811 18.6293 9.90293 19.1418 10.1911 19.6187L12.0754 17.7758L12.5841 17.2848C12.5013 16.9982 12.4596 16.7018 12.4603 16.404V16.404Z" fill="#F7F7F7"/>
</g>
<g opacity="0.5">
<path opacity="0.5" d="M14.0387 22.5054C13.6737 23.1232 13.1084 23.6044 12.4324 23.8727C11.7564 24.1411 11.0082 24.1814 10.3062 23.9872L7.91309 26.3278C8.77093 26.8222 9.73404 27.1159 10.7272 27.186C11.7203 27.2561 12.7165 27.1007 13.6381 26.7319C14.5596 26.3631 15.3815 25.7909 16.0395 25.06C16.6976 24.3291 17.1739 23.4593 17.4313 22.5186C16.3192 22.8078 15.1485 22.8033 14.0387 22.5054V22.5054Z" fill="#BCBCBC"/>
<path opacity="0.5" d="M7.89265 20.8825C7.89247 20.318 8.04399 19.7633 8.33202 19.2741C8.62006 18.7849 9.03449 18.3783 9.5338 18.095C9.2263 17.01 9.22163 15.8642 9.52029 14.7769C8.55799 15.0284 7.66818 15.4942 6.92039 16.1377C6.17259 16.7813 5.58707 17.5853 5.20955 18.4868C4.83204 19.3884 4.67276 20.3631 4.74416 21.3348C4.81556 22.3065 5.11571 23.2489 5.62115 24.0884L8.01422 21.7479C7.93371 21.4662 7.89281 21.175 7.89265 20.8825V20.8825Z" fill="#BCBCBC"/>
</g>
<path d="M36.2451 26.4641L40.3109 6.11035L46.9543 20.823L53.8363 6.11035L57.4968 26.4641H54.5094L52.6431 15.0366L46.9137 27.3338L41.3487 15.0234L39.2663 26.4729L36.2451 26.4641Z" fill="#7947BF"/>
<path d="M61.8325 14.5215V21.3758C61.8325 23.353 62.631 24.3417 64.2278 24.3417C65.8247 24.3417 66.6224 23.353 66.6209 21.3758V14.5215H69.4417V21.4374C69.4596 22.2764 69.3364 23.1125 69.077 23.9123C68.8229 24.5635 68.4047 25.1413 67.8613 25.5923C66.9083 26.4026 65.6971 26.807 64.2278 26.8055C62.7585 26.8041 61.5504 26.3997 60.6033 25.5923C60.0538 25.1416 59.6275 24.5643 59.3629 23.9123C59.1288 23.3575 59.0117 22.5325 59.0117 21.4374V14.5215H61.8325Z" fill="#7947BF"/>
<path d="M80.9747 5.75586H83.809V26.4641H80.9747V25.2113C79.8626 26.2726 78.6049 26.8032 77.2016 26.8032C76.4162 26.8204 75.6365 26.6691 74.9173 26.3598C74.1982 26.0505 73.5571 25.5908 73.0391 25.0131C71.945 23.7948 71.3979 22.2748 71.3979 20.4531C71.3979 18.6711 71.945 17.1834 73.0391 15.99C73.5447 15.414 74.1746 14.9549 74.8835 14.6457C75.5924 14.3365 76.3626 14.185 77.1386 14.2021C78.5689 14.2021 79.8446 14.7738 80.9657 15.9173L80.9747 5.75586ZM74.2818 20.4553C74.2818 21.6003 74.5947 22.5324 75.2206 23.2516C75.5152 23.6026 75.8871 23.8839 76.3085 24.0745C76.7299 24.2651 77.1899 24.3602 77.6541 24.3526C78.1293 24.3697 78.6024 24.2841 79.0398 24.1018C79.4772 23.9195 79.8681 23.645 80.1845 23.2979C80.846 22.5234 81.1901 21.5364 81.1503 20.528C81.1901 19.5196 80.846 18.5326 80.1845 17.7581C79.8751 17.408 79.4899 17.1296 79.057 16.943C78.624 16.7565 78.1541 16.6663 77.6811 16.6792C77.2191 16.6715 76.7612 16.7644 76.3403 16.9509C75.9194 17.1375 75.5462 17.4132 75.2476 17.7581C74.5939 18.5084 74.2495 19.47 74.2818 20.4553Z" fill="#7947BF"/>
<path d="M86.085 14.5213H88.9058V15.5892C89.299 15.1496 89.7647 14.7775 90.2835 14.4883C90.7381 14.2811 91.2367 14.1829 91.7378 14.202C92.567 14.2265 93.3736 14.4724 94.0701 14.9132L92.7779 17.4387C92.3276 17.0912 91.7754 16.8937 91.202 16.8751C89.6637 16.8751 88.8953 18.0112 88.8968 20.2835V26.4751H86.085V14.5213Z" fill="#7947BF"/>
<path d="M105.779 21.1425H97.0286C97.1052 22.1224 97.4293 22.904 98.0079 23.4831C98.297 23.768 98.6432 23.9914 99.0248 24.1392C99.4065 24.287 99.8152 24.356 100.225 24.3418C100.845 24.3661 101.456 24.1939 101.968 23.8508C102.418 23.5249 102.932 22.9202 103.51 22.0365L105.892 23.3378C105.561 23.9014 105.17 24.4291 104.726 24.9121C104.34 25.33 103.897 25.6932 103.409 25.991C102.94 26.2736 102.429 26.4823 101.894 26.6097C101.314 26.7451 100.72 26.8109 100.124 26.8057C98.3036 26.8057 96.8418 26.2339 95.7386 25.0904C94.6355 23.9469 94.084 22.4181 94.084 20.504C94.084 18.6163 94.6183 17.0882 95.6869 15.9198C96.7555 14.7513 98.1827 14.1789 99.9687 14.2024C101.77 14.2024 103.19 14.7624 104.23 15.8824C105.27 17.0024 105.788 18.5436 105.784 20.5062L105.779 21.1425ZM102.895 18.8857C102.502 17.4178 101.554 16.6838 100.05 16.6838C99.7155 16.6812 99.3834 16.7356 99.0682 16.8446C98.7707 16.9444 98.4927 17.0934 98.2465 17.2849C97.9976 17.48 97.7838 17.7144 97.6139 17.9785C97.4321 18.2622 97.2969 18.572 97.2132 18.8967L102.895 18.8857Z" fill="#7947BF"/>
<path d="M111.364 20.0019L106.977 14.5215H110.335L113.057 18.0026L115.826 14.5215H119.286L114.784 20.0019L120.004 26.4642H116.641L113.057 22.0011L109.383 26.4642H105.937L111.364 20.0019Z" fill="#7947BF"/>
</svg>
