<svg width="190" height="45" viewBox="0 0 190 45" fill="none" xmlns="http://www.w3.org/2000/svg">
<path d="M15.1818 12.6144H18.7714C19.5566 12.6144 20.1921 11.975 20.1921 11.185C20.1921 10.395 19.5566 9.75562 18.7714 9.75562H15.1818C14.3965 9.75562 13.761 10.395 13.761 11.185C13.761 11.975 14.3965 12.6144 15.1818 12.6144Z" fill="black"/>
<path d="M18.8065 29.8772H15.2169C14.4317 29.8772 13.7962 30.5165 13.7962 31.3066C13.7962 32.0959 14.4317 32.7359 15.2169 32.7359H18.8065C19.5918 32.7359 20.2273 32.0959 20.2273 31.3066C20.2273 30.5172 19.5918 29.8772 18.8065 29.8772Z" fill="black"/>
<path d="M13.761 16.2997C13.761 17.2024 14.4714 17.9171 15.3686 17.9171H21.9123C22.8096 17.9171 23.5199 17.2024 23.5199 16.2997C23.5199 15.3971 22.8096 14.6824 21.9123 14.6824H15.3686C14.4714 14.6817 13.761 15.3964 13.761 16.2997Z" fill="black"/>
<path d="M21.9123 24.801H15.3686C14.4714 24.801 13.761 25.5157 13.761 26.4184C13.761 27.3211 14.4714 28.0358 15.3686 28.0358H21.9123C22.8096 28.0358 23.5199 27.3211 23.5199 26.4184C23.5206 25.515 22.7725 24.801 21.9123 24.801Z" fill="black"/>
<path d="M23.9308 19.7593H15.3686C14.4714 19.7593 13.761 20.474 13.761 21.3767C13.761 22.2794 14.4714 22.9947 15.3686 22.9947H23.9314C24.8287 22.9947 25.539 22.2794 25.539 21.3767C25.539 20.474 24.7909 19.7593 23.9308 19.7593Z" fill="black"/>
<path d="M10.7681 9C9.64625 9 8.71191 9.94069 8.71191 11.0687V19.495C8.6748 19.871 8.37528 20.1343 8.00154 20.1343C7.59003 20.1343 7.25341 19.7956 7.25341 19.4196V12.7614C7.25341 11.8207 6.50527 11.0687 5.57093 11.0687C4.63593 11.0687 3.88845 11.8214 3.88845 12.7614V17.8022C3.88845 18.1029 3.6267 18.3663 3.29007 18.3663C2.95345 18.3663 2.6917 18.1029 2.6917 17.7642V16.5982C2.6917 15.8455 2.09332 15.2442 1.34585 15.2442C0.597713 15.2442 0 15.8462 0 16.5982V25.3631C0 26.1158 0.598376 26.7172 1.34585 26.7172C2.09399 26.7172 2.6917 26.1151 2.6917 25.3631V23.5577C2.6917 23.2191 2.95345 22.9557 3.29007 22.9557C3.58893 22.9557 3.85068 23.2191 3.88845 23.5197V29.2012C3.88845 30.1419 4.63659 30.8939 5.57093 30.8939C6.50593 30.8939 7.25341 30.1413 7.25341 29.2012V26.1165C7.25341 25.7025 7.59003 25.4018 8.00154 25.4018C8.37528 25.4018 8.6748 25.6651 8.71191 26.0411V30.9313C8.71191 32.06 9.64691 33 10.7681 33C11.89 33 12.8243 32.0593 12.8243 30.9313V11.0687C12.8243 9.94069 11.9271 9 10.7681 9Z" fill="black"/>
<path d="M44.1218 21.5252C44.1218 25.3626 41.1677 28.184 37.0546 28.184C32.9793 28.184 29.9874 25.4 29.9874 21.5252C29.9874 17.6884 32.9415 14.9417 37.0546 14.9417C41.1684 14.9797 44.1218 17.7257 44.1218 21.5252ZM34.3629 21.5632C34.3629 23.3312 35.6339 24.6479 37.1302 24.6479C38.5887 24.6479 39.7848 23.3312 39.7848 21.5632C39.7848 19.7951 38.6258 18.5158 37.1302 18.5158C35.6346 18.5158 34.3629 19.7951 34.3629 21.5632Z" fill="black"/>
<path d="M51.8221 15.0947C54.9253 15.0947 56.9073 16.3734 56.9073 18.3675C56.9073 19.6462 56.0472 20.7375 54.7384 21.1516C56.2711 21.4902 57.281 22.8069 57.281 24.4243C57.281 26.6437 55.2619 28.0731 52.1209 28.0731H45.3162V15.0947H51.8221ZM49.5412 20.0602H51.5603C52.1587 20.0602 52.5325 19.6842 52.5325 19.1195C52.5325 18.5555 52.1587 18.2168 51.5603 18.2168H49.5412V20.0602ZM49.5412 24.8757H51.5603C52.3456 24.8757 52.8691 24.4616 52.8691 23.8596C52.8691 23.2956 52.3456 22.9189 51.5603 22.9189H49.5412V24.8757Z" fill="black"/>
<path d="M69.7369 16.4468L68.2042 19.6822C66.8954 18.9675 64.9135 18.1775 63.7922 18.1775C63.3059 18.1775 63.007 18.3282 63.007 18.7042C63.007 20.3216 69.6627 19.3062 69.6627 24.0083C69.6627 26.8671 67.1572 28.1464 64.2409 28.1464C61.9971 28.1464 59.5294 27.3938 57.8098 26.0777L59.3803 22.8803C60.689 23.971 62.9699 24.8744 64.2786 24.8744C64.9141 24.8744 65.2885 24.6864 65.2885 24.197C65.2885 22.5043 58.6328 23.633 58.6328 19.0809C58.6328 16.4855 60.8017 14.8674 64.1295 14.8674C66.1851 14.9048 68.2791 15.5068 69.7369 16.4468Z" fill="black"/>
<path d="M75.0068 18.329V19.909H81.0263V23.1444H75.0068V24.7618H81.7745V27.9972H70.7439V15.0942H81.6247V18.329H75.0068Z" fill="black"/>
<path d="M89.2188 24.6496H87.6483V27.9977H83.3854V15.0947H89.5925C93.0701 15.0947 95.0892 16.7874 95.0892 19.7215C95.0892 21.6022 94.3788 22.9943 93.0701 23.8216L95.6127 28.0351H90.8264L89.2188 24.6496ZM89.5925 21.4149C90.5275 21.4149 91.0503 20.8509 91.0503 19.8349C91.0503 18.8942 90.5275 18.3301 89.5925 18.3301H87.6483V21.4149H89.5925Z" fill="black"/>
<path d="M100.431 27.995L95.5706 15.054H100.132L102.787 23.5182L105.441 15.054H109.779L104.844 27.995H100.431Z" fill="black"/>
<path d="M114.828 18.3295V19.9095H120.848V23.1449H114.828V24.7623H121.596V27.9977H110.565V15.0947H121.446V18.3295H114.828Z" fill="black"/>
<path d="M134.646 26.1919L133.973 28.0353H129.598L135.02 15.0942H139.395L144.63 28.0353H140.105L139.469 26.1919H134.646ZM137.076 19.345L135.73 23.1071H138.422L137.076 19.345Z" fill="black"/>
<path d="M145.343 27.9977V15.0947H149.606V28.0358H145.343V27.9977Z" fill="black"/>
<path d="M129.037 22.2421C129.037 23.7842 127.953 24.8755 126.419 24.8755C124.886 24.8755 123.839 23.7848 123.839 22.2421C123.839 20.6994 124.924 19.6467 126.419 19.6467C127.952 19.6467 129.037 20.6994 129.037 22.2421Z" fill="black"/>
</svg>
