<?xml version="1.0" encoding="utf-8"?>
<!-- Generator: Adobe Illustrator 26.0.1, SVG Export Plug-In . SVG Version: 6.00 Build 0)  -->
<svg version="1.1" id="Layer_1" xmlns="http://www.w3.org/2000/svg" xmlns:xlink="http://www.w3.org/1999/xlink" x="0px" y="0px"
	 width="309px" height="207px" viewBox="0 0 309 207" style="enable-background:new 0 0 309 207;" xml:space="preserve">
<style type="text/css">
	.st0{clip-path:url(#SVGID_00000045600262644709710400000008279213581712127369_);}
	.st1{fill:#B4AEFF;}
	.st2{fill:#FFFFFF;}
	.st3{clip-path:url(#SVGID_00000159440324815477035630000013413459004346287533_);}
	.st4{fill:#FDA4FF;}
	.st5{clip-path:url(#SVGID_00000077311910568965094110000010551571726757665197_);}
	.st6{clip-path:url(#SVGID_00000035520219025804060950000014508733362657425058_);}
	.st7{fill:#4ADA85;}
	.st8{fill:none;}
	.st9{font-family:'ArialMT';}
	.st10{font-size:12px;}
	.st11{fill:#FFE471;}
	.st12{clip-path:url(#SVGID_00000155112143728926500470000013259470617090957967_);}
	.st13{clip-path:url(#SVGID_00000163062107285912189330000001951293218342788508_);}
	.st14{clip-path:url(#SVGID_00000149343529347687254160000017872823217529175993_);}
	.st15{clip-path:url(#SVGID_00000145021743589576189910000002488360835809883046_);}
	.st16{fill:#6155FF;}
	.st17{clip-path:url(#SVGID_00000091736639802217688700000007100905239453515654_);}
	.st18{clip-path:url(#SVGID_00000013911838248994655710000013067972501957682109_);}
	.st19{clip-path:url(#SVGID_00000056423151695282218090000002382747737692444808_);}
	.st20{clip-path:url(#SVGID_00000168799404196047055430000003113004613355411382_);}
	.st21{clip-path:url(#SVGID_00000049197358159568183240000000259892539904074641_);}
	.st22{font-family:'AgencyFB-Reg';}
	.st23{clip-path:url(#SVGID_00000072241327244301233820000006942891911984620716_);}
</style>
<g>
	<g>
		<defs>
			<rect id="SVGID_1_" x="90.7" width="25.3" height="206"/>
		</defs>
		<clipPath id="SVGID_00000152241291501654230390000016076410505635960971_">
			<use xlink:href="#SVGID_1_"  style="overflow:visible;"/>
		</clipPath>
		<g style="clip-path:url(#SVGID_00000152241291501654230390000016076410505635960971_);">
			<path class="st1" d="M105.5-1h9.7v206.6h-9.7c-7.5,0-13.5-6-13.5-13.5V12.5C92,5.1,98-1,105.5-1"/>
		</g>
	</g>
</g>
<path d="M95.4,22.5h-5.5v17h5.5V22.5"/>
<path class="st2" d="M96.3,22.5h-3.2v17h3.2V22.5"/>
<path d="M93.3,39.3H96V22.8h-2.7V39.3z M96.3,39.8h-3.2c-0.1,0-0.2-0.1-0.2-0.2v-17c0-0.1,0.1-0.2,0.2-0.2h3.2
	c0.1,0,0.2,0.1,0.2,0.2v17C96.5,39.7,96.4,39.8,96.3,39.8"/>
<g>
	<g>
		<defs>
			<rect id="SVGID_00000078010775777883923170000013936094503722667953_" x="98.7" width="117.3" height="206"/>
		</defs>
		<clipPath id="SVGID_00000091736360434057269680000017733896832781867413_">
			<use xlink:href="#SVGID_00000078010775777883923170000013936094503722667953_"  style="overflow:visible;"/>
		</clipPath>
		<g style="clip-path:url(#SVGID_00000091736360434057269680000017733896832781867413_);">
			<path class="st2" d="M201.9-1h-89.3C105.1-1,99,5.1,99,12.5v179.6c0,7.5,6.1,13.5,13.5,13.5h89.3c7.5,0,13.5-6,13.5-13.5V12.5
				C215.4,5.1,209.3-1,201.9-1"/>
			<path d="M112.7-0.7c-7.4,0-13.4,6-13.4,13.4V192c0,7.4,6,13.4,13.4,13.4h89c7.4,0,13.4-6,13.4-13.4V12.7c0-7.4-6-13.4-13.4-13.4
				C201.7-0.7,112.7-0.7,112.7-0.7z M201.7,205.9h-89c-7.7,0-13.9-6.2-13.9-13.9V12.7c0-7.7,6.2-13.9,13.9-13.9h89
				c7.7,0,13.9,6.2,13.9,13.9V192C215.6,199.7,209.4,205.9,201.7,205.9"/>
		</g>
	</g>
</g>
<path d="M171.6,4.6h-22.8c-0.1,0-0.2-0.1-0.2-0.2s0.1-0.2,0.2-0.2h22.8c0.1,0,0.2,0.1,0.2,0.2C171.9,4.5,171.8,4.6,171.6,4.6"/>
<path d="M144.8,2.9c-0.8,0-1.4,0.6-1.4,1.4s0.6,1.4,1.4,1.4s1.4-0.6,1.4-1.4C146.2,3.6,145.5,2.9,144.8,2.9z M144.8,6.3
	c-1.1,0-1.9-0.9-1.9-1.9s0.9-1.9,1.9-1.9s1.9,0.9,1.9,1.9S145.8,6.3,144.8,6.3"/>
<path class="st4" d="M134.9,108.2h-13.3v-4.4h13.3V108.2"/>
<path class="st1" d="M193.7,101.2h-60.1v-4.4h60.1L193.7,101.2"/>
<path class="st4" d="M143.7,80.5h-22.1v-4.4h22.1V80.5"/>
<path class="st4" d="M161.5,87.4h-27.9V83h27.9V87.4"/>
<path class="st4" d="M215.2,135.7h-34.9v-4.4h34.9L215.2,135.7"/>
<g>
	<g>
		<defs>
			<rect id="SVGID_00000009569662302960232740000003684943642566624134_" x="200" y="137.3" width="58.2" height="5.3"/>
		</defs>
		<clipPath id="SVGID_00000052067527414479554250000017781097165459346082_">
			<use xlink:href="#SVGID_00000009569662302960232740000003684943642566624134_"  style="overflow:visible;"/>
		</clipPath>
		<g style="clip-path:url(#SVGID_00000052067527414479554250000017781097165459346082_);">
			<path class="st1" d="M258.2,142.6h-56.9v-4.4h56.9V142.6"/>
		</g>
	</g>
</g>
<path class="st1" d="M183.9,87.4h-16.7V83h16.7V87.4"/>
<path class="st4" d="M146.6,66.7h-35.4v-4.4h35.4V66.7"/>
<path class="st4" d="M146.4,115.1h-24.9v-4.4h24.9V115.1"/>
<path class="st4" d="M164.2,128.9h-22v-4.4h22V128.9"/>
<path class="st4" d="M175.8,135.7h-23.1v-4.4h23.1V135.7"/>
<path class="st4" d="M183.9,142.6h-30.7v-4.4h30.7V142.6"/>
<path class="st1" d="M243.4,135.7h-24.6v-4.4h24.6V135.7"/>
<path class="st1" d="M195,128.9h-27v-4.4h27V128.9"/>
<path class="st1" d="M220.8,128.9h-20.9v-4.4h20.9V128.9"/>
<path class="st4" d="M172.5,122h-38.9v-4.4h38.9V122"/>
<path class="st1" d="M184.4,122h-8.2v-4.4h8.2V122"/>
<path class="st1" d="M196.4,142.6h-8.2v-4.4h8.2V142.6"/>
<path class="st1" d="M235,129h-8.2v-4.4h8.2V129"/>
<path class="st1" d="M255.8,135.5h-9.2v-4.4h9.2V135.5"/>
<path class="st1" d="M207.4,115h-53.6v-4.4h53.6V115"/>
<path class="st1" d="M200.3,73.5h-58.4v-4.4h58.4L200.3,73.5"/>
<path class="st1" d="M240.8,73.5h-36.7v-4.4h36.7V73.5"/>
<g>
	<g>
		<defs>
			<rect id="SVGID_00000101098438834981565840000006643990051002507956_" x="245.3" y="68" width="12.8" height="6.7"/>
		</defs>
		<clipPath id="SVGID_00000024690936499829976820000015324840854473758341_">
			<use xlink:href="#SVGID_00000101098438834981565840000006643990051002507956_"  style="overflow:visible;"/>
		</clipPath>
		<g style="clip-path:url(#SVGID_00000024690936499829976820000015324840854473758341_);">
			<path class="st1" d="M258.2,73.5h-12.3v-4.4h12.3V73.5"/>
		</g>
	</g>
</g>
<path class="st4" d="M133.6,73.5h-22.4v-4.4h22.4V73.5"/>
<path class="st1" d="M154.6,94.2h-21v-4.4h21V94.2"/>
<path class="st1" d="M220.8,94.3h-59.3v-4.4h59.3V94.3"/>
<path class="st1" d="M205.5,60.6h-44.9V15.8h44.9V60.6"/>
<path class="st2" d="M200.7,57.3h-38.3l9.9-12l5.5,5.4l9.9-13.7L200.7,57.3"/>
<path class="st2" d="M176.1,32.4c0,2.3-1.9,4.2-4.2,4.2s-4.2-1.9-4.2-4.2s1.9-4.2,4.2-4.2C174.2,28.1,176.1,30,176.1,32.4"/>
<path d="M208.5,190h25.7v-26.5h-25.7V190z M234.5,190.5h-26.2c-0.1,0-0.2-0.1-0.2-0.2v-27c0-0.1,0.1-0.2,0.2-0.2h26.2
	c0.1,0,0.2,0.1,0.2,0.2v27C234.7,190.4,234.6,190.5,234.5,190.5"/>
<path class="st7" d="M238.7,193.5h-26.2v-26.2h26.2V193.5"/>
<path d="M216,180.5V179l5.4-2.5v1.3l-4.1,1.8v0.1l4.1,1.9v1.3L216,180.5"/>
<path d="M227.6,175h1.2l-5,10.7h-1.2L227.6,175"/>
<path d="M235.4,179.1v1.5l-5.4,2.5v-1.3l4.1-1.9v-0.1L230,178v-1.3L235.4,179.1"/>
<path d="M111.5,50.7h37.3V20.9h-37.3V50.7z M149.2,51.2h-38.1c-0.2,0-0.4-0.1-0.4-0.3V20.7c0-0.1,0.2-0.3,0.4-0.3h38.1
	c0.2,0,0.4,0.1,0.4,0.3V51C149.6,51.1,149.4,51.2,149.2,51.2"/>
<path id="SVGID_x5F_00000111909346825260851560000007843842868745939103_x5F_" class="st8" d="M142,51.2h-26.5V24.7H142V51.2"/>
<text transform="matrix(-1.836970e-16 -1 1 -1.836970e-16 115.5 37.2773)" class="st9 st10"> </text>
<text class="st9 st10"> </text>
<path class="st4" d="M121.1,138.6L104.2,117h18.6l7.8,9.1c3,3.5,7.4,5.5,12,5.5H156v13h-22.5C128.7,144.7,124.1,142.4,121.1,138.6"
	/>
<path class="st4" d="M180,137.9l-0.5,1l-4.9-0.3l-3.9-4.3h-31.6v-2.5h11.1c1.6,0,6-2.6,9.7-2.6h6.6c2.1,0,4.2,0.5,6.1,1.4l5.9,2.9
	C180.1,134.3,180.8,136.3,180,137.9"/>
<path class="st4" d="M174.2,140.7l5.4,2.7c1.2,0.6,2.6,0.1,3.1-1.1l0,0c0.7-1.4,0.1-3.1-1.3-3.8l-6.3-3.1c-1.9-0.9-4-1.4-6.1-1.4
	h-29.9v9.1h22.3l2.3-2.2c1.5-1.4,3.6-2.1,5.7-1.8C170.8,139.4,172.4,139.9,174.2,140.7"/>
<path class="st4" d="M163.9,140.7c0.5,0.1,1,0.1,1.6,0.1c0.2,0,1.1,0,4.3,0c1.6,0,2.9,1.3,2.9,2.9l0,0c0,1.6-1.3,2.9-2.9,2.9h-12.2
	c-8.5,0-8.1-6.5-8.1-6.5v-3.3h2.7C158.4,136.9,159.9,140,163.9,140.7"/>
<path d="M180.6,143.9c-0.4,0-0.8-0.1-1.1-0.3l-5.4-2.7c-1.5-0.7-3.1-1.2-4.7-1.5c-2-0.3-3.8,0.2-5.2,1.4c-0.1,0.1-0.3,0.1-0.3,0
	c-0.1-0.1-0.1-0.3,0-0.4c1.5-1.3,3.5-1.9,5.6-1.5c1.7,0.3,3.3,0.8,4.8,1.6l5.4,2.7c0.5,0.2,1.1,0.3,1.6,0.1s1-0.6,1.2-1.1
	c0.6-1.3,0.1-2.8-1.2-3.5l-6.3-3.1c-1.8-0.9-3.9-1.4-6-1.4h-2.3c-0.1,0-0.2-0.1-0.2-0.2c0-0.1,0.1-0.2,0.2-0.2h2.3
	c2.1,0,4.3,0.5,6.2,1.4l6.3,3.1c1.5,0.8,2.1,2.6,1.4,4.1c-0.3,0.6-0.8,1.1-1.5,1.3C181.2,143.8,180.9,143.9,180.6,143.9"/>
<path d="M169.8,146.9h-11.2c-3.4,0-5.7-0.6-7.3-1.9h-17.8l0,0c-4.9,0-9.6-2.3-12.6-6.2L104,117.2c-0.1-0.1-0.1-0.2,0-0.3
	c0-0.1,0.1-0.1,0.2-0.1h18.6c0.1,0,0.1,0,0.2,0.1l7.8,9.1c3,3.5,7.3,5.5,11.8,5.5l0,0h7.6c0.6,0,1.7-0.4,3-0.9
	c2-0.8,4.5-1.7,6.7-1.7h6.6c2.1,0,4.3,0.5,6.2,1.4l5.9,2.9c1.7,0.8,2.4,2.9,1.6,4.6c-0.1,0.1-0.2,0.2-0.3,0.1s-0.2-0.2-0.1-0.3
	c0.7-1.5,0.1-3.2-1.4-3.9l-5.9-2.9c-1.8-0.9-3.9-1.4-6-1.4h-6.6c-2.1,0-4.6,0.9-6.5,1.7c-1.4,0.5-2.4,0.9-3.1,0.9h-7.6l0,0
	c-4.6,0-9.1-2.1-12.2-5.7l-7.7-9h-18l16.6,21.2c2.9,3.7,7.5,6,12.2,6l0,0h17.9c0.1,0,0.1,0,0.2,0.1c1.5,1.3,3.7,1.9,7,1.9h11.2
	c1.5,0,2.6-1.2,2.6-2.6l0,0c0-0.7-0.3-1.4-0.8-1.9s-1.2-0.8-1.9-0.8h-1.6c-1.9,0-2.3,0-2.5,0c-0.8,0-2-0.1-2.8-0.4
	c-0.1,0-0.2-0.2-0.2-0.3s0.2-0.2,0.3-0.2c0.8,0.3,1.9,0.3,2.7,0.3l0,0c0.2,0,0.7,0,2.5,0h1.6c0.8,0,1.6,0.3,2.2,0.9
	c0.6,0.6,0.9,1.4,0.9,2.2l0,0C172.9,145.5,171.5,146.9,169.8,146.9"/>
<path class="st11" d="M120.2,153.3H60.5l4.1-38.4h45.9L120.2,153.3"/>
<path d="M60.8,153h59.1l-9.6-37.9H64.8L60.8,153z M120.2,153.5H60.5c-0.1,0-0.1,0-0.2-0.1c0-0.1-0.1-0.1-0.1-0.2l4.1-38.4
	c0-0.1,0.1-0.2,0.2-0.2h45.9c0.1,0,0.2,0.1,0.2,0.2l9.7,38.4c0,0.1,0,0.2,0,0.2C120.4,153.5,120.3,153.5,120.2,153.5"/>
<path d="M128.1,121H112c-0.1,0-0.2-0.1-0.2-0.2s0.1-0.2,0.2-0.2h16.1c0.1,0,0.2,0.1,0.2,0.2C128.4,120.9,128.2,121,128.1,121"/>
<g>
	<g>
		<defs>
			<rect id="SVGID_00000080909020248573463880000007806669015104475272_" x="51" y="94.7" width="78.4" height="26.7"/>
		</defs>
		<clipPath id="SVGID_00000096045158853912552660000010234305108690221975_">
			<use xlink:href="#SVGID_00000080909020248573463880000007806669015104475272_"  style="overflow:visible;"/>
		</clipPath>
		<g style="clip-path:url(#SVGID_00000096045158853912552660000010234305108690221975_);">
			<path class="st11" d="M51.3,121.2V115c0-10.6,8.6-19.2,19.2-19.2h26.4c8.2,0,16,3.9,20.9,10.5l10.7,14.4h-16.9L51.3,121.2"/>
		</g>
	</g>
</g>
<g>
	<g>
		<defs>
			<rect id="SVGID_00000137104547005363691640000006819398212647973529_" x="51" y="94.7" width="78.4" height="28"/>
		</defs>
		<clipPath id="SVGID_00000007412124872858788340000018246048024970796475_">
			<use xlink:href="#SVGID_00000137104547005363691640000006819398212647973529_"  style="overflow:visible;"/>
		</clipPath>
		<g style="clip-path:url(#SVGID_00000007412124872858788340000018246048024970796475_);">
			<path d="M76.2,121.4H51.3c-0.1,0-0.2-0.1-0.2-0.2V115c0-10.7,8.7-19.5,19.5-19.5H97c8.3,0,16.2,4,21.1,10.6l10.7,14.4
				c0.1,0.1,0.1,0.2,0,0.3c0,0.1-0.1,0.1-0.2,0.1h-16.5c-0.1,0-0.2-0.1-0.2-0.2s0.1-0.2,0.2-0.2h16l-10.4-14
				C112.8,99.9,105,96,96.9,96H70.5c-10.5,0-19,8.5-19,19v5.9h24.6c0.1,0,0.2,0.1,0.2,0.2C76.4,121.3,76.3,121.4,76.2,121.4"/>
		</g>
	</g>
</g>
<path d="M76.2,121.4c-0.1,0-0.2-0.1-0.2-0.2v-11.3c0-0.1,0.1-0.2,0.2-0.2s0.2,0.1,0.2,0.2v11.3C76.4,121.3,76.3,121.4,76.2,121.4"/>
<path d="M124.4,148.9h-12.5v4.4H199v-4.4H124.4"/>
<path d="M144,148.9l28.1-29.5h54.7L199,148.9H144"/>
<path class="st2" d="M112.1,153h86.6v-3.9h-86.6V153z M199,153.5h-87.1c-0.1,0-0.2-0.1-0.2-0.2v-4.4c0-0.1,0.1-0.2,0.2-0.2H199
	c0.1,0,0.2,0.1,0.2,0.2v4.4C199.3,153.4,199.2,153.5,199,153.5"/>
<path class="st2" d="M193.8,132.3c0,1.3-1.1,2.4-2.4,2.4c-1.3,0-2.4-1.1-2.4-2.4s1.1-2.4,2.4-2.4
	C192.7,129.8,193.8,130.9,193.8,132.3"/>
<path class="st4" d="M53,136.8l-0.1-15.6l20.7-0.1l-0.2,5.6c0,2.2,1.8,3.9,3.9,3.9h33.5v18.3H65.2C58.4,148.9,53,143.5,53,136.8"/>
<path class="st4" d="M130.9,136.2l2,2.1c1,1.1,1.1,2.7,0.2,3.9l-2,2.7l-4.7-5.3H96.7v-6.2h28C127,133.5,129.3,134.5,130.9,136.2"/>
<path class="st4" d="M130,132.4l1.1,1.2c1,1.1,1.1,2.7,0.2,3.9l-2,2.7l-4.7-5.3h-28v-4.3h4.8c2,0,5.5-1.9,9.9-1.9h10.3
	C124.8,128.7,127.8,130,130,132.4"/>
<path class="st4" d="M131.6,140.4l2.4,2.6c1,1.1,1.1,2.7,0.2,3.9l-2,2.7l-4.7-5.3h-18.4v-6.2h17.3
	C128.3,138.1,130.2,139,131.6,140.4"/>
<path class="st4" d="M130.7,145l2.5,2.7c0.9,1,1,2.5,0.2,3.6c-1.1,1.5-3.2,1.6-4.4,0.2l-1.3-1.5c-0.7-0.7-1.6-1.1-2.5-1.1h-15.5
	c-4.1,0-6.9-0.2-10.8-6.2h26.6C127.4,142.6,129.3,143.5,130.7,145"/>
<path d="M53,129.9l-0.1-8.8l20.5,0.2v4c-1.4-0.1-3.2-0.2-4.7-0.7c-2.2-0.7-4.3-1-6.4,1.9C59.6,130.3,56.1,130.7,53,129.9"/>
<path d="M133.3,142.5c-0.1,0-0.1,0-0.1,0c-0.1-0.1-0.1-0.2-0.1-0.3c0.8-1.1,0.6-2.5-0.3-3.5l-2-2.2c-1.6-1.7-3.8-2.6-6-2.6h-5.5
	c-0.1,0-0.2-0.1-0.2-0.2c0-0.1,0.1-0.2,0.2-0.2h5.5c2.4,0,4.8,1,6.4,2.8l2,2.2c1.1,1.2,1.3,2.9,0.4,4.1
	C133.4,142.4,133.3,142.5,133.3,142.5"/>
<path d="M133.5,148.2h-0.1c-0.1-0.1-0.1-0.2-0.1-0.3l0.8-1.1c0.8-1.1,0.7-2.6-0.2-3.6l-2.4-2.6c-1.3-1.4-3.1-2.2-5.1-2.2h-7.2
	c-0.1,0-0.2-0.1-0.2-0.2c0-0.1,0.1-0.2,0.2-0.2h7.2c2.1,0,4,0.9,5.4,2.4l2.4,2.6c1.1,1.2,1.2,3,0.3,4.2l-0.8,1.1
	C133.6,148.2,133.5,148.2,133.5,148.2"/>
<path d="M131.1,152.7c-0.9,0-1.7-0.4-2.3-1l-1.3-1.5c-0.6-0.7-1.5-1-2.3-1H108c-3.1,0-5.9-1.5-7.6-4.1c-0.1-0.1,0-0.3,0.1-0.3
	c0.1-0.1,0.3,0,0.3,0.1c1.6,2.4,4.3,3.8,7.2,3.8h17.1c1,0,2,0.4,2.7,1.2l1.4,1.5c0.5,0.6,1.3,0.9,2.1,0.9s1.5-0.4,2-1.1
	c0.7-1,0.6-2.4-0.2-3.3l-2.5-2.7c-1.3-1.4-3.2-2.2-5.2-2.2h-6c-0.1,0-0.2-0.1-0.2-0.2c0-0.1,0.1-0.2,0.2-0.2h6
	c2.1,0,4.1,0.9,5.5,2.4l2.5,2.7c1,1.1,1.1,2.7,0.2,3.9c-0.6,0.8-1.4,1.2-2.4,1.3C131.2,152.7,131.2,152.7,131.1,152.7"/>
<path d="M65.1,149.1c-3.3,0-6.4-1.3-8.8-3.6c-2.3-2.3-3.6-5.4-3.6-8.8l-0.1-15.6c0-0.1,0-0.1,0.1-0.2s0.1-0.1,0.2-0.1l20.5,0.1
	c0.1,0,0.2,0.1,0.2,0.2v5.4c0,1,0.4,1.9,1.1,2.6c0.7,0.7,1.6,1.1,2.6,1.1h23.3c1.8,0,3.2-0.4,4.6-0.8c1.8-0.5,3.8-1,6.8-1h9.6
	c3.2,0,6.3,1.4,8.5,3.7l1.1,1.2c0.9,1,1.2,2.5,0.6,3.7c-0.1,0.1-0.2,0.2-0.3,0.1c-0.1-0.1-0.2-0.2-0.1-0.3c0.5-1.1,0.3-2.3-0.5-3.2
	l-1.1-1.2c-2.1-2.3-5.1-3.6-8.2-3.6H112c-3,0-5,0.5-6.7,1c-1.5,0.4-2.9,0.8-4.8,0.8H77.3c-1.1,0-2.2-0.4-2.9-1.2
	c-0.8-0.8-1.2-1.8-1.2-2.9v-5.2l-20-0.1l0.1,15.4c0,3.2,1.2,6.2,3.5,8.4c2.2,2.2,5.2,3.5,8.4,3.5l0,0h48.7c0.1,0,0.2,0.1,0.2,0.2
	c0,0.1-0.1,0.2-0.2,0.2H65.1C65.1,149.1,65.1,149.1,65.1,149.1"/>
<path d="M88.5,78.2c-1.8,1.8-1.8,4.6,0,6.4s4.7,1.8,6.4,0c1.8-1.8,1.8-4.6,0-6.4C93.2,76.4,90.3,76.4,88.5,78.2"/>
<path d="M75.2,80.3c-1.8,1.8-1.8,4.6,0,6.4s4.7,1.8,6.4,0c1.8-1.8,1.8-4.6,0-6.4C79.9,78.6,77,78.6,75.2,80.3"/>
<path d="M75.7,74.5c-1.8,1.8-1.8,4.6,0,6.4s4.7,1.8,6.4,0c1.8-1.8,1.8-4.6,0-6.4C80.4,72.7,77.5,72.8,75.7,74.5"/>
<path d="M80.9,71.6c-1.8,1.8-1.8,4.6,0,6.4s4.7,1.8,6.4,0c1.8-1.8,1.8-4.6,0-6.4C85.6,69.8,82.7,69.8,80.9,71.6"/>
<path d="M85.4,73.4c-1.8,1.8-1.8,4.6,0,6.4s4.7,1.8,6.4,0c1.8-1.8,1.8-4.6,0-6.4C90.1,71.7,87.2,71.7,85.4,73.4"/>
<path class="st4" d="M80.4,96.1l7.5,7.8V87h-7.5V96.1"/>
<path d="M80.4,89.9V87h7.5v6.3c-0.7,0.1-2,0.3-3.6-0.2C81.9,92.3,80.7,90.4,80.4,89.9"/>
<path class="st4" d="M79.2,85c0,3.6,2.7,6.6,6,6.6s6-2.9,6-6.6c0-3.6-2.7-6.6-6-6.6C81.9,78.4,79.2,81.3,79.2,85"/>
<path d="M85.2,91.8c-1.9,0-3.2-0.3-4.8-2c-0.1-0.1-0.1-0.3,0-0.3c0.1-0.1,0.3-0.1,0.4,0c1.5,1.6,2.6,1.9,4.4,1.9
	c3.2,0,5.7-2.8,5.7-6.3s-2.6-6.3-5.7-6.3c-2,0-3.9,1.1-4.9,3.1C80.2,82,80.1,82.1,80,82c-0.1-0.1-0.2-0.2-0.1-0.3
	c1.1-2,3.2-3.3,5.4-3.3c3.4,0,6.2,3.1,6.2,6.8C91.5,88.7,88.7,91.8,85.2,91.8"/>
<path class="st2" d="M82.5,86.7c0.1,0.7,0.4,1.3,0.9,1.8c1.2,1.1,2.9,1.2,4.2,0.2L82.5,86.7"/>
<path d="M85.2,78.4c-3.3,0-6,2.9-6,6.6c0,0.3,0,0.6,0.1,1l1.3-3L91,83.1C90.2,80.4,87.9,78.4,85.2,78.4"/>
<g>
	<g>
		<defs>
			<rect id="SVGID_00000013875208895291637140000017862360976065635460_" x="81.3" y="165.3" width="46.7" height="40.6"/>
		</defs>
		<clipPath id="SVGID_00000178199669499604623050000009663110524309613461_">
			<use xlink:href="#SVGID_00000013875208895291637140000017862360976065635460_"  style="overflow:visible;"/>
		</clipPath>
		<g style="clip-path:url(#SVGID_00000178199669499604623050000009663110524309613461_);">
			<path class="st1" d="M81.7,205.7h29.8l16-39.4H97.6L81.7,205.7"/>
		</g>
	</g>
</g>
<path d="M92.5,179l5.2-12.8h29.8l-7.4,18.4c-5.7-0.2-5-3.8-12-3.2C100.2,182.1,97.2,182.2,92.5,179"/>
<g>
	<g>
		<defs>
			<rect id="SVGID_00000165220390900976887390000004228840886241589162_" x="61.3" y="152" width="105.3" height="54"/>
		</defs>
		<clipPath id="SVGID_00000036212392700863110130000016391730909507264129_">
			<use xlink:href="#SVGID_00000165220390900976887390000004228840886241589162_"  style="overflow:visible;"/>
		</clipPath>
		<g style="clip-path:url(#SVGID_00000036212392700863110130000016391730909507264129_);">
			<path class="st1" d="M61.8,157.5l0.7-4.3h69.8c6,0,11.5,3.5,14,9l19.7,43.5h-31.5l-12.1-26.8H80C68.6,178.8,60,168.7,61.8,157.5"
				/>
		</g>
	</g>
</g>
<path class="st16" d="M147.8,165.5c-1.3,0.3-2.7,0.5-4.1,0.5c-8.2,0-15.2-5.4-17.6-12.8h6.3c6,0,11.5,3.5,14,9L147.8,165.5"/>
<g>
	<g>
		<defs>
			<rect id="SVGID_00000163772318956976921150000003771319367929841541_" x="60" y="152" width="106.7" height="54"/>
		</defs>
		<clipPath id="SVGID_00000163751596551261574100000007931424915522818701_">
			<use xlink:href="#SVGID_00000163772318956976921150000003771319367929841541_"  style="overflow:visible;"/>
		</clipPath>
		<g style="clip-path:url(#SVGID_00000163751596551261574100000007931424915522818701_);">
			<path d="M134.5,205.9c-0.1,0-0.2-0.1-0.2-0.1l-12-26.7H80c-5.5,0-10.7-2.4-14.2-6.6c-3.6-4.2-5.1-9.7-4.2-15.1l0.7-4.5h70
				c6.1,0,11.7,3.6,14.2,9.2l19.7,43.5c0.1,0.1,0,0.3-0.1,0.3c-0.1,0.1-0.3,0-0.3-0.1l-19.7-43.5c-2.4-5.4-7.8-8.9-13.7-8.9H62.8
				l-0.7,4.1c-0.9,5.3,0.6,10.6,4.1,14.7c3.4,4.1,8.5,6.4,13.8,6.4h42.7l12.1,27c0.1,0.1,0,0.3-0.1,0.3
				C134.6,205.9,134.6,205.9,134.5,205.9"/>
		</g>
	</g>
</g>
<path d="M62.1,156c34.6,3.6,23.2-1.7,58.5-2.5l-0.1-0.5l-57.8,0.2C62.6,153.2,62.3,154.9,62.1,156"/>
<g>
	<g>
		<defs>
			<rect id="SVGID_00000176004510083440944820000010539185386055734716_" x="51" y="152" width="146.4" height="8"/>
		</defs>
		<clipPath id="SVGID_00000014614077418196071310000010645929548863977388_">
			<use xlink:href="#SVGID_00000176004510083440944820000010539185386055734716_"  style="overflow:visible;"/>
		</clipPath>
		<g style="clip-path:url(#SVGID_00000014614077418196071310000010645929548863977388_);">
			<path d="M51.5,158.5h144.4v-5H51.5V158.5z M196.3,159H51v-6h145.4L196.3,159"/>
		</g>
	</g>
</g>
<g>
	<g>
		<defs>
			<rect id="SVGID_00000111876597822128045720000011693960703905755837_" x="181.3" y="157.3" width="8" height="48.6"/>
		</defs>
		<clipPath id="SVGID_00000102533335153811388940000005826872328113569940_">
			<use xlink:href="#SVGID_00000111876597822128045720000011693960703905755837_"  style="overflow:visible;"/>
		</clipPath>
		<g style="clip-path:url(#SVGID_00000102533335153811388940000005826872328113569940_);">
			<path d="M188.1,205.9c-0.1,0-0.2-0.1-0.2-0.2V159h-5v46.7c0,0.1-0.1,0.2-0.2,0.2c-0.1,0-0.2-0.1-0.2-0.2v-47.2h6v47.2
				C188.4,205.8,188.2,205.9,188.1,205.9"/>
		</g>
	</g>
</g>
<g>
	<g>
		<defs>
			<rect id="SVGID_00000068653706031215600850000003067930487911973780_" x="58.7" y="157.3" width="6.7" height="48.6"/>
		</defs>
		<clipPath id="SVGID_00000095307916450874967570000014286667190138698418_">
			<use xlink:href="#SVGID_00000068653706031215600850000003067930487911973780_"  style="overflow:visible;"/>
		</clipPath>
		<g style="clip-path:url(#SVGID_00000095307916450874967570000014286667190138698418_);">
			<path d="M64.7,205.9c-0.1,0-0.2-0.1-0.2-0.2V159h-5v46.7c0,0.1-0.1,0.2-0.2,0.2c-0.1,0-0.2-0.1-0.2-0.2v-47.2h6v47.2
				C64.9,205.8,64.8,205.9,64.7,205.9"/>
		</g>
	</g>
</g>
<path d="M227.9,28.2h25.7V1.7h-25.7V28.2z M253.8,28.7h-26.2c-0.1,0-0.2-0.1-0.2-0.2v-27c0-0.1,0.1-0.2,0.2-0.2h26.2
	c0.1,0,0.2,0.1,0.2,0.2v27C254.1,28.6,253.9,28.7,253.8,28.7"/>
<g>
	<g>
		<defs>
			<rect id="SVGID_00000170975466999930393140000000280627024506859661_" x="230.7" y="5.3" width="27.5" height="26.7"/>
		</defs>
		<clipPath id="SVGID_00000042003249425728593480000014878093313784843672_">
			<use xlink:href="#SVGID_00000170975466999930393140000000280627024506859661_"  style="overflow:visible;"/>
		</clipPath>
		<g style="clip-path:url(#SVGID_00000042003249425728593480000014878093313784843672_);">
			<path class="st7" d="M258.1,31.6h-26.2V5.4h26.2V31.6"/>
		</g>
	</g>
</g>
<path d="M233.3,19.2v-1.5l5.4-2.5v1.3l-4.1,1.8v0.1l4.1,1.9v1.3L233.3,19.2"/>
<path d="M253.7,17.8v1.5l-5.4,2.5v-1.3l4.1-1.9v-0.1l-4.1-1.8v-1.3L253.7,17.8"/>
<path d="M244.9,13.2h1.2l-5,10.7h-1.2L244.9,13.2"/>
<path class="st7" d="M158.1,58.1h-42.3V24.2h42.3V58.1"/>
<text transform="matrix(1 0 0 1 121.257 36.599)" class="st22 st10">Project</text>
<g>
	<g>
		<defs>
			<rect id="SVGID_00000145060571858989045640000006004148911461613440_" x="118.2" y="39.4" width="12.8" height="4.2"/>
		</defs>
		<clipPath id="SVGID_00000049940709006264849640000013830719770481835681_">
			<use xlink:href="#SVGID_00000145060571858989045640000006004148911461613440_"  style="overflow:visible;"/>
		</clipPath>
		<g style="clip-path:url(#SVGID_00000049940709006264849640000013830719770481835681_);">
			<path class="st1" d="M131,42.8h-12.3V40H131V42.8"/>
		</g>
	</g>
</g>
<path class="st1" d="M152.3,47.7h-16.7v-4.4h16.7V47.7"/>
<path class="st1" d="M134.3,53.7h-16.7v-4.4h16.7V53.7"/>
</svg>
