<?xml version="1.0" encoding="utf-8"?>
<!-- Generator: Adobe Illustrator 26.0.1, SVG Export Plug-In . SVG Version: 6.00 Build 0)  -->
<svg version="1.1" id="Layer_1" xmlns="http://www.w3.org/2000/svg" xmlns:xlink="http://www.w3.org/1999/xlink" x="0px" y="0px"
	 width="309px" height="207px" viewBox="0 0 309 207" style="enable-background:new 0 0 309 207;" xml:space="preserve">
<style type="text/css">
	.st0{fill:#FDA4FF;}
	.st1{clip-path:url(#SVGID_00000163787834283611054130000003441721663800812681_);}
	.st2{clip-path:url(#SVGID_00000072977319606222867840000003304406074382951553_);}
	.st3{fill:#FFE471;}
	.st4{fill:#020202;}
	.st5{fill:#B4AEFF;}
	.st6{fill:#955B50;}
	.st7{fill:#FFFFFF;}
	.st8{clip-path:url(#SVGID_00000105425724156626672700000008987280198384866205_);}
	.st9{clip-path:url(#SVGID_00000116933373248265227040000002017752636754494598_);}
	.st10{fill:#6155FF;}
	.st11{fill:#4ADA85;}
</style>
<path class="st0" d="M121.5,35.9c-2.9,0.9-6-0.8-6.9-3.8c-0.9-2.9,0.8-6,3.8-6.9c2.9-0.9,6,0.8,6.9,3.8
	C126.2,32,124.5,35.1,121.5,35.9z M132.2,29.3l-1.2-4.2l-2.6,0.8c-0.5-0.9-1.2-1.7-1.9-2.4l1.3-2.4l-3.9-2.1l-1.3,2.4
	c-1-0.3-2-0.4-3-0.3l-0.8-2.6l-4.2,1.2l0.8,2.6c-0.9,0.5-1.7,1.2-2.4,1.9l-2.4-1.3l-2.1,3.9l2.4,1.3c-0.3,1-0.4,2-0.3,3l-2.7,0.9
	l1.3,4.1l2.6-0.8c0.5,0.9,1.2,1.7,1.9,2.4l-1.3,2.4l3.9,2.1l1.3-2.4c1,0.3,2,0.4,3,0.3l0.8,2.6l4.2-1.2l-0.8-2.6
	c0.9-0.5,1.7-1.2,2.4-1.9l2.4,1.3l2.1-3.9l-2.4-1.3c0.3-1,0.4-2,0.3-3L132.2,29.3"/>
<path class="st0" d="M147.4,22.3c-3.8,1.1-7.7-1-8.8-4.8c-1.1-3.7,1.1-7.7,4.8-8.8c3.8-1.1,7.7,1,8.8,4.8S151.2,21.2,147.4,22.3z
	 M161,13.9l-1.6-5.4l-3.4,1c-0.6-1.1-1.5-2.2-2.4-3l1.7-3.1l-4.9-2.7l-1.7,3.1c-1.2-0.3-2.5-0.5-3.8-0.4l-1-3.4l-5.4,1.6l1,3.4
	c-1.2,0.7-2.2,1.5-3,2.4l-3.1-1.7l-2.7,4.9l3.1,1.7c-0.3,1.2-0.5,2.5-0.4,3.8l-3.4,1.2l1.6,5.2l3.4-1c0.7,1.1,1.5,2.2,2.4,3
	l-1.7,3.1l4.9,2.7l1.7-3.1c1.2,0.3,2.5,0.5,3.9,0.4l1,3.4l5.4-1.6l-1-3.4c1.1-0.7,2.2-1.5,3-2.4l3.1,1.7l2.7-4.9l-3.1-1.7
	c0.3-1.2,0.5-2.5,0.4-3.8L161,13.9"/>
<g>
	<g>
		<defs>
			<rect id="SVGID_1_" x="178.7" width="78.5" height="5.3"/>
		</defs>
		<clipPath id="SVGID_00000147919575188250773550000004510360979508735129_">
			<use xlink:href="#SVGID_1_"  style="overflow:visible;"/>
		</clipPath>
		<g style="clip-path:url(#SVGID_00000147919575188250773550000004510360979508735129_);">
			<path d="M180.3,4.6h76.3V0.5h-76.3V4.6z M256.9,5.1h-76.8c-0.1,0-0.2-0.1-0.2-0.2V0.2c0-0.1,0.1-0.2,0.2-0.2h76.8
				c0.1,0,0.2,0.1,0.2,0.2v4.6C257.2,4.9,257,5.1,256.9,5.1"/>
		</g>
	</g>
</g>
<g>
	<g>
		<defs>
			<rect id="SVGID_00000094608756987696415050000000611315556967414193_" x="178.7" y="4" width="78.5" height="49.3"/>
		</defs>
		<clipPath id="SVGID_00000106848994865895860270000000449028642473328301_">
			<use xlink:href="#SVGID_00000094608756987696415050000000611315556967414193_"  style="overflow:visible;"/>
		</clipPath>
		<g style="clip-path:url(#SVGID_00000106848994865895860270000000449028642473328301_);">
			<path d="M180.3,52.6h76.3V5.1h-76.3V52.6z M256.9,53.1h-76.8c-0.1,0-0.2-0.1-0.2-0.2v-48c0-0.1,0.1-0.2,0.2-0.2h76.8
				c0.1,0,0.2,0.1,0.2,0.2v48C257.2,52.9,257,53.1,256.9,53.1"/>
		</g>
	</g>
</g>
<path d="M182.7,1.7c-0.5,0-0.9,0.4-0.9,0.9s0.4,0.9,0.9,0.9s0.9-0.4,0.9-0.9C183.6,2.1,183.2,1.7,182.7,1.7z M182.7,3.9
	c-0.8,0-1.4-0.6-1.4-1.3c0-0.8,0.6-1.4,1.4-1.4c0.8,0,1.4,0.6,1.4,1.4C184.1,3.3,183.5,3.9,182.7,3.9"/>
<path d="M186.6,1.7c-0.5,0-0.9,0.4-0.9,0.9s0.4,0.9,0.9,0.9s0.9-0.4,0.9-0.9S187.1,1.7,186.6,1.7z M186.6,3.9
	c-0.8,0-1.4-0.6-1.4-1.3c0-0.8,0.6-1.4,1.4-1.4c0.8,0,1.4,0.6,1.4,1.4C188,3.3,187.4,3.9,186.6,3.9"/>
<path d="M190.5,1.7c-0.5,0-0.9,0.4-0.9,0.9s0.4,0.9,0.9,0.9s0.9-0.4,0.9-0.9S191,1.7,190.5,1.7z M190.5,3.9c-0.8,0-1.4-0.6-1.4-1.3
	c0-0.8,0.6-1.4,1.4-1.4c0.8,0,1.4,0.6,1.4,1.4C191.9,3.3,191.3,3.9,190.5,3.9"/>
<path class="st3" d="M224.3,41.8l3,10.8h18.9l-2.3-7.5l-5.3-9.7L224.3,41.8"/>
<path d="M246.2,53.1c-0.1,0-0.2-0.1-0.2-0.2c0-0.1-2-6.9-2.7-8.4c-1-2.3-4.9-8.9-4.9-8.9c-0.1-0.1,0-0.3,0.1-0.3
	c0.1-0.1,0.3,0,0.3,0.1c0.2,0.3,3.9,6.7,5,9c0.7,1.6,2.6,8.2,2.7,8.5C246.5,52.9,246.4,53,246.2,53.1
	C246.3,53,246.2,53.1,246.2,53.1"/>
<path class="st3" d="M238.3,52.6l-5.1-14.5l-14.3,5.6l0.1,8.9H238.3"/>
<path class="st4" d="M218.9,48.1l22.8-7.4l-2.9-5.2l-21.2,8.6L218.9,48.1"/>
<path class="st5" d="M245.1,12.1l-58.4,0.3c-3.3,0-5.9,2.7-5.9,6s2.7,5.9,6,5.9l15.1-0.1l14.9,23.3L241,37.4L233.3,24l11.8-0.1
	c3.3,0,5.9-2.7,5.9-6C251,14.7,248.3,12.1,245.1,12.1"/>
<path d="M203.5,31.8h3.9V10.2L204.3,7L203.5,31.8"/>
<path class="st6" d="M214.7,14.4l-2.6,4.2l-4.4-6.9l3.7-2.4L214.7,14.4"/>
<path d="M212.4,10.8l-0.9-1.4l-3.7,2.4l2,3.1c0.4-0.1,1.1-0.5,1.7-1.2C212.4,12.5,212.4,11.2,212.4,10.8"/>
<path class="st6" d="M211.8,7.2c1.2,1.9,0.8,4.7-1.1,5.8c-1.8,1-4.1,0.3-5-1.7c-0.9-1.9-0.5-4.3,1.1-5.4
	C208.4,4.9,210.6,5.3,211.8,7.2"/>
<path class="st7" d="M210.6,10.4c-0.1,0.5-0.4,0.9-0.8,1.2c-0.9,0.7-2.1,0.6-2.9-0.1L210.6,10.4"/>
<path d="M208.2,6.3c0,0-5.7-3.1-3.1,17.3l1.2,8.3h-8.1c0,0,4.2-18.2,4.5-19.7c0.9-4.3,1.3-9.7,5.2-8.9L208.2,6.3"/>
<path d="M211.9,31.9h7.8c0,0-4.5-21.5-4.8-23.2s-1.2-3.4-2.5-4.5c-0.8-0.6-2.5-1.9-4.5-0.8l0.3,3c0,0,1.3-0.8,2.5,0.4
	c1.4,1.9,1.2,4.8,1.2,4.8V31.9"/>
<path d="M214.6,7.5l1.9,4.8h-1.4L214.6,7.5"/>
<path class="st7" d="M218.9,137.3H62.3V31.9h156.5L218.9,137.3"/>
<path d="M62.6,137h156V32.1h-156C62.6,32.1,62.6,137,62.6,137z M218.9,137.5H62.3c-0.1,0-0.2-0.1-0.2-0.2V31.9
	c0-0.1,0.1-0.2,0.2-0.2h156.5c0.1,0,0.2,0.1,0.2,0.2v105.4C219.1,137.4,219,137.5,218.9,137.5"/>
<path class="st7" d="M68.4,38v93.1h144.2V38H68.4"/>
<path d="M68.6,130.9h143.7V38.3H68.6V130.9z M212.6,131.4H68.4c-0.1,0-0.2-0.1-0.2-0.2V38c0-0.1,0.1-0.2,0.2-0.2h144.2
	c0.1,0,0.2,0.1,0.2,0.2v93.1C212.8,131.3,212.7,131.4,212.6,131.4"/>
<path d="M116.1,170.3H165v-32.8h-48.9V170.3z M165.3,170.8h-49.4c-0.1,0-0.2-0.1-0.2-0.2v-33.3c0-0.1,0.1-0.2,0.2-0.2h49.4
	c0.1,0,0.2,0.1,0.2,0.2v33.3C165.5,170.7,165.4,170.8,165.3,170.8"/>
<path d="M85.5,185.5h110.2l-0.8-0.9c-8.1-8.8-19.7-13.8-31.6-13.8h-45.4c-12,0-23.5,5-31.6,13.8L85.5,185.5z M196.3,186H84.9
	c-0.1,0-0.2-0.1-0.2-0.1c0-0.1,0-0.2,0-0.3l1.2-1.3c8.2-8.9,19.9-14,32-14h45.4c12.1,0,23.7,5.1,32,14l1.2,1.3
	c0.1,0.1,0.1,0.2,0,0.3C196.5,185.9,196.4,186,196.3,186"/>
<path class="st5" d="M156.5,124.8V45.7H73.9v79.2L156.5,124.8"/>
<path class="st7" d="M119.5,74.8H90.7v-2.1h28.8V74.8"/>
<path class="st7" d="M104.1,62.8H90.7v-2.1H104L104.1,62.8"/>
<path class="st7" d="M114.8,62.8h-8v-2.1h8V62.8"/>
<path class="st3" d="M106.2,99H95.1v-2.1h11.1V99"/>
<path class="st3" d="M97.1,117.1H83.2V115h13.9V117.1"/>
<path class="st7" d="M130.1,117.1H99.4V115H130v2.1"/>
<path class="st3" d="M150.4,92.9h-27.2v-2.1h27.2V92.9"/>
<path class="st7" d="M114.8,92.9h-14.7v-2.1h14.7V92.9"/>
<path class="st3" d="M120.8,92.9h-4v-2.1h4V92.9"/>
<path class="st3" d="M101.2,105H89.7v-2.1h11.4L101.2,105"/>
<path class="st7" d="M134.6,105h-12.9v-2.1h12.9V105"/>
<path class="st7" d="M120.5,105h-17.2v-2.1h17.2V105"/>
<path class="st7" d="M140.6,105h-4v-2.1h4V105"/>
<path class="st7" d="M105.3,86.9H94.8v-2.1h10.5V86.9"/>
<path class="st3" d="M120.1,86.9h-12.9v-2.1h12.9V86.9"/>
<path class="st7" d="M132.5,86.9h-10v-2.1h10V86.9"/>
<path class="st7" d="M139.3,86.9h-3.9v-2.1h3.9V86.9"/>
<path class="st3" d="M126.1,80.9h-25.6v-2.1h25.6V80.9"/>
<path class="st3" d="M110.6,56.7H85.2v-2.1h25.4V56.7"/>
<path class="st7" d="M139.3,56.8h-24.1v-2.1h24.1V56.8"/>
<path class="st7" d="M150.4,56.8h-7.9v-2.1h7.9V56.8"/>
<path class="st7" d="M149.2,111h-25.1v-2.1h25.1V111"/>
<path class="st7" d="M111.3,111H95.4v-2.1h15.9V111"/>
<path class="st7" d="M140.1,68.8h-5v-2.1h5V68.8"/>
<path class="st3" d="M100.8,68.8H88.1v-2.1h12.6v2.1"/>
<path class="st3" d="M132.5,68.8h-28.4v-2.1h28.4V68.8"/>
<path class="st6" d="M182.6,51.8l-2.4,0.4l0.5,5c0.1,0.7,0.7,1.2,1.4,1.1c0.7-0.1,1.2-0.8,1.1-1.5L182.6,51.8"/>
<path class="st6" d="M180,50.9l-2.4,0.4l0.5,5c0.1,0.7,0.7,1.2,1.4,1.1c0.7-0.1,1.2-0.8,1.1-1.5L180,50.9"/>
<path class="st6" d="M177.5,50.9l-2.2,0.4l0.5,4.5c0.1,0.7,0.6,1.1,1.2,1c0.6-0.1,1-0.7,1-1.4L177.5,50.9"/>
<path class="st6" d="M185.3,53.5l-2.4-0.5l-2.1,9.7c-0.1,0.7,0.3,1.3,0.9,1.5c0.7,0.1,1.3-0.3,1.5-0.9L185.3,53.5"/>
<path class="st6" d="M187.5,45.1l-3.4,3.7l4.4,7.4c0.3,0.6,1.1,0.9,1.7,0.5c0.6-0.4,0.8-1.2,0.5-1.8l-1.7-3.5L187.5,45.1"/>
<path class="st6" d="M187.4,44.9l0.9-8.1l-9.1-0.8l-0.9,7.2l-2.9,8.1l9.9,2.2L187.4,44.9"/>
<path class="st4" d="M188.3,36.8l-9.1-0.8l-0.4,2.7l9,3.8L188.3,36.8"/>
<path d="M181.5,58.6L181.5,58.6c-0.9-0.1-1-1-1-1.3l-0.5-4.4c0-0.1,0.1-0.3,0.2-0.3c0.1,0,0.3,0.1,0.3,0.2l0.5,4.4
	c0.1,0.7,0.3,0.8,0.6,0.9c0.1,0,0.2,0.2,0.2,0.3C181.7,58.5,181.6,58.6,181.5,58.6"/>
<path d="M179.3,57.7c-0.3,0-0.6-0.1-0.8-0.3c-0.3-0.2-0.5-0.6-0.6-1.1l-0.5-4.4c0-0.1,0.1-0.3,0.2-0.3s0.3,0.1,0.3,0.2l0.5,4.4
	c0,0.3,0.2,0.6,0.4,0.7c0.2,0.1,0.4,0.2,0.7,0.2c0.5-0.1,0.9-0.7,0.9-1.3l-0.3-3.1c0-0.1,0.1-0.3,0.2-0.3c0.1,0,0.3,0.1,0.3,0.2
	l0.3,3.1c0.1,0.9-0.5,1.7-1.3,1.8C179.4,57.7,179.4,57.7,179.3,57.7"/>
<path d="M176.9,57c-0.3,0-0.5-0.1-0.8-0.3s-0.5-0.6-0.5-1l-0.5-4.5c0-0.1,0.1-0.3,0.2-0.3c0.1,0,0.3,0.1,0.3,0.2l0.5,4.5
	c0,0.3,0.2,0.5,0.3,0.6c0.2,0.1,0.4,0.2,0.6,0.1c0.5-0.1,0.8-0.6,0.8-1.1l-0.4-3.5c0-0.1,0.1-0.3,0.2-0.3c0.1,0,0.3,0.1,0.3,0.2
	l0.4,3.5c0.1,0.8-0.4,1.5-1.2,1.6C177,57,177,57,176.9,57"/>
<path d="M182,64.4c-0.1,0-0.2,0-0.3,0c-0.4-0.1-0.7-0.3-0.9-0.6c-0.2-0.3-0.3-0.7-0.2-1.1l1.9-9.7c0-0.1,0.2-0.2,0.3-0.2
	s0.2,0.2,0.2,0.3l-1.9,9.7c-0.1,0.3,0,0.5,0.1,0.7s0.4,0.4,0.6,0.4c0.5,0.1,1-0.2,1.2-0.7l2.1-9.7c0-0.1,0.2-0.2,0.3-0.2
	s0.2,0.2,0.2,0.3l-2.1,9.7C183.3,63.9,182.6,64.4,182,64.4"/>
<path d="M189.6,57.1c-0.1,0-0.2,0-0.4-0.1c-0.4-0.1-0.7-0.4-0.9-0.8l-2.8-4.6c-0.1-0.1,0-0.3,0.1-0.3c0.1-0.1,0.3,0,0.3,0.1l2.8,4.6
	c0.1,0.3,0.3,0.4,0.6,0.5c0.2,0.1,0.5,0,0.7-0.1c0.5-0.3,0.7-1,0.4-1.5l-1.7-3.5c0,0,0,0,0-0.1l-1.6-6.4v-0.1l0.8-6.7
	c0-0.1,0.1-0.2,0.3-0.2c0.1,0,0.2,0.1,0.2,0.3l-0.8,6.7l1.6,6.3l1.7,3.5c0.4,0.8,0.1,1.7-0.6,2.2C190.2,57,189.9,57.1,189.6,57.1"/>
<path d="M185.3,53.7C185.3,53.7,185.2,53.7,185.3,53.7c-0.2,0-0.3-0.2-0.2-0.3l1-3.8c0-0.1,0.2-0.2,0.3-0.2s0.2,0.2,0.2,0.3l-1,3.8
	C185.5,53.6,185.4,53.7,185.3,53.7"/>
<path d="M175.4,51.5C175.3,51.5,175.3,51.5,175.4,51.5c-0.2-0.1-0.3-0.2-0.2-0.3l2.9-8l0.7-5.8c0-0.1,0.1-0.2,0.3-0.2
	c0.1,0,0.2,0.1,0.2,0.3l-0.7,5.8c0,0,0,0,0,0.1l-2.9,8.1C175.6,51.5,175.5,51.5,175.4,51.5"/>
<path class="st5" d="M177.4,38.6l11.4,0.9L191,18l-10.2-0.5L177.4,38.6"/>
<path d="M188.8,39.7L188.8,39.7c-0.2,0-0.3-0.1-0.2-0.3l2.2-21.4c0-0.1,0.1-0.2,0.3-0.2c0.1,0,0.2,0.1,0.2,0.3l-2.2,21.4
	C189,39.6,188.9,39.7,188.8,39.7"/>
<path class="st5" d="M248.2,22.1L229.6,34l-6.5-10.1L241.7,12L248.2,22.1"/>
<path d="M229.6,34.2L229.6,34.2c-0.1,0-0.2-0.1-0.2-0.1L222.9,24c-0.1-0.1,0-0.3,0.1-0.3l16.2-10.4c0.1-0.1,0.3,0,0.3,0.1
	c0.1,0.1,0,0.3-0.1,0.3l-16,10.3l6.2,9.7l6.5-4.2c0.1-0.1,0.3,0,0.3,0.1c0.1,0.1,0,0.3-0.1,0.3l-6.8,4.3
	C229.7,34.2,229.7,34.2,229.6,34.2"/>
<path class="st6" d="M221.5,27.3c-0.8,0.5-2-0.3-3.8,0.9l-4.4,2.8c-1.3,0.8-2.2,2.2-2.5,3.7l-0.1,0.8c-0.1,0.6,0.2,1.2,0.7,1.5l0,0
	l-0.2,0.9c-0.1,0.7,0.2,1.4,0.9,1.6L212,40c-0.1,0.7,0.3,1.4,0.9,1.7l0.6,0.2c0,0.6,0.3,1.1,0.9,1.3c0.8,0.3,1.7-0.2,1.9-1.1l0.2-1
	c0.1-0.5,0.3-0.9,0.7-1.1l4.6-2.9l2.4-1.5l4.6-3l-4.6-7.1L221.5,27.3"/>
<path class="st4" d="M221.7,27.2l7.1,5.5l-4.6-7.1L221.7,27.2"/>
<path d="M212.1,39.8H212c-0.7-0.3-1.1-1.1-1-1.9l0.2-1.4c0.2-1.2,0.9-2.3,1.9-2.9l2.2-1.4c0.1-0.1,0.3,0,0.3,0.1
	c0.1,0.1,0,0.3-0.1,0.3l-2.2,1.4c-0.9,0.6-1.5,1.5-1.7,2.6l-0.2,1.4c-0.1,0.6,0.2,1.1,0.7,1.4c0.1,0.1,0.2,0.2,0.1,0.3
	C212.3,39.7,212.2,39.8,212.1,39.8"/>
<path d="M213.5,42.2L213.5,42.2l-0.7-0.2c-0.8-0.3-1.2-1.1-1.1-1.9l0.3-1.7c0.2-1,0.8-1.9,1.7-2.5l2.9-1.9c0.1-0.1,0.3,0,0.3,0.1
	c0.1,0.1,0,0.3-0.1,0.3l-2.9,1.9c-0.8,0.5-1.3,1.3-1.4,2.1l-0.3,1.7c-0.1,0.6,0.2,1.2,0.8,1.4l0.6,0.2c0.1,0,0.2,0.2,0.1,0.3
	C213.7,42.1,213.6,42.2,213.5,42.2"/>
<path d="M221.8,37.4c-0.1,0-0.2,0-0.2-0.1c-0.1-0.1,0-0.3,0.1-0.3l6.8-4.4l-4.3-6.7l-2.5,1.6c-0.4,0.2-0.8,0.2-1.3,0.2
	c-0.7,0-1.5,0-2.5,0.6l-4.4,2.8c-1.2,0.8-2.1,2.1-2.4,3.5l-0.1,0.8c-0.1,0.5,0.1,1,0.6,1.3c0.1,0.1,0.2,0.2,0.1,0.3
	c-0.1,0.1-0.2,0.2-0.3,0.1c-0.6-0.4-0.9-1.1-0.8-1.8l0.1-0.8c0.3-1.6,1.2-3,2.6-3.8l4.4-2.8c1.2-0.7,2.1-0.7,2.8-0.7
	c0.4,0,0.8,0,1-0.2l3-1.9l4.8,7.6l-7.2,4.6C221.8,37.4,221.8,37.4,221.8,37.4"/>
<path d="M214.9,43.6c-0.2,0-0.4,0-0.6-0.1c-0.7-0.3-1.1-1-1-1.8l0.3-1.8c0.2-1,0.8-1.9,1.7-2.5l2.5-1.6c0.1-0.1,0.3,0,0.3,0.1
	c0.1,0.1,0,0.3-0.1,0.3l-2.5,1.6c-0.8,0.5-1.3,1.3-1.5,2.2l-0.3,1.8c-0.1,0.5,0.2,1.1,0.7,1.3c0.3,0.1,0.7,0.1,1-0.1
	s0.5-0.5,0.6-0.8l0.2-1c0.1-0.5,0.4-1,0.9-1.3l7-4.5c1.2-0.7,1.9-2,1.9-3.4c0-0.1,0.1-0.2,0.3-0.2c0.1,0,0.2,0.1,0.2,0.3
	c0,1.5-0.8,2.9-2.1,3.8l-7,4.5c-0.3,0.2-0.6,0.6-0.6,1l-0.2,1c-0.1,0.5-0.4,0.9-0.8,1.2C215.5,43.6,215.2,43.6,214.9,43.6"/>
<path class="st7" d="M222.1,158.9c-5.6-1.9-8.6-8.1-6.7-13.7c2-5.6,8.1-8.6,13.7-6.6c5.6,1.9,8.6,8.1,6.7,13.7
	C233.9,157.9,227.8,160.8,222.1,158.9z M246.4,160.4l2.8-8.1l-5-1.7c0.2-2,0.1-4-0.3-5.9l4.8-2.3l-3.7-7.7l-5,2.3
	c-1.2-1.5-2.7-2.8-4.4-3.9l1.8-5l-8.1-2.8l-1.8,5c-2-0.2-4-0.1-5.9,0.3l-2.3-4.8l-7.7,3.7l2.3,4.8c-1.5,1.2-2.8,2.7-3.9,4.4
	l-5.3-1.6l-2.6,7.9l5,1.7c-0.2,2-0.1,4,0.3,5.9l-4.8,2.3l3.7,7.7l4.8-2.3c1.2,1.5,2.7,2.8,4.4,3.9l-1.7,5l8.1,2.8l1.7-5
	c2,0.2,4,0.1,5.9-0.3l2.3,4.8l7.7-3.7l-2.3-4.8c1.5-1.2,2.8-2.7,3.9-4.4L246.4,160.4"/>
<path d="M225.7,138.2c-4.4,0-8.5,2.7-10,7.1c-0.9,2.7-0.8,5.5,0.5,8c1.2,2.5,3.4,4.4,6,5.4c5.5,1.9,11.5-1,13.4-6.5
	c0.9-2.7,0.8-5.5-0.5-8c-1.2-2.5-3.4-4.4-6-5.4C228,138.4,226.8,138.2,225.7,138.2z M225.7,159.7c-1.2,0-2.4-0.2-3.6-0.6
	c-2.8-1-5-3-6.3-5.6s-1.5-5.6-0.5-8.4c2-5.7,8.3-8.8,14-6.8c2.8,1,5,3,6.3,5.6s1.5,5.6,0.5,8.4C234.5,156.9,230.2,159.7,225.7,159.7
	z M214.3,169.2l7.6,2.6l1.7-4.8c0-0.1,0.1-0.2,0.3-0.2c1.9,0.2,3.9,0.1,5.8-0.3c0.1,0,0.2,0,0.3,0.1l2.2,4.6l7.2-3.5l-2.2-4.6
	c0-0.1,0-0.2,0.1-0.3c1.5-1.2,2.8-2.7,3.9-4.3c0.1-0.1,0.2-0.1,0.3-0.1l4.8,1.7l2.6-7.6l-4.8-1.7c-0.1,0-0.2-0.1-0.2-0.3
	c0.2-1.9,0.1-3.9-0.3-5.8c0-0.1,0-0.2,0.1-0.3l4.6-2.2l-3.5-7.2l-4.6,2.2c-0.1,0-0.2,0-0.3-0.1c-1.2-1.5-2.7-2.8-4.4-3.9
	c-0.1-0.1-0.1-0.2-0.1-0.3l1.7-4.8l-7.6-2.6l-1.7,4.8c0,0.1-0.1,0.2-0.3,0.2c-1.9-0.2-3.9-0.1-5.8,0.3c-0.1,0-0.2,0-0.3-0.1
	l-2.2-4.6l-7.3,3.5l2.2,4.6c0.1,0.1,0,0.2-0.1,0.3c-1.5,1.2-2.8,2.7-3.9,4.3c-0.1,0.1-0.2,0.1-0.3,0.1l-5-1.5l-2.4,7.4l4.8,1.7
	c0.1,0,0.2,0.1,0.2,0.3c-0.2,1.9-0.1,3.9,0.3,5.8c0,0.1,0,0.2-0.1,0.3l-4.6,2.2l3.5,7.2l4.6-2.2c0.1,0,0.2,0,0.3,0.1
	c1.2,1.5,2.7,2.8,4.4,3.9c0.1,0.1,0.1,0.2,0.1,0.3L214.3,169.2z M222.1,172.4C222,172.4,222,172.4,222.1,172.4l-8.2-2.8
	c-0.1,0-0.1-0.1-0.1-0.1c0-0.1,0-0.1,0-0.2l1.7-4.8c-1.6-1-3-2.3-4.2-3.7l-4.6,2.2c-0.1,0.1-0.3,0-0.3-0.1l-3.7-7.7
	c0-0.1,0-0.1,0-0.2c0-0.1,0.1-0.1,0.1-0.1l4.6-2.2c-0.4-1.8-0.5-3.7-0.3-5.6l-4.9-1.7c-0.1,0-0.2-0.2-0.2-0.3l2.6-7.9
	c0-0.1,0.2-0.2,0.3-0.2l5.1,1.5c1-1.6,2.3-3,3.7-4.2l-2.2-4.6c0-0.1,0-0.1,0-0.2c0-0.1,0.1-0.1,0.1-0.1l7.7-3.7
	c0.1-0.1,0.3,0,0.3,0.1l2.2,4.6c1.8-0.4,3.7-0.5,5.6-0.3l1.7-4.8c0-0.1,0.2-0.2,0.3-0.2l8.1,2.8c0.1,0,0.1,0.1,0.1,0.1
	c0,0.1,0,0.1,0,0.2l-1.7,4.8c1.6,1,3,2.3,4.2,3.7l4.6-2.2c0.1-0.1,0.3,0,0.3,0.1l3.7,7.7c0,0.1,0,0.1,0,0.2c0,0.1-0.1,0.1-0.1,0.1
	l-4.6,2.2c0.4,1.8,0.5,3.7,0.3,5.6l4.9,1.7c0.1,0,0.1,0.1,0.1,0.1c0,0.1,0,0.1,0,0.2l-2.8,8.1c0,0.1-0.2,0.2-0.3,0.2l-4.9-1.7
	c-1,1.6-2.3,3-3.7,4.2l2.2,4.6c0,0.1,0,0.1,0,0.2c0,0.1-0.1,0.1-0.1,0.1l-7.7,3.7c-0.1,0.1-0.3,0-0.3-0.1l-2.2-4.6
	c-1.8,0.4-3.7,0.5-5.6,0.3l-1.7,4.8C222.2,172.4,222.2,172.4,222.1,172.4"/>
<path class="st3" d="M68.6,203.4H52.7l7-13.5h11.2L68.6,203.4"/>
<path d="M70.3,193.3l-14.2,3.4l3.5-6.7h11.2L70.3,193.3"/>
<g>
	<g>
		<defs>
			<rect id="SVGID_00000095298322863784205490000005822582926939103935_" x="51" y="202.7" width="19.7" height="3.3"/>
		</defs>
		<clipPath id="SVGID_00000025405954738628880620000003329643804064497556_">
			<use xlink:href="#SVGID_00000095298322863784205490000005822582926939103935_"  style="overflow:visible;"/>
		</clipPath>
		<g style="clip-path:url(#SVGID_00000025405954738628880620000003329643804064497556_);">
			<path d="M69.7,206.2h-3l-1.3-1.3l-1.3,1.3H58l-1.4-1.3l-1.4,1.3H51l0.6-3.1h17.5L69.7,206.2"/>
		</g>
	</g>
</g>
<path class="st3" d="M108.8,204.8c0.1-0.4,0.1-0.8,0.1-1.2c0-4.4-3.5-7.9-7.9-7.9s-7.9,3.5-7.9,7.9c0,0.4,0,0.8,0.1,1.2H108.8"/>
<path class="st3" d="M107.4,203H90.7l2-10.6h8.5L107.4,203"/>
<path d="M101.8,193.3l-9.8,2.9l0.7-3.8h8.5L101.8,193.3"/>
<path d="M105,199.1c-0.1,0-0.2,0-0.2-0.1l-1.6-2.8c-0.1-0.1,0-0.3,0.1-0.3c0.1-0.1,0.3,0,0.3,0.1l1.6,2.8c0.1,0.1,0,0.3-0.1,0.3
	C105.1,199.1,105.1,199.1,105,199.1"/>
<g>
	<g>
		<defs>
			<rect id="SVGID_00000132769478008999715750000011606076837213059456_" x="89.3" y="202.7" width="21.3" height="3.3"/>
		</defs>
		<clipPath id="SVGID_00000068665485549316958880000000777581678744291258_">
			<use xlink:href="#SVGID_00000132769478008999715750000011606076837213059456_"  style="overflow:visible;"/>
		</clipPath>
		<g style="clip-path:url(#SVGID_00000068665485549316958880000000777581678744291258_);">
			<path d="M109.8,206.1h-3.2l-1.4-1.3l-1.4,1.3h-6.5l-1.5-1.3l-1.5,1.3h-4.5l0.6-3.1h18.7L109.8,206.1"/>
		</g>
	</g>
</g>
<path class="st5" d="M108,137l-3.1-22.4h-28v15l-5.3,25.7l-15.1,37.9h15.1l9.6-20.4c4.3-9.2,7.2-18.9,8.7-28.9l1.7-11.2l2,22.2
	l-3.7,38.4H105l2.9-20.2C109.6,161.2,109.6,149,108,137"/>
<path class="st10" d="M96.4,129.4c-2.4,0-4.4-2-4.4-4.4v-5.1h8.8v5.1C100.8,127.5,98.9,129.4,96.4,129.4"/>
<path d="M104.9,193.6H89.8c-0.1,0-0.1,0-0.2-0.1s-0.1-0.1-0.1-0.2l3.7-38.4l-2-22.2c0-0.1,0.1-0.3,0.2-0.3s0.3,0.1,0.3,0.2l2,22.2
	l0,0L90,192.9h14.6l2.9-19.9c1.7-12,1.8-24.1,0.1-36.1l-3.1-22.4c0-0.1,0.1-0.3,0.2-0.3s0.3,0.1,0.3,0.2l3.1,22.4
	c1.7,12,1.6,24.2-0.1,36.2l-2.9,20.2C105.1,193.5,105,193.6,104.9,193.6"/>
<path d="M95.3,132.9h-9.5c-0.1,0-0.2-0.1-0.2-0.2c0-0.1,0.1-0.2,0.2-0.2h9.5c0.1,0,0.2,0.1,0.2,0.2
	C95.5,132.7,95.4,132.9,95.3,132.9"/>
<path d="M78.3,158.5L78.3,158.5l-6.9-3.8c-0.1-0.1-0.2-0.2-0.1-0.3c0-0.1,0.1-0.2,0.2-0.2l5.8,0.3c0.1,0,0.2,0.1,0.2,0.3
	c0,0.1-0.1,0.2-0.3,0.2l-4.7-0.3l5.8,3.3c0.1,0.1,0.2,0.2,0.1,0.3C78.5,158.4,78.4,158.5,78.3,158.5"/>
<path d="M97.4,157.6L97.4,157.6l-4-2.4c-0.1-0.1-0.1-0.2-0.1-0.3s0.1-0.2,0.2-0.2h5.6c0.1,0,0.2,0.1,0.2,0.2c0,0.1-0.1,0.2-0.2,0.2
	h-4.7l3.1,2c0.1,0.1,0.2,0.2,0.1,0.3C97.6,157.5,97.5,157.6,97.4,157.6"/>
<path d="M76.9,124.7v-10h28L76.9,124.7z"/>
<path class="st0" d="M114.2,72l-2,5.1l-0.5-3l0.5-1.3c0.3-0.7,1.1-1.1,1.8-0.8L114.2,72"/>
<path class="st0" d="M121.7,75.9l-0.8,5.8l-7.1,2.1l-2.1-5.4c-0.6-1.4-0.6-3.1,0-4.5L112,73L121.7,75.9"/>
<path class="st7" d="M109.3,67c0,6.7-5.4,12.1-12.1,12.1S85.1,73.7,85.1,67s5.5-12,12.1-12C103.9,55,109.3,60.4,109.3,67"/>
<path d="M110.7,73.6l13.9,5.7l1.2-2.9l-13.9-5.7L110.7,73.6z M124.7,79.8C124.6,79.8,124.6,79.8,124.7,79.8l-14.4-5.9
	c-0.1,0-0.1-0.1-0.1-0.1c0-0.1,0-0.1,0-0.2l1.4-3.3c0.1-0.1,0.2-0.2,0.3-0.1l14.3,5.8c0.1,0.1,0.2,0.2,0.1,0.3l-1.4,3.3
	C124.9,79.7,124.8,79.8,124.7,79.8L124.7,79.8"/>
<path d="M97.2,55.2c-6.5,0-11.8,5.3-11.8,11.8s5.3,11.8,11.8,11.8S109,73.5,109,67S103.7,55.2,97.2,55.2z M97.2,79.3
	c-6.8,0-12.3-5.5-12.3-12.3s5.5-12.3,12.3-12.3s12.3,5.5,12.3,12.3S104,79.3,97.2,79.3"/>
<path d="M104.1,74.2c-0.1,0-0.1,0-0.2-0.1s-0.1-0.3,0-0.4c1.4-1.4,2.4-3.3,2.7-5.3c0-0.1,0.2-0.2,0.3-0.2c0.1,0,0.2,0.2,0.2,0.3
	c-0.3,2.1-1.3,4-2.8,5.6C104.3,74.2,104.2,74.2,104.1,74.2"/>
<path d="M106.9,65.8c-0.1,0-0.2-0.1-0.2-0.2c-0.7-4.6-4.8-8.1-9.4-8.1c-0.1,0-0.2-0.1-0.2-0.2c0-0.1,0.1-0.2,0.2-0.2
	c4.9,0,9.2,3.7,9.9,8.5C107.2,65.6,107.1,65.8,106.9,65.8L106.9,65.8"/>
<path d="M110.5,73.5L110.5,73.5l-2.5-1c-0.1-0.1-0.2-0.2-0.1-0.3c0.1-0.1,0.2-0.2,0.3-0.1l2.1,0.9l0.8-1.8l-2.3-0.9
	c-0.1-0.1-0.2-0.2-0.1-0.3c0.1-0.1,0.2-0.2,0.3-0.1l2.5,1c0.1,0,0.1,0.1,0.1,0.1c0,0.1,0,0.1,0,0.2l-0.9,2.3
	C110.8,73.4,110.7,73.4,110.5,73.5C110.6,73.5,110.6,73.5,110.5,73.5"/>
<path class="st0" d="M116.6,71.1l-2.2,5.9l-1.9-0.7l2.2-5.9c0.2-0.5,0.8-0.8,1.3-0.6h0.1C116.6,70,116.8,70.5,116.6,71.1"/>
<path class="st0" d="M118.9,70.9l-2.3,6.2l-1.9-0.7l2.3-6.2c0.2-0.5,0.8-0.8,1.3-0.6h0.1C118.8,69.8,119.1,70.4,118.9,70.9"/>
<path class="st0" d="M122.8,72.3l-2.2,6.1l-1.9-0.7l2.2-6.1c0.2-0.5,0.8-0.8,1.3-0.6h0.1C122.7,71.2,123,71.8,122.8,72.3"/>
<path class="st0" d="M122.8,76.8l-1.8,4.8l-2-0.7l3-8.2l0.7,1.8C123.1,75.3,123.1,76.1,122.8,76.8"/>
<path class="st0" d="M120,70.7L120,70.7c0.6,0.2,0.8,0.8,0.6,1.4l-2.2,6l-1.9-0.7l2.2-6C118.9,70.9,119.5,70.5,120,70.7"/>
<path class="st0" d="M121.1,81.2l-0.2,8.8l-7.5-2.4l0.2-9.1L121.1,81.2"/>
<path d="M121,84.2l-0.1,5.8l-7.5-2.4l0.1-2.5l4.7-0.5L121,84.2"/>
<path d="M118.1,73.2L118.1,73.2c-0.2-0.1-0.3-0.2-0.2-0.3l0.8-2.1c0.1-0.2,0.1-0.4,0-0.6s-0.2-0.3-0.4-0.4h-0.1
	c-0.2-0.1-0.4-0.1-0.6,0s-0.3,0.2-0.4,0.4l-0.9,2.4c0,0.1-0.2,0.2-0.3,0.1c-0.1,0-0.2-0.2-0.1-0.3l0.9-2.4c0.2-0.6,1-1,1.6-0.7h0.1
	c0.3,0.1,0.6,0.3,0.7,0.7c0.1,0.3,0.2,0.6,0,1l-0.8,2.1C118.3,73.2,118.2,73.2,118.1,73.2"/>
<path d="M120,74.2C119.9,74.2,119.9,74.2,120,74.2c-0.2-0.1-0.3-0.2-0.2-0.3l0.7-2c0.1-0.4-0.1-0.8-0.4-0.9H120
	c-0.4-0.1-0.8,0.1-0.9,0.4l-0.7,1.9c0,0.1-0.2,0.2-0.3,0.1c-0.1,0-0.2-0.2-0.1-0.3l0.7-1.9c0.2-0.6,0.9-1,1.6-0.7h0.1
	c0.6,0.2,1,0.9,0.7,1.6l-0.7,2C120.2,74.2,120.1,74.2,120,74.2"/>
<path d="M112.7,75.9L112.7,75.9c-0.2-0.1-0.3-0.2-0.2-0.3l2-5.4c0.2-0.6,1-1,1.6-0.7h0.1c0.3,0.1,0.6,0.3,0.7,0.6
	c0.1,0.3,0.2,0.6,0,1l-0.7,1.9c0,0.1-0.2,0.2-0.3,0.1c-0.1,0-0.2-0.2-0.1-0.3l0.7-1.9c0.1-0.2,0.1-0.4,0-0.6s-0.2-0.3-0.4-0.4H116
	c-0.4-0.1-0.8,0.1-1,0.4l-2,5.4C112.9,75.9,112.8,75.9,112.7,75.9"/>
<path d="M120.9,90.2C120.8,90.2,120.8,90.2,120.9,90.2l-7.6-2.4c-0.1,0-0.2-0.1-0.2-0.2l0.1-5l-1.6-4.1c-0.5-1.4-0.6-2.9-0.2-4.3
	c0-0.1,0.2-0.2,0.3-0.2c0.1,0,0.2,0.2,0.2,0.3c-0.4,1.3-0.3,2.7,0.2,3.9l1.6,4.1v0.1l-0.1,4.9l7,2.2l0.2-8.1v-0.1l1.7-4.7
	c0.2-0.7,0.2-1.4,0-2.1l-0.4-1c0-0.1,0-0.1,0-0.2l0.4-1.2c0.1-0.2,0.1-0.4,0-0.6s-0.2-0.3-0.4-0.4H122c-0.4-0.1-0.8,0.1-1,0.5
	l-1,2.7c0,0.1-0.2,0.2-0.3,0.1c-0.1,0-0.2-0.2-0.2-0.3l1-2.7c0.2-0.7,1-1,1.6-0.8h0.1c0.3,0.1,0.6,0.3,0.7,0.7c0.1,0.3,0.2,0.7,0,1
	l-0.4,1.1l0.4,1c0.3,0.8,0.3,1.6,0,2.4l-1.7,4.7l-0.2,8.4C121,90,121,90.1,120.9,90.2C121,90.2,120.9,90.2,120.9,90.2"/>
<path class="st3" d="M117.2,111c-3.6-0.1-6.4-3-6.3-6.6l0.3-18.2h13l-0.3,18.4C123.7,108.2,120.7,111.1,117.2,111"/>
<path d="M111.3,86.5l-0.3,18c-0.1,3.4,2.7,6.2,6.1,6.3h0.1c3.4,0,6.1-2.7,6.2-6.1l0.3-18.2H111.3z M117.3,111.3L117.3,111.3
	c-3.8-0.1-6.7-3.1-6.7-6.8l0.3-18.2c0-0.1,0.1-0.2,0.2-0.2h13c0.1,0,0.1,0,0.2,0.1c0,0,0.1,0.1,0.1,0.2l-0.3,18.4
	C123.9,108.3,120.9,111.3,117.3,111.3"/>
<path class="st3" d="M121.9,100.1l-11.5-11.5c-4.7-4.7-11-7.3-17.7-7.3h-7.5c-5.1,0-9.8,2.9-12.1,7.6l-5.7,11.8
	c-1.6,3.3-0.6,8.1,2.6,9.6c2.2,1.1,4,1,6.1,0l-0.8,8.5l30.5-4l-1.7-12.5l8.6,7L121.9,100.1"/>
<path d="M112.8,109.5c-0.1,0-0.1,0-0.2-0.1L98.9,98.1c-0.1-0.1-0.1-0.2,0-0.3c0.1-0.1,0.2-0.1,0.4,0L113,109c0.1,0.1,0.1,0.2,0,0.3
	C112.9,109.4,112.9,109.5,112.8,109.5"/>
<path d="M121.9,100.3c-0.1,0-0.1,0-0.2-0.1l-11.5-11.5c-4.7-4.7-10.9-7.2-17.7-7.2c-0.1,0-0.2-0.1-0.2-0.2s0.1-0.2,0.2-0.2
	c7,0,13.2,2.6,18,7.4L122,100C122.1,100.1,122.1,100.3,121.9,100.3C122,100.3,122,100.3,121.9,100.3"/>
<path d="M76.2,110.5L76.2,110.5c-0.2,0-0.3-0.1-0.2-0.3l1.8-18.4c0-0.1,0.1-0.2,0.3-0.2c0.1,0,0.2,0.1,0.2,0.3l-1.8,18.4
	C76.5,110.4,76.4,110.5,76.2,110.5"/>
<path d="M78,92.4l-4.1,18.5c0,0,0.6-0.1,1.3-0.3c0.5-0.2,1.1-0.5,1.1-0.5L78,92.4"/>
<path class="st0" d="M95,74.1c0,2.3,0.1,5.5-2.1,5.5c-2.3,0-6.1-3.2-6.1-5.5s1.9-4.1,4.1-4.1C93.2,69.9,95,71.8,95,74.1"/>
<path d="M96.5,73.1c-0.6-2.1-2.6-3.7-4.9-3.7s-4.2,1.4-4.8,3.7H96.5"/>
<path class="st0" d="M92.4,81.2h-4.8v-7.1h4.8V81.2"/>
<path d="M92.4,81.5c-0.1,0-0.2-0.1-0.2-0.2v-4c0-0.1,0.1-0.2,0.2-0.2s0.2,0.1,0.2,0.2v4C92.6,81.4,92.5,81.5,92.4,81.5"/>
<path d="M227,103.8h-53.7V67H227V103.8"/>
<path class="st11" d="M223.9,100.6h-53.7V66.4h53.7V100.6"/>
<path class="st7" d="M216.2,76h-37.3v-2.8h37.3V76"/>
<path class="st7" d="M216.2,83h-37.3v-2.8h37.3V83"/>
<path class="st7" d="M210.2,90.6h-31.3v-2.8h31.3V90.6"/>
<path d="M227,148.8h-53.7V112H227V148.8"/>
<path class="st11" d="M223.9,145.5h-53.7v-34.2h53.7V145.5"/>
<path class="st7" d="M216.2,121h-37.3v-2.8h37.3V121"/>
<path class="st7" d="M216.2,128h-37.3v-2.8h37.3V128"/>
<path class="st7" d="M210.2,135.5h-31.3v-2.8h31.3V135.5"/>
<path d="M227,193.7h-53.7V157H227V193.7"/>
<path class="st11" d="M223.9,190.5h-53.7v-34.2h53.7V190.5"/>
<path class="st7" d="M216.2,166h-37.3v-2.8h37.3V166"/>
<path class="st7" d="M216.2,172.9h-37.3v-2.8h37.3V172.9"/>
<path class="st7" d="M210.2,180.5h-31.3v-2.8h31.3V180.5"/>
</svg>
