<?xml version="1.0" encoding="utf-8"?>
<!-- Generator: Adobe Illustrator 26.0.1, SVG Export Plug-In . SVG Version: 6.00 Build 0)  -->
<svg version="1.1" id="Layer_1" xmlns="http://www.w3.org/2000/svg" xmlns:xlink="http://www.w3.org/1999/xlink" x="0px" y="0px"
	 width="309px" height="207px" viewBox="0 0 309 207" style="enable-background:new 0 0 309 207;" xml:space="preserve">
<style type="text/css">
	.st0{clip-path:url(#SVGID_00000098183687228904601510000008732096772010199451_);}
	.st1{fill:#FFFFFF;}
	.st2{clip-path:url(#SVGID_00000044165215092309978790000006079050539287784588_);}
	.st3{clip-path:url(#SVGID_00000123411643066120642020000003479557786482521752_);}
	.st4{fill:#FFE471;}
	.st5{fill:#B4AEFF;}
	.st6{clip-path:url(#SVGID_00000067206819253880149760000007534568543446737069_);}
	.st7{clip-path:url(#SVGID_00000118381583488065174190000005418056047893637298_);}
	.st8{clip-path:url(#SVGID_00000036948954972072620360000001039179955789497992_);}
	.st9{fill:#4ADA85;}
	.st10{fill:#FF7DCE;}
	.st11{fill:#FDA4FF;}
	.st12{fill:#020202;}
	.st13{clip-path:url(#SVGID_00000007387626317797585630000009517205778163380665_);}
	.st14{clip-path:url(#SVGID_00000164514931994287038710000007742448526415063692_);}
	.st15{clip-path:url(#SVGID_00000170983332818383925930000014775422855779445663_);}
	.st16{clip-path:url(#SVGID_00000018954803847926308620000008751199934072089528_);}
</style>
<g>
	<defs>
		<rect id="SVGID_1_" x="51.7" y="90.7" width="123" height="115.3"/>
	</defs>
	<clipPath id="SVGID_00000059271292718228757490000005398497709651394711_">
		<use xlink:href="#SVGID_1_"  style="overflow:visible;"/>
	</clipPath>
	<g style="clip-path:url(#SVGID_00000059271292718228757490000005398497709651394711_);">
		<path class="st1" d="M51.9,90.7v60.7c0,30.2,24.5,54.6,54.6,54.6h32.8c18.8,0,34-15.2,34-34v-0.4c0-18-14.6-32.6-32.6-32.6h-19
			c-13.2,0-25.8-5-35.5-13.9C71.2,111.2,51.9,90.7,51.9,90.7"/>
	</g>
</g>
<g>
	<defs>
		<rect id="SVGID_00000079446492560750552810000006614788060237798296_" x="51.7" y="89.3" width="123" height="116.7"/>
	</defs>
	<clipPath id="SVGID_00000108287907114564965910000000285082402302766727_">
		<use xlink:href="#SVGID_00000079446492560750552810000006614788060237798296_"  style="overflow:visible;"/>
	</clipPath>
	<g style="clip-path:url(#SVGID_00000108287907114564965910000000285082402302766727_);">
		<path d="M52.2,91.3v60c0,30,24.4,54.4,54.4,54.4h32.8c18.6,0,33.7-15.1,33.7-33.7v-0.4c0-17.8-14.5-32.3-32.4-32.3h-19
			c-13.3,0-25.9-5-35.7-13.9C72.5,112.7,55.1,94.4,52.2,91.3z M139.3,206.2h-32.8c-14.7,0-28.4-5.7-38.8-16.1
			c-10.4-10.4-16.1-24.1-16.1-38.8V90.7c0-0.1,0.1-0.2,0.2-0.2c0.1,0,0.2,0,0.3,0.1c0.2,0.2,19.5,20.7,34.3,34.3
			c9.6,8.9,22.2,13.8,35.3,13.8h19c18.1,0,32.8,14.7,32.8,32.8v0.4C173.6,190.9,158.2,206.2,139.3,206.2"/>
	</g>
</g>
<g>
	<defs>
		<rect id="SVGID_00000138563479173724404280000012433381024170938253_" x="105.3" width="152.6" height="101.3"/>
	</defs>
	<clipPath id="SVGID_00000096056144324322658740000011824447573114518683_">
		<use xlink:href="#SVGID_00000138563479173724404280000012433381024170938253_"  style="overflow:visible;"/>
	</clipPath>
	<g style="clip-path:url(#SVGID_00000096056144324322658740000011824447573114518683_);">
		<path class="st4" d="M117.6,100.8h128.5c6.4,0,11.6-5.2,11.6-11.5V11.8c0-6.4-5.2-11.5-11.6-11.5H117.6c-6.4,0-11.6,5.2-11.6,11.5
			v77.4C106.1,95.6,111.3,100.8,117.6,100.8"/>
		<path d="M117.6,0.5c-6.2,0-11.3,5.1-11.3,11.3v77.4c0,6.2,5.1,11.3,11.3,11.3h128.5c6.2,0,11.3-5.1,11.3-11.3V11.8
			c0-6.2-5.1-11.3-11.3-11.3H117.6z M246.1,101H117.6c-6.5,0-11.8-5.3-11.8-11.8V11.8c0-6.5,5.3-11.8,11.8-11.8h128.5
			c6.5,0,11.8,5.3,11.8,11.8v77.4C257.9,95.7,252.6,101,246.1,101"/>
	</g>
</g>
<path class="st5" d="M156.7,127H207l-4.4-26h-41.5L156.7,127z M207.3,127.5h-50.9c-0.1,0-0.1,0-0.2-0.1c0-0.1-0.1-0.1-0.1-0.2
	l4.5-26.5c0-0.1,0.1-0.2,0.2-0.2h41.9c0.1,0,0.2,0.1,0.2,0.2l4.5,26.5c0,0.1,0,0.2-0.1,0.2C207.5,127.5,207.4,127.5,207.3,127.5"/>
<path class="st5" d="M149.6,127.5c-1.3,0-2.3,1-2.3,2.3c0,1.3,1,2.3,2.3,2.3h64.6c1.3,0,2.3-1,2.3-2.3c0-1.3-1-2.3-2.3-2.3H149.6z
	 M214.2,132.7h-64.6c-1.6,0-2.8-1.3-2.8-2.8c0-1.6,1.3-2.8,2.8-2.8h64.6c1.6,0,2.8,1.3,2.8,2.8C217,131.4,215.7,132.7,214.2,132.7"
	/>
<g>
	<defs>
		<rect id="SVGID_00000180362380091054999040000016280196600764674978_" x="105.3" y="84" width="152.6" height="17.3"/>
	</defs>
	<clipPath id="SVGID_00000016042458438594698370000012263570824495135363_">
		<use xlink:href="#SVGID_00000180362380091054999040000016280196600764674978_"  style="overflow:visible;"/>
	</clipPath>
	<g style="clip-path:url(#SVGID_00000016042458438594698370000012263570824495135363_);">
		<path class="st1" d="M257.6,84.8H106.1l0,0v4.3c0,6.4,5.2,11.5,11.5,11.5h128.5c6.4,0,11.6-5.2,11.6-11.5L257.6,84.8L257.6,84.8"
			/>
		<path class="st5" d="M106.3,85.1v4.1c0,6.2,5.1,11.3,11.3,11.3h128.5c6.2,0,11.3-5.1,11.3-11.3v-4.1H106.3z M246.1,101H117.6
			c-6.5,0-11.8-5.3-11.8-11.8v-4.3c0,0,0-0.1,0-0.1l0,0c0-0.1,0.1-0.1,0.2-0.1h151.5c0.1,0,0.2,0.1,0.2,0.2v4.4
			C257.9,95.7,252.6,101,246.1,101"/>
	</g>
</g>
<path d="M181.9,90c-1,0-1.8,0.8-1.8,1.8c0,1,0.8,1.8,1.8,1.8c1,0,1.8-0.8,1.8-1.8C183.7,90.8,182.9,90,181.9,90z M181.9,94.1
	c-1.3,0-2.3-1-2.3-2.3c0-1.3,1-2.3,2.3-2.3c1.3,0,2.3,1,2.3,2.3C184.2,93.1,183.1,94.1,181.9,94.1"/>
<g>
	<defs>
		<rect id="SVGID_00000145036508899085501690000014110212906786786460_" x="105.3" width="152.6" height="85.3"/>
	</defs>
	<clipPath id="SVGID_00000036214425071613346730000007594738789163056533_">
		<use xlink:href="#SVGID_00000145036508899085501690000014110212906786786460_"  style="overflow:visible;"/>
	</clipPath>
	<g style="clip-path:url(#SVGID_00000036214425071613346730000007594738789163056533_);">
		<path d="M257.7,85.1c-0.1,0-0.2-0.1-0.2-0.2v-73c0-6.2-5.1-11.3-11.3-11.3H117.6c-6.2,0-11.3,5.1-11.3,11.3v73
			c0,0.1-0.1,0.2-0.2,0.2c-0.1,0-0.2-0.1-0.2-0.2v-73c0-6.5,5.3-11.8,11.8-11.8h128.5c6.5,0,11.8,5.3,11.8,11.8v73
			C257.9,85,257.8,85.1,257.7,85.1"/>
	</g>
</g>
<g>
	<defs>
		<rect id="SVGID_00000148654851661848137490000017266460509005793193_" x="105.3" width="152.6" height="17.3"/>
	</defs>
	<clipPath id="SVGID_00000032626278909655029330000007309746442009964429_">
		<use xlink:href="#SVGID_00000148654851661848137490000017266460509005793193_"  style="overflow:visible;"/>
	</clipPath>
	<g style="clip-path:url(#SVGID_00000032626278909655029330000007309746442009964429_);">
		<path class="st1" d="M257.6,16.2H106.1l0,0v-4.3c0-6.4,5.2-11.5,11.5-11.5h128.5c6.4,0,11.6,5.2,11.6,11.5L257.6,16.2L257.6,16.2"
			/>
		<path class="st5" d="M106.3,16h151.1v-4.1c0-6.2-5.1-11.3-11.3-11.3H117.6c-6.2,0-11.3,5.1-11.3,11.3V16z M257.7,16.5H106.1
			c-0.1,0-0.2-0.1-0.2-0.2l0,0c0,0,0-0.1,0-0.1v-4.3c0-6.5,5.3-11.8,11.8-11.8h128.5c6.5,0,11.8,5.3,11.8,11.8v4.4
			C257.9,16.4,257.8,16.5,257.7,16.5"/>
	</g>
</g>
<path class="st5" d="M119.2,10.5c-0.1,0-0.1,0-0.2-0.1c-0.1-0.1-0.1-0.3,0-0.3c2-1.7,3.8-2.8,6.3-3.7c0.1,0,0.3,0,0.3,0.1
	c0,0.1,0,0.3-0.1,0.3c-2.5,0.9-4.2,2-6.2,3.7C119.3,10.4,119.3,10.5,119.2,10.5"/>
<path class="st5" d="M132.3,45.4c-11.1,0-20.1-9-20.1-20.2c0-5.7,2.7-11.7,6.9-15.2c0.1-0.1,0.3-0.1,0.3,0c0.1,0.1,0.1,0.3,0,0.3
	c-4.1,3.4-6.7,9.2-6.7,14.8c0,10.8,8.8,19.7,19.6,19.7c10.8,0,19.6-8.8,19.6-19.7c0-10.8-8.8-19.7-19.6-19.7c-2.2,0-4.7,0.5-7,1.3
	c-0.1,0-0.3,0-0.3-0.1c0-0.1,0-0.3,0.1-0.3c2.3-0.8,4.9-1.3,7.2-1.3c11.1,0,20.1,9,20.1,20.2S143.4,45.4,132.3,45.4"/>
<path d="M156.9,22.4l-24.6,11.2l-24.6-11.2l24.6-11.2L156.9,22.4"/>
<path d="M143.3,38.1l-22.1,0l0-13.9l22.1,0L143.3,38.1"/>
<path class="st1" d="M159.8,37.9h-5.6l2.6-11.7L159.8,37.9"/>
<path d="M160.1,38.1h-5.9c-0.1,0-0.2-0.1-0.2-0.2s0.1-0.2,0.2-0.2h5.2l-3-11.4v-3.9c0-0.1,0.1-0.2,0.2-0.2c0.1,0,0.2,0.1,0.2,0.2
	v3.8L160.1,38.1"/>
<path d="M159.3,35.6l-5,2.2h5.6L159.3,35.6"/>
<path class="st1" d="M121.2,26.2c-0.1,0-0.2-0.1-0.2-0.2l0-2l22.6,0l0,2c0,0.1-0.1,0.2-0.2,0.2c-0.1,0-0.2-0.1-0.2-0.2v-1.5l-21.6,0
	l0,1.5C121.5,26.1,121.4,26.2,121.2,26.2"/>
<path d="M241.5,57.7H231c-0.1,0-0.2-0.1-0.2-0.2v-2.7c0-0.5,0.4-0.8,0.8-0.8h1c0.1,0,0.2,0.1,0.2,0.2c0,0.1-0.1,0.2-0.2,0.2h-1
	c-0.2,0-0.3,0.2-0.3,0.3v2.5h10v-2.5c0-0.2-0.1-0.3-0.3-0.3H240c-0.1,0-0.2-0.1-0.2-0.2c0-0.1,0.1-0.2,0.2-0.2h0.9
	c0.5,0,0.8,0.4,0.8,0.8v2.7C241.8,57.6,241.6,57.7,241.5,57.7"/>
<path d="M224.9,74.2h22.9V57.8h-22.9V74.2z M248,74.7h-23.4c-0.1,0-0.2-0.1-0.2-0.2V57.6c0-0.1,0.1-0.2,0.2-0.2H248
	c0.1,0,0.2,0.1,0.2,0.2v16.8C248.3,74.6,248.2,74.7,248,74.7"/>
<path d="M240.9,67.1h-9.5c-0.1,0-0.2-0.1-0.2-0.2c0-0.1,0.1-0.2,0.2-0.2h9.5c0.1,0,0.2,0.1,0.2,0.2C241.1,66.9,241,67.1,240.9,67.1"
	/>
<path class="st1" d="M231.3,68.5h-1.9v-3.5h1.9V68.5"/>
<path d="M246.2,67.1h-3.4c-0.1,0-0.2-0.1-0.2-0.2c0-0.1,0.1-0.2,0.2-0.2h3.2l1.8-8.9h-22.8l1.8,8.9h2.8c0.1,0,0.2,0.1,0.2,0.2
	c0,0.1-0.1,0.2-0.2,0.2h-3c-0.1,0-0.2-0.1-0.2-0.2l-1.9-9.4c0-0.1,0-0.2,0.1-0.2c0-0.1,0.1-0.1,0.2-0.1H248c0.1,0,0.1,0,0.2,0.1
	c0,0.1,0.1,0.1,0.1,0.2l-1.9,9.4C246.4,67,246.3,67.1,246.2,67.1"/>
<path d="M229.7,68.3h1.4v-3h-1.4V68.3z M231.3,68.8h-1.9c-0.1,0-0.2-0.1-0.2-0.2v-3.5c0-0.1,0.1-0.2,0.2-0.2h1.9
	c0.1,0,0.2,0.1,0.2,0.2v3.5C231.6,68.7,231.5,68.8,231.3,68.8"/>
<path class="st1" d="M242.7,68.5h-1.9v-3.5h1.9V68.5"/>
<path class="st9" d="M240,54.9h-7.4v-1.6h7.4V54.9"/>
<path d="M241.1,68.3h1.4v-3h-1.4V68.3z M242.7,68.8h-1.9c-0.1,0-0.2-0.1-0.2-0.2v-3.5c0-0.1,0.1-0.2,0.2-0.2h1.9
	c0.1,0,0.2,0.1,0.2,0.2v3.5C243,68.7,242.8,68.8,242.7,68.8"/>
<path d="M232.9,54.7h6.9v-1.1h-6.9V54.7z M240,55.2h-7.4c-0.1,0-0.2-0.1-0.2-0.2v-1.6c0-0.1,0.1-0.2,0.2-0.2h7.4
	c0.1,0,0.2,0.1,0.2,0.2v1.6C240.3,55.1,240.2,55.2,240,55.2"/>
<path d="M221,61.3h-14.4c-0.1,0-0.2-0.1-0.2-0.2c0-0.1,0.1-0.2,0.2-0.2H221c0.1,0,0.2,0.1,0.2,0.2C221.3,61.2,221.1,61.3,221,61.3"
	/>
<path d="M221,64.1h-14.4c-0.1,0-0.2-0.1-0.2-0.2c0-0.1,0.1-0.2,0.2-0.2H221c0.1,0,0.2,0.1,0.2,0.2C221.3,64,221.1,64.1,221,64.1"/>
<path d="M221,67h-14.4c-0.1,0-0.2-0.1-0.2-0.2c0-0.1,0.1-0.2,0.2-0.2H221c0.1,0,0.2,0.1,0.2,0.2C221.3,66.9,221.1,67,221,67"/>
<path d="M225.8,43.6h14.3V29.3h-14.3V43.6z M240.3,44.1h-14.8c-0.1,0-0.2-0.1-0.2-0.2V29.1c0-0.1,0.1-0.2,0.2-0.2h14.8
	c0.1,0,0.2,0.1,0.2,0.2v14.8C240.6,44,240.5,44.1,240.3,44.1"/>
<path d="M230.3,39.1h14.3V24.8h-14.3V39.1z M244.9,39.6h-14.8c-0.1,0-0.2-0.1-0.2-0.2V24.5c0-0.1,0.1-0.2,0.2-0.2h14.8
	c0.1,0,0.2,0.1,0.2,0.2v14.8C245.1,39.5,245,39.6,244.9,39.6"/>
<path d="M240.3,29.3c-0.1,0-0.1,0-0.2-0.1c-0.1-0.1-0.1-0.2,0-0.3l4.5-4.5c0.1-0.1,0.3-0.1,0.4,0c0.1,0.1,0.1,0.3,0,0.3l-4.5,4.5
	C240.5,29.3,240.4,29.3,240.3,29.3"/>
<path d="M240.3,44.1c-0.1,0-0.1,0-0.2-0.1c-0.1-0.1-0.1-0.3,0-0.3l4.5-4.5c0.1-0.1,0.3-0.1,0.4,0c0.1,0.1,0.1,0.3,0,0.3l-4.5,4.5
	C240.5,44.1,240.4,44.1,240.3,44.1"/>
<path d="M225.5,29.3c-0.1,0-0.1,0-0.2-0.1c-0.1-0.1-0.1-0.3,0-0.3l4.5-4.5c0.1-0.1,0.2-0.1,0.3,0c0.1,0.1,0.1,0.3,0,0.3l-4.5,4.5
	C225.7,29.3,225.6,29.3,225.5,29.3"/>
<path d="M225.5,44.1c-0.1,0-0.1,0-0.2-0.1c-0.1-0.1-0.1-0.3,0-0.3l4.5-4.5c0.1-0.1,0.3-0.1,0.4,0c0.1,0.1,0.1,0.3,0,0.3l-4.5,4.5
	C225.7,44.1,225.6,44.1,225.5,44.1"/>
<path class="st9" d="M220.5,21.9l-2.7,2.7l16.9,17l2.7-2.7L220.5,21.9"/>
<path d="M218.2,24.6l16.6,16.6l2.3-2.3l-16.6-16.6L218.2,24.6z M234.8,41.8c-0.1,0-0.1,0-0.2-0.1l-16.9-17c-0.1-0.1-0.1-0.3,0-0.4
	l2.7-2.7c0,0,0.1-0.1,0.2-0.1c0.1,0,0.1,0,0.2,0.1l17,17c0.1,0.1,0.1,0.3,0,0.4l-2.7,2.7C234.9,41.7,234.9,41.8,234.8,41.8"/>
<path d="M234.8,41.8c-0.1,0-0.1,0-0.2-0.1l-16.9-17c-0.1-0.1-0.1-0.3,0-0.4c0.1-0.1,0.3-0.1,0.3,0l16.9,17c0.1,0.1,0.1,0.3,0,0.4
	C234.9,41.7,234.9,41.8,234.8,41.8"/>
<path d="M236.1,40.4c-0.1,0-0.1,0-0.2-0.1l-16.9-17c-0.1-0.1-0.1-0.3,0-0.4c0.1-0.1,0.3-0.1,0.4,0l16.9,17c0.1,0.1,0.1,0.3,0,0.3
	C236.3,40.4,236.2,40.4,236.1,40.4"/>
<path class="st1" d="M234.8,41.5l2.7-2.7l1,3.7L234.8,41.5"/>
<path class="st9" d="M237.4,42.2l0.8-0.8l0.3,1.1L237.4,42.2"/>
<path class="st1" d="M220.5,21.9c-0.7-0.7-1.9-0.7-2.7,0s-0.7,1.9,0,2.7s1.9,0.7,2.7,0S221.2,22.6,220.5,21.9"/>
<path d="M219.2,21.6c-0.4,0-0.8,0.2-1.2,0.5c-0.6,0.6-0.6,1.7,0,2.3c0.3,0.3,0.7,0.5,1.2,0.5c0.4,0,0.8-0.2,1.2-0.5
	c0.6-0.6,0.6-1.7,0-2.3C220,21.8,219.6,21.6,219.2,21.6z M219.2,25.4c-0.6,0-1.1-0.2-1.5-0.6c-0.8-0.8-0.8-2.2,0-3
	c0.4-0.4,0.9-0.6,1.5-0.6c0.6,0,1.1,0.2,1.5,0.6c0.8,0.8,0.8,2.2,0,3C220.3,25.1,219.8,25.4,219.2,25.4"/>
<path class="st9" d="M219.8,22.6c-0.3-0.3-0.9-0.3-1.2,0c-0.3,0.3-0.3,0.9,0,1.2c0.3,0.3,0.9,0.3,1.2,0
	C220.1,23.5,220.1,23,219.8,22.6"/>
<path d="M235.3,41.4l2.8,0.8l-0.8-2.8L235.3,41.4z M238.5,42.8C238.5,42.8,238.4,42.8,238.5,42.8l-3.7-1c-0.1,0-0.2-0.1-0.2-0.2
	c0-0.1,0-0.2,0.1-0.2l2.7-2.7c0.1-0.1,0.2-0.1,0.2-0.1c0.1,0,0.2,0.1,0.2,0.2l1,3.7c0,0.1,0,0.2-0.1,0.2
	C238.6,42.8,238.6,42.8,238.5,42.8"/>
<path d="M221.7,32.2h-14.4c-0.1,0-0.2-0.1-0.2-0.2c0-0.1,0.1-0.2,0.2-0.2h14.4c0.1,0,0.2,0.1,0.2,0.2
	C221.9,32.1,221.8,32.2,221.7,32.2"/>
<path d="M221.7,35.1h-14.4c-0.1,0-0.2-0.1-0.2-0.2c0-0.1,0.1-0.2,0.2-0.2h14.4c0.1,0,0.2,0.1,0.2,0.2
	C221.9,34.9,221.8,35.1,221.7,35.1"/>
<path d="M221.7,37.9h-14.4c-0.1,0-0.2-0.1-0.2-0.2c0-0.1,0.1-0.2,0.2-0.2h14.4c0.1,0,0.2,0.1,0.2,0.2
	C221.9,37.8,221.8,37.9,221.7,37.9"/>
<path d="M191,53.7c-1.6,0-3.4,4.1-3.4,10.2c0,6.1,1.8,10.2,3.4,10.2c1.6,0,3.4-4.1,3.4-10.2C194.4,57.8,192.7,53.7,191,53.7z
	 M191,74.6c-2.2,0-3.9-4.7-3.9-10.7c0-6,1.7-10.7,3.9-10.7c2.2,0,3.9,4.7,3.9,10.7C194.9,69.9,193.2,74.6,191,74.6"/>
<path d="M189.2,66.8c2.3,1.5,4.7,2.6,6.7,3.1c1.9,0.5,3.2,0.3,3.7-0.4c0.9-1.4-1.6-5.1-6.7-8.4c-2.3-1.5-4.7-2.6-6.7-3.1
	c-1.9-0.5-3.2-0.3-3.7,0.4C181.5,59.8,184,63.5,189.2,66.8z M197.8,70.6c-0.6,0-1.3-0.1-2-0.3c-2.1-0.5-4.5-1.6-6.9-3.1
	c-5-3.2-8.1-7.2-6.9-9.1c0.6-0.9,2.1-1.1,4.2-0.6c2.1,0.5,4.5,1.6,6.9,3.1c5,3.2,8.1,7.2,6.9,9.1C199.6,70.3,198.8,70.6,197.8,70.6"
	/>
<path d="M193,67L193,67L193,67z M197.8,57.7c-0.5,0-1.2,0.1-1.9,0.3c-2,0.5-4.4,1.6-6.7,3.1c-5.1,3.3-7.6,7-6.7,8.4
	c0.5,0.7,1.8,0.9,3.7,0.4c2-0.5,4.4-1.6,6.7-3.1c5.1-3.3,7.6-7,6.7-8.4C199.3,57.9,198.7,57.7,197.8,57.7z M184.2,70.6
	c-1.1,0-1.8-0.3-2.2-0.9c-1.2-1.8,1.8-5.8,6.9-9.1c2.4-1.5,4.8-2.6,6.9-3.1c2.1-0.5,3.6-0.3,4.2,0.6c1.2,1.8-1.8,5.8-6.9,9.1
	c-2.4,1.5-4.8,2.6-6.9,3.1C185.5,70.5,184.8,70.6,184.2,70.6"/>
<path class="st10" d="M194.5,55.2c0,0.8-0.6,1.4-1.4,1.4s-1.4-0.6-1.4-1.4s0.6-1.4,1.4-1.4S194.5,54.4,194.5,55.2"/>
<path class="st9" d="M184.6,65.9c0,0.8-0.6,1.4-1.4,1.4s-1.4-0.6-1.4-1.4s0.6-1.4,1.4-1.4S184.6,65.1,184.6,65.9"/>
<path class="st5" d="M200.1,65.3c0,0.8-0.6,1.4-1.4,1.4c-0.8,0-1.4-0.6-1.4-1.4s0.6-1.4,1.4-1.4C199.4,63.9,200.1,64.5,200.1,65.3"
	/>
<path d="M176.7,61.3h-14.4c-0.1,0-0.2-0.1-0.2-0.2c0-0.1,0.1-0.2,0.2-0.2h14.4c0.1,0,0.2,0.1,0.2,0.2
	C176.9,61.2,176.8,61.3,176.7,61.3"/>
<path d="M176.7,64.1h-14.4c-0.1,0-0.2-0.1-0.2-0.2c0-0.1,0.1-0.2,0.2-0.2h14.4c0.1,0,0.2,0.1,0.2,0.2
	C176.9,64,176.8,64.1,176.7,64.1"/>
<path d="M176.7,67h-14.4c-0.1,0-0.2-0.1-0.2-0.2c0-0.1,0.1-0.2,0.2-0.2h14.4c0.1,0,0.2,0.1,0.2,0.2C176.9,66.9,176.8,67,176.7,67"/>
<path d="M191.3,25.2c-5.2,0-9.4,4.2-9.4,9.4s4.2,9.4,9.4,9.4c5.2,0,9.4-4.2,9.4-9.4S196.5,25.2,191.3,25.2z M191.3,44.5
	c-5.5,0-9.9-4.4-9.9-9.9s4.5-9.9,9.9-9.9c5.5,0,9.9,4.4,9.9,9.9S196.7,44.5,191.3,44.5"/>
<path d="M191.3,25.2c-2.6,0-4.7,4.2-4.7,9.4s2.1,9.4,4.7,9.4c2.6,0,4.7-4.2,4.7-9.4S193.8,25.2,191.3,25.2z M191.3,44.5
	c-2.9,0-5.2-4.4-5.2-9.9s2.3-9.9,5.2-9.9c2.9,0,5.2,4.4,5.2,9.9S194.1,44.5,191.3,44.5"/>
<path d="M191.3,30.3c-2.5,0-4.9-0.9-6.7-2.7c-0.1-0.1-0.1-0.2,0-0.3c0.1-0.1,0.2-0.1,0.4,0c1.7,1.6,4,2.5,6.4,2.5s4.7-0.9,6.4-2.5
	c0.1-0.1,0.3-0.1,0.3,0c0.1,0.1,0.1,0.3,0,0.3C196.2,29.4,193.8,30.3,191.3,30.3"/>
<path d="M184.7,41.9c-0.1,0-0.1,0-0.2-0.1c-0.1-0.1-0.1-0.3,0-0.3c1.8-1.7,4.2-2.7,6.7-2.7s4.9,0.9,6.8,2.6c0.1,0.1,0.1,0.3,0,0.4
	s-0.2,0.1-0.3,0c-1.8-1.6-4-2.5-6.4-2.5c-2.4,0-4.7,0.9-6.4,2.5C184.8,41.9,184.7,41.9,184.7,41.9"/>
<path d="M200.9,34.8h-19.3c-0.1,0-0.2-0.1-0.2-0.2s0.1-0.2,0.2-0.2h19.3c0.1,0,0.2,0.1,0.2,0.2S201.1,34.8,200.9,34.8"/>
<path d="M191.3,44.5c-0.1,0-0.2-0.1-0.2-0.2V24.9c0-0.1,0.1-0.2,0.2-0.2c0.1,0,0.2,0.1,0.2,0.2v19.3
	C191.5,44.4,191.4,44.5,191.3,44.5"/>
<path d="M177.8,32.2h-14.4c-0.1,0-0.2-0.1-0.2-0.2c0-0.1,0.1-0.2,0.2-0.2h14.4c0.1,0,0.2,0.1,0.2,0.2
	C178.1,32.1,178,32.2,177.8,32.2"/>
<path d="M177.8,35.1h-14.4c-0.1,0-0.2-0.1-0.2-0.2c0-0.1,0.1-0.2,0.2-0.2h14.4c0.1,0,0.2,0.1,0.2,0.2
	C178.1,34.9,178,35.1,177.8,35.1"/>
<path d="M177.8,37.9h-14.4c-0.1,0-0.2-0.1-0.2-0.2c0-0.1,0.1-0.2,0.2-0.2h14.4c0.1,0,0.2,0.1,0.2,0.2
	C178.1,37.8,178,37.9,177.8,37.9"/>
<path class="st5" d="M118.4,58.1h28.3v-4.8h-28.3V58.1z M147,58.6h-28.8c-0.1,0-0.2-0.1-0.2-0.2V53c0-0.1,0.1-0.2,0.2-0.2H147
	c0.1,0,0.2,0.1,0.2,0.2v5.3C147.2,58.4,147.1,58.6,147,58.6"/>
<path class="st5" d="M118.4,66.9h28.3v-4.8h-28.3V66.9z M147,67.4h-28.8c-0.1,0-0.2-0.1-0.2-0.2v-5.3c0-0.1,0.1-0.2,0.2-0.2H147
	c0.1,0,0.2,0.1,0.2,0.2v5.3C147.2,67.3,147.1,67.4,147,67.4"/>
<path class="st11" d="M138.8,131.5l11.5-3.6l7.7,24.4l-11.6,3.6L138.8,131.5"/>
<path class="st12" d="M152,133.2l-10.2,7.8l-3-9.5l11.5-3.6L152,133.2"/>
<path class="st12" d="M142.8,144.2l11.6-3.6l3.7,11.6l-11.6,3.6L142.8,144.2"/>
<path class="st9" d="M143,162.1c-0.1-4.3-0.9-6.6,0.4-10l0.1-0.3c0.4-1.1,1.9-1.3,2.6-0.3l1.2,1.6c1.1,1.5,2.9,0.8,2.9,0.8
	c1.1-0.3,1.3-1.1,3-3.1l-0.7-2.2l1.4-2.4l2.3-0.7l2.5,2l10,2.1l8.9-3.4l3.3,1.1l-0.9,4.4l-10.3,10.2l-10.6,1L143,162.1"/>
<path class="st1" d="M141.5,164.8l1.6-2.7l16.6-0.5l11.2-2.9l6-5.6l4.1-5.9l1.6,1.6l0.5,1.7l-1.8,5.4c0,0-2.1,2.1-6.3,6.2
	c0,0-9.5,3.4-11.9,4.1l-1.7-0.9l-2,0.6l-0.9,1.7c-1.6,0.5-5.2,1.1-5.2,1.1l-10.7,0L141.5,164.8"/>
<path d="M142.6,168.6l10.5,0c0.3-0.1,3.5-0.6,5-1.1l0.8-1.6c0-0.1,0.1-0.1,0.1-0.1l2-0.6c0.1,0,0.1,0,0.2,0l1.6,0.8
	c2.5-0.8,11-3.8,11.8-4.1c3.8-3.7,5.9-5.8,6.2-6.2l1.8-5.3l-0.5-1.6l-1.3-1.4l-4,5.7c0,0,0,0,0,0l-6,5.6c0,0-0.1,0-0.1,0.1
	l-11.2,2.9c0,0,0,0-0.1,0l-16.4,0.5l-1.4,2.5L142.6,168.6z M153.1,169.1l-10.7,0c-0.1,0-0.2-0.1-0.2-0.2l-1-4.1c0-0.1,0-0.1,0-0.2
	l1.6-2.7c0-0.1,0.1-0.1,0.2-0.1l16.5-0.5l11.1-2.8l5.9-5.5l4.1-5.9c0-0.1,0.1-0.1,0.2-0.1c0.1,0,0.1,0,0.2,0.1l1.6,1.6
	c0,0,0,0.1,0.1,0.1l0.5,1.7c0,0,0,0.1,0,0.2l-1.8,5.4c0,0,0,0.1-0.1,0.1c0,0-2.1,2.2-6.3,6.2c0,0-0.1,0-0.1,0.1
	c-0.1,0-9.5,3.4-12,4.1c-0.1,0-0.1,0-0.2,0l-1.6-0.8l-1.8,0.6l-0.8,1.6c0,0.1-0.1,0.1-0.2,0.1C156.8,168.5,153.3,169.1,153.1,169.1
	C153.2,169.1,153.2,169.1,153.1,169.1"/>
<path d="M139.4,149.2c-0.4,0-0.8,0.1-1.1,0.4c-0.7,0.6-0.8,1.7-0.2,2.4c0.5,0.6,2.9,1.9,4.3,2.6c-0.4-1.5-1.2-4.1-1.6-4.7
	c-0.3-0.3-0.7-0.6-1.1-0.6C139.5,149.2,139.4,149.2,139.4,149.2z M142.7,155.2c0,0-0.1,0-0.1,0c-0.4-0.2-4.2-2.1-4.9-3
	c-0.8-0.9-0.6-2.3,0.3-3.1c0.5-0.4,1-0.5,1.6-0.5c0.6,0.1,1.1,0.3,1.5,0.8c0.7,0.8,1.8,5,1.9,5.4c0,0.1,0,0.2-0.1,0.3
	C142.8,155.2,142.8,155.2,142.7,155.2"/>
<path d="M159.1,150.6c-0.1,0-0.1,0-0.2,0c-0.1-0.1-0.1-0.2,0-0.3l1.9-2.4c0.1-0.1,0.2-0.1,0.3,0c0.1,0.1,0.1,0.2,0,0.3l-1.9,2.4
	C159.3,150.6,159.2,150.6,159.1,150.6"/>
<path d="M161.6,151.3c-0.1,0-0.1,0-0.2-0.1c-0.1-0.1-0.1-0.2,0-0.3l1.9-2.4c0.1-0.1,0.2-0.1,0.3,0c0.1,0.1,0.1,0.2,0,0.3l-1.9,2.4
	C161.8,151.3,161.7,151.3,161.6,151.3"/>
<path d="M164.1,152.1c-0.1,0-0.1,0-0.2-0.1c-0.1-0.1-0.1-0.2,0-0.3l1.9-2.4c0.1-0.1,0.2-0.1,0.3,0c0.1,0.1,0.1,0.2,0,0.3l-1.9,2.4
	C164.3,152,164.2,152.1,164.1,152.1"/>
<path class="st5" d="M124.5,88.1L124.5,88.1l-50.2,31.6l1.1,10.8c8.4,7.4,18.6,8.3,28,2.1l23.4-19l13,28.1l15.9-7.3l-10.5-39.6
	C141.8,86.7,132,83.6,124.5,88.1"/>
<path class="st11" d="M126.1,164.1l13.1,0l0.1,26.7l-13.1,0L126.1,164.1"/>
<path class="st12" d="M139.2,175.6l-13.1,2l-0.1-13.4l13.1,0L139.2,175.6"/>
<path class="st12" d="M126.1,180l13.1-0.2l0,11l-13.1,0L126.1,180"/>
<path class="st9" d="M125.4,185.9l-0.2,0.3c-2.3,2.9-2.2,5.4-3.4,9.6l15.4,5.6l23.1,0.2l3.9-2.3l-1.3-3.3l-12.8-4.2l-8.8-5.5
	l-1.8-2.7l-2.4,0l-2,1.9l0,2.4c-2.3,1.4-2.7,2.1-3.9,2.1c0,0-1.9,0.2-2.6-1.6l-0.6-1.9C127.6,185.2,126.1,185,125.4,185.9"/>
<path d="M125.4,185.9L125.4,185.9L125.4,185.9z M137.3,201.1l23,0.2l3.7-2.2l-1.2-3L150,192c0,0,0,0-0.1,0l-8.8-5.5
	c0,0-0.1,0-0.1-0.1l-1.7-2.6l-2.2,0l-1.9,1.8l0,2.3c0,0.1,0,0.2-0.1,0.2c-0.7,0.4-1.3,0.8-1.7,1.1c-0.9,0.6-1.4,1-2.3,1h0
	c-0.5,0-2.2-0.1-2.8-1.8l-0.6-1.9c-0.1-0.4-0.5-0.8-1-0.8c-0.5-0.1-0.9,0.1-1.2,0.5l-0.2,0.3c-1.6,2-2,3.9-2.6,6.3
	c-0.2,0.9-0.4,1.9-0.7,3L137.3,201.1z M160.3,201.8l-23.1-0.2c0,0-0.1,0-0.1,0l-15.4-5.6c-0.1,0-0.2-0.2-0.2-0.3
	c0.3-1.2,0.6-2.3,0.8-3.2c0.5-2.4,1-4.4,2.6-6.5l0.2-0.2c0.4-0.5,1-0.8,1.7-0.6c0.6,0.1,1.2,0.5,1.4,1.2l0.6,1.9
	c0.5,1.4,1.8,1.5,2.3,1.5c0,0,0,0,0,0c0.7,0,1.1-0.3,2-0.9c0.4-0.3,0.9-0.6,1.6-1.1l0-2.2c0-0.1,0-0.1,0.1-0.2l2-1.9
	c0,0,0.1-0.1,0.2-0.1l2.4,0c0.1,0,0.2,0,0.2,0.1l1.8,2.7l8.7,5.5l12.8,4.2c0.1,0,0.1,0.1,0.2,0.1l1.3,3.3c0,0.1,0,0.2-0.1,0.3
	l-3.9,2.3C160.4,201.8,160.3,201.8,160.3,201.8"/>
<g>
	<defs>
		<rect id="SVGID_00000178184027954889801530000007590190236557394563_" x="117.3" y="194.7" width="48" height="11.3"/>
	</defs>
	<clipPath id="SVGID_00000009557530260870487200000004465415166822040448_">
		<use xlink:href="#SVGID_00000178184027954889801530000007590190236557394563_"  style="overflow:visible;"/>
	</clipPath>
	<g style="clip-path:url(#SVGID_00000009557530260870487200000004465415166822040448_);">
		<path class="st1" d="M164.2,199.2l-7.2,1.4l-19.1-0.3l-16.2-4.5l-2.3,2.1l-1,5.3l6.2,2.7c0,0,4.5,0,10.2,0l1.4-1.4l2.1,0l1.4,1.3
			c8.9,0,18.5-0.1,18.5-0.1l5.2-2.7l0.8-1.6L164.2,199.2"/>
		<path d="M118.8,203l6,2.6c0.5,0,4.8,0,10,0l1.3-1.3c0,0,0.1-0.1,0.2-0.1l2.1,0c0.1,0,0.1,0,0.2,0.1l1.3,1.3
			c8.4,0,17.5-0.1,18.3-0.1l5-2.6l0.8-1.5l0-1.9l-6.9,1.3c0,0,0,0-0.1,0l-19.1-0.3c0,0,0,0-0.1,0l-16.1-4.5l-2.2,2L118.8,203z
			 M124.7,206.1C124.7,206.1,124.7,206.1,124.7,206.1l-6.3-2.7c-0.1,0-0.2-0.2-0.1-0.3l1-5.3c0-0.1,0-0.1,0.1-0.1l2.3-2.1
			c0.1-0.1,0.2-0.1,0.2-0.1L138,200l19,0.3l7.2-1.4c0.1,0,0.2,0,0.2,0.1s0.1,0.1,0.1,0.2l0,2.3c0,0,0,0.1,0,0.1l-0.8,1.6
			c0,0-0.1,0.1-0.1,0.1l-5.2,2.7c0,0-0.1,0-0.1,0c-0.1,0-9.7,0.1-18.5,0.1c-0.1,0-0.1,0-0.2-0.1l-1.3-1.3l-1.9,0l-1.3,1.3
			c0,0-0.1,0.1-0.2,0.1C129.3,206.1,124.8,206.1,124.7,206.1L124.7,206.1"/>
	</g>
</g>
<path d="M140.9,189.5c-0.1,0-0.2,0-0.2-0.1c-0.1-0.1-0.1-0.3,0.1-0.3l2.5-1.8c0.1-0.1,0.3-0.1,0.3,0.1c0.1,0.1,0.1,0.3-0.1,0.3
	l-2.5,1.8C141,189.5,140.9,189.5,140.9,189.5"/>
<path d="M143.1,191c-0.1,0-0.2,0-0.2-0.1c-0.1-0.1-0.1-0.3,0.1-0.3l2.5-1.8c0.1-0.1,0.3-0.1,0.3,0.1c0.1,0.1,0.1,0.3-0.1,0.3
	l-2.5,1.8C143.2,191,143.1,191,143.1,191"/>
<path d="M145.3,192.5c-0.1,0-0.2,0-0.2-0.1c-0.1-0.1-0.1-0.3,0.1-0.3l2.5-1.8c0.1-0.1,0.3-0.1,0.3,0.1c0.1,0.1,0.1,0.3-0.1,0.3
	l-2.5,1.8C145.4,192.4,145.3,192.5,145.3,192.5"/>
<path class="st5" d="M151.8,134.3c1.6-8.7-4.9-16.7-13.6-17.1v0H72.1l-0.1,7c3,12.7,9.1,15.6,20.4,15.6l33.6-0.1l-1.1,34.2l17.4,1.5
	l8.1-34.9L151.8,134.3"/>
<path d="M142.2,175.6C142.2,175.6,142.2,175.6,142.2,175.6l-17.4-1.5c-0.1,0-0.2-0.1-0.2-0.3l1.1-33.9l-33.4,0.1
	c-12.2,0-18.7-4.9-20.4-15.5c-0.3-1.9-0.1-8-0.1-8.2c0-0.1,0.1-0.2,0.2-0.2c0,0,0,0,0,0c0.1,0,0.2,0.1,0.2,0.3
	c0,0.1-0.2,6.3,0.1,8.2c1.6,10.3,8,15,19.9,15l33.6-0.1c0.1,0,0.1,0,0.2,0.1c0,0,0.1,0.1,0.1,0.2l-1.1,33.9l16.9,1.5l9.4-40.9
	c0.7-4-0.3-8.2-2.9-11.4c-2.6-3.2-6.4-5.2-10.5-5.3c0,0,0,0-0.1,0H99.4c-0.1,0-0.2-0.1-0.2-0.2c0-0.1,0.1-0.2,0.2-0.2h38.7
	c0,0,0.1,0,0.1,0c4.2,0.2,8.1,2.2,10.8,5.5c2.7,3.3,3.7,7.7,3,11.9l-9.5,41.1C142.4,175.5,142.3,175.6,142.2,175.6"/>
<path d="M72.3,125.2c6.8-0.9,22.1-2.7,38.5-5.1l-2-2.3H72C72,117.8,72.3,125,72.3,125.2"/>
<path class="st5" d="M145.9,73.4c-2.7,0-4.8,2.2-4.8,4.8c0,2.7,2.2,4.8,4.8,4.8c2.7,0,4.8-2.2,4.8-4.8
	C150.7,75.6,148.6,73.4,145.9,73.4z M145.9,83.5c-2.9,0-5.3-2.4-5.3-5.3c0-2.9,2.4-5.3,5.3-5.3c2.9,0,5.3,2.4,5.3,5.3
	C151.2,81.2,148.8,83.5,145.9,83.5"/>
<path class="st5" d="M152.8,73.4c-2.7,0-4.8,2.2-4.8,4.8c0,2.7,2.2,4.8,4.8,4.8s4.8-2.2,4.8-4.8C157.6,75.6,155.5,73.4,152.8,73.4z
	 M152.8,83.5c-2.9,0-5.3-2.4-5.3-5.3c0-2.9,2.4-5.3,5.3-5.3s5.3,2.4,5.3,5.3C158.1,81.2,155.7,83.5,152.8,83.5"/>
<path class="st5" d="M159.7,73.4c-2.7,0-4.8,2.2-4.8,4.8c0,2.7,2.2,4.8,4.8,4.8c2.7,0,4.8-2.2,4.8-4.8
	C164.6,75.6,162.4,73.4,159.7,73.4z M159.7,83.5c-2.9,0-5.3-2.4-5.3-5.3c0-2.9,2.4-5.3,5.3-5.3c2.9,0,5.3,2.4,5.3,5.3
	C165.1,81.2,162.7,83.5,159.7,83.5"/>
<path class="st5" d="M166.6,73.4c-2.7,0-4.8,2.2-4.8,4.8c0,2.7,2.2,4.8,4.8,4.8c2.7,0,4.8-2.2,4.8-4.8
	C171.5,75.6,169.3,73.4,166.6,73.4z M166.6,83.5c-2.9,0-5.3-2.4-5.3-5.3c0-2.9,2.4-5.3,5.3-5.3s5.3,2.4,5.3,5.3
	C172,81.2,169.6,83.5,166.6,83.5"/>
<path class="st5" d="M173.7,73.4c-2.7,0-4.8,2.2-4.8,4.8c0,2.7,2.2,4.8,4.8,4.8c2.7,0,4.8-2.2,4.8-4.8
	C178.6,75.6,176.4,73.4,173.7,73.4z M173.7,83.5c-2.9,0-5.3-2.4-5.3-5.3c0-2.9,2.4-5.3,5.3-5.3s5.3,2.4,5.3,5.3
	C179.1,81.2,176.7,83.5,173.7,83.5"/>
<path class="st5" d="M180.7,73.4c-2.7,0-4.8,2.2-4.8,4.8c0,2.7,2.2,4.8,4.8,4.8c2.7,0,4.8-2.2,4.8-4.8
	C185.5,75.6,183.3,73.4,180.7,73.4z M180.7,83.5c-2.9,0-5.3-2.4-5.3-5.3c0-2.9,2.4-5.3,5.3-5.3c2.9,0,5.3,2.4,5.3,5.3
	C186,81.2,183.6,83.5,180.7,83.5"/>
<path class="st1" d="M123.4,117H174l19-38.7h-50.6L123.4,117"/>
<path d="M123.8,116.8h50l18.8-38.2h-50L123.8,116.8z M174,117.3h-50.6c-0.1,0-0.2,0-0.2-0.1c0-0.1-0.1-0.2,0-0.2l19-38.7
	c0-0.1,0.1-0.1,0.2-0.1H193c0.1,0,0.2,0,0.2,0.1s0.1,0.2,0,0.2l-19,38.7C174.1,117.2,174.1,117.3,174,117.3"/>
<path class="st1" d="M121.7,117h50.6l19-38.7h-50.6L121.7,117"/>
<path d="M122.1,116.8h50l18.8-38.2h-50L122.1,116.8z M172.2,117.3h-50.6c-0.1,0-0.2,0-0.2-0.1c0-0.1,0-0.2,0-0.2l19-38.7
	c0-0.1,0.1-0.1,0.2-0.1h50.6c0.1,0,0.2,0,0.2,0.1s0,0.2,0,0.2l-19,38.7C172.4,117.2,172.3,117.3,172.2,117.3"/>
<path class="st1" d="M119.9,117h50.6l19-38.7H139L119.9,117"/>
<path d="M120.3,116.8h50l18.8-38.2h-50L120.3,116.8z M170.5,117.3h-50.6c-0.1,0-0.2,0-0.2-0.1c0-0.1,0-0.2,0-0.2l19-38.7
	c0-0.1,0.1-0.1,0.2-0.1h50.6c0.1,0,0.2,0,0.2,0.1c0,0.1,0,0.2,0,0.2l-19,38.7C170.7,117.2,170.6,117.3,170.5,117.3"/>
<path class="st1" d="M118.2,117h50.6l19-38.7h-50.6L118.2,117"/>
<path d="M118.6,116.8h50l18.8-38.2h-50L118.6,116.8z M168.8,117.3h-50.6c-0.1,0-0.2,0-0.2-0.1c0-0.1,0-0.2,0-0.2l19-38.7
	c0-0.1,0.1-0.1,0.2-0.1h50.6c0.1,0,0.2,0,0.2,0.1c0,0.1,0,0.2,0,0.2l-19,38.7C169,117.2,168.9,117.3,168.8,117.3"/>
<path d="M146,83.2c0,1-0.8,1.8-1.8,1.8c-1,0-1.8-0.8-1.8-1.8c0-1,0.8-1.8,1.8-1.8C145.1,81.3,146,82.1,146,83.2"/>
<path d="M152.9,83.2c0,1-0.8,1.8-1.8,1.8c-1,0-1.8-0.8-1.8-1.8c0-1,0.8-1.8,1.8-1.8C152.1,81.3,152.9,82.1,152.9,83.2"/>
<path d="M159.8,83.2c0,1-0.8,1.8-1.8,1.8c-1,0-1.8-0.8-1.8-1.8c0-1,0.8-1.8,1.8-1.8C159,81.3,159.8,82.1,159.8,83.2"/>
<path d="M166.7,83.2c0,1-0.8,1.8-1.8,1.8c-1,0-1.8-0.8-1.8-1.8c0-1,0.8-1.8,1.8-1.8C165.9,81.3,166.7,82.1,166.7,83.2"/>
<path d="M173.8,83.2c0,1-0.8,1.8-1.8,1.8c-1,0-1.8-0.8-1.8-1.8c0-1,0.8-1.8,1.8-1.8C173,81.3,173.8,82.1,173.8,83.2"/>
<path d="M180.7,83.2c0,1-0.8,1.8-1.8,1.8c-1,0-1.8-0.8-1.8-1.8c0-1,0.8-1.8,1.8-1.8C179.9,81.3,180.7,82.1,180.7,83.2"/>
<path class="st5" d="M145.9,83.5c-2.9,0-5.3-2.4-5.3-5.3c0-2.9,2.4-5.3,5.3-5.3c0.1,0,0.2,0.1,0.2,0.2c0,0.1-0.1,0.2-0.2,0.2
	c-2.7,0-4.8,2.2-4.8,4.8c0,2.7,2.2,4.8,4.8,4.8c0.1,0,0.2,0.1,0.2,0.2C146.1,83.4,146,83.5,145.9,83.5"/>
<path class="st5" d="M152.8,83.5c-2.9,0-5.3-2.4-5.3-5.3c0-2.9,2.4-5.3,5.3-5.3c0.1,0,0.2,0.1,0.2,0.2c0,0.1-0.1,0.2-0.2,0.2
	c-2.7,0-4.8,2.2-4.8,4.8c0,2.7,2.2,4.8,4.8,4.8c0.1,0,0.2,0.1,0.2,0.2C153.1,83.4,152.9,83.5,152.8,83.5"/>
<path class="st5" d="M159.7,83.5c-2.9,0-5.3-2.4-5.3-5.3c0-2.9,2.4-5.3,5.3-5.3c0.1,0,0.2,0.1,0.2,0.2c0,0.1-0.1,0.2-0.2,0.2
	c-2.7,0-4.8,2.2-4.8,4.8c0,2.7,2.2,4.8,4.8,4.8c0.1,0,0.2,0.1,0.2,0.2C160,83.4,159.9,83.5,159.7,83.5"/>
<path class="st5" d="M166.6,83.5c-2.9,0-5.3-2.4-5.3-5.3c0-2.9,2.4-5.3,5.3-5.3c0.1,0,0.2,0.1,0.2,0.2c0,0.1-0.1,0.2-0.2,0.2
	c-2.7,0-4.8,2.2-4.8,4.8c0,2.7,2.2,4.8,4.8,4.8c0.1,0,0.2,0.1,0.2,0.2C166.9,83.4,166.8,83.5,166.6,83.5"/>
<path class="st5" d="M173.7,83.5c-2.9,0-5.3-2.4-5.3-5.3c0-2.9,2.4-5.3,5.3-5.3c0.1,0,0.2,0.1,0.2,0.2c0,0.1-0.1,0.2-0.2,0.2
	c-2.7,0-4.8,2.2-4.8,4.8c0,2.7,2.2,4.8,4.8,4.8c0.1,0,0.2,0.1,0.2,0.2C174,83.4,173.9,83.5,173.7,83.5"/>
<path class="st5" d="M180.7,83.5c-2.9,0-5.3-2.4-5.3-5.3c0-2.9,2.4-5.3,5.3-5.3c0.1,0,0.2,0.1,0.2,0.2c0,0.1-0.1,0.2-0.2,0.2
	c-2.7,0-4.8,2.2-4.8,4.8c0,2.7,2.2,4.8,4.8,4.8c0.1,0,0.2,0.1,0.2,0.2C180.9,83.4,180.8,83.5,180.7,83.5"/>
<path class="st5" d="M177.1,89.8h-40c-0.1,0-0.2-0.1-0.2-0.2c0-0.1,0.1-0.2,0.2-0.2h40c0.1,0,0.2,0.1,0.2,0.2
	C177.4,89.7,177.3,89.8,177.1,89.8"/>
<path class="st5" d="M173.5,96.7h-39.6c-0.1,0-0.2-0.1-0.2-0.2c0-0.1,0.1-0.2,0.2-0.2h39.6c0.1,0,0.2,0.1,0.2,0.2
	C173.8,96.6,173.6,96.7,173.5,96.7"/>
<path class="st5" d="M170,103.7h-39.8c-0.1,0-0.2-0.1-0.2-0.2c0-0.1,0.1-0.2,0.2-0.2H170c0.1,0,0.2,0.1,0.2,0.2
	C170.3,103.5,170.2,103.7,170,103.7"/>
<path class="st11" d="M109.7,58.6l-2.7,4.9l-4.2-2.3l3.3-5.9c0.9-1.6,2.4-2.8,4.2-3.2l7-1.7c0.5-0.1,1.1-0.1,1.5,0.2l0.1,0.1
	c1.7,0.9,1.4,3.4-0.5,3.9l-4.8,1.2C111.9,56.1,110.5,57.1,109.7,58.6"/>
<path class="st11" d="M124.7,58.9l-8.2,0.1c-1,0-1.9,0.6-2.3,1.4l-4.5,8.2l-4.2-2.3l4.5-8.1c1.1-2,3.2-3.3,5.6-3.3l9.2-0.2
	c1.5,0,2.5,1.6,1.8,3l-0.1,0.2C126.1,58.5,125.4,58.9,124.7,58.9"/>
<path d="M123.3,59.1c-0.1,0-0.2-0.1-0.2-0.2c0-0.1,0.1-0.2,0.2-0.2l1.4,0c0.6,0,1.2-0.4,1.5-0.9l0.1-0.2c0.3-0.6,0.3-1.2,0-1.8
	c-0.3-0.5-0.9-0.9-1.5-0.8l-7.9,0.1c0,0,0,0,0,0c-0.1,0-0.2-0.1-0.2-0.2c0-0.1,0.1-0.2,0.2-0.2l7.9-0.1c0.8,0,1.5,0.4,2,1.1
	c0.4,0.7,0.4,1.5,0,2.2l-0.1,0.2c-0.4,0.7-1.1,1.1-1.9,1.2L123.3,59.1C123.3,59.1,123.3,59.1,123.3,59.1"/>
<path class="st1" d="M128.4,75.7l-27.5-35c-0.7-0.9-0.6-2.2,0.4-2.9c0.9-0.7,2.2-0.6,2.9,0.4l27.4,35l0.6,4.2L128.4,75.7"/>
<path d="M128.5,75.5l3.4,1.3l-0.5-3.7L104,38.2c-0.3-0.4-0.7-0.6-1.2-0.7c-0.5-0.1-1,0.1-1.4,0.4c-0.8,0.6-0.9,1.8-0.3,2.6
	L128.5,75.5z M132.2,77.4C132.2,77.4,132.2,77.4,132.2,77.4l-3.9-1.5c0,0-0.1,0-0.1-0.1l-27.5-35c-0.8-1-0.6-2.5,0.4-3.3
	c0.5-0.4,1.1-0.6,1.7-0.5c0.6,0.1,1.2,0.4,1.6,0.9l27.4,35c0,0,0,0.1,0.1,0.1l0.6,4.2c0,0.1,0,0.2-0.1,0.2
	C132.3,77.4,132.3,77.4,132.2,77.4"/>
<path class="st1" d="M119,60.7l1.9-1.5L119,60.7"/>
<path d="M119,61c-0.1,0-0.1,0-0.2-0.1c-0.1-0.1-0.1-0.3,0-0.3l1.9-1.5c0.1-0.1,0.3-0.1,0.3,0c0.1,0.1,0.1,0.3,0,0.3l-1.9,1.5
	C119.1,61,119,61,119,61"/>
<path class="st11" d="M119.3,67l-0.1-0.4l-4.2-2.3l-5.7,10.3l6.8,3.7l2.5-4.5C119.7,71.8,120,69.3,119.3,67"/>
<path class="st11" d="M113,103.5l-12.6-10.4l4.1-21.8c0.2-1.6-0.2-3.2-1.2-4.5l-0.2-0.2c-1.2-1.7-1.3-3.9-0.3-5.7l2.4-4.3l6.6-0.3
	l7.4,10.3l-0.8,2.1L113,103.5"/>
<path class="st11" d="M122.1,56.5c-1.2-0.6-2.6-0.2-3.3,0.9L112,69.9l4.2,2.3l6.9-12.4C123.7,58.6,123.3,57.2,122.1,56.5"/>
<path d="M113,103.8c-0.1,0-0.1,0-0.2-0.1l-12.6-10.4c-0.1-0.1-0.1-0.1-0.1-0.2l4.1-21.9c0.2-1.4-0.2-2.9-1.1-4.1l-0.2-0.3
	c-1.2-1.7-1.4-4-0.3-5.9l3.2-5.8c0.9-1.7,2.5-2.9,4.3-3.3l7-1.7c0.6-0.1,1.2-0.1,1.7,0.2l0.1,0.1c0.9,0.5,1.3,1.4,1.2,2.4
	c-0.1,1-0.8,1.7-1.8,2l-4.8,1.2c-1.6,0.4-2.9,1.4-3.7,2.9l-2.7,4.9c-0.1,0.1-0.2,0.2-0.3,0.1c-0.1-0.1-0.2-0.2-0.1-0.3l2.7-4.9
	c0.9-1.5,2.3-2.7,4-3.1l4.8-1.2c0.9-0.2,1.3-1,1.4-1.6c0.1-0.6-0.1-1.4-0.9-1.9l-0.1-0.1c-0.4-0.2-0.9-0.3-1.4-0.2l-7,1.7
	c-1.7,0.4-3.2,1.6-4,3.1l-3.2,5.8c-0.9,1.7-0.8,3.8,0.3,5.4l0.2,0.3c0.9,1.3,1.3,2.9,1.2,4.5l-4.1,21.7l12.1,10l4.5-27.5
	c0,0,0-0.1,0-0.1l0.9-1.7c1.1-2.1,1.4-4.4,0.8-6.7l-0.1-0.4c0-0.1,0-0.1,0-0.2l3.8-6.9c0.6-1,0.2-2.3-0.8-2.9
	c-0.5-0.3-1.1-0.3-1.6-0.2c-0.6,0.2-1,0.5-1.3,1L112.2,70c-0.1,0.1-0.2,0.2-0.3,0.1c-0.1-0.1-0.2-0.2-0.1-0.3l6.9-12.4
	c0.3-0.6,0.9-1.1,1.6-1.3c0.7-0.2,1.4-0.1,2,0.2c1.3,0.7,1.7,2.3,1,3.6l-3.8,6.8l0.1,0.3c0.7,2.4,0.4,4.9-0.8,7.1l-0.9,1.6
	l-4.6,27.9C113.2,103.7,113.2,103.8,113,103.8C113.1,103.8,113,103.8,113,103.8"/>
<path d="M116.1,62.6c-0.1,0-0.2,0-0.2-0.1l-1.7-2.3c-0.1-0.1-0.1-0.2,0-0.3c0.6-0.7,1.4-1.1,2.3-1.1l1.5,0c0.1,0,0.2,0.1,0.3,0.2
	c0,0.1-0.1,0.2-0.2,0.3l-1.5,0c-0.7,0-1.3,0.3-1.8,0.8l1.6,2.2c0.1,0.1,0.1,0.3-0.1,0.3C116.2,62.6,116.2,62.6,116.1,62.6"/>
<path class="st4" d="M71.6,119.7h38.8L98,82l-6.3-10.8H80.5c0,0-7.2,3.8-8.9,21.8L71.6,119.7"/>
<path class="st4" d="M106.7,85c-2.8-3.5-6.3-10.5-11.5-13.1c-6.4-3.1-14.2,3.7-12.2,10.5c0.9,3.1,5.7,8.4,5.7,8.4L106.7,85"/>
<path d="M102.1,108.9c-0.1,0-0.2,0-0.2-0.1L85.7,87.5c-0.9-1.2-1.6-2.6-1.9-4.2c0-0.1,0.1-0.3,0.2-0.3c0.1,0,0.3,0.1,0.3,0.2
	c0.3,1.4,0.9,2.8,1.8,4l16.2,21.3c0.1,0.1,0.1,0.3,0,0.3C102.2,108.9,102.2,108.9,102.1,108.9"/>
<path class="st11" d="M162.1,110.2H134c-5.7,0-11.1-2.7-14.5-7.2l-13.6-17.8l-17.3,5.6l21.9,28.9c3.7,4.9,9.5,7.8,15.6,7.8h36V110.2
	"/>
<path class="st11" d="M177.8,106.3l-2.7,2.7c-1.8,1.8-4.3,2.8-6.8,2.8l-12.5,0v5.8l14.8,0c2.5,0,4.8-1,6.6-2.7l4.6-4.6
	C184.2,107.7,180.3,103.8,177.8,106.3"/>
<path class="st11" d="M179.6,112.3l-2.8,2.8c-1.4,1.4-3.4,2.3-5.4,2.3l-17.9,0v4.5l0.8,0.2c2.7,0.7,5.5,1.1,8.2,1.1h9.8
	c2.7,0,5.3-1.1,7.3-3l3.8-3.8C186,113.7,182.1,109.8,179.6,112.3"/>
<path class="st11" d="M179.1,119.9c-0.4,0.3-2.3,3-6.2,3h-25.1v4.5h2.5c6.5,0,8.4,1.2,13.5,1.2l10.1,0c2.7,0,5.3-1.1,7.3-3l1.9-1.9
	C185.6,121.3,181.6,117.4,179.1,119.9"/>
<path class="st11" d="M171.1,109.8c1.2-0.5,1.9-1.2,1.9-2.3v-0.4c0-1.4-1.3-2.5-2.7-2.3c-1.8,0.2-3.4,0.8-3.3,0.8
	c-4.7,1.6-8.3-1-13.2,2.8l-3.6,2.9v3.8l5.4,0c1.8,0,3.6-0.3,5.2-1C164.4,112.6,170.6,110,171.1,109.8"/>
<path class="st9" d="M139.1,127.5h6.2v-17.2h-6.2V127.5"/>
<path class="st1" d="M137.3,118.7c0-2.6,2.1-4.7,4.7-4.7c2.6,0,4.7,2.1,4.7,4.7s-2.1,4.7-4.7,4.7
	C139.4,123.4,137.3,121.3,137.3,118.7"/>
<path class="st12" d="M142,119.4c-0.1,0-0.2,0-0.2-0.1l-1.7-2.8c-0.1-0.1,0-0.3,0.1-0.3c0.1-0.1,0.3,0,0.3,0.1l1.6,2.6l1.6-0.1
	c0.1,0,0.3,0.1,0.3,0.2c0,0.1-0.1,0.3-0.2,0.3L142,119.4C142,119.4,142,119.4,142,119.4"/>
<path d="M170.5,117.8C170.5,117.8,170.5,117.8,170.5,117.8h-4c-0.1,0-0.2-0.1-0.2-0.2c0-0.1,0.1-0.2,0.2-0.2h4c0,0,0,0,0,0
	c2.4,0,4.7-0.9,6.4-2.7l4.6-4.6c1.2-1.2,0.8-2.6-0.1-3.5c-0.9-0.9-2.3-1.3-3.5-0.1l-2.7,2.7c-1.9,1.9-4.4,2.9-7,2.9c0,0,0,0,0,0
	l-1.9,0c-0.1,0-0.2-0.1-0.2-0.2c0-0.1,0.1-0.2,0.2-0.2h1.9c0,0,0,0,0,0c2.5,0,4.9-1,6.7-2.8l2.7-2.7c1.3-1.3,3.1-1,4.2,0.1
	c1.1,1.1,1.4,2.8,0.1,4.2l-4.6,4.6C175.5,116.8,173.1,117.8,170.5,117.8"/>
<path d="M172.5,123.3L172.5,123.3l-5.6,0c-0.1,0-0.2-0.1-0.2-0.2c0-0.1,0.1-0.2,0.2-0.2h5.6h0c2.7,0,5.2-1,7.1-2.9l3.8-3.8
	c1.1-1.1,0.7-2.5,0.1-3.3c-0.7-0.9-2.1-1.5-3.3-0.6c-0.1,0.1-0.3,0-0.3-0.1c-0.1-0.1-0.1-0.3,0.1-0.3c1.4-0.9,3-0.3,3.9,0.7
	c0.9,1,1.2,2.7-0.1,3.9l-3.8,3.8C177.9,122.2,175.3,123.3,172.5,123.3"/>
<path d="M173.9,128.9C173.9,128.9,173.9,128.9,173.9,128.9h-10.2c-1.8,0-3.4-0.1-5.1-0.4c-2.8-0.5-5.7-0.8-8.4-0.8h-24.2
	c-6.2,0-12.1-2.9-15.8-7.9L88.4,91c-0.1-0.1-0.1-0.2,0-0.2c0-0.1,0.1-0.1,0.2-0.2l17.2-5.4c0.1,0,0.2,0,0.3,0.1l13.7,17.6
	c3.4,4.5,8.7,7.1,14.3,7.1h17.5l2.2-1.7c3-2.4,5.6-2.4,8.2-2.3c1.6,0,3.3,0,5.1-0.6l0,0c0.6-0.3,2.4-0.7,3.4-0.9
	c0.7-0.1,1.5,0.1,2.1,0.6c0.6,0.5,0.9,1.2,0.9,2v0.4c0,1.2-0.7,2-2.1,2.6c-0.2,0.1-3,1.2-4.7,1.9c-2.2,0.9-4.6,1.4-7.1,1.4h-1.9
	c-0.1,0-0.2-0.1-0.2-0.2c0-0.1,0.1-0.2,0.2-0.2h1.9c2.4,0,4.7-0.5,6.9-1.4c1.7-0.7,4.5-1.8,4.7-1.9c1.2-0.5,1.8-1.1,1.8-2.1v-0.4
	c0-0.6-0.3-1.2-0.7-1.6c-0.5-0.4-1.1-0.6-1.7-0.5c-1.8,0.2-3.2,0.8-3.3,0.8c0,0,0,0,0,0c-1.9,0.6-3.6,0.6-5.2,0.6
	c-2.6,0-5-0.1-7.9,2.2l-2.2,1.8c0,0-0.1,0.1-0.2,0.1H134c-5.8,0-11.3-2.7-14.7-7.3l-13.6-17.4L89,90.9l21.7,28.6
	c3.6,4.8,9.4,7.7,15.4,7.7h24.2c2.7,0,5.6,0.3,8.5,0.8c1.6,0.3,3.2,0.4,5,0.4l10.1,0c0,0,0,0,0,0c2.7,0,5.2-1,7.1-2.9l1.9-1.9
	c0.9-0.9,0.8-2,0.4-2.8c-0.4-0.8-1.4-1.6-2.6-1.5c-0.1,0-0.3-0.1-0.3-0.2c0-0.1,0.1-0.3,0.2-0.3c1.3-0.2,2.5,0.5,3.1,1.7
	c0.6,1.2,0.4,2.5-0.5,3.4l-1.8,1.8C179.4,127.9,176.7,128.9,173.9,128.9"/>
<path d="M106,85.9l-16.1,6.6l-1.3-1.7l17.2-5.3L106,85.9"/>
<path class="st5" d="M76,44.4c-2.7,0-5-2.2-5-4.9c0-2.7,2.2-5,4.9-5c2.7,0,5,2.2,5,4.9C80.9,42.2,78.7,44.4,76,44.4z M86.7,41.4
	l0-3.9l-2.4,0c-0.2-0.9-0.6-1.7-1-2.5l1.7-1.7l-2.8-2.8l-1.7,1.7c-0.8-0.5-1.6-0.8-2.5-1l0-2.5l-3.9,0l0,2.5
	c-0.9,0.2-1.7,0.6-2.5,1.1l-1.7-1.7L67,33.3l1.7,1.7c-0.5,0.8-0.8,1.6-1,2.5l-2.4,0l0,3.9l2.4,0c0.2,0.9,0.6,1.7,1,2.5L67,45.7
	l2.8,2.8l1.7-1.7c0.8,0.5,1.6,0.8,2.5,1l0,2.5l3.9,0l0-2.5c0.9-0.2,1.7-0.6,2.5-1.1l1.7,1.7l2.8-2.8l-1.7-1.7c0.5-0.8,0.8-1.6,1-2.5
	L86.7,41.4"/>
<path class="st11" d="M83.5,62.2l-3,9.3h9.9l0.3-6.7L83.5,62.2"/>
<path class="st11" d="M81.6,58.9c0-4.5,3.6-8.1,8.1-8.1c4.5,0,8.1,3.6,8.1,8.1c0,4.5-3.6,8.1-8.1,8.1C85.3,67,81.6,63.4,81.6,58.9"
	/>
<path d="M89.7,50.7c-4.5,0-8.1,3.6-8.1,8.1c0,0.8,0.2,1.7,0.4,2.5l5.4-1.9c3.3-1.2,6.2-3.2,8.4-5.9C94.3,51.8,92.1,50.7,89.7,50.7"
	/>
<path d="M93.9,51.9l3.8,8.7c0.1-0.5,0.2-1.1,0.2-1.7C97.9,55.9,96.3,53.3,93.9,51.9"/>
<path d="M88.3,67.1C88.3,67.1,88.3,67.1,88.3,67.1c-3.9-0.8-6.7-4.2-6.7-8.2c0-0.1,0.1-0.2,0.2-0.2c0.1,0,0.2,0.1,0.2,0.2
	c0,3.7,2.6,7,6.3,7.7c0.1,0,0.2,0.2,0.2,0.3C88.5,67,88.4,67.1,88.3,67.1"/>
<path d="M77.5,48.2c0-2.3,1.9-4.2,4.2-4.2c2.3,0,4.2,1.9,4.2,4.2c0,2.3-1.9,4.2-4.2,4.2C79.4,52.4,77.5,50.5,77.5,48.2"/>
<path class="st1" d="M87.6,61.2c0.1,0.6,0.4,1.2,1,1.7c1.1,1,2.9,1.1,4,0.1L87.6,61.2"/>
<path class="st9" d="M93.9,44.5C93.9,44.5,93.9,44.5,93.9,44.5c-1.6,0-2.8,1.3-2.8,2.8c0,0.8,0.3,1.5,0.8,2c0.5,0.5,1.2,0.8,2,0.8
	c0,0,0,0,0,0c1.6,0,2.8-1.3,2.8-2.8c0-0.8-0.3-1.5-0.8-2C95.4,44.8,94.7,44.5,93.9,44.5z M93.9,50.7c-0.9,0-1.7-0.3-2.3-1
	c-0.6-0.6-1-1.5-1-2.4c0-1.8,1.5-3.3,3.3-3.3h0c0.9,0,1.7,0.3,2.3,1c0.6,0.6,1,1.5,1,2.4C97.2,49.2,95.7,50.7,93.9,50.7
	C93.9,50.7,93.9,50.7,93.9,50.7z M91.1,51.6c0,0,0.1,0,0.1,0c0.5,0.3,1,0.5,1.5,0.6c0.1,0,0.2,0.1,0.2,0.2l0,1.3l1.9,0l0-1.3
	c0-0.1,0.1-0.2,0.2-0.2c0.5-0.1,1-0.3,1.5-0.6c0.1-0.1,0.2,0,0.3,0l0.9,0.9l1.4-1.4l-0.9-0.9c-0.1-0.1-0.1-0.2,0-0.3
	c0.3-0.5,0.5-1,0.6-1.5c0-0.1,0.1-0.2,0.2-0.2l1.3,0l0-1.9l-1.3,0c-0.1,0-0.2-0.1-0.2-0.2c-0.1-0.5-0.3-1-0.6-1.5
	c-0.1-0.1,0-0.2,0-0.3l0.9-0.9l-1.4-1.4L96.8,43c-0.1,0.1-0.2,0.1-0.3,0c-0.5-0.3-1-0.5-1.5-0.6c-0.1,0-0.2-0.1-0.2-0.2l0-1.3
	l-1.9,0l0,1.3c0,0.1-0.1,0.2-0.2,0.2c-0.5,0.1-1,0.3-1.5,0.6c-0.1,0.1-0.2,0-0.3,0L90,42.1l-1.4,1.4l0.9,0.9c0.1,0.1,0.1,0.2,0,0.3
	c-0.3,0.5-0.5,1-0.6,1.5c0,0.1-0.1,0.2-0.2,0.2h-1.3l0,2l1.3,0c0.1,0,0.2,0.1,0.2,0.2c0.1,0.5,0.3,1,0.6,1.5c0.1,0.1,0,0.2,0,0.3
	l-0.9,0.9l1.4,1.4l0.9-0.9C91,51.7,91.1,51.6,91.1,51.6z M92.7,54.3c-0.1,0-0.1,0-0.2-0.1s-0.1-0.1-0.1-0.2l0-1.3
	c-0.4-0.1-0.9-0.3-1.3-0.5l-0.9,0.9c0,0-0.1,0.1-0.2,0.1c-0.1,0-0.1,0-0.2-0.1l-1.7-1.7c-0.1-0.1-0.1-0.2,0-0.3l0.9-0.9
	c-0.2-0.4-0.4-0.8-0.5-1.3l-1.3,0c0,0,0,0,0,0c-0.1,0-0.1,0-0.2-0.1S87,48.7,87,48.6l0-2.4c0-0.1,0.1-0.2,0.2-0.2l1.3,0
	c0.1-0.4,0.3-0.9,0.5-1.3l-0.9-0.9c-0.1-0.1-0.1-0.2,0-0.3l1.7-1.7c0,0,0.1-0.1,0.2-0.1c0.1,0,0.1,0,0.2,0.1l0.9,0.9
	c0.4-0.2,0.8-0.4,1.3-0.5l0-1.3c0-0.1,0.1-0.2,0.2-0.2l2.4,0c0,0,0,0,0,0c0.1,0,0.1,0,0.2,0.1s0.1,0.1,0.1,0.2l0,1.3
	c0.4,0.1,0.9,0.3,1.3,0.5l0.9-0.9c0,0,0.1-0.1,0.2-0.1c0.1,0,0.1,0,0.2,0.1l1.7,1.7c0.1,0.1,0.1,0.3,0,0.3l-0.9,0.9
	c0.2,0.4,0.4,0.8,0.5,1.3l1.3,0c0.1,0,0.1,0,0.2,0.1c0.1,0,0.1,0.1,0.1,0.2l0,2.4c0,0.1-0.1,0.2-0.2,0.2l-1.3,0
	c-0.1,0.4-0.3,0.9-0.5,1.3l0.9,0.9c0.1,0.1,0.1,0.3,0,0.4l-1.7,1.7c0,0-0.1,0.1-0.2,0.1c-0.1,0-0.1,0-0.2-0.1l-0.9-0.9
	c-0.4,0.2-0.8,0.4-1.3,0.5l0,1.3c0,0.1-0.1,0.2-0.2,0.2L92.7,54.3"/>
<g>
	<defs>
		<rect id="SVGID_00000170267911280464644490000016814679729058740367_" x="51.7" y="50.7" width="28.3" height="28"/>
	</defs>
	<clipPath id="SVGID_00000109008230818983293060000002932473522241981071_">
		<use xlink:href="#SVGID_00000170267911280464644490000016814679729058740367_"  style="overflow:visible;"/>
	</clipPath>
	<g style="clip-path:url(#SVGID_00000109008230818983293060000002932473522241981071_);">
		<path d="M65.4,59C65.4,59,65.4,59,65.4,59c-3.3,0-5.9,2.7-5.9,6c0,1.6,0.6,3.1,1.8,4.2c1.1,1.1,2.6,1.7,4.2,1.7c0,0,0,0,0,0
			c3.3,0,5.9-2.7,5.9-6c0-1.6-0.6-3.1-1.8-4.2C68.4,59.6,66.9,59,65.4,59z M65.4,71.4c-1.7,0-3.3-0.7-4.5-1.9
			c-1.2-1.2-1.9-2.8-1.9-4.6c0-3.6,2.9-6.5,6.4-6.5c1.7,0,3.3,0.7,4.5,1.9c1.2,1.2,1.9,2.8,1.9,4.6C71.8,68.5,68.9,71.4,65.4,71.4
			C65.4,71.4,65.4,71.4,65.4,71.4z M59.8,73.8c0,0,0.1,0,0.1,0c0.9,0.6,2,1,3,1.2c0.1,0,0.2,0.1,0.2,0.2l0,2.8l4.4,0l0-2.8
			c0-0.1,0.1-0.2,0.2-0.2c1.1-0.3,2.1-0.7,3-1.3c0.1-0.1,0.2,0,0.3,0l2,2l3.1-3.1l-2-2c-0.1-0.1-0.1-0.2,0-0.3c0.6-0.9,1-2,1.3-3.1
			c0-0.1,0.1-0.2,0.2-0.2l2.8,0l0-4.4l-2.8,0c0,0,0,0,0,0c-0.1,0-0.2-0.1-0.2-0.2c-0.3-1.1-0.7-2.1-1.3-3.1c-0.1-0.1,0-0.2,0-0.3
			l2-2l-3.1-3.1l-2,2c-0.1,0.1-0.2,0.1-0.3,0c-0.9-0.6-2-1-3.1-1.3c-0.1,0-0.2-0.1-0.2-0.2l0-2.8l-4.4,0l0,2.8
			c0,0.1-0.1,0.2-0.2,0.2c-1.1,0.3-2.1,0.7-3,1.3c-0.1,0.1-0.2,0-0.3,0l-2-2l-3.1,3.1l2,2c0.1,0.1,0.1,0.2,0,0.3
			c-0.6,0.9-1,2-1.2,3.1c0,0.1-0.1,0.2-0.2,0.2l-2.8,0l0,4.4l2.8,0c0.1,0,0.2,0.1,0.2,0.2c0.3,1.1,0.7,2.1,1.3,3.1
			c0.1,0.1,0,0.2,0,0.3l-2,2l3.1,3.1l2-2C59.7,73.8,59.8,73.8,59.8,73.8z M63,78.6c-0.1,0-0.1,0-0.2-0.1s-0.1-0.1-0.1-0.2l0-2.9
			c-1-0.2-1.9-0.6-2.8-1.2l-2,2c0,0-0.1,0.1-0.2,0.1c-0.1,0-0.1,0-0.2-0.1L54,72.9c-0.1-0.1-0.1-0.3,0-0.4l2-2
			c-0.5-0.9-0.9-1.8-1.2-2.8l-2.9,0c0,0,0,0,0,0c-0.1,0-0.1,0-0.2-0.1c0,0-0.1-0.1-0.1-0.2l0-4.9c0-0.1,0.1-0.2,0.2-0.2l2.9,0
			c0.2-1,0.6-2,1.2-2.9l-2-2c-0.1-0.1-0.1-0.2,0-0.3l3.5-3.5c0,0,0.1-0.1,0.2-0.1c0.1,0,0.1,0,0.2,0.1l2,2c0.9-0.5,1.8-0.9,2.8-1.2
			l0-2.9c0-0.1,0.1-0.2,0.2-0.2l4.9,0c0.1,0,0.1,0,0.2,0.1c0,0,0.1,0.1,0.1,0.2l0,2.9c1,0.3,2,0.6,2.8,1.2l2-2c0,0,0.1-0.1,0.2-0.1
			c0.1,0,0.1,0,0.2,0.1l3.5,3.5c0.1,0.1,0.1,0.3,0,0.3l-2,2c0.5,0.9,0.9,1.8,1.2,2.8l2.9,0c0.1,0,0.1,0,0.2,0.1
			c0.1,0,0.1,0.1,0.1,0.2l0,4.9c0,0.1-0.1,0.2-0.2,0.2l-2.9,0c-0.2,1-0.6,2-1.2,2.8l2,2c0.1,0.1,0.1,0.3,0,0.3l-3.4,3.5
			c0,0-0.1,0.1-0.2,0.1c-0.1,0-0.1,0-0.2-0.1l-2-2c-0.9,0.5-1.8,0.9-2.8,1.2l0,2.9c0,0.1-0.1,0.2-0.2,0.2L63,78.6
			C63,78.6,63,78.6,63,78.6"/>
	</g>
</g>
<path class="st5" d="M242.1,6c-1.7,0-3,1.4-3,3c0,1.7,1.4,3,3,3s3-1.4,3-3C245.2,7.4,243.8,6,242.1,6z M242.1,12.5
	c-1.9,0-3.5-1.6-3.5-3.5c0-1.9,1.6-3.5,3.5-3.5c1.9,0,3.5,1.6,3.5,3.5C245.7,10.9,244.1,12.5,242.1,12.5"/>
<path class="st5" d="M231.4,6c-1.7,0-3,1.4-3,3c0,1.7,1.4,3,3,3s3-1.4,3-3C234.4,7.4,233,6,231.4,6z M231.4,12.5
	c-1.9,0-3.5-1.6-3.5-3.5c0-1.9,1.6-3.5,3.5-3.5c1.9,0,3.5,1.6,3.5,3.5C234.9,10.9,233.3,12.5,231.4,12.5"/>
<path class="st5" d="M220.6,6c-1.7,0-3,1.4-3,3c0,1.7,1.4,3,3,3c1.7,0,3-1.4,3-3C223.6,7.4,222.2,6,220.6,6z M220.6,12.5
	c-1.9,0-3.5-1.6-3.5-3.5c0-1.9,1.6-3.5,3.5-3.5c1.9,0,3.5,1.6,3.5,3.5C224.1,10.9,222.5,12.5,220.6,12.5"/>
<g>
	<defs>
		<rect id="SVGID_00000067226811005175649100000010243512621150933161_" x="192" y="110.7" width="65.9" height="6.7"/>
	</defs>
	<clipPath id="SVGID_00000091017040072273019100000004117535443710407043_">
		<use xlink:href="#SVGID_00000067226811005175649100000010243512621150933161_"  style="overflow:visible;"/>
	</clipPath>
	<g style="clip-path:url(#SVGID_00000091017040072273019100000004117535443710407043_);">
		<path class="st4" d="M257.3,116.4H193v-5.7h64.3V116.4"/>
	</g>
</g>
<g>
	<defs>
		<rect id="SVGID_00000113338056739549725810000005989381603291109277_" x="192" y="116" width="65.9" height="61.3"/>
	</defs>
	<clipPath id="SVGID_00000176031762920959659360000000067986654147422605_">
		<use xlink:href="#SVGID_00000113338056739549725810000005989381603291109277_"  style="overflow:visible;"/>
	</clipPath>
	<g style="clip-path:url(#SVGID_00000176031762920959659360000000067986654147422605_);">
		<path d="M257.3,176.7H193v-60.2h64.3V176.7"/>
	</g>
</g>
<path class="st1" d="M244.8,113.6c0,0.8-0.6,1.4-1.4,1.4c-0.8,0-1.4-0.6-1.4-1.4s0.6-1.4,1.4-1.4
	C244.2,112.2,244.8,112.9,244.8,113.6"/>
<path class="st1" d="M249.6,113.6c0,0.8-0.6,1.4-1.4,1.4s-1.4-0.6-1.4-1.4s0.6-1.4,1.4-1.4S249.6,112.9,249.6,113.6"/>
<path class="st1" d="M254.5,113.6c0,0.8-0.6,1.4-1.4,1.4s-1.4-0.6-1.4-1.4s0.6-1.4,1.4-1.4S254.5,112.9,254.5,113.6"/>
<path class="st1" d="M247.4,124.8h-18.7c-0.1,0-0.2-0.1-0.2-0.2c0-0.1,0.1-0.2,0.2-0.2h18.7c0.1,0,0.2,0.1,0.2,0.2
	C247.7,124.7,247.6,124.8,247.4,124.8"/>
<path class="st1" d="M225.4,124.8h-15c-0.1,0-0.2-0.1-0.2-0.2c0-0.1,0.1-0.2,0.2-0.2h15c0.1,0,0.2,0.1,0.2,0.2
	C225.6,124.7,225.5,124.8,225.4,124.8"/>
<path class="st1" d="M242.4,132.8h-23.1c-0.1,0-0.2-0.1-0.2-0.2c0-0.1,0.1-0.2,0.2-0.2h23.1c0.1,0,0.2,0.1,0.2,0.2
	C242.7,132.7,242.6,132.8,242.4,132.8"/>
<path class="st1" d="M223,140.8h-25.4c-0.1,0-0.2-0.1-0.2-0.2c0-0.1,0.1-0.2,0.2-0.2H223c0.1,0,0.2,0.1,0.2,0.2
	C223.3,140.7,223.2,140.8,223,140.8"/>
<path class="st1" d="M223.5,148.8h-16.3c-0.1,0-0.2-0.1-0.2-0.2c0-0.1,0.1-0.2,0.2-0.2h16.3c0.1,0,0.2,0.1,0.2,0.2
	C223.8,148.7,223.6,148.8,223.5,148.8"/>
<path class="st1" d="M204.5,148.8h-6.8c-0.1,0-0.2-0.1-0.2-0.2c0-0.1,0.1-0.2,0.2-0.2h6.8c0.1,0,0.2,0.1,0.2,0.2
	C204.7,148.7,204.6,148.8,204.5,148.8"/>
<path class="st1" d="M218.8,164.4H207c-0.1,0-0.2-0.1-0.2-0.2c0-0.1,0.1-0.2,0.2-0.2h11.8c0.1,0,0.2,0.1,0.2,0.2
	C219.1,164.3,219,164.4,218.8,164.4"/>
<path class="st1" d="M204.2,164.4h-6.8c-0.1,0-0.2-0.1-0.2-0.2c0-0.1,0.1-0.2,0.2-0.2h6.8c0.1,0,0.2,0.1,0.2,0.2
	C204.5,164.3,204.4,164.4,204.2,164.4"/>
<path class="st1" d="M218.8,156.8h-21.2c-0.1,0-0.2-0.1-0.2-0.2c0-0.1,0.1-0.2,0.2-0.2h21.2c0.1,0,0.2,0.1,0.2,0.2
	C219.1,156.7,219,156.8,218.8,156.8"/>
<path class="st1" d="M249.7,168.5h-21.4v-20.7h21.4V168.5"/>
<path d="M227.1,167.2H248v-20.2h-20.9V167.2z M248.5,167.7h-21.9v-21.2h21.9V167.7"/>
<path class="st9" d="M239.9,171l-13.7-16.6l3.7-3.1l9.4,11.4l10.9-17.3l4.1,2.6L239.9,171"/>
<path class="st11" d="M207.3,127.5H193c-0.1,0-0.2-0.1-0.2-0.2c0-0.1,0.1-0.2,0.2-0.2h14l-2.8-16.3c0-0.1,0.1-0.3,0.2-0.3
	c0.1,0,0.3,0.1,0.3,0.2l2.8,16.6c0,0.1,0,0.2-0.1,0.2C207.5,127.5,207.4,127.5,207.3,127.5"/>
<path class="st11" d="M214.2,132.7H193c-0.1,0-0.2-0.1-0.2-0.2c0-0.1,0.1-0.2,0.2-0.2h21.2c1.3,0,2.3-1,2.3-2.3c0-1.3-1-2.3-2.3-2.3
	H193c-0.1,0-0.2-0.1-0.2-0.2c0-0.1,0.1-0.2,0.2-0.2h21.2c1.6,0,2.8,1.3,2.8,2.8C217,131.4,215.7,132.7,214.2,132.7"/>
</svg>
