<?xml version="1.0" encoding="utf-8"?>
<!-- Generator: Adobe Illustrator 26.0.1, SVG Export Plug-In . SVG Version: 6.00 Build 0)  -->
<svg version="1.1" id="Layer_1" xmlns="http://www.w3.org/2000/svg" xmlns:xlink="http://www.w3.org/1999/xlink" x="0px" y="0px"
	 width="309px" height="207px" viewBox="0 0 309 207" style="enable-background:new 0 0 309 207;" xml:space="preserve">
<style type="text/css">
	.st0{fill:#B4AEFF;}
	.st1{fill:#FFFFFF;}
	.st2{fill:#FFE471;}
	.st3{clip-path:url(#SVGID_00000078003763357302296060000012618654801661587886_);}
	.st4{fill:#FDA4FF;}
	.st5{fill:#020202;}
	.st6{fill:#4ADA85;}
	.st7{clip-path:url(#SVGID_00000003809598446055813730000007755185414917889953_);}
	.st8{fill:#955B50;}
	.st9{clip-path:url(#SVGID_00000108311010004379720150000009303495351791402151_);}
	.st10{clip-path:url(#SVGID_00000116957852065829145100000009461832247776592303_);}
	.st11{clip-path:url(#SVGID_00000047767671847513213770000006450675039895547832_);}
	.st12{clip-path:url(#SVGID_00000067234306434065278910000002989356821172351670_);}
</style>
<path class="st0" d="M155.3,25c-40.8,0-73.9,34.1-73.9,76.1s33.2,76.1,73.9,76.1s73.9-34.1,73.9-76.1S196,25,155.3,25z M155.3,177.7
	c-19.9,0-38.6-8-52.6-22.4c-14.1-14.5-21.8-33.7-21.8-54.2s7.7-39.7,21.8-54.2c14.1-14.5,32.7-22.4,52.6-22.4s38.6,8,52.6,22.4
	c14.1,14.5,21.8,33.7,21.8,54.2s-7.7,39.7-21.8,54.2C193.8,169.8,175.2,177.7,155.3,177.7"/>
<path class="st0" d="M223.5,71.5C223.5,71.5,223.5,71.5,223.5,71.5c-20.7-2.2-44.4-3.3-68.3-3.3c-24,0-47.6,1.1-68.3,3.3
	c-0.1,0-0.3-0.1-0.3-0.2c0-0.1,0.1-0.3,0.2-0.3c20.7-2.2,44.3-3.3,68.3-3.3c24,0,47.7,1.1,68.4,3.3c0.1,0,0.2,0.1,0.2,0.3
	C223.8,71.4,223.7,71.5,223.5,71.5"/>
<path class="st0" d="M155.3,134.3c-24,0-47.7-1.1-68.4-3.3c-0.1,0-0.2-0.1-0.2-0.3c0-0.1,0.1-0.2,0.3-0.2
	c20.7,2.2,44.4,3.3,68.4,3.3c24,0,47.7-1.1,68.4-3.3c0.1,0,0.3,0.1,0.3,0.2s-0.1,0.3-0.2,0.3C203,133.1,179.3,134.3,155.3,134.3"/>
<path class="st0" d="M202.7,42.7C202.7,42.7,202.7,42.7,202.7,42.7c-15.3-2.1-31.2-3.2-47.4-3.2c-16.2,0-32.1,1.1-47.3,3.1
	c-0.1,0-0.3-0.1-0.3-0.2c0-0.1,0.1-0.3,0.2-0.3c15.2-2.1,31.2-3.2,47.4-3.2c16.2,0,32.2,1.1,47.5,3.2c0.1,0,0.2,0.1,0.2,0.3
	C202.9,42.6,202.8,42.7,202.7,42.7"/>
<path class="st0" d="M155.3,161.1c-17.2,0-34.2-1.2-50.2-3.6c-0.1,0-0.2-0.1-0.2-0.3s0.1-0.2,0.3-0.2c16.1,2.4,33,3.6,50.2,3.6
	c17.3,0,34.6-1.2,50-3.5c0.1,0,0.3,0.1,0.3,0.2c0,0.1-0.1,0.3-0.2,0.3C189.9,159.8,172.6,161.1,155.3,161.1"/>
<path class="st0" d="M153.9,25c-28.1,0-50.9,34.1-50.9,76.1s22.8,76.1,50.9,76.1s50.9-34.1,50.9-76.1S182,25,153.9,25z M153.9,177.7
	c-13.7,0-26.7-8-36.4-22.5c-9.7-14.5-15-33.7-15-54.1s5.3-39.7,15-54.1c9.7-14.5,22.6-22.5,36.4-22.5s26.7,8,36.3,22.5
	c9.7,14.5,15,33.7,15,54.1s-5.3,39.7-15,54.1C180.6,169.8,167.7,177.7,153.9,177.7"/>
<path class="st0" d="M153.9,25c-5.6,0-10.9,7.9-14.9,22.2c-4,14.4-6.3,33.5-6.3,53.9s2.2,39.5,6.3,53.9c4,14.3,9.3,22.2,14.9,22.2
	c5.6,0,10.9-7.9,14.9-22.2c4-14.4,6.3-33.6,6.3-53.9s-2.2-39.5-6.3-53.9C164.8,32.9,159.5,25,153.9,25z M153.9,177.7
	c-5.8,0-11.3-8-15.4-22.5c-4.1-14.4-6.3-33.6-6.3-54.1s2.2-39.6,6.3-54.1c4.1-14.5,9.5-22.5,15.4-22.5c5.8,0,11.3,8,15.4,22.5
	c4.1,14.4,6.3,33.6,6.3,54.1s-2.2,39.6-6.3,54.1C165.2,169.7,159.7,177.7,153.9,177.7"/>
<path class="st0" d="M229.4,101.4H81.1c-0.1,0-0.2-0.1-0.2-0.2c0-0.1,0.1-0.2,0.2-0.2h148.3c0.1,0,0.2,0.1,0.2,0.2
	C229.7,101.3,229.6,101.4,229.4,101.4"/>
<path class="st0" d="M177.5,67.7h-5.7v121.5h5.7c4.4,0,7.9-3.6,7.9-7.9V75.7C185.5,71.3,181.9,67.7,177.5,67.7"/>
<path d="M182.9,81.5h3.9v10h-3.9V81.5"/>
<path class="st1" d="M182.9,81.5h1.9v10h-1.9V81.5"/>
<path d="M183.2,91.3h1.4v-9.5h-1.4V91.3z M184.8,91.8h-1.9c-0.1,0-0.2-0.1-0.2-0.2v-10c0-0.1,0.1-0.2,0.2-0.2h1.9
	c0.1,0,0.2,0.1,0.2,0.2v10C185,91.7,184.9,91.8,184.8,91.8"/>
<path class="st1" d="M120.9,67.7h52.4c4.4,0,7.9,3.6,7.9,7.9v105.6c0,4.4-3.6,7.9-7.9,7.9h-52.4c-4.4,0-7.9-3.6-7.9-7.9V75.7
	C113,71.3,116.6,67.7,120.9,67.7"/>
<path d="M121,68c-4.3,0-7.8,3.5-7.8,7.8v105.5c0,4.3,3.5,7.8,7.8,7.8h52.2c4.3,0,7.8-3.5,7.8-7.8V75.8c0-4.3-3.5-7.8-7.8-7.8H121z
	 M173.3,189.5H121c-4.6,0-8.3-3.7-8.3-8.3V75.8c0-4.6,3.7-8.3,8.3-8.3h52.2c4.6,0,8.3,3.7,8.3,8.3v105.5
	C181.6,185.8,177.8,189.5,173.3,189.5"/>
<path d="M152.1,71.1h-13.4c-0.1,0-0.2-0.1-0.2-0.2s0.1-0.2,0.2-0.2h13.4c0.1,0,0.2,0.1,0.2,0.2S152.2,71.1,152.1,71.1"/>
<path d="M154.5,70.1c-0.4,0-0.7,0.3-0.7,0.7s0.3,0.7,0.7,0.7s0.7-0.3,0.7-0.7S154.9,70.1,154.5,70.1z M154.5,72.1
	c-0.7,0-1.2-0.6-1.2-1.2c0-0.7,0.6-1.2,1.2-1.2s1.2,0.6,1.2,1.2C155.7,71.5,155.1,72.1,154.5,72.1"/>
<path class="st0" d="M179.7,107.6l-39.2-5.2l0.4-2.6L180,105L179.7,107.6"/>
<path class="st0" d="M112.5,66.4l27.9,27.9l-1.9,1.9l-27.9-27.9L112.5,66.4"/>
<path class="st2" d="M137.3,114.6l-17.9,35.2l-2.4-1.2l17.9-35.2L137.3,114.6"/>
<path class="st0" d="M163.2,97.8c0,1-0.1,2-0.2,2.9c-0.7,4.7-3.2,8.9-6.8,11.8c-3.2,2.6-7.4,4.2-11.9,4.2c-6.5,0-12.2-3.3-15.6-8.2
	c-0.9-1.4-1.7-2.9-2.2-4.5c-0.7-1.9-1-4-1-6.1c0-6.5,3.3-12.3,8.4-15.7c3-2,6.6-3.2,10.5-3.2c5.6,0,10.5,2.4,14,6.2
	C161.3,88.5,163.2,92.9,163.2,97.8"/>
<path class="st1" d="M159.9,97.8c0,0.8-0.1,1.6-0.2,2.4c-0.6,3.9-2.7,7.3-5.6,9.7c-2.7,2.2-6.1,3.5-9.8,3.5
	c-5.4,0-10.1-2.7-12.9-6.8c-0.8-1.1-1.4-2.4-1.9-3.7c-0.5-1.6-0.8-3.3-0.8-5.1c0-5.4,2.8-10.2,6.9-13c2.5-1.6,5.4-2.6,8.6-2.6
	c4.6,0,8.7,2,11.6,5.1C158.4,90.1,159.9,93.8,159.9,97.8"/>
<path d="M144.3,82.5c-3,0-6,0.9-8.5,2.6c-4.3,2.9-6.8,7.6-6.8,12.8c0,1.7,0.3,3.4,0.8,5c0.4,1.3,1.1,2.5,1.8,3.7
	c2.9,4.2,7.6,6.7,12.7,6.7c3.5,0,6.9-1.2,9.7-3.4c3-2.4,4.9-5.8,5.5-9.6c0.1-0.8,0.2-1.6,0.2-2.4c0-3.8-1.4-7.5-4-10.3
	C152.8,84.3,148.6,82.5,144.3,82.5z M144.3,113.6c-5.2,0-10.1-2.6-13.1-6.9c-0.8-1.2-1.4-2.4-1.9-3.8c-0.6-1.6-0.9-3.4-0.9-5.1
	c0-5.3,2.6-10.2,7.1-13.2c2.6-1.7,5.6-2.7,8.8-2.7c4.5,0,8.8,1.9,11.8,5.2c2.6,2.9,4.1,6.7,4.1,10.6c0,0.8-0.1,1.6-0.2,2.4
	c-0.6,3.9-2.6,7.4-5.7,9.9C151.5,112.4,147.9,113.6,144.3,113.6"/>
<g>
	<defs>
		<rect id="SVGID_1_" x="66.7" y="132" width="73.3" height="73.2"/>
	</defs>
	<clipPath id="SVGID_00000126290302634635629260000000797830285071879066_">
		<use xlink:href="#SVGID_1_"  style="overflow:visible;"/>
	</clipPath>
	<g style="clip-path:url(#SVGID_00000126290302634635629260000000797830285071879066_);">
		<path class="st2" d="M139.5,168.6c0,1.9-0.1,3.7-0.4,5.5c-1.4,9-6.1,17-12.9,22.5c-6.2,5-14.1,8-22.7,8
			c-12.4,0-23.3-6.2-29.8-15.8c-1.8-2.6-3.2-5.5-4.3-8.6c-1.3-3.7-1.9-7.6-1.9-11.7c0-12.5,6.4-23.5,16.1-30c5.7-3.8,12.6-6,20-6
			c10.6,0,20.2,4.6,26.8,11.9C136,150.8,139.5,159.3,139.5,168.6"/>
	</g>
</g>
<path class="st1" d="M136,168.6c0,1.7-0.1,3.4-0.4,5c-1.3,8.2-5.5,15.3-11.7,20.3c-5.6,4.5-12.7,7.3-20.5,7.3
	c-11.2,0-21.1-5.6-26.9-14.2c-1.6-2.4-2.9-5-3.9-7.8c-1.1-3.3-1.8-6.9-1.8-10.6c0-11.3,5.8-21.3,14.5-27.1
	c5.2-3.5,11.4-5.5,18.1-5.5c9.6,0,18.2,4.1,24.2,10.7C132.8,152.5,136,160.2,136,168.6"/>
<path d="M103.5,136.3c-6.4,0-12.6,1.9-17.9,5.4c-9,6-14.4,16.1-14.4,26.9c0,3.6,0.6,7.1,1.7,10.5c0.9,2.7,2.2,5.3,3.9,7.7
	c6,8.8,16,14.1,26.7,14.1c7.4,0,14.6-2.6,20.3-7.2c6.3-5.1,10.4-12.2,11.6-20.1c0.3-1.6,0.4-3.3,0.4-5c0-8-3-15.7-8.3-21.7
	C121.3,140.1,112.6,136.3,103.5,136.3z M103.5,201.4c-10.9,0-21-5.4-27.1-14.3c-1.7-2.4-3-5.1-3.9-7.8c-1.2-3.4-1.8-7-1.8-10.6
	c0-11,5.5-21.2,14.6-27.3c5.4-3.6,11.7-5.5,18.2-5.5c9.3,0,18.1,3.9,24.4,10.8c5.4,6,8.5,13.8,8.5,22c0,1.7-0.1,3.4-0.4,5.1
	c-1.2,8-5.4,15.3-11.8,20.4C118.3,198.8,111,201.4,103.5,201.4"/>
<path class="st4" d="M151.3,119.2l2.7,0.2l0.7-6.3c0.1-0.9-0.4-1.7-1.2-1.8s-1.4,0.6-1.5,1.6L151.3,119.2"/>
<path class="st4" d="M153.8,121.1l2.8,0.2l0.7-6.3c0.1-0.9-0.4-1.7-1.2-1.8s-1.4,0.6-1.5,1.6L153.8,121.1"/>
<path class="st4" d="M156.5,121.9l2.4,0.2l0.6-5.6c0.1-0.8-0.4-1.5-1-1.6c-0.7-0.1-1.3,0.6-1.4,1.4L156.5,121.9"/>
<path class="st4" d="M148.9,116.4l2.4,1.9l4.7-11.7c0.3-0.8,0-1.7-0.6-2.1c-0.7-0.4-1.5-0.1-1.8,0.7L148.9,116.4"/>
<path class="st4" d="M144.4,126l4.5-3.5l-2.9-10.3c-0.2-0.9-0.9-1.4-1.7-1.1c-0.7,0.3-1.2,1.2-1,2.1l1,4.8L144.4,126"/>
<path class="st4" d="M144.5,126.2l-3,9.7l9.5,3.8l2.7-8.6l5.2-9l-10-5.7L144.5,126.2"/>
<path class="st5" d="M141.9,134.6l9.5,3.8l1.7-5.2l-9-5.8L141.9,134.6"/>
<path d="M154.1,119C154.1,119,154.1,119,154.1,119c-0.2,0-0.3-0.1-0.2-0.3l0.6-5.6c0.1-0.9-0.2-1.2-0.4-1.3
	c-0.1-0.1-0.2-0.2-0.1-0.3c0.1-0.1,0.2-0.2,0.3-0.1c0.8,0.4,0.8,1.2,0.7,1.8l-0.6,5.6C154.4,118.9,154.2,119,154.1,119"/>
<path d="M156.7,120.9C156.6,120.9,156.6,120.9,156.7,120.9c-0.2,0-0.3-0.1-0.2-0.3l0.6-5.6c0.1-0.4-0.1-0.9-0.3-1.2
	c-0.2-0.2-0.4-0.3-0.6-0.4c-0.6,0-1.2,0.6-1.3,1.3l-0.4,3.9c0,0.1-0.1,0.2-0.3,0.2c-0.1,0-0.2-0.1-0.2-0.3l0.4-3.9
	c0.1-1.1,0.9-1.9,1.8-1.8c0.4,0,0.7,0.2,1,0.5c0.3,0.4,0.5,1,0.4,1.5l-0.6,5.6C156.9,120.8,156.8,120.9,156.7,120.9"/>
<path d="M151.5,118.2C151.5,118.2,151.5,118.2,151.5,118.2c-0.2-0.1-0.3-0.2-0.2-0.3l4.5-11.3c0.3-0.7,0-1.4-0.5-1.8
	c-0.2-0.1-0.5-0.2-0.8-0.1c-0.3,0.1-0.5,0.3-0.7,0.7l-4.7,11.2c-0.1,0.1-0.2,0.2-0.3,0.1c-0.1-0.1-0.2-0.2-0.1-0.3l4.7-11.2
	c0.2-0.4,0.5-0.8,1-0.9c0.4-0.1,0.8-0.1,1.2,0.1c0.8,0.4,1.1,1.5,0.7,2.4l-4.5,11.3C151.7,118.1,151.6,118.2,151.5,118.2"/>
<path d="M141.9,134.5C141.9,134.5,141.9,134.5,141.9,134.5c-0.2-0.1-0.3-0.2-0.2-0.3l2.5-8l-0.1-8.3l-1-4.8c-0.2-1,0.3-2.1,1.2-2.4
	c0.4-0.2,0.8-0.1,1.2,0.1c0.4,0.2,0.7,0.7,0.8,1.2l1.8,6.5c0,0.1,0,0.3-0.2,0.3c-0.1,0-0.3,0-0.3-0.2l-1.8-6.5
	c-0.1-0.4-0.3-0.7-0.6-0.9c-0.2-0.1-0.5-0.1-0.8,0c-0.6,0.2-1,1.1-0.9,1.8l1,4.8c0,0,0,0,0,0l0.1,8.3c0,0,0,0.1,0,0.1l-2.5,8
	C142.2,134.4,142.1,134.5,141.9,134.5"/>
<path d="M146.8,121c0,0-0.1,0-0.1,0c-0.1-0.1-0.2-0.2-0.1-0.3l2-4.3c0.1-0.1,0.2-0.2,0.3-0.1c0.1,0.1,0.2,0.2,0.1,0.3l-2,4.3
	C147,120.9,146.9,121,146.8,121"/>
<path d="M151.6,138.3C151.5,138.3,151.5,138.2,151.6,138.3c-0.2-0.1-0.3-0.2-0.2-0.3l2.2-6.9c0,0,0,0,0,0l4.8-8.3
	c0.2-0.4,0.4-0.9,0.4-1.4l0.5-4.8c0-0.4-0.1-0.8-0.3-1c-0.2-0.2-0.3-0.3-0.6-0.3c-0.5,0-1,0.5-1.1,1.2l-0.5,4.3
	c0,0.1-0.1,0.2-0.3,0.2c-0.1,0-0.2-0.1-0.2-0.3l0.5-4.3c0.1-1,0.8-1.7,1.6-1.6c0.3,0,0.7,0.2,0.9,0.5c0.3,0.4,0.4,0.9,0.4,1.4
	l-0.5,4.8c-0.1,0.6-0.2,1.1-0.5,1.6l-4.8,8.3l-2.2,6.9C151.8,138.2,151.7,138.3,151.6,138.3"/>
<path class="st4" d="M59.7,120l1.3,4.3c0.1,0.3,0.2,0.6,0.3,0.9c-0.2-0.3-0.3-0.7-0.4-1.1L59.7,120z M60.1,117.2l-0.2,0.1
	c-0.5,0.3-0.7,0.9-0.5,1.5l0.2,0.6c-0.2-0.8-1-1.1-1.6-0.7c-0.5,0.3-0.8,1-0.6,1.7l1.6,5.3c0.2,0.7,0.5,1.4,1,2l0.6,0.8l0,0
	l-0.7-0.9c-0.5-0.6-0.8-1.3-1-2l-0.9-3.1c-0.2-0.8-1-1.1-1.6-0.8l-0.1,0.1c-0.5,0.3-0.8,1-0.6,1.6l1.1,3.8c0.2,0.6,0.5,1.2,0.8,1.7
	c-0.2-0.2-0.3-0.4-0.5-0.6l-1.7-2.6c-0.4-0.6-1.2-0.7-1.7-0.1l-0.1,0.1c-0.4,0.5-0.4,1.2-0.1,1.7l2.2,3.2c0.4,0.6,0.9,1.1,1.5,1.5
	l5.8,3.6l1.5,6.1l7.4-2.4l0-7.1c0-1.1-0.1-2.2-0.4-3.2l-1.7-5.9c-0.2-0.8-0.9-1.2-1.6-0.9l-0.1,0c-0.7,0.3-1,1.1-0.8,1.9l1.7,5.8
	l-0.6-0.1c-0.3-0.1-0.5-0.2-0.7-0.4l-3.5-4.4c-0.5-0.7-0.9-1.5-1.2-2.3l-1.3-4.5C61.4,117.2,60.7,116.9,60.1,117.2"/>
<path class="st5" d="M64.5,141.9l7.4-2.4l0-2.9l-8.3,2.3L64.5,141.9"/>
<path d="M68.8,130.3C68.8,130.3,68.8,130.3,68.8,130.3l-0.2,0c-0.6-0.2-1.2-0.5-1.7-1.1l-3.1-3.9c-0.6-0.7-1-1.5-1.2-2.4l-1.3-4.5
	c-0.1-0.3-0.3-0.5-0.5-0.6c-0.2-0.1-0.4-0.1-0.6,0.1l-0.2,0.1c-0.4,0.2-0.6,0.8-0.4,1.2l1.6,5.4c0.2,0.7,0.5,1.3,1,1.9l1.9,2.5
	c0.1,0.1,0.1,0.3,0,0.3c-0.1,0.1-0.3,0.1-0.3,0l-1.9-2.5c-0.5-0.6-0.8-1.3-1-2l-1.6-5.4c-0.2-0.7,0.1-1.5,0.7-1.8l0.2-0.1
	c0.3-0.2,0.7-0.2,1.1-0.1c0.4,0.2,0.7,0.5,0.8,1l1.3,4.5c0.2,0.8,0.6,1.6,1.1,2.3l3.1,3.9c0.4,0.5,0.8,0.8,1.4,0.9l0.1,0
	c0.1,0,0.2,0.2,0.2,0.3C69,130.2,68.9,130.3,68.8,130.3"/>
<path d="M61.5,130.2c-0.1,0-0.1,0-0.2-0.1l-1.7-2.1c-0.5-0.6-0.8-1.3-1-2l-1.6-5.3c-0.2-0.8,0.1-1.6,0.7-1.9
	c0.3-0.2,0.7-0.2,1.1-0.1c0.4,0.2,0.7,0.5,0.9,1c0,0.1,0,0.3-0.2,0.3c-0.1,0-0.3,0-0.3-0.2c-0.1-0.3-0.3-0.6-0.6-0.7
	c-0.2-0.1-0.5-0.1-0.7,0.1c-0.4,0.2-0.6,0.8-0.5,1.4l1.6,5.3c0.2,0.7,0.5,1.3,1,1.9l1.7,2.1c0.1,0.1,0.1,0.3,0,0.3
	C61.6,130.2,61.6,130.2,61.5,130.2"/>
<path d="M64.6,142.6l-1.9-6.6l-5.6-3.4c-0.6-0.4-1.2-0.9-1.6-1.5l-2.2-3.2c-0.4-0.6-0.4-1.4,0.1-2l0.1-0.1c0.3-0.3,0.7-0.5,1.1-0.5
	c0.4,0,0.8,0.2,1,0.6l2.1,2.9c0.1,0.1,0.1,0.3-0.1,0.3c-0.1,0.1-0.3,0.1-0.3-0.1l-2.1-2.9c-0.2-0.2-0.4-0.4-0.7-0.4
	c-0.2,0-0.5,0.1-0.7,0.3l-0.1,0.1c-0.3,0.4-0.3,1-0.1,1.4l2.2,3.2c0.4,0.6,0.9,1,1.4,1.4l5.7,3.5l1.8,6.3l6.7-2.5l0-6.9
	c0-1.1-0.1-2.1-0.4-3.2l-1.7-5.9c-0.1-0.3-0.3-0.6-0.6-0.7c-0.2-0.1-0.5-0.1-0.7,0l-0.1,0c-0.6,0.2-0.8,0.9-0.7,1.6l2.1,7.4
	c0,0.1,0,0.3-0.2,0.3c-0.1,0-0.3,0-0.3-0.2l-2.1-7.4c-0.3-0.9,0.2-1.9,1-2.2l0.1,0c0.4-0.1,0.8-0.1,1.1,0.1c0.4,0.2,0.7,0.6,0.8,1
	l1.7,5.9c0.3,1.1,0.5,2.2,0.5,3.3l0,7.3L64.6,142.6"/>
<path d="M59.3,131.4c-0.1,0-0.1,0-0.2-0.1l-1.5-1.8c-0.5-0.6-0.8-1.3-1-2.1l-1.1-3.8c-0.2-0.7,0.1-1.5,0.7-1.9l0.1-0.1
	c0.3-0.2,0.7-0.2,1.1-0.1c0.4,0.2,0.7,0.5,0.8,1l0.1,0.2c0,0.1,0,0.3-0.2,0.3c-0.1,0-0.3,0-0.3-0.2l-0.1-0.2
	c-0.1-0.3-0.3-0.6-0.6-0.7c-0.2-0.1-0.5-0.1-0.7,0.1l-0.1,0.1c-0.4,0.2-0.6,0.8-0.5,1.3l1.1,3.8c0.2,0.7,0.5,1.3,1,1.9l1.5,1.8
	c0.1,0.1,0.1,0.3,0,0.3C59.4,131.4,59.3,131.4,59.3,131.4"/>
<path class="st0" d="M74.4,139.1l3,30.9c0.5,4.8-2.6,9.2-6.8,9.8c-4.2,0.5-8-3-8.5-7.8l-3-30.9L74.4,139.1"/>
<path class="st0" d="M155.2,134.2l-13.8-5.3l-10.7,26.1l12.8,9.3L155.2,134.2"/>
<path class="st0" d="M145.1,160.2l-3.5,8.9c-1,2.4-2.9,4.2-5.3,4.4c-0.2,0-0.5,0-0.7,0c-1.2,0-2.4-0.4-3.5-1.2l-11.5-8.9l3.3,30.4
	c-5.6,4.5-12.7,7.3-20.5,7.3c-11.2,0-21.1-5.6-26.9-14.2l3.3-15.7l-4,5.4c-0.9,1.2-2,2.1-3.2,2.6c-0.9,0.4-1.8,0.6-2.7,0.6
	c-1.7,0-3.5-0.7-4.9-2.1c-3.2-3.1-3.6-8.7-0.9-12.4l14.5-19.7c1.7-2.4,4.2-3.8,6.9-4c0.2,0,0.5,0,0.7,0l31.6,0c2,0,3.9,0.7,5.5,1.9
	l4.4,3.4L145.1,160.2"/>
<path d="M64.1,165.4c-0.1,0-0.1,0-0.1,0c-0.1-0.1-0.1-0.2-0.1-0.3l11.4-15.5c0.1-0.1,0.2-0.1,0.3-0.1c0.1,0.1,0.1,0.2,0.1,0.3
	l-11.4,15.5C64.2,165.4,64.2,165.4,64.1,165.4"/>
<path d="M75.8,176.6l7.1-19.9l-3.2,14.5L75.8,176.6z"/>
<path d="M132.7,150.9C132.6,150.9,132.6,150.9,132.7,150.9c-0.2-0.1-0.3-0.2-0.2-0.3l8.6-21.9c0-0.1,0.2-0.2,0.3-0.1
	c0.1,0,0.2,0.2,0.1,0.3l-8.6,21.9C132.9,150.8,132.8,150.9,132.7,150.9"/>
<path d="M135.8,173.8c-1.3,0-2.6-0.4-3.7-1.3l-15.9-12.2c-0.1-0.1-0.1-0.2,0-0.3c0.1-0.1,0.2-0.1,0.3,0l15.9,12.2
	c1.2,0.9,2.6,1.3,4,1.2c2.2-0.2,4.1-1.9,5.1-4.3l13.5-34.7l-13.8-5.4c-0.1,0-0.2-0.2-0.1-0.3c0-0.1,0.2-0.2,0.3-0.1l14,5.5
	c0.1,0,0.2,0.2,0.1,0.3l-13.6,34.9c-1,2.6-3.1,4.4-5.5,4.6C136.2,173.8,136,173.8,135.8,173.8"/>
<path d="M120.7,163.7c-0.1,0-0.1,0-0.2,0l-8.8-6.8c-0.1-0.1-0.1-0.2,0-0.3c0.1-0.1,0.2-0.1,0.3,0l8.8,6.8c0.1,0.1,0.1,0.2,0,0.3
	C120.8,163.7,120.8,163.7,120.7,163.7"/>
<path d="M138.2,155.1c-0.1,0-0.1,0-0.2-0.1l-14.7-11.3c-1.8-1.4-3.9-2.1-6.1-2.1l-13.6,0c-0.1,0-0.2-0.1-0.2-0.2
	c0-0.1,0.1-0.2,0.2-0.2l13.6,0c2.3,0,4.5,0.8,6.4,2.2l14.7,11.3c0.1,0.1,0.1,0.2,0,0.3C138.4,155.1,138.3,155.1,138.2,155.1"/>
<path class="st4" d="M107.6,130.5c0,3.2-2.4,5.9-5.5,5.9c-3,0-5.5-2.6-5.5-5.9c0-3.2,2.4-5.9,5.5-5.9
	C105.1,124.6,107.6,127.2,107.6,130.5"/>
<path class="st4" d="M96.6,141.4h7.1l0.2-11.5h-7.3V141.4"/>
<path d="M103.7,141.7c-0.1,0-0.2-0.1-0.2-0.2v-7.9c0-0.1,0.1-0.2,0.2-0.2c0.1,0,0.2,0.1,0.2,0.2v7.9
	C103.9,141.6,103.8,141.7,103.7,141.7"/>
<path d="M100.4,133.8c1,2-12.2-0.4-11.8-0.3l-0.4-0.3c0,0-0.1-0.2-0.1-0.2c0.4-1.5,0.5-2.3,1.7-4.9c0.6-1.4,1.4-2.6,2.3-3.5
	c5.3-5.5,14.2-2.2,14.2,1.1l0,0.1c0.1,0.2,0.1,0.4,0.1,0.6C106.8,130.5,100.4,133.8,100.4,133.8"/>
<path d="M96.8,147.9c0,4.8-3.9,8.6-8.6,8.6c-4.8,0-8.6-3.9-8.6-8.6s3.9-8.6,8.6-8.6C92.9,139.2,96.8,143.1,96.8,147.9"/>
<path d="M102,138.1c0,4.1-3.3,7.4-7.4,7.4c-4.1,0-7.4-3.3-7.4-7.4c0-4.1,3.3-7.4,7.4-7.4C98.7,130.7,102,134,102,138.1"/>
<path d="M86.1,150.6c0,5.2-4.2,9.3-9.3,9.3c-5.2,0-9.4-4.2-9.4-9.3c0-5.2,4.2-9.3,9.4-9.3C81.9,141.2,86.1,145.4,86.1,150.6"/>
<path d="M95.1,141.9c0,5.2-4.2,9.3-9.3,9.3c-5.2,0-9.4-4.2-9.4-9.3c0-5.2,4.2-9.3,9.4-9.3C90.9,132.5,95.1,136.7,95.1,141.9"/>
<path d="M103.5,201.4c-10.9,0-21-5.4-27.1-14.3c-0.2-0.2-0.3-0.4-0.4-0.7c-0.1-0.1,0-0.3,0.1-0.3c0.1-0.1,0.3,0,0.3,0.1
	c0.1,0.2,0.3,0.4,0.4,0.7c6,8.8,16,14.1,26.7,14.1c7.4,0,14.6-2.6,20.3-7.2c0.4-0.4,0.9-0.7,1.3-1.1c0.1-0.1,0.3-0.1,0.3,0
	c0.1,0.1,0.1,0.3,0,0.3c-0.4,0.4-0.9,0.8-1.3,1.1C118.3,198.8,111,201.4,103.5,201.4"/>
<path class="st0" d="M135.4,46.5c0,2.1-0.2,4.2-0.5,6.2c-1.6,10.1-6.9,19.1-14.5,25.2c-7,5.6-15.8,9-25.5,9C81,87,68.7,80,61.4,69.3
	c-2-3-3.7-6.2-4.8-9.7c-1.4-4.1-2.2-8.5-2.2-13.1c0-14.1,7.2-26.5,18-33.7C78.9,8.5,86.6,6,94.9,6c11.9,0,22.7,5.2,30.1,13.4
	C131.5,26.6,135.4,36.1,135.4,46.5"/>
<path class="st1" d="M131.5,46.5c0,1.9-0.2,3.8-0.4,5.6c-1.4,9.2-6.2,17.2-13.1,22.8c-6.3,5.1-14.3,8.2-23,8.2
	c-12.6,0-23.7-6.3-30.3-16c-1.8-2.7-3.3-5.6-4.4-8.7c-1.3-3.7-2-7.7-2-11.9c0-12.7,6.5-23.9,16.3-30.5c5.8-3.9,12.8-6.1,20.3-6.1
	c10.8,0,20.5,4.7,27.2,12.1C128,28.5,131.5,37.1,131.5,46.5"/>
<path d="M94.9,10.2c-7.2,0-14.2,2.1-20.2,6.1c-10.1,6.8-16.2,18.1-16.2,30.3c0,4,0.7,8,2,11.8c1.1,3.1,2.5,6,4.3,8.7
	c6.8,10,18,15.9,30.1,15.9c8.3,0,16.4-2.9,22.9-8.1c7-5.7,11.7-13.8,13-22.6c0.3-1.8,0.4-3.7,0.4-5.6c0-9-3.3-17.7-9.4-24.4
	C115,14.6,105.2,10.2,94.9,10.2z M94.9,83.4c-12.2,0-23.6-6-30.5-16.1c-1.9-2.7-3.3-5.7-4.4-8.8c-1.3-3.8-2-7.8-2-11.9
	c0-12.3,6.1-23.8,16.4-30.7c6.1-4,13.1-6.2,20.4-6.2c10.4,0,20.4,4.4,27.3,12.2c6.1,6.8,9.5,15.5,9.5,24.7c0,1.9-0.1,3.8-0.4,5.7
	c-1.4,9-6.1,17.2-13.2,23C111.6,80.5,103.4,83.4,94.9,83.4"/>
<path class="st6" d="M110.2,79.8c-4.6,2.1-9.8,3.3-15.3,3.3C83.6,83.1,73.6,78,66.8,70l6.1-7.5l33.6,2.6L110.2,79.8"/>
<path d="M94.9,83.4c-11,0-21.3-4.8-28.3-13.2c-0.8-0.9-1.5-1.9-2.2-2.9c-0.2-0.2-0.3-0.5-0.5-0.7c-0.1-0.1,0-0.3,0.1-0.3
	s0.3,0,0.3,0.1c0.2,0.2,0.3,0.5,0.5,0.7c0.7,1,1.4,1.9,2.1,2.8c6.9,8.3,17.1,13.1,27.9,13.1c5.3,0,10.4-1.1,15.2-3.3
	c2.8-1.3,5.4-2.9,7.7-4.8c0.5-0.4,1-0.8,1.5-1.2c0.1-0.1,0.3-0.1,0.3,0c0.1,0.1,0.1,0.3,0,0.3c-0.5,0.4-1,0.9-1.5,1.3
	c-2.4,1.9-5,3.6-7.8,4.9C105.5,82.3,100.3,83.4,94.9,83.4"/>
<path class="st4" d="M133.5,43.7l11.5-11.5l7.4,8.7l-11.8,11.5L133.5,43.7"/>
<path class="st4" d="M149.2,30.2l11.4-12c0.7-0.7,0.8-1.6,0.2-2.3c-0.7-0.7-1.8-0.6-2.5,0.1l-11.6,11.8L149.2,30.2"/>
<path class="st4" d="M152.3,32.7c0.5,0.5,1.4,0.5,1.9,0l3-3l1.3,1.2l0.7-0.7c1.1-1.2,0.9-2.6,0.9-2.6c-0.1-1.5-2-2.7-3.2-1.5
	l-4.6,4.7C151.8,31.4,151.8,32.2,152.3,32.7"/>
<path class="st4" d="M155.8,33c0.5,0.5,1.4,0.5,1.9,0l1.4-1.4l1.3,1.2l0.5-0.8c1-1.6,1-2.8,1-2.8c-0.1-1.5-1.8-2.4-3-1.2l-3,3.1
	C155.3,31.6,155.3,32.4,155.8,33"/>
<path class="st4" d="M144.9,29.7c0.1,2.1,0.3,4.1,0.7,6.1l0.6,3.3l5.5,2.6l9.3-9.9l-7.7-7.5l-4.9,5l-0.1-5.6c0-1.1-0.5-2.2-1.3-3
	l-1.4-1.4c-0.6-0.6-1.6-0.6-2.3,0l-0.1,0.1c-0.6,0.6-0.6,1.6,0,2.3l0.2,0.2c0.8,0.8,1.3,1.9,1.3,3L144.9,29.7"/>
<path class="st4" d="M149.5,31.8c0.5,0.5,1.4,0.5,1.9,0l3.9-4l1.3,1.2l0.7-0.7c1.2-1.2,0.9-2.6,0.9-2.6c-0.1-1.5-2-2.7-3.2-1.5
	l-5.6,5.7C148.9,30.4,148.9,31.3,149.5,31.8"/>
<path d="M150.4,32.4c-0.4,0-0.8-0.2-1.1-0.5c-0.3-0.3-0.5-0.7-0.5-1.1c0-0.4,0.2-0.8,0.5-1.1l5.6-5.7c0.5-0.5,1.2-0.7,2-0.5
	c0.8,0.3,1.5,1.1,1.6,2c0,0.1-0.1,0.3-0.2,0.3c-0.1,0-0.3-0.1-0.3-0.2c-0.1-0.7-0.6-1.3-1.3-1.6c-0.5-0.2-1-0.1-1.4,0.4l-5.6,5.7
	c-0.2,0.2-0.3,0.5-0.3,0.8c0,0.3,0.1,0.6,0.3,0.8c0.4,0.4,1.1,0.4,1.5,0l1-1c0.1-0.1,0.3-0.1,0.3,0c0.1,0.1,0.1,0.2,0,0.3l-1,1
	C151.2,32.3,150.8,32.4,150.4,32.4"/>
<path d="M153.3,33.4c-0.4,0-0.8-0.2-1.1-0.5c-0.3-0.3-0.5-0.7-0.5-1.1c0-0.4,0.2-0.8,0.5-1.1l4.6-4.7c0.5-0.5,1.2-0.7,2-0.5
	c0.8,0.3,1.5,1.1,1.6,2c0,0.1-0.1,0.3-0.2,0.3c-0.1,0-0.3-0.1-0.3-0.2c-0.1-0.7-0.6-1.3-1.3-1.6c-0.5-0.2-1-0.1-1.4,0.4l-4.6,4.7
	c-0.2,0.2-0.3,0.5-0.3,0.8c0,0.3,0.1,0.6,0.3,0.8c0.4,0.4,1.1,0.4,1.6,0l1.4-1.4c0.1-0.1,0.2-0.1,0.3,0c0.1,0.1,0.1,0.2,0,0.3
	l-1.4,1.4C154.1,33.2,153.7,33.4,153.3,33.4"/>
<path d="M149.3,44.4c-0.1,0-0.1,0-0.2-0.1c-0.1-0.1-0.1-0.3,0-0.3l0.1-0.1c3.4-3.4,5.8-5.9,7.3-7.4c2.6-2.6,5.2-5.3,5.2-7.1
	c0-0.5-0.2-0.9-0.6-1.3c-1-0.9-1.8-0.2-2.9,0.9c-0.1,0.1-0.2,0.2-0.2,0.2c-0.2,0.2-0.4,0.3-0.6,0.5c-0.7,0.6-1.7,1.5-1.7,2.2
	c0,0.4,0.2,0.8,0.6,0.9c0.4,0.2,1,0.1,1.4-0.2c0.3-0.2,0.6-0.5,0.8-0.8c0.1-0.2,0.3-0.3,0.4-0.4c0.1-0.1,0.2-0.1,0.3,0
	c0.1,0.1,0.1,0.3,0,0.3c-0.1,0.1-0.3,0.3-0.4,0.4c-0.3,0.3-0.6,0.6-0.9,0.9c-0.5,0.4-1.3,0.5-1.9,0.2c-0.5-0.2-0.8-0.8-0.8-1.4
	c0-1,1-1.9,1.8-2.6c0.2-0.2,0.4-0.4,0.6-0.5c0.1-0.1,0.2-0.2,0.2-0.2c0.9-1,2.2-2.2,3.6-0.9c0.5,0.4,0.7,1,0.7,1.6
	c0,2.1-2.6,4.7-5.3,7.5c-1.5,1.5-3.9,3.9-7.3,7.4l-0.1,0.1C149.4,44.3,149.3,44.4,149.3,44.4"/>
<path d="M141.5,36c-0.1,0-0.1,0-0.2-0.1c-0.1-0.1-0.1-0.3,0-0.3l3.5-3.4c-0.2-2.4-0.3-4.5-0.1-6.4c-0.1-1.1-0.6-2.1-1.1-3.1
	c-0.3-0.5-0.6-1.1-0.8-1.6c-0.3-0.7-0.2-1.3,0.3-1.8c0.5-0.6,1.4-0.7,2.3-0.4c0,0,0,0,0,0c2.2,1.2,3.3,3.4,3.3,6.7
	c0.7-0.7,1.7-1.8,3-3.1c1.9-2,4.2-4.4,6-6.3c0.4-0.4,1.4-1.3,2.5-1c0.6,0.1,1,0.6,1.2,1.2c0.2,0.6,0.1,1.2-0.3,1.6
	c-1.7,2-3.1,3.5-4.6,5.1l-1.3,1.4c-0.1,0.1-0.2,0.1-0.3,0c-0.1-0.1-0.1-0.2,0-0.3l1.3-1.4c1.5-1.6,2.8-3.2,4.6-5.1
	c0.3-0.3,0.4-0.7,0.2-1.2c-0.1-0.4-0.5-0.8-0.9-0.9c-0.8-0.2-1.7,0.6-2,0.9c-1.8,1.9-4.1,4.3-6,6.2c-1.6,1.7-2.9,3-3.4,3.5
	c-0.1,0.1-0.2,0.1-0.3,0.1c-0.1,0-0.2-0.1-0.2-0.2c0.1-3.5-0.9-5.7-3.1-6.9c-0.7-0.2-1.3-0.1-1.7,0.3c-0.3,0.3-0.4,0.8-0.2,1.3
	c0.2,0.5,0.5,1.1,0.8,1.6c0.6,1.1,1.1,2.2,1.2,3.4c0,0,0,0,0,0c-0.2,1.9-0.1,4,0.1,6.4c0,0.1,0,0.2-0.1,0.2l-3.5,3.5
	C141.7,36,141.6,36,141.5,36"/>
<path d="M140.7,36.7l7.7,8.1l2.2-2.1l-9.1-7L140.7,36.7"/>
<path class="st4" d="M108.5,82.8l2.1,7.6c0.2,0.7-0.2,1.5-0.9,1.7l-0.1,0c-0.7,0.2-1.5-0.2-1.7-0.9l-2.1-7.6
	c-0.2-0.8-0.6-1.7-1.1-2.4l-4.5-6.8l2.8-0.8l4.5,6.8C107.9,81.2,108.2,82,108.5,82.8"/>
<path class="st4" d="M105.7,83.6l1.9,6.7c0.2,0.7-0.2,1.5-0.9,1.7l-0.1,0c-0.7,0.2-1.5-0.2-1.7-0.9l-1.9-6.7
	c-0.2-0.8-0.6-1.7-1.1-2.4l-4.5-6.8l2.8-0.8l4.5,6.8C105.1,82,105.4,82.8,105.7,83.6"/>
<path class="st4" d="M102.9,84.4l1.2,4.2c0.2,0.7-0.2,1.5-0.9,1.7l-0.1,0c-0.7,0.2-1.5-0.2-1.7-0.9l-1.2-4.2
	c-0.2-0.8-0.8-1.5-1.6-1.8l-1.8-0.8c-2.2-0.9-3.8-2.7-4.4-5l-0.3-0.9l5.3-1.5l4.5,6.8C102.3,82.7,102.7,83.5,102.9,84.4"/>
<path class="st4" d="M102.5,71.8c2.1,0.7,3.9,2.1,5.1,4l2.6,3.9c0.5,0.7,0.8,1.5,1.1,2.4l1.3,4.8c0.2,0.7-0.2,1.4-0.9,1.6l-0.2,0.1
	c-0.7,0.2-1.4-0.2-1.6-0.9l-1.3-4.8c-0.2-0.8-0.6-1.7-1.1-2.4l-4.3-6.5l-10.5,4.3l-24.5-8.7l13.1-5.4L102.5,71.8"/>
<path d="M109.1,92.4c-0.7,0-1.4-0.5-1.6-1.2l-2.1-7.6c-0.2-0.8-0.6-1.6-1.1-2.3l-3.4-5.1c-0.1-0.1,0-0.3,0.1-0.3
	c0.1-0.1,0.3,0,0.3,0.1l3.4,5.1c0.5,0.8,0.9,1.6,1.1,2.5l2.1,7.6c0.2,0.6,0.8,0.9,1.4,0.8l0.1,0c0.3-0.1,0.5-0.3,0.7-0.5
	c0.1-0.3,0.2-0.6,0.1-0.8l-2.1-7.6c-0.2-0.8-0.6-1.6-1.1-2.3l-3.4-5.2c-0.1-0.1,0-0.3,0.1-0.3c0.1-0.1,0.3,0,0.3,0.1l3.5,5.2
	c0.5,0.8,0.9,1.6,1.1,2.5l2.1,7.6c0.1,0.4,0.1,0.8-0.2,1.2c-0.2,0.4-0.6,0.6-1,0.8l-0.1,0C109.4,92.4,109.2,92.4,109.1,92.4"/>
<path d="M106.1,92.3c-0.7,0-1.4-0.5-1.6-1.2l-1.9-6.7c-0.2-0.8-0.6-1.6-1.1-2.3l-3.5-5.2c-0.1-0.1,0-0.3,0.1-0.3
	c0.1-0.1,0.3,0,0.3,0.1l3.4,5.2c0.5,0.8,0.9,1.6,1.1,2.5L105,91c0.2,0.6,0.8,0.9,1.4,0.8l0.2,0c0.3-0.1,0.5-0.3,0.7-0.5
	c0.1-0.3,0.2-0.6,0.1-0.8l-1.9-6.7c-0.2-0.8-0.6-1.6-1.1-2.3l-3.4-5.1c-0.1-0.1,0-0.3,0.1-0.3c0.1-0.1,0.3,0,0.3,0.1l3.4,5.1
	c0.5,0.8,0.9,1.6,1.1,2.5l1.9,6.7c0.1,0.4,0.1,0.8-0.2,1.2c-0.2,0.4-0.6,0.6-1,0.8l-0.1,0C106.4,92.3,106.2,92.3,106.1,92.3"/>
<path d="M102.6,90.6c-0.7,0-1.4-0.5-1.6-1.2l-1.2-4.2c-0.2-0.7-0.7-1.3-1.4-1.6l-1.8-0.8c-1.9-0.8-3.5-2.4-4.3-4.3l-24.9-8.9
	l13.8-5.7l21.3,7.6c2.1,0.8,4,2.2,5.2,4.1l2.6,3.9c0.5,0.8,0.9,1.6,1.1,2.5l1.3,4.8c0.1,0.4,0.1,0.8-0.1,1.2
	c-0.2,0.4-0.5,0.6-0.9,0.7l-0.2,0.1c-0.8,0.2-1.7-0.3-1.9-1.1l-1.3-4.8c-0.2-0.8-0.6-1.6-1.1-2.3l-2.8-4.2c-0.1-0.1,0-0.3,0.1-0.3
	c0.1-0.1,0.3,0,0.3,0.1l2.8,4.2c0.5,0.8,0.9,1.6,1.1,2.5l1.3,4.8c0.2,0.6,0.8,0.9,1.3,0.7l0.2-0.1c0.3-0.1,0.5-0.3,0.6-0.5
	s0.2-0.5,0.1-0.8l-1.3-4.8c-0.2-0.8-0.6-1.6-1.1-2.3l-2.6-3.9c-1.2-1.8-2.9-3.2-5-3.9l-21.2-7.5l-12.4,5.1l23.9,8.6l0,0.1
	c0.7,1.9,2.2,3.4,4,4.2l1.8,0.8c0.8,0.4,1.5,1.1,1.7,1.9l1.2,4.2c0.2,0.6,0.8,0.9,1.4,0.8l0.2,0c0.3-0.1,0.5-0.3,0.7-0.5
	c0.1-0.3,0.2-0.6,0.1-0.8l-1.2-4.2c-0.2-0.8-0.6-1.6-1.1-2.3l-3.5-5.2c-0.1-0.1,0-0.3,0.1-0.3c0.1-0.1,0.3,0,0.3,0.1l3.4,5.2
	c0.5,0.8,0.9,1.6,1.1,2.5l1.2,4.2c0.1,0.4,0.1,0.8-0.2,1.2c-0.2,0.4-0.6,0.6-1,0.8l-0.1,0C102.9,90.6,102.8,90.6,102.6,90.6"/>
<path d="M92.6,78.5c-0.1,0-0.2-0.1-0.2-0.2l-0.8-2.8c0-0.1,0-0.3,0.2-0.3c0.1,0,0.3,0,0.3,0.2l0.8,2.8
	C92.8,78.3,92.8,78.5,92.6,78.5C92.6,78.5,92.6,78.5,92.6,78.5"/>
<path d="M89.9,67.3l-1.3,9.6l-4.2-1.4l2.9-9.1L89.9,67.3"/>
<path class="st2" d="M116.9,64.4l10.5-16.1l-22.3-17.9c-3.9-4.2-10.5-4.5-14.8-0.5l-6.2,5.7L116.9,64.4"/>
<path class="st2" d="M111.5,58.7l4.1,4.4c4.8,5.2,13,5.5,18.2,0.7l18.2-16.8l-12.8-13.8L111.5,58.7"/>
<path d="M116.6,54.2c-0.1,0-0.1,0-0.2-0.1c-0.1-0.1-0.1-0.3,0-0.3l8.7-8.1c0.1-0.1,0.3-0.1,0.3,0c0.1,0.1,0.1,0.3,0,0.3l-8.7,8.1
	C116.7,54.2,116.6,54.2,116.6,54.2"/>
<path class="st2" d="M68,65.1h40.7L103,32.1c0-2.8-2.3-5.1-5.1-5.1l-23.1-0.1L68,65.1"/>
<path d="M108.7,65.4c-0.1,0-0.2-0.1-0.2-0.2L105,45.1c0-0.1,0-0.2,0.1-0.3c1.1-0.6,1.8-1.7,1.8-3c0-1.6-1.1-3-2.7-3.3
	c-0.1,0-0.2-0.1-0.2-0.2l-0.9-4.3c0-0.1,0.1-0.3,0.2-0.3c0.1,0,0.3,0.1,0.3,0.2l0.8,4.1c1.7,0.4,2.9,2,2.9,3.8
	c0,1.4-0.7,2.6-1.9,3.3l3.4,19.9C108.9,65.2,108.8,65.3,108.7,65.4C108.7,65.4,108.7,65.4,108.7,65.4"/>
<path class="st2" d="M55.4,51.6l16.9,8.4l14.4-28.7l-6.5-3.3c-5.7-2.9-12.7-0.6-15.5,5.2L55.4,51.6"/>
<path class="st2" d="M56.1,50.4L55,52.5c-4.1,8.1-0.8,18,7.4,22.1l18.9,9.5l8.5-16.8L56.1,50.4"/>
<path d="M55.4,51.9c0,0-0.1,0-0.1,0c-0.1-0.1-0.2-0.2-0.1-0.3l9.2-18.3c2-3.9,5.9-6.4,10.4-6.5l8.4,0c0.1,0,0.2,0.1,0.2,0.2
	s-0.1,0.2-0.2,0.2l-8.4,0c-4.2,0.1-8,2.5-9.9,6.2l-9.2,18.3C55.6,51.8,55.5,51.9,55.4,51.9"/>
<path d="M72.9,59c0,0-0.1,0-0.1,0c-0.1-0.1-0.2-0.2-0.1-0.3l6.1-12.1c0.1-0.1,0.2-0.2,0.3-0.1c0.1,0.1,0.2,0.2,0.1,0.3l-6.1,12.1
	C73.1,59,73,59,72.9,59"/>
<path d="M81.3,84.3c0,0-0.1,0-0.1,0l-18.9-9.5c-4-2-7-5.4-8.4-9.7c-1.4-4.2-1.1-8.8,0.9-12.8l1.1-2.1c0.1-0.1,0.2-0.2,0.3-0.1
	c0.1,0.1,0.2,0.2,0.1,0.3l-1.1,2.1c-1.9,3.9-2.3,8.3-0.9,12.4c1.4,4.1,4.3,7.4,8.1,9.4l18.7,9.4l8.2-16.4L68.3,56.7
	c-0.1-0.1-0.2-0.2-0.1-0.3c0.1-0.1,0.2-0.2,0.3-0.1L89.9,67c0.1,0,0.1,0.1,0.1,0.1c0,0.1,0,0.1,0,0.2l-8.4,16.8
	C81.5,84.2,81.4,84.3,81.3,84.3"/>
<path class="st4" d="M83.2,26.9v-4.8h4.5v11.7L83.2,26.9"/>
<path d="M84.3,22.2h-1.5c0.1,0.4,1,1.6,1.9,2.3c0.9,0.7,2.3,1.1,3,1.1c0,0,0-2.8,0-2.8L84.3,22.2"/>
<path d="M80,18.5c0,2.6,2.1,4.7,4.7,4.7c2.6,0,4.7-2.1,4.7-4.7s-2.1-4.7-4.7-4.7C82.1,13.9,80,16,80,18.5"/>
<path class="st4" d="M81.4,19.5c0-2.3,1.9-4.1,4.2-4.1s4.2,1.9,4.2,4.1s-1.9,4.2-4.2,4.2S81.4,21.8,81.4,19.5"/>
<path class="st1" d="M83.6,20.5c0.6,2.2,2.5,2.7,4.4,0.9L83.6,20.5"/>
<path d="M69.3,7.5c0,4.1,3.3,7.5,7.5,7.5c4.1,0,7.5-3.3,7.5-7.5c0-4.1-3.3-7.5-7.5-7.5C72.6,0,69.3,3.4,69.3,7.5"/>
<path d="M80.1,15.5c-0.1,0-0.2,0-0.2-0.1c-0.1-0.1-0.1-0.3,0.1-0.3l2.7-2C82.8,13,83,13,83,13.1c0.1,0.1,0.1,0.3-0.1,0.3l-2.7,2
	C80.2,15.5,80.2,15.5,80.1,15.5"/>
<g>
	<defs>
		<rect id="SVGID_00000093140943792586063500000014904615169141194632_" x="176" y="61.3" width="82.2" height="82.7"/>
	</defs>
	<clipPath id="SVGID_00000073689358946817839830000009528142582690675097_">
		<use xlink:href="#SVGID_00000093140943792586063500000014904615169141194632_"  style="overflow:visible;"/>
	</clipPath>
	<g style="clip-path:url(#SVGID_00000073689358946817839830000009528142582690675097_);">
		<path class="st0" d="M257.9,103.1c0,2.1-0.2,4.2-0.5,6.2c-1.6,10.1-6.9,19-14.5,25.2c-6.9,5.6-15.8,9-25.4,9
			c-13.9,0-26.1-7-33.4-17.7c-2-3-3.6-6.2-4.8-9.6c-1.4-4.1-2.2-8.5-2.2-13.1c0-14,7.1-26.4,18-33.6c6.4-4.3,14.1-6.8,22.4-6.8
			c11.9,0,22.6,5.1,30,13.3C253.9,83.1,257.9,92.6,257.9,103.1"/>
	</g>
</g>
<path class="st1" d="M254,103.1c0,1.9-0.1,3.8-0.4,5.6c-1.4,9.1-6.2,17.2-13.1,22.7c-6.3,5.1-14.3,8.1-23,8.1
	c-12.5,0-23.6-6.3-30.2-16c-1.8-2.7-3.3-5.6-4.4-8.7c-1.3-3.7-2-7.7-2-11.8c0-12.7,6.5-23.8,16.3-30.4c5.8-3.9,12.8-6.1,20.2-6.1
	c10.8,0,20.4,4.6,27.1,12C250.4,85.1,254,93.6,254,103.1"/>
<path d="M217.5,66.8c-7.2,0-14.1,2.1-20.1,6.1c-10.1,6.8-16.2,18-16.2,30.2c0,4,0.7,8,1.9,11.8c1,3.1,2.5,6,4.3,8.6
	c6.8,9.9,18,15.9,30,15.9c8.3,0,16.4-2.9,22.8-8.1c7-5.7,11.6-13.7,13-22.6c0.3-1.8,0.4-3.7,0.4-5.6c0-9-3.3-17.6-9.3-24.3
	C237.5,71.2,227.7,66.8,217.5,66.8z M217.5,139.8c-12.2,0-23.5-6-30.4-16.1c-1.8-2.7-3.3-5.7-4.4-8.8c-1.3-3.8-2-7.8-2-11.9
	c0-12.3,6.1-23.8,16.4-30.6c6-4,13.1-6.2,20.4-6.2c10.4,0,20.3,4.4,27.3,12.1c6.1,6.8,9.5,15.5,9.5,24.6c0,1.9-0.1,3.8-0.4,5.7
	c-1.4,9-6.1,17.1-13.2,22.9C234.1,136.9,225.9,139.8,217.5,139.8"/>
<path class="st2" d="M226.7,100.9l-2,5.2l-6.8,17.8l-0.9,2.2l-5,13c-0.8-0.1-1.6-0.3-2.3-0.4c-6.2-1.3-11.8-4.2-16.4-8.3l12.2-28.3
	l0.5-1.2H226.7"/>
<path d="M213.6,139.3l3.6-7.6l0.3-2.8v0l0.5-5.1l0.2-2.3l-1.3,2.7l-7.1,14.4c0.8,0.2,1.6,0.3,2.3,0.4L213.6,139.3"/>
<path class="st2" d="M238.2,134.6l-0.7,0.5l-0.5,1.8c-0.2,0.8-1,1.2-1.7,1l-0.1,0c-0.8-0.2-1.2-1-1-1.7l0.1-0.6
	c-0.2,0.6-0.8,1-1.4,1c-0.1,0-0.1,0-0.2,0c0,0-0.1,0-0.1,0l-0.2,0c0,0-0.1,0-0.1,0c0,0-0.1,0-0.1,0c-4.2,1.8-8.7,2.9-13.5,3.1
	l-1.3-10.6v0l-0.4-2.8l-0.2-1.7l0-0.2l-2.5-20.3l-0.4-3h18l1.3,6.9l1.6,8.6l0,0.1l0.1,0.4l1.2,6.6l0.7,3.7l0.8,4.2l0,0l0.3,1.8l0,0
	L238.2,134.6"/>
<path d="M218.8,139.8c-0.1,0-0.2-0.1-0.2-0.2l-1.3-10.6c0,0,0,0,0,0l-0.6-4.5c0-0.1,0.1-0.3,0.2-0.3s0.3,0.1,0.3,0.2l0.6,4.5
	c0,0,0,0,0,0l1.3,10.5C219,139.6,218.9,139.8,218.8,139.8C218.8,139.8,218.8,139.8,218.8,139.8"/>
<path d="M238.2,134.9c-0.1,0-0.2-0.1-0.2-0.2l-6.2-33.7c0-0.1,0.1-0.3,0.2-0.3c0.1,0,0.3,0.1,0.3,0.2l6.2,33.7
	C238.5,134.7,238.4,134.9,238.2,134.9C238.2,134.9,238.2,134.9,238.2,134.9"/>
<path class="st8" d="M244.8,108.5l10.3-8.9l-12.6-21.8l-14.2,2.1L244.8,108.5"/>
<path d="M235.1,87.7l11.1-3.5l-3.1-5.5l-17.2,1.3L235.1,87.7"/>
<path d="M254.5,98.9c-0.1,0-0.2,0-0.2-0.1l-12-20.8c-0.1-0.1,0-0.3,0.1-0.3c0.1-0.1,0.3,0,0.3,0.1l12,20.8c0.1,0.1,0,0.3-0.1,0.3
	C254.6,98.9,254.6,98.9,254.5,98.9"/>
<path class="st8" d="M174.9,95.1l2.1,2.5c3.5,4.2,9.7,4.7,13.8,1.3l15.3-12.7l-8.4-10.1L174.9,95.1"/>
<path d="M191.8,81l10.7,8.1l3.6-3l-8.4-10.1L191.8,81"/>
<path class="st8" d="M191.4,98.4l1.9-1.6L171.9,75l-7.6,7.3L176.5,97C180.2,101.5,186.9,102.1,191.4,98.4"/>
<path class="st8" d="M168.2,72.7l-9.4-12c-0.5-0.7-0.4-1.7,0.3-2.2c0.7-0.5,1.7-0.4,2.2,0.3l9.5,12L168.2,72.7"/>
<path class="st8" d="M165.2,74.7c-0.5,0.4-1.3,0.3-1.7-0.2l-2.4-3.1l-1.3,1l-0.6-0.7c-0.9-1.2-0.6-2.5-0.6-2.5c0.2-1.4,2.1-2.3,3-1
	l3.8,4.8C165.8,73.5,165.7,74.3,165.2,74.7"/>
<path class="st8" d="M162,74.6c-0.5,0.4-1.3,0.3-1.7-0.2l-1.1-1.4l-1.3,1l-0.6-0.7c-0.9-1.2-0.6-2.5-0.6-2.5c0.2-1.4,2.1-2.3,3-1
	l2.5,3.1C162.6,73.4,162.5,74.2,162,74.6"/>
<path class="st8" d="M172.2,72.7c-0.2,1.9-0.6,3.7-1.2,5.5l-0.9,2.9l-5.3,1.8l-7.8-9.8l7.9-6.3l4,5l0.7-5.1c0.1-1,0.7-2,1.5-2.6
	l1.4-1.1c0.6-0.5,1.6-0.4,2.1,0.2l0.1,0.1c0.5,0.6,0.4,1.6-0.2,2.1l-0.2,0.2c-0.8,0.6-1.4,1.6-1.5,2.6L172.2,72.7"/>
<path class="st8" d="M167.9,74.1c-0.5,0.4-1.3,0.3-1.7-0.2l-3.2-4l-1.3,1l-0.6-0.7c-0.9-1.2-0.6-2.5-0.6-2.5c0.2-1.4,2.1-2.3,3-1
	l4.5,5.7C168.5,72.9,168.4,73.7,167.9,74.1"/>
<path d="M167.1,74.7c-0.4,0-0.8-0.2-1.1-0.5l-0.8-1c-0.1-0.1-0.1-0.3,0-0.3c0.1-0.1,0.3-0.1,0.3,0l0.8,1c0.3,0.4,0.9,0.4,1.4,0.1
	c0.2-0.2,0.3-0.4,0.4-0.7c0-0.3,0-0.5-0.2-0.7l-4.5-5.7c-0.4-0.5-1-0.5-1.3-0.5c-0.6,0.1-1.2,0.7-1.3,1.3c0,0.1-0.2,0.2-0.3,0.2
	c-0.1,0-0.2-0.2-0.2-0.3c0.2-0.8,0.9-1.5,1.7-1.7c0.7-0.2,1.3,0.1,1.8,0.6l4.5,5.7c0.5,0.6,0.4,1.6-0.2,2.1
	C167.8,74.6,167.4,74.7,167.1,74.7"/>
<path d="M164.4,75.2c-0.1,0-0.1,0-0.2,0c-0.4,0-0.7-0.2-1-0.6l-1.2-1.5c-0.1-0.1-0.1-0.3,0-0.3c0.1-0.1,0.3-0.1,0.3,0l1.1,1.4
	c0.3,0.4,1,0.5,1.4,0.2c0.2-0.2,0.3-0.4,0.4-0.7c0-0.3,0-0.5-0.2-0.7l-3.8-4.8c-0.4-0.5-1-0.5-1.3-0.5c-0.6,0.1-1.2,0.7-1.3,1.3
	c0,0.1-0.2,0.2-0.3,0.2c-0.1,0-0.2-0.2-0.2-0.3c0.2-0.8,0.9-1.5,1.7-1.7c0.7-0.2,1.3,0.1,1.8,0.6l3.8,4.8c0.2,0.3,0.4,0.7,0.3,1.1
	c0,0.4-0.2,0.8-0.6,1C165.1,75.1,164.8,75.2,164.4,75.2"/>
<path d="M160.3,77.4c-0.1,0-0.1,0-0.2-0.1c-0.1-0.1-0.3-0.3-0.4-0.5c-1.2-1.5-3.5-4.2-3.2-6.2c0.1-0.6,0.4-1,0.9-1.4
	c1.5-1,2.5,0.3,3.2,1.2c0.1,0.1,0.1,0.2,0.2,0.2c0.1,0.1,0.3,0.3,0.5,0.5c0.7,0.8,1.5,1.7,1.4,2.6c-0.1,0.6-0.4,1-0.9,1.2
	c-0.6,0.2-1.3,0-1.7-0.4c-0.3-0.3-0.5-0.6-0.7-0.9c-0.1-0.2-0.2-0.3-0.3-0.4c-0.1-0.1-0.1-0.3,0-0.3c0.1-0.1,0.3-0.1,0.3,0
	c0.1,0.1,0.2,0.3,0.3,0.4c0.2,0.3,0.4,0.6,0.7,0.8c0.3,0.3,0.8,0.4,1.2,0.3c0.3-0.1,0.5-0.4,0.6-0.8c0.1-0.7-0.7-1.5-1.3-2.2
	c-0.2-0.2-0.3-0.4-0.5-0.5c-0.1-0.1-0.1-0.2-0.2-0.2c-0.9-1.1-1.5-1.8-2.5-1.1c-0.4,0.3-0.6,0.6-0.7,1c-0.3,1.7,1.9,4.4,3.1,5.8
	c0.2,0.2,0.3,0.4,0.4,0.5c0.1,0.1,0.1,0.3,0,0.3C160.4,77.4,160.4,77.4,160.3,77.4"/>
<path d="M171.9,75.2C171.8,75.2,171.8,75.2,171.9,75.2c-0.2,0-0.3-0.2-0.2-0.3c0.5-2.2,0.7-4.1,0.7-5.9c0,0,0,0,0,0
	c0.2-1.1,0.8-2.1,1.4-3c0.3-0.4,0.6-0.9,0.8-1.4c0.2-0.4,0.2-0.9,0-1.2c-0.3-0.4-0.9-0.6-1.5-0.4c-2.1,0.9-3.2,2.8-3.4,6
	c0,0.1-0.1,0.2-0.2,0.2c-0.1,0-0.2,0-0.3-0.1c-0.2-0.2-0.5-0.6-0.9-1.1c-1.7-2.1-4.8-5.9-6.7-8.8c-0.1-0.1-0.1-0.1-0.2-0.2
	c-0.4-0.4-0.8-0.9-1.4-0.9c-0.5,0.2-1.1,0.5-1.3,1c-0.1,0.2-0.1,0.4,0,0.7c0.8,1.6,2,3,3.1,4.3c0.7,0.8,1.4,1.6,2,2.5
	c0.1,0.1,0.1,0.3-0.1,0.3c-0.1,0.1-0.3,0.1-0.3-0.1c-0.6-0.8-1.3-1.6-2-2.4c-1.1-1.3-2.3-2.7-3.2-4.4c-0.2-0.4-0.2-0.8,0-1.1
	c0.3-0.6,1.1-1.1,1.7-1.2c0,0,0.1,0,0.1,0c0.8,0,1.4,0.6,1.8,1c0.1,0.1,0.1,0.1,0.2,0.2c0,0,0,0,0,0c1.9,2.9,5.1,6.7,6.7,8.7
	c0.2,0.2,0.4,0.5,0.5,0.6c0.4-3,1.6-4.9,3.7-5.8c0,0,0,0,0,0c0.8-0.2,1.6,0,2.1,0.6c0.4,0.5,0.4,1.1,0.1,1.7
	c-0.2,0.5-0.6,0.9-0.9,1.4c-0.6,0.9-1.2,1.8-1.3,2.8c0,1.8-0.3,3.8-0.8,5.9C172.1,75.2,172,75.2,171.9,75.2"/>
<path class="st6" d="M193.4,78.2c0,0,4.5-6,9.8-6H232c5.9,0,12.1,4.8,13.9,9.1l-10.8,6.4l1.2,20.8l-34-7l0.2-16.6L193.4,78.2"/>
<path d="M202.5,101.3l33.4,6.9l-1.2-20.5c0-0.1,0-0.2,0.1-0.2l10.7-6.3c-1.8-4.2-8-8.7-13.6-8.7h-28.8c-4.5,0-8.6,4.7-9.4,5.7
	l8.9,6.5c0.1,0,0.1,0.1,0.1,0.2L202.5,101.3z M236.2,108.7C236.2,108.7,236.2,108.7,236.2,108.7l-34-7c-0.1,0-0.2-0.1-0.2-0.2
	l0.2-16.5l-9-6.6c-0.1,0-0.1-0.1-0.1-0.2c0-0.1,0-0.1,0-0.2c0.2-0.2,4.7-6.1,10-6.1H232c6.1,0,12.3,4.9,14.1,9.2
	c0,0.1,0,0.2-0.1,0.3l-10.7,6.3l1.2,20.7c0,0.1,0,0.2-0.1,0.2C236.4,108.7,236.3,108.7,236.2,108.7"/>
<path class="st8" d="M235,116.8l7.5,7.7L255,107c1.4-2,1.5-4.7,0.2-6.7l-5.9-9.5L235,116.8"/>
<path class="st8" d="M225,127.8l0.1-0.2l0.3-1.3l0.1-0.3l0,0c0.6-2,1.8-3.7,3.6-4.9l6.7-4.6l6.6,8.1l-3.7,7.4l-11.5-3.6l-0.5,2.1
	l-0.2-0.1C225.4,129.9,224.8,128.9,225,127.8"/>
<path d="M238.7,132.1C238.7,132.1,238.6,132.1,238.7,132.1l-11.6-3.6c-0.1,0-0.2-0.2-0.2-0.3c0-0.1,0.2-0.2,0.3-0.2l11.3,3.6l3.6-7
	l-6.5-8c-0.1-0.1-0.1-0.3,0-0.3c0.1-0.1,0.3-0.1,0.3,0l6.6,8.1c0.1,0.1,0.1,0.2,0,0.3l-3.8,7.4C238.9,132,238.8,132.1,238.7,132.1"
	/>
<path class="st8" d="M228.8,133.4l2.2-8.6l-2.8-0.7l-2.2,8.6c-0.2,0.8,0.3,1.5,1,1.7l0.1,0C227.9,134.6,228.6,134.2,228.8,133.4"/>
<path class="st8" d="M231.3,135.4l2.3-9.1l-2.8-0.7l-2.3,9.1c-0.2,0.8,0.3,1.5,1,1.7l0.1,0C230.4,136.7,231.1,136.2,231.3,135.4"/>
<path class="st8" d="M239.3,127.9l-1,3.8l-0.4,1.5h0v0l-0.5,1.9l-0.4,1.7c-0.2,0.8-1,1.2-1.7,1l-0.1,0c-0.8-0.2-1.2-1-1-1.7l0.1-0.6
	v0l0-0.2l0-0.1v0l0.7-2.7l0.1-0.4l0.3-1.4l0.9-3.6l0.4,0.1l1.7,0.4L239.3,127.9"/>
<path class="st8" d="M242.4,124.5l-0.1,0.2l-1.6,6.4l-0.1,0.5c-0.3,1.1-0.9,2-1.8,2.6l-0.6,0.4l-0.7,0.5l0,0l-0.9,0.7l0.5-1.9
	l0.6-2.4l0,0l0.9-3.7l0.8-3.3l0.2-0.6L242.4,124.5L242.4,124.5"/>
<path class="st8" d="M236.6,126.6l-0.2,0.6l-0.9,3.6l-0.3,1.4l-0.1,0.4l-0.7,2.7v0c0,0,0,0,0,0.1c-0.2,0.8-0.9,1.2-1.6,1.2
	c0,0-0.1,0-0.1,0l-0.2,0c0,0-0.1,0-0.1,0c0,0-0.1,0-0.1,0c-0.6-0.3-0.9-1.1-0.7-1.8l0.6-2.2l0.6-2.4l0.9-3.6l0.1-0.5L236.6,126.6"/>
<path d="M230,136.8c-0.1,0-0.3,0-0.4-0.1l-0.1,0c-0.4-0.1-0.8-0.4-1-0.8c-0.2-0.4-0.3-0.8-0.2-1.3l0.9-3.5c0-0.1,0.2-0.2,0.3-0.2
	c0.1,0,0.2,0.2,0.2,0.3l-0.9,3.5c-0.1,0.3,0,0.6,0.1,0.9c0.2,0.3,0.4,0.5,0.7,0.5l0.1,0c0.6,0.2,1.3-0.2,1.4-0.8l0.8-3.1
	c0-0.1,0.2-0.2,0.3-0.2c0.1,0,0.2,0.2,0.2,0.3l-0.8,3.1C231.4,136.2,230.7,136.8,230,136.8"/>
<path d="M233,136.8c-0.1,0-0.2,0-0.2,0c-0.1,0-0.1,0-0.2,0l-0.2,0c0,0-0.1,0-0.1,0c0,0-0.1,0-0.1-0.1c-0.7-0.3-1.1-1.1-0.9-1.8
	c0,0,0,0,0-0.1l0.7-2.8c0-0.1,0.2-0.2,0.3-0.2c0.1,0,0.2,0.2,0.2,0.3l-0.7,2.8c-0.1,0.5,0.2,1.1,0.6,1.3c0,0,0.1,0,0.1,0
	c0,0,0.1,0,0.1,0l0.2,0c0,0,0.1,0,0.1,0c0.6,0.1,1.1-0.3,1.3-0.8v0l0,0l0.7-2.9c0-0.1,0.2-0.2,0.3-0.2c0.1,0,0.2,0.2,0.2,0.3
	l-0.7,2.9c0,0,0,0,0,0C234.4,136.4,233.7,136.8,233,136.8"/>
<path class="st8" d="M242.1,125.1l6.8-10.4l-10.7-3.2l-7.1,10.8L242.1,125.1"/>
<path d="M227.5,134.7c-0.1,0-0.3,0-0.4,0l-0.1,0c-0.9-0.2-1.4-1.1-1.2-2l2-7.8c0-0.1,0.2-0.2,0.3-0.2c0.1,0,0.2,0.2,0.2,0.3l-2,7.8
	c-0.2,0.6,0.2,1.3,0.8,1.4l0.1,0c0.3,0.1,0.6,0,0.9-0.1c0.3-0.2,0.5-0.4,0.5-0.7l0.7-2.8c0-0.1,0.2-0.2,0.3-0.2
	c0.1,0,0.2,0.2,0.2,0.3l-0.7,2.8c-0.1,0.4-0.4,0.8-0.8,1C228,134.6,227.7,134.7,227.5,134.7"/>
<path d="M235.7,138.2c-0.1,0-0.3,0-0.4-0.1l-0.1,0c-0.9-0.2-1.4-1.1-1.2-2l1-3.9c0-0.1,0.2-0.2,0.3-0.2c0.1,0,0.2,0.2,0.2,0.3
	l-1,3.9c-0.2,0.6,0.2,1.3,0.9,1.4l0.1,0c0.3,0.1,0.6,0,0.9-0.1s0.5-0.4,0.5-0.7l0.5-1.8l1.4-0.9c0.9-0.6,1.5-1.5,1.7-2.5l0.1-0.4
	v-0.2h0.1l1.6-6.2c0-0.1,0.2-0.2,0.3-0.2c0.1,0,0.2,0.2,0.2,0.3l-1.8,6.9c-0.3,1.1-1,2.1-1.9,2.7l-1.2,0.8l-0.5,1.7
	c-0.1,0.4-0.4,0.8-0.8,1C236.2,138.1,236,138.2,235.7,138.2"/>
<path d="M226.6,130.6C226.6,130.6,226.5,130.6,226.6,130.6c-1.3-0.3-2.1-1.6-1.8-2.8l0.5-1.9c0,0,0,0,0-0.1c0.6-2,1.9-3.8,3.6-5
	l6.7-4.6c0.1-0.1,0.3,0,0.3,0.1c0.1,0.1,0,0.3-0.1,0.3l-6.7,4.6c-1.7,1.1-2.9,2.8-3.5,4.7c0,0,0,0,0,0.1l-0.5,1.8
	c-0.2,0.9,0.4,2,1.3,2.2c0.1,0,0.2,0.2,0.2,0.3C226.8,130.5,226.7,130.6,226.6,130.6"/>
<path d="M242.4,124.7c0,0-0.1,0-0.1,0c-0.1-0.1-0.1-0.2-0.1-0.3l12.2-17c1.6-2.2,1.8-5.2,0.4-7.6l-6-10.4c-0.1-0.1,0-0.3,0.1-0.3
	c0.1-0.1,0.3,0,0.3,0.1l6,10.4c1.5,2.6,1.3,5.8-0.4,8.2l-12.2,17C242.6,124.7,242.5,124.7,242.4,124.7"/>
<path d="M234.5,117.6c0,0-0.1,0-0.1,0c-0.1-0.1-0.2-0.2-0.1-0.3l10.2-18.1c0.1-0.1,0.2-0.2,0.3-0.1c0.1,0.1,0.2,0.2,0.1,0.3
	l-10.2,18.1C234.6,117.5,234.6,117.6,234.5,117.6"/>
<path d="M212.9,59.9c0,2.9,2.4,5.3,5.3,5.3c2.9,0,5.3-2.4,5.3-5.3c0-2.9-2.4-5.3-5.3-5.3C215.3,54.6,212.9,57,212.9,59.9"/>
<path class="st8" d="M218.5,75.9c-1.6,0-3-1.3-3-3v-8.5h6v8.5C221.5,74.5,220.2,75.9,218.5,75.9"/>
<path d="M221.5,66.6v-2.3h-6v5c0.5,0.1,1.6,0.2,2.8-0.2C220.3,68.6,221.3,67,221.5,66.6"/>
<path class="st8" d="M214.1,58.7h7.3c0.7,0.9,1.1,2.1,1.1,3.4c0,2.9-2.1,5.3-4.8,5.3c-2.6,0-4.8-2.4-4.8-5.3
	C212.9,60.8,213.4,59.6,214.1,58.7"/>
<path class="st1" d="M219.7,64.6c-0.5,0.4-1,0.7-1.7,0.8c-1.5,0.2-2.9-0.8-3.3-2.2L219.7,64.6"/>
<path d="M217.5,139.8c-1.3,0-2.6-0.1-3.9-0.2c-0.5-0.1-1-0.1-1.5-0.2c-0.8-0.1-1.6-0.3-2.4-0.4c-6.1-1.3-11.8-4.2-16.5-8.3
	c-1.4-1.2-2.7-2.6-3.9-4.1c-0.8-0.9-1.5-1.9-2.2-2.9c-0.2-0.2-0.3-0.5-0.5-0.7c-0.1-0.1,0-0.3,0.1-0.3c0.1-0.1,0.3,0,0.3,0.1
	c0.2,0.2,0.3,0.5,0.5,0.7c0.7,1,1.4,1.9,2.1,2.8c1.2,1.4,2.5,2.8,3.9,4c4.6,4.1,10.3,6.9,16.3,8.2c0.8,0.2,1.6,0.3,2.3,0.4
	c0.5,0.1,1,0.1,1.5,0.2c1.3,0.1,2.6,0.2,3.8,0.2c0.4,0,0.9,0,1.3,0c4.5-0.2,8.9-1.1,13.1-2.9c0.1-0.1,0.3,0,0.3,0.1
	c0.1,0.1,0,0.3-0.1,0.3c-4.2,1.8-8.7,2.8-13.2,3C218.4,139.8,217.9,139.8,217.5,139.8"/>
<path class="st1" d="M196.8,166.5c0,12.1-9.8,22-22,22s-22-9.8-22-22c0-12.1,9.8-22,22-22S196.8,154.4,196.8,166.5"/>
<path d="M174.8,144.8c-12,0-21.7,9.8-21.7,21.7c0,12,9.8,21.7,21.7,21.7c12,0,21.7-9.8,21.7-21.7
	C196.5,154.5,186.8,144.8,174.8,144.8z M174.8,188.8c-12.3,0-22.2-10-22.2-22.2c0-12.3,10-22.2,22.2-22.2c12.3,0,22.2,10,22.2,22.2
	C197,178.8,187.1,188.8,174.8,188.8"/>
<path class="st4" d="M174.8,168c-6.3,0-12.1,2.3-16.5,6.1c2.9,6.2,9.2,10.6,16.5,10.6c7.3,0,13.6-4.3,16.5-10.6
	C186.9,170.3,181.1,168,174.8,168"/>
<path class="st4" d="M181,158.7c0,3.4-2.8,6.2-6.2,6.2s-6.2-2.8-6.2-6.2s2.8-6.2,6.2-6.2S181,155.3,181,158.7"/>
<g>
	<defs>
		<rect id="SVGID_00000127763482307333158690000017327745917321212319_" x="204" y="174.7" width="30.7" height="30.6"/>
	</defs>
	<clipPath id="SVGID_00000154405748712315096920000017195129666897732765_">
		<use xlink:href="#SVGID_00000127763482307333158690000017327745917321212319_"  style="overflow:visible;"/>
	</clipPath>
	<g style="clip-path:url(#SVGID_00000154405748712315096920000017195129666897732765_);">
		<path class="st1" d="M234.7,189.9c0,8.3-6.7,15.1-15.1,15.1c-8.3,0-15.1-6.7-15.1-15.1c0-8.3,6.7-15.1,15.1-15.1
			C227.9,174.8,234.7,181.6,234.7,189.9"/>
	</g>
</g>
<g>
	<defs>
		<rect id="SVGID_00000061448562072538164460000014491856895773109658_" x="204" y="173.3" width="32" height="31.9"/>
	</defs>
	<clipPath id="SVGID_00000119084132477796872980000015961754993025063304_">
		<use xlink:href="#SVGID_00000061448562072538164460000014491856895773109658_"  style="overflow:visible;"/>
	</clipPath>
	<g style="clip-path:url(#SVGID_00000119084132477796872980000015961754993025063304_);">
		<path d="M219.6,175.1c-8.2,0-14.8,6.6-14.8,14.8s6.6,14.8,14.8,14.8s14.8-6.6,14.8-14.8S227.8,175.1,219.6,175.1z M219.6,205.2
			c-8.4,0-15.3-6.9-15.3-15.3s6.9-15.3,15.3-15.3c8.4,0,15.3,6.9,15.3,15.3S228,205.2,219.6,205.2"/>
	</g>
</g>
<path class="st2" d="M219.6,190.9c-4.3,0-8.3,1.6-11.3,4.2c2,4.3,6.3,7.2,11.3,7.2c5,0,9.3-3,11.3-7.2
	C227.9,192.5,223.9,190.9,219.6,190.9"/>
<path class="st2" d="M223.8,184.5c0,2.3-1.9,4.2-4.2,4.2c-2.3,0-4.2-1.9-4.2-4.2c0-2.3,1.9-4.2,4.2-4.2
	C221.9,180.3,223.8,182.2,223.8,184.5"/>
<path class="st1" d="M214.1,22.2c0,12.1-9.8,22-22,22c-12.1,0-22-9.8-22-22s9.8-22,22-22C204.2,0.3,214.1,10.1,214.1,22.2"/>
<path d="M192.1,0.5c-12,0-21.7,9.8-21.7,21.7S180.1,44,192.1,44c12,0,21.7-9.8,21.7-21.7S204.1,0.5,192.1,0.5z M192.1,44.5
	c-12.3,0-22.2-10-22.2-22.2c0-12.3,10-22.2,22.2-22.2c12.3,0,22.2,10,22.2,22.2C214.3,34.5,204.3,44.5,192.1,44.5"/>
<path class="st0" d="M192.1,23.7c-6.3,0-12.1,2.3-16.5,6.1c2.9,6.2,9.2,10.5,16.5,10.5c7.3,0,13.6-4.3,16.5-10.5
	C204.1,26,198.4,23.7,192.1,23.7"/>
<path class="st0" d="M198.2,14.4c0,3.4-2.8,6.2-6.2,6.2s-6.2-2.8-6.2-6.2s2.8-6.2,6.2-6.2S198.2,11,198.2,14.4"/>
<g>
	<defs>
		<rect id="SVGID_00000124874251426788162200000003216297700273918879_" x="233.3" y="145.3" width="24.8" height="25.3"/>
	</defs>
	<clipPath id="SVGID_00000151523235518391943480000002117335143932226231_">
		<use xlink:href="#SVGID_00000124874251426788162200000003216297700273918879_"  style="overflow:visible;"/>
	</clipPath>
	<g style="clip-path:url(#SVGID_00000151523235518391943480000002117335143932226231_);">
		<path class="st1" d="M257.9,157.7c0,6.5-5.3,11.8-11.8,11.8c-6.5,0-11.8-5.3-11.8-11.8c0-6.5,5.3-11.8,11.8-11.8
			C252.7,145.9,257.9,151.2,257.9,157.7"/>
		<path d="M246.1,146.1c-6.4,0-11.5,5.2-11.5,11.5c0,6.4,5.2,11.5,11.5,11.5c6.4,0,11.5-5.2,11.5-11.5
			C257.7,151.3,252.5,146.1,246.1,146.1z M246.1,169.7c-6.6,0-12-5.4-12-12c0-6.6,5.4-12,12-12c6.6,0,12,5.4,12,12
			C258.2,164.3,252.8,169.7,246.1,169.7"/>
	</g>
</g>
<path class="st0" d="M246.1,158.5c-3.4,0-6.5,1.2-8.8,3.3c1.5,3.3,4.9,5.7,8.8,5.7c3.9,0,7.3-2.3,8.8-5.7
	C252.6,159.7,249.5,158.5,246.1,158.5"/>
<path class="st0" d="M249.5,153.5c0,1.8-1.5,3.3-3.3,3.3c-1.8,0-3.3-1.5-3.3-3.3c0-1.8,1.5-3.3,3.3-3.3
	C248,150.2,249.5,151.7,249.5,153.5"/>
<path class="st1" d="M93.3,104.9c0,6.5-5.3,11.8-11.8,11.8c-6.5,0-11.8-5.3-11.8-11.8c0-6.5,5.3-11.8,11.8-11.8
	C88,93.1,93.3,98.4,93.3,104.9"/>
<path d="M81.5,93.3c-6.4,0-11.5,5.2-11.5,11.5c0,6.4,5.2,11.5,11.5,11.5c6.4,0,11.5-5.2,11.5-11.5C93.1,98.5,87.9,93.3,81.5,93.3z
	 M81.5,116.9c-6.6,0-12-5.4-12-12c0-6.6,5.4-12,12-12s12,5.4,12,12C93.6,111.5,88.2,116.9,81.5,116.9"/>
<path class="st2" d="M81.5,105.7c-3.4,0-6.5,1.2-8.8,3.3c1.5,3.3,4.9,5.7,8.8,5.7c3.9,0,7.3-2.3,8.8-5.7
	C88,106.9,84.9,105.7,81.5,105.7"/>
<path class="st2" d="M84.8,100.7c0,1.8-1.5,3.3-3.3,3.3c-1.8,0-3.3-1.5-3.3-3.3c0-1.8,1.5-3.3,3.3-3.3
	C83.3,97.4,84.8,98.9,84.8,100.7"/>
<g>
	<defs>
		<rect id="SVGID_00000003079119854992624570000015383261148415782847_" x="233.3" y="26.7" width="24.8" height="25.3"/>
	</defs>
	<clipPath id="SVGID_00000008830142290315749580000000603491946608022420_">
		<use xlink:href="#SVGID_00000003079119854992624570000015383261148415782847_"  style="overflow:visible;"/>
	</clipPath>
	<g style="clip-path:url(#SVGID_00000008830142290315749580000000603491946608022420_);">
		<path class="st1" d="M257.7,39.6c0,6.5-5.3,11.8-11.8,11.8s-11.8-5.3-11.8-11.8s5.3-11.8,11.8-11.8S257.7,33.1,257.7,39.6"/>
		<path d="M245.9,28.1c-6.4,0-11.5,5.2-11.5,11.5s5.2,11.5,11.5,11.5c6.4,0,11.5-5.2,11.5-11.5S252.3,28.1,245.9,28.1z M245.9,51.6
			c-6.6,0-12-5.4-12-12s5.4-12,12-12s12,5.4,12,12S252.6,51.6,245.9,51.6"/>
	</g>
</g>
<path class="st2" d="M245.9,40.4c-3.4,0-6.5,1.2-8.8,3.3c1.5,3.3,4.9,5.7,8.8,5.7c3.9,0,7.3-2.3,8.8-5.7
	C252.4,41.6,249.3,40.4,245.9,40.4"/>
<path class="st2" d="M249.2,35.4c0,1.8-1.5,3.3-3.3,3.3c-1.8,0-3.3-1.5-3.3-3.3c0-1.8,1.5-3.3,3.3-3.3
	C247.7,32.1,249.2,33.6,249.2,35.4"/>
</svg>
